%TF.GenerationSoftware,KiCad,Pcbnew,(7.0.0)*%
%TF.CreationDate,2023-07-13T16:19:27+02:00*%
%TF.ProjectId,Panelization,50616e65-6c69-47a6-9174-696f6e2e6b69,V1*%
%TF.SameCoordinates,Original*%
%TF.FileFunction,Paste,Top*%
%TF.FilePolarity,Positive*%
%FSLAX46Y46*%
G04 Gerber Fmt 4.6, Leading zero omitted, Abs format (unit mm)*
G04 Created by KiCad (PCBNEW (7.0.0)) date 2023-07-13 16:19:27*
%MOMM*%
%LPD*%
G01*
G04 APERTURE LIST*
G04 Aperture macros list*
%AMRoundRect*
0 Rectangle with rounded corners*
0 $1 Rounding radius*
0 $2 $3 $4 $5 $6 $7 $8 $9 X,Y pos of 4 corners*
0 Add a 4 corners polygon primitive as box body*
4,1,4,$2,$3,$4,$5,$6,$7,$8,$9,$2,$3,0*
0 Add four circle primitives for the rounded corners*
1,1,$1+$1,$2,$3*
1,1,$1+$1,$4,$5*
1,1,$1+$1,$6,$7*
1,1,$1+$1,$8,$9*
0 Add four rect primitives between the rounded corners*
20,1,$1+$1,$2,$3,$4,$5,0*
20,1,$1+$1,$4,$5,$6,$7,0*
20,1,$1+$1,$6,$7,$8,$9,0*
20,1,$1+$1,$8,$9,$2,$3,0*%
G04 Aperture macros list end*
%ADD10C,0.010000*%
%ADD11RoundRect,0.250000X0.475000X-0.250000X0.475000X0.250000X-0.475000X0.250000X-0.475000X-0.250000X0*%
%ADD12R,0.280000X2.400000*%
%ADD13C,1.000000*%
%ADD14R,1.500000X2.000000*%
%ADD15C,0.400000*%
%TA.AperFunction,Profile*%
%ADD16C,0.100000*%
%TD*%
%TA.AperFunction,Profile*%
%ADD17C,0.400000*%
%TD*%
G04 APERTURE END LIST*
%TO.C,J7*%
G36*
X270580000Y-121230000D02*
G01*
X270580000Y-122500000D01*
X270220000Y-122500000D01*
X270220000Y-121230000D01*
X270400000Y-120970000D01*
X270580000Y-121230000D01*
G37*
D10*
X270580000Y-121230000D02*
X270580000Y-122500000D01*
X270220000Y-122500000D01*
X270220000Y-121230000D01*
X270400000Y-120970000D01*
X270580000Y-121230000D01*
G36*
X271380000Y-121230000D02*
G01*
X271380000Y-122500000D01*
X271020000Y-122500000D01*
X271020000Y-121230000D01*
X271200000Y-120970000D01*
X271380000Y-121230000D01*
G37*
X271380000Y-121230000D02*
X271380000Y-122500000D01*
X271020000Y-122500000D01*
X271020000Y-121230000D01*
X271200000Y-120970000D01*
X271380000Y-121230000D01*
G36*
X272180000Y-121230000D02*
G01*
X272180000Y-122500000D01*
X271820000Y-122500000D01*
X271820000Y-121230000D01*
X272000000Y-120970000D01*
X272180000Y-121230000D01*
G37*
X272180000Y-121230000D02*
X272180000Y-122500000D01*
X271820000Y-122500000D01*
X271820000Y-121230000D01*
X272000000Y-120970000D01*
X272180000Y-121230000D01*
G36*
X272980000Y-121230000D02*
G01*
X272980000Y-122500000D01*
X272620000Y-122500000D01*
X272620000Y-121230000D01*
X272800000Y-120970000D01*
X272980000Y-121230000D01*
G37*
X272980000Y-121230000D02*
X272980000Y-122500000D01*
X272620000Y-122500000D01*
X272620000Y-121230000D01*
X272800000Y-120970000D01*
X272980000Y-121230000D01*
G36*
X273780000Y-121230000D02*
G01*
X273780000Y-122500000D01*
X273420000Y-122500000D01*
X273420000Y-121230000D01*
X273600000Y-120970000D01*
X273780000Y-121230000D01*
G37*
X273780000Y-121230000D02*
X273780000Y-122500000D01*
X273420000Y-122500000D01*
X273420000Y-121230000D01*
X273600000Y-120970000D01*
X273780000Y-121230000D01*
G36*
X274580000Y-121230000D02*
G01*
X274580000Y-122500000D01*
X274220000Y-122500000D01*
X274220000Y-121230000D01*
X274400000Y-120970000D01*
X274580000Y-121230000D01*
G37*
X274580000Y-121230000D02*
X274580000Y-122500000D01*
X274220000Y-122500000D01*
X274220000Y-121230000D01*
X274400000Y-120970000D01*
X274580000Y-121230000D01*
G36*
X275380000Y-121230000D02*
G01*
X275380000Y-122500000D01*
X275020000Y-122500000D01*
X275020000Y-121230000D01*
X275200000Y-120970000D01*
X275380000Y-121230000D01*
G37*
X275380000Y-121230000D02*
X275380000Y-122500000D01*
X275020000Y-122500000D01*
X275020000Y-121230000D01*
X275200000Y-120970000D01*
X275380000Y-121230000D01*
G36*
X276180000Y-121230000D02*
G01*
X276180000Y-122500000D01*
X275820000Y-122500000D01*
X275820000Y-121230000D01*
X276000000Y-120970000D01*
X276180000Y-121230000D01*
G37*
X276180000Y-121230000D02*
X276180000Y-122500000D01*
X275820000Y-122500000D01*
X275820000Y-121230000D01*
X276000000Y-120970000D01*
X276180000Y-121230000D01*
G36*
X276980000Y-121230000D02*
G01*
X276980000Y-122500000D01*
X276620000Y-122500000D01*
X276620000Y-121230000D01*
X276800000Y-120970000D01*
X276980000Y-121230000D01*
G37*
X276980000Y-121230000D02*
X276980000Y-122500000D01*
X276620000Y-122500000D01*
X276620000Y-121230000D01*
X276800000Y-120970000D01*
X276980000Y-121230000D01*
G36*
X277780000Y-121230000D02*
G01*
X277780000Y-122500000D01*
X277420000Y-122500000D01*
X277420000Y-121230000D01*
X277600000Y-120970000D01*
X277780000Y-121230000D01*
G37*
X277780000Y-121230000D02*
X277780000Y-122500000D01*
X277420000Y-122500000D01*
X277420000Y-121230000D01*
X277600000Y-120970000D01*
X277780000Y-121230000D01*
G36*
X278580000Y-121230000D02*
G01*
X278580000Y-122500000D01*
X278220000Y-122500000D01*
X278220000Y-121230000D01*
X278400000Y-120970000D01*
X278580000Y-121230000D01*
G37*
X278580000Y-121230000D02*
X278580000Y-122500000D01*
X278220000Y-122500000D01*
X278220000Y-121230000D01*
X278400000Y-120970000D01*
X278580000Y-121230000D01*
G36*
X279380000Y-121230000D02*
G01*
X279380000Y-122500000D01*
X279020000Y-122500000D01*
X279020000Y-121230000D01*
X279200000Y-120970000D01*
X279380000Y-121230000D01*
G37*
X279380000Y-121230000D02*
X279380000Y-122500000D01*
X279020000Y-122500000D01*
X279020000Y-121230000D01*
X279200000Y-120970000D01*
X279380000Y-121230000D01*
G36*
X280180000Y-121230000D02*
G01*
X280180000Y-122500000D01*
X279820000Y-122500000D01*
X279820000Y-121230000D01*
X280000000Y-120970000D01*
X280180000Y-121230000D01*
G37*
X280180000Y-121230000D02*
X280180000Y-122500000D01*
X279820000Y-122500000D01*
X279820000Y-121230000D01*
X280000000Y-120970000D01*
X280180000Y-121230000D01*
G36*
X280980000Y-121230000D02*
G01*
X280980000Y-122500000D01*
X280620000Y-122500000D01*
X280620000Y-121230000D01*
X280800000Y-120970000D01*
X280980000Y-121230000D01*
G37*
X280980000Y-121230000D02*
X280980000Y-122500000D01*
X280620000Y-122500000D01*
X280620000Y-121230000D01*
X280800000Y-120970000D01*
X280980000Y-121230000D01*
G36*
X281780000Y-121230000D02*
G01*
X281780000Y-122500000D01*
X281420000Y-122500000D01*
X281420000Y-121230000D01*
X281600000Y-120970000D01*
X281780000Y-121230000D01*
G37*
X281780000Y-121230000D02*
X281780000Y-122500000D01*
X281420000Y-122500000D01*
X281420000Y-121230000D01*
X281600000Y-120970000D01*
X281780000Y-121230000D01*
G36*
X282580000Y-121230000D02*
G01*
X282580000Y-122500000D01*
X282220000Y-122500000D01*
X282220000Y-121230000D01*
X282400000Y-120970000D01*
X282580000Y-121230000D01*
G37*
X282580000Y-121230000D02*
X282580000Y-122500000D01*
X282220000Y-122500000D01*
X282220000Y-121230000D01*
X282400000Y-120970000D01*
X282580000Y-121230000D01*
G36*
X283380000Y-121230000D02*
G01*
X283380000Y-122500000D01*
X283020000Y-122500000D01*
X283020000Y-121230000D01*
X283200000Y-120970000D01*
X283380000Y-121230000D01*
G37*
X283380000Y-121230000D02*
X283380000Y-122500000D01*
X283020000Y-122500000D01*
X283020000Y-121230000D01*
X283200000Y-120970000D01*
X283380000Y-121230000D01*
G36*
X284180000Y-121230000D02*
G01*
X284180000Y-122500000D01*
X283820000Y-122500000D01*
X283820000Y-121230000D01*
X284000000Y-120970000D01*
X284180000Y-121230000D01*
G37*
X284180000Y-121230000D02*
X284180000Y-122500000D01*
X283820000Y-122500000D01*
X283820000Y-121230000D01*
X284000000Y-120970000D01*
X284180000Y-121230000D01*
G36*
X284980000Y-121230000D02*
G01*
X284980000Y-122500000D01*
X284620000Y-122500000D01*
X284620000Y-121230000D01*
X284800000Y-120970000D01*
X284980000Y-121230000D01*
G37*
X284980000Y-121230000D02*
X284980000Y-122500000D01*
X284620000Y-122500000D01*
X284620000Y-121230000D01*
X284800000Y-120970000D01*
X284980000Y-121230000D01*
G36*
X285780000Y-121230000D02*
G01*
X285780000Y-122500000D01*
X285420000Y-122500000D01*
X285420000Y-121230000D01*
X285600000Y-120970000D01*
X285780000Y-121230000D01*
G37*
X285780000Y-121230000D02*
X285780000Y-122500000D01*
X285420000Y-122500000D01*
X285420000Y-121230000D01*
X285600000Y-120970000D01*
X285780000Y-121230000D01*
G36*
X286580000Y-121230000D02*
G01*
X286580000Y-122500000D01*
X286220000Y-122500000D01*
X286220000Y-121230000D01*
X286400000Y-120970000D01*
X286580000Y-121230000D01*
G37*
X286580000Y-121230000D02*
X286580000Y-122500000D01*
X286220000Y-122500000D01*
X286220000Y-121230000D01*
X286400000Y-120970000D01*
X286580000Y-121230000D01*
G36*
X287380000Y-121230000D02*
G01*
X287380000Y-122500000D01*
X287020000Y-122500000D01*
X287020000Y-121230000D01*
X287200000Y-120970000D01*
X287380000Y-121230000D01*
G37*
X287380000Y-121230000D02*
X287380000Y-122500000D01*
X287020000Y-122500000D01*
X287020000Y-121230000D01*
X287200000Y-120970000D01*
X287380000Y-121230000D01*
G36*
X288180000Y-121230000D02*
G01*
X288180000Y-122500000D01*
X287820000Y-122500000D01*
X287820000Y-121230000D01*
X288000000Y-120970000D01*
X288180000Y-121230000D01*
G37*
X288180000Y-121230000D02*
X288180000Y-122500000D01*
X287820000Y-122500000D01*
X287820000Y-121230000D01*
X288000000Y-120970000D01*
X288180000Y-121230000D01*
G36*
X288980000Y-121230000D02*
G01*
X288980000Y-122500000D01*
X288620000Y-122500000D01*
X288620000Y-121230000D01*
X288800000Y-120970000D01*
X288980000Y-121230000D01*
G37*
X288980000Y-121230000D02*
X288980000Y-122500000D01*
X288620000Y-122500000D01*
X288620000Y-121230000D01*
X288800000Y-120970000D01*
X288980000Y-121230000D01*
G36*
X289780000Y-121230000D02*
G01*
X289780000Y-122500000D01*
X289420000Y-122500000D01*
X289420000Y-121230000D01*
X289600000Y-120970000D01*
X289780000Y-121230000D01*
G37*
X289780000Y-121230000D02*
X289780000Y-122500000D01*
X289420000Y-122500000D01*
X289420000Y-121230000D01*
X289600000Y-120970000D01*
X289780000Y-121230000D01*
G36*
X290580000Y-121230000D02*
G01*
X290580000Y-122500000D01*
X290220000Y-122500000D01*
X290220000Y-121230000D01*
X290400000Y-120970000D01*
X290580000Y-121230000D01*
G37*
X290580000Y-121230000D02*
X290580000Y-122500000D01*
X290220000Y-122500000D01*
X290220000Y-121230000D01*
X290400000Y-120970000D01*
X290580000Y-121230000D01*
G36*
X291380000Y-121230000D02*
G01*
X291380000Y-122500000D01*
X291020000Y-122500000D01*
X291020000Y-121230000D01*
X291200000Y-120970000D01*
X291380000Y-121230000D01*
G37*
X291380000Y-121230000D02*
X291380000Y-122500000D01*
X291020000Y-122500000D01*
X291020000Y-121230000D01*
X291200000Y-120970000D01*
X291380000Y-121230000D01*
G36*
X292180000Y-121230000D02*
G01*
X292180000Y-122500000D01*
X291820000Y-122500000D01*
X291820000Y-121230000D01*
X292000000Y-120970000D01*
X292180000Y-121230000D01*
G37*
X292180000Y-121230000D02*
X292180000Y-122500000D01*
X291820000Y-122500000D01*
X291820000Y-121230000D01*
X292000000Y-120970000D01*
X292180000Y-121230000D01*
G36*
X292980000Y-121230000D02*
G01*
X292980000Y-122500000D01*
X292620000Y-122500000D01*
X292620000Y-121230000D01*
X292800000Y-120970000D01*
X292980000Y-121230000D01*
G37*
X292980000Y-121230000D02*
X292980000Y-122500000D01*
X292620000Y-122500000D01*
X292620000Y-121230000D01*
X292800000Y-120970000D01*
X292980000Y-121230000D01*
G36*
X293780000Y-121230000D02*
G01*
X293780000Y-122500000D01*
X293420000Y-122500000D01*
X293420000Y-121230000D01*
X293600000Y-120970000D01*
X293780000Y-121230000D01*
G37*
X293780000Y-121230000D02*
X293780000Y-122500000D01*
X293420000Y-122500000D01*
X293420000Y-121230000D01*
X293600000Y-120970000D01*
X293780000Y-121230000D01*
G36*
X294580000Y-121230000D02*
G01*
X294580000Y-122500000D01*
X294220000Y-122500000D01*
X294220000Y-121230000D01*
X294400000Y-120970000D01*
X294580000Y-121230000D01*
G37*
X294580000Y-121230000D02*
X294580000Y-122500000D01*
X294220000Y-122500000D01*
X294220000Y-121230000D01*
X294400000Y-120970000D01*
X294580000Y-121230000D01*
G36*
X295380000Y-121230000D02*
G01*
X295380000Y-122500000D01*
X295020000Y-122500000D01*
X295020000Y-121230000D01*
X295200000Y-120970000D01*
X295380000Y-121230000D01*
G37*
X295380000Y-121230000D02*
X295380000Y-122500000D01*
X295020000Y-122500000D01*
X295020000Y-121230000D01*
X295200000Y-120970000D01*
X295380000Y-121230000D01*
G36*
X296180000Y-121230000D02*
G01*
X296180000Y-122500000D01*
X295820000Y-122500000D01*
X295820000Y-121230000D01*
X296000000Y-120970000D01*
X296180000Y-121230000D01*
G37*
X296180000Y-121230000D02*
X296180000Y-122500000D01*
X295820000Y-122500000D01*
X295820000Y-121230000D01*
X296000000Y-120970000D01*
X296180000Y-121230000D01*
G36*
X296980000Y-121230000D02*
G01*
X296980000Y-122500000D01*
X296620000Y-122500000D01*
X296620000Y-121230000D01*
X296800000Y-120970000D01*
X296980000Y-121230000D01*
G37*
X296980000Y-121230000D02*
X296980000Y-122500000D01*
X296620000Y-122500000D01*
X296620000Y-121230000D01*
X296800000Y-120970000D01*
X296980000Y-121230000D01*
G36*
X297780000Y-121230000D02*
G01*
X297780000Y-122500000D01*
X297420000Y-122500000D01*
X297420000Y-121230000D01*
X297600000Y-120970000D01*
X297780000Y-121230000D01*
G37*
X297780000Y-121230000D02*
X297780000Y-122500000D01*
X297420000Y-122500000D01*
X297420000Y-121230000D01*
X297600000Y-120970000D01*
X297780000Y-121230000D01*
G36*
X298580000Y-121230000D02*
G01*
X298580000Y-122500000D01*
X298220000Y-122500000D01*
X298220000Y-121230000D01*
X298400000Y-120970000D01*
X298580000Y-121230000D01*
G37*
X298580000Y-121230000D02*
X298580000Y-122500000D01*
X298220000Y-122500000D01*
X298220000Y-121230000D01*
X298400000Y-120970000D01*
X298580000Y-121230000D01*
G36*
X299380000Y-121230000D02*
G01*
X299380000Y-122500000D01*
X299020000Y-122500000D01*
X299020000Y-121230000D01*
X299200000Y-120970000D01*
X299380000Y-121230000D01*
G37*
X299380000Y-121230000D02*
X299380000Y-122500000D01*
X299020000Y-122500000D01*
X299020000Y-121230000D01*
X299200000Y-120970000D01*
X299380000Y-121230000D01*
G36*
X300180000Y-121230000D02*
G01*
X300180000Y-122500000D01*
X299820000Y-122500000D01*
X299820000Y-121230000D01*
X300000000Y-120970000D01*
X300180000Y-121230000D01*
G37*
X300180000Y-121230000D02*
X300180000Y-122500000D01*
X299820000Y-122500000D01*
X299820000Y-121230000D01*
X300000000Y-120970000D01*
X300180000Y-121230000D01*
G36*
X300980000Y-121230000D02*
G01*
X300980000Y-122500000D01*
X300620000Y-122500000D01*
X300620000Y-121230000D01*
X300800000Y-120970000D01*
X300980000Y-121230000D01*
G37*
X300980000Y-121230000D02*
X300980000Y-122500000D01*
X300620000Y-122500000D01*
X300620000Y-121230000D01*
X300800000Y-120970000D01*
X300980000Y-121230000D01*
G36*
X301780000Y-121230000D02*
G01*
X301780000Y-122500000D01*
X301420000Y-122500000D01*
X301420000Y-121230000D01*
X301600000Y-120970000D01*
X301780000Y-121230000D01*
G37*
X301780000Y-121230000D02*
X301780000Y-122500000D01*
X301420000Y-122500000D01*
X301420000Y-121230000D01*
X301600000Y-120970000D01*
X301780000Y-121230000D01*
G36*
X302580000Y-121230000D02*
G01*
X302580000Y-122500000D01*
X302220000Y-122500000D01*
X302220000Y-121230000D01*
X302400000Y-120970000D01*
X302580000Y-121230000D01*
G37*
X302580000Y-121230000D02*
X302580000Y-122500000D01*
X302220000Y-122500000D01*
X302220000Y-121230000D01*
X302400000Y-120970000D01*
X302580000Y-121230000D01*
G36*
X303380000Y-121230000D02*
G01*
X303380000Y-122500000D01*
X303020000Y-122500000D01*
X303020000Y-121230000D01*
X303200000Y-120970000D01*
X303380000Y-121230000D01*
G37*
X303380000Y-121230000D02*
X303380000Y-122500000D01*
X303020000Y-122500000D01*
X303020000Y-121230000D01*
X303200000Y-120970000D01*
X303380000Y-121230000D01*
G36*
X304180000Y-121230000D02*
G01*
X304180000Y-122500000D01*
X303820000Y-122500000D01*
X303820000Y-121230000D01*
X304000000Y-120970000D01*
X304180000Y-121230000D01*
G37*
X304180000Y-121230000D02*
X304180000Y-122500000D01*
X303820000Y-122500000D01*
X303820000Y-121230000D01*
X304000000Y-120970000D01*
X304180000Y-121230000D01*
G36*
X304980000Y-121230000D02*
G01*
X304980000Y-122500000D01*
X304620000Y-122500000D01*
X304620000Y-121230000D01*
X304800000Y-120970000D01*
X304980000Y-121230000D01*
G37*
X304980000Y-121230000D02*
X304980000Y-122500000D01*
X304620000Y-122500000D01*
X304620000Y-121230000D01*
X304800000Y-120970000D01*
X304980000Y-121230000D01*
G36*
X305780000Y-121230000D02*
G01*
X305780000Y-122500000D01*
X305420000Y-122500000D01*
X305420000Y-121230000D01*
X305600000Y-120970000D01*
X305780000Y-121230000D01*
G37*
X305780000Y-121230000D02*
X305780000Y-122500000D01*
X305420000Y-122500000D01*
X305420000Y-121230000D01*
X305600000Y-120970000D01*
X305780000Y-121230000D01*
G36*
X306580000Y-121230000D02*
G01*
X306580000Y-122500000D01*
X306220000Y-122500000D01*
X306220000Y-121230000D01*
X306400000Y-120970000D01*
X306580000Y-121230000D01*
G37*
X306580000Y-121230000D02*
X306580000Y-122500000D01*
X306220000Y-122500000D01*
X306220000Y-121230000D01*
X306400000Y-120970000D01*
X306580000Y-121230000D01*
G36*
X307380000Y-121230000D02*
G01*
X307380000Y-122500000D01*
X307020000Y-122500000D01*
X307020000Y-121230000D01*
X307200000Y-120970000D01*
X307380000Y-121230000D01*
G37*
X307380000Y-121230000D02*
X307380000Y-122500000D01*
X307020000Y-122500000D01*
X307020000Y-121230000D01*
X307200000Y-120970000D01*
X307380000Y-121230000D01*
G36*
X308180000Y-121230000D02*
G01*
X308180000Y-122500000D01*
X307820000Y-122500000D01*
X307820000Y-121230000D01*
X308000000Y-120970000D01*
X308180000Y-121230000D01*
G37*
X308180000Y-121230000D02*
X308180000Y-122500000D01*
X307820000Y-122500000D01*
X307820000Y-121230000D01*
X308000000Y-120970000D01*
X308180000Y-121230000D01*
G36*
X308980000Y-121230000D02*
G01*
X308980000Y-122500000D01*
X308620000Y-122500000D01*
X308620000Y-121230000D01*
X308800000Y-120970000D01*
X308980000Y-121230000D01*
G37*
X308980000Y-121230000D02*
X308980000Y-122500000D01*
X308620000Y-122500000D01*
X308620000Y-121230000D01*
X308800000Y-120970000D01*
X308980000Y-121230000D01*
G36*
X309780000Y-121230000D02*
G01*
X309780000Y-122500000D01*
X309420000Y-122500000D01*
X309420000Y-121230000D01*
X309600000Y-120970000D01*
X309780000Y-121230000D01*
G37*
X309780000Y-121230000D02*
X309780000Y-122500000D01*
X309420000Y-122500000D01*
X309420000Y-121230000D01*
X309600000Y-120970000D01*
X309780000Y-121230000D01*
G36*
X110580000Y-152230000D02*
G01*
X110580000Y-153500000D01*
X110220000Y-153500000D01*
X110220000Y-152230000D01*
X110400000Y-151970000D01*
X110580000Y-152230000D01*
G37*
X110580000Y-152230000D02*
X110580000Y-153500000D01*
X110220000Y-153500000D01*
X110220000Y-152230000D01*
X110400000Y-151970000D01*
X110580000Y-152230000D01*
G36*
X111380000Y-152230000D02*
G01*
X111380000Y-153500000D01*
X111020000Y-153500000D01*
X111020000Y-152230000D01*
X111200000Y-151970000D01*
X111380000Y-152230000D01*
G37*
X111380000Y-152230000D02*
X111380000Y-153500000D01*
X111020000Y-153500000D01*
X111020000Y-152230000D01*
X111200000Y-151970000D01*
X111380000Y-152230000D01*
G36*
X112180000Y-152230000D02*
G01*
X112180000Y-153500000D01*
X111820000Y-153500000D01*
X111820000Y-152230000D01*
X112000000Y-151970000D01*
X112180000Y-152230000D01*
G37*
X112180000Y-152230000D02*
X112180000Y-153500000D01*
X111820000Y-153500000D01*
X111820000Y-152230000D01*
X112000000Y-151970000D01*
X112180000Y-152230000D01*
G36*
X112980000Y-152230000D02*
G01*
X112980000Y-153500000D01*
X112620000Y-153500000D01*
X112620000Y-152230000D01*
X112800000Y-151970000D01*
X112980000Y-152230000D01*
G37*
X112980000Y-152230000D02*
X112980000Y-153500000D01*
X112620000Y-153500000D01*
X112620000Y-152230000D01*
X112800000Y-151970000D01*
X112980000Y-152230000D01*
G36*
X113780000Y-152230000D02*
G01*
X113780000Y-153500000D01*
X113420000Y-153500000D01*
X113420000Y-152230000D01*
X113600000Y-151970000D01*
X113780000Y-152230000D01*
G37*
X113780000Y-152230000D02*
X113780000Y-153500000D01*
X113420000Y-153500000D01*
X113420000Y-152230000D01*
X113600000Y-151970000D01*
X113780000Y-152230000D01*
G36*
X114580000Y-152230000D02*
G01*
X114580000Y-153500000D01*
X114220000Y-153500000D01*
X114220000Y-152230000D01*
X114400000Y-151970000D01*
X114580000Y-152230000D01*
G37*
X114580000Y-152230000D02*
X114580000Y-153500000D01*
X114220000Y-153500000D01*
X114220000Y-152230000D01*
X114400000Y-151970000D01*
X114580000Y-152230000D01*
G36*
X115380000Y-152230000D02*
G01*
X115380000Y-153500000D01*
X115020000Y-153500000D01*
X115020000Y-152230000D01*
X115200000Y-151970000D01*
X115380000Y-152230000D01*
G37*
X115380000Y-152230000D02*
X115380000Y-153500000D01*
X115020000Y-153500000D01*
X115020000Y-152230000D01*
X115200000Y-151970000D01*
X115380000Y-152230000D01*
G36*
X116180000Y-152230000D02*
G01*
X116180000Y-153500000D01*
X115820000Y-153500000D01*
X115820000Y-152230000D01*
X116000000Y-151970000D01*
X116180000Y-152230000D01*
G37*
X116180000Y-152230000D02*
X116180000Y-153500000D01*
X115820000Y-153500000D01*
X115820000Y-152230000D01*
X116000000Y-151970000D01*
X116180000Y-152230000D01*
G36*
X116980000Y-152230000D02*
G01*
X116980000Y-153500000D01*
X116620000Y-153500000D01*
X116620000Y-152230000D01*
X116800000Y-151970000D01*
X116980000Y-152230000D01*
G37*
X116980000Y-152230000D02*
X116980000Y-153500000D01*
X116620000Y-153500000D01*
X116620000Y-152230000D01*
X116800000Y-151970000D01*
X116980000Y-152230000D01*
G36*
X117780000Y-152230000D02*
G01*
X117780000Y-153500000D01*
X117420000Y-153500000D01*
X117420000Y-152230000D01*
X117600000Y-151970000D01*
X117780000Y-152230000D01*
G37*
X117780000Y-152230000D02*
X117780000Y-153500000D01*
X117420000Y-153500000D01*
X117420000Y-152230000D01*
X117600000Y-151970000D01*
X117780000Y-152230000D01*
G36*
X118580000Y-152230000D02*
G01*
X118580000Y-153500000D01*
X118220000Y-153500000D01*
X118220000Y-152230000D01*
X118400000Y-151970000D01*
X118580000Y-152230000D01*
G37*
X118580000Y-152230000D02*
X118580000Y-153500000D01*
X118220000Y-153500000D01*
X118220000Y-152230000D01*
X118400000Y-151970000D01*
X118580000Y-152230000D01*
G36*
X119380000Y-152230000D02*
G01*
X119380000Y-153500000D01*
X119020000Y-153500000D01*
X119020000Y-152230000D01*
X119200000Y-151970000D01*
X119380000Y-152230000D01*
G37*
X119380000Y-152230000D02*
X119380000Y-153500000D01*
X119020000Y-153500000D01*
X119020000Y-152230000D01*
X119200000Y-151970000D01*
X119380000Y-152230000D01*
G36*
X120180000Y-152230000D02*
G01*
X120180000Y-153500000D01*
X119820000Y-153500000D01*
X119820000Y-152230000D01*
X120000000Y-151970000D01*
X120180000Y-152230000D01*
G37*
X120180000Y-152230000D02*
X120180000Y-153500000D01*
X119820000Y-153500000D01*
X119820000Y-152230000D01*
X120000000Y-151970000D01*
X120180000Y-152230000D01*
G36*
X120980000Y-152230000D02*
G01*
X120980000Y-153500000D01*
X120620000Y-153500000D01*
X120620000Y-152230000D01*
X120800000Y-151970000D01*
X120980000Y-152230000D01*
G37*
X120980000Y-152230000D02*
X120980000Y-153500000D01*
X120620000Y-153500000D01*
X120620000Y-152230000D01*
X120800000Y-151970000D01*
X120980000Y-152230000D01*
G36*
X121780000Y-152230000D02*
G01*
X121780000Y-153500000D01*
X121420000Y-153500000D01*
X121420000Y-152230000D01*
X121600000Y-151970000D01*
X121780000Y-152230000D01*
G37*
X121780000Y-152230000D02*
X121780000Y-153500000D01*
X121420000Y-153500000D01*
X121420000Y-152230000D01*
X121600000Y-151970000D01*
X121780000Y-152230000D01*
G36*
X122580000Y-152230000D02*
G01*
X122580000Y-153500000D01*
X122220000Y-153500000D01*
X122220000Y-152230000D01*
X122400000Y-151970000D01*
X122580000Y-152230000D01*
G37*
X122580000Y-152230000D02*
X122580000Y-153500000D01*
X122220000Y-153500000D01*
X122220000Y-152230000D01*
X122400000Y-151970000D01*
X122580000Y-152230000D01*
G36*
X123380000Y-152230000D02*
G01*
X123380000Y-153500000D01*
X123020000Y-153500000D01*
X123020000Y-152230000D01*
X123200000Y-151970000D01*
X123380000Y-152230000D01*
G37*
X123380000Y-152230000D02*
X123380000Y-153500000D01*
X123020000Y-153500000D01*
X123020000Y-152230000D01*
X123200000Y-151970000D01*
X123380000Y-152230000D01*
G36*
X124180000Y-152230000D02*
G01*
X124180000Y-153500000D01*
X123820000Y-153500000D01*
X123820000Y-152230000D01*
X124000000Y-151970000D01*
X124180000Y-152230000D01*
G37*
X124180000Y-152230000D02*
X124180000Y-153500000D01*
X123820000Y-153500000D01*
X123820000Y-152230000D01*
X124000000Y-151970000D01*
X124180000Y-152230000D01*
G36*
X124980000Y-152230000D02*
G01*
X124980000Y-153500000D01*
X124620000Y-153500000D01*
X124620000Y-152230000D01*
X124800000Y-151970000D01*
X124980000Y-152230000D01*
G37*
X124980000Y-152230000D02*
X124980000Y-153500000D01*
X124620000Y-153500000D01*
X124620000Y-152230000D01*
X124800000Y-151970000D01*
X124980000Y-152230000D01*
G36*
X125780000Y-152230000D02*
G01*
X125780000Y-153500000D01*
X125420000Y-153500000D01*
X125420000Y-152230000D01*
X125600000Y-151970000D01*
X125780000Y-152230000D01*
G37*
X125780000Y-152230000D02*
X125780000Y-153500000D01*
X125420000Y-153500000D01*
X125420000Y-152230000D01*
X125600000Y-151970000D01*
X125780000Y-152230000D01*
G36*
X126580000Y-152230000D02*
G01*
X126580000Y-153500000D01*
X126220000Y-153500000D01*
X126220000Y-152230000D01*
X126400000Y-151970000D01*
X126580000Y-152230000D01*
G37*
X126580000Y-152230000D02*
X126580000Y-153500000D01*
X126220000Y-153500000D01*
X126220000Y-152230000D01*
X126400000Y-151970000D01*
X126580000Y-152230000D01*
G36*
X127380000Y-152230000D02*
G01*
X127380000Y-153500000D01*
X127020000Y-153500000D01*
X127020000Y-152230000D01*
X127200000Y-151970000D01*
X127380000Y-152230000D01*
G37*
X127380000Y-152230000D02*
X127380000Y-153500000D01*
X127020000Y-153500000D01*
X127020000Y-152230000D01*
X127200000Y-151970000D01*
X127380000Y-152230000D01*
G36*
X128180000Y-152230000D02*
G01*
X128180000Y-153500000D01*
X127820000Y-153500000D01*
X127820000Y-152230000D01*
X128000000Y-151970000D01*
X128180000Y-152230000D01*
G37*
X128180000Y-152230000D02*
X128180000Y-153500000D01*
X127820000Y-153500000D01*
X127820000Y-152230000D01*
X128000000Y-151970000D01*
X128180000Y-152230000D01*
G36*
X128980000Y-152230000D02*
G01*
X128980000Y-153500000D01*
X128620000Y-153500000D01*
X128620000Y-152230000D01*
X128800000Y-151970000D01*
X128980000Y-152230000D01*
G37*
X128980000Y-152230000D02*
X128980000Y-153500000D01*
X128620000Y-153500000D01*
X128620000Y-152230000D01*
X128800000Y-151970000D01*
X128980000Y-152230000D01*
G36*
X129780000Y-152230000D02*
G01*
X129780000Y-153500000D01*
X129420000Y-153500000D01*
X129420000Y-152230000D01*
X129600000Y-151970000D01*
X129780000Y-152230000D01*
G37*
X129780000Y-152230000D02*
X129780000Y-153500000D01*
X129420000Y-153500000D01*
X129420000Y-152230000D01*
X129600000Y-151970000D01*
X129780000Y-152230000D01*
G36*
X130580000Y-152230000D02*
G01*
X130580000Y-153500000D01*
X130220000Y-153500000D01*
X130220000Y-152230000D01*
X130400000Y-151970000D01*
X130580000Y-152230000D01*
G37*
X130580000Y-152230000D02*
X130580000Y-153500000D01*
X130220000Y-153500000D01*
X130220000Y-152230000D01*
X130400000Y-151970000D01*
X130580000Y-152230000D01*
G36*
X131380000Y-152230000D02*
G01*
X131380000Y-153500000D01*
X131020000Y-153500000D01*
X131020000Y-152230000D01*
X131200000Y-151970000D01*
X131380000Y-152230000D01*
G37*
X131380000Y-152230000D02*
X131380000Y-153500000D01*
X131020000Y-153500000D01*
X131020000Y-152230000D01*
X131200000Y-151970000D01*
X131380000Y-152230000D01*
G36*
X132180000Y-152230000D02*
G01*
X132180000Y-153500000D01*
X131820000Y-153500000D01*
X131820000Y-152230000D01*
X132000000Y-151970000D01*
X132180000Y-152230000D01*
G37*
X132180000Y-152230000D02*
X132180000Y-153500000D01*
X131820000Y-153500000D01*
X131820000Y-152230000D01*
X132000000Y-151970000D01*
X132180000Y-152230000D01*
G36*
X132980000Y-152230000D02*
G01*
X132980000Y-153500000D01*
X132620000Y-153500000D01*
X132620000Y-152230000D01*
X132800000Y-151970000D01*
X132980000Y-152230000D01*
G37*
X132980000Y-152230000D02*
X132980000Y-153500000D01*
X132620000Y-153500000D01*
X132620000Y-152230000D01*
X132800000Y-151970000D01*
X132980000Y-152230000D01*
G36*
X133780000Y-152230000D02*
G01*
X133780000Y-153500000D01*
X133420000Y-153500000D01*
X133420000Y-152230000D01*
X133600000Y-151970000D01*
X133780000Y-152230000D01*
G37*
X133780000Y-152230000D02*
X133780000Y-153500000D01*
X133420000Y-153500000D01*
X133420000Y-152230000D01*
X133600000Y-151970000D01*
X133780000Y-152230000D01*
G36*
X134580000Y-152230000D02*
G01*
X134580000Y-153500000D01*
X134220000Y-153500000D01*
X134220000Y-152230000D01*
X134400000Y-151970000D01*
X134580000Y-152230000D01*
G37*
X134580000Y-152230000D02*
X134580000Y-153500000D01*
X134220000Y-153500000D01*
X134220000Y-152230000D01*
X134400000Y-151970000D01*
X134580000Y-152230000D01*
G36*
X135380000Y-152230000D02*
G01*
X135380000Y-153500000D01*
X135020000Y-153500000D01*
X135020000Y-152230000D01*
X135200000Y-151970000D01*
X135380000Y-152230000D01*
G37*
X135380000Y-152230000D02*
X135380000Y-153500000D01*
X135020000Y-153500000D01*
X135020000Y-152230000D01*
X135200000Y-151970000D01*
X135380000Y-152230000D01*
G36*
X136180000Y-152230000D02*
G01*
X136180000Y-153500000D01*
X135820000Y-153500000D01*
X135820000Y-152230000D01*
X136000000Y-151970000D01*
X136180000Y-152230000D01*
G37*
X136180000Y-152230000D02*
X136180000Y-153500000D01*
X135820000Y-153500000D01*
X135820000Y-152230000D01*
X136000000Y-151970000D01*
X136180000Y-152230000D01*
G36*
X136980000Y-152230000D02*
G01*
X136980000Y-153500000D01*
X136620000Y-153500000D01*
X136620000Y-152230000D01*
X136800000Y-151970000D01*
X136980000Y-152230000D01*
G37*
X136980000Y-152230000D02*
X136980000Y-153500000D01*
X136620000Y-153500000D01*
X136620000Y-152230000D01*
X136800000Y-151970000D01*
X136980000Y-152230000D01*
G36*
X137780000Y-152230000D02*
G01*
X137780000Y-153500000D01*
X137420000Y-153500000D01*
X137420000Y-152230000D01*
X137600000Y-151970000D01*
X137780000Y-152230000D01*
G37*
X137780000Y-152230000D02*
X137780000Y-153500000D01*
X137420000Y-153500000D01*
X137420000Y-152230000D01*
X137600000Y-151970000D01*
X137780000Y-152230000D01*
G36*
X138580000Y-152230000D02*
G01*
X138580000Y-153500000D01*
X138220000Y-153500000D01*
X138220000Y-152230000D01*
X138400000Y-151970000D01*
X138580000Y-152230000D01*
G37*
X138580000Y-152230000D02*
X138580000Y-153500000D01*
X138220000Y-153500000D01*
X138220000Y-152230000D01*
X138400000Y-151970000D01*
X138580000Y-152230000D01*
G36*
X139380000Y-152230000D02*
G01*
X139380000Y-153500000D01*
X139020000Y-153500000D01*
X139020000Y-152230000D01*
X139200000Y-151970000D01*
X139380000Y-152230000D01*
G37*
X139380000Y-152230000D02*
X139380000Y-153500000D01*
X139020000Y-153500000D01*
X139020000Y-152230000D01*
X139200000Y-151970000D01*
X139380000Y-152230000D01*
G36*
X140180000Y-152230000D02*
G01*
X140180000Y-153500000D01*
X139820000Y-153500000D01*
X139820000Y-152230000D01*
X140000000Y-151970000D01*
X140180000Y-152230000D01*
G37*
X140180000Y-152230000D02*
X140180000Y-153500000D01*
X139820000Y-153500000D01*
X139820000Y-152230000D01*
X140000000Y-151970000D01*
X140180000Y-152230000D01*
G36*
X140980000Y-152230000D02*
G01*
X140980000Y-153500000D01*
X140620000Y-153500000D01*
X140620000Y-152230000D01*
X140800000Y-151970000D01*
X140980000Y-152230000D01*
G37*
X140980000Y-152230000D02*
X140980000Y-153500000D01*
X140620000Y-153500000D01*
X140620000Y-152230000D01*
X140800000Y-151970000D01*
X140980000Y-152230000D01*
G36*
X141780000Y-152230000D02*
G01*
X141780000Y-153500000D01*
X141420000Y-153500000D01*
X141420000Y-152230000D01*
X141600000Y-151970000D01*
X141780000Y-152230000D01*
G37*
X141780000Y-152230000D02*
X141780000Y-153500000D01*
X141420000Y-153500000D01*
X141420000Y-152230000D01*
X141600000Y-151970000D01*
X141780000Y-152230000D01*
G36*
X142580000Y-152230000D02*
G01*
X142580000Y-153500000D01*
X142220000Y-153500000D01*
X142220000Y-152230000D01*
X142400000Y-151970000D01*
X142580000Y-152230000D01*
G37*
X142580000Y-152230000D02*
X142580000Y-153500000D01*
X142220000Y-153500000D01*
X142220000Y-152230000D01*
X142400000Y-151970000D01*
X142580000Y-152230000D01*
G36*
X143380000Y-152230000D02*
G01*
X143380000Y-153500000D01*
X143020000Y-153500000D01*
X143020000Y-152230000D01*
X143200000Y-151970000D01*
X143380000Y-152230000D01*
G37*
X143380000Y-152230000D02*
X143380000Y-153500000D01*
X143020000Y-153500000D01*
X143020000Y-152230000D01*
X143200000Y-151970000D01*
X143380000Y-152230000D01*
G36*
X144180000Y-152230000D02*
G01*
X144180000Y-153500000D01*
X143820000Y-153500000D01*
X143820000Y-152230000D01*
X144000000Y-151970000D01*
X144180000Y-152230000D01*
G37*
X144180000Y-152230000D02*
X144180000Y-153500000D01*
X143820000Y-153500000D01*
X143820000Y-152230000D01*
X144000000Y-151970000D01*
X144180000Y-152230000D01*
G36*
X144980000Y-152230000D02*
G01*
X144980000Y-153500000D01*
X144620000Y-153500000D01*
X144620000Y-152230000D01*
X144800000Y-151970000D01*
X144980000Y-152230000D01*
G37*
X144980000Y-152230000D02*
X144980000Y-153500000D01*
X144620000Y-153500000D01*
X144620000Y-152230000D01*
X144800000Y-151970000D01*
X144980000Y-152230000D01*
G36*
X145780000Y-152230000D02*
G01*
X145780000Y-153500000D01*
X145420000Y-153500000D01*
X145420000Y-152230000D01*
X145600000Y-151970000D01*
X145780000Y-152230000D01*
G37*
X145780000Y-152230000D02*
X145780000Y-153500000D01*
X145420000Y-153500000D01*
X145420000Y-152230000D01*
X145600000Y-151970000D01*
X145780000Y-152230000D01*
G36*
X146580000Y-152230000D02*
G01*
X146580000Y-153500000D01*
X146220000Y-153500000D01*
X146220000Y-152230000D01*
X146400000Y-151970000D01*
X146580000Y-152230000D01*
G37*
X146580000Y-152230000D02*
X146580000Y-153500000D01*
X146220000Y-153500000D01*
X146220000Y-152230000D01*
X146400000Y-151970000D01*
X146580000Y-152230000D01*
G36*
X147380000Y-152230000D02*
G01*
X147380000Y-153500000D01*
X147020000Y-153500000D01*
X147020000Y-152230000D01*
X147200000Y-151970000D01*
X147380000Y-152230000D01*
G37*
X147380000Y-152230000D02*
X147380000Y-153500000D01*
X147020000Y-153500000D01*
X147020000Y-152230000D01*
X147200000Y-151970000D01*
X147380000Y-152230000D01*
G36*
X148180000Y-152230000D02*
G01*
X148180000Y-153500000D01*
X147820000Y-153500000D01*
X147820000Y-152230000D01*
X148000000Y-151970000D01*
X148180000Y-152230000D01*
G37*
X148180000Y-152230000D02*
X148180000Y-153500000D01*
X147820000Y-153500000D01*
X147820000Y-152230000D01*
X148000000Y-151970000D01*
X148180000Y-152230000D01*
G36*
X148980000Y-152230000D02*
G01*
X148980000Y-153500000D01*
X148620000Y-153500000D01*
X148620000Y-152230000D01*
X148800000Y-151970000D01*
X148980000Y-152230000D01*
G37*
X148980000Y-152230000D02*
X148980000Y-153500000D01*
X148620000Y-153500000D01*
X148620000Y-152230000D01*
X148800000Y-151970000D01*
X148980000Y-152230000D01*
G36*
X149780000Y-152230000D02*
G01*
X149780000Y-153500000D01*
X149420000Y-153500000D01*
X149420000Y-152230000D01*
X149600000Y-151970000D01*
X149780000Y-152230000D01*
G37*
X149780000Y-152230000D02*
X149780000Y-153500000D01*
X149420000Y-153500000D01*
X149420000Y-152230000D01*
X149600000Y-151970000D01*
X149780000Y-152230000D01*
G36*
X110580000Y-183230000D02*
G01*
X110580000Y-184500000D01*
X110220000Y-184500000D01*
X110220000Y-183230000D01*
X110400000Y-182970000D01*
X110580000Y-183230000D01*
G37*
X110580000Y-183230000D02*
X110580000Y-184500000D01*
X110220000Y-184500000D01*
X110220000Y-183230000D01*
X110400000Y-182970000D01*
X110580000Y-183230000D01*
G36*
X111380000Y-183230000D02*
G01*
X111380000Y-184500000D01*
X111020000Y-184500000D01*
X111020000Y-183230000D01*
X111200000Y-182970000D01*
X111380000Y-183230000D01*
G37*
X111380000Y-183230000D02*
X111380000Y-184500000D01*
X111020000Y-184500000D01*
X111020000Y-183230000D01*
X111200000Y-182970000D01*
X111380000Y-183230000D01*
G36*
X112180000Y-183230000D02*
G01*
X112180000Y-184500000D01*
X111820000Y-184500000D01*
X111820000Y-183230000D01*
X112000000Y-182970000D01*
X112180000Y-183230000D01*
G37*
X112180000Y-183230000D02*
X112180000Y-184500000D01*
X111820000Y-184500000D01*
X111820000Y-183230000D01*
X112000000Y-182970000D01*
X112180000Y-183230000D01*
G36*
X112980000Y-183230000D02*
G01*
X112980000Y-184500000D01*
X112620000Y-184500000D01*
X112620000Y-183230000D01*
X112800000Y-182970000D01*
X112980000Y-183230000D01*
G37*
X112980000Y-183230000D02*
X112980000Y-184500000D01*
X112620000Y-184500000D01*
X112620000Y-183230000D01*
X112800000Y-182970000D01*
X112980000Y-183230000D01*
G36*
X113780000Y-183230000D02*
G01*
X113780000Y-184500000D01*
X113420000Y-184500000D01*
X113420000Y-183230000D01*
X113600000Y-182970000D01*
X113780000Y-183230000D01*
G37*
X113780000Y-183230000D02*
X113780000Y-184500000D01*
X113420000Y-184500000D01*
X113420000Y-183230000D01*
X113600000Y-182970000D01*
X113780000Y-183230000D01*
G36*
X114580000Y-183230000D02*
G01*
X114580000Y-184500000D01*
X114220000Y-184500000D01*
X114220000Y-183230000D01*
X114400000Y-182970000D01*
X114580000Y-183230000D01*
G37*
X114580000Y-183230000D02*
X114580000Y-184500000D01*
X114220000Y-184500000D01*
X114220000Y-183230000D01*
X114400000Y-182970000D01*
X114580000Y-183230000D01*
G36*
X115380000Y-183230000D02*
G01*
X115380000Y-184500000D01*
X115020000Y-184500000D01*
X115020000Y-183230000D01*
X115200000Y-182970000D01*
X115380000Y-183230000D01*
G37*
X115380000Y-183230000D02*
X115380000Y-184500000D01*
X115020000Y-184500000D01*
X115020000Y-183230000D01*
X115200000Y-182970000D01*
X115380000Y-183230000D01*
G36*
X116180000Y-183230000D02*
G01*
X116180000Y-184500000D01*
X115820000Y-184500000D01*
X115820000Y-183230000D01*
X116000000Y-182970000D01*
X116180000Y-183230000D01*
G37*
X116180000Y-183230000D02*
X116180000Y-184500000D01*
X115820000Y-184500000D01*
X115820000Y-183230000D01*
X116000000Y-182970000D01*
X116180000Y-183230000D01*
G36*
X116980000Y-183230000D02*
G01*
X116980000Y-184500000D01*
X116620000Y-184500000D01*
X116620000Y-183230000D01*
X116800000Y-182970000D01*
X116980000Y-183230000D01*
G37*
X116980000Y-183230000D02*
X116980000Y-184500000D01*
X116620000Y-184500000D01*
X116620000Y-183230000D01*
X116800000Y-182970000D01*
X116980000Y-183230000D01*
G36*
X117780000Y-183230000D02*
G01*
X117780000Y-184500000D01*
X117420000Y-184500000D01*
X117420000Y-183230000D01*
X117600000Y-182970000D01*
X117780000Y-183230000D01*
G37*
X117780000Y-183230000D02*
X117780000Y-184500000D01*
X117420000Y-184500000D01*
X117420000Y-183230000D01*
X117600000Y-182970000D01*
X117780000Y-183230000D01*
G36*
X118580000Y-183230000D02*
G01*
X118580000Y-184500000D01*
X118220000Y-184500000D01*
X118220000Y-183230000D01*
X118400000Y-182970000D01*
X118580000Y-183230000D01*
G37*
X118580000Y-183230000D02*
X118580000Y-184500000D01*
X118220000Y-184500000D01*
X118220000Y-183230000D01*
X118400000Y-182970000D01*
X118580000Y-183230000D01*
G36*
X119380000Y-183230000D02*
G01*
X119380000Y-184500000D01*
X119020000Y-184500000D01*
X119020000Y-183230000D01*
X119200000Y-182970000D01*
X119380000Y-183230000D01*
G37*
X119380000Y-183230000D02*
X119380000Y-184500000D01*
X119020000Y-184500000D01*
X119020000Y-183230000D01*
X119200000Y-182970000D01*
X119380000Y-183230000D01*
G36*
X120180000Y-183230000D02*
G01*
X120180000Y-184500000D01*
X119820000Y-184500000D01*
X119820000Y-183230000D01*
X120000000Y-182970000D01*
X120180000Y-183230000D01*
G37*
X120180000Y-183230000D02*
X120180000Y-184500000D01*
X119820000Y-184500000D01*
X119820000Y-183230000D01*
X120000000Y-182970000D01*
X120180000Y-183230000D01*
G36*
X120980000Y-183230000D02*
G01*
X120980000Y-184500000D01*
X120620000Y-184500000D01*
X120620000Y-183230000D01*
X120800000Y-182970000D01*
X120980000Y-183230000D01*
G37*
X120980000Y-183230000D02*
X120980000Y-184500000D01*
X120620000Y-184500000D01*
X120620000Y-183230000D01*
X120800000Y-182970000D01*
X120980000Y-183230000D01*
G36*
X121780000Y-183230000D02*
G01*
X121780000Y-184500000D01*
X121420000Y-184500000D01*
X121420000Y-183230000D01*
X121600000Y-182970000D01*
X121780000Y-183230000D01*
G37*
X121780000Y-183230000D02*
X121780000Y-184500000D01*
X121420000Y-184500000D01*
X121420000Y-183230000D01*
X121600000Y-182970000D01*
X121780000Y-183230000D01*
G36*
X122580000Y-183230000D02*
G01*
X122580000Y-184500000D01*
X122220000Y-184500000D01*
X122220000Y-183230000D01*
X122400000Y-182970000D01*
X122580000Y-183230000D01*
G37*
X122580000Y-183230000D02*
X122580000Y-184500000D01*
X122220000Y-184500000D01*
X122220000Y-183230000D01*
X122400000Y-182970000D01*
X122580000Y-183230000D01*
G36*
X123380000Y-183230000D02*
G01*
X123380000Y-184500000D01*
X123020000Y-184500000D01*
X123020000Y-183230000D01*
X123200000Y-182970000D01*
X123380000Y-183230000D01*
G37*
X123380000Y-183230000D02*
X123380000Y-184500000D01*
X123020000Y-184500000D01*
X123020000Y-183230000D01*
X123200000Y-182970000D01*
X123380000Y-183230000D01*
G36*
X124180000Y-183230000D02*
G01*
X124180000Y-184500000D01*
X123820000Y-184500000D01*
X123820000Y-183230000D01*
X124000000Y-182970000D01*
X124180000Y-183230000D01*
G37*
X124180000Y-183230000D02*
X124180000Y-184500000D01*
X123820000Y-184500000D01*
X123820000Y-183230000D01*
X124000000Y-182970000D01*
X124180000Y-183230000D01*
G36*
X124980000Y-183230000D02*
G01*
X124980000Y-184500000D01*
X124620000Y-184500000D01*
X124620000Y-183230000D01*
X124800000Y-182970000D01*
X124980000Y-183230000D01*
G37*
X124980000Y-183230000D02*
X124980000Y-184500000D01*
X124620000Y-184500000D01*
X124620000Y-183230000D01*
X124800000Y-182970000D01*
X124980000Y-183230000D01*
G36*
X125780000Y-183230000D02*
G01*
X125780000Y-184500000D01*
X125420000Y-184500000D01*
X125420000Y-183230000D01*
X125600000Y-182970000D01*
X125780000Y-183230000D01*
G37*
X125780000Y-183230000D02*
X125780000Y-184500000D01*
X125420000Y-184500000D01*
X125420000Y-183230000D01*
X125600000Y-182970000D01*
X125780000Y-183230000D01*
G36*
X126580000Y-183230000D02*
G01*
X126580000Y-184500000D01*
X126220000Y-184500000D01*
X126220000Y-183230000D01*
X126400000Y-182970000D01*
X126580000Y-183230000D01*
G37*
X126580000Y-183230000D02*
X126580000Y-184500000D01*
X126220000Y-184500000D01*
X126220000Y-183230000D01*
X126400000Y-182970000D01*
X126580000Y-183230000D01*
G36*
X127380000Y-183230000D02*
G01*
X127380000Y-184500000D01*
X127020000Y-184500000D01*
X127020000Y-183230000D01*
X127200000Y-182970000D01*
X127380000Y-183230000D01*
G37*
X127380000Y-183230000D02*
X127380000Y-184500000D01*
X127020000Y-184500000D01*
X127020000Y-183230000D01*
X127200000Y-182970000D01*
X127380000Y-183230000D01*
G36*
X128180000Y-183230000D02*
G01*
X128180000Y-184500000D01*
X127820000Y-184500000D01*
X127820000Y-183230000D01*
X128000000Y-182970000D01*
X128180000Y-183230000D01*
G37*
X128180000Y-183230000D02*
X128180000Y-184500000D01*
X127820000Y-184500000D01*
X127820000Y-183230000D01*
X128000000Y-182970000D01*
X128180000Y-183230000D01*
G36*
X128980000Y-183230000D02*
G01*
X128980000Y-184500000D01*
X128620000Y-184500000D01*
X128620000Y-183230000D01*
X128800000Y-182970000D01*
X128980000Y-183230000D01*
G37*
X128980000Y-183230000D02*
X128980000Y-184500000D01*
X128620000Y-184500000D01*
X128620000Y-183230000D01*
X128800000Y-182970000D01*
X128980000Y-183230000D01*
G36*
X129780000Y-183230000D02*
G01*
X129780000Y-184500000D01*
X129420000Y-184500000D01*
X129420000Y-183230000D01*
X129600000Y-182970000D01*
X129780000Y-183230000D01*
G37*
X129780000Y-183230000D02*
X129780000Y-184500000D01*
X129420000Y-184500000D01*
X129420000Y-183230000D01*
X129600000Y-182970000D01*
X129780000Y-183230000D01*
G36*
X130580000Y-183230000D02*
G01*
X130580000Y-184500000D01*
X130220000Y-184500000D01*
X130220000Y-183230000D01*
X130400000Y-182970000D01*
X130580000Y-183230000D01*
G37*
X130580000Y-183230000D02*
X130580000Y-184500000D01*
X130220000Y-184500000D01*
X130220000Y-183230000D01*
X130400000Y-182970000D01*
X130580000Y-183230000D01*
G36*
X131380000Y-183230000D02*
G01*
X131380000Y-184500000D01*
X131020000Y-184500000D01*
X131020000Y-183230000D01*
X131200000Y-182970000D01*
X131380000Y-183230000D01*
G37*
X131380000Y-183230000D02*
X131380000Y-184500000D01*
X131020000Y-184500000D01*
X131020000Y-183230000D01*
X131200000Y-182970000D01*
X131380000Y-183230000D01*
G36*
X132180000Y-183230000D02*
G01*
X132180000Y-184500000D01*
X131820000Y-184500000D01*
X131820000Y-183230000D01*
X132000000Y-182970000D01*
X132180000Y-183230000D01*
G37*
X132180000Y-183230000D02*
X132180000Y-184500000D01*
X131820000Y-184500000D01*
X131820000Y-183230000D01*
X132000000Y-182970000D01*
X132180000Y-183230000D01*
G36*
X132980000Y-183230000D02*
G01*
X132980000Y-184500000D01*
X132620000Y-184500000D01*
X132620000Y-183230000D01*
X132800000Y-182970000D01*
X132980000Y-183230000D01*
G37*
X132980000Y-183230000D02*
X132980000Y-184500000D01*
X132620000Y-184500000D01*
X132620000Y-183230000D01*
X132800000Y-182970000D01*
X132980000Y-183230000D01*
G36*
X133780000Y-183230000D02*
G01*
X133780000Y-184500000D01*
X133420000Y-184500000D01*
X133420000Y-183230000D01*
X133600000Y-182970000D01*
X133780000Y-183230000D01*
G37*
X133780000Y-183230000D02*
X133780000Y-184500000D01*
X133420000Y-184500000D01*
X133420000Y-183230000D01*
X133600000Y-182970000D01*
X133780000Y-183230000D01*
G36*
X134580000Y-183230000D02*
G01*
X134580000Y-184500000D01*
X134220000Y-184500000D01*
X134220000Y-183230000D01*
X134400000Y-182970000D01*
X134580000Y-183230000D01*
G37*
X134580000Y-183230000D02*
X134580000Y-184500000D01*
X134220000Y-184500000D01*
X134220000Y-183230000D01*
X134400000Y-182970000D01*
X134580000Y-183230000D01*
G36*
X135380000Y-183230000D02*
G01*
X135380000Y-184500000D01*
X135020000Y-184500000D01*
X135020000Y-183230000D01*
X135200000Y-182970000D01*
X135380000Y-183230000D01*
G37*
X135380000Y-183230000D02*
X135380000Y-184500000D01*
X135020000Y-184500000D01*
X135020000Y-183230000D01*
X135200000Y-182970000D01*
X135380000Y-183230000D01*
G36*
X136180000Y-183230000D02*
G01*
X136180000Y-184500000D01*
X135820000Y-184500000D01*
X135820000Y-183230000D01*
X136000000Y-182970000D01*
X136180000Y-183230000D01*
G37*
X136180000Y-183230000D02*
X136180000Y-184500000D01*
X135820000Y-184500000D01*
X135820000Y-183230000D01*
X136000000Y-182970000D01*
X136180000Y-183230000D01*
G36*
X136980000Y-183230000D02*
G01*
X136980000Y-184500000D01*
X136620000Y-184500000D01*
X136620000Y-183230000D01*
X136800000Y-182970000D01*
X136980000Y-183230000D01*
G37*
X136980000Y-183230000D02*
X136980000Y-184500000D01*
X136620000Y-184500000D01*
X136620000Y-183230000D01*
X136800000Y-182970000D01*
X136980000Y-183230000D01*
G36*
X137780000Y-183230000D02*
G01*
X137780000Y-184500000D01*
X137420000Y-184500000D01*
X137420000Y-183230000D01*
X137600000Y-182970000D01*
X137780000Y-183230000D01*
G37*
X137780000Y-183230000D02*
X137780000Y-184500000D01*
X137420000Y-184500000D01*
X137420000Y-183230000D01*
X137600000Y-182970000D01*
X137780000Y-183230000D01*
G36*
X138580000Y-183230000D02*
G01*
X138580000Y-184500000D01*
X138220000Y-184500000D01*
X138220000Y-183230000D01*
X138400000Y-182970000D01*
X138580000Y-183230000D01*
G37*
X138580000Y-183230000D02*
X138580000Y-184500000D01*
X138220000Y-184500000D01*
X138220000Y-183230000D01*
X138400000Y-182970000D01*
X138580000Y-183230000D01*
G36*
X139380000Y-183230000D02*
G01*
X139380000Y-184500000D01*
X139020000Y-184500000D01*
X139020000Y-183230000D01*
X139200000Y-182970000D01*
X139380000Y-183230000D01*
G37*
X139380000Y-183230000D02*
X139380000Y-184500000D01*
X139020000Y-184500000D01*
X139020000Y-183230000D01*
X139200000Y-182970000D01*
X139380000Y-183230000D01*
G36*
X140180000Y-183230000D02*
G01*
X140180000Y-184500000D01*
X139820000Y-184500000D01*
X139820000Y-183230000D01*
X140000000Y-182970000D01*
X140180000Y-183230000D01*
G37*
X140180000Y-183230000D02*
X140180000Y-184500000D01*
X139820000Y-184500000D01*
X139820000Y-183230000D01*
X140000000Y-182970000D01*
X140180000Y-183230000D01*
G36*
X140980000Y-183230000D02*
G01*
X140980000Y-184500000D01*
X140620000Y-184500000D01*
X140620000Y-183230000D01*
X140800000Y-182970000D01*
X140980000Y-183230000D01*
G37*
X140980000Y-183230000D02*
X140980000Y-184500000D01*
X140620000Y-184500000D01*
X140620000Y-183230000D01*
X140800000Y-182970000D01*
X140980000Y-183230000D01*
G36*
X141780000Y-183230000D02*
G01*
X141780000Y-184500000D01*
X141420000Y-184500000D01*
X141420000Y-183230000D01*
X141600000Y-182970000D01*
X141780000Y-183230000D01*
G37*
X141780000Y-183230000D02*
X141780000Y-184500000D01*
X141420000Y-184500000D01*
X141420000Y-183230000D01*
X141600000Y-182970000D01*
X141780000Y-183230000D01*
G36*
X142580000Y-183230000D02*
G01*
X142580000Y-184500000D01*
X142220000Y-184500000D01*
X142220000Y-183230000D01*
X142400000Y-182970000D01*
X142580000Y-183230000D01*
G37*
X142580000Y-183230000D02*
X142580000Y-184500000D01*
X142220000Y-184500000D01*
X142220000Y-183230000D01*
X142400000Y-182970000D01*
X142580000Y-183230000D01*
G36*
X143380000Y-183230000D02*
G01*
X143380000Y-184500000D01*
X143020000Y-184500000D01*
X143020000Y-183230000D01*
X143200000Y-182970000D01*
X143380000Y-183230000D01*
G37*
X143380000Y-183230000D02*
X143380000Y-184500000D01*
X143020000Y-184500000D01*
X143020000Y-183230000D01*
X143200000Y-182970000D01*
X143380000Y-183230000D01*
G36*
X144180000Y-183230000D02*
G01*
X144180000Y-184500000D01*
X143820000Y-184500000D01*
X143820000Y-183230000D01*
X144000000Y-182970000D01*
X144180000Y-183230000D01*
G37*
X144180000Y-183230000D02*
X144180000Y-184500000D01*
X143820000Y-184500000D01*
X143820000Y-183230000D01*
X144000000Y-182970000D01*
X144180000Y-183230000D01*
G36*
X144980000Y-183230000D02*
G01*
X144980000Y-184500000D01*
X144620000Y-184500000D01*
X144620000Y-183230000D01*
X144800000Y-182970000D01*
X144980000Y-183230000D01*
G37*
X144980000Y-183230000D02*
X144980000Y-184500000D01*
X144620000Y-184500000D01*
X144620000Y-183230000D01*
X144800000Y-182970000D01*
X144980000Y-183230000D01*
G36*
X145780000Y-183230000D02*
G01*
X145780000Y-184500000D01*
X145420000Y-184500000D01*
X145420000Y-183230000D01*
X145600000Y-182970000D01*
X145780000Y-183230000D01*
G37*
X145780000Y-183230000D02*
X145780000Y-184500000D01*
X145420000Y-184500000D01*
X145420000Y-183230000D01*
X145600000Y-182970000D01*
X145780000Y-183230000D01*
G36*
X146580000Y-183230000D02*
G01*
X146580000Y-184500000D01*
X146220000Y-184500000D01*
X146220000Y-183230000D01*
X146400000Y-182970000D01*
X146580000Y-183230000D01*
G37*
X146580000Y-183230000D02*
X146580000Y-184500000D01*
X146220000Y-184500000D01*
X146220000Y-183230000D01*
X146400000Y-182970000D01*
X146580000Y-183230000D01*
G36*
X147380000Y-183230000D02*
G01*
X147380000Y-184500000D01*
X147020000Y-184500000D01*
X147020000Y-183230000D01*
X147200000Y-182970000D01*
X147380000Y-183230000D01*
G37*
X147380000Y-183230000D02*
X147380000Y-184500000D01*
X147020000Y-184500000D01*
X147020000Y-183230000D01*
X147200000Y-182970000D01*
X147380000Y-183230000D01*
G36*
X148180000Y-183230000D02*
G01*
X148180000Y-184500000D01*
X147820000Y-184500000D01*
X147820000Y-183230000D01*
X148000000Y-182970000D01*
X148180000Y-183230000D01*
G37*
X148180000Y-183230000D02*
X148180000Y-184500000D01*
X147820000Y-184500000D01*
X147820000Y-183230000D01*
X148000000Y-182970000D01*
X148180000Y-183230000D01*
G36*
X148980000Y-183230000D02*
G01*
X148980000Y-184500000D01*
X148620000Y-184500000D01*
X148620000Y-183230000D01*
X148800000Y-182970000D01*
X148980000Y-183230000D01*
G37*
X148980000Y-183230000D02*
X148980000Y-184500000D01*
X148620000Y-184500000D01*
X148620000Y-183230000D01*
X148800000Y-182970000D01*
X148980000Y-183230000D01*
G36*
X149780000Y-183230000D02*
G01*
X149780000Y-184500000D01*
X149420000Y-184500000D01*
X149420000Y-183230000D01*
X149600000Y-182970000D01*
X149780000Y-183230000D01*
G37*
X149780000Y-183230000D02*
X149780000Y-184500000D01*
X149420000Y-184500000D01*
X149420000Y-183230000D01*
X149600000Y-182970000D01*
X149780000Y-183230000D01*
G36*
X270580000Y-183230000D02*
G01*
X270580000Y-184500000D01*
X270220000Y-184500000D01*
X270220000Y-183230000D01*
X270400000Y-182970000D01*
X270580000Y-183230000D01*
G37*
X270580000Y-183230000D02*
X270580000Y-184500000D01*
X270220000Y-184500000D01*
X270220000Y-183230000D01*
X270400000Y-182970000D01*
X270580000Y-183230000D01*
G36*
X271380000Y-183230000D02*
G01*
X271380000Y-184500000D01*
X271020000Y-184500000D01*
X271020000Y-183230000D01*
X271200000Y-182970000D01*
X271380000Y-183230000D01*
G37*
X271380000Y-183230000D02*
X271380000Y-184500000D01*
X271020000Y-184500000D01*
X271020000Y-183230000D01*
X271200000Y-182970000D01*
X271380000Y-183230000D01*
G36*
X272180000Y-183230000D02*
G01*
X272180000Y-184500000D01*
X271820000Y-184500000D01*
X271820000Y-183230000D01*
X272000000Y-182970000D01*
X272180000Y-183230000D01*
G37*
X272180000Y-183230000D02*
X272180000Y-184500000D01*
X271820000Y-184500000D01*
X271820000Y-183230000D01*
X272000000Y-182970000D01*
X272180000Y-183230000D01*
G36*
X272980000Y-183230000D02*
G01*
X272980000Y-184500000D01*
X272620000Y-184500000D01*
X272620000Y-183230000D01*
X272800000Y-182970000D01*
X272980000Y-183230000D01*
G37*
X272980000Y-183230000D02*
X272980000Y-184500000D01*
X272620000Y-184500000D01*
X272620000Y-183230000D01*
X272800000Y-182970000D01*
X272980000Y-183230000D01*
G36*
X273780000Y-183230000D02*
G01*
X273780000Y-184500000D01*
X273420000Y-184500000D01*
X273420000Y-183230000D01*
X273600000Y-182970000D01*
X273780000Y-183230000D01*
G37*
X273780000Y-183230000D02*
X273780000Y-184500000D01*
X273420000Y-184500000D01*
X273420000Y-183230000D01*
X273600000Y-182970000D01*
X273780000Y-183230000D01*
G36*
X274580000Y-183230000D02*
G01*
X274580000Y-184500000D01*
X274220000Y-184500000D01*
X274220000Y-183230000D01*
X274400000Y-182970000D01*
X274580000Y-183230000D01*
G37*
X274580000Y-183230000D02*
X274580000Y-184500000D01*
X274220000Y-184500000D01*
X274220000Y-183230000D01*
X274400000Y-182970000D01*
X274580000Y-183230000D01*
G36*
X275380000Y-183230000D02*
G01*
X275380000Y-184500000D01*
X275020000Y-184500000D01*
X275020000Y-183230000D01*
X275200000Y-182970000D01*
X275380000Y-183230000D01*
G37*
X275380000Y-183230000D02*
X275380000Y-184500000D01*
X275020000Y-184500000D01*
X275020000Y-183230000D01*
X275200000Y-182970000D01*
X275380000Y-183230000D01*
G36*
X276180000Y-183230000D02*
G01*
X276180000Y-184500000D01*
X275820000Y-184500000D01*
X275820000Y-183230000D01*
X276000000Y-182970000D01*
X276180000Y-183230000D01*
G37*
X276180000Y-183230000D02*
X276180000Y-184500000D01*
X275820000Y-184500000D01*
X275820000Y-183230000D01*
X276000000Y-182970000D01*
X276180000Y-183230000D01*
G36*
X276980000Y-183230000D02*
G01*
X276980000Y-184500000D01*
X276620000Y-184500000D01*
X276620000Y-183230000D01*
X276800000Y-182970000D01*
X276980000Y-183230000D01*
G37*
X276980000Y-183230000D02*
X276980000Y-184500000D01*
X276620000Y-184500000D01*
X276620000Y-183230000D01*
X276800000Y-182970000D01*
X276980000Y-183230000D01*
G36*
X277780000Y-183230000D02*
G01*
X277780000Y-184500000D01*
X277420000Y-184500000D01*
X277420000Y-183230000D01*
X277600000Y-182970000D01*
X277780000Y-183230000D01*
G37*
X277780000Y-183230000D02*
X277780000Y-184500000D01*
X277420000Y-184500000D01*
X277420000Y-183230000D01*
X277600000Y-182970000D01*
X277780000Y-183230000D01*
G36*
X278580000Y-183230000D02*
G01*
X278580000Y-184500000D01*
X278220000Y-184500000D01*
X278220000Y-183230000D01*
X278400000Y-182970000D01*
X278580000Y-183230000D01*
G37*
X278580000Y-183230000D02*
X278580000Y-184500000D01*
X278220000Y-184500000D01*
X278220000Y-183230000D01*
X278400000Y-182970000D01*
X278580000Y-183230000D01*
G36*
X279380000Y-183230000D02*
G01*
X279380000Y-184500000D01*
X279020000Y-184500000D01*
X279020000Y-183230000D01*
X279200000Y-182970000D01*
X279380000Y-183230000D01*
G37*
X279380000Y-183230000D02*
X279380000Y-184500000D01*
X279020000Y-184500000D01*
X279020000Y-183230000D01*
X279200000Y-182970000D01*
X279380000Y-183230000D01*
G36*
X280180000Y-183230000D02*
G01*
X280180000Y-184500000D01*
X279820000Y-184500000D01*
X279820000Y-183230000D01*
X280000000Y-182970000D01*
X280180000Y-183230000D01*
G37*
X280180000Y-183230000D02*
X280180000Y-184500000D01*
X279820000Y-184500000D01*
X279820000Y-183230000D01*
X280000000Y-182970000D01*
X280180000Y-183230000D01*
G36*
X280980000Y-183230000D02*
G01*
X280980000Y-184500000D01*
X280620000Y-184500000D01*
X280620000Y-183230000D01*
X280800000Y-182970000D01*
X280980000Y-183230000D01*
G37*
X280980000Y-183230000D02*
X280980000Y-184500000D01*
X280620000Y-184500000D01*
X280620000Y-183230000D01*
X280800000Y-182970000D01*
X280980000Y-183230000D01*
G36*
X281780000Y-183230000D02*
G01*
X281780000Y-184500000D01*
X281420000Y-184500000D01*
X281420000Y-183230000D01*
X281600000Y-182970000D01*
X281780000Y-183230000D01*
G37*
X281780000Y-183230000D02*
X281780000Y-184500000D01*
X281420000Y-184500000D01*
X281420000Y-183230000D01*
X281600000Y-182970000D01*
X281780000Y-183230000D01*
G36*
X282580000Y-183230000D02*
G01*
X282580000Y-184500000D01*
X282220000Y-184500000D01*
X282220000Y-183230000D01*
X282400000Y-182970000D01*
X282580000Y-183230000D01*
G37*
X282580000Y-183230000D02*
X282580000Y-184500000D01*
X282220000Y-184500000D01*
X282220000Y-183230000D01*
X282400000Y-182970000D01*
X282580000Y-183230000D01*
G36*
X283380000Y-183230000D02*
G01*
X283380000Y-184500000D01*
X283020000Y-184500000D01*
X283020000Y-183230000D01*
X283200000Y-182970000D01*
X283380000Y-183230000D01*
G37*
X283380000Y-183230000D02*
X283380000Y-184500000D01*
X283020000Y-184500000D01*
X283020000Y-183230000D01*
X283200000Y-182970000D01*
X283380000Y-183230000D01*
G36*
X284180000Y-183230000D02*
G01*
X284180000Y-184500000D01*
X283820000Y-184500000D01*
X283820000Y-183230000D01*
X284000000Y-182970000D01*
X284180000Y-183230000D01*
G37*
X284180000Y-183230000D02*
X284180000Y-184500000D01*
X283820000Y-184500000D01*
X283820000Y-183230000D01*
X284000000Y-182970000D01*
X284180000Y-183230000D01*
G36*
X284980000Y-183230000D02*
G01*
X284980000Y-184500000D01*
X284620000Y-184500000D01*
X284620000Y-183230000D01*
X284800000Y-182970000D01*
X284980000Y-183230000D01*
G37*
X284980000Y-183230000D02*
X284980000Y-184500000D01*
X284620000Y-184500000D01*
X284620000Y-183230000D01*
X284800000Y-182970000D01*
X284980000Y-183230000D01*
G36*
X285780000Y-183230000D02*
G01*
X285780000Y-184500000D01*
X285420000Y-184500000D01*
X285420000Y-183230000D01*
X285600000Y-182970000D01*
X285780000Y-183230000D01*
G37*
X285780000Y-183230000D02*
X285780000Y-184500000D01*
X285420000Y-184500000D01*
X285420000Y-183230000D01*
X285600000Y-182970000D01*
X285780000Y-183230000D01*
G36*
X286580000Y-183230000D02*
G01*
X286580000Y-184500000D01*
X286220000Y-184500000D01*
X286220000Y-183230000D01*
X286400000Y-182970000D01*
X286580000Y-183230000D01*
G37*
X286580000Y-183230000D02*
X286580000Y-184500000D01*
X286220000Y-184500000D01*
X286220000Y-183230000D01*
X286400000Y-182970000D01*
X286580000Y-183230000D01*
G36*
X287380000Y-183230000D02*
G01*
X287380000Y-184500000D01*
X287020000Y-184500000D01*
X287020000Y-183230000D01*
X287200000Y-182970000D01*
X287380000Y-183230000D01*
G37*
X287380000Y-183230000D02*
X287380000Y-184500000D01*
X287020000Y-184500000D01*
X287020000Y-183230000D01*
X287200000Y-182970000D01*
X287380000Y-183230000D01*
G36*
X288180000Y-183230000D02*
G01*
X288180000Y-184500000D01*
X287820000Y-184500000D01*
X287820000Y-183230000D01*
X288000000Y-182970000D01*
X288180000Y-183230000D01*
G37*
X288180000Y-183230000D02*
X288180000Y-184500000D01*
X287820000Y-184500000D01*
X287820000Y-183230000D01*
X288000000Y-182970000D01*
X288180000Y-183230000D01*
G36*
X288980000Y-183230000D02*
G01*
X288980000Y-184500000D01*
X288620000Y-184500000D01*
X288620000Y-183230000D01*
X288800000Y-182970000D01*
X288980000Y-183230000D01*
G37*
X288980000Y-183230000D02*
X288980000Y-184500000D01*
X288620000Y-184500000D01*
X288620000Y-183230000D01*
X288800000Y-182970000D01*
X288980000Y-183230000D01*
G36*
X289780000Y-183230000D02*
G01*
X289780000Y-184500000D01*
X289420000Y-184500000D01*
X289420000Y-183230000D01*
X289600000Y-182970000D01*
X289780000Y-183230000D01*
G37*
X289780000Y-183230000D02*
X289780000Y-184500000D01*
X289420000Y-184500000D01*
X289420000Y-183230000D01*
X289600000Y-182970000D01*
X289780000Y-183230000D01*
G36*
X290580000Y-183230000D02*
G01*
X290580000Y-184500000D01*
X290220000Y-184500000D01*
X290220000Y-183230000D01*
X290400000Y-182970000D01*
X290580000Y-183230000D01*
G37*
X290580000Y-183230000D02*
X290580000Y-184500000D01*
X290220000Y-184500000D01*
X290220000Y-183230000D01*
X290400000Y-182970000D01*
X290580000Y-183230000D01*
G36*
X291380000Y-183230000D02*
G01*
X291380000Y-184500000D01*
X291020000Y-184500000D01*
X291020000Y-183230000D01*
X291200000Y-182970000D01*
X291380000Y-183230000D01*
G37*
X291380000Y-183230000D02*
X291380000Y-184500000D01*
X291020000Y-184500000D01*
X291020000Y-183230000D01*
X291200000Y-182970000D01*
X291380000Y-183230000D01*
G36*
X292180000Y-183230000D02*
G01*
X292180000Y-184500000D01*
X291820000Y-184500000D01*
X291820000Y-183230000D01*
X292000000Y-182970000D01*
X292180000Y-183230000D01*
G37*
X292180000Y-183230000D02*
X292180000Y-184500000D01*
X291820000Y-184500000D01*
X291820000Y-183230000D01*
X292000000Y-182970000D01*
X292180000Y-183230000D01*
G36*
X292980000Y-183230000D02*
G01*
X292980000Y-184500000D01*
X292620000Y-184500000D01*
X292620000Y-183230000D01*
X292800000Y-182970000D01*
X292980000Y-183230000D01*
G37*
X292980000Y-183230000D02*
X292980000Y-184500000D01*
X292620000Y-184500000D01*
X292620000Y-183230000D01*
X292800000Y-182970000D01*
X292980000Y-183230000D01*
G36*
X293780000Y-183230000D02*
G01*
X293780000Y-184500000D01*
X293420000Y-184500000D01*
X293420000Y-183230000D01*
X293600000Y-182970000D01*
X293780000Y-183230000D01*
G37*
X293780000Y-183230000D02*
X293780000Y-184500000D01*
X293420000Y-184500000D01*
X293420000Y-183230000D01*
X293600000Y-182970000D01*
X293780000Y-183230000D01*
G36*
X294580000Y-183230000D02*
G01*
X294580000Y-184500000D01*
X294220000Y-184500000D01*
X294220000Y-183230000D01*
X294400000Y-182970000D01*
X294580000Y-183230000D01*
G37*
X294580000Y-183230000D02*
X294580000Y-184500000D01*
X294220000Y-184500000D01*
X294220000Y-183230000D01*
X294400000Y-182970000D01*
X294580000Y-183230000D01*
G36*
X295380000Y-183230000D02*
G01*
X295380000Y-184500000D01*
X295020000Y-184500000D01*
X295020000Y-183230000D01*
X295200000Y-182970000D01*
X295380000Y-183230000D01*
G37*
X295380000Y-183230000D02*
X295380000Y-184500000D01*
X295020000Y-184500000D01*
X295020000Y-183230000D01*
X295200000Y-182970000D01*
X295380000Y-183230000D01*
G36*
X296180000Y-183230000D02*
G01*
X296180000Y-184500000D01*
X295820000Y-184500000D01*
X295820000Y-183230000D01*
X296000000Y-182970000D01*
X296180000Y-183230000D01*
G37*
X296180000Y-183230000D02*
X296180000Y-184500000D01*
X295820000Y-184500000D01*
X295820000Y-183230000D01*
X296000000Y-182970000D01*
X296180000Y-183230000D01*
G36*
X296980000Y-183230000D02*
G01*
X296980000Y-184500000D01*
X296620000Y-184500000D01*
X296620000Y-183230000D01*
X296800000Y-182970000D01*
X296980000Y-183230000D01*
G37*
X296980000Y-183230000D02*
X296980000Y-184500000D01*
X296620000Y-184500000D01*
X296620000Y-183230000D01*
X296800000Y-182970000D01*
X296980000Y-183230000D01*
G36*
X297780000Y-183230000D02*
G01*
X297780000Y-184500000D01*
X297420000Y-184500000D01*
X297420000Y-183230000D01*
X297600000Y-182970000D01*
X297780000Y-183230000D01*
G37*
X297780000Y-183230000D02*
X297780000Y-184500000D01*
X297420000Y-184500000D01*
X297420000Y-183230000D01*
X297600000Y-182970000D01*
X297780000Y-183230000D01*
G36*
X298580000Y-183230000D02*
G01*
X298580000Y-184500000D01*
X298220000Y-184500000D01*
X298220000Y-183230000D01*
X298400000Y-182970000D01*
X298580000Y-183230000D01*
G37*
X298580000Y-183230000D02*
X298580000Y-184500000D01*
X298220000Y-184500000D01*
X298220000Y-183230000D01*
X298400000Y-182970000D01*
X298580000Y-183230000D01*
G36*
X299380000Y-183230000D02*
G01*
X299380000Y-184500000D01*
X299020000Y-184500000D01*
X299020000Y-183230000D01*
X299200000Y-182970000D01*
X299380000Y-183230000D01*
G37*
X299380000Y-183230000D02*
X299380000Y-184500000D01*
X299020000Y-184500000D01*
X299020000Y-183230000D01*
X299200000Y-182970000D01*
X299380000Y-183230000D01*
G36*
X300180000Y-183230000D02*
G01*
X300180000Y-184500000D01*
X299820000Y-184500000D01*
X299820000Y-183230000D01*
X300000000Y-182970000D01*
X300180000Y-183230000D01*
G37*
X300180000Y-183230000D02*
X300180000Y-184500000D01*
X299820000Y-184500000D01*
X299820000Y-183230000D01*
X300000000Y-182970000D01*
X300180000Y-183230000D01*
G36*
X300980000Y-183230000D02*
G01*
X300980000Y-184500000D01*
X300620000Y-184500000D01*
X300620000Y-183230000D01*
X300800000Y-182970000D01*
X300980000Y-183230000D01*
G37*
X300980000Y-183230000D02*
X300980000Y-184500000D01*
X300620000Y-184500000D01*
X300620000Y-183230000D01*
X300800000Y-182970000D01*
X300980000Y-183230000D01*
G36*
X301780000Y-183230000D02*
G01*
X301780000Y-184500000D01*
X301420000Y-184500000D01*
X301420000Y-183230000D01*
X301600000Y-182970000D01*
X301780000Y-183230000D01*
G37*
X301780000Y-183230000D02*
X301780000Y-184500000D01*
X301420000Y-184500000D01*
X301420000Y-183230000D01*
X301600000Y-182970000D01*
X301780000Y-183230000D01*
G36*
X302580000Y-183230000D02*
G01*
X302580000Y-184500000D01*
X302220000Y-184500000D01*
X302220000Y-183230000D01*
X302400000Y-182970000D01*
X302580000Y-183230000D01*
G37*
X302580000Y-183230000D02*
X302580000Y-184500000D01*
X302220000Y-184500000D01*
X302220000Y-183230000D01*
X302400000Y-182970000D01*
X302580000Y-183230000D01*
G36*
X303380000Y-183230000D02*
G01*
X303380000Y-184500000D01*
X303020000Y-184500000D01*
X303020000Y-183230000D01*
X303200000Y-182970000D01*
X303380000Y-183230000D01*
G37*
X303380000Y-183230000D02*
X303380000Y-184500000D01*
X303020000Y-184500000D01*
X303020000Y-183230000D01*
X303200000Y-182970000D01*
X303380000Y-183230000D01*
G36*
X304180000Y-183230000D02*
G01*
X304180000Y-184500000D01*
X303820000Y-184500000D01*
X303820000Y-183230000D01*
X304000000Y-182970000D01*
X304180000Y-183230000D01*
G37*
X304180000Y-183230000D02*
X304180000Y-184500000D01*
X303820000Y-184500000D01*
X303820000Y-183230000D01*
X304000000Y-182970000D01*
X304180000Y-183230000D01*
G36*
X304980000Y-183230000D02*
G01*
X304980000Y-184500000D01*
X304620000Y-184500000D01*
X304620000Y-183230000D01*
X304800000Y-182970000D01*
X304980000Y-183230000D01*
G37*
X304980000Y-183230000D02*
X304980000Y-184500000D01*
X304620000Y-184500000D01*
X304620000Y-183230000D01*
X304800000Y-182970000D01*
X304980000Y-183230000D01*
G36*
X305780000Y-183230000D02*
G01*
X305780000Y-184500000D01*
X305420000Y-184500000D01*
X305420000Y-183230000D01*
X305600000Y-182970000D01*
X305780000Y-183230000D01*
G37*
X305780000Y-183230000D02*
X305780000Y-184500000D01*
X305420000Y-184500000D01*
X305420000Y-183230000D01*
X305600000Y-182970000D01*
X305780000Y-183230000D01*
G36*
X306580000Y-183230000D02*
G01*
X306580000Y-184500000D01*
X306220000Y-184500000D01*
X306220000Y-183230000D01*
X306400000Y-182970000D01*
X306580000Y-183230000D01*
G37*
X306580000Y-183230000D02*
X306580000Y-184500000D01*
X306220000Y-184500000D01*
X306220000Y-183230000D01*
X306400000Y-182970000D01*
X306580000Y-183230000D01*
G36*
X307380000Y-183230000D02*
G01*
X307380000Y-184500000D01*
X307020000Y-184500000D01*
X307020000Y-183230000D01*
X307200000Y-182970000D01*
X307380000Y-183230000D01*
G37*
X307380000Y-183230000D02*
X307380000Y-184500000D01*
X307020000Y-184500000D01*
X307020000Y-183230000D01*
X307200000Y-182970000D01*
X307380000Y-183230000D01*
G36*
X308180000Y-183230000D02*
G01*
X308180000Y-184500000D01*
X307820000Y-184500000D01*
X307820000Y-183230000D01*
X308000000Y-182970000D01*
X308180000Y-183230000D01*
G37*
X308180000Y-183230000D02*
X308180000Y-184500000D01*
X307820000Y-184500000D01*
X307820000Y-183230000D01*
X308000000Y-182970000D01*
X308180000Y-183230000D01*
G36*
X308980000Y-183230000D02*
G01*
X308980000Y-184500000D01*
X308620000Y-184500000D01*
X308620000Y-183230000D01*
X308800000Y-182970000D01*
X308980000Y-183230000D01*
G37*
X308980000Y-183230000D02*
X308980000Y-184500000D01*
X308620000Y-184500000D01*
X308620000Y-183230000D01*
X308800000Y-182970000D01*
X308980000Y-183230000D01*
G36*
X309780000Y-183230000D02*
G01*
X309780000Y-184500000D01*
X309420000Y-184500000D01*
X309420000Y-183230000D01*
X309600000Y-182970000D01*
X309780000Y-183230000D01*
G37*
X309780000Y-183230000D02*
X309780000Y-184500000D01*
X309420000Y-184500000D01*
X309420000Y-183230000D01*
X309600000Y-182970000D01*
X309780000Y-183230000D01*
G36*
X110580000Y-90230000D02*
G01*
X110580000Y-91500000D01*
X110220000Y-91500000D01*
X110220000Y-90230000D01*
X110400000Y-89970000D01*
X110580000Y-90230000D01*
G37*
X110580000Y-90230000D02*
X110580000Y-91500000D01*
X110220000Y-91500000D01*
X110220000Y-90230000D01*
X110400000Y-89970000D01*
X110580000Y-90230000D01*
G36*
X111380000Y-90230000D02*
G01*
X111380000Y-91500000D01*
X111020000Y-91500000D01*
X111020000Y-90230000D01*
X111200000Y-89970000D01*
X111380000Y-90230000D01*
G37*
X111380000Y-90230000D02*
X111380000Y-91500000D01*
X111020000Y-91500000D01*
X111020000Y-90230000D01*
X111200000Y-89970000D01*
X111380000Y-90230000D01*
G36*
X112180000Y-90230000D02*
G01*
X112180000Y-91500000D01*
X111820000Y-91500000D01*
X111820000Y-90230000D01*
X112000000Y-89970000D01*
X112180000Y-90230000D01*
G37*
X112180000Y-90230000D02*
X112180000Y-91500000D01*
X111820000Y-91500000D01*
X111820000Y-90230000D01*
X112000000Y-89970000D01*
X112180000Y-90230000D01*
G36*
X112980000Y-90230000D02*
G01*
X112980000Y-91500000D01*
X112620000Y-91500000D01*
X112620000Y-90230000D01*
X112800000Y-89970000D01*
X112980000Y-90230000D01*
G37*
X112980000Y-90230000D02*
X112980000Y-91500000D01*
X112620000Y-91500000D01*
X112620000Y-90230000D01*
X112800000Y-89970000D01*
X112980000Y-90230000D01*
G36*
X113780000Y-90230000D02*
G01*
X113780000Y-91500000D01*
X113420000Y-91500000D01*
X113420000Y-90230000D01*
X113600000Y-89970000D01*
X113780000Y-90230000D01*
G37*
X113780000Y-90230000D02*
X113780000Y-91500000D01*
X113420000Y-91500000D01*
X113420000Y-90230000D01*
X113600000Y-89970000D01*
X113780000Y-90230000D01*
G36*
X114580000Y-90230000D02*
G01*
X114580000Y-91500000D01*
X114220000Y-91500000D01*
X114220000Y-90230000D01*
X114400000Y-89970000D01*
X114580000Y-90230000D01*
G37*
X114580000Y-90230000D02*
X114580000Y-91500000D01*
X114220000Y-91500000D01*
X114220000Y-90230000D01*
X114400000Y-89970000D01*
X114580000Y-90230000D01*
G36*
X115380000Y-90230000D02*
G01*
X115380000Y-91500000D01*
X115020000Y-91500000D01*
X115020000Y-90230000D01*
X115200000Y-89970000D01*
X115380000Y-90230000D01*
G37*
X115380000Y-90230000D02*
X115380000Y-91500000D01*
X115020000Y-91500000D01*
X115020000Y-90230000D01*
X115200000Y-89970000D01*
X115380000Y-90230000D01*
G36*
X116180000Y-90230000D02*
G01*
X116180000Y-91500000D01*
X115820000Y-91500000D01*
X115820000Y-90230000D01*
X116000000Y-89970000D01*
X116180000Y-90230000D01*
G37*
X116180000Y-90230000D02*
X116180000Y-91500000D01*
X115820000Y-91500000D01*
X115820000Y-90230000D01*
X116000000Y-89970000D01*
X116180000Y-90230000D01*
G36*
X116980000Y-90230000D02*
G01*
X116980000Y-91500000D01*
X116620000Y-91500000D01*
X116620000Y-90230000D01*
X116800000Y-89970000D01*
X116980000Y-90230000D01*
G37*
X116980000Y-90230000D02*
X116980000Y-91500000D01*
X116620000Y-91500000D01*
X116620000Y-90230000D01*
X116800000Y-89970000D01*
X116980000Y-90230000D01*
G36*
X117780000Y-90230000D02*
G01*
X117780000Y-91500000D01*
X117420000Y-91500000D01*
X117420000Y-90230000D01*
X117600000Y-89970000D01*
X117780000Y-90230000D01*
G37*
X117780000Y-90230000D02*
X117780000Y-91500000D01*
X117420000Y-91500000D01*
X117420000Y-90230000D01*
X117600000Y-89970000D01*
X117780000Y-90230000D01*
G36*
X118580000Y-90230000D02*
G01*
X118580000Y-91500000D01*
X118220000Y-91500000D01*
X118220000Y-90230000D01*
X118400000Y-89970000D01*
X118580000Y-90230000D01*
G37*
X118580000Y-90230000D02*
X118580000Y-91500000D01*
X118220000Y-91500000D01*
X118220000Y-90230000D01*
X118400000Y-89970000D01*
X118580000Y-90230000D01*
G36*
X119380000Y-90230000D02*
G01*
X119380000Y-91500000D01*
X119020000Y-91500000D01*
X119020000Y-90230000D01*
X119200000Y-89970000D01*
X119380000Y-90230000D01*
G37*
X119380000Y-90230000D02*
X119380000Y-91500000D01*
X119020000Y-91500000D01*
X119020000Y-90230000D01*
X119200000Y-89970000D01*
X119380000Y-90230000D01*
G36*
X120180000Y-90230000D02*
G01*
X120180000Y-91500000D01*
X119820000Y-91500000D01*
X119820000Y-90230000D01*
X120000000Y-89970000D01*
X120180000Y-90230000D01*
G37*
X120180000Y-90230000D02*
X120180000Y-91500000D01*
X119820000Y-91500000D01*
X119820000Y-90230000D01*
X120000000Y-89970000D01*
X120180000Y-90230000D01*
G36*
X120980000Y-90230000D02*
G01*
X120980000Y-91500000D01*
X120620000Y-91500000D01*
X120620000Y-90230000D01*
X120800000Y-89970000D01*
X120980000Y-90230000D01*
G37*
X120980000Y-90230000D02*
X120980000Y-91500000D01*
X120620000Y-91500000D01*
X120620000Y-90230000D01*
X120800000Y-89970000D01*
X120980000Y-90230000D01*
G36*
X121780000Y-90230000D02*
G01*
X121780000Y-91500000D01*
X121420000Y-91500000D01*
X121420000Y-90230000D01*
X121600000Y-89970000D01*
X121780000Y-90230000D01*
G37*
X121780000Y-90230000D02*
X121780000Y-91500000D01*
X121420000Y-91500000D01*
X121420000Y-90230000D01*
X121600000Y-89970000D01*
X121780000Y-90230000D01*
G36*
X122580000Y-90230000D02*
G01*
X122580000Y-91500000D01*
X122220000Y-91500000D01*
X122220000Y-90230000D01*
X122400000Y-89970000D01*
X122580000Y-90230000D01*
G37*
X122580000Y-90230000D02*
X122580000Y-91500000D01*
X122220000Y-91500000D01*
X122220000Y-90230000D01*
X122400000Y-89970000D01*
X122580000Y-90230000D01*
G36*
X123380000Y-90230000D02*
G01*
X123380000Y-91500000D01*
X123020000Y-91500000D01*
X123020000Y-90230000D01*
X123200000Y-89970000D01*
X123380000Y-90230000D01*
G37*
X123380000Y-90230000D02*
X123380000Y-91500000D01*
X123020000Y-91500000D01*
X123020000Y-90230000D01*
X123200000Y-89970000D01*
X123380000Y-90230000D01*
G36*
X124180000Y-90230000D02*
G01*
X124180000Y-91500000D01*
X123820000Y-91500000D01*
X123820000Y-90230000D01*
X124000000Y-89970000D01*
X124180000Y-90230000D01*
G37*
X124180000Y-90230000D02*
X124180000Y-91500000D01*
X123820000Y-91500000D01*
X123820000Y-90230000D01*
X124000000Y-89970000D01*
X124180000Y-90230000D01*
G36*
X124980000Y-90230000D02*
G01*
X124980000Y-91500000D01*
X124620000Y-91500000D01*
X124620000Y-90230000D01*
X124800000Y-89970000D01*
X124980000Y-90230000D01*
G37*
X124980000Y-90230000D02*
X124980000Y-91500000D01*
X124620000Y-91500000D01*
X124620000Y-90230000D01*
X124800000Y-89970000D01*
X124980000Y-90230000D01*
G36*
X125780000Y-90230000D02*
G01*
X125780000Y-91500000D01*
X125420000Y-91500000D01*
X125420000Y-90230000D01*
X125600000Y-89970000D01*
X125780000Y-90230000D01*
G37*
X125780000Y-90230000D02*
X125780000Y-91500000D01*
X125420000Y-91500000D01*
X125420000Y-90230000D01*
X125600000Y-89970000D01*
X125780000Y-90230000D01*
G36*
X126580000Y-90230000D02*
G01*
X126580000Y-91500000D01*
X126220000Y-91500000D01*
X126220000Y-90230000D01*
X126400000Y-89970000D01*
X126580000Y-90230000D01*
G37*
X126580000Y-90230000D02*
X126580000Y-91500000D01*
X126220000Y-91500000D01*
X126220000Y-90230000D01*
X126400000Y-89970000D01*
X126580000Y-90230000D01*
G36*
X127380000Y-90230000D02*
G01*
X127380000Y-91500000D01*
X127020000Y-91500000D01*
X127020000Y-90230000D01*
X127200000Y-89970000D01*
X127380000Y-90230000D01*
G37*
X127380000Y-90230000D02*
X127380000Y-91500000D01*
X127020000Y-91500000D01*
X127020000Y-90230000D01*
X127200000Y-89970000D01*
X127380000Y-90230000D01*
G36*
X128180000Y-90230000D02*
G01*
X128180000Y-91500000D01*
X127820000Y-91500000D01*
X127820000Y-90230000D01*
X128000000Y-89970000D01*
X128180000Y-90230000D01*
G37*
X128180000Y-90230000D02*
X128180000Y-91500000D01*
X127820000Y-91500000D01*
X127820000Y-90230000D01*
X128000000Y-89970000D01*
X128180000Y-90230000D01*
G36*
X128980000Y-90230000D02*
G01*
X128980000Y-91500000D01*
X128620000Y-91500000D01*
X128620000Y-90230000D01*
X128800000Y-89970000D01*
X128980000Y-90230000D01*
G37*
X128980000Y-90230000D02*
X128980000Y-91500000D01*
X128620000Y-91500000D01*
X128620000Y-90230000D01*
X128800000Y-89970000D01*
X128980000Y-90230000D01*
G36*
X129780000Y-90230000D02*
G01*
X129780000Y-91500000D01*
X129420000Y-91500000D01*
X129420000Y-90230000D01*
X129600000Y-89970000D01*
X129780000Y-90230000D01*
G37*
X129780000Y-90230000D02*
X129780000Y-91500000D01*
X129420000Y-91500000D01*
X129420000Y-90230000D01*
X129600000Y-89970000D01*
X129780000Y-90230000D01*
G36*
X130580000Y-90230000D02*
G01*
X130580000Y-91500000D01*
X130220000Y-91500000D01*
X130220000Y-90230000D01*
X130400000Y-89970000D01*
X130580000Y-90230000D01*
G37*
X130580000Y-90230000D02*
X130580000Y-91500000D01*
X130220000Y-91500000D01*
X130220000Y-90230000D01*
X130400000Y-89970000D01*
X130580000Y-90230000D01*
G36*
X131380000Y-90230000D02*
G01*
X131380000Y-91500000D01*
X131020000Y-91500000D01*
X131020000Y-90230000D01*
X131200000Y-89970000D01*
X131380000Y-90230000D01*
G37*
X131380000Y-90230000D02*
X131380000Y-91500000D01*
X131020000Y-91500000D01*
X131020000Y-90230000D01*
X131200000Y-89970000D01*
X131380000Y-90230000D01*
G36*
X132180000Y-90230000D02*
G01*
X132180000Y-91500000D01*
X131820000Y-91500000D01*
X131820000Y-90230000D01*
X132000000Y-89970000D01*
X132180000Y-90230000D01*
G37*
X132180000Y-90230000D02*
X132180000Y-91500000D01*
X131820000Y-91500000D01*
X131820000Y-90230000D01*
X132000000Y-89970000D01*
X132180000Y-90230000D01*
G36*
X132980000Y-90230000D02*
G01*
X132980000Y-91500000D01*
X132620000Y-91500000D01*
X132620000Y-90230000D01*
X132800000Y-89970000D01*
X132980000Y-90230000D01*
G37*
X132980000Y-90230000D02*
X132980000Y-91500000D01*
X132620000Y-91500000D01*
X132620000Y-90230000D01*
X132800000Y-89970000D01*
X132980000Y-90230000D01*
G36*
X133780000Y-90230000D02*
G01*
X133780000Y-91500000D01*
X133420000Y-91500000D01*
X133420000Y-90230000D01*
X133600000Y-89970000D01*
X133780000Y-90230000D01*
G37*
X133780000Y-90230000D02*
X133780000Y-91500000D01*
X133420000Y-91500000D01*
X133420000Y-90230000D01*
X133600000Y-89970000D01*
X133780000Y-90230000D01*
G36*
X134580000Y-90230000D02*
G01*
X134580000Y-91500000D01*
X134220000Y-91500000D01*
X134220000Y-90230000D01*
X134400000Y-89970000D01*
X134580000Y-90230000D01*
G37*
X134580000Y-90230000D02*
X134580000Y-91500000D01*
X134220000Y-91500000D01*
X134220000Y-90230000D01*
X134400000Y-89970000D01*
X134580000Y-90230000D01*
G36*
X135380000Y-90230000D02*
G01*
X135380000Y-91500000D01*
X135020000Y-91500000D01*
X135020000Y-90230000D01*
X135200000Y-89970000D01*
X135380000Y-90230000D01*
G37*
X135380000Y-90230000D02*
X135380000Y-91500000D01*
X135020000Y-91500000D01*
X135020000Y-90230000D01*
X135200000Y-89970000D01*
X135380000Y-90230000D01*
G36*
X136180000Y-90230000D02*
G01*
X136180000Y-91500000D01*
X135820000Y-91500000D01*
X135820000Y-90230000D01*
X136000000Y-89970000D01*
X136180000Y-90230000D01*
G37*
X136180000Y-90230000D02*
X136180000Y-91500000D01*
X135820000Y-91500000D01*
X135820000Y-90230000D01*
X136000000Y-89970000D01*
X136180000Y-90230000D01*
G36*
X136980000Y-90230000D02*
G01*
X136980000Y-91500000D01*
X136620000Y-91500000D01*
X136620000Y-90230000D01*
X136800000Y-89970000D01*
X136980000Y-90230000D01*
G37*
X136980000Y-90230000D02*
X136980000Y-91500000D01*
X136620000Y-91500000D01*
X136620000Y-90230000D01*
X136800000Y-89970000D01*
X136980000Y-90230000D01*
G36*
X137780000Y-90230000D02*
G01*
X137780000Y-91500000D01*
X137420000Y-91500000D01*
X137420000Y-90230000D01*
X137600000Y-89970000D01*
X137780000Y-90230000D01*
G37*
X137780000Y-90230000D02*
X137780000Y-91500000D01*
X137420000Y-91500000D01*
X137420000Y-90230000D01*
X137600000Y-89970000D01*
X137780000Y-90230000D01*
G36*
X138580000Y-90230000D02*
G01*
X138580000Y-91500000D01*
X138220000Y-91500000D01*
X138220000Y-90230000D01*
X138400000Y-89970000D01*
X138580000Y-90230000D01*
G37*
X138580000Y-90230000D02*
X138580000Y-91500000D01*
X138220000Y-91500000D01*
X138220000Y-90230000D01*
X138400000Y-89970000D01*
X138580000Y-90230000D01*
G36*
X139380000Y-90230000D02*
G01*
X139380000Y-91500000D01*
X139020000Y-91500000D01*
X139020000Y-90230000D01*
X139200000Y-89970000D01*
X139380000Y-90230000D01*
G37*
X139380000Y-90230000D02*
X139380000Y-91500000D01*
X139020000Y-91500000D01*
X139020000Y-90230000D01*
X139200000Y-89970000D01*
X139380000Y-90230000D01*
G36*
X140180000Y-90230000D02*
G01*
X140180000Y-91500000D01*
X139820000Y-91500000D01*
X139820000Y-90230000D01*
X140000000Y-89970000D01*
X140180000Y-90230000D01*
G37*
X140180000Y-90230000D02*
X140180000Y-91500000D01*
X139820000Y-91500000D01*
X139820000Y-90230000D01*
X140000000Y-89970000D01*
X140180000Y-90230000D01*
G36*
X140980000Y-90230000D02*
G01*
X140980000Y-91500000D01*
X140620000Y-91500000D01*
X140620000Y-90230000D01*
X140800000Y-89970000D01*
X140980000Y-90230000D01*
G37*
X140980000Y-90230000D02*
X140980000Y-91500000D01*
X140620000Y-91500000D01*
X140620000Y-90230000D01*
X140800000Y-89970000D01*
X140980000Y-90230000D01*
G36*
X141780000Y-90230000D02*
G01*
X141780000Y-91500000D01*
X141420000Y-91500000D01*
X141420000Y-90230000D01*
X141600000Y-89970000D01*
X141780000Y-90230000D01*
G37*
X141780000Y-90230000D02*
X141780000Y-91500000D01*
X141420000Y-91500000D01*
X141420000Y-90230000D01*
X141600000Y-89970000D01*
X141780000Y-90230000D01*
G36*
X142580000Y-90230000D02*
G01*
X142580000Y-91500000D01*
X142220000Y-91500000D01*
X142220000Y-90230000D01*
X142400000Y-89970000D01*
X142580000Y-90230000D01*
G37*
X142580000Y-90230000D02*
X142580000Y-91500000D01*
X142220000Y-91500000D01*
X142220000Y-90230000D01*
X142400000Y-89970000D01*
X142580000Y-90230000D01*
G36*
X143380000Y-90230000D02*
G01*
X143380000Y-91500000D01*
X143020000Y-91500000D01*
X143020000Y-90230000D01*
X143200000Y-89970000D01*
X143380000Y-90230000D01*
G37*
X143380000Y-90230000D02*
X143380000Y-91500000D01*
X143020000Y-91500000D01*
X143020000Y-90230000D01*
X143200000Y-89970000D01*
X143380000Y-90230000D01*
G36*
X144180000Y-90230000D02*
G01*
X144180000Y-91500000D01*
X143820000Y-91500000D01*
X143820000Y-90230000D01*
X144000000Y-89970000D01*
X144180000Y-90230000D01*
G37*
X144180000Y-90230000D02*
X144180000Y-91500000D01*
X143820000Y-91500000D01*
X143820000Y-90230000D01*
X144000000Y-89970000D01*
X144180000Y-90230000D01*
G36*
X144980000Y-90230000D02*
G01*
X144980000Y-91500000D01*
X144620000Y-91500000D01*
X144620000Y-90230000D01*
X144800000Y-89970000D01*
X144980000Y-90230000D01*
G37*
X144980000Y-90230000D02*
X144980000Y-91500000D01*
X144620000Y-91500000D01*
X144620000Y-90230000D01*
X144800000Y-89970000D01*
X144980000Y-90230000D01*
G36*
X145780000Y-90230000D02*
G01*
X145780000Y-91500000D01*
X145420000Y-91500000D01*
X145420000Y-90230000D01*
X145600000Y-89970000D01*
X145780000Y-90230000D01*
G37*
X145780000Y-90230000D02*
X145780000Y-91500000D01*
X145420000Y-91500000D01*
X145420000Y-90230000D01*
X145600000Y-89970000D01*
X145780000Y-90230000D01*
G36*
X146580000Y-90230000D02*
G01*
X146580000Y-91500000D01*
X146220000Y-91500000D01*
X146220000Y-90230000D01*
X146400000Y-89970000D01*
X146580000Y-90230000D01*
G37*
X146580000Y-90230000D02*
X146580000Y-91500000D01*
X146220000Y-91500000D01*
X146220000Y-90230000D01*
X146400000Y-89970000D01*
X146580000Y-90230000D01*
G36*
X147380000Y-90230000D02*
G01*
X147380000Y-91500000D01*
X147020000Y-91500000D01*
X147020000Y-90230000D01*
X147200000Y-89970000D01*
X147380000Y-90230000D01*
G37*
X147380000Y-90230000D02*
X147380000Y-91500000D01*
X147020000Y-91500000D01*
X147020000Y-90230000D01*
X147200000Y-89970000D01*
X147380000Y-90230000D01*
G36*
X148180000Y-90230000D02*
G01*
X148180000Y-91500000D01*
X147820000Y-91500000D01*
X147820000Y-90230000D01*
X148000000Y-89970000D01*
X148180000Y-90230000D01*
G37*
X148180000Y-90230000D02*
X148180000Y-91500000D01*
X147820000Y-91500000D01*
X147820000Y-90230000D01*
X148000000Y-89970000D01*
X148180000Y-90230000D01*
G36*
X148980000Y-90230000D02*
G01*
X148980000Y-91500000D01*
X148620000Y-91500000D01*
X148620000Y-90230000D01*
X148800000Y-89970000D01*
X148980000Y-90230000D01*
G37*
X148980000Y-90230000D02*
X148980000Y-91500000D01*
X148620000Y-91500000D01*
X148620000Y-90230000D01*
X148800000Y-89970000D01*
X148980000Y-90230000D01*
G36*
X149780000Y-90230000D02*
G01*
X149780000Y-91500000D01*
X149420000Y-91500000D01*
X149420000Y-90230000D01*
X149600000Y-89970000D01*
X149780000Y-90230000D01*
G37*
X149780000Y-90230000D02*
X149780000Y-91500000D01*
X149420000Y-91500000D01*
X149420000Y-90230000D01*
X149600000Y-89970000D01*
X149780000Y-90230000D01*
G36*
X110580000Y-121230000D02*
G01*
X110580000Y-122500000D01*
X110220000Y-122500000D01*
X110220000Y-121230000D01*
X110400000Y-120970000D01*
X110580000Y-121230000D01*
G37*
X110580000Y-121230000D02*
X110580000Y-122500000D01*
X110220000Y-122500000D01*
X110220000Y-121230000D01*
X110400000Y-120970000D01*
X110580000Y-121230000D01*
G36*
X111380000Y-121230000D02*
G01*
X111380000Y-122500000D01*
X111020000Y-122500000D01*
X111020000Y-121230000D01*
X111200000Y-120970000D01*
X111380000Y-121230000D01*
G37*
X111380000Y-121230000D02*
X111380000Y-122500000D01*
X111020000Y-122500000D01*
X111020000Y-121230000D01*
X111200000Y-120970000D01*
X111380000Y-121230000D01*
G36*
X112180000Y-121230000D02*
G01*
X112180000Y-122500000D01*
X111820000Y-122500000D01*
X111820000Y-121230000D01*
X112000000Y-120970000D01*
X112180000Y-121230000D01*
G37*
X112180000Y-121230000D02*
X112180000Y-122500000D01*
X111820000Y-122500000D01*
X111820000Y-121230000D01*
X112000000Y-120970000D01*
X112180000Y-121230000D01*
G36*
X112980000Y-121230000D02*
G01*
X112980000Y-122500000D01*
X112620000Y-122500000D01*
X112620000Y-121230000D01*
X112800000Y-120970000D01*
X112980000Y-121230000D01*
G37*
X112980000Y-121230000D02*
X112980000Y-122500000D01*
X112620000Y-122500000D01*
X112620000Y-121230000D01*
X112800000Y-120970000D01*
X112980000Y-121230000D01*
G36*
X113780000Y-121230000D02*
G01*
X113780000Y-122500000D01*
X113420000Y-122500000D01*
X113420000Y-121230000D01*
X113600000Y-120970000D01*
X113780000Y-121230000D01*
G37*
X113780000Y-121230000D02*
X113780000Y-122500000D01*
X113420000Y-122500000D01*
X113420000Y-121230000D01*
X113600000Y-120970000D01*
X113780000Y-121230000D01*
G36*
X114580000Y-121230000D02*
G01*
X114580000Y-122500000D01*
X114220000Y-122500000D01*
X114220000Y-121230000D01*
X114400000Y-120970000D01*
X114580000Y-121230000D01*
G37*
X114580000Y-121230000D02*
X114580000Y-122500000D01*
X114220000Y-122500000D01*
X114220000Y-121230000D01*
X114400000Y-120970000D01*
X114580000Y-121230000D01*
G36*
X115380000Y-121230000D02*
G01*
X115380000Y-122500000D01*
X115020000Y-122500000D01*
X115020000Y-121230000D01*
X115200000Y-120970000D01*
X115380000Y-121230000D01*
G37*
X115380000Y-121230000D02*
X115380000Y-122500000D01*
X115020000Y-122500000D01*
X115020000Y-121230000D01*
X115200000Y-120970000D01*
X115380000Y-121230000D01*
G36*
X116180000Y-121230000D02*
G01*
X116180000Y-122500000D01*
X115820000Y-122500000D01*
X115820000Y-121230000D01*
X116000000Y-120970000D01*
X116180000Y-121230000D01*
G37*
X116180000Y-121230000D02*
X116180000Y-122500000D01*
X115820000Y-122500000D01*
X115820000Y-121230000D01*
X116000000Y-120970000D01*
X116180000Y-121230000D01*
G36*
X116980000Y-121230000D02*
G01*
X116980000Y-122500000D01*
X116620000Y-122500000D01*
X116620000Y-121230000D01*
X116800000Y-120970000D01*
X116980000Y-121230000D01*
G37*
X116980000Y-121230000D02*
X116980000Y-122500000D01*
X116620000Y-122500000D01*
X116620000Y-121230000D01*
X116800000Y-120970000D01*
X116980000Y-121230000D01*
G36*
X117780000Y-121230000D02*
G01*
X117780000Y-122500000D01*
X117420000Y-122500000D01*
X117420000Y-121230000D01*
X117600000Y-120970000D01*
X117780000Y-121230000D01*
G37*
X117780000Y-121230000D02*
X117780000Y-122500000D01*
X117420000Y-122500000D01*
X117420000Y-121230000D01*
X117600000Y-120970000D01*
X117780000Y-121230000D01*
G36*
X118580000Y-121230000D02*
G01*
X118580000Y-122500000D01*
X118220000Y-122500000D01*
X118220000Y-121230000D01*
X118400000Y-120970000D01*
X118580000Y-121230000D01*
G37*
X118580000Y-121230000D02*
X118580000Y-122500000D01*
X118220000Y-122500000D01*
X118220000Y-121230000D01*
X118400000Y-120970000D01*
X118580000Y-121230000D01*
G36*
X119380000Y-121230000D02*
G01*
X119380000Y-122500000D01*
X119020000Y-122500000D01*
X119020000Y-121230000D01*
X119200000Y-120970000D01*
X119380000Y-121230000D01*
G37*
X119380000Y-121230000D02*
X119380000Y-122500000D01*
X119020000Y-122500000D01*
X119020000Y-121230000D01*
X119200000Y-120970000D01*
X119380000Y-121230000D01*
G36*
X120180000Y-121230000D02*
G01*
X120180000Y-122500000D01*
X119820000Y-122500000D01*
X119820000Y-121230000D01*
X120000000Y-120970000D01*
X120180000Y-121230000D01*
G37*
X120180000Y-121230000D02*
X120180000Y-122500000D01*
X119820000Y-122500000D01*
X119820000Y-121230000D01*
X120000000Y-120970000D01*
X120180000Y-121230000D01*
G36*
X120980000Y-121230000D02*
G01*
X120980000Y-122500000D01*
X120620000Y-122500000D01*
X120620000Y-121230000D01*
X120800000Y-120970000D01*
X120980000Y-121230000D01*
G37*
X120980000Y-121230000D02*
X120980000Y-122500000D01*
X120620000Y-122500000D01*
X120620000Y-121230000D01*
X120800000Y-120970000D01*
X120980000Y-121230000D01*
G36*
X121780000Y-121230000D02*
G01*
X121780000Y-122500000D01*
X121420000Y-122500000D01*
X121420000Y-121230000D01*
X121600000Y-120970000D01*
X121780000Y-121230000D01*
G37*
X121780000Y-121230000D02*
X121780000Y-122500000D01*
X121420000Y-122500000D01*
X121420000Y-121230000D01*
X121600000Y-120970000D01*
X121780000Y-121230000D01*
G36*
X122580000Y-121230000D02*
G01*
X122580000Y-122500000D01*
X122220000Y-122500000D01*
X122220000Y-121230000D01*
X122400000Y-120970000D01*
X122580000Y-121230000D01*
G37*
X122580000Y-121230000D02*
X122580000Y-122500000D01*
X122220000Y-122500000D01*
X122220000Y-121230000D01*
X122400000Y-120970000D01*
X122580000Y-121230000D01*
G36*
X123380000Y-121230000D02*
G01*
X123380000Y-122500000D01*
X123020000Y-122500000D01*
X123020000Y-121230000D01*
X123200000Y-120970000D01*
X123380000Y-121230000D01*
G37*
X123380000Y-121230000D02*
X123380000Y-122500000D01*
X123020000Y-122500000D01*
X123020000Y-121230000D01*
X123200000Y-120970000D01*
X123380000Y-121230000D01*
G36*
X124180000Y-121230000D02*
G01*
X124180000Y-122500000D01*
X123820000Y-122500000D01*
X123820000Y-121230000D01*
X124000000Y-120970000D01*
X124180000Y-121230000D01*
G37*
X124180000Y-121230000D02*
X124180000Y-122500000D01*
X123820000Y-122500000D01*
X123820000Y-121230000D01*
X124000000Y-120970000D01*
X124180000Y-121230000D01*
G36*
X124980000Y-121230000D02*
G01*
X124980000Y-122500000D01*
X124620000Y-122500000D01*
X124620000Y-121230000D01*
X124800000Y-120970000D01*
X124980000Y-121230000D01*
G37*
X124980000Y-121230000D02*
X124980000Y-122500000D01*
X124620000Y-122500000D01*
X124620000Y-121230000D01*
X124800000Y-120970000D01*
X124980000Y-121230000D01*
G36*
X125780000Y-121230000D02*
G01*
X125780000Y-122500000D01*
X125420000Y-122500000D01*
X125420000Y-121230000D01*
X125600000Y-120970000D01*
X125780000Y-121230000D01*
G37*
X125780000Y-121230000D02*
X125780000Y-122500000D01*
X125420000Y-122500000D01*
X125420000Y-121230000D01*
X125600000Y-120970000D01*
X125780000Y-121230000D01*
G36*
X126580000Y-121230000D02*
G01*
X126580000Y-122500000D01*
X126220000Y-122500000D01*
X126220000Y-121230000D01*
X126400000Y-120970000D01*
X126580000Y-121230000D01*
G37*
X126580000Y-121230000D02*
X126580000Y-122500000D01*
X126220000Y-122500000D01*
X126220000Y-121230000D01*
X126400000Y-120970000D01*
X126580000Y-121230000D01*
G36*
X127380000Y-121230000D02*
G01*
X127380000Y-122500000D01*
X127020000Y-122500000D01*
X127020000Y-121230000D01*
X127200000Y-120970000D01*
X127380000Y-121230000D01*
G37*
X127380000Y-121230000D02*
X127380000Y-122500000D01*
X127020000Y-122500000D01*
X127020000Y-121230000D01*
X127200000Y-120970000D01*
X127380000Y-121230000D01*
G36*
X128180000Y-121230000D02*
G01*
X128180000Y-122500000D01*
X127820000Y-122500000D01*
X127820000Y-121230000D01*
X128000000Y-120970000D01*
X128180000Y-121230000D01*
G37*
X128180000Y-121230000D02*
X128180000Y-122500000D01*
X127820000Y-122500000D01*
X127820000Y-121230000D01*
X128000000Y-120970000D01*
X128180000Y-121230000D01*
G36*
X128980000Y-121230000D02*
G01*
X128980000Y-122500000D01*
X128620000Y-122500000D01*
X128620000Y-121230000D01*
X128800000Y-120970000D01*
X128980000Y-121230000D01*
G37*
X128980000Y-121230000D02*
X128980000Y-122500000D01*
X128620000Y-122500000D01*
X128620000Y-121230000D01*
X128800000Y-120970000D01*
X128980000Y-121230000D01*
G36*
X129780000Y-121230000D02*
G01*
X129780000Y-122500000D01*
X129420000Y-122500000D01*
X129420000Y-121230000D01*
X129600000Y-120970000D01*
X129780000Y-121230000D01*
G37*
X129780000Y-121230000D02*
X129780000Y-122500000D01*
X129420000Y-122500000D01*
X129420000Y-121230000D01*
X129600000Y-120970000D01*
X129780000Y-121230000D01*
G36*
X130580000Y-121230000D02*
G01*
X130580000Y-122500000D01*
X130220000Y-122500000D01*
X130220000Y-121230000D01*
X130400000Y-120970000D01*
X130580000Y-121230000D01*
G37*
X130580000Y-121230000D02*
X130580000Y-122500000D01*
X130220000Y-122500000D01*
X130220000Y-121230000D01*
X130400000Y-120970000D01*
X130580000Y-121230000D01*
G36*
X131380000Y-121230000D02*
G01*
X131380000Y-122500000D01*
X131020000Y-122500000D01*
X131020000Y-121230000D01*
X131200000Y-120970000D01*
X131380000Y-121230000D01*
G37*
X131380000Y-121230000D02*
X131380000Y-122500000D01*
X131020000Y-122500000D01*
X131020000Y-121230000D01*
X131200000Y-120970000D01*
X131380000Y-121230000D01*
G36*
X132180000Y-121230000D02*
G01*
X132180000Y-122500000D01*
X131820000Y-122500000D01*
X131820000Y-121230000D01*
X132000000Y-120970000D01*
X132180000Y-121230000D01*
G37*
X132180000Y-121230000D02*
X132180000Y-122500000D01*
X131820000Y-122500000D01*
X131820000Y-121230000D01*
X132000000Y-120970000D01*
X132180000Y-121230000D01*
G36*
X132980000Y-121230000D02*
G01*
X132980000Y-122500000D01*
X132620000Y-122500000D01*
X132620000Y-121230000D01*
X132800000Y-120970000D01*
X132980000Y-121230000D01*
G37*
X132980000Y-121230000D02*
X132980000Y-122500000D01*
X132620000Y-122500000D01*
X132620000Y-121230000D01*
X132800000Y-120970000D01*
X132980000Y-121230000D01*
G36*
X133780000Y-121230000D02*
G01*
X133780000Y-122500000D01*
X133420000Y-122500000D01*
X133420000Y-121230000D01*
X133600000Y-120970000D01*
X133780000Y-121230000D01*
G37*
X133780000Y-121230000D02*
X133780000Y-122500000D01*
X133420000Y-122500000D01*
X133420000Y-121230000D01*
X133600000Y-120970000D01*
X133780000Y-121230000D01*
G36*
X134580000Y-121230000D02*
G01*
X134580000Y-122500000D01*
X134220000Y-122500000D01*
X134220000Y-121230000D01*
X134400000Y-120970000D01*
X134580000Y-121230000D01*
G37*
X134580000Y-121230000D02*
X134580000Y-122500000D01*
X134220000Y-122500000D01*
X134220000Y-121230000D01*
X134400000Y-120970000D01*
X134580000Y-121230000D01*
G36*
X135380000Y-121230000D02*
G01*
X135380000Y-122500000D01*
X135020000Y-122500000D01*
X135020000Y-121230000D01*
X135200000Y-120970000D01*
X135380000Y-121230000D01*
G37*
X135380000Y-121230000D02*
X135380000Y-122500000D01*
X135020000Y-122500000D01*
X135020000Y-121230000D01*
X135200000Y-120970000D01*
X135380000Y-121230000D01*
G36*
X136180000Y-121230000D02*
G01*
X136180000Y-122500000D01*
X135820000Y-122500000D01*
X135820000Y-121230000D01*
X136000000Y-120970000D01*
X136180000Y-121230000D01*
G37*
X136180000Y-121230000D02*
X136180000Y-122500000D01*
X135820000Y-122500000D01*
X135820000Y-121230000D01*
X136000000Y-120970000D01*
X136180000Y-121230000D01*
G36*
X136980000Y-121230000D02*
G01*
X136980000Y-122500000D01*
X136620000Y-122500000D01*
X136620000Y-121230000D01*
X136800000Y-120970000D01*
X136980000Y-121230000D01*
G37*
X136980000Y-121230000D02*
X136980000Y-122500000D01*
X136620000Y-122500000D01*
X136620000Y-121230000D01*
X136800000Y-120970000D01*
X136980000Y-121230000D01*
G36*
X137780000Y-121230000D02*
G01*
X137780000Y-122500000D01*
X137420000Y-122500000D01*
X137420000Y-121230000D01*
X137600000Y-120970000D01*
X137780000Y-121230000D01*
G37*
X137780000Y-121230000D02*
X137780000Y-122500000D01*
X137420000Y-122500000D01*
X137420000Y-121230000D01*
X137600000Y-120970000D01*
X137780000Y-121230000D01*
G36*
X138580000Y-121230000D02*
G01*
X138580000Y-122500000D01*
X138220000Y-122500000D01*
X138220000Y-121230000D01*
X138400000Y-120970000D01*
X138580000Y-121230000D01*
G37*
X138580000Y-121230000D02*
X138580000Y-122500000D01*
X138220000Y-122500000D01*
X138220000Y-121230000D01*
X138400000Y-120970000D01*
X138580000Y-121230000D01*
G36*
X139380000Y-121230000D02*
G01*
X139380000Y-122500000D01*
X139020000Y-122500000D01*
X139020000Y-121230000D01*
X139200000Y-120970000D01*
X139380000Y-121230000D01*
G37*
X139380000Y-121230000D02*
X139380000Y-122500000D01*
X139020000Y-122500000D01*
X139020000Y-121230000D01*
X139200000Y-120970000D01*
X139380000Y-121230000D01*
G36*
X140180000Y-121230000D02*
G01*
X140180000Y-122500000D01*
X139820000Y-122500000D01*
X139820000Y-121230000D01*
X140000000Y-120970000D01*
X140180000Y-121230000D01*
G37*
X140180000Y-121230000D02*
X140180000Y-122500000D01*
X139820000Y-122500000D01*
X139820000Y-121230000D01*
X140000000Y-120970000D01*
X140180000Y-121230000D01*
G36*
X140980000Y-121230000D02*
G01*
X140980000Y-122500000D01*
X140620000Y-122500000D01*
X140620000Y-121230000D01*
X140800000Y-120970000D01*
X140980000Y-121230000D01*
G37*
X140980000Y-121230000D02*
X140980000Y-122500000D01*
X140620000Y-122500000D01*
X140620000Y-121230000D01*
X140800000Y-120970000D01*
X140980000Y-121230000D01*
G36*
X141780000Y-121230000D02*
G01*
X141780000Y-122500000D01*
X141420000Y-122500000D01*
X141420000Y-121230000D01*
X141600000Y-120970000D01*
X141780000Y-121230000D01*
G37*
X141780000Y-121230000D02*
X141780000Y-122500000D01*
X141420000Y-122500000D01*
X141420000Y-121230000D01*
X141600000Y-120970000D01*
X141780000Y-121230000D01*
G36*
X142580000Y-121230000D02*
G01*
X142580000Y-122500000D01*
X142220000Y-122500000D01*
X142220000Y-121230000D01*
X142400000Y-120970000D01*
X142580000Y-121230000D01*
G37*
X142580000Y-121230000D02*
X142580000Y-122500000D01*
X142220000Y-122500000D01*
X142220000Y-121230000D01*
X142400000Y-120970000D01*
X142580000Y-121230000D01*
G36*
X143380000Y-121230000D02*
G01*
X143380000Y-122500000D01*
X143020000Y-122500000D01*
X143020000Y-121230000D01*
X143200000Y-120970000D01*
X143380000Y-121230000D01*
G37*
X143380000Y-121230000D02*
X143380000Y-122500000D01*
X143020000Y-122500000D01*
X143020000Y-121230000D01*
X143200000Y-120970000D01*
X143380000Y-121230000D01*
G36*
X144180000Y-121230000D02*
G01*
X144180000Y-122500000D01*
X143820000Y-122500000D01*
X143820000Y-121230000D01*
X144000000Y-120970000D01*
X144180000Y-121230000D01*
G37*
X144180000Y-121230000D02*
X144180000Y-122500000D01*
X143820000Y-122500000D01*
X143820000Y-121230000D01*
X144000000Y-120970000D01*
X144180000Y-121230000D01*
G36*
X144980000Y-121230000D02*
G01*
X144980000Y-122500000D01*
X144620000Y-122500000D01*
X144620000Y-121230000D01*
X144800000Y-120970000D01*
X144980000Y-121230000D01*
G37*
X144980000Y-121230000D02*
X144980000Y-122500000D01*
X144620000Y-122500000D01*
X144620000Y-121230000D01*
X144800000Y-120970000D01*
X144980000Y-121230000D01*
G36*
X145780000Y-121230000D02*
G01*
X145780000Y-122500000D01*
X145420000Y-122500000D01*
X145420000Y-121230000D01*
X145600000Y-120970000D01*
X145780000Y-121230000D01*
G37*
X145780000Y-121230000D02*
X145780000Y-122500000D01*
X145420000Y-122500000D01*
X145420000Y-121230000D01*
X145600000Y-120970000D01*
X145780000Y-121230000D01*
G36*
X146580000Y-121230000D02*
G01*
X146580000Y-122500000D01*
X146220000Y-122500000D01*
X146220000Y-121230000D01*
X146400000Y-120970000D01*
X146580000Y-121230000D01*
G37*
X146580000Y-121230000D02*
X146580000Y-122500000D01*
X146220000Y-122500000D01*
X146220000Y-121230000D01*
X146400000Y-120970000D01*
X146580000Y-121230000D01*
G36*
X147380000Y-121230000D02*
G01*
X147380000Y-122500000D01*
X147020000Y-122500000D01*
X147020000Y-121230000D01*
X147200000Y-120970000D01*
X147380000Y-121230000D01*
G37*
X147380000Y-121230000D02*
X147380000Y-122500000D01*
X147020000Y-122500000D01*
X147020000Y-121230000D01*
X147200000Y-120970000D01*
X147380000Y-121230000D01*
G36*
X148180000Y-121230000D02*
G01*
X148180000Y-122500000D01*
X147820000Y-122500000D01*
X147820000Y-121230000D01*
X148000000Y-120970000D01*
X148180000Y-121230000D01*
G37*
X148180000Y-121230000D02*
X148180000Y-122500000D01*
X147820000Y-122500000D01*
X147820000Y-121230000D01*
X148000000Y-120970000D01*
X148180000Y-121230000D01*
G36*
X148980000Y-121230000D02*
G01*
X148980000Y-122500000D01*
X148620000Y-122500000D01*
X148620000Y-121230000D01*
X148800000Y-120970000D01*
X148980000Y-121230000D01*
G37*
X148980000Y-121230000D02*
X148980000Y-122500000D01*
X148620000Y-122500000D01*
X148620000Y-121230000D01*
X148800000Y-120970000D01*
X148980000Y-121230000D01*
G36*
X149780000Y-121230000D02*
G01*
X149780000Y-122500000D01*
X149420000Y-122500000D01*
X149420000Y-121230000D01*
X149600000Y-120970000D01*
X149780000Y-121230000D01*
G37*
X149780000Y-121230000D02*
X149780000Y-122500000D01*
X149420000Y-122500000D01*
X149420000Y-121230000D01*
X149600000Y-120970000D01*
X149780000Y-121230000D01*
G36*
X270580000Y-152230000D02*
G01*
X270580000Y-153500000D01*
X270220000Y-153500000D01*
X270220000Y-152230000D01*
X270400000Y-151970000D01*
X270580000Y-152230000D01*
G37*
X270580000Y-152230000D02*
X270580000Y-153500000D01*
X270220000Y-153500000D01*
X270220000Y-152230000D01*
X270400000Y-151970000D01*
X270580000Y-152230000D01*
G36*
X271380000Y-152230000D02*
G01*
X271380000Y-153500000D01*
X271020000Y-153500000D01*
X271020000Y-152230000D01*
X271200000Y-151970000D01*
X271380000Y-152230000D01*
G37*
X271380000Y-152230000D02*
X271380000Y-153500000D01*
X271020000Y-153500000D01*
X271020000Y-152230000D01*
X271200000Y-151970000D01*
X271380000Y-152230000D01*
G36*
X272180000Y-152230000D02*
G01*
X272180000Y-153500000D01*
X271820000Y-153500000D01*
X271820000Y-152230000D01*
X272000000Y-151970000D01*
X272180000Y-152230000D01*
G37*
X272180000Y-152230000D02*
X272180000Y-153500000D01*
X271820000Y-153500000D01*
X271820000Y-152230000D01*
X272000000Y-151970000D01*
X272180000Y-152230000D01*
G36*
X272980000Y-152230000D02*
G01*
X272980000Y-153500000D01*
X272620000Y-153500000D01*
X272620000Y-152230000D01*
X272800000Y-151970000D01*
X272980000Y-152230000D01*
G37*
X272980000Y-152230000D02*
X272980000Y-153500000D01*
X272620000Y-153500000D01*
X272620000Y-152230000D01*
X272800000Y-151970000D01*
X272980000Y-152230000D01*
G36*
X273780000Y-152230000D02*
G01*
X273780000Y-153500000D01*
X273420000Y-153500000D01*
X273420000Y-152230000D01*
X273600000Y-151970000D01*
X273780000Y-152230000D01*
G37*
X273780000Y-152230000D02*
X273780000Y-153500000D01*
X273420000Y-153500000D01*
X273420000Y-152230000D01*
X273600000Y-151970000D01*
X273780000Y-152230000D01*
G36*
X274580000Y-152230000D02*
G01*
X274580000Y-153500000D01*
X274220000Y-153500000D01*
X274220000Y-152230000D01*
X274400000Y-151970000D01*
X274580000Y-152230000D01*
G37*
X274580000Y-152230000D02*
X274580000Y-153500000D01*
X274220000Y-153500000D01*
X274220000Y-152230000D01*
X274400000Y-151970000D01*
X274580000Y-152230000D01*
G36*
X275380000Y-152230000D02*
G01*
X275380000Y-153500000D01*
X275020000Y-153500000D01*
X275020000Y-152230000D01*
X275200000Y-151970000D01*
X275380000Y-152230000D01*
G37*
X275380000Y-152230000D02*
X275380000Y-153500000D01*
X275020000Y-153500000D01*
X275020000Y-152230000D01*
X275200000Y-151970000D01*
X275380000Y-152230000D01*
G36*
X276180000Y-152230000D02*
G01*
X276180000Y-153500000D01*
X275820000Y-153500000D01*
X275820000Y-152230000D01*
X276000000Y-151970000D01*
X276180000Y-152230000D01*
G37*
X276180000Y-152230000D02*
X276180000Y-153500000D01*
X275820000Y-153500000D01*
X275820000Y-152230000D01*
X276000000Y-151970000D01*
X276180000Y-152230000D01*
G36*
X276980000Y-152230000D02*
G01*
X276980000Y-153500000D01*
X276620000Y-153500000D01*
X276620000Y-152230000D01*
X276800000Y-151970000D01*
X276980000Y-152230000D01*
G37*
X276980000Y-152230000D02*
X276980000Y-153500000D01*
X276620000Y-153500000D01*
X276620000Y-152230000D01*
X276800000Y-151970000D01*
X276980000Y-152230000D01*
G36*
X277780000Y-152230000D02*
G01*
X277780000Y-153500000D01*
X277420000Y-153500000D01*
X277420000Y-152230000D01*
X277600000Y-151970000D01*
X277780000Y-152230000D01*
G37*
X277780000Y-152230000D02*
X277780000Y-153500000D01*
X277420000Y-153500000D01*
X277420000Y-152230000D01*
X277600000Y-151970000D01*
X277780000Y-152230000D01*
G36*
X278580000Y-152230000D02*
G01*
X278580000Y-153500000D01*
X278220000Y-153500000D01*
X278220000Y-152230000D01*
X278400000Y-151970000D01*
X278580000Y-152230000D01*
G37*
X278580000Y-152230000D02*
X278580000Y-153500000D01*
X278220000Y-153500000D01*
X278220000Y-152230000D01*
X278400000Y-151970000D01*
X278580000Y-152230000D01*
G36*
X279380000Y-152230000D02*
G01*
X279380000Y-153500000D01*
X279020000Y-153500000D01*
X279020000Y-152230000D01*
X279200000Y-151970000D01*
X279380000Y-152230000D01*
G37*
X279380000Y-152230000D02*
X279380000Y-153500000D01*
X279020000Y-153500000D01*
X279020000Y-152230000D01*
X279200000Y-151970000D01*
X279380000Y-152230000D01*
G36*
X280180000Y-152230000D02*
G01*
X280180000Y-153500000D01*
X279820000Y-153500000D01*
X279820000Y-152230000D01*
X280000000Y-151970000D01*
X280180000Y-152230000D01*
G37*
X280180000Y-152230000D02*
X280180000Y-153500000D01*
X279820000Y-153500000D01*
X279820000Y-152230000D01*
X280000000Y-151970000D01*
X280180000Y-152230000D01*
G36*
X280980000Y-152230000D02*
G01*
X280980000Y-153500000D01*
X280620000Y-153500000D01*
X280620000Y-152230000D01*
X280800000Y-151970000D01*
X280980000Y-152230000D01*
G37*
X280980000Y-152230000D02*
X280980000Y-153500000D01*
X280620000Y-153500000D01*
X280620000Y-152230000D01*
X280800000Y-151970000D01*
X280980000Y-152230000D01*
G36*
X281780000Y-152230000D02*
G01*
X281780000Y-153500000D01*
X281420000Y-153500000D01*
X281420000Y-152230000D01*
X281600000Y-151970000D01*
X281780000Y-152230000D01*
G37*
X281780000Y-152230000D02*
X281780000Y-153500000D01*
X281420000Y-153500000D01*
X281420000Y-152230000D01*
X281600000Y-151970000D01*
X281780000Y-152230000D01*
G36*
X282580000Y-152230000D02*
G01*
X282580000Y-153500000D01*
X282220000Y-153500000D01*
X282220000Y-152230000D01*
X282400000Y-151970000D01*
X282580000Y-152230000D01*
G37*
X282580000Y-152230000D02*
X282580000Y-153500000D01*
X282220000Y-153500000D01*
X282220000Y-152230000D01*
X282400000Y-151970000D01*
X282580000Y-152230000D01*
G36*
X283380000Y-152230000D02*
G01*
X283380000Y-153500000D01*
X283020000Y-153500000D01*
X283020000Y-152230000D01*
X283200000Y-151970000D01*
X283380000Y-152230000D01*
G37*
X283380000Y-152230000D02*
X283380000Y-153500000D01*
X283020000Y-153500000D01*
X283020000Y-152230000D01*
X283200000Y-151970000D01*
X283380000Y-152230000D01*
G36*
X284180000Y-152230000D02*
G01*
X284180000Y-153500000D01*
X283820000Y-153500000D01*
X283820000Y-152230000D01*
X284000000Y-151970000D01*
X284180000Y-152230000D01*
G37*
X284180000Y-152230000D02*
X284180000Y-153500000D01*
X283820000Y-153500000D01*
X283820000Y-152230000D01*
X284000000Y-151970000D01*
X284180000Y-152230000D01*
G36*
X284980000Y-152230000D02*
G01*
X284980000Y-153500000D01*
X284620000Y-153500000D01*
X284620000Y-152230000D01*
X284800000Y-151970000D01*
X284980000Y-152230000D01*
G37*
X284980000Y-152230000D02*
X284980000Y-153500000D01*
X284620000Y-153500000D01*
X284620000Y-152230000D01*
X284800000Y-151970000D01*
X284980000Y-152230000D01*
G36*
X285780000Y-152230000D02*
G01*
X285780000Y-153500000D01*
X285420000Y-153500000D01*
X285420000Y-152230000D01*
X285600000Y-151970000D01*
X285780000Y-152230000D01*
G37*
X285780000Y-152230000D02*
X285780000Y-153500000D01*
X285420000Y-153500000D01*
X285420000Y-152230000D01*
X285600000Y-151970000D01*
X285780000Y-152230000D01*
G36*
X286580000Y-152230000D02*
G01*
X286580000Y-153500000D01*
X286220000Y-153500000D01*
X286220000Y-152230000D01*
X286400000Y-151970000D01*
X286580000Y-152230000D01*
G37*
X286580000Y-152230000D02*
X286580000Y-153500000D01*
X286220000Y-153500000D01*
X286220000Y-152230000D01*
X286400000Y-151970000D01*
X286580000Y-152230000D01*
G36*
X287380000Y-152230000D02*
G01*
X287380000Y-153500000D01*
X287020000Y-153500000D01*
X287020000Y-152230000D01*
X287200000Y-151970000D01*
X287380000Y-152230000D01*
G37*
X287380000Y-152230000D02*
X287380000Y-153500000D01*
X287020000Y-153500000D01*
X287020000Y-152230000D01*
X287200000Y-151970000D01*
X287380000Y-152230000D01*
G36*
X288180000Y-152230000D02*
G01*
X288180000Y-153500000D01*
X287820000Y-153500000D01*
X287820000Y-152230000D01*
X288000000Y-151970000D01*
X288180000Y-152230000D01*
G37*
X288180000Y-152230000D02*
X288180000Y-153500000D01*
X287820000Y-153500000D01*
X287820000Y-152230000D01*
X288000000Y-151970000D01*
X288180000Y-152230000D01*
G36*
X288980000Y-152230000D02*
G01*
X288980000Y-153500000D01*
X288620000Y-153500000D01*
X288620000Y-152230000D01*
X288800000Y-151970000D01*
X288980000Y-152230000D01*
G37*
X288980000Y-152230000D02*
X288980000Y-153500000D01*
X288620000Y-153500000D01*
X288620000Y-152230000D01*
X288800000Y-151970000D01*
X288980000Y-152230000D01*
G36*
X289780000Y-152230000D02*
G01*
X289780000Y-153500000D01*
X289420000Y-153500000D01*
X289420000Y-152230000D01*
X289600000Y-151970000D01*
X289780000Y-152230000D01*
G37*
X289780000Y-152230000D02*
X289780000Y-153500000D01*
X289420000Y-153500000D01*
X289420000Y-152230000D01*
X289600000Y-151970000D01*
X289780000Y-152230000D01*
G36*
X290580000Y-152230000D02*
G01*
X290580000Y-153500000D01*
X290220000Y-153500000D01*
X290220000Y-152230000D01*
X290400000Y-151970000D01*
X290580000Y-152230000D01*
G37*
X290580000Y-152230000D02*
X290580000Y-153500000D01*
X290220000Y-153500000D01*
X290220000Y-152230000D01*
X290400000Y-151970000D01*
X290580000Y-152230000D01*
G36*
X291380000Y-152230000D02*
G01*
X291380000Y-153500000D01*
X291020000Y-153500000D01*
X291020000Y-152230000D01*
X291200000Y-151970000D01*
X291380000Y-152230000D01*
G37*
X291380000Y-152230000D02*
X291380000Y-153500000D01*
X291020000Y-153500000D01*
X291020000Y-152230000D01*
X291200000Y-151970000D01*
X291380000Y-152230000D01*
G36*
X292180000Y-152230000D02*
G01*
X292180000Y-153500000D01*
X291820000Y-153500000D01*
X291820000Y-152230000D01*
X292000000Y-151970000D01*
X292180000Y-152230000D01*
G37*
X292180000Y-152230000D02*
X292180000Y-153500000D01*
X291820000Y-153500000D01*
X291820000Y-152230000D01*
X292000000Y-151970000D01*
X292180000Y-152230000D01*
G36*
X292980000Y-152230000D02*
G01*
X292980000Y-153500000D01*
X292620000Y-153500000D01*
X292620000Y-152230000D01*
X292800000Y-151970000D01*
X292980000Y-152230000D01*
G37*
X292980000Y-152230000D02*
X292980000Y-153500000D01*
X292620000Y-153500000D01*
X292620000Y-152230000D01*
X292800000Y-151970000D01*
X292980000Y-152230000D01*
G36*
X293780000Y-152230000D02*
G01*
X293780000Y-153500000D01*
X293420000Y-153500000D01*
X293420000Y-152230000D01*
X293600000Y-151970000D01*
X293780000Y-152230000D01*
G37*
X293780000Y-152230000D02*
X293780000Y-153500000D01*
X293420000Y-153500000D01*
X293420000Y-152230000D01*
X293600000Y-151970000D01*
X293780000Y-152230000D01*
G36*
X294580000Y-152230000D02*
G01*
X294580000Y-153500000D01*
X294220000Y-153500000D01*
X294220000Y-152230000D01*
X294400000Y-151970000D01*
X294580000Y-152230000D01*
G37*
X294580000Y-152230000D02*
X294580000Y-153500000D01*
X294220000Y-153500000D01*
X294220000Y-152230000D01*
X294400000Y-151970000D01*
X294580000Y-152230000D01*
G36*
X295380000Y-152230000D02*
G01*
X295380000Y-153500000D01*
X295020000Y-153500000D01*
X295020000Y-152230000D01*
X295200000Y-151970000D01*
X295380000Y-152230000D01*
G37*
X295380000Y-152230000D02*
X295380000Y-153500000D01*
X295020000Y-153500000D01*
X295020000Y-152230000D01*
X295200000Y-151970000D01*
X295380000Y-152230000D01*
G36*
X296180000Y-152230000D02*
G01*
X296180000Y-153500000D01*
X295820000Y-153500000D01*
X295820000Y-152230000D01*
X296000000Y-151970000D01*
X296180000Y-152230000D01*
G37*
X296180000Y-152230000D02*
X296180000Y-153500000D01*
X295820000Y-153500000D01*
X295820000Y-152230000D01*
X296000000Y-151970000D01*
X296180000Y-152230000D01*
G36*
X296980000Y-152230000D02*
G01*
X296980000Y-153500000D01*
X296620000Y-153500000D01*
X296620000Y-152230000D01*
X296800000Y-151970000D01*
X296980000Y-152230000D01*
G37*
X296980000Y-152230000D02*
X296980000Y-153500000D01*
X296620000Y-153500000D01*
X296620000Y-152230000D01*
X296800000Y-151970000D01*
X296980000Y-152230000D01*
G36*
X297780000Y-152230000D02*
G01*
X297780000Y-153500000D01*
X297420000Y-153500000D01*
X297420000Y-152230000D01*
X297600000Y-151970000D01*
X297780000Y-152230000D01*
G37*
X297780000Y-152230000D02*
X297780000Y-153500000D01*
X297420000Y-153500000D01*
X297420000Y-152230000D01*
X297600000Y-151970000D01*
X297780000Y-152230000D01*
G36*
X298580000Y-152230000D02*
G01*
X298580000Y-153500000D01*
X298220000Y-153500000D01*
X298220000Y-152230000D01*
X298400000Y-151970000D01*
X298580000Y-152230000D01*
G37*
X298580000Y-152230000D02*
X298580000Y-153500000D01*
X298220000Y-153500000D01*
X298220000Y-152230000D01*
X298400000Y-151970000D01*
X298580000Y-152230000D01*
G36*
X299380000Y-152230000D02*
G01*
X299380000Y-153500000D01*
X299020000Y-153500000D01*
X299020000Y-152230000D01*
X299200000Y-151970000D01*
X299380000Y-152230000D01*
G37*
X299380000Y-152230000D02*
X299380000Y-153500000D01*
X299020000Y-153500000D01*
X299020000Y-152230000D01*
X299200000Y-151970000D01*
X299380000Y-152230000D01*
G36*
X300180000Y-152230000D02*
G01*
X300180000Y-153500000D01*
X299820000Y-153500000D01*
X299820000Y-152230000D01*
X300000000Y-151970000D01*
X300180000Y-152230000D01*
G37*
X300180000Y-152230000D02*
X300180000Y-153500000D01*
X299820000Y-153500000D01*
X299820000Y-152230000D01*
X300000000Y-151970000D01*
X300180000Y-152230000D01*
G36*
X300980000Y-152230000D02*
G01*
X300980000Y-153500000D01*
X300620000Y-153500000D01*
X300620000Y-152230000D01*
X300800000Y-151970000D01*
X300980000Y-152230000D01*
G37*
X300980000Y-152230000D02*
X300980000Y-153500000D01*
X300620000Y-153500000D01*
X300620000Y-152230000D01*
X300800000Y-151970000D01*
X300980000Y-152230000D01*
G36*
X301780000Y-152230000D02*
G01*
X301780000Y-153500000D01*
X301420000Y-153500000D01*
X301420000Y-152230000D01*
X301600000Y-151970000D01*
X301780000Y-152230000D01*
G37*
X301780000Y-152230000D02*
X301780000Y-153500000D01*
X301420000Y-153500000D01*
X301420000Y-152230000D01*
X301600000Y-151970000D01*
X301780000Y-152230000D01*
G36*
X302580000Y-152230000D02*
G01*
X302580000Y-153500000D01*
X302220000Y-153500000D01*
X302220000Y-152230000D01*
X302400000Y-151970000D01*
X302580000Y-152230000D01*
G37*
X302580000Y-152230000D02*
X302580000Y-153500000D01*
X302220000Y-153500000D01*
X302220000Y-152230000D01*
X302400000Y-151970000D01*
X302580000Y-152230000D01*
G36*
X303380000Y-152230000D02*
G01*
X303380000Y-153500000D01*
X303020000Y-153500000D01*
X303020000Y-152230000D01*
X303200000Y-151970000D01*
X303380000Y-152230000D01*
G37*
X303380000Y-152230000D02*
X303380000Y-153500000D01*
X303020000Y-153500000D01*
X303020000Y-152230000D01*
X303200000Y-151970000D01*
X303380000Y-152230000D01*
G36*
X304180000Y-152230000D02*
G01*
X304180000Y-153500000D01*
X303820000Y-153500000D01*
X303820000Y-152230000D01*
X304000000Y-151970000D01*
X304180000Y-152230000D01*
G37*
X304180000Y-152230000D02*
X304180000Y-153500000D01*
X303820000Y-153500000D01*
X303820000Y-152230000D01*
X304000000Y-151970000D01*
X304180000Y-152230000D01*
G36*
X304980000Y-152230000D02*
G01*
X304980000Y-153500000D01*
X304620000Y-153500000D01*
X304620000Y-152230000D01*
X304800000Y-151970000D01*
X304980000Y-152230000D01*
G37*
X304980000Y-152230000D02*
X304980000Y-153500000D01*
X304620000Y-153500000D01*
X304620000Y-152230000D01*
X304800000Y-151970000D01*
X304980000Y-152230000D01*
G36*
X305780000Y-152230000D02*
G01*
X305780000Y-153500000D01*
X305420000Y-153500000D01*
X305420000Y-152230000D01*
X305600000Y-151970000D01*
X305780000Y-152230000D01*
G37*
X305780000Y-152230000D02*
X305780000Y-153500000D01*
X305420000Y-153500000D01*
X305420000Y-152230000D01*
X305600000Y-151970000D01*
X305780000Y-152230000D01*
G36*
X306580000Y-152230000D02*
G01*
X306580000Y-153500000D01*
X306220000Y-153500000D01*
X306220000Y-152230000D01*
X306400000Y-151970000D01*
X306580000Y-152230000D01*
G37*
X306580000Y-152230000D02*
X306580000Y-153500000D01*
X306220000Y-153500000D01*
X306220000Y-152230000D01*
X306400000Y-151970000D01*
X306580000Y-152230000D01*
G36*
X307380000Y-152230000D02*
G01*
X307380000Y-153500000D01*
X307020000Y-153500000D01*
X307020000Y-152230000D01*
X307200000Y-151970000D01*
X307380000Y-152230000D01*
G37*
X307380000Y-152230000D02*
X307380000Y-153500000D01*
X307020000Y-153500000D01*
X307020000Y-152230000D01*
X307200000Y-151970000D01*
X307380000Y-152230000D01*
G36*
X308180000Y-152230000D02*
G01*
X308180000Y-153500000D01*
X307820000Y-153500000D01*
X307820000Y-152230000D01*
X308000000Y-151970000D01*
X308180000Y-152230000D01*
G37*
X308180000Y-152230000D02*
X308180000Y-153500000D01*
X307820000Y-153500000D01*
X307820000Y-152230000D01*
X308000000Y-151970000D01*
X308180000Y-152230000D01*
G36*
X308980000Y-152230000D02*
G01*
X308980000Y-153500000D01*
X308620000Y-153500000D01*
X308620000Y-152230000D01*
X308800000Y-151970000D01*
X308980000Y-152230000D01*
G37*
X308980000Y-152230000D02*
X308980000Y-153500000D01*
X308620000Y-153500000D01*
X308620000Y-152230000D01*
X308800000Y-151970000D01*
X308980000Y-152230000D01*
G36*
X309780000Y-152230000D02*
G01*
X309780000Y-153500000D01*
X309420000Y-153500000D01*
X309420000Y-152230000D01*
X309600000Y-151970000D01*
X309780000Y-152230000D01*
G37*
X309780000Y-152230000D02*
X309780000Y-153500000D01*
X309420000Y-153500000D01*
X309420000Y-152230000D01*
X309600000Y-151970000D01*
X309780000Y-152230000D01*
G36*
X270580000Y-90230000D02*
G01*
X270580000Y-91500000D01*
X270220000Y-91500000D01*
X270220000Y-90230000D01*
X270400000Y-89970000D01*
X270580000Y-90230000D01*
G37*
X270580000Y-90230000D02*
X270580000Y-91500000D01*
X270220000Y-91500000D01*
X270220000Y-90230000D01*
X270400000Y-89970000D01*
X270580000Y-90230000D01*
G36*
X271380000Y-90230000D02*
G01*
X271380000Y-91500000D01*
X271020000Y-91500000D01*
X271020000Y-90230000D01*
X271200000Y-89970000D01*
X271380000Y-90230000D01*
G37*
X271380000Y-90230000D02*
X271380000Y-91500000D01*
X271020000Y-91500000D01*
X271020000Y-90230000D01*
X271200000Y-89970000D01*
X271380000Y-90230000D01*
G36*
X272180000Y-90230000D02*
G01*
X272180000Y-91500000D01*
X271820000Y-91500000D01*
X271820000Y-90230000D01*
X272000000Y-89970000D01*
X272180000Y-90230000D01*
G37*
X272180000Y-90230000D02*
X272180000Y-91500000D01*
X271820000Y-91500000D01*
X271820000Y-90230000D01*
X272000000Y-89970000D01*
X272180000Y-90230000D01*
G36*
X272980000Y-90230000D02*
G01*
X272980000Y-91500000D01*
X272620000Y-91500000D01*
X272620000Y-90230000D01*
X272800000Y-89970000D01*
X272980000Y-90230000D01*
G37*
X272980000Y-90230000D02*
X272980000Y-91500000D01*
X272620000Y-91500000D01*
X272620000Y-90230000D01*
X272800000Y-89970000D01*
X272980000Y-90230000D01*
G36*
X273780000Y-90230000D02*
G01*
X273780000Y-91500000D01*
X273420000Y-91500000D01*
X273420000Y-90230000D01*
X273600000Y-89970000D01*
X273780000Y-90230000D01*
G37*
X273780000Y-90230000D02*
X273780000Y-91500000D01*
X273420000Y-91500000D01*
X273420000Y-90230000D01*
X273600000Y-89970000D01*
X273780000Y-90230000D01*
G36*
X274580000Y-90230000D02*
G01*
X274580000Y-91500000D01*
X274220000Y-91500000D01*
X274220000Y-90230000D01*
X274400000Y-89970000D01*
X274580000Y-90230000D01*
G37*
X274580000Y-90230000D02*
X274580000Y-91500000D01*
X274220000Y-91500000D01*
X274220000Y-90230000D01*
X274400000Y-89970000D01*
X274580000Y-90230000D01*
G36*
X275380000Y-90230000D02*
G01*
X275380000Y-91500000D01*
X275020000Y-91500000D01*
X275020000Y-90230000D01*
X275200000Y-89970000D01*
X275380000Y-90230000D01*
G37*
X275380000Y-90230000D02*
X275380000Y-91500000D01*
X275020000Y-91500000D01*
X275020000Y-90230000D01*
X275200000Y-89970000D01*
X275380000Y-90230000D01*
G36*
X276180000Y-90230000D02*
G01*
X276180000Y-91500000D01*
X275820000Y-91500000D01*
X275820000Y-90230000D01*
X276000000Y-89970000D01*
X276180000Y-90230000D01*
G37*
X276180000Y-90230000D02*
X276180000Y-91500000D01*
X275820000Y-91500000D01*
X275820000Y-90230000D01*
X276000000Y-89970000D01*
X276180000Y-90230000D01*
G36*
X276980000Y-90230000D02*
G01*
X276980000Y-91500000D01*
X276620000Y-91500000D01*
X276620000Y-90230000D01*
X276800000Y-89970000D01*
X276980000Y-90230000D01*
G37*
X276980000Y-90230000D02*
X276980000Y-91500000D01*
X276620000Y-91500000D01*
X276620000Y-90230000D01*
X276800000Y-89970000D01*
X276980000Y-90230000D01*
G36*
X277780000Y-90230000D02*
G01*
X277780000Y-91500000D01*
X277420000Y-91500000D01*
X277420000Y-90230000D01*
X277600000Y-89970000D01*
X277780000Y-90230000D01*
G37*
X277780000Y-90230000D02*
X277780000Y-91500000D01*
X277420000Y-91500000D01*
X277420000Y-90230000D01*
X277600000Y-89970000D01*
X277780000Y-90230000D01*
G36*
X278580000Y-90230000D02*
G01*
X278580000Y-91500000D01*
X278220000Y-91500000D01*
X278220000Y-90230000D01*
X278400000Y-89970000D01*
X278580000Y-90230000D01*
G37*
X278580000Y-90230000D02*
X278580000Y-91500000D01*
X278220000Y-91500000D01*
X278220000Y-90230000D01*
X278400000Y-89970000D01*
X278580000Y-90230000D01*
G36*
X279380000Y-90230000D02*
G01*
X279380000Y-91500000D01*
X279020000Y-91500000D01*
X279020000Y-90230000D01*
X279200000Y-89970000D01*
X279380000Y-90230000D01*
G37*
X279380000Y-90230000D02*
X279380000Y-91500000D01*
X279020000Y-91500000D01*
X279020000Y-90230000D01*
X279200000Y-89970000D01*
X279380000Y-90230000D01*
G36*
X280180000Y-90230000D02*
G01*
X280180000Y-91500000D01*
X279820000Y-91500000D01*
X279820000Y-90230000D01*
X280000000Y-89970000D01*
X280180000Y-90230000D01*
G37*
X280180000Y-90230000D02*
X280180000Y-91500000D01*
X279820000Y-91500000D01*
X279820000Y-90230000D01*
X280000000Y-89970000D01*
X280180000Y-90230000D01*
G36*
X280980000Y-90230000D02*
G01*
X280980000Y-91500000D01*
X280620000Y-91500000D01*
X280620000Y-90230000D01*
X280800000Y-89970000D01*
X280980000Y-90230000D01*
G37*
X280980000Y-90230000D02*
X280980000Y-91500000D01*
X280620000Y-91500000D01*
X280620000Y-90230000D01*
X280800000Y-89970000D01*
X280980000Y-90230000D01*
G36*
X281780000Y-90230000D02*
G01*
X281780000Y-91500000D01*
X281420000Y-91500000D01*
X281420000Y-90230000D01*
X281600000Y-89970000D01*
X281780000Y-90230000D01*
G37*
X281780000Y-90230000D02*
X281780000Y-91500000D01*
X281420000Y-91500000D01*
X281420000Y-90230000D01*
X281600000Y-89970000D01*
X281780000Y-90230000D01*
G36*
X282580000Y-90230000D02*
G01*
X282580000Y-91500000D01*
X282220000Y-91500000D01*
X282220000Y-90230000D01*
X282400000Y-89970000D01*
X282580000Y-90230000D01*
G37*
X282580000Y-90230000D02*
X282580000Y-91500000D01*
X282220000Y-91500000D01*
X282220000Y-90230000D01*
X282400000Y-89970000D01*
X282580000Y-90230000D01*
G36*
X283380000Y-90230000D02*
G01*
X283380000Y-91500000D01*
X283020000Y-91500000D01*
X283020000Y-90230000D01*
X283200000Y-89970000D01*
X283380000Y-90230000D01*
G37*
X283380000Y-90230000D02*
X283380000Y-91500000D01*
X283020000Y-91500000D01*
X283020000Y-90230000D01*
X283200000Y-89970000D01*
X283380000Y-90230000D01*
G36*
X284180000Y-90230000D02*
G01*
X284180000Y-91500000D01*
X283820000Y-91500000D01*
X283820000Y-90230000D01*
X284000000Y-89970000D01*
X284180000Y-90230000D01*
G37*
X284180000Y-90230000D02*
X284180000Y-91500000D01*
X283820000Y-91500000D01*
X283820000Y-90230000D01*
X284000000Y-89970000D01*
X284180000Y-90230000D01*
G36*
X284980000Y-90230000D02*
G01*
X284980000Y-91500000D01*
X284620000Y-91500000D01*
X284620000Y-90230000D01*
X284800000Y-89970000D01*
X284980000Y-90230000D01*
G37*
X284980000Y-90230000D02*
X284980000Y-91500000D01*
X284620000Y-91500000D01*
X284620000Y-90230000D01*
X284800000Y-89970000D01*
X284980000Y-90230000D01*
G36*
X285780000Y-90230000D02*
G01*
X285780000Y-91500000D01*
X285420000Y-91500000D01*
X285420000Y-90230000D01*
X285600000Y-89970000D01*
X285780000Y-90230000D01*
G37*
X285780000Y-90230000D02*
X285780000Y-91500000D01*
X285420000Y-91500000D01*
X285420000Y-90230000D01*
X285600000Y-89970000D01*
X285780000Y-90230000D01*
G36*
X286580000Y-90230000D02*
G01*
X286580000Y-91500000D01*
X286220000Y-91500000D01*
X286220000Y-90230000D01*
X286400000Y-89970000D01*
X286580000Y-90230000D01*
G37*
X286580000Y-90230000D02*
X286580000Y-91500000D01*
X286220000Y-91500000D01*
X286220000Y-90230000D01*
X286400000Y-89970000D01*
X286580000Y-90230000D01*
G36*
X287380000Y-90230000D02*
G01*
X287380000Y-91500000D01*
X287020000Y-91500000D01*
X287020000Y-90230000D01*
X287200000Y-89970000D01*
X287380000Y-90230000D01*
G37*
X287380000Y-90230000D02*
X287380000Y-91500000D01*
X287020000Y-91500000D01*
X287020000Y-90230000D01*
X287200000Y-89970000D01*
X287380000Y-90230000D01*
G36*
X288180000Y-90230000D02*
G01*
X288180000Y-91500000D01*
X287820000Y-91500000D01*
X287820000Y-90230000D01*
X288000000Y-89970000D01*
X288180000Y-90230000D01*
G37*
X288180000Y-90230000D02*
X288180000Y-91500000D01*
X287820000Y-91500000D01*
X287820000Y-90230000D01*
X288000000Y-89970000D01*
X288180000Y-90230000D01*
G36*
X288980000Y-90230000D02*
G01*
X288980000Y-91500000D01*
X288620000Y-91500000D01*
X288620000Y-90230000D01*
X288800000Y-89970000D01*
X288980000Y-90230000D01*
G37*
X288980000Y-90230000D02*
X288980000Y-91500000D01*
X288620000Y-91500000D01*
X288620000Y-90230000D01*
X288800000Y-89970000D01*
X288980000Y-90230000D01*
G36*
X289780000Y-90230000D02*
G01*
X289780000Y-91500000D01*
X289420000Y-91500000D01*
X289420000Y-90230000D01*
X289600000Y-89970000D01*
X289780000Y-90230000D01*
G37*
X289780000Y-90230000D02*
X289780000Y-91500000D01*
X289420000Y-91500000D01*
X289420000Y-90230000D01*
X289600000Y-89970000D01*
X289780000Y-90230000D01*
G36*
X290580000Y-90230000D02*
G01*
X290580000Y-91500000D01*
X290220000Y-91500000D01*
X290220000Y-90230000D01*
X290400000Y-89970000D01*
X290580000Y-90230000D01*
G37*
X290580000Y-90230000D02*
X290580000Y-91500000D01*
X290220000Y-91500000D01*
X290220000Y-90230000D01*
X290400000Y-89970000D01*
X290580000Y-90230000D01*
G36*
X291380000Y-90230000D02*
G01*
X291380000Y-91500000D01*
X291020000Y-91500000D01*
X291020000Y-90230000D01*
X291200000Y-89970000D01*
X291380000Y-90230000D01*
G37*
X291380000Y-90230000D02*
X291380000Y-91500000D01*
X291020000Y-91500000D01*
X291020000Y-90230000D01*
X291200000Y-89970000D01*
X291380000Y-90230000D01*
G36*
X292180000Y-90230000D02*
G01*
X292180000Y-91500000D01*
X291820000Y-91500000D01*
X291820000Y-90230000D01*
X292000000Y-89970000D01*
X292180000Y-90230000D01*
G37*
X292180000Y-90230000D02*
X292180000Y-91500000D01*
X291820000Y-91500000D01*
X291820000Y-90230000D01*
X292000000Y-89970000D01*
X292180000Y-90230000D01*
G36*
X292980000Y-90230000D02*
G01*
X292980000Y-91500000D01*
X292620000Y-91500000D01*
X292620000Y-90230000D01*
X292800000Y-89970000D01*
X292980000Y-90230000D01*
G37*
X292980000Y-90230000D02*
X292980000Y-91500000D01*
X292620000Y-91500000D01*
X292620000Y-90230000D01*
X292800000Y-89970000D01*
X292980000Y-90230000D01*
G36*
X293780000Y-90230000D02*
G01*
X293780000Y-91500000D01*
X293420000Y-91500000D01*
X293420000Y-90230000D01*
X293600000Y-89970000D01*
X293780000Y-90230000D01*
G37*
X293780000Y-90230000D02*
X293780000Y-91500000D01*
X293420000Y-91500000D01*
X293420000Y-90230000D01*
X293600000Y-89970000D01*
X293780000Y-90230000D01*
G36*
X294580000Y-90230000D02*
G01*
X294580000Y-91500000D01*
X294220000Y-91500000D01*
X294220000Y-90230000D01*
X294400000Y-89970000D01*
X294580000Y-90230000D01*
G37*
X294580000Y-90230000D02*
X294580000Y-91500000D01*
X294220000Y-91500000D01*
X294220000Y-90230000D01*
X294400000Y-89970000D01*
X294580000Y-90230000D01*
G36*
X295380000Y-90230000D02*
G01*
X295380000Y-91500000D01*
X295020000Y-91500000D01*
X295020000Y-90230000D01*
X295200000Y-89970000D01*
X295380000Y-90230000D01*
G37*
X295380000Y-90230000D02*
X295380000Y-91500000D01*
X295020000Y-91500000D01*
X295020000Y-90230000D01*
X295200000Y-89970000D01*
X295380000Y-90230000D01*
G36*
X296180000Y-90230000D02*
G01*
X296180000Y-91500000D01*
X295820000Y-91500000D01*
X295820000Y-90230000D01*
X296000000Y-89970000D01*
X296180000Y-90230000D01*
G37*
X296180000Y-90230000D02*
X296180000Y-91500000D01*
X295820000Y-91500000D01*
X295820000Y-90230000D01*
X296000000Y-89970000D01*
X296180000Y-90230000D01*
G36*
X296980000Y-90230000D02*
G01*
X296980000Y-91500000D01*
X296620000Y-91500000D01*
X296620000Y-90230000D01*
X296800000Y-89970000D01*
X296980000Y-90230000D01*
G37*
X296980000Y-90230000D02*
X296980000Y-91500000D01*
X296620000Y-91500000D01*
X296620000Y-90230000D01*
X296800000Y-89970000D01*
X296980000Y-90230000D01*
G36*
X297780000Y-90230000D02*
G01*
X297780000Y-91500000D01*
X297420000Y-91500000D01*
X297420000Y-90230000D01*
X297600000Y-89970000D01*
X297780000Y-90230000D01*
G37*
X297780000Y-90230000D02*
X297780000Y-91500000D01*
X297420000Y-91500000D01*
X297420000Y-90230000D01*
X297600000Y-89970000D01*
X297780000Y-90230000D01*
G36*
X298580000Y-90230000D02*
G01*
X298580000Y-91500000D01*
X298220000Y-91500000D01*
X298220000Y-90230000D01*
X298400000Y-89970000D01*
X298580000Y-90230000D01*
G37*
X298580000Y-90230000D02*
X298580000Y-91500000D01*
X298220000Y-91500000D01*
X298220000Y-90230000D01*
X298400000Y-89970000D01*
X298580000Y-90230000D01*
G36*
X299380000Y-90230000D02*
G01*
X299380000Y-91500000D01*
X299020000Y-91500000D01*
X299020000Y-90230000D01*
X299200000Y-89970000D01*
X299380000Y-90230000D01*
G37*
X299380000Y-90230000D02*
X299380000Y-91500000D01*
X299020000Y-91500000D01*
X299020000Y-90230000D01*
X299200000Y-89970000D01*
X299380000Y-90230000D01*
G36*
X300180000Y-90230000D02*
G01*
X300180000Y-91500000D01*
X299820000Y-91500000D01*
X299820000Y-90230000D01*
X300000000Y-89970000D01*
X300180000Y-90230000D01*
G37*
X300180000Y-90230000D02*
X300180000Y-91500000D01*
X299820000Y-91500000D01*
X299820000Y-90230000D01*
X300000000Y-89970000D01*
X300180000Y-90230000D01*
G36*
X300980000Y-90230000D02*
G01*
X300980000Y-91500000D01*
X300620000Y-91500000D01*
X300620000Y-90230000D01*
X300800000Y-89970000D01*
X300980000Y-90230000D01*
G37*
X300980000Y-90230000D02*
X300980000Y-91500000D01*
X300620000Y-91500000D01*
X300620000Y-90230000D01*
X300800000Y-89970000D01*
X300980000Y-90230000D01*
G36*
X301780000Y-90230000D02*
G01*
X301780000Y-91500000D01*
X301420000Y-91500000D01*
X301420000Y-90230000D01*
X301600000Y-89970000D01*
X301780000Y-90230000D01*
G37*
X301780000Y-90230000D02*
X301780000Y-91500000D01*
X301420000Y-91500000D01*
X301420000Y-90230000D01*
X301600000Y-89970000D01*
X301780000Y-90230000D01*
G36*
X302580000Y-90230000D02*
G01*
X302580000Y-91500000D01*
X302220000Y-91500000D01*
X302220000Y-90230000D01*
X302400000Y-89970000D01*
X302580000Y-90230000D01*
G37*
X302580000Y-90230000D02*
X302580000Y-91500000D01*
X302220000Y-91500000D01*
X302220000Y-90230000D01*
X302400000Y-89970000D01*
X302580000Y-90230000D01*
G36*
X303380000Y-90230000D02*
G01*
X303380000Y-91500000D01*
X303020000Y-91500000D01*
X303020000Y-90230000D01*
X303200000Y-89970000D01*
X303380000Y-90230000D01*
G37*
X303380000Y-90230000D02*
X303380000Y-91500000D01*
X303020000Y-91500000D01*
X303020000Y-90230000D01*
X303200000Y-89970000D01*
X303380000Y-90230000D01*
G36*
X304180000Y-90230000D02*
G01*
X304180000Y-91500000D01*
X303820000Y-91500000D01*
X303820000Y-90230000D01*
X304000000Y-89970000D01*
X304180000Y-90230000D01*
G37*
X304180000Y-90230000D02*
X304180000Y-91500000D01*
X303820000Y-91500000D01*
X303820000Y-90230000D01*
X304000000Y-89970000D01*
X304180000Y-90230000D01*
G36*
X304980000Y-90230000D02*
G01*
X304980000Y-91500000D01*
X304620000Y-91500000D01*
X304620000Y-90230000D01*
X304800000Y-89970000D01*
X304980000Y-90230000D01*
G37*
X304980000Y-90230000D02*
X304980000Y-91500000D01*
X304620000Y-91500000D01*
X304620000Y-90230000D01*
X304800000Y-89970000D01*
X304980000Y-90230000D01*
G36*
X305780000Y-90230000D02*
G01*
X305780000Y-91500000D01*
X305420000Y-91500000D01*
X305420000Y-90230000D01*
X305600000Y-89970000D01*
X305780000Y-90230000D01*
G37*
X305780000Y-90230000D02*
X305780000Y-91500000D01*
X305420000Y-91500000D01*
X305420000Y-90230000D01*
X305600000Y-89970000D01*
X305780000Y-90230000D01*
G36*
X306580000Y-90230000D02*
G01*
X306580000Y-91500000D01*
X306220000Y-91500000D01*
X306220000Y-90230000D01*
X306400000Y-89970000D01*
X306580000Y-90230000D01*
G37*
X306580000Y-90230000D02*
X306580000Y-91500000D01*
X306220000Y-91500000D01*
X306220000Y-90230000D01*
X306400000Y-89970000D01*
X306580000Y-90230000D01*
G36*
X307380000Y-90230000D02*
G01*
X307380000Y-91500000D01*
X307020000Y-91500000D01*
X307020000Y-90230000D01*
X307200000Y-89970000D01*
X307380000Y-90230000D01*
G37*
X307380000Y-90230000D02*
X307380000Y-91500000D01*
X307020000Y-91500000D01*
X307020000Y-90230000D01*
X307200000Y-89970000D01*
X307380000Y-90230000D01*
G36*
X308180000Y-90230000D02*
G01*
X308180000Y-91500000D01*
X307820000Y-91500000D01*
X307820000Y-90230000D01*
X308000000Y-89970000D01*
X308180000Y-90230000D01*
G37*
X308180000Y-90230000D02*
X308180000Y-91500000D01*
X307820000Y-91500000D01*
X307820000Y-90230000D01*
X308000000Y-89970000D01*
X308180000Y-90230000D01*
G36*
X308980000Y-90230000D02*
G01*
X308980000Y-91500000D01*
X308620000Y-91500000D01*
X308620000Y-90230000D01*
X308800000Y-89970000D01*
X308980000Y-90230000D01*
G37*
X308980000Y-90230000D02*
X308980000Y-91500000D01*
X308620000Y-91500000D01*
X308620000Y-90230000D01*
X308800000Y-89970000D01*
X308980000Y-90230000D01*
G36*
X309780000Y-90230000D02*
G01*
X309780000Y-91500000D01*
X309420000Y-91500000D01*
X309420000Y-90230000D01*
X309600000Y-89970000D01*
X309780000Y-90230000D01*
G37*
X309780000Y-90230000D02*
X309780000Y-91500000D01*
X309420000Y-91500000D01*
X309420000Y-90230000D01*
X309600000Y-89970000D01*
X309780000Y-90230000D01*
%TD*%
D11*
%TO.C,C4*%
X142480000Y-164360000D03*
X142480000Y-162460000D03*
%TD*%
%TO.C,C4*%
X302480000Y-195360000D03*
X302480000Y-193460000D03*
%TD*%
%TO.C,C4*%
X142480000Y-195360000D03*
X142480000Y-193460000D03*
%TD*%
%TO.C,C4*%
X302480000Y-164360000D03*
X302480000Y-162460000D03*
%TD*%
%TO.C,C4*%
X302480000Y-102360000D03*
X302480000Y-100460000D03*
%TD*%
%TO.C,C4*%
X302480000Y-133360000D03*
X302480000Y-131460000D03*
%TD*%
%TO.C,C4*%
X142480000Y-133360000D03*
X142480000Y-131460000D03*
%TD*%
%TO.C,C4*%
X142480000Y-102360000D03*
X142480000Y-100460000D03*
%TD*%
D12*
%TO.C,J1*%
X75539999Y-166439999D03*
X75039999Y-166439999D03*
X74539999Y-166439999D03*
X74039999Y-166439999D03*
X73539999Y-166439999D03*
X73039999Y-166439999D03*
X72539999Y-166439999D03*
X72039999Y-166439999D03*
X71539999Y-166439999D03*
X71039999Y-166439999D03*
X70539999Y-166439999D03*
X70039999Y-166439999D03*
X69539999Y-166439999D03*
X69039999Y-166439999D03*
X68539999Y-166439999D03*
X68039999Y-166439999D03*
X67539999Y-166439999D03*
X67039999Y-166439999D03*
X66539999Y-166439999D03*
X66039999Y-166439999D03*
%TD*%
%TO.C,J1*%
X235539999Y-197439999D03*
X235039999Y-197439999D03*
X234539999Y-197439999D03*
X234039999Y-197439999D03*
X233539999Y-197439999D03*
X233039999Y-197439999D03*
X232539999Y-197439999D03*
X232039999Y-197439999D03*
X231539999Y-197439999D03*
X231039999Y-197439999D03*
X230539999Y-197439999D03*
X230039999Y-197439999D03*
X229539999Y-197439999D03*
X229039999Y-197439999D03*
X228539999Y-197439999D03*
X228039999Y-197439999D03*
X227539999Y-197439999D03*
X227039999Y-197439999D03*
X226539999Y-197439999D03*
X226039999Y-197439999D03*
%TD*%
%TO.C,J1*%
X75539999Y-197439999D03*
X75039999Y-197439999D03*
X74539999Y-197439999D03*
X74039999Y-197439999D03*
X73539999Y-197439999D03*
X73039999Y-197439999D03*
X72539999Y-197439999D03*
X72039999Y-197439999D03*
X71539999Y-197439999D03*
X71039999Y-197439999D03*
X70539999Y-197439999D03*
X70039999Y-197439999D03*
X69539999Y-197439999D03*
X69039999Y-197439999D03*
X68539999Y-197439999D03*
X68039999Y-197439999D03*
X67539999Y-197439999D03*
X67039999Y-197439999D03*
X66539999Y-197439999D03*
X66039999Y-197439999D03*
%TD*%
%TO.C,J1*%
X235539999Y-135439999D03*
X235039999Y-135439999D03*
X234539999Y-135439999D03*
X234039999Y-135439999D03*
X233539999Y-135439999D03*
X233039999Y-135439999D03*
X232539999Y-135439999D03*
X232039999Y-135439999D03*
X231539999Y-135439999D03*
X231039999Y-135439999D03*
X230539999Y-135439999D03*
X230039999Y-135439999D03*
X229539999Y-135439999D03*
X229039999Y-135439999D03*
X228539999Y-135439999D03*
X228039999Y-135439999D03*
X227539999Y-135439999D03*
X227039999Y-135439999D03*
X226539999Y-135439999D03*
X226039999Y-135439999D03*
%TD*%
%TO.C,J1*%
X75539999Y-135439999D03*
X75039999Y-135439999D03*
X74539999Y-135439999D03*
X74039999Y-135439999D03*
X73539999Y-135439999D03*
X73039999Y-135439999D03*
X72539999Y-135439999D03*
X72039999Y-135439999D03*
X71539999Y-135439999D03*
X71039999Y-135439999D03*
X70539999Y-135439999D03*
X70039999Y-135439999D03*
X69539999Y-135439999D03*
X69039999Y-135439999D03*
X68539999Y-135439999D03*
X68039999Y-135439999D03*
X67539999Y-135439999D03*
X67039999Y-135439999D03*
X66539999Y-135439999D03*
X66039999Y-135439999D03*
%TD*%
%TO.C,J1*%
X75539999Y-104439999D03*
X75039999Y-104439999D03*
X74539999Y-104439999D03*
X74039999Y-104439999D03*
X73539999Y-104439999D03*
X73039999Y-104439999D03*
X72539999Y-104439999D03*
X72039999Y-104439999D03*
X71539999Y-104439999D03*
X71039999Y-104439999D03*
X70539999Y-104439999D03*
X70039999Y-104439999D03*
X69539999Y-104439999D03*
X69039999Y-104439999D03*
X68539999Y-104439999D03*
X68039999Y-104439999D03*
X67539999Y-104439999D03*
X67039999Y-104439999D03*
X66539999Y-104439999D03*
X66039999Y-104439999D03*
%TD*%
%TO.C,J1*%
X235539999Y-166439999D03*
X235039999Y-166439999D03*
X234539999Y-166439999D03*
X234039999Y-166439999D03*
X233539999Y-166439999D03*
X233039999Y-166439999D03*
X232539999Y-166439999D03*
X232039999Y-166439999D03*
X231539999Y-166439999D03*
X231039999Y-166439999D03*
X230539999Y-166439999D03*
X230039999Y-166439999D03*
X229539999Y-166439999D03*
X229039999Y-166439999D03*
X228539999Y-166439999D03*
X228039999Y-166439999D03*
X227539999Y-166439999D03*
X227039999Y-166439999D03*
X226539999Y-166439999D03*
X226039999Y-166439999D03*
%TD*%
%TO.C,J1*%
X235539999Y-104439999D03*
X235039999Y-104439999D03*
X234539999Y-104439999D03*
X234039999Y-104439999D03*
X233539999Y-104439999D03*
X233039999Y-104439999D03*
X232539999Y-104439999D03*
X232039999Y-104439999D03*
X231539999Y-104439999D03*
X231039999Y-104439999D03*
X230539999Y-104439999D03*
X230039999Y-104439999D03*
X229539999Y-104439999D03*
X229039999Y-104439999D03*
X228539999Y-104439999D03*
X228039999Y-104439999D03*
X227539999Y-104439999D03*
X227039999Y-104439999D03*
X226539999Y-104439999D03*
X226039999Y-104439999D03*
%TD*%
%TO.C,J3*%
X123335999Y-197439999D03*
X122835999Y-197439999D03*
X122335999Y-197439999D03*
X121835999Y-197439999D03*
X121335999Y-197439999D03*
X120835999Y-197439999D03*
X120335999Y-197439999D03*
X119835999Y-197439999D03*
X119335999Y-197439999D03*
X118835999Y-197439999D03*
X118335999Y-197439999D03*
X117835999Y-197439999D03*
X117335999Y-197439999D03*
X116835999Y-197439999D03*
X116335999Y-197439999D03*
X115835999Y-197439999D03*
X115335999Y-197439999D03*
X114835999Y-197439999D03*
X114335999Y-197439999D03*
X113835999Y-197439999D03*
%TD*%
%TO.C,J3*%
X123335999Y-135439999D03*
X122835999Y-135439999D03*
X122335999Y-135439999D03*
X121835999Y-135439999D03*
X121335999Y-135439999D03*
X120835999Y-135439999D03*
X120335999Y-135439999D03*
X119835999Y-135439999D03*
X119335999Y-135439999D03*
X118835999Y-135439999D03*
X118335999Y-135439999D03*
X117835999Y-135439999D03*
X117335999Y-135439999D03*
X116835999Y-135439999D03*
X116335999Y-135439999D03*
X115835999Y-135439999D03*
X115335999Y-135439999D03*
X114835999Y-135439999D03*
X114335999Y-135439999D03*
X113835999Y-135439999D03*
%TD*%
%TO.C,J3*%
X283335999Y-104439999D03*
X282835999Y-104439999D03*
X282335999Y-104439999D03*
X281835999Y-104439999D03*
X281335999Y-104439999D03*
X280835999Y-104439999D03*
X280335999Y-104439999D03*
X279835999Y-104439999D03*
X279335999Y-104439999D03*
X278835999Y-104439999D03*
X278335999Y-104439999D03*
X277835999Y-104439999D03*
X277335999Y-104439999D03*
X276835999Y-104439999D03*
X276335999Y-104439999D03*
X275835999Y-104439999D03*
X275335999Y-104439999D03*
X274835999Y-104439999D03*
X274335999Y-104439999D03*
X273835999Y-104439999D03*
%TD*%
%TO.C,J3*%
X283335999Y-135439999D03*
X282835999Y-135439999D03*
X282335999Y-135439999D03*
X281835999Y-135439999D03*
X281335999Y-135439999D03*
X280835999Y-135439999D03*
X280335999Y-135439999D03*
X279835999Y-135439999D03*
X279335999Y-135439999D03*
X278835999Y-135439999D03*
X278335999Y-135439999D03*
X277835999Y-135439999D03*
X277335999Y-135439999D03*
X276835999Y-135439999D03*
X276335999Y-135439999D03*
X275835999Y-135439999D03*
X275335999Y-135439999D03*
X274835999Y-135439999D03*
X274335999Y-135439999D03*
X273835999Y-135439999D03*
%TD*%
%TO.C,J3*%
X283335999Y-166439999D03*
X282835999Y-166439999D03*
X282335999Y-166439999D03*
X281835999Y-166439999D03*
X281335999Y-166439999D03*
X280835999Y-166439999D03*
X280335999Y-166439999D03*
X279835999Y-166439999D03*
X279335999Y-166439999D03*
X278835999Y-166439999D03*
X278335999Y-166439999D03*
X277835999Y-166439999D03*
X277335999Y-166439999D03*
X276835999Y-166439999D03*
X276335999Y-166439999D03*
X275835999Y-166439999D03*
X275335999Y-166439999D03*
X274835999Y-166439999D03*
X274335999Y-166439999D03*
X273835999Y-166439999D03*
%TD*%
%TO.C,J3*%
X283335999Y-197439999D03*
X282835999Y-197439999D03*
X282335999Y-197439999D03*
X281835999Y-197439999D03*
X281335999Y-197439999D03*
X280835999Y-197439999D03*
X280335999Y-197439999D03*
X279835999Y-197439999D03*
X279335999Y-197439999D03*
X278835999Y-197439999D03*
X278335999Y-197439999D03*
X277835999Y-197439999D03*
X277335999Y-197439999D03*
X276835999Y-197439999D03*
X276335999Y-197439999D03*
X275835999Y-197439999D03*
X275335999Y-197439999D03*
X274835999Y-197439999D03*
X274335999Y-197439999D03*
X273835999Y-197439999D03*
%TD*%
%TO.C,J3*%
X123335999Y-166439999D03*
X122835999Y-166439999D03*
X122335999Y-166439999D03*
X121835999Y-166439999D03*
X121335999Y-166439999D03*
X120835999Y-166439999D03*
X120335999Y-166439999D03*
X119835999Y-166439999D03*
X119335999Y-166439999D03*
X118835999Y-166439999D03*
X118335999Y-166439999D03*
X117835999Y-166439999D03*
X117335999Y-166439999D03*
X116835999Y-166439999D03*
X116335999Y-166439999D03*
X115835999Y-166439999D03*
X115335999Y-166439999D03*
X114835999Y-166439999D03*
X114335999Y-166439999D03*
X113835999Y-166439999D03*
%TD*%
%TO.C,J3*%
X123335999Y-104439999D03*
X122835999Y-104439999D03*
X122335999Y-104439999D03*
X121835999Y-104439999D03*
X121335999Y-104439999D03*
X120835999Y-104439999D03*
X120335999Y-104439999D03*
X119835999Y-104439999D03*
X119335999Y-104439999D03*
X118835999Y-104439999D03*
X118335999Y-104439999D03*
X117835999Y-104439999D03*
X117335999Y-104439999D03*
X116835999Y-104439999D03*
X116335999Y-104439999D03*
X115835999Y-104439999D03*
X115335999Y-104439999D03*
X114835999Y-104439999D03*
X114335999Y-104439999D03*
X113835999Y-104439999D03*
%TD*%
%TO.C,J5*%
X331131999Y-166439999D03*
X330631999Y-166439999D03*
X330131999Y-166439999D03*
X329631999Y-166439999D03*
X329131999Y-166439999D03*
X328631999Y-166439999D03*
X328131999Y-166439999D03*
X327631999Y-166439999D03*
X327131999Y-166439999D03*
X326631999Y-166439999D03*
X326131999Y-166439999D03*
X325631999Y-166439999D03*
X325131999Y-166439999D03*
X324631999Y-166439999D03*
X324131999Y-166439999D03*
X323631999Y-166439999D03*
X323131999Y-166439999D03*
X322631999Y-166439999D03*
X322131999Y-166439999D03*
X321631999Y-166439999D03*
%TD*%
%TO.C,J5*%
X171131999Y-166439999D03*
X170631999Y-166439999D03*
X170131999Y-166439999D03*
X169631999Y-166439999D03*
X169131999Y-166439999D03*
X168631999Y-166439999D03*
X168131999Y-166439999D03*
X167631999Y-166439999D03*
X167131999Y-166439999D03*
X166631999Y-166439999D03*
X166131999Y-166439999D03*
X165631999Y-166439999D03*
X165131999Y-166439999D03*
X164631999Y-166439999D03*
X164131999Y-166439999D03*
X163631999Y-166439999D03*
X163131999Y-166439999D03*
X162631999Y-166439999D03*
X162131999Y-166439999D03*
X161631999Y-166439999D03*
%TD*%
%TO.C,J5*%
X331131999Y-104439999D03*
X330631999Y-104439999D03*
X330131999Y-104439999D03*
X329631999Y-104439999D03*
X329131999Y-104439999D03*
X328631999Y-104439999D03*
X328131999Y-104439999D03*
X327631999Y-104439999D03*
X327131999Y-104439999D03*
X326631999Y-104439999D03*
X326131999Y-104439999D03*
X325631999Y-104439999D03*
X325131999Y-104439999D03*
X324631999Y-104439999D03*
X324131999Y-104439999D03*
X323631999Y-104439999D03*
X323131999Y-104439999D03*
X322631999Y-104439999D03*
X322131999Y-104439999D03*
X321631999Y-104439999D03*
%TD*%
%TO.C,J5*%
X171131999Y-135439999D03*
X170631999Y-135439999D03*
X170131999Y-135439999D03*
X169631999Y-135439999D03*
X169131999Y-135439999D03*
X168631999Y-135439999D03*
X168131999Y-135439999D03*
X167631999Y-135439999D03*
X167131999Y-135439999D03*
X166631999Y-135439999D03*
X166131999Y-135439999D03*
X165631999Y-135439999D03*
X165131999Y-135439999D03*
X164631999Y-135439999D03*
X164131999Y-135439999D03*
X163631999Y-135439999D03*
X163131999Y-135439999D03*
X162631999Y-135439999D03*
X162131999Y-135439999D03*
X161631999Y-135439999D03*
%TD*%
%TO.C,J5*%
X331131999Y-135439999D03*
X330631999Y-135439999D03*
X330131999Y-135439999D03*
X329631999Y-135439999D03*
X329131999Y-135439999D03*
X328631999Y-135439999D03*
X328131999Y-135439999D03*
X327631999Y-135439999D03*
X327131999Y-135439999D03*
X326631999Y-135439999D03*
X326131999Y-135439999D03*
X325631999Y-135439999D03*
X325131999Y-135439999D03*
X324631999Y-135439999D03*
X324131999Y-135439999D03*
X323631999Y-135439999D03*
X323131999Y-135439999D03*
X322631999Y-135439999D03*
X322131999Y-135439999D03*
X321631999Y-135439999D03*
%TD*%
%TO.C,J5*%
X171131999Y-104439999D03*
X170631999Y-104439999D03*
X170131999Y-104439999D03*
X169631999Y-104439999D03*
X169131999Y-104439999D03*
X168631999Y-104439999D03*
X168131999Y-104439999D03*
X167631999Y-104439999D03*
X167131999Y-104439999D03*
X166631999Y-104439999D03*
X166131999Y-104439999D03*
X165631999Y-104439999D03*
X165131999Y-104439999D03*
X164631999Y-104439999D03*
X164131999Y-104439999D03*
X163631999Y-104439999D03*
X163131999Y-104439999D03*
X162631999Y-104439999D03*
X162131999Y-104439999D03*
X161631999Y-104439999D03*
%TD*%
%TO.C,J5*%
X171131999Y-197439999D03*
X170631999Y-197439999D03*
X170131999Y-197439999D03*
X169631999Y-197439999D03*
X169131999Y-197439999D03*
X168631999Y-197439999D03*
X168131999Y-197439999D03*
X167631999Y-197439999D03*
X167131999Y-197439999D03*
X166631999Y-197439999D03*
X166131999Y-197439999D03*
X165631999Y-197439999D03*
X165131999Y-197439999D03*
X164631999Y-197439999D03*
X164131999Y-197439999D03*
X163631999Y-197439999D03*
X163131999Y-197439999D03*
X162631999Y-197439999D03*
X162131999Y-197439999D03*
X161631999Y-197439999D03*
%TD*%
%TO.C,J5*%
X331131999Y-197439999D03*
X330631999Y-197439999D03*
X330131999Y-197439999D03*
X329631999Y-197439999D03*
X329131999Y-197439999D03*
X328631999Y-197439999D03*
X328131999Y-197439999D03*
X327631999Y-197439999D03*
X327131999Y-197439999D03*
X326631999Y-197439999D03*
X326131999Y-197439999D03*
X325631999Y-197439999D03*
X325131999Y-197439999D03*
X324631999Y-197439999D03*
X324131999Y-197439999D03*
X323631999Y-197439999D03*
X323131999Y-197439999D03*
X322631999Y-197439999D03*
X322131999Y-197439999D03*
X321631999Y-197439999D03*
%TD*%
D11*
%TO.C,C5*%
X166380000Y-102360000D03*
X166380000Y-100460000D03*
%TD*%
%TO.C,C5*%
X166380000Y-133360000D03*
X166380000Y-131460000D03*
%TD*%
%TO.C,C5*%
X326380000Y-102360000D03*
X326380000Y-100460000D03*
%TD*%
%TO.C,C5*%
X166380000Y-195360000D03*
X166380000Y-193460000D03*
%TD*%
%TO.C,C5*%
X166380000Y-164360000D03*
X166380000Y-162460000D03*
%TD*%
%TO.C,C5*%
X326380000Y-195360000D03*
X326380000Y-193460000D03*
%TD*%
%TO.C,C5*%
X326380000Y-133360000D03*
X326380000Y-131460000D03*
%TD*%
%TO.C,C5*%
X326380000Y-164360000D03*
X326380000Y-162460000D03*
%TD*%
D12*
%TO.C,J6*%
X355029999Y-197439999D03*
X354529999Y-197439999D03*
X354029999Y-197439999D03*
X353529999Y-197439999D03*
X353029999Y-197439999D03*
X352529999Y-197439999D03*
X352029999Y-197439999D03*
X351529999Y-197439999D03*
X351029999Y-197439999D03*
X350529999Y-197439999D03*
X350029999Y-197439999D03*
X349529999Y-197439999D03*
X349029999Y-197439999D03*
X348529999Y-197439999D03*
X348029999Y-197439999D03*
X347529999Y-197439999D03*
X347029999Y-197439999D03*
X346529999Y-197439999D03*
X346029999Y-197439999D03*
X345529999Y-197439999D03*
%TD*%
%TO.C,J6*%
X195029999Y-197439999D03*
X194529999Y-197439999D03*
X194029999Y-197439999D03*
X193529999Y-197439999D03*
X193029999Y-197439999D03*
X192529999Y-197439999D03*
X192029999Y-197439999D03*
X191529999Y-197439999D03*
X191029999Y-197439999D03*
X190529999Y-197439999D03*
X190029999Y-197439999D03*
X189529999Y-197439999D03*
X189029999Y-197439999D03*
X188529999Y-197439999D03*
X188029999Y-197439999D03*
X187529999Y-197439999D03*
X187029999Y-197439999D03*
X186529999Y-197439999D03*
X186029999Y-197439999D03*
X185529999Y-197439999D03*
%TD*%
%TO.C,J6*%
X195029999Y-166439999D03*
X194529999Y-166439999D03*
X194029999Y-166439999D03*
X193529999Y-166439999D03*
X193029999Y-166439999D03*
X192529999Y-166439999D03*
X192029999Y-166439999D03*
X191529999Y-166439999D03*
X191029999Y-166439999D03*
X190529999Y-166439999D03*
X190029999Y-166439999D03*
X189529999Y-166439999D03*
X189029999Y-166439999D03*
X188529999Y-166439999D03*
X188029999Y-166439999D03*
X187529999Y-166439999D03*
X187029999Y-166439999D03*
X186529999Y-166439999D03*
X186029999Y-166439999D03*
X185529999Y-166439999D03*
%TD*%
%TO.C,J6*%
X355029999Y-104439999D03*
X354529999Y-104439999D03*
X354029999Y-104439999D03*
X353529999Y-104439999D03*
X353029999Y-104439999D03*
X352529999Y-104439999D03*
X352029999Y-104439999D03*
X351529999Y-104439999D03*
X351029999Y-104439999D03*
X350529999Y-104439999D03*
X350029999Y-104439999D03*
X349529999Y-104439999D03*
X349029999Y-104439999D03*
X348529999Y-104439999D03*
X348029999Y-104439999D03*
X347529999Y-104439999D03*
X347029999Y-104439999D03*
X346529999Y-104439999D03*
X346029999Y-104439999D03*
X345529999Y-104439999D03*
%TD*%
%TO.C,J6*%
X195029999Y-135439999D03*
X194529999Y-135439999D03*
X194029999Y-135439999D03*
X193529999Y-135439999D03*
X193029999Y-135439999D03*
X192529999Y-135439999D03*
X192029999Y-135439999D03*
X191529999Y-135439999D03*
X191029999Y-135439999D03*
X190529999Y-135439999D03*
X190029999Y-135439999D03*
X189529999Y-135439999D03*
X189029999Y-135439999D03*
X188529999Y-135439999D03*
X188029999Y-135439999D03*
X187529999Y-135439999D03*
X187029999Y-135439999D03*
X186529999Y-135439999D03*
X186029999Y-135439999D03*
X185529999Y-135439999D03*
%TD*%
%TO.C,J6*%
X355029999Y-166439999D03*
X354529999Y-166439999D03*
X354029999Y-166439999D03*
X353529999Y-166439999D03*
X353029999Y-166439999D03*
X352529999Y-166439999D03*
X352029999Y-166439999D03*
X351529999Y-166439999D03*
X351029999Y-166439999D03*
X350529999Y-166439999D03*
X350029999Y-166439999D03*
X349529999Y-166439999D03*
X349029999Y-166439999D03*
X348529999Y-166439999D03*
X348029999Y-166439999D03*
X347529999Y-166439999D03*
X347029999Y-166439999D03*
X346529999Y-166439999D03*
X346029999Y-166439999D03*
X345529999Y-166439999D03*
%TD*%
%TO.C,J6*%
X195029999Y-104439999D03*
X194529999Y-104439999D03*
X194029999Y-104439999D03*
X193529999Y-104439999D03*
X193029999Y-104439999D03*
X192529999Y-104439999D03*
X192029999Y-104439999D03*
X191529999Y-104439999D03*
X191029999Y-104439999D03*
X190529999Y-104439999D03*
X190029999Y-104439999D03*
X189529999Y-104439999D03*
X189029999Y-104439999D03*
X188529999Y-104439999D03*
X188029999Y-104439999D03*
X187529999Y-104439999D03*
X187029999Y-104439999D03*
X186529999Y-104439999D03*
X186029999Y-104439999D03*
X185529999Y-104439999D03*
%TD*%
%TO.C,J6*%
X355029999Y-135439999D03*
X354529999Y-135439999D03*
X354029999Y-135439999D03*
X353529999Y-135439999D03*
X353029999Y-135439999D03*
X352529999Y-135439999D03*
X352029999Y-135439999D03*
X351529999Y-135439999D03*
X351029999Y-135439999D03*
X350529999Y-135439999D03*
X350029999Y-135439999D03*
X349529999Y-135439999D03*
X349029999Y-135439999D03*
X348529999Y-135439999D03*
X348029999Y-135439999D03*
X347529999Y-135439999D03*
X347029999Y-135439999D03*
X346529999Y-135439999D03*
X346029999Y-135439999D03*
X345529999Y-135439999D03*
%TD*%
D11*
%TO.C,C3*%
X118590000Y-195360000D03*
X118590000Y-193460000D03*
%TD*%
%TO.C,C3*%
X118590000Y-164360000D03*
X118590000Y-162460000D03*
%TD*%
%TO.C,C3*%
X278590000Y-133360000D03*
X278590000Y-131460000D03*
%TD*%
%TO.C,C3*%
X118590000Y-133360000D03*
X118590000Y-131460000D03*
%TD*%
%TO.C,C3*%
X278590000Y-102360000D03*
X278590000Y-100460000D03*
%TD*%
%TO.C,C3*%
X118590000Y-102360000D03*
X118590000Y-100460000D03*
%TD*%
%TO.C,C3*%
X278590000Y-195360000D03*
X278590000Y-193460000D03*
%TD*%
%TO.C,C3*%
X278590000Y-164360000D03*
X278590000Y-162460000D03*
%TD*%
D13*
%TO.C,REF\u002A\u002A*%
X47500000Y-209500000D03*
%TD*%
%TO.C,REF\u002A\u002A*%
X372500000Y-90500000D03*
%TD*%
D14*
%TO.C,J7*%
X265499999Y-121199999D03*
X314499999Y-121199999D03*
%TD*%
%TO.C,J7*%
X105499999Y-152199999D03*
X154499999Y-152199999D03*
%TD*%
%TO.C,J7*%
X105499999Y-183199999D03*
X154499999Y-183199999D03*
%TD*%
%TO.C,J7*%
X265499999Y-183199999D03*
X314499999Y-183199999D03*
%TD*%
%TO.C,J7*%
X105499999Y-90199999D03*
X154499999Y-90199999D03*
%TD*%
%TO.C,J7*%
X105499999Y-121199999D03*
X154499999Y-121199999D03*
%TD*%
%TO.C,J7*%
X265499999Y-152199999D03*
X314499999Y-152199999D03*
%TD*%
%TO.C,J7*%
X265499999Y-90199999D03*
X314499999Y-90199999D03*
%TD*%
D11*
%TO.C,C6*%
X190280000Y-133360000D03*
X190280000Y-131460000D03*
%TD*%
%TO.C,C6*%
X350280000Y-102360000D03*
X350280000Y-100460000D03*
%TD*%
%TO.C,C6*%
X350280000Y-195360000D03*
X350280000Y-193460000D03*
%TD*%
%TO.C,C6*%
X350280000Y-133360000D03*
X350280000Y-131460000D03*
%TD*%
%TO.C,C6*%
X190280000Y-195360000D03*
X190280000Y-193460000D03*
%TD*%
%TO.C,C6*%
X190280000Y-164360000D03*
X190280000Y-162460000D03*
%TD*%
%TO.C,C6*%
X190280000Y-102360000D03*
X190280000Y-100460000D03*
%TD*%
%TO.C,C6*%
X350280000Y-164360000D03*
X350280000Y-162460000D03*
%TD*%
D13*
%TO.C,REF\u002A\u002A*%
X47500000Y-90500000D03*
%TD*%
D11*
%TO.C,C1*%
X70770000Y-164360000D03*
X70770000Y-162460000D03*
%TD*%
%TO.C,C1*%
X230770000Y-195360000D03*
X230770000Y-193460000D03*
%TD*%
%TO.C,C1*%
X70770000Y-195360000D03*
X70770000Y-193460000D03*
%TD*%
%TO.C,C1*%
X230770000Y-133360000D03*
X230770000Y-131460000D03*
%TD*%
%TO.C,C1*%
X70770000Y-133360000D03*
X70770000Y-131460000D03*
%TD*%
%TO.C,C1*%
X230770000Y-164360000D03*
X230770000Y-162460000D03*
%TD*%
%TO.C,C1*%
X70770000Y-102360000D03*
X70770000Y-100460000D03*
%TD*%
%TO.C,C1*%
X230770000Y-102360000D03*
X230770000Y-100460000D03*
%TD*%
D12*
%TO.C,J2*%
X99435999Y-166438999D03*
X98935999Y-166438999D03*
X98435999Y-166438999D03*
X97935999Y-166438999D03*
X97435999Y-166438999D03*
X96935999Y-166438999D03*
X96435999Y-166438999D03*
X95935999Y-166438999D03*
X95435999Y-166438999D03*
X94935999Y-166438999D03*
X94435999Y-166438999D03*
X93935999Y-166438999D03*
X93435999Y-166438999D03*
X92935999Y-166438999D03*
X92435999Y-166438999D03*
X91935999Y-166438999D03*
X91435999Y-166438999D03*
X90935999Y-166438999D03*
X90435999Y-166438999D03*
X89935999Y-166438999D03*
%TD*%
%TO.C,J2*%
X99435999Y-197438999D03*
X98935999Y-197438999D03*
X98435999Y-197438999D03*
X97935999Y-197438999D03*
X97435999Y-197438999D03*
X96935999Y-197438999D03*
X96435999Y-197438999D03*
X95935999Y-197438999D03*
X95435999Y-197438999D03*
X94935999Y-197438999D03*
X94435999Y-197438999D03*
X93935999Y-197438999D03*
X93435999Y-197438999D03*
X92935999Y-197438999D03*
X92435999Y-197438999D03*
X91935999Y-197438999D03*
X91435999Y-197438999D03*
X90935999Y-197438999D03*
X90435999Y-197438999D03*
X89935999Y-197438999D03*
%TD*%
%TO.C,J2*%
X259435999Y-166438999D03*
X258935999Y-166438999D03*
X258435999Y-166438999D03*
X257935999Y-166438999D03*
X257435999Y-166438999D03*
X256935999Y-166438999D03*
X256435999Y-166438999D03*
X255935999Y-166438999D03*
X255435999Y-166438999D03*
X254935999Y-166438999D03*
X254435999Y-166438999D03*
X253935999Y-166438999D03*
X253435999Y-166438999D03*
X252935999Y-166438999D03*
X252435999Y-166438999D03*
X251935999Y-166438999D03*
X251435999Y-166438999D03*
X250935999Y-166438999D03*
X250435999Y-166438999D03*
X249935999Y-166438999D03*
%TD*%
%TO.C,J2*%
X259435999Y-197438999D03*
X258935999Y-197438999D03*
X258435999Y-197438999D03*
X257935999Y-197438999D03*
X257435999Y-197438999D03*
X256935999Y-197438999D03*
X256435999Y-197438999D03*
X255935999Y-197438999D03*
X255435999Y-197438999D03*
X254935999Y-197438999D03*
X254435999Y-197438999D03*
X253935999Y-197438999D03*
X253435999Y-197438999D03*
X252935999Y-197438999D03*
X252435999Y-197438999D03*
X251935999Y-197438999D03*
X251435999Y-197438999D03*
X250935999Y-197438999D03*
X250435999Y-197438999D03*
X249935999Y-197438999D03*
%TD*%
%TO.C,J2*%
X259435999Y-135438999D03*
X258935999Y-135438999D03*
X258435999Y-135438999D03*
X257935999Y-135438999D03*
X257435999Y-135438999D03*
X256935999Y-135438999D03*
X256435999Y-135438999D03*
X255935999Y-135438999D03*
X255435999Y-135438999D03*
X254935999Y-135438999D03*
X254435999Y-135438999D03*
X253935999Y-135438999D03*
X253435999Y-135438999D03*
X252935999Y-135438999D03*
X252435999Y-135438999D03*
X251935999Y-135438999D03*
X251435999Y-135438999D03*
X250935999Y-135438999D03*
X250435999Y-135438999D03*
X249935999Y-135438999D03*
%TD*%
%TO.C,J2*%
X99435999Y-135438999D03*
X98935999Y-135438999D03*
X98435999Y-135438999D03*
X97935999Y-135438999D03*
X97435999Y-135438999D03*
X96935999Y-135438999D03*
X96435999Y-135438999D03*
X95935999Y-135438999D03*
X95435999Y-135438999D03*
X94935999Y-135438999D03*
X94435999Y-135438999D03*
X93935999Y-135438999D03*
X93435999Y-135438999D03*
X92935999Y-135438999D03*
X92435999Y-135438999D03*
X91935999Y-135438999D03*
X91435999Y-135438999D03*
X90935999Y-135438999D03*
X90435999Y-135438999D03*
X89935999Y-135438999D03*
%TD*%
%TO.C,J2*%
X99435999Y-104438999D03*
X98935999Y-104438999D03*
X98435999Y-104438999D03*
X97935999Y-104438999D03*
X97435999Y-104438999D03*
X96935999Y-104438999D03*
X96435999Y-104438999D03*
X95935999Y-104438999D03*
X95435999Y-104438999D03*
X94935999Y-104438999D03*
X94435999Y-104438999D03*
X93935999Y-104438999D03*
X93435999Y-104438999D03*
X92935999Y-104438999D03*
X92435999Y-104438999D03*
X91935999Y-104438999D03*
X91435999Y-104438999D03*
X90935999Y-104438999D03*
X90435999Y-104438999D03*
X89935999Y-104438999D03*
%TD*%
%TO.C,J2*%
X259435999Y-104438999D03*
X258935999Y-104438999D03*
X258435999Y-104438999D03*
X257935999Y-104438999D03*
X257435999Y-104438999D03*
X256935999Y-104438999D03*
X256435999Y-104438999D03*
X255935999Y-104438999D03*
X255435999Y-104438999D03*
X254935999Y-104438999D03*
X254435999Y-104438999D03*
X253935999Y-104438999D03*
X253435999Y-104438999D03*
X252935999Y-104438999D03*
X252435999Y-104438999D03*
X251935999Y-104438999D03*
X251435999Y-104438999D03*
X250935999Y-104438999D03*
X250435999Y-104438999D03*
X249935999Y-104438999D03*
%TD*%
%TO.C,J4*%
X147233999Y-166439999D03*
X146733999Y-166439999D03*
X146233999Y-166439999D03*
X145733999Y-166439999D03*
X145233999Y-166439999D03*
X144733999Y-166439999D03*
X144233999Y-166439999D03*
X143733999Y-166439999D03*
X143233999Y-166439999D03*
X142733999Y-166439999D03*
X142233999Y-166439999D03*
X141733999Y-166439999D03*
X141233999Y-166439999D03*
X140733999Y-166439999D03*
X140233999Y-166439999D03*
X139733999Y-166439999D03*
X139233999Y-166439999D03*
X138733999Y-166439999D03*
X138233999Y-166439999D03*
X137733999Y-166439999D03*
%TD*%
%TO.C,J4*%
X307233999Y-197439999D03*
X306733999Y-197439999D03*
X306233999Y-197439999D03*
X305733999Y-197439999D03*
X305233999Y-197439999D03*
X304733999Y-197439999D03*
X304233999Y-197439999D03*
X303733999Y-197439999D03*
X303233999Y-197439999D03*
X302733999Y-197439999D03*
X302233999Y-197439999D03*
X301733999Y-197439999D03*
X301233999Y-197439999D03*
X300733999Y-197439999D03*
X300233999Y-197439999D03*
X299733999Y-197439999D03*
X299233999Y-197439999D03*
X298733999Y-197439999D03*
X298233999Y-197439999D03*
X297733999Y-197439999D03*
%TD*%
%TO.C,J4*%
X307233999Y-104439999D03*
X306733999Y-104439999D03*
X306233999Y-104439999D03*
X305733999Y-104439999D03*
X305233999Y-104439999D03*
X304733999Y-104439999D03*
X304233999Y-104439999D03*
X303733999Y-104439999D03*
X303233999Y-104439999D03*
X302733999Y-104439999D03*
X302233999Y-104439999D03*
X301733999Y-104439999D03*
X301233999Y-104439999D03*
X300733999Y-104439999D03*
X300233999Y-104439999D03*
X299733999Y-104439999D03*
X299233999Y-104439999D03*
X298733999Y-104439999D03*
X298233999Y-104439999D03*
X297733999Y-104439999D03*
%TD*%
%TO.C,J4*%
X147233999Y-197439999D03*
X146733999Y-197439999D03*
X146233999Y-197439999D03*
X145733999Y-197439999D03*
X145233999Y-197439999D03*
X144733999Y-197439999D03*
X144233999Y-197439999D03*
X143733999Y-197439999D03*
X143233999Y-197439999D03*
X142733999Y-197439999D03*
X142233999Y-197439999D03*
X141733999Y-197439999D03*
X141233999Y-197439999D03*
X140733999Y-197439999D03*
X140233999Y-197439999D03*
X139733999Y-197439999D03*
X139233999Y-197439999D03*
X138733999Y-197439999D03*
X138233999Y-197439999D03*
X137733999Y-197439999D03*
%TD*%
%TO.C,J4*%
X307233999Y-166439999D03*
X306733999Y-166439999D03*
X306233999Y-166439999D03*
X305733999Y-166439999D03*
X305233999Y-166439999D03*
X304733999Y-166439999D03*
X304233999Y-166439999D03*
X303733999Y-166439999D03*
X303233999Y-166439999D03*
X302733999Y-166439999D03*
X302233999Y-166439999D03*
X301733999Y-166439999D03*
X301233999Y-166439999D03*
X300733999Y-166439999D03*
X300233999Y-166439999D03*
X299733999Y-166439999D03*
X299233999Y-166439999D03*
X298733999Y-166439999D03*
X298233999Y-166439999D03*
X297733999Y-166439999D03*
%TD*%
%TO.C,J4*%
X147233999Y-104439999D03*
X146733999Y-104439999D03*
X146233999Y-104439999D03*
X145733999Y-104439999D03*
X145233999Y-104439999D03*
X144733999Y-104439999D03*
X144233999Y-104439999D03*
X143733999Y-104439999D03*
X143233999Y-104439999D03*
X142733999Y-104439999D03*
X142233999Y-104439999D03*
X141733999Y-104439999D03*
X141233999Y-104439999D03*
X140733999Y-104439999D03*
X140233999Y-104439999D03*
X139733999Y-104439999D03*
X139233999Y-104439999D03*
X138733999Y-104439999D03*
X138233999Y-104439999D03*
X137733999Y-104439999D03*
%TD*%
%TO.C,J4*%
X307233999Y-135439999D03*
X306733999Y-135439999D03*
X306233999Y-135439999D03*
X305733999Y-135439999D03*
X305233999Y-135439999D03*
X304733999Y-135439999D03*
X304233999Y-135439999D03*
X303733999Y-135439999D03*
X303233999Y-135439999D03*
X302733999Y-135439999D03*
X302233999Y-135439999D03*
X301733999Y-135439999D03*
X301233999Y-135439999D03*
X300733999Y-135439999D03*
X300233999Y-135439999D03*
X299733999Y-135439999D03*
X299233999Y-135439999D03*
X298733999Y-135439999D03*
X298233999Y-135439999D03*
X297733999Y-135439999D03*
%TD*%
%TO.C,J4*%
X147233999Y-135439999D03*
X146733999Y-135439999D03*
X146233999Y-135439999D03*
X145733999Y-135439999D03*
X145233999Y-135439999D03*
X144733999Y-135439999D03*
X144233999Y-135439999D03*
X143733999Y-135439999D03*
X143233999Y-135439999D03*
X142733999Y-135439999D03*
X142233999Y-135439999D03*
X141733999Y-135439999D03*
X141233999Y-135439999D03*
X140733999Y-135439999D03*
X140233999Y-135439999D03*
X139733999Y-135439999D03*
X139233999Y-135439999D03*
X138733999Y-135439999D03*
X138233999Y-135439999D03*
X137733999Y-135439999D03*
%TD*%
D11*
%TO.C,C2*%
X254690000Y-102360000D03*
X254690000Y-100460000D03*
%TD*%
%TO.C,C2*%
X254690000Y-195360000D03*
X254690000Y-193460000D03*
%TD*%
%TO.C,C2*%
X94690000Y-164360000D03*
X94690000Y-162460000D03*
%TD*%
%TO.C,C2*%
X254690000Y-133360000D03*
X254690000Y-131460000D03*
%TD*%
%TO.C,C2*%
X94690000Y-195360000D03*
X94690000Y-193460000D03*
%TD*%
%TO.C,C2*%
X254690000Y-164360000D03*
X254690000Y-162460000D03*
%TD*%
%TO.C,C2*%
X94690000Y-102360000D03*
X94690000Y-100460000D03*
%TD*%
%TO.C,C2*%
X94690000Y-133360000D03*
X94690000Y-131460000D03*
%TD*%
D15*
X381190476Y-179734761D02*
X381857142Y-181734761D01*
X381857142Y-181734761D02*
X382523809Y-179734761D01*
X383190476Y-180972857D02*
X384714286Y-180972857D01*
X386809523Y-181544285D02*
X386714285Y-181639523D01*
X386714285Y-181639523D02*
X386428571Y-181734761D01*
X386428571Y-181734761D02*
X386238095Y-181734761D01*
X386238095Y-181734761D02*
X385952380Y-181639523D01*
X385952380Y-181639523D02*
X385761904Y-181449047D01*
X385761904Y-181449047D02*
X385666666Y-181258571D01*
X385666666Y-181258571D02*
X385571428Y-180877619D01*
X385571428Y-180877619D02*
X385571428Y-180591904D01*
X385571428Y-180591904D02*
X385666666Y-180210952D01*
X385666666Y-180210952D02*
X385761904Y-180020476D01*
X385761904Y-180020476D02*
X385952380Y-179830000D01*
X385952380Y-179830000D02*
X386238095Y-179734761D01*
X386238095Y-179734761D02*
X386428571Y-179734761D01*
X386428571Y-179734761D02*
X386714285Y-179830000D01*
X386714285Y-179830000D02*
X386809523Y-179925238D01*
X387666666Y-179734761D02*
X387666666Y-181353809D01*
X387666666Y-181353809D02*
X387761904Y-181544285D01*
X387761904Y-181544285D02*
X387857142Y-181639523D01*
X387857142Y-181639523D02*
X388047618Y-181734761D01*
X388047618Y-181734761D02*
X388428571Y-181734761D01*
X388428571Y-181734761D02*
X388619047Y-181639523D01*
X388619047Y-181639523D02*
X388714285Y-181544285D01*
X388714285Y-181544285D02*
X388809523Y-181353809D01*
X388809523Y-181353809D02*
X388809523Y-179734761D01*
X389476190Y-179734761D02*
X390619047Y-179734761D01*
X390047618Y-181734761D02*
X390047618Y-179734761D01*
X368734761Y-81809523D02*
X370734761Y-81142857D01*
X370734761Y-81142857D02*
X368734761Y-80476190D01*
X369972857Y-79809523D02*
X369972857Y-78285714D01*
X370544285Y-76190476D02*
X370639523Y-76285714D01*
X370639523Y-76285714D02*
X370734761Y-76571428D01*
X370734761Y-76571428D02*
X370734761Y-76761904D01*
X370734761Y-76761904D02*
X370639523Y-77047619D01*
X370639523Y-77047619D02*
X370449047Y-77238095D01*
X370449047Y-77238095D02*
X370258571Y-77333333D01*
X370258571Y-77333333D02*
X369877619Y-77428571D01*
X369877619Y-77428571D02*
X369591904Y-77428571D01*
X369591904Y-77428571D02*
X369210952Y-77333333D01*
X369210952Y-77333333D02*
X369020476Y-77238095D01*
X369020476Y-77238095D02*
X368830000Y-77047619D01*
X368830000Y-77047619D02*
X368734761Y-76761904D01*
X368734761Y-76761904D02*
X368734761Y-76571428D01*
X368734761Y-76571428D02*
X368830000Y-76285714D01*
X368830000Y-76285714D02*
X368925238Y-76190476D01*
X368734761Y-75333333D02*
X370353809Y-75333333D01*
X370353809Y-75333333D02*
X370544285Y-75238095D01*
X370544285Y-75238095D02*
X370639523Y-75142857D01*
X370639523Y-75142857D02*
X370734761Y-74952381D01*
X370734761Y-74952381D02*
X370734761Y-74571428D01*
X370734761Y-74571428D02*
X370639523Y-74380952D01*
X370639523Y-74380952D02*
X370544285Y-74285714D01*
X370544285Y-74285714D02*
X370353809Y-74190476D01*
X370353809Y-74190476D02*
X368734761Y-74190476D01*
X368734761Y-73523809D02*
X368734761Y-72380952D01*
X370734761Y-72952381D02*
X368734761Y-72952381D01*
X48734761Y-81809523D02*
X50734761Y-81142857D01*
X50734761Y-81142857D02*
X48734761Y-80476190D01*
X49972857Y-79809523D02*
X49972857Y-78285714D01*
X50544285Y-76190476D02*
X50639523Y-76285714D01*
X50639523Y-76285714D02*
X50734761Y-76571428D01*
X50734761Y-76571428D02*
X50734761Y-76761904D01*
X50734761Y-76761904D02*
X50639523Y-77047619D01*
X50639523Y-77047619D02*
X50449047Y-77238095D01*
X50449047Y-77238095D02*
X50258571Y-77333333D01*
X50258571Y-77333333D02*
X49877619Y-77428571D01*
X49877619Y-77428571D02*
X49591904Y-77428571D01*
X49591904Y-77428571D02*
X49210952Y-77333333D01*
X49210952Y-77333333D02*
X49020476Y-77238095D01*
X49020476Y-77238095D02*
X48830000Y-77047619D01*
X48830000Y-77047619D02*
X48734761Y-76761904D01*
X48734761Y-76761904D02*
X48734761Y-76571428D01*
X48734761Y-76571428D02*
X48830000Y-76285714D01*
X48830000Y-76285714D02*
X48925238Y-76190476D01*
X48734761Y-75333333D02*
X50353809Y-75333333D01*
X50353809Y-75333333D02*
X50544285Y-75238095D01*
X50544285Y-75238095D02*
X50639523Y-75142857D01*
X50639523Y-75142857D02*
X50734761Y-74952381D01*
X50734761Y-74952381D02*
X50734761Y-74571428D01*
X50734761Y-74571428D02*
X50639523Y-74380952D01*
X50639523Y-74380952D02*
X50544285Y-74285714D01*
X50544285Y-74285714D02*
X50353809Y-74190476D01*
X50353809Y-74190476D02*
X48734761Y-74190476D01*
X48734761Y-73523809D02*
X48734761Y-72380952D01*
X50734761Y-72952381D02*
X48734761Y-72952381D01*
X381190476Y-117734761D02*
X381857142Y-119734761D01*
X381857142Y-119734761D02*
X382523809Y-117734761D01*
X383190476Y-118972857D02*
X384714286Y-118972857D01*
X386809523Y-119544285D02*
X386714285Y-119639523D01*
X386714285Y-119639523D02*
X386428571Y-119734761D01*
X386428571Y-119734761D02*
X386238095Y-119734761D01*
X386238095Y-119734761D02*
X385952380Y-119639523D01*
X385952380Y-119639523D02*
X385761904Y-119449047D01*
X385761904Y-119449047D02*
X385666666Y-119258571D01*
X385666666Y-119258571D02*
X385571428Y-118877619D01*
X385571428Y-118877619D02*
X385571428Y-118591904D01*
X385571428Y-118591904D02*
X385666666Y-118210952D01*
X385666666Y-118210952D02*
X385761904Y-118020476D01*
X385761904Y-118020476D02*
X385952380Y-117830000D01*
X385952380Y-117830000D02*
X386238095Y-117734761D01*
X386238095Y-117734761D02*
X386428571Y-117734761D01*
X386428571Y-117734761D02*
X386714285Y-117830000D01*
X386714285Y-117830000D02*
X386809523Y-117925238D01*
X387666666Y-117734761D02*
X387666666Y-119353809D01*
X387666666Y-119353809D02*
X387761904Y-119544285D01*
X387761904Y-119544285D02*
X387857142Y-119639523D01*
X387857142Y-119639523D02*
X388047618Y-119734761D01*
X388047618Y-119734761D02*
X388428571Y-119734761D01*
X388428571Y-119734761D02*
X388619047Y-119639523D01*
X388619047Y-119639523D02*
X388714285Y-119544285D01*
X388714285Y-119544285D02*
X388809523Y-119353809D01*
X388809523Y-119353809D02*
X388809523Y-117734761D01*
X389476190Y-117734761D02*
X390619047Y-117734761D01*
X390047618Y-119734761D02*
X390047618Y-117734761D01*
X208734761Y-81809523D02*
X210734761Y-81142857D01*
X210734761Y-81142857D02*
X208734761Y-80476190D01*
X209972857Y-79809523D02*
X209972857Y-78285714D01*
X210544285Y-76190476D02*
X210639523Y-76285714D01*
X210639523Y-76285714D02*
X210734761Y-76571428D01*
X210734761Y-76571428D02*
X210734761Y-76761904D01*
X210734761Y-76761904D02*
X210639523Y-77047619D01*
X210639523Y-77047619D02*
X210449047Y-77238095D01*
X210449047Y-77238095D02*
X210258571Y-77333333D01*
X210258571Y-77333333D02*
X209877619Y-77428571D01*
X209877619Y-77428571D02*
X209591904Y-77428571D01*
X209591904Y-77428571D02*
X209210952Y-77333333D01*
X209210952Y-77333333D02*
X209020476Y-77238095D01*
X209020476Y-77238095D02*
X208830000Y-77047619D01*
X208830000Y-77047619D02*
X208734761Y-76761904D01*
X208734761Y-76761904D02*
X208734761Y-76571428D01*
X208734761Y-76571428D02*
X208830000Y-76285714D01*
X208830000Y-76285714D02*
X208925238Y-76190476D01*
X208734761Y-75333333D02*
X210353809Y-75333333D01*
X210353809Y-75333333D02*
X210544285Y-75238095D01*
X210544285Y-75238095D02*
X210639523Y-75142857D01*
X210639523Y-75142857D02*
X210734761Y-74952381D01*
X210734761Y-74952381D02*
X210734761Y-74571428D01*
X210734761Y-74571428D02*
X210639523Y-74380952D01*
X210639523Y-74380952D02*
X210544285Y-74285714D01*
X210544285Y-74285714D02*
X210353809Y-74190476D01*
X210353809Y-74190476D02*
X208734761Y-74190476D01*
X208734761Y-73523809D02*
X208734761Y-72380952D01*
X210734761Y-72952381D02*
X208734761Y-72952381D01*
X381190476Y-148734761D02*
X381857142Y-150734761D01*
X381857142Y-150734761D02*
X382523809Y-148734761D01*
X383190476Y-149972857D02*
X384714286Y-149972857D01*
X386809523Y-150544285D02*
X386714285Y-150639523D01*
X386714285Y-150639523D02*
X386428571Y-150734761D01*
X386428571Y-150734761D02*
X386238095Y-150734761D01*
X386238095Y-150734761D02*
X385952380Y-150639523D01*
X385952380Y-150639523D02*
X385761904Y-150449047D01*
X385761904Y-150449047D02*
X385666666Y-150258571D01*
X385666666Y-150258571D02*
X385571428Y-149877619D01*
X385571428Y-149877619D02*
X385571428Y-149591904D01*
X385571428Y-149591904D02*
X385666666Y-149210952D01*
X385666666Y-149210952D02*
X385761904Y-149020476D01*
X385761904Y-149020476D02*
X385952380Y-148830000D01*
X385952380Y-148830000D02*
X386238095Y-148734761D01*
X386238095Y-148734761D02*
X386428571Y-148734761D01*
X386428571Y-148734761D02*
X386714285Y-148830000D01*
X386714285Y-148830000D02*
X386809523Y-148925238D01*
X387666666Y-148734761D02*
X387666666Y-150353809D01*
X387666666Y-150353809D02*
X387761904Y-150544285D01*
X387761904Y-150544285D02*
X387857142Y-150639523D01*
X387857142Y-150639523D02*
X388047618Y-150734761D01*
X388047618Y-150734761D02*
X388428571Y-150734761D01*
X388428571Y-150734761D02*
X388619047Y-150639523D01*
X388619047Y-150639523D02*
X388714285Y-150544285D01*
X388714285Y-150544285D02*
X388809523Y-150353809D01*
X388809523Y-150353809D02*
X388809523Y-148734761D01*
X389476190Y-148734761D02*
X390619047Y-148734761D01*
X390047618Y-150734761D02*
X390047618Y-148734761D01*
D16*
X210000000Y-212000000D02*
X370000000Y-212000000D01*
X267666558Y-124087278D02*
X267611775Y-124074566D01*
X268168224Y-124074566D02*
X268113441Y-124087278D01*
X108524108Y-185911048D02*
X108477150Y-185941995D01*
X266948004Y-185587150D02*
X266919474Y-185538685D01*
X45000000Y-212000000D02*
X50000000Y-212000000D01*
X107890000Y-124109999D02*
X107833779Y-124108575D01*
X107047777Y-154723024D02*
X107012238Y-154679438D01*
X108428685Y-185970525D02*
X108378837Y-185996563D01*
X268222293Y-124059095D02*
X268168224Y-124074566D01*
X267946220Y-124108575D02*
X267890000Y-124109999D01*
X267012238Y-92679438D02*
X266978951Y-92634108D01*
X266815433Y-185278224D02*
X266802721Y-185223441D01*
X268275509Y-93040905D02*
X268222293Y-93059095D01*
X106893436Y-92488837D02*
X106869956Y-92437735D01*
X106785694Y-92112296D02*
X106781424Y-92056220D01*
X268275509Y-124040905D02*
X268222293Y-124059095D01*
X107666558Y-155087278D02*
X107611775Y-155074566D01*
X109000000Y-119000000D02*
X109000000Y-123000000D01*
X267012238Y-123679438D02*
X266978951Y-123634108D01*
X107012238Y-123679438D02*
X106978951Y-123634108D01*
X107721915Y-186097200D02*
X107666558Y-186087278D01*
X107721915Y-155097200D02*
X107666558Y-155087278D01*
X108058084Y-93097200D02*
X108002296Y-93104305D01*
X106792799Y-185168084D02*
X106785694Y-185112296D01*
X50000000Y-88000000D02*
X45000000Y-88000000D01*
X108327735Y-186020043D02*
X108275509Y-186040905D01*
X108977278Y-92223441D02*
X108964566Y-92278224D01*
X108831995Y-123587150D02*
X108801048Y-123634108D01*
X267666558Y-155087278D02*
X267611775Y-155074566D01*
X267890000Y-124109999D02*
X267833779Y-124108575D01*
X107401162Y-154996563D02*
X107351314Y-154970525D01*
X108222293Y-93059095D02*
X108168224Y-93074566D01*
X268613024Y-123842222D02*
X268569438Y-123877761D01*
X267504490Y-155040905D02*
X267452264Y-155020043D01*
X107777703Y-124104305D02*
X107721915Y-124097200D01*
X106948004Y-123587150D02*
X106919474Y-123538685D01*
X268964566Y-185278224D02*
X268949095Y-185332293D01*
X107012238Y-154679438D02*
X106978951Y-154634108D01*
X108977278Y-123223441D02*
X108964566Y-123278224D01*
X106802721Y-123223441D02*
X106792799Y-123168084D01*
X108569438Y-185877761D02*
X108524108Y-185911048D01*
X107210561Y-92877761D02*
X107166975Y-92842222D01*
X266802721Y-185223441D02*
X266792799Y-185168084D01*
X268327735Y-93020043D02*
X268275509Y-93040905D01*
X266781424Y-92056220D02*
X266780000Y-92000000D01*
X266869956Y-123437735D02*
X266849094Y-123385509D01*
X45000000Y-88000000D02*
X45000000Y-212000000D01*
X268767761Y-123679438D02*
X268732222Y-123723024D01*
X268477150Y-185941995D02*
X268428685Y-185970525D01*
X108994305Y-185112296D02*
X108987200Y-185168084D01*
X107890000Y-186109999D02*
X107833779Y-186108575D01*
X106792799Y-123168084D02*
X106785694Y-123112296D01*
X108987200Y-185168084D02*
X108977278Y-185223441D01*
X267210561Y-154877761D02*
X267166975Y-154842222D01*
X107946220Y-93108575D02*
X107890000Y-93109999D01*
X268910043Y-185437735D02*
X268910043Y-185437735D01*
X109000000Y-92000000D02*
X108998575Y-92056220D01*
X108886563Y-92488837D02*
X108860525Y-92538685D01*
X266948004Y-123587150D02*
X266919474Y-123538685D01*
X267255891Y-92911048D02*
X267210561Y-92877761D01*
X268910043Y-92437735D02*
X268886563Y-92488837D01*
X106849094Y-92385509D02*
X106830904Y-92332293D01*
X108002296Y-155104305D02*
X107946220Y-155108575D01*
X106781424Y-154056220D02*
X106780000Y-154000000D01*
X108477150Y-92941995D02*
X108428685Y-92970525D01*
X267125246Y-123804520D02*
X267085479Y-123764753D01*
X106830904Y-92332293D02*
X106815433Y-92278224D01*
X267504490Y-124040905D02*
X267452264Y-124020043D01*
X267890000Y-155109999D02*
X267833779Y-155108575D01*
X266919474Y-154538685D02*
X266893436Y-154488837D01*
X266792799Y-185168084D02*
X266785694Y-185112296D01*
X268569438Y-154877761D02*
X268524108Y-154911048D01*
X109000000Y-185000000D02*
X108998575Y-185056220D01*
X106802721Y-92223441D02*
X106792799Y-92168084D01*
X268860525Y-123538685D02*
X268831995Y-123587150D01*
X108930905Y-154385509D02*
X108910043Y-154437735D01*
X107255891Y-185911048D02*
X107210561Y-185877761D01*
X267611775Y-93074566D02*
X267557706Y-93059095D01*
X106780000Y-123000000D02*
X106780000Y-119000000D01*
X266869956Y-185437735D02*
X266849094Y-185385509D01*
X266869956Y-92437735D02*
X266849094Y-92385509D01*
X108378837Y-154996563D02*
X108327735Y-155020043D01*
X108977278Y-154223441D02*
X108964566Y-154278224D01*
X267351314Y-92970525D02*
X267302849Y-92941995D01*
X107085479Y-92764753D02*
X107047777Y-92723024D01*
X267085479Y-92764753D02*
X267047777Y-92723024D01*
X266785694Y-92112296D02*
X266781424Y-92056220D01*
X108767761Y-123679438D02*
X108767761Y-123679438D01*
X108477150Y-123941995D02*
X108428685Y-123970525D01*
X266978951Y-123634108D02*
X266948004Y-123587150D01*
X108058084Y-124097200D02*
X108002296Y-124104305D01*
X107302849Y-154941995D02*
X107255891Y-154911048D01*
X107047777Y-185723024D02*
X107012238Y-185679438D01*
X268831995Y-154587150D02*
X268801048Y-154634108D01*
X267012238Y-185679438D02*
X266978951Y-185634108D01*
X108860525Y-154538685D02*
X108831995Y-154587150D01*
X267721915Y-186097200D02*
X267666558Y-186087278D01*
X108949095Y-123332293D02*
X108930905Y-123385509D01*
X107777703Y-93104305D02*
X107721915Y-93097200D01*
X267611775Y-124074566D02*
X267557706Y-124059095D01*
X106893436Y-154488837D02*
X106869956Y-154437735D01*
X107777703Y-186104305D02*
X107721915Y-186097200D01*
X108860525Y-123538685D02*
X108831995Y-123587150D01*
X267351314Y-123970525D02*
X267302849Y-123941995D01*
X108910043Y-123437735D02*
X108886563Y-123488837D01*
X267833779Y-124108575D02*
X267777703Y-124104305D01*
X106978951Y-123634108D02*
X106948004Y-123587150D01*
X107721915Y-93097200D02*
X107666558Y-93087278D01*
X107085479Y-154764753D02*
X107047777Y-154723024D01*
X268987200Y-154168084D02*
X268977278Y-154223441D01*
X107777703Y-155104305D02*
X107721915Y-155097200D01*
X107452264Y-124020043D02*
X107401162Y-123996563D01*
X108275509Y-155040905D02*
X108222293Y-155059095D01*
X266849094Y-123385509D02*
X266830904Y-123332293D01*
X108168224Y-186074566D02*
X108113441Y-186087278D01*
X266948004Y-92587150D02*
X266919474Y-92538685D01*
X266830904Y-185332293D02*
X266815433Y-185278224D01*
X267777703Y-93104305D02*
X267721915Y-93097200D01*
X268949095Y-185332293D02*
X268930905Y-185385509D01*
X108987200Y-154168084D02*
X108977278Y-154223441D01*
X107946220Y-124108575D02*
X107890000Y-124109999D01*
X108994305Y-92112296D02*
X108987200Y-92168084D01*
X268930905Y-154385509D02*
X268910043Y-154437735D01*
X267946220Y-186108575D02*
X267890000Y-186109999D01*
X108327735Y-124020043D02*
X108275509Y-124040905D01*
X268327735Y-124020043D02*
X268275509Y-124040905D01*
X268694520Y-154764753D02*
X268654753Y-154804520D01*
X267255891Y-123911048D02*
X267210561Y-123877761D01*
X106815433Y-123278224D02*
X106802721Y-123223441D01*
X264000000Y-88000000D02*
X210000000Y-88000000D01*
X268524108Y-154911048D02*
X268477150Y-154941995D01*
X268987200Y-92168084D02*
X268977278Y-92223441D01*
X266849094Y-92385509D02*
X266830904Y-92332293D01*
X106830904Y-123332293D02*
X106815433Y-123278224D01*
X268378837Y-185996563D02*
X268327735Y-186020043D01*
X108222293Y-186059095D02*
X108168224Y-186074566D01*
X108949095Y-185332293D02*
X108930905Y-185385509D01*
X266785694Y-154112296D02*
X266781424Y-154056220D01*
X106948004Y-185587150D02*
X106919474Y-185538685D01*
X268002296Y-124104305D02*
X267946220Y-124108575D01*
X268767761Y-92679438D02*
X268732222Y-92723024D01*
X108654753Y-154804520D02*
X108613024Y-154842222D01*
X268998575Y-185056220D02*
X268994305Y-185112296D01*
X107125246Y-154804520D02*
X107085479Y-154764753D01*
X106780000Y-119000000D02*
X109000000Y-119000000D01*
X268886563Y-185488837D02*
X268860525Y-185538685D01*
X269000000Y-88000000D02*
X269000000Y-92000000D01*
X266815433Y-154278224D02*
X266802721Y-154223441D01*
X267401162Y-92996563D02*
X267351314Y-92970525D01*
X107012238Y-92679438D02*
X106978951Y-92634108D01*
X108613024Y-123842222D02*
X108569438Y-123877761D01*
X210000000Y-88000000D02*
X109000000Y-88000000D01*
X268801048Y-154634108D02*
X268767761Y-154679438D01*
X108998575Y-123056220D02*
X108994305Y-123112296D01*
X268910043Y-123437735D02*
X268886563Y-123488837D01*
X268732222Y-123723024D02*
X268694520Y-123764753D01*
X267452264Y-93020043D02*
X267401162Y-92996563D01*
X109000000Y-154000000D02*
X108998575Y-154056220D01*
X268524108Y-123911048D02*
X268477150Y-123941995D01*
X108964566Y-123278224D02*
X108949095Y-123332293D01*
X266849094Y-154385509D02*
X266830904Y-154332293D01*
X268613024Y-185842222D02*
X268569438Y-185877761D01*
X266815433Y-92278224D02*
X266802721Y-92223441D01*
X106919474Y-154538685D02*
X106893436Y-154488837D01*
X266978951Y-154634108D02*
X266948004Y-154587150D01*
X106869956Y-123437735D02*
X106849094Y-123385509D01*
X107611775Y-93074566D02*
X107557706Y-93059095D01*
X106919474Y-185538685D02*
X106893436Y-185488837D01*
X267777703Y-124104305D02*
X267721915Y-124097200D01*
X268327735Y-155020043D02*
X268275509Y-155040905D01*
X267833779Y-186108575D02*
X267777703Y-186104305D01*
X268569438Y-185877761D02*
X268524108Y-185911048D01*
X108222293Y-155059095D02*
X108168224Y-155074566D01*
X108002296Y-186104305D02*
X107946220Y-186108575D01*
X107085479Y-185764753D02*
X107047777Y-185723024D01*
X268275509Y-186040905D02*
X268222293Y-186059095D01*
X107833779Y-124108575D02*
X107777703Y-124104305D01*
X108058084Y-155097200D02*
X108002296Y-155104305D01*
X108113441Y-124087278D02*
X108058084Y-124097200D01*
X108113441Y-93087278D02*
X108058084Y-93097200D01*
X267255891Y-154911048D02*
X267210561Y-154877761D01*
X268524108Y-92911048D02*
X268477150Y-92941995D01*
X108613024Y-154842222D02*
X108569438Y-154877761D01*
X269000000Y-181000000D02*
X269000000Y-185000000D01*
X107166975Y-185842222D02*
X107125246Y-185804520D01*
X268613024Y-154842222D02*
X268569438Y-154877761D01*
X106815433Y-92278224D02*
X106802721Y-92223441D01*
X108569438Y-92877761D02*
X108524108Y-92911048D01*
X106802721Y-185223441D02*
X106792799Y-185168084D01*
X108113441Y-186087278D02*
X108058084Y-186097200D01*
X104000000Y-88000000D02*
X50000000Y-88000000D01*
X106781424Y-185056220D02*
X106780000Y-185000000D01*
X108998575Y-154056220D02*
X108994305Y-154112296D01*
X268860525Y-154538685D02*
X268831995Y-154587150D01*
X268113441Y-155087278D02*
X268058084Y-155097200D01*
X267666558Y-186087278D02*
X267611775Y-186074566D01*
X107721915Y-124097200D02*
X107666558Y-124087278D01*
X108275509Y-186040905D02*
X108222293Y-186059095D01*
X107504490Y-155040905D02*
X107452264Y-155020043D01*
X268994305Y-123112296D02*
X268987200Y-123168084D01*
X268987200Y-123168084D02*
X268977278Y-123223441D01*
X268378837Y-154996563D02*
X268327735Y-155020043D01*
X268831995Y-92587150D02*
X268801048Y-92634108D01*
X268275509Y-155040905D02*
X268222293Y-155059095D01*
X266781424Y-154056220D02*
X266780000Y-154000000D01*
X268058084Y-93097200D02*
X268002296Y-93104305D01*
X268801048Y-185634108D02*
X268767761Y-185679438D01*
X108860525Y-185538685D02*
X108831995Y-185587150D01*
X107302849Y-92941995D02*
X107255891Y-92911048D01*
X268977278Y-154223441D02*
X268964566Y-154278224D01*
X266792799Y-123168084D02*
X266785694Y-123112296D01*
X108831995Y-185587150D02*
X108801048Y-185634108D01*
X266869956Y-154437735D02*
X266849094Y-154385509D01*
X106780000Y-185000000D02*
X106780000Y-181000000D01*
X268378837Y-92996563D02*
X268327735Y-93020043D01*
X106948004Y-92587150D02*
X106919474Y-92538685D01*
X106780000Y-88000000D02*
X104000000Y-88000000D01*
X268222293Y-93059095D02*
X268168224Y-93074566D01*
X266893436Y-123488837D02*
X266869956Y-123437735D01*
X108378837Y-92996563D02*
X108327735Y-93020043D01*
X267504490Y-93040905D02*
X267452264Y-93020043D01*
X268949095Y-123332293D02*
X268930905Y-123385509D01*
X267611775Y-186074566D02*
X267557706Y-186059095D01*
X267085479Y-154764753D02*
X267047777Y-154723024D01*
X267302849Y-185941995D02*
X267255891Y-185911048D01*
X267452264Y-186020043D02*
X267401162Y-185996563D01*
X106893436Y-185488837D02*
X106869956Y-185437735D01*
X108930905Y-185385509D02*
X108910043Y-185437735D01*
X108613024Y-92842222D02*
X108569438Y-92877761D01*
X106948004Y-154587150D02*
X106919474Y-154538685D01*
X108654753Y-92804520D02*
X108613024Y-92842222D01*
X268732222Y-185723024D02*
X268694520Y-185764753D01*
X107351314Y-154970525D02*
X107302849Y-154941995D01*
X266948004Y-154587150D02*
X266919474Y-154538685D01*
X267351314Y-154970525D02*
X267302849Y-154941995D01*
X108569438Y-154877761D02*
X108524108Y-154911048D01*
X108987200Y-123168084D02*
X108977278Y-123223441D01*
X268654753Y-185804520D02*
X268613024Y-185842222D01*
X107125246Y-185804520D02*
X107085479Y-185764753D01*
X109000000Y-150000000D02*
X109000000Y-154000000D01*
X267557706Y-124059095D02*
X267504490Y-124040905D01*
X108886563Y-185488837D02*
X108860525Y-185538685D01*
X106781424Y-123056220D02*
X106780000Y-123000000D01*
X268767761Y-154679438D02*
X268732222Y-154723024D01*
X106978951Y-185634108D02*
X106948004Y-185587150D01*
X108831995Y-154587150D02*
X108831995Y-154587150D01*
X267166975Y-92842222D02*
X267125246Y-92804520D01*
X106978951Y-92634108D02*
X106948004Y-92587150D01*
X268428685Y-185970525D02*
X268378837Y-185996563D01*
X268694520Y-185764753D02*
X268654753Y-185804520D01*
X108930905Y-123385509D02*
X108910043Y-123437735D01*
X268524108Y-185911048D02*
X268477150Y-185941995D01*
X107302849Y-123941995D02*
X107255891Y-123911048D01*
X107504490Y-124040905D02*
X107452264Y-124020043D01*
X106785694Y-154112296D02*
X106781424Y-154056220D01*
X267166975Y-154842222D02*
X267125246Y-154804520D01*
D17*
X42000000Y-119000000D02*
X378000000Y-119000000D01*
D16*
X107166975Y-154842222D02*
X107125246Y-154804520D01*
X107125246Y-92804520D02*
X107085479Y-92764753D01*
X268886563Y-123488837D02*
X268860525Y-123538685D01*
X106780000Y-181000000D02*
X109000000Y-181000000D01*
X108801048Y-123634108D02*
X108767761Y-123679438D01*
X108168224Y-155074566D02*
X108113441Y-155087278D01*
X107401162Y-92996563D02*
X107351314Y-92970525D01*
X268002296Y-93104305D02*
X267946220Y-93108575D01*
X107255891Y-154911048D02*
X107210561Y-154877761D01*
X266978951Y-92634108D02*
X266948004Y-92587150D01*
X267302849Y-154941995D02*
X267255891Y-154911048D01*
X266893436Y-92488837D02*
X266869956Y-92437735D01*
X108732222Y-185723024D02*
X108694520Y-185764753D01*
X268428685Y-154970525D02*
X268378837Y-154996563D01*
X266780000Y-185000000D02*
X266780000Y-181000000D01*
X266830904Y-123332293D02*
X266815433Y-123278224D01*
X266849094Y-185385509D02*
X266830904Y-185332293D01*
X268860525Y-185538685D02*
X268831995Y-185587150D01*
X108168224Y-93074566D02*
X108113441Y-93087278D01*
X268860525Y-154538685D02*
X268860525Y-154538685D01*
X108694520Y-154764753D02*
X108654753Y-154804520D01*
X268998575Y-92056220D02*
X268994305Y-92112296D01*
X108168224Y-124074566D02*
X108113441Y-124087278D01*
X109000000Y-181000000D02*
X109000000Y-185000000D01*
X107255891Y-92911048D02*
X107210561Y-92877761D01*
X107890000Y-93109999D02*
X107833779Y-93108575D01*
X106815433Y-154278224D02*
X106802721Y-154223441D01*
X108977278Y-185223441D02*
X108964566Y-185278224D01*
X107125246Y-123804520D02*
X107085479Y-123764753D01*
X107047777Y-123723024D02*
X107012238Y-123679438D01*
X268987200Y-185168084D02*
X268977278Y-185223441D01*
X108910043Y-185437735D02*
X108886563Y-185488837D01*
D17*
X50000000Y-85000000D02*
X50000000Y-215000000D01*
D16*
X268930905Y-92385509D02*
X268910043Y-92437735D01*
X268654753Y-92804520D02*
X268613024Y-92842222D01*
X107557706Y-124059095D02*
X107504490Y-124040905D01*
X268002296Y-155104305D02*
X267946220Y-155108575D01*
X375000000Y-88000000D02*
X370000000Y-88000000D01*
X108428685Y-123970525D02*
X108378837Y-123996563D01*
X106978951Y-154634108D02*
X106948004Y-154587150D01*
X266792799Y-92168084D02*
X266785694Y-92112296D01*
X108860525Y-92538685D02*
X108831995Y-92587150D01*
X267557706Y-155059095D02*
X267504490Y-155040905D01*
X108994305Y-154112296D02*
X108987200Y-154168084D01*
X268113441Y-186087278D02*
X268058084Y-186097200D01*
X107833779Y-155108575D02*
X107777703Y-155104305D01*
X267833779Y-155108575D02*
X267777703Y-155104305D01*
X268694520Y-123764753D02*
X268654753Y-123804520D01*
X370000000Y-212000000D02*
X375000000Y-212000000D01*
X108477150Y-154941995D02*
X108428685Y-154970525D01*
X108275509Y-124040905D02*
X108222293Y-124059095D01*
X108886563Y-185488837D02*
X108886563Y-185488837D01*
X107166975Y-123842222D02*
X107125246Y-123804520D01*
X267302849Y-92941995D02*
X267255891Y-92911048D01*
X267166975Y-123842222D02*
X267125246Y-123804520D01*
X268998575Y-154056220D02*
X268994305Y-154112296D01*
X266919474Y-185538685D02*
X266893436Y-185488837D01*
X106849094Y-154385509D02*
X106830904Y-154332293D01*
X109000000Y-88000000D02*
X109000000Y-92000000D01*
X268058084Y-124097200D02*
X268002296Y-124104305D01*
X108964566Y-154278224D02*
X108949095Y-154332293D01*
X266815433Y-123278224D02*
X266802721Y-123223441D01*
X107452264Y-155020043D02*
X107401162Y-154996563D01*
X107351314Y-123970525D02*
X107302849Y-123941995D01*
X268732222Y-92723024D02*
X268694520Y-92764753D01*
X268930905Y-123385509D02*
X268910043Y-123437735D01*
X268428685Y-123970525D02*
X268378837Y-123996563D01*
X108998575Y-185056220D02*
X108994305Y-185112296D01*
X108964566Y-185278224D02*
X108949095Y-185332293D01*
X106919474Y-92538685D02*
X106893436Y-92488837D01*
X267210561Y-185877761D02*
X267166975Y-185842222D01*
X107666558Y-93087278D02*
X107611775Y-93074566D01*
X108949095Y-92332293D02*
X108930905Y-92385509D01*
X266780000Y-181000000D02*
X269000000Y-181000000D01*
X267401162Y-154996563D02*
X267351314Y-154970525D01*
X268058084Y-186097200D02*
X268002296Y-186104305D01*
X269000000Y-185000000D02*
X268998575Y-185056220D01*
X267890000Y-93109999D02*
X267833779Y-93108575D01*
X108930905Y-92385509D02*
X108910043Y-92437735D01*
X45000000Y-212000000D02*
X45000000Y-212000000D01*
X107504490Y-186040905D02*
X107452264Y-186020043D01*
X267125246Y-185804520D02*
X267085479Y-185764753D01*
X107946220Y-186108575D02*
X107890000Y-186109999D01*
X267890000Y-186109999D02*
X267833779Y-186108575D01*
X266780000Y-154000000D02*
X266780000Y-150000000D01*
X266802721Y-123223441D02*
X266792799Y-123168084D01*
X268168224Y-186074566D02*
X268113441Y-186087278D01*
X267125246Y-92804520D02*
X267085479Y-92764753D01*
X107611775Y-124074566D02*
X107557706Y-124059095D01*
X108732222Y-154723024D02*
X108694520Y-154764753D01*
X266830904Y-154332293D02*
X266815433Y-154278224D01*
X268801048Y-123634108D02*
X268767761Y-123679438D01*
X267721915Y-124097200D02*
X267666558Y-124087278D01*
X268168224Y-93074566D02*
X268113441Y-93087278D01*
X266830904Y-92332293D02*
X266815433Y-92278224D01*
X267557706Y-93059095D02*
X267504490Y-93040905D01*
X268964566Y-92278224D02*
X268949095Y-92332293D01*
X106780000Y-150000000D02*
X109000000Y-150000000D01*
X268168224Y-155074566D02*
X268113441Y-155087278D01*
X267777703Y-155104305D02*
X267721915Y-155097200D01*
X108002296Y-124104305D02*
X107946220Y-124108575D01*
X268477150Y-123941995D02*
X268428685Y-123970525D01*
X267255891Y-185911048D02*
X267210561Y-185877761D01*
X108524108Y-123911048D02*
X108477150Y-123941995D01*
X267611775Y-155074566D02*
X267557706Y-155059095D01*
X106781424Y-92056220D02*
X106780000Y-92000000D01*
X267777703Y-186104305D02*
X267721915Y-186097200D01*
X267557706Y-186059095D02*
X267504490Y-186040905D01*
X106792799Y-92168084D02*
X106785694Y-92112296D01*
X267401162Y-185996563D02*
X267351314Y-185970525D01*
X108910043Y-92437735D02*
X108886563Y-92488837D01*
X268994305Y-92112296D02*
X268987200Y-92168084D01*
X107166975Y-92842222D02*
X107125246Y-92804520D01*
X108994305Y-123112296D02*
X108987200Y-123168084D01*
X268886563Y-154488837D02*
X268860525Y-154538685D01*
X268977278Y-123223441D02*
X268964566Y-123278224D01*
X267210561Y-123877761D02*
X267166975Y-123842222D01*
X370000000Y-88000000D02*
X269000000Y-88000000D01*
X269000000Y-92000000D02*
X268998575Y-92056220D01*
X108428685Y-92970525D02*
X108378837Y-92996563D01*
X268654753Y-123804520D02*
X268613024Y-123842222D01*
X107557706Y-155059095D02*
X107504490Y-155040905D01*
X107012238Y-185679438D02*
X106978951Y-185634108D01*
X268994305Y-185112296D02*
X268987200Y-185168084D01*
X268930905Y-185385509D02*
X268910043Y-185437735D01*
X107401162Y-185996563D02*
X107351314Y-185970525D01*
X107833779Y-186108575D02*
X107777703Y-186104305D01*
X266781424Y-123056220D02*
X266780000Y-123000000D01*
X267721915Y-93097200D02*
X267666558Y-93087278D01*
X108801048Y-92634108D02*
X108767761Y-92679438D01*
X268002296Y-186104305D02*
X267946220Y-186108575D01*
X108113441Y-155087278D02*
X108058084Y-155097200D01*
X268613024Y-92842222D02*
X268569438Y-92877761D01*
X375000000Y-212000000D02*
X375000000Y-88000000D01*
X268569438Y-123877761D02*
X268524108Y-123911048D01*
X106785694Y-123112296D02*
X106781424Y-123056220D01*
X268222293Y-186059095D02*
X268168224Y-186074566D01*
X108613024Y-185842222D02*
X108569438Y-185877761D01*
X266802721Y-154223441D02*
X266792799Y-154168084D01*
X107890000Y-155109999D02*
X107833779Y-155108575D01*
X108327735Y-155020043D02*
X108275509Y-155040905D01*
X106792799Y-154168084D02*
X106785694Y-154112296D01*
X107210561Y-154877761D02*
X107166975Y-154842222D01*
X107351314Y-92970525D02*
X107302849Y-92941995D01*
X266781424Y-185056220D02*
X266780000Y-185000000D01*
X267452264Y-124020043D02*
X267401162Y-123996563D01*
X106919474Y-123538685D02*
X106893436Y-123488837D01*
X266893436Y-185488837D02*
X266869956Y-185437735D01*
X107452264Y-186020043D02*
X107401162Y-185996563D01*
X268860525Y-92538685D02*
X268831995Y-92587150D01*
X266978951Y-185634108D02*
X266948004Y-185587150D01*
X268654753Y-154804520D02*
X268613024Y-154842222D01*
X107210561Y-123877761D02*
X107166975Y-123842222D01*
X108654753Y-123804520D02*
X108613024Y-123842222D01*
X108222293Y-124059095D02*
X108168224Y-124074566D01*
X267666558Y-93087278D02*
X267611775Y-93074566D01*
X267452264Y-155020043D02*
X267401162Y-154996563D01*
D17*
X370000000Y-85000000D02*
X370000000Y-215000000D01*
D16*
X269000000Y-150000000D02*
X269000000Y-154000000D01*
X268058084Y-155097200D02*
X268002296Y-155104305D01*
X108694520Y-185764753D02*
X108654753Y-185804520D01*
X267504490Y-186040905D02*
X267452264Y-186020043D01*
X268428685Y-92970525D02*
X268378837Y-92996563D01*
X108378837Y-185996563D02*
X108327735Y-186020043D01*
X108767761Y-185679438D02*
X108732222Y-185723024D01*
X107210561Y-185877761D02*
X107166975Y-185842222D01*
X267401162Y-123996563D02*
X267351314Y-123970525D01*
X107255891Y-123911048D02*
X107210561Y-123877761D01*
X107666558Y-124087278D02*
X107611775Y-124074566D01*
X106815433Y-185278224D02*
X106802721Y-185223441D01*
X108732222Y-92723024D02*
X108694520Y-92764753D01*
X108654753Y-185804520D02*
X108613024Y-185842222D01*
X267946220Y-93108575D02*
X267890000Y-93109999D01*
X107452264Y-93020043D02*
X107401162Y-92996563D01*
X267047777Y-92723024D02*
X267012238Y-92679438D01*
X108801048Y-154634108D02*
X108767761Y-154679438D01*
X108910043Y-154437735D02*
X108886563Y-154488837D01*
X107611775Y-186074566D02*
X107557706Y-186059095D01*
X108477150Y-185941995D02*
X108428685Y-185970525D01*
X107946220Y-155108575D02*
X107890000Y-155109999D01*
X268886563Y-92488837D02*
X268860525Y-92538685D01*
X268977278Y-185223441D02*
X268964566Y-185278224D01*
X269000000Y-154000000D02*
X268998575Y-154056220D01*
X266919474Y-123538685D02*
X266893436Y-123488837D01*
X107085479Y-123764753D02*
X107047777Y-123723024D01*
X109000000Y-123000000D02*
X108998575Y-123056220D01*
X267946220Y-155108575D02*
X267890000Y-155109999D01*
X108327735Y-93020043D02*
X108275509Y-93040905D01*
X108428685Y-154970525D02*
X108378837Y-154996563D01*
X268831995Y-123587150D02*
X268801048Y-123634108D01*
X107557706Y-186059095D02*
X107504490Y-186040905D01*
X107047777Y-92723024D02*
X107012238Y-92679438D01*
D17*
X42000000Y-150000000D02*
X378000000Y-150000000D01*
D16*
X108569438Y-123877761D02*
X108524108Y-123911048D01*
X108732222Y-123723024D02*
X108694520Y-123764753D01*
X268994305Y-154112296D02*
X268987200Y-154168084D01*
X266780000Y-92000000D02*
X266780000Y-88000000D01*
X108886563Y-123488837D02*
X108860525Y-123538685D01*
X108275509Y-93040905D02*
X108222293Y-93059095D01*
X268569438Y-92877761D02*
X268524108Y-92911048D01*
X106849094Y-123385509D02*
X106830904Y-123332293D01*
X107401162Y-123996563D02*
X107351314Y-123970525D01*
X108801048Y-185634108D02*
X108767761Y-185679438D01*
X266780000Y-119000000D02*
X269000000Y-119000000D01*
X106785694Y-185112296D02*
X106781424Y-185056220D01*
X267012238Y-154679438D02*
X266978951Y-154634108D01*
X266802721Y-92223441D02*
X266792799Y-92168084D01*
X107611775Y-155074566D02*
X107557706Y-155059095D01*
X108002296Y-93104305D02*
X107946220Y-93108575D01*
X107351314Y-185970525D02*
X107302849Y-185941995D01*
X108694520Y-92764753D02*
X108654753Y-92804520D01*
X106830904Y-185332293D02*
X106815433Y-185278224D01*
X108886563Y-154488837D02*
X108860525Y-154538685D01*
X267047777Y-185723024D02*
X267012238Y-185679438D01*
X108767761Y-92679438D02*
X108732222Y-92723024D01*
X106849094Y-185385509D02*
X106830904Y-185332293D01*
X268477150Y-92941995D02*
X268428685Y-92970525D01*
X269000000Y-119000000D02*
X269000000Y-123000000D01*
X108949095Y-154332293D02*
X108930905Y-154385509D01*
X108767761Y-123679438D02*
X108732222Y-123723024D01*
X268964566Y-154278224D02*
X268949095Y-154332293D01*
X108767761Y-154679438D02*
X108732222Y-154723024D01*
X268910043Y-154437735D02*
X268886563Y-154488837D01*
X107666558Y-186087278D02*
X107611775Y-186074566D01*
X106830904Y-154332293D02*
X106815433Y-154278224D01*
X267085479Y-185764753D02*
X267047777Y-185723024D01*
X267047777Y-123723024D02*
X267012238Y-123679438D01*
X266785694Y-123112296D02*
X266781424Y-123056220D01*
X108694520Y-123764753D02*
X108654753Y-123804520D01*
X108831995Y-154587150D02*
X108801048Y-154634108D01*
X106893436Y-123488837D02*
X106869956Y-123437735D01*
X267125246Y-154804520D02*
X267085479Y-154764753D01*
X266780000Y-88000000D02*
X264000000Y-88000000D01*
X267302849Y-123941995D02*
X267255891Y-123911048D01*
X108831995Y-92587150D02*
X108801048Y-92634108D01*
X107557706Y-93059095D02*
X107504490Y-93040905D01*
X267085479Y-123764753D02*
X267047777Y-123723024D01*
X108987200Y-92168084D02*
X108977278Y-92223441D01*
X107504490Y-93040905D02*
X107452264Y-93020043D01*
X106869956Y-185437735D02*
X106849094Y-185385509D01*
X107833779Y-93108575D02*
X107777703Y-93104305D01*
X268222293Y-155059095D02*
X268168224Y-155074566D01*
X268998575Y-123056220D02*
X268994305Y-123112296D01*
X106780000Y-154000000D02*
X106780000Y-150000000D01*
X266785694Y-185112296D02*
X266781424Y-185056220D01*
X268964566Y-123278224D02*
X268949095Y-123332293D01*
X268477150Y-154941995D02*
X268428685Y-154970525D01*
X268949095Y-92332293D02*
X268930905Y-92385509D01*
X268694520Y-92764753D02*
X268654753Y-92804520D01*
X268801048Y-92634108D02*
X268767761Y-92679438D01*
X268767761Y-185679438D02*
X268732222Y-185723024D01*
X267047777Y-154723024D02*
X267012238Y-154679438D01*
X268113441Y-93087278D02*
X268058084Y-93097200D01*
X267721915Y-155097200D02*
X267666558Y-155087278D01*
X269000000Y-123000000D02*
X268998575Y-123056220D01*
X267210561Y-92877761D02*
X267166975Y-92842222D01*
X266893436Y-154488837D02*
X266869956Y-154437735D01*
X106802721Y-154223441D02*
X106792799Y-154168084D01*
X267351314Y-185970525D02*
X267302849Y-185941995D01*
D17*
X42000000Y-181000000D02*
X378000000Y-181000000D01*
D16*
X108998575Y-92056220D02*
X108994305Y-92112296D01*
X268801048Y-123634108D02*
X268801048Y-123634108D01*
X267166975Y-185842222D02*
X267125246Y-185804520D01*
X266919474Y-92538685D02*
X266893436Y-92488837D01*
X268831995Y-185587150D02*
X268801048Y-185634108D01*
X267833779Y-93108575D02*
X267777703Y-93104305D01*
X107302849Y-185941995D02*
X107255891Y-185911048D01*
X268910043Y-185437735D02*
X268886563Y-185488837D01*
X266792799Y-154168084D02*
X266785694Y-154112296D01*
X108524108Y-154911048D02*
X108477150Y-154941995D01*
X268327735Y-186020043D02*
X268275509Y-186040905D01*
X268977278Y-92223441D02*
X268964566Y-92278224D01*
X106869956Y-92437735D02*
X106849094Y-92385509D01*
D17*
X210000000Y-85000000D02*
X210000000Y-215000000D01*
D16*
X50000000Y-212000000D02*
X210000000Y-212000000D01*
X266780000Y-123000000D02*
X266780000Y-119000000D01*
X268949095Y-154332293D02*
X268930905Y-154385509D01*
X106780000Y-92000000D02*
X106780000Y-88000000D01*
X268113441Y-124087278D02*
X268058084Y-124097200D01*
X108378837Y-123996563D02*
X108327735Y-124020043D01*
X106869956Y-154437735D02*
X106849094Y-154385509D01*
X266780000Y-150000000D02*
X269000000Y-150000000D01*
X268732222Y-154723024D02*
X268694520Y-154764753D01*
X108524108Y-92911048D02*
X108477150Y-92941995D01*
X108058084Y-186097200D02*
X108002296Y-186104305D01*
X108964566Y-92278224D02*
X108949095Y-92332293D01*
X268378837Y-123996563D02*
X268327735Y-124020043D01*
M02*
