%TF.GenerationSoftware,KiCad,Pcbnew,(7.0.0)*%
%TF.CreationDate,2023-07-14T12:07:01+02:00*%
%TF.ProjectId,Panelization,50616e65-6c69-47a6-9174-696f6e2e6b69,V1*%
%TF.SameCoordinates,Original*%
%TF.FileFunction,Profile,NP*%
%FSLAX46Y46*%
G04 Gerber Fmt 4.6, Leading zero omitted, Abs format (unit mm)*
G04 Created by KiCad (PCBNEW (7.0.0)) date 2023-07-14 12:07:01*
%MOMM*%
%LPD*%
G01*
G04 APERTURE LIST*
%TA.AperFunction,Profile*%
%ADD10C,0.100000*%
%TD*%
%TA.AperFunction,Profile*%
%ADD11C,0.400000*%
%TD*%
%ADD12C,0.400000*%
G04 APERTURE END LIST*
D10*
X267946220Y-155108575D02*
X267890000Y-155109999D01*
X266780000Y-92000000D02*
X266780000Y-88000000D01*
X106781424Y-154056220D02*
X106780000Y-154000000D01*
X266815433Y-92278224D02*
X266802721Y-92223441D01*
X106785694Y-185112296D02*
X106781424Y-185056220D01*
X108767761Y-123679438D02*
X108732222Y-123723024D01*
X267401162Y-123996563D02*
X267351314Y-123970525D01*
X267255891Y-123911048D02*
X267210561Y-123877761D01*
X108477150Y-185941995D02*
X108428685Y-185970525D01*
X108987200Y-123168084D02*
X108977278Y-123223441D01*
X266781424Y-92056220D02*
X266780000Y-92000000D01*
X268275509Y-186040905D02*
X268222293Y-186059095D01*
X108994305Y-154112296D02*
X108987200Y-154168084D01*
X267721915Y-124097200D02*
X267666558Y-124087278D01*
X108930905Y-92385509D02*
X108910043Y-92437735D01*
X107085479Y-123764753D02*
X107047777Y-123723024D01*
X267012238Y-185679438D02*
X266978951Y-185634108D01*
X107401162Y-92996563D02*
X107351314Y-92970525D01*
X268058084Y-124097200D02*
X268002296Y-124104305D01*
X108930905Y-123385509D02*
X108910043Y-123437735D01*
X106802721Y-185223441D02*
X106792799Y-185168084D01*
X268378837Y-154996563D02*
X268327735Y-155020043D01*
X108987200Y-154168084D02*
X108977278Y-154223441D01*
X108949095Y-123332293D02*
X108930905Y-123385509D01*
X108860525Y-154538685D02*
X108860525Y-154538685D01*
X108428685Y-92970525D02*
X108378837Y-92996563D01*
X108964566Y-92278224D02*
X108949095Y-92332293D01*
X107504490Y-93040905D02*
X107452264Y-93020043D01*
X266815433Y-185278224D02*
X266802721Y-185223441D01*
X268275509Y-155040905D02*
X268222293Y-155059095D01*
D11*
X42000000Y-150000000D02*
X378000000Y-150000000D01*
D10*
X267504490Y-155040905D02*
X267452264Y-155020043D01*
X107777703Y-186104305D02*
X107721915Y-186097200D01*
X268767761Y-185679438D02*
X268732222Y-185723024D01*
X109000000Y-185000000D02*
X108998575Y-185056220D01*
X266781424Y-185056220D02*
X266780000Y-185000000D01*
X106948004Y-185587150D02*
X106919474Y-185538685D01*
X108732222Y-123723024D02*
X108694520Y-123764753D01*
X106780000Y-88000000D02*
X109000000Y-88000000D01*
X267125246Y-123804520D02*
X267085479Y-123764753D01*
X108831995Y-123587150D02*
X108801048Y-123634108D01*
X109000000Y-88000000D02*
X109000000Y-92000000D01*
X268168224Y-186074566D02*
X268113441Y-186087278D01*
X266978951Y-92634108D02*
X266948004Y-92587150D01*
X268654753Y-92804520D02*
X268613024Y-92842222D01*
X107946220Y-155108575D02*
X107890000Y-155109999D01*
X267012238Y-154679438D02*
X266978951Y-154634108D01*
X108860525Y-154538685D02*
X108831995Y-154587150D01*
X268113441Y-93087278D02*
X268058084Y-93097200D01*
X269000000Y-92000000D02*
X269000000Y-92000000D01*
X268801048Y-154634108D02*
X268767761Y-154679438D01*
X107166975Y-185842222D02*
X107125246Y-185804520D01*
X107255891Y-92911048D02*
X107210561Y-92877761D01*
X106978951Y-185634108D02*
X106948004Y-185587150D01*
X107666558Y-186087278D02*
X107611775Y-186074566D01*
X266978951Y-185634108D02*
X266948004Y-185587150D01*
X267166975Y-123842222D02*
X267125246Y-123804520D01*
X108569438Y-154877761D02*
X108524108Y-154911048D01*
X106978951Y-92634108D02*
X106948004Y-92587150D01*
X267452264Y-124020043D02*
X267401162Y-123996563D01*
X268327735Y-93020043D02*
X268275509Y-93040905D01*
X108831995Y-154587150D02*
X108801048Y-154634108D01*
X266830904Y-154332293D02*
X266815433Y-154278224D01*
X268613024Y-185842222D02*
X268569438Y-185877761D01*
X108569438Y-92877761D02*
X108524108Y-92911048D01*
X108886563Y-154488837D02*
X108860525Y-154538685D01*
X267666558Y-124087278D02*
X267611775Y-124074566D01*
X109000000Y-154000000D02*
X108998575Y-154056220D01*
X267666558Y-186087278D02*
X267611775Y-186074566D01*
X267777703Y-155104305D02*
X267721915Y-155097200D01*
X108732222Y-185723024D02*
X108694520Y-185764753D01*
X108886563Y-123488837D02*
X108860525Y-123538685D01*
X269000000Y-119000000D02*
X269000000Y-123000000D01*
X266869956Y-154437735D02*
X266849094Y-154385509D01*
X108801048Y-154634108D02*
X108767761Y-154679438D01*
X107504490Y-155040905D02*
X107452264Y-155020043D01*
X107611775Y-155074566D02*
X107557706Y-155059095D01*
X267890000Y-186109999D02*
X267833779Y-186108575D01*
X108949095Y-92332293D02*
X108930905Y-92385509D01*
X107166975Y-123842222D02*
X107125246Y-123804520D01*
X108378837Y-185996563D02*
X108327735Y-186020043D01*
X107557706Y-93059095D02*
X107504490Y-93040905D01*
X108910043Y-123437735D02*
X108886563Y-123488837D01*
X268524108Y-123911048D02*
X268477150Y-123941995D01*
X267302849Y-185941995D02*
X267255891Y-185911048D01*
X107012238Y-92679438D02*
X106978951Y-92634108D01*
X106792799Y-123168084D02*
X106785694Y-123112296D01*
X108002296Y-124104305D02*
X107946220Y-124108575D01*
X108168224Y-124074566D02*
X108113441Y-124087278D01*
X269000000Y-123000000D02*
X268998575Y-123056220D01*
X108275509Y-155040905D02*
X108222293Y-155059095D01*
X108654753Y-185804520D02*
X108613024Y-185842222D01*
X107047777Y-92723024D02*
X107012238Y-92679438D01*
X108428685Y-185970525D02*
X108378837Y-185996563D01*
X268327735Y-124020043D02*
X268275509Y-124040905D01*
X107351314Y-92970525D02*
X107302849Y-92941995D01*
X266893436Y-123488837D02*
X266869956Y-123437735D01*
X106815433Y-185278224D02*
X106802721Y-185223441D01*
X268694520Y-185764753D02*
X268654753Y-185804520D01*
X268886563Y-123488837D02*
X268860525Y-123538685D01*
D11*
X50000000Y-80000000D02*
X50000000Y-220000000D01*
D10*
X108002296Y-93104305D02*
X107946220Y-93108575D01*
X266869956Y-185437735D02*
X266849094Y-185385509D01*
X268801048Y-123634108D02*
X268767761Y-123679438D01*
X268168224Y-124074566D02*
X268113441Y-124087278D01*
X107351314Y-123970525D02*
X107302849Y-123941995D01*
X266780000Y-123000000D02*
X266780000Y-119000000D01*
X268977278Y-123223441D02*
X268964566Y-123278224D01*
X107085479Y-92764753D02*
X107047777Y-92723024D01*
X108113441Y-124087278D02*
X108058084Y-124097200D01*
X266919474Y-154538685D02*
X266893436Y-154488837D01*
X267946220Y-93108575D02*
X267890000Y-93109999D01*
X268930905Y-185385509D02*
X268930905Y-185385509D01*
X268930905Y-154385509D02*
X268910043Y-154437735D01*
X108998575Y-185056220D02*
X108994305Y-185112296D01*
X268987200Y-92168084D02*
X268977278Y-92223441D01*
X266780000Y-119000000D02*
X269000000Y-119000000D01*
X268964566Y-154278224D02*
X268949095Y-154332293D01*
X267351314Y-154970525D02*
X267302849Y-154941995D01*
X268860525Y-92538685D02*
X268831995Y-92587150D01*
X108113441Y-155087278D02*
X108058084Y-155097200D01*
X107611775Y-124074566D02*
X107557706Y-124059095D01*
X106869956Y-185437735D02*
X106849094Y-185385509D01*
X107611775Y-93074566D02*
X107557706Y-93059095D01*
X108930905Y-185385509D02*
X108910043Y-185437735D01*
X107085479Y-154764753D02*
X107047777Y-154723024D01*
X268222293Y-186059095D02*
X268168224Y-186074566D01*
X107255891Y-123911048D02*
X107210561Y-123877761D01*
X268222293Y-155059095D02*
X268168224Y-155074566D01*
X269000000Y-92000000D02*
X268998575Y-92056220D01*
X108222293Y-124059095D02*
X108168224Y-124074566D01*
X268977278Y-185223441D02*
X268964566Y-185278224D01*
X107611775Y-186074566D02*
X107557706Y-186059095D01*
X107777703Y-124104305D02*
X107721915Y-124097200D01*
X106780000Y-185000000D02*
X106780000Y-181000000D01*
X107012238Y-185679438D02*
X106978951Y-185634108D01*
X269000000Y-181000000D02*
X269000000Y-185000000D01*
X106919474Y-92538685D02*
X106893436Y-92488837D01*
X108613024Y-123842222D02*
X108569438Y-123877761D01*
X106780000Y-92000000D02*
X106780000Y-88000000D01*
X267085479Y-154764753D02*
X267047777Y-154723024D01*
X108168224Y-93074566D02*
X108113441Y-93087278D01*
X108860525Y-185538685D02*
X108831995Y-185587150D01*
X108694520Y-154764753D02*
X108654753Y-154804520D01*
X268930905Y-185385509D02*
X268910043Y-185437735D01*
X108998575Y-92056220D02*
X108994305Y-92112296D01*
X107721915Y-155097200D02*
X107666558Y-155087278D01*
X109000000Y-119000000D02*
X109000000Y-123000000D01*
X107452264Y-93020043D02*
X107401162Y-92996563D01*
X267777703Y-186104305D02*
X267721915Y-186097200D01*
X268767761Y-123679438D02*
X268732222Y-123723024D01*
X268113441Y-124087278D02*
X268058084Y-124097200D01*
X267777703Y-124104305D02*
X267721915Y-124097200D01*
X268831995Y-123587150D02*
X268831995Y-123587150D01*
X108654753Y-154804520D02*
X108613024Y-154842222D01*
X266792799Y-185168084D02*
X266785694Y-185112296D01*
X268327735Y-155020043D02*
X268275509Y-155040905D01*
X267452264Y-186020043D02*
X267401162Y-185996563D01*
X107452264Y-155020043D02*
X107401162Y-154996563D01*
X268058084Y-155097200D02*
X268002296Y-155104305D01*
X109000000Y-92000000D02*
X108998575Y-92056220D01*
X268732222Y-154723024D02*
X268694520Y-154764753D01*
X268732222Y-92723024D02*
X268694520Y-92764753D01*
X268831995Y-92587150D02*
X268801048Y-92634108D01*
X268428685Y-154970525D02*
X268378837Y-154996563D01*
X108222293Y-186059095D02*
X108168224Y-186074566D01*
X108327735Y-124020043D02*
X108275509Y-124040905D01*
X106802721Y-123223441D02*
X106792799Y-123168084D01*
X108732222Y-154723024D02*
X108694520Y-154764753D01*
X107833779Y-155108575D02*
X107777703Y-155104305D01*
X45000000Y-83000000D02*
X45000000Y-217000000D01*
X269000000Y-154000000D02*
X268998575Y-154056220D01*
X108994305Y-185112296D02*
X108987200Y-185168084D01*
X108428685Y-154970525D02*
X108378837Y-154996563D01*
X266785694Y-92112296D02*
X266781424Y-92056220D01*
X268910043Y-123437735D02*
X268886563Y-123488837D01*
X106830904Y-185332293D02*
X106815433Y-185278224D01*
X106893436Y-123488837D02*
X106869956Y-123437735D01*
X108477150Y-123941995D02*
X108428685Y-123970525D01*
X108964566Y-154278224D02*
X108949095Y-154332293D01*
X106785694Y-154112296D02*
X106781424Y-154056220D01*
X267504490Y-93040905D02*
X267452264Y-93020043D01*
X266780000Y-88000000D02*
X269000000Y-88000000D01*
X107946220Y-124108575D02*
X107890000Y-124109999D01*
X267401162Y-92996563D02*
X267351314Y-92970525D01*
X266780000Y-150000000D02*
X269000000Y-150000000D01*
X268930905Y-92385509D02*
X268910043Y-92437735D01*
X268222293Y-124059095D02*
X268168224Y-124074566D01*
X268910043Y-154437735D02*
X268886563Y-154488837D01*
X266802721Y-123223441D02*
X266792799Y-123168084D01*
X108569438Y-185877761D02*
X108524108Y-185911048D01*
X268994305Y-185112296D02*
X268987200Y-185168084D01*
X268949095Y-123332293D02*
X268930905Y-123385509D01*
X108002296Y-155104305D02*
X107946220Y-155108575D01*
X108994305Y-123112296D02*
X108987200Y-123168084D01*
X267085479Y-123764753D02*
X267047777Y-123723024D01*
X107890000Y-93109999D02*
X107833779Y-93108575D01*
X106780000Y-123000000D02*
X106780000Y-119000000D01*
X267047777Y-185723024D02*
X267012238Y-185679438D01*
X107047777Y-154723024D02*
X107012238Y-154679438D01*
X107401162Y-185996563D02*
X107351314Y-185970525D01*
X108275509Y-124040905D02*
X108222293Y-124059095D01*
X107557706Y-186059095D02*
X107504490Y-186040905D01*
X267666558Y-93087278D02*
X267611775Y-93074566D01*
X266849094Y-123385509D02*
X266830904Y-123332293D01*
X108767761Y-154679438D02*
X108732222Y-154723024D01*
X267401162Y-154996563D02*
X267351314Y-154970525D01*
X108987200Y-92168084D02*
X108977278Y-92223441D01*
X267557706Y-93059095D02*
X267504490Y-93040905D01*
X108327735Y-155020043D02*
X108275509Y-155040905D01*
X268977278Y-92223441D02*
X268964566Y-92278224D01*
X268654753Y-185804520D02*
X268613024Y-185842222D01*
D11*
X42000000Y-119000000D02*
X378000000Y-119000000D01*
D10*
X267255891Y-92911048D02*
X267210561Y-92877761D01*
X268275509Y-93040905D02*
X268222293Y-93059095D01*
X268327735Y-186020043D02*
X268275509Y-186040905D01*
X108767761Y-92679438D02*
X108732222Y-92723024D01*
X268964566Y-92278224D02*
X268949095Y-92332293D01*
X268477150Y-154941995D02*
X268428685Y-154970525D01*
X268222293Y-93059095D02*
X268168224Y-93074566D01*
X266781424Y-123056220D02*
X266780000Y-123000000D01*
X106815433Y-92278224D02*
X106802721Y-92223441D01*
X106785694Y-123112296D02*
X106781424Y-123056220D01*
X108058084Y-93097200D02*
X108002296Y-93104305D01*
X266893436Y-154488837D02*
X266869956Y-154437735D01*
X267210561Y-185877761D02*
X267166975Y-185842222D01*
X106830904Y-123332293D02*
X106815433Y-123278224D01*
X268886563Y-185488837D02*
X268860525Y-185538685D01*
X108964566Y-123278224D02*
X108949095Y-123332293D01*
X266978951Y-123634108D02*
X266948004Y-123587150D01*
X267085479Y-92764753D02*
X267047777Y-92723024D01*
X266792799Y-154168084D02*
X266785694Y-154112296D01*
X266780000Y-154000000D02*
X266780000Y-150000000D01*
X267302849Y-92941995D02*
X267255891Y-92911048D01*
X268428685Y-92970525D02*
X268378837Y-92996563D01*
X108801048Y-123634108D02*
X108801048Y-123634108D01*
X106948004Y-92587150D02*
X106919474Y-92538685D01*
X267452264Y-155020043D02*
X267401162Y-154996563D01*
X375000000Y-83000000D02*
X45000000Y-83000000D01*
X268930905Y-123385509D02*
X268910043Y-123437735D01*
X267302849Y-154941995D02*
X267255891Y-154911048D01*
X266849094Y-185385509D02*
X266830904Y-185332293D01*
X266893436Y-92488837D02*
X266869956Y-92437735D01*
X268949095Y-92332293D02*
X268930905Y-92385509D01*
X268977278Y-154223441D02*
X268964566Y-154278224D01*
X268002296Y-124104305D02*
X267946220Y-124108575D01*
X106792799Y-92168084D02*
X106785694Y-92112296D01*
X266792799Y-92168084D02*
X266785694Y-92112296D01*
X108058084Y-155097200D02*
X108002296Y-155104305D01*
X106780000Y-154000000D02*
X106780000Y-150000000D01*
X268613024Y-154842222D02*
X268569438Y-154877761D01*
X108998575Y-123056220D02*
X108994305Y-123112296D01*
X268886563Y-154488837D02*
X268860525Y-154538685D01*
X266849094Y-154385509D02*
X266830904Y-154332293D01*
X269000000Y-150000000D02*
X269000000Y-154000000D01*
X268801048Y-185634108D02*
X268767761Y-185679438D01*
X108654753Y-92804520D02*
X108613024Y-92842222D01*
X108987200Y-185168084D02*
X108977278Y-185223441D01*
X108910043Y-185437735D02*
X108910043Y-185437735D01*
X107210561Y-123877761D02*
X107166975Y-123842222D01*
X267557706Y-186059095D02*
X267504490Y-186040905D01*
X267777703Y-93104305D02*
X267721915Y-93097200D01*
X267721915Y-93097200D02*
X267666558Y-93087278D01*
X268732222Y-123723024D02*
X268694520Y-123764753D01*
X108524108Y-92911048D02*
X108477150Y-92941995D01*
X267125246Y-154804520D02*
X267085479Y-154764753D01*
X109000000Y-123000000D02*
X108998575Y-123056220D01*
X107946220Y-186108575D02*
X107890000Y-186109999D01*
X106781424Y-123056220D02*
X106780000Y-123000000D01*
X108378837Y-154996563D02*
X108327735Y-155020043D01*
X107210561Y-154877761D02*
X107166975Y-154842222D01*
X268613024Y-92842222D02*
X268569438Y-92877761D01*
X268654753Y-154804520D02*
X268613024Y-154842222D01*
X267611775Y-93074566D02*
X267557706Y-93059095D01*
X108327735Y-186020043D02*
X108275509Y-186040905D01*
X267833779Y-186108575D02*
X267777703Y-186104305D01*
X107210561Y-185877761D02*
X107166975Y-185842222D01*
X107125246Y-185804520D02*
X107085479Y-185764753D01*
X107833779Y-93108575D02*
X107777703Y-93104305D01*
X268831995Y-123587150D02*
X268801048Y-123634108D01*
X268113441Y-155087278D02*
X268058084Y-155097200D01*
X268569438Y-185877761D02*
X268524108Y-185911048D01*
X268002296Y-186104305D02*
X267946220Y-186108575D01*
X108977278Y-92223441D02*
X108964566Y-92278224D01*
X108654753Y-123804520D02*
X108613024Y-123842222D01*
X108275509Y-93040905D02*
X108222293Y-93059095D01*
X106893436Y-185488837D02*
X106869956Y-185437735D01*
X267666558Y-155087278D02*
X267611775Y-155074566D01*
X267890000Y-155109999D02*
X267833779Y-155108575D01*
X107833779Y-124108575D02*
X107777703Y-124104305D01*
X106781424Y-185056220D02*
X106780000Y-185000000D01*
X268860525Y-185538685D02*
X268831995Y-185587150D01*
X267085479Y-185764753D02*
X267047777Y-185723024D01*
X107255891Y-154911048D02*
X107210561Y-154877761D01*
X267255891Y-185911048D02*
X267210561Y-185877761D01*
X107047777Y-123723024D02*
X107012238Y-123679438D01*
X268910043Y-185437735D02*
X268886563Y-185488837D01*
X106849094Y-92385509D02*
X106830904Y-92332293D01*
X107890000Y-124109999D02*
X107833779Y-124108575D01*
X108275509Y-186040905D02*
X108222293Y-186059095D01*
X106780000Y-150000000D02*
X109000000Y-150000000D01*
D11*
X42000000Y-181000000D02*
X378000000Y-181000000D01*
D10*
X268801048Y-92634108D02*
X268767761Y-92679438D01*
X268998575Y-185056220D02*
X268994305Y-185112296D01*
X108378837Y-123996563D02*
X108327735Y-124020043D01*
X108949095Y-154332293D02*
X108930905Y-154385509D01*
X106792799Y-185168084D02*
X106785694Y-185112296D01*
X108524108Y-185911048D02*
X108477150Y-185941995D01*
X266785694Y-185112296D02*
X266781424Y-185056220D01*
X108168224Y-186074566D02*
X108113441Y-186087278D01*
X268378837Y-92996563D02*
X268327735Y-93020043D01*
X267721915Y-155097200D02*
X267666558Y-155087278D01*
X267302849Y-123941995D02*
X267255891Y-123911048D01*
X268428685Y-123970525D02*
X268378837Y-123996563D01*
X107302849Y-185941995D02*
X107255891Y-185911048D01*
X108327735Y-93020043D02*
X108275509Y-93040905D01*
X108977278Y-123223441D02*
X108964566Y-123278224D01*
X268998575Y-92056220D02*
X268994305Y-92112296D01*
X108378837Y-92996563D02*
X108327735Y-93020043D01*
X107452264Y-186020043D02*
X107401162Y-185996563D01*
X107504490Y-124040905D02*
X107452264Y-124020043D01*
X106948004Y-123587150D02*
X106919474Y-123538685D01*
X108831995Y-92587150D02*
X108801048Y-92634108D01*
X106919474Y-185538685D02*
X106893436Y-185488837D01*
X108767761Y-185679438D02*
X108732222Y-185723024D01*
X106815433Y-154278224D02*
X106802721Y-154223441D01*
X107721915Y-186097200D02*
X107666558Y-186087278D01*
X107833779Y-186108575D02*
X107777703Y-186104305D01*
X108058084Y-124097200D02*
X108002296Y-124104305D01*
X268275509Y-124040905D02*
X268222293Y-124059095D01*
X268831995Y-185587150D02*
X268801048Y-185634108D01*
X106849094Y-154385509D02*
X106830904Y-154332293D01*
X108113441Y-93087278D02*
X108058084Y-93097200D01*
X108222293Y-155059095D02*
X108168224Y-155074566D01*
X267833779Y-124108575D02*
X267777703Y-124104305D01*
X268569438Y-123877761D02*
X268524108Y-123911048D01*
X266919474Y-92538685D02*
X266893436Y-92488837D01*
X108977278Y-154223441D02*
X108964566Y-154278224D01*
X107302849Y-92941995D02*
X107255891Y-92911048D01*
X268994305Y-154112296D02*
X268987200Y-154168084D01*
X268732222Y-185723024D02*
X268694520Y-185764753D01*
X268477150Y-92941995D02*
X268428685Y-92970525D01*
X106849094Y-185385509D02*
X106830904Y-185332293D01*
X267557706Y-155059095D02*
X267504490Y-155040905D01*
X267125246Y-92804520D02*
X267085479Y-92764753D01*
X268987200Y-185168084D02*
X268977278Y-185223441D01*
X106869956Y-123437735D02*
X106849094Y-123385509D01*
X268524108Y-154911048D02*
X268477150Y-154941995D01*
X108801048Y-92634108D02*
X108767761Y-92679438D01*
X267611775Y-124074566D02*
X267557706Y-124059095D01*
X267125246Y-185804520D02*
X267085479Y-185764753D01*
X268569438Y-92877761D02*
X268524108Y-92911048D01*
X266948004Y-92587150D02*
X266919474Y-92538685D01*
X106978951Y-123634108D02*
X106948004Y-123587150D01*
X108694520Y-123764753D02*
X108654753Y-123804520D01*
X106802721Y-92223441D02*
X106792799Y-92168084D01*
X266849094Y-92385509D02*
X266830904Y-92332293D01*
X107666558Y-93087278D02*
X107611775Y-93074566D01*
X108910043Y-185437735D02*
X108886563Y-185488837D01*
X107012238Y-154679438D02*
X106978951Y-154634108D01*
X268860525Y-154538685D02*
X268831995Y-154587150D01*
X106849094Y-123385509D02*
X106830904Y-123332293D01*
X267047777Y-154723024D02*
X267012238Y-154679438D01*
X106919474Y-154538685D02*
X106893436Y-154488837D01*
X106893436Y-154488837D02*
X106869956Y-154437735D01*
X108222293Y-93059095D02*
X108168224Y-93074566D01*
X267890000Y-124109999D02*
X267833779Y-124108575D01*
X108477150Y-92941995D02*
X108428685Y-92970525D01*
X106815433Y-123278224D02*
X106802721Y-123223441D01*
X109000000Y-92000000D02*
X109000000Y-92000000D01*
X268113441Y-186087278D02*
X268058084Y-186097200D01*
X108002296Y-186104305D02*
X107946220Y-186108575D01*
X108613024Y-185842222D02*
X108569438Y-185877761D01*
X267210561Y-123877761D02*
X267166975Y-123842222D01*
X267890000Y-93109999D02*
X267833779Y-93108575D01*
X268886563Y-154488837D02*
X268886563Y-154488837D01*
X267833779Y-93108575D02*
X267777703Y-93104305D01*
X108168224Y-155074566D02*
X108113441Y-155087278D01*
X107721915Y-93097200D02*
X107666558Y-93087278D01*
X108732222Y-92723024D02*
X108694520Y-92764753D01*
X267166975Y-92842222D02*
X267125246Y-92804520D01*
X107890000Y-186109999D02*
X107833779Y-186108575D01*
X106830904Y-154332293D02*
X106815433Y-154278224D01*
X268428685Y-185970525D02*
X268378837Y-185996563D01*
X107946220Y-93108575D02*
X107890000Y-93109999D01*
X266815433Y-123278224D02*
X266802721Y-123223441D01*
X267401162Y-185996563D02*
X267351314Y-185970525D01*
X108910043Y-92437735D02*
X108886563Y-92488837D01*
X268524108Y-92911048D02*
X268477150Y-92941995D01*
X107166975Y-92842222D02*
X107125246Y-92804520D01*
X107666558Y-124087278D02*
X107611775Y-124074566D01*
X108998575Y-154056220D02*
X108994305Y-154112296D01*
X268058084Y-93097200D02*
X268002296Y-93104305D01*
X266919474Y-185538685D02*
X266893436Y-185488837D01*
X266785694Y-154112296D02*
X266781424Y-154056220D01*
X107890000Y-155109999D02*
X107833779Y-155108575D01*
X107401162Y-154996563D02*
X107351314Y-154970525D01*
X266785694Y-123112296D02*
X266781424Y-123056220D01*
X267351314Y-185970525D02*
X267302849Y-185941995D01*
X45000000Y-217000000D02*
X45000000Y-217000000D01*
X266869956Y-92437735D02*
X266849094Y-92385509D01*
X108569438Y-123877761D02*
X108524108Y-123911048D01*
X107125246Y-92804520D02*
X107085479Y-92764753D01*
X107351314Y-185970525D02*
X107302849Y-185941995D01*
X268613024Y-123842222D02*
X268569438Y-123877761D01*
X269000000Y-185000000D02*
X268998575Y-185056220D01*
X268694520Y-92764753D02*
X268654753Y-92804520D01*
X268964566Y-123278224D02*
X268949095Y-123332293D01*
X266869956Y-123437735D02*
X266849094Y-123385509D01*
X266802721Y-185223441D02*
X266792799Y-185168084D01*
X106869956Y-92437735D02*
X106849094Y-92385509D01*
X267611775Y-155074566D02*
X267557706Y-155059095D01*
X108860525Y-92538685D02*
X108831995Y-92587150D01*
X268910043Y-92437735D02*
X268886563Y-92488837D01*
X267351314Y-123970525D02*
X267302849Y-123941995D01*
X108801048Y-185634108D02*
X108767761Y-185679438D01*
X375000000Y-217000000D02*
X375000000Y-83000000D01*
X109000000Y-181000000D02*
X109000000Y-185000000D01*
X268378837Y-123996563D02*
X268327735Y-124020043D01*
X268694520Y-123764753D02*
X268654753Y-123804520D01*
X268860525Y-123538685D02*
X268831995Y-123587150D01*
X267012238Y-123679438D02*
X266978951Y-123634108D01*
X108886563Y-92488837D02*
X108860525Y-92538685D01*
X266830904Y-185332293D02*
X266815433Y-185278224D01*
X268694520Y-154764753D02*
X268654753Y-154804520D01*
X267452264Y-93020043D02*
X267401162Y-92996563D01*
X266781424Y-154056220D02*
X266780000Y-154000000D01*
X107351314Y-154970525D02*
X107302849Y-154941995D01*
X268987200Y-154168084D02*
X268977278Y-154223441D01*
X268058084Y-186097200D02*
X268002296Y-186104305D01*
X107166975Y-154842222D02*
X107125246Y-154804520D01*
X106792799Y-154168084D02*
X106785694Y-154112296D01*
X106802721Y-154223441D02*
X106792799Y-154168084D01*
X266792799Y-123168084D02*
X266785694Y-123112296D01*
X268524108Y-185911048D02*
X268477150Y-185941995D01*
X268831995Y-154587150D02*
X268801048Y-154634108D01*
X108113441Y-186087278D02*
X108058084Y-186097200D01*
X108910043Y-154437735D02*
X108886563Y-154488837D01*
X107557706Y-155059095D02*
X107504490Y-155040905D01*
X266893436Y-185488837D02*
X266869956Y-185437735D01*
X269000000Y-88000000D02*
X269000000Y-92000000D01*
X108524108Y-123911048D02*
X108477150Y-123941995D01*
X108860525Y-123538685D02*
X108831995Y-123587150D01*
X106781424Y-92056220D02*
X106780000Y-92000000D01*
X266948004Y-154587150D02*
X266919474Y-154538685D01*
X109000000Y-150000000D02*
X109000000Y-154000000D01*
X267012238Y-92679438D02*
X266978951Y-92634108D01*
X267611775Y-186074566D02*
X267557706Y-186059095D01*
X267166975Y-185842222D02*
X267125246Y-185804520D01*
X107125246Y-123804520D02*
X107085479Y-123764753D01*
X107302849Y-154941995D02*
X107255891Y-154911048D01*
X108477150Y-154941995D02*
X108428685Y-154970525D01*
X268949095Y-154332293D02*
X268930905Y-154385509D01*
X107210561Y-92877761D02*
X107166975Y-92842222D01*
X106948004Y-154587150D02*
X106919474Y-154538685D01*
X266948004Y-123587150D02*
X266919474Y-123538685D01*
X108613024Y-154842222D02*
X108569438Y-154877761D01*
X267504490Y-124040905D02*
X267452264Y-124020043D01*
X267833779Y-155108575D02*
X267777703Y-155104305D01*
X267210561Y-92877761D02*
X267166975Y-92842222D01*
X267351314Y-92970525D02*
X267302849Y-92941995D01*
X108524108Y-154911048D02*
X108477150Y-154941995D01*
X267210561Y-154877761D02*
X267166975Y-154842222D01*
X45000000Y-217000000D02*
X375000000Y-217000000D01*
X268569438Y-154877761D02*
X268524108Y-154911048D01*
X268168224Y-155074566D02*
X268113441Y-155087278D01*
X266978951Y-154634108D02*
X266948004Y-154587150D01*
X108994305Y-92112296D02*
X108987200Y-92168084D01*
X107452264Y-124020043D02*
X107401162Y-123996563D01*
X267946220Y-186108575D02*
X267890000Y-186109999D01*
X268002296Y-155104305D02*
X267946220Y-155108575D01*
X108694520Y-185764753D02*
X108654753Y-185804520D01*
X106830904Y-92332293D02*
X106815433Y-92278224D01*
X106869956Y-154437735D02*
X106849094Y-154385509D01*
X108801048Y-123634108D02*
X108767761Y-123679438D01*
X267946220Y-124108575D02*
X267890000Y-124109999D01*
D11*
X210000000Y-80000000D02*
X210000000Y-220000000D01*
X370000000Y-80000000D02*
X370000000Y-220000000D01*
D10*
X268168224Y-93074566D02*
X268113441Y-93087278D01*
X267166975Y-154842222D02*
X267125246Y-154804520D01*
X267557706Y-124059095D02*
X267504490Y-124040905D01*
X106919474Y-123538685D02*
X106893436Y-123488837D01*
X268477150Y-123941995D02*
X268428685Y-123970525D01*
X268987200Y-123168084D02*
X268977278Y-123223441D01*
X268964566Y-185278224D02*
X268949095Y-185332293D01*
X266802721Y-92223441D02*
X266792799Y-92168084D01*
X268949095Y-185332293D02*
X268930905Y-185385509D01*
X268886563Y-92488837D02*
X268860525Y-92538685D01*
X106780000Y-181000000D02*
X109000000Y-181000000D01*
X107125246Y-154804520D02*
X107085479Y-154764753D01*
X266919474Y-123538685D02*
X266893436Y-123488837D01*
X108694520Y-92764753D02*
X108654753Y-92804520D01*
X266780000Y-181000000D02*
X269000000Y-181000000D01*
X106785694Y-92112296D02*
X106781424Y-92056220D01*
X107085479Y-185764753D02*
X107047777Y-185723024D01*
X266815433Y-154278224D02*
X266802721Y-154223441D01*
X268378837Y-185996563D02*
X268327735Y-186020043D01*
X268002296Y-93104305D02*
X267946220Y-93108575D01*
X106893436Y-92488837D02*
X106869956Y-92437735D01*
X108930905Y-154385509D02*
X108910043Y-154437735D01*
X107777703Y-93104305D02*
X107721915Y-93097200D01*
X267047777Y-123723024D02*
X267012238Y-123679438D01*
D11*
X42000000Y-88000000D02*
X378000000Y-88000000D01*
D10*
X266802721Y-154223441D02*
X266792799Y-154168084D01*
X107557706Y-124059095D02*
X107504490Y-124040905D01*
X108428685Y-123970525D02*
X108378837Y-123996563D01*
X266780000Y-185000000D02*
X266780000Y-181000000D01*
X267721915Y-186097200D02*
X267666558Y-186087278D01*
X266830904Y-123332293D02*
X266815433Y-123278224D01*
X107504490Y-186040905D02*
X107452264Y-186020043D01*
X108613024Y-92842222D02*
X108569438Y-92877761D01*
X268994305Y-123112296D02*
X268987200Y-123168084D01*
X107047777Y-185723024D02*
X107012238Y-185679438D01*
X107012238Y-123679438D02*
X106978951Y-123634108D01*
X267255891Y-154911048D02*
X267210561Y-154877761D01*
X267047777Y-92723024D02*
X267012238Y-92679438D01*
D11*
X42000000Y-212000000D02*
X378000000Y-212000000D01*
D10*
X268767761Y-92679438D02*
X268732222Y-92723024D01*
X266830904Y-92332293D02*
X266815433Y-92278224D01*
X107666558Y-155087278D02*
X107611775Y-155074566D01*
X268998575Y-154056220D02*
X268994305Y-154112296D01*
X108949095Y-185332293D02*
X108930905Y-185385509D01*
X268994305Y-92112296D02*
X268987200Y-92168084D01*
X267504490Y-186040905D02*
X267452264Y-186020043D01*
X108886563Y-185488837D02*
X108860525Y-185538685D01*
X108058084Y-186097200D02*
X108002296Y-186104305D01*
X107777703Y-155104305D02*
X107721915Y-155097200D01*
X268998575Y-123056220D02*
X268994305Y-123112296D01*
X266948004Y-185587150D02*
X266919474Y-185538685D01*
X108964566Y-185278224D02*
X108949095Y-185332293D01*
X268767761Y-154679438D02*
X268732222Y-154723024D01*
X107401162Y-123996563D02*
X107351314Y-123970525D01*
X106978951Y-154634108D02*
X106948004Y-154587150D01*
X108977278Y-185223441D02*
X108964566Y-185278224D01*
X106780000Y-119000000D02*
X109000000Y-119000000D01*
X268654753Y-123804520D02*
X268613024Y-123842222D01*
X107302849Y-123941995D02*
X107255891Y-123911048D01*
X108831995Y-185587150D02*
X108801048Y-185634108D01*
X268477150Y-185941995D02*
X268428685Y-185970525D01*
X107721915Y-124097200D02*
X107666558Y-124087278D01*
X107255891Y-185911048D02*
X107210561Y-185877761D01*
D12*
X208734761Y-76809523D02*
X210734761Y-76142857D01*
X210734761Y-76142857D02*
X208734761Y-75476190D01*
X209972857Y-74809523D02*
X209972857Y-73285714D01*
X210544285Y-71190476D02*
X210639523Y-71285714D01*
X210639523Y-71285714D02*
X210734761Y-71571428D01*
X210734761Y-71571428D02*
X210734761Y-71761904D01*
X210734761Y-71761904D02*
X210639523Y-72047619D01*
X210639523Y-72047619D02*
X210449047Y-72238095D01*
X210449047Y-72238095D02*
X210258571Y-72333333D01*
X210258571Y-72333333D02*
X209877619Y-72428571D01*
X209877619Y-72428571D02*
X209591904Y-72428571D01*
X209591904Y-72428571D02*
X209210952Y-72333333D01*
X209210952Y-72333333D02*
X209020476Y-72238095D01*
X209020476Y-72238095D02*
X208830000Y-72047619D01*
X208830000Y-72047619D02*
X208734761Y-71761904D01*
X208734761Y-71761904D02*
X208734761Y-71571428D01*
X208734761Y-71571428D02*
X208830000Y-71285714D01*
X208830000Y-71285714D02*
X208925238Y-71190476D01*
X208734761Y-70333333D02*
X210353809Y-70333333D01*
X210353809Y-70333333D02*
X210544285Y-70238095D01*
X210544285Y-70238095D02*
X210639523Y-70142857D01*
X210639523Y-70142857D02*
X210734761Y-69952381D01*
X210734761Y-69952381D02*
X210734761Y-69571428D01*
X210734761Y-69571428D02*
X210639523Y-69380952D01*
X210639523Y-69380952D02*
X210544285Y-69285714D01*
X210544285Y-69285714D02*
X210353809Y-69190476D01*
X210353809Y-69190476D02*
X208734761Y-69190476D01*
X208734761Y-68523809D02*
X208734761Y-67380952D01*
X210734761Y-67952381D02*
X208734761Y-67952381D01*
X381190476Y-210734761D02*
X381857142Y-212734761D01*
X381857142Y-212734761D02*
X382523809Y-210734761D01*
X383190476Y-211972857D02*
X384714286Y-211972857D01*
X386809523Y-212544285D02*
X386714285Y-212639523D01*
X386714285Y-212639523D02*
X386428571Y-212734761D01*
X386428571Y-212734761D02*
X386238095Y-212734761D01*
X386238095Y-212734761D02*
X385952380Y-212639523D01*
X385952380Y-212639523D02*
X385761904Y-212449047D01*
X385761904Y-212449047D02*
X385666666Y-212258571D01*
X385666666Y-212258571D02*
X385571428Y-211877619D01*
X385571428Y-211877619D02*
X385571428Y-211591904D01*
X385571428Y-211591904D02*
X385666666Y-211210952D01*
X385666666Y-211210952D02*
X385761904Y-211020476D01*
X385761904Y-211020476D02*
X385952380Y-210830000D01*
X385952380Y-210830000D02*
X386238095Y-210734761D01*
X386238095Y-210734761D02*
X386428571Y-210734761D01*
X386428571Y-210734761D02*
X386714285Y-210830000D01*
X386714285Y-210830000D02*
X386809523Y-210925238D01*
X387666666Y-210734761D02*
X387666666Y-212353809D01*
X387666666Y-212353809D02*
X387761904Y-212544285D01*
X387761904Y-212544285D02*
X387857142Y-212639523D01*
X387857142Y-212639523D02*
X388047618Y-212734761D01*
X388047618Y-212734761D02*
X388428571Y-212734761D01*
X388428571Y-212734761D02*
X388619047Y-212639523D01*
X388619047Y-212639523D02*
X388714285Y-212544285D01*
X388714285Y-212544285D02*
X388809523Y-212353809D01*
X388809523Y-212353809D02*
X388809523Y-210734761D01*
X389476190Y-210734761D02*
X390619047Y-210734761D01*
X390047618Y-212734761D02*
X390047618Y-210734761D01*
X381190476Y-148734761D02*
X381857142Y-150734761D01*
X381857142Y-150734761D02*
X382523809Y-148734761D01*
X383190476Y-149972857D02*
X384714286Y-149972857D01*
X386809523Y-150544285D02*
X386714285Y-150639523D01*
X386714285Y-150639523D02*
X386428571Y-150734761D01*
X386428571Y-150734761D02*
X386238095Y-150734761D01*
X386238095Y-150734761D02*
X385952380Y-150639523D01*
X385952380Y-150639523D02*
X385761904Y-150449047D01*
X385761904Y-150449047D02*
X385666666Y-150258571D01*
X385666666Y-150258571D02*
X385571428Y-149877619D01*
X385571428Y-149877619D02*
X385571428Y-149591904D01*
X385571428Y-149591904D02*
X385666666Y-149210952D01*
X385666666Y-149210952D02*
X385761904Y-149020476D01*
X385761904Y-149020476D02*
X385952380Y-148830000D01*
X385952380Y-148830000D02*
X386238095Y-148734761D01*
X386238095Y-148734761D02*
X386428571Y-148734761D01*
X386428571Y-148734761D02*
X386714285Y-148830000D01*
X386714285Y-148830000D02*
X386809523Y-148925238D01*
X387666666Y-148734761D02*
X387666666Y-150353809D01*
X387666666Y-150353809D02*
X387761904Y-150544285D01*
X387761904Y-150544285D02*
X387857142Y-150639523D01*
X387857142Y-150639523D02*
X388047618Y-150734761D01*
X388047618Y-150734761D02*
X388428571Y-150734761D01*
X388428571Y-150734761D02*
X388619047Y-150639523D01*
X388619047Y-150639523D02*
X388714285Y-150544285D01*
X388714285Y-150544285D02*
X388809523Y-150353809D01*
X388809523Y-150353809D02*
X388809523Y-148734761D01*
X389476190Y-148734761D02*
X390619047Y-148734761D01*
X390047618Y-150734761D02*
X390047618Y-148734761D01*
X381190476Y-117734761D02*
X381857142Y-119734761D01*
X381857142Y-119734761D02*
X382523809Y-117734761D01*
X383190476Y-118972857D02*
X384714286Y-118972857D01*
X386809523Y-119544285D02*
X386714285Y-119639523D01*
X386714285Y-119639523D02*
X386428571Y-119734761D01*
X386428571Y-119734761D02*
X386238095Y-119734761D01*
X386238095Y-119734761D02*
X385952380Y-119639523D01*
X385952380Y-119639523D02*
X385761904Y-119449047D01*
X385761904Y-119449047D02*
X385666666Y-119258571D01*
X385666666Y-119258571D02*
X385571428Y-118877619D01*
X385571428Y-118877619D02*
X385571428Y-118591904D01*
X385571428Y-118591904D02*
X385666666Y-118210952D01*
X385666666Y-118210952D02*
X385761904Y-118020476D01*
X385761904Y-118020476D02*
X385952380Y-117830000D01*
X385952380Y-117830000D02*
X386238095Y-117734761D01*
X386238095Y-117734761D02*
X386428571Y-117734761D01*
X386428571Y-117734761D02*
X386714285Y-117830000D01*
X386714285Y-117830000D02*
X386809523Y-117925238D01*
X387666666Y-117734761D02*
X387666666Y-119353809D01*
X387666666Y-119353809D02*
X387761904Y-119544285D01*
X387761904Y-119544285D02*
X387857142Y-119639523D01*
X387857142Y-119639523D02*
X388047618Y-119734761D01*
X388047618Y-119734761D02*
X388428571Y-119734761D01*
X388428571Y-119734761D02*
X388619047Y-119639523D01*
X388619047Y-119639523D02*
X388714285Y-119544285D01*
X388714285Y-119544285D02*
X388809523Y-119353809D01*
X388809523Y-119353809D02*
X388809523Y-117734761D01*
X389476190Y-117734761D02*
X390619047Y-117734761D01*
X390047618Y-119734761D02*
X390047618Y-117734761D01*
X381190476Y-86734761D02*
X381857142Y-88734761D01*
X381857142Y-88734761D02*
X382523809Y-86734761D01*
X383190476Y-87972857D02*
X384714286Y-87972857D01*
X386809523Y-88544285D02*
X386714285Y-88639523D01*
X386714285Y-88639523D02*
X386428571Y-88734761D01*
X386428571Y-88734761D02*
X386238095Y-88734761D01*
X386238095Y-88734761D02*
X385952380Y-88639523D01*
X385952380Y-88639523D02*
X385761904Y-88449047D01*
X385761904Y-88449047D02*
X385666666Y-88258571D01*
X385666666Y-88258571D02*
X385571428Y-87877619D01*
X385571428Y-87877619D02*
X385571428Y-87591904D01*
X385571428Y-87591904D02*
X385666666Y-87210952D01*
X385666666Y-87210952D02*
X385761904Y-87020476D01*
X385761904Y-87020476D02*
X385952380Y-86830000D01*
X385952380Y-86830000D02*
X386238095Y-86734761D01*
X386238095Y-86734761D02*
X386428571Y-86734761D01*
X386428571Y-86734761D02*
X386714285Y-86830000D01*
X386714285Y-86830000D02*
X386809523Y-86925238D01*
X387666666Y-86734761D02*
X387666666Y-88353809D01*
X387666666Y-88353809D02*
X387761904Y-88544285D01*
X387761904Y-88544285D02*
X387857142Y-88639523D01*
X387857142Y-88639523D02*
X388047618Y-88734761D01*
X388047618Y-88734761D02*
X388428571Y-88734761D01*
X388428571Y-88734761D02*
X388619047Y-88639523D01*
X388619047Y-88639523D02*
X388714285Y-88544285D01*
X388714285Y-88544285D02*
X388809523Y-88353809D01*
X388809523Y-88353809D02*
X388809523Y-86734761D01*
X389476190Y-86734761D02*
X390619047Y-86734761D01*
X390047618Y-88734761D02*
X390047618Y-86734761D01*
X381190476Y-179734761D02*
X381857142Y-181734761D01*
X381857142Y-181734761D02*
X382523809Y-179734761D01*
X383190476Y-180972857D02*
X384714286Y-180972857D01*
X386809523Y-181544285D02*
X386714285Y-181639523D01*
X386714285Y-181639523D02*
X386428571Y-181734761D01*
X386428571Y-181734761D02*
X386238095Y-181734761D01*
X386238095Y-181734761D02*
X385952380Y-181639523D01*
X385952380Y-181639523D02*
X385761904Y-181449047D01*
X385761904Y-181449047D02*
X385666666Y-181258571D01*
X385666666Y-181258571D02*
X385571428Y-180877619D01*
X385571428Y-180877619D02*
X385571428Y-180591904D01*
X385571428Y-180591904D02*
X385666666Y-180210952D01*
X385666666Y-180210952D02*
X385761904Y-180020476D01*
X385761904Y-180020476D02*
X385952380Y-179830000D01*
X385952380Y-179830000D02*
X386238095Y-179734761D01*
X386238095Y-179734761D02*
X386428571Y-179734761D01*
X386428571Y-179734761D02*
X386714285Y-179830000D01*
X386714285Y-179830000D02*
X386809523Y-179925238D01*
X387666666Y-179734761D02*
X387666666Y-181353809D01*
X387666666Y-181353809D02*
X387761904Y-181544285D01*
X387761904Y-181544285D02*
X387857142Y-181639523D01*
X387857142Y-181639523D02*
X388047618Y-181734761D01*
X388047618Y-181734761D02*
X388428571Y-181734761D01*
X388428571Y-181734761D02*
X388619047Y-181639523D01*
X388619047Y-181639523D02*
X388714285Y-181544285D01*
X388714285Y-181544285D02*
X388809523Y-181353809D01*
X388809523Y-181353809D02*
X388809523Y-179734761D01*
X389476190Y-179734761D02*
X390619047Y-179734761D01*
X390047618Y-181734761D02*
X390047618Y-179734761D01*
X368734761Y-76809523D02*
X370734761Y-76142857D01*
X370734761Y-76142857D02*
X368734761Y-75476190D01*
X369972857Y-74809523D02*
X369972857Y-73285714D01*
X370544285Y-71190476D02*
X370639523Y-71285714D01*
X370639523Y-71285714D02*
X370734761Y-71571428D01*
X370734761Y-71571428D02*
X370734761Y-71761904D01*
X370734761Y-71761904D02*
X370639523Y-72047619D01*
X370639523Y-72047619D02*
X370449047Y-72238095D01*
X370449047Y-72238095D02*
X370258571Y-72333333D01*
X370258571Y-72333333D02*
X369877619Y-72428571D01*
X369877619Y-72428571D02*
X369591904Y-72428571D01*
X369591904Y-72428571D02*
X369210952Y-72333333D01*
X369210952Y-72333333D02*
X369020476Y-72238095D01*
X369020476Y-72238095D02*
X368830000Y-72047619D01*
X368830000Y-72047619D02*
X368734761Y-71761904D01*
X368734761Y-71761904D02*
X368734761Y-71571428D01*
X368734761Y-71571428D02*
X368830000Y-71285714D01*
X368830000Y-71285714D02*
X368925238Y-71190476D01*
X368734761Y-70333333D02*
X370353809Y-70333333D01*
X370353809Y-70333333D02*
X370544285Y-70238095D01*
X370544285Y-70238095D02*
X370639523Y-70142857D01*
X370639523Y-70142857D02*
X370734761Y-69952381D01*
X370734761Y-69952381D02*
X370734761Y-69571428D01*
X370734761Y-69571428D02*
X370639523Y-69380952D01*
X370639523Y-69380952D02*
X370544285Y-69285714D01*
X370544285Y-69285714D02*
X370353809Y-69190476D01*
X370353809Y-69190476D02*
X368734761Y-69190476D01*
X368734761Y-68523809D02*
X368734761Y-67380952D01*
X370734761Y-67952381D02*
X368734761Y-67952381D01*
X48734761Y-76809523D02*
X50734761Y-76142857D01*
X50734761Y-76142857D02*
X48734761Y-75476190D01*
X49972857Y-74809523D02*
X49972857Y-73285714D01*
X50544285Y-71190476D02*
X50639523Y-71285714D01*
X50639523Y-71285714D02*
X50734761Y-71571428D01*
X50734761Y-71571428D02*
X50734761Y-71761904D01*
X50734761Y-71761904D02*
X50639523Y-72047619D01*
X50639523Y-72047619D02*
X50449047Y-72238095D01*
X50449047Y-72238095D02*
X50258571Y-72333333D01*
X50258571Y-72333333D02*
X49877619Y-72428571D01*
X49877619Y-72428571D02*
X49591904Y-72428571D01*
X49591904Y-72428571D02*
X49210952Y-72333333D01*
X49210952Y-72333333D02*
X49020476Y-72238095D01*
X49020476Y-72238095D02*
X48830000Y-72047619D01*
X48830000Y-72047619D02*
X48734761Y-71761904D01*
X48734761Y-71761904D02*
X48734761Y-71571428D01*
X48734761Y-71571428D02*
X48830000Y-71285714D01*
X48830000Y-71285714D02*
X48925238Y-71190476D01*
X48734761Y-70333333D02*
X50353809Y-70333333D01*
X50353809Y-70333333D02*
X50544285Y-70238095D01*
X50544285Y-70238095D02*
X50639523Y-70142857D01*
X50639523Y-70142857D02*
X50734761Y-69952381D01*
X50734761Y-69952381D02*
X50734761Y-69571428D01*
X50734761Y-69571428D02*
X50639523Y-69380952D01*
X50639523Y-69380952D02*
X50544285Y-69285714D01*
X50544285Y-69285714D02*
X50353809Y-69190476D01*
X50353809Y-69190476D02*
X48734761Y-69190476D01*
X48734761Y-68523809D02*
X48734761Y-67380952D01*
X50734761Y-67952381D02*
X48734761Y-67952381D01*
M02*
