%TF.GenerationSoftware,KiCad,Pcbnew,(7.0.0)*%
%TF.CreationDate,2023-07-13T12:21:55+02:00*%
%TF.ProjectId,Panelization,50616e65-6c69-47a6-9174-696f6e2e6b69,V1*%
%TF.SameCoordinates,PX2d4cae0PY73df160*%
%TF.FileFunction,Soldermask,Top*%
%TF.FilePolarity,Negative*%
%FSLAX46Y46*%
G04 Gerber Fmt 4.6, Leading zero omitted, Abs format (unit mm)*
G04 Created by KiCad (PCBNEW (7.0.0)) date 2023-07-13 12:21:55*
%MOMM*%
%LPD*%
G01*
G04 APERTURE LIST*
G04 Aperture macros list*
%AMRoundRect*
0 Rectangle with rounded corners*
0 $1 Rounding radius*
0 $2 $3 $4 $5 $6 $7 $8 $9 X,Y pos of 4 corners*
0 Add a 4 corners polygon primitive as box body*
4,1,4,$2,$3,$4,$5,$6,$7,$8,$9,$2,$3,0*
0 Add four circle primitives for the rounded corners*
1,1,$1+$1,$2,$3*
1,1,$1+$1,$4,$5*
1,1,$1+$1,$6,$7*
1,1,$1+$1,$8,$9*
0 Add four rect primitives between the rounded corners*
20,1,$1+$1,$2,$3,$4,$5,0*
20,1,$1+$1,$4,$5,$6,$7,0*
20,1,$1+$1,$6,$7,$8,$9,0*
20,1,$1+$1,$8,$9,$2,$3,0*%
G04 Aperture macros list end*
%ADD10C,3.200000*%
%ADD11RoundRect,0.250000X-0.475000X0.250000X-0.475000X-0.250000X0.475000X-0.250000X0.475000X0.250000X0*%
%ADD12C,0.001000*%
%ADD13R,0.280000X2.400000*%
%ADD14C,2.660000*%
%ADD15C,1.982000*%
%ADD16RoundRect,0.250000X0.475000X-0.250000X0.475000X0.250000X-0.475000X0.250000X-0.475000X-0.250000X0*%
%ADD17C,2.000000*%
%ADD18C,2.100000*%
%ADD19R,0.500000X1.480000*%
%ADD20R,1.500000X2.000000*%
%TA.AperFunction,Profile*%
%ADD21C,0.100000*%
%TD*%
G04 APERTURE END LIST*
D10*
%TO.C,*%
X318380000Y-31830000D03*
%TD*%
D11*
%TO.C,C2*%
X117810000Y-45140000D03*
X117810000Y-47040000D03*
%TD*%
D12*
%TO.C,J5*%
X118132000Y-24100000D03*
D13*
X123631999Y-13939999D03*
X123131999Y-13939999D03*
X122631999Y-13939999D03*
X122131999Y-13939999D03*
X121631999Y-13939999D03*
X121131999Y-13939999D03*
X120631999Y-13939999D03*
X120131999Y-13939999D03*
X119631999Y-13939999D03*
X119131999Y-13939999D03*
X118631999Y-13939999D03*
X118131999Y-13939999D03*
X117631999Y-13939999D03*
X117131999Y-13939999D03*
X116631999Y-13939999D03*
X116131999Y-13939999D03*
X115631999Y-13939999D03*
X115131999Y-13939999D03*
X114631999Y-13939999D03*
X114131999Y-13939999D03*
D14*
X109882000Y-16540000D03*
D15*
X109882000Y-23320000D03*
X126382000Y-23320000D03*
D14*
X126382000Y-16540000D03*
%TD*%
D16*
%TO.C,C3*%
X71090000Y-11860000D03*
X71090000Y-9960000D03*
%TD*%
D12*
%TO.C,J4*%
X230766000Y-32900000D03*
D13*
X225265999Y-43059999D03*
X225765999Y-43059999D03*
X226265999Y-43059999D03*
X226765999Y-43059999D03*
X227265999Y-43059999D03*
X227765999Y-43059999D03*
X228265999Y-43059999D03*
X228765999Y-43059999D03*
X229265999Y-43059999D03*
X229765999Y-43059999D03*
X230265999Y-43059999D03*
X230765999Y-43059999D03*
X231265999Y-43059999D03*
X231765999Y-43059999D03*
X232265999Y-43059999D03*
X232765999Y-43059999D03*
X233265999Y-43059999D03*
X233765999Y-43059999D03*
X234265999Y-43059999D03*
X234765999Y-43059999D03*
D14*
X239016000Y-40460000D03*
D15*
X239016000Y-33680000D03*
X222516000Y-33680000D03*
D14*
X222516000Y-40460000D03*
%TD*%
D12*
%TO.C,J2*%
X46436000Y-24099000D03*
D13*
X51935999Y-13938999D03*
X51435999Y-13938999D03*
X50935999Y-13938999D03*
X50435999Y-13938999D03*
X49935999Y-13938999D03*
X49435999Y-13938999D03*
X48935999Y-13938999D03*
X48435999Y-13938999D03*
X47935999Y-13938999D03*
X47435999Y-13938999D03*
X46935999Y-13938999D03*
X46435999Y-13938999D03*
X45935999Y-13938999D03*
X45435999Y-13938999D03*
X44935999Y-13938999D03*
X44435999Y-13938999D03*
X43935999Y-13938999D03*
X43435999Y-13938999D03*
X42935999Y-13938999D03*
X42435999Y-13938999D03*
D14*
X38186000Y-16539000D03*
D15*
X38186000Y-23319000D03*
X54686000Y-23319000D03*
D14*
X54686000Y-16539000D03*
%TD*%
D12*
%TO.C,J2*%
X206436000Y-24099000D03*
D13*
X211935999Y-13938999D03*
X211435999Y-13938999D03*
X210935999Y-13938999D03*
X210435999Y-13938999D03*
X209935999Y-13938999D03*
X209435999Y-13938999D03*
X208935999Y-13938999D03*
X208435999Y-13938999D03*
X207935999Y-13938999D03*
X207435999Y-13938999D03*
X206935999Y-13938999D03*
X206435999Y-13938999D03*
X205935999Y-13938999D03*
X205435999Y-13938999D03*
X204935999Y-13938999D03*
X204435999Y-13938999D03*
X203935999Y-13938999D03*
X203435999Y-13938999D03*
X202935999Y-13938999D03*
X202435999Y-13938999D03*
D14*
X198186000Y-16539000D03*
D15*
X198186000Y-23319000D03*
X214686000Y-23319000D03*
D14*
X214686000Y-16539000D03*
%TD*%
D11*
%TO.C,C3*%
X253910000Y-45140000D03*
X253910000Y-47040000D03*
%TD*%
D16*
%TO.C,C6*%
X302780000Y-11860000D03*
X302780000Y-9960000D03*
%TD*%
D12*
%TO.C,J1*%
X302460000Y-32900000D03*
D13*
X296959999Y-43059999D03*
X297459999Y-43059999D03*
X297959999Y-43059999D03*
X298459999Y-43059999D03*
X298959999Y-43059999D03*
X299459999Y-43059999D03*
X299959999Y-43059999D03*
X300459999Y-43059999D03*
X300959999Y-43059999D03*
X301459999Y-43059999D03*
X301959999Y-43059999D03*
X302459999Y-43059999D03*
X302959999Y-43059999D03*
X303459999Y-43059999D03*
X303959999Y-43059999D03*
X304459999Y-43059999D03*
X304959999Y-43059999D03*
X305459999Y-43059999D03*
X305959999Y-43059999D03*
X306459999Y-43059999D03*
D14*
X310710000Y-40460000D03*
D15*
X310710000Y-33680000D03*
X294210000Y-33680000D03*
D14*
X294210000Y-40460000D03*
%TD*%
D17*
%TO.C,REF_Top*%
X3989000Y-26981000D03*
%TD*%
D12*
%TO.C,J1*%
X142460000Y-32900000D03*
D13*
X136959999Y-43059999D03*
X137459999Y-43059999D03*
X137959999Y-43059999D03*
X138459999Y-43059999D03*
X138959999Y-43059999D03*
X139459999Y-43059999D03*
X139959999Y-43059999D03*
X140459999Y-43059999D03*
X140959999Y-43059999D03*
X141459999Y-43059999D03*
X141959999Y-43059999D03*
X142459999Y-43059999D03*
X142959999Y-43059999D03*
X143459999Y-43059999D03*
X143959999Y-43059999D03*
X144459999Y-43059999D03*
X144959999Y-43059999D03*
X145459999Y-43059999D03*
X145959999Y-43059999D03*
X146459999Y-43059999D03*
D14*
X150710000Y-40460000D03*
D15*
X150710000Y-33680000D03*
X134210000Y-33680000D03*
D14*
X134210000Y-40460000D03*
%TD*%
D16*
%TO.C,C4*%
X94980000Y-11860000D03*
X94980000Y-9960000D03*
%TD*%
%TO.C,C1*%
X183270000Y-11860000D03*
X183270000Y-9960000D03*
%TD*%
D12*
%TO.C,J6*%
X142030000Y-24100000D03*
D13*
X147529999Y-13939999D03*
X147029999Y-13939999D03*
X146529999Y-13939999D03*
X146029999Y-13939999D03*
X145529999Y-13939999D03*
X145029999Y-13939999D03*
X144529999Y-13939999D03*
X144029999Y-13939999D03*
X143529999Y-13939999D03*
X143029999Y-13939999D03*
X142529999Y-13939999D03*
X142029999Y-13939999D03*
X141529999Y-13939999D03*
X141029999Y-13939999D03*
X140529999Y-13939999D03*
X140029999Y-13939999D03*
X139529999Y-13939999D03*
X139029999Y-13939999D03*
X138529999Y-13939999D03*
X138029999Y-13939999D03*
D14*
X133780000Y-16540000D03*
D15*
X133780000Y-23320000D03*
X150280000Y-23320000D03*
D14*
X150280000Y-16540000D03*
%TD*%
D11*
%TO.C,C6*%
X182220000Y-45140000D03*
X182220000Y-47040000D03*
%TD*%
%TO.C,C5*%
X206120000Y-45140000D03*
X206120000Y-47040000D03*
%TD*%
D18*
%TO.C,J7*%
X264610000Y-55500000D03*
D19*
X262099999Y-57439999D03*
X261299999Y-57439999D03*
X260499999Y-57439999D03*
X259699999Y-57439999D03*
X258899999Y-57439999D03*
X258099999Y-57439999D03*
X257299999Y-57439999D03*
X256499999Y-57439999D03*
X255699999Y-57439999D03*
X254899999Y-57439999D03*
X254099999Y-57439999D03*
X253299999Y-57439999D03*
X252499999Y-57439999D03*
X251699999Y-57439999D03*
X250899999Y-57439999D03*
X250099999Y-57439999D03*
X249299999Y-57439999D03*
X248499999Y-57439999D03*
X247699999Y-57439999D03*
X246899999Y-57439999D03*
X246099999Y-57439999D03*
X245299999Y-57439999D03*
X244499999Y-57439999D03*
X243699999Y-57439999D03*
X242899999Y-57439999D03*
X242099999Y-57439999D03*
X241299999Y-57439999D03*
X240499999Y-57439999D03*
X239699999Y-57439999D03*
X238899999Y-57439999D03*
X238099999Y-57439999D03*
X237299999Y-57439999D03*
X236499999Y-57439999D03*
X235699999Y-57439999D03*
X234899999Y-57439999D03*
X234099999Y-57439999D03*
X233299999Y-57439999D03*
X232499999Y-57439999D03*
X231699999Y-57439999D03*
X230899999Y-57439999D03*
X230099999Y-57439999D03*
X229299999Y-57439999D03*
X228499999Y-57439999D03*
X227699999Y-57439999D03*
X226899999Y-57439999D03*
X226099999Y-57439999D03*
X225299999Y-57439999D03*
X224499999Y-57439999D03*
X223699999Y-57439999D03*
X222899999Y-57439999D03*
D20*
X266999999Y-57299999D03*
X217999999Y-57299999D03*
%TD*%
D16*
%TO.C,C2*%
X207190000Y-11860000D03*
X207190000Y-9960000D03*
%TD*%
D18*
%TO.C,J7*%
X60390000Y-1500000D03*
D19*
X62899999Y439999D03*
X63699999Y439999D03*
X64499999Y439999D03*
X65299999Y439999D03*
X66099999Y439999D03*
X66899999Y439999D03*
X67699999Y439999D03*
X68499999Y439999D03*
X69299999Y439999D03*
X70099999Y439999D03*
X70899999Y439999D03*
X71699999Y439999D03*
X72499999Y439999D03*
X73299999Y439999D03*
X74099999Y439999D03*
X74899999Y439999D03*
X75699999Y439999D03*
X76499999Y439999D03*
X77299999Y439999D03*
X78099999Y439999D03*
X78899999Y439999D03*
X79699999Y439999D03*
X80499999Y439999D03*
X81299999Y439999D03*
X82099999Y439999D03*
X82899999Y439999D03*
X83699999Y439999D03*
X84499999Y439999D03*
X85299999Y439999D03*
X86099999Y439999D03*
X86899999Y439999D03*
X87699999Y439999D03*
X88499999Y439999D03*
X89299999Y439999D03*
X90099999Y439999D03*
X90899999Y439999D03*
X91699999Y439999D03*
X92499999Y439999D03*
X93299999Y439999D03*
X94099999Y439999D03*
X94899999Y439999D03*
X95699999Y439999D03*
X96499999Y439999D03*
X97299999Y439999D03*
X98099999Y439999D03*
X98899999Y439999D03*
X99699999Y439999D03*
X100499999Y439999D03*
X101299999Y439999D03*
X102099999Y439999D03*
D20*
X57999999Y299999D03*
X106999999Y299999D03*
%TD*%
D16*
%TO.C,C5*%
X278880000Y-11860000D03*
X278880000Y-9960000D03*
%TD*%
D11*
%TO.C,C3*%
X93910000Y-45140000D03*
X93910000Y-47040000D03*
%TD*%
D10*
%TO.C,*%
X6380000Y-55830000D03*
%TD*%
%TO.C,*%
X318380000Y-55830000D03*
%TD*%
%TO.C,*%
X166620000Y-25170000D03*
%TD*%
D12*
%TO.C,J4*%
X70766000Y-32900000D03*
D13*
X65265999Y-43059999D03*
X65765999Y-43059999D03*
X66265999Y-43059999D03*
X66765999Y-43059999D03*
X67265999Y-43059999D03*
X67765999Y-43059999D03*
X68265999Y-43059999D03*
X68765999Y-43059999D03*
X69265999Y-43059999D03*
X69765999Y-43059999D03*
X70265999Y-43059999D03*
X70765999Y-43059999D03*
X71265999Y-43059999D03*
X71765999Y-43059999D03*
X72265999Y-43059999D03*
X72765999Y-43059999D03*
X73265999Y-43059999D03*
X73765999Y-43059999D03*
X74265999Y-43059999D03*
X74765999Y-43059999D03*
D14*
X79016000Y-40460000D03*
D15*
X79016000Y-33680000D03*
X62516000Y-33680000D03*
D14*
X62516000Y-40460000D03*
%TD*%
D16*
%TO.C,C3*%
X231090000Y-11860000D03*
X231090000Y-9960000D03*
%TD*%
D10*
%TO.C,*%
X318620000Y-25170000D03*
%TD*%
%TO.C,*%
X6620000Y-25170000D03*
%TD*%
D12*
%TO.C,J6*%
X302030000Y-24100000D03*
D13*
X307529999Y-13939999D03*
X307029999Y-13939999D03*
X306529999Y-13939999D03*
X306029999Y-13939999D03*
X305529999Y-13939999D03*
X305029999Y-13939999D03*
X304529999Y-13939999D03*
X304029999Y-13939999D03*
X303529999Y-13939999D03*
X303029999Y-13939999D03*
X302529999Y-13939999D03*
X302029999Y-13939999D03*
X301529999Y-13939999D03*
X301029999Y-13939999D03*
X300529999Y-13939999D03*
X300029999Y-13939999D03*
X299529999Y-13939999D03*
X299029999Y-13939999D03*
X298529999Y-13939999D03*
X298029999Y-13939999D03*
D14*
X293780000Y-16540000D03*
D15*
X293780000Y-23320000D03*
X310280000Y-23320000D03*
D14*
X310280000Y-16540000D03*
%TD*%
D12*
%TO.C,J1*%
X182540000Y-24100000D03*
D13*
X188039999Y-13939999D03*
X187539999Y-13939999D03*
X187039999Y-13939999D03*
X186539999Y-13939999D03*
X186039999Y-13939999D03*
X185539999Y-13939999D03*
X185039999Y-13939999D03*
X184539999Y-13939999D03*
X184039999Y-13939999D03*
X183539999Y-13939999D03*
X183039999Y-13939999D03*
X182539999Y-13939999D03*
X182039999Y-13939999D03*
X181539999Y-13939999D03*
X181039999Y-13939999D03*
X180539999Y-13939999D03*
X180039999Y-13939999D03*
X179539999Y-13939999D03*
X179039999Y-13939999D03*
X178539999Y-13939999D03*
D14*
X174290000Y-16540000D03*
D15*
X174290000Y-23320000D03*
X190790000Y-23320000D03*
D14*
X190790000Y-16540000D03*
%TD*%
D10*
%TO.C,*%
X158380000Y-31830000D03*
%TD*%
D11*
%TO.C,C5*%
X46120000Y-45140000D03*
X46120000Y-47040000D03*
%TD*%
D12*
%TO.C,J5*%
X278132000Y-24100000D03*
D13*
X283631999Y-13939999D03*
X283131999Y-13939999D03*
X282631999Y-13939999D03*
X282131999Y-13939999D03*
X281631999Y-13939999D03*
X281131999Y-13939999D03*
X280631999Y-13939999D03*
X280131999Y-13939999D03*
X279631999Y-13939999D03*
X279131999Y-13939999D03*
X278631999Y-13939999D03*
X278131999Y-13939999D03*
X277631999Y-13939999D03*
X277131999Y-13939999D03*
X276631999Y-13939999D03*
X276131999Y-13939999D03*
X275631999Y-13939999D03*
X275131999Y-13939999D03*
X274631999Y-13939999D03*
X274131999Y-13939999D03*
D14*
X269882000Y-16540000D03*
D15*
X269882000Y-23320000D03*
X286382000Y-23320000D03*
D14*
X286382000Y-16540000D03*
%TD*%
D12*
%TO.C,J3*%
X254664000Y-32900000D03*
D13*
X249163999Y-43059999D03*
X249663999Y-43059999D03*
X250163999Y-43059999D03*
X250663999Y-43059999D03*
X251163999Y-43059999D03*
X251663999Y-43059999D03*
X252163999Y-43059999D03*
X252663999Y-43059999D03*
X253163999Y-43059999D03*
X253663999Y-43059999D03*
X254163999Y-43059999D03*
X254663999Y-43059999D03*
X255163999Y-43059999D03*
X255663999Y-43059999D03*
X256163999Y-43059999D03*
X256663999Y-43059999D03*
X257163999Y-43059999D03*
X257663999Y-43059999D03*
X258163999Y-43059999D03*
X258663999Y-43059999D03*
D14*
X262914000Y-40460000D03*
D15*
X262914000Y-33680000D03*
X246414000Y-33680000D03*
D14*
X246414000Y-40460000D03*
%TD*%
D16*
%TO.C,C6*%
X142780000Y-11860000D03*
X142780000Y-9960000D03*
%TD*%
D12*
%TO.C,J4*%
X94234000Y-24100000D03*
D13*
X99733999Y-13939999D03*
X99233999Y-13939999D03*
X98733999Y-13939999D03*
X98233999Y-13939999D03*
X97733999Y-13939999D03*
X97233999Y-13939999D03*
X96733999Y-13939999D03*
X96233999Y-13939999D03*
X95733999Y-13939999D03*
X95233999Y-13939999D03*
X94733999Y-13939999D03*
X94233999Y-13939999D03*
X93733999Y-13939999D03*
X93233999Y-13939999D03*
X92733999Y-13939999D03*
X92233999Y-13939999D03*
X91733999Y-13939999D03*
X91233999Y-13939999D03*
X90733999Y-13939999D03*
X90233999Y-13939999D03*
D14*
X85984000Y-16540000D03*
D15*
X85984000Y-23320000D03*
X102484000Y-23320000D03*
D14*
X102484000Y-16540000D03*
%TD*%
D12*
%TO.C,J4*%
X254234000Y-24100000D03*
D13*
X259733999Y-13939999D03*
X259233999Y-13939999D03*
X258733999Y-13939999D03*
X258233999Y-13939999D03*
X257733999Y-13939999D03*
X257233999Y-13939999D03*
X256733999Y-13939999D03*
X256233999Y-13939999D03*
X255733999Y-13939999D03*
X255233999Y-13939999D03*
X254733999Y-13939999D03*
X254233999Y-13939999D03*
X253733999Y-13939999D03*
X253233999Y-13939999D03*
X252733999Y-13939999D03*
X252233999Y-13939999D03*
X251733999Y-13939999D03*
X251233999Y-13939999D03*
X250733999Y-13939999D03*
X250233999Y-13939999D03*
D14*
X245984000Y-16540000D03*
D15*
X245984000Y-23320000D03*
X262484000Y-23320000D03*
D14*
X262484000Y-16540000D03*
%TD*%
D11*
%TO.C,C1*%
X301730000Y-45140000D03*
X301730000Y-47040000D03*
%TD*%
D10*
%TO.C,*%
X166620000Y-1170000D03*
%TD*%
%TO.C,*%
X158620000Y-1170000D03*
%TD*%
D11*
%TO.C,C6*%
X22220000Y-45140000D03*
X22220000Y-47040000D03*
%TD*%
D16*
%TO.C,C2*%
X47190000Y-11860000D03*
X47190000Y-9960000D03*
%TD*%
D17*
%TO.C,REF\u002A\u002A*%
X325000000Y0D03*
%TD*%
D12*
%TO.C,J6*%
X182970000Y-32900000D03*
D13*
X177469999Y-43059999D03*
X177969999Y-43059999D03*
X178469999Y-43059999D03*
X178969999Y-43059999D03*
X179469999Y-43059999D03*
X179969999Y-43059999D03*
X180469999Y-43059999D03*
X180969999Y-43059999D03*
X181469999Y-43059999D03*
X181969999Y-43059999D03*
X182469999Y-43059999D03*
X182969999Y-43059999D03*
X183469999Y-43059999D03*
X183969999Y-43059999D03*
X184469999Y-43059999D03*
X184969999Y-43059999D03*
X185469999Y-43059999D03*
X185969999Y-43059999D03*
X186469999Y-43059999D03*
X186969999Y-43059999D03*
D14*
X191220000Y-40460000D03*
D15*
X191220000Y-33680000D03*
X174720000Y-33680000D03*
D14*
X174720000Y-40460000D03*
%TD*%
D11*
%TO.C,C1*%
X141730000Y-45140000D03*
X141730000Y-47040000D03*
%TD*%
%TO.C,C4*%
X70020000Y-45140000D03*
X70020000Y-47040000D03*
%TD*%
D10*
%TO.C,*%
X158380000Y-55830000D03*
%TD*%
D18*
%TO.C,J7*%
X220390000Y-1500000D03*
D19*
X222899999Y439999D03*
X223699999Y439999D03*
X224499999Y439999D03*
X225299999Y439999D03*
X226099999Y439999D03*
X226899999Y439999D03*
X227699999Y439999D03*
X228499999Y439999D03*
X229299999Y439999D03*
X230099999Y439999D03*
X230899999Y439999D03*
X231699999Y439999D03*
X232499999Y439999D03*
X233299999Y439999D03*
X234099999Y439999D03*
X234899999Y439999D03*
X235699999Y439999D03*
X236499999Y439999D03*
X237299999Y439999D03*
X238099999Y439999D03*
X238899999Y439999D03*
X239699999Y439999D03*
X240499999Y439999D03*
X241299999Y439999D03*
X242099999Y439999D03*
X242899999Y439999D03*
X243699999Y439999D03*
X244499999Y439999D03*
X245299999Y439999D03*
X246099999Y439999D03*
X246899999Y439999D03*
X247699999Y439999D03*
X248499999Y439999D03*
X249299999Y439999D03*
X250099999Y439999D03*
X250899999Y439999D03*
X251699999Y439999D03*
X252499999Y439999D03*
X253299999Y439999D03*
X254099999Y439999D03*
X254899999Y439999D03*
X255699999Y439999D03*
X256499999Y439999D03*
X257299999Y439999D03*
X258099999Y439999D03*
X258899999Y439999D03*
X259699999Y439999D03*
X260499999Y439999D03*
X261299999Y439999D03*
X262099999Y439999D03*
D20*
X217999999Y299999D03*
X266999999Y299999D03*
%TD*%
D17*
%TO.C,REF\u002A\u002A*%
X0Y-57000000D03*
%TD*%
D16*
%TO.C,C5*%
X118880000Y-11860000D03*
X118880000Y-9960000D03*
%TD*%
D12*
%TO.C,J5*%
X46868000Y-32900000D03*
D13*
X41367999Y-43059999D03*
X41867999Y-43059999D03*
X42367999Y-43059999D03*
X42867999Y-43059999D03*
X43367999Y-43059999D03*
X43867999Y-43059999D03*
X44367999Y-43059999D03*
X44867999Y-43059999D03*
X45367999Y-43059999D03*
X45867999Y-43059999D03*
X46367999Y-43059999D03*
X46867999Y-43059999D03*
X47367999Y-43059999D03*
X47867999Y-43059999D03*
X48367999Y-43059999D03*
X48867999Y-43059999D03*
X49367999Y-43059999D03*
X49867999Y-43059999D03*
X50367999Y-43059999D03*
X50867999Y-43059999D03*
D14*
X55118000Y-40460000D03*
D15*
X55118000Y-33680000D03*
X38618000Y-33680000D03*
D14*
X38618000Y-40460000D03*
%TD*%
D11*
%TO.C,C2*%
X277810000Y-45140000D03*
X277810000Y-47040000D03*
%TD*%
D12*
%TO.C,J5*%
X206868000Y-32900000D03*
D13*
X201367999Y-43059999D03*
X201867999Y-43059999D03*
X202367999Y-43059999D03*
X202867999Y-43059999D03*
X203367999Y-43059999D03*
X203867999Y-43059999D03*
X204367999Y-43059999D03*
X204867999Y-43059999D03*
X205367999Y-43059999D03*
X205867999Y-43059999D03*
X206367999Y-43059999D03*
X206867999Y-43059999D03*
X207367999Y-43059999D03*
X207867999Y-43059999D03*
X208367999Y-43059999D03*
X208867999Y-43059999D03*
X209367999Y-43059999D03*
X209867999Y-43059999D03*
X210367999Y-43059999D03*
X210867999Y-43059999D03*
D14*
X215118000Y-40460000D03*
D15*
X215118000Y-33680000D03*
X198618000Y-33680000D03*
D14*
X198618000Y-40460000D03*
%TD*%
D10*
%TO.C,*%
X166380000Y-31830000D03*
%TD*%
%TO.C,*%
X6620000Y-1170000D03*
%TD*%
D12*
%TO.C,J3*%
X230336000Y-24100000D03*
D13*
X235835999Y-13939999D03*
X235335999Y-13939999D03*
X234835999Y-13939999D03*
X234335999Y-13939999D03*
X233835999Y-13939999D03*
X233335999Y-13939999D03*
X232835999Y-13939999D03*
X232335999Y-13939999D03*
X231835999Y-13939999D03*
X231335999Y-13939999D03*
X230835999Y-13939999D03*
X230335999Y-13939999D03*
X229835999Y-13939999D03*
X229335999Y-13939999D03*
X228835999Y-13939999D03*
X228335999Y-13939999D03*
X227835999Y-13939999D03*
X227335999Y-13939999D03*
X226835999Y-13939999D03*
X226335999Y-13939999D03*
D14*
X222086000Y-16540000D03*
D15*
X222086000Y-23320000D03*
X238586000Y-23320000D03*
D14*
X238586000Y-16540000D03*
%TD*%
D12*
%TO.C,J6*%
X22970000Y-32900000D03*
D13*
X17469999Y-43059999D03*
X17969999Y-43059999D03*
X18469999Y-43059999D03*
X18969999Y-43059999D03*
X19469999Y-43059999D03*
X19969999Y-43059999D03*
X20469999Y-43059999D03*
X20969999Y-43059999D03*
X21469999Y-43059999D03*
X21969999Y-43059999D03*
X22469999Y-43059999D03*
X22969999Y-43059999D03*
X23469999Y-43059999D03*
X23969999Y-43059999D03*
X24469999Y-43059999D03*
X24969999Y-43059999D03*
X25469999Y-43059999D03*
X25969999Y-43059999D03*
X26469999Y-43059999D03*
X26969999Y-43059999D03*
D14*
X31220000Y-40460000D03*
D15*
X31220000Y-33680000D03*
X14720000Y-33680000D03*
D14*
X14720000Y-40460000D03*
%TD*%
D12*
%TO.C,J3*%
X94664000Y-32900000D03*
D13*
X89163999Y-43059999D03*
X89663999Y-43059999D03*
X90163999Y-43059999D03*
X90663999Y-43059999D03*
X91163999Y-43059999D03*
X91663999Y-43059999D03*
X92163999Y-43059999D03*
X92663999Y-43059999D03*
X93163999Y-43059999D03*
X93663999Y-43059999D03*
X94163999Y-43059999D03*
X94663999Y-43059999D03*
X95163999Y-43059999D03*
X95663999Y-43059999D03*
X96163999Y-43059999D03*
X96663999Y-43059999D03*
X97163999Y-43059999D03*
X97663999Y-43059999D03*
X98163999Y-43059999D03*
X98663999Y-43059999D03*
D14*
X102914000Y-40460000D03*
D15*
X102914000Y-33680000D03*
X86414000Y-33680000D03*
D14*
X86414000Y-40460000D03*
%TD*%
D10*
%TO.C,*%
X6380000Y-31830000D03*
%TD*%
D12*
%TO.C,J2*%
X118564000Y-32901000D03*
D13*
X113063999Y-43060999D03*
X113563999Y-43060999D03*
X114063999Y-43060999D03*
X114563999Y-43060999D03*
X115063999Y-43060999D03*
X115563999Y-43060999D03*
X116063999Y-43060999D03*
X116563999Y-43060999D03*
X117063999Y-43060999D03*
X117563999Y-43060999D03*
X118063999Y-43060999D03*
X118563999Y-43060999D03*
X119063999Y-43060999D03*
X119563999Y-43060999D03*
X120063999Y-43060999D03*
X120563999Y-43060999D03*
X121063999Y-43060999D03*
X121563999Y-43060999D03*
X122063999Y-43060999D03*
X122563999Y-43060999D03*
D14*
X126814000Y-40461000D03*
D15*
X126814000Y-33681000D03*
X110314000Y-33681000D03*
D14*
X110314000Y-40461000D03*
%TD*%
D11*
%TO.C,C4*%
X230020000Y-45140000D03*
X230020000Y-47040000D03*
%TD*%
D10*
%TO.C,*%
X158620000Y-25170000D03*
%TD*%
D16*
%TO.C,C1*%
X23270000Y-11860000D03*
X23270000Y-9960000D03*
%TD*%
D17*
%TO.C,REF_Top*%
X321011000Y-30019000D03*
%TD*%
D10*
%TO.C,*%
X318620000Y-1170000D03*
%TD*%
D12*
%TO.C,J1*%
X22540000Y-24100000D03*
D13*
X28039999Y-13939999D03*
X27539999Y-13939999D03*
X27039999Y-13939999D03*
X26539999Y-13939999D03*
X26039999Y-13939999D03*
X25539999Y-13939999D03*
X25039999Y-13939999D03*
X24539999Y-13939999D03*
X24039999Y-13939999D03*
X23539999Y-13939999D03*
X23039999Y-13939999D03*
X22539999Y-13939999D03*
X22039999Y-13939999D03*
X21539999Y-13939999D03*
X21039999Y-13939999D03*
X20539999Y-13939999D03*
X20039999Y-13939999D03*
X19539999Y-13939999D03*
X19039999Y-13939999D03*
X18539999Y-13939999D03*
D14*
X14290000Y-16540000D03*
D15*
X14290000Y-23320000D03*
X30790000Y-23320000D03*
D14*
X30790000Y-16540000D03*
%TD*%
D18*
%TO.C,J7*%
X104610000Y-55500000D03*
D19*
X102099999Y-57439999D03*
X101299999Y-57439999D03*
X100499999Y-57439999D03*
X99699999Y-57439999D03*
X98899999Y-57439999D03*
X98099999Y-57439999D03*
X97299999Y-57439999D03*
X96499999Y-57439999D03*
X95699999Y-57439999D03*
X94899999Y-57439999D03*
X94099999Y-57439999D03*
X93299999Y-57439999D03*
X92499999Y-57439999D03*
X91699999Y-57439999D03*
X90899999Y-57439999D03*
X90099999Y-57439999D03*
X89299999Y-57439999D03*
X88499999Y-57439999D03*
X87699999Y-57439999D03*
X86899999Y-57439999D03*
X86099999Y-57439999D03*
X85299999Y-57439999D03*
X84499999Y-57439999D03*
X83699999Y-57439999D03*
X82899999Y-57439999D03*
X82099999Y-57439999D03*
X81299999Y-57439999D03*
X80499999Y-57439999D03*
X79699999Y-57439999D03*
X78899999Y-57439999D03*
X78099999Y-57439999D03*
X77299999Y-57439999D03*
X76499999Y-57439999D03*
X75699999Y-57439999D03*
X74899999Y-57439999D03*
X74099999Y-57439999D03*
X73299999Y-57439999D03*
X72499999Y-57439999D03*
X71699999Y-57439999D03*
X70899999Y-57439999D03*
X70099999Y-57439999D03*
X69299999Y-57439999D03*
X68499999Y-57439999D03*
X67699999Y-57439999D03*
X66899999Y-57439999D03*
X66099999Y-57439999D03*
X65299999Y-57439999D03*
X64499999Y-57439999D03*
X63699999Y-57439999D03*
X62899999Y-57439999D03*
D20*
X106999999Y-57299999D03*
X57999999Y-57299999D03*
%TD*%
D10*
%TO.C,*%
X166380000Y-55830000D03*
%TD*%
D17*
%TO.C,REF_Top*%
X161011000Y-30019000D03*
%TD*%
%TO.C,REF\u002A\u002A*%
X0Y0D03*
%TD*%
D12*
%TO.C,J2*%
X278564000Y-32901000D03*
D13*
X273063999Y-43060999D03*
X273563999Y-43060999D03*
X274063999Y-43060999D03*
X274563999Y-43060999D03*
X275063999Y-43060999D03*
X275563999Y-43060999D03*
X276063999Y-43060999D03*
X276563999Y-43060999D03*
X277063999Y-43060999D03*
X277563999Y-43060999D03*
X278063999Y-43060999D03*
X278563999Y-43060999D03*
X279063999Y-43060999D03*
X279563999Y-43060999D03*
X280063999Y-43060999D03*
X280563999Y-43060999D03*
X281063999Y-43060999D03*
X281563999Y-43060999D03*
X282063999Y-43060999D03*
X282563999Y-43060999D03*
D14*
X286814000Y-40461000D03*
D15*
X286814000Y-33681000D03*
X270314000Y-33681000D03*
D14*
X270314000Y-40461000D03*
%TD*%
D17*
%TO.C,REF_Top*%
X163989000Y-26981000D03*
%TD*%
D12*
%TO.C,J3*%
X70336000Y-24100000D03*
D13*
X75835999Y-13939999D03*
X75335999Y-13939999D03*
X74835999Y-13939999D03*
X74335999Y-13939999D03*
X73835999Y-13939999D03*
X73335999Y-13939999D03*
X72835999Y-13939999D03*
X72335999Y-13939999D03*
X71835999Y-13939999D03*
X71335999Y-13939999D03*
X70835999Y-13939999D03*
X70335999Y-13939999D03*
X69835999Y-13939999D03*
X69335999Y-13939999D03*
X68835999Y-13939999D03*
X68335999Y-13939999D03*
X67835999Y-13939999D03*
X67335999Y-13939999D03*
X66835999Y-13939999D03*
X66335999Y-13939999D03*
D14*
X62086000Y-16540000D03*
D15*
X62086000Y-23320000D03*
X78586000Y-23320000D03*
D14*
X78586000Y-16540000D03*
%TD*%
D16*
%TO.C,C4*%
X254980000Y-11860000D03*
X254980000Y-9960000D03*
%TD*%
D21*
X322500000Y-59500000D02*
X327500000Y-59500000D01*
X219281424Y-1556220D02*
X219280000Y-1500000D01*
X59710561Y-2377761D02*
X59666975Y-2342222D01*
X220277703Y-2604305D02*
X220221915Y-2597200D01*
X103569094Y-55114490D02*
X103589956Y-55062264D01*
X104121162Y-54503436D02*
X104172264Y-54479956D01*
X104497703Y-54395694D02*
X104553779Y-54391424D01*
X61449095Y-1832293D02*
X61430905Y-1885509D01*
X219851314Y-2470525D02*
X219802849Y-2441995D01*
X265047735Y-54479956D02*
X265098837Y-54503436D01*
X265148685Y-54529474D02*
X265197150Y-54558004D01*
X103930561Y-54622238D02*
X103975891Y-54588951D01*
X220775509Y-2540905D02*
X220722293Y-2559095D01*
X221301048Y-2134108D02*
X221267761Y-2179438D01*
X104778084Y-54402799D02*
X104833441Y-54412721D01*
X221194520Y-2264753D02*
X221154753Y-2304520D01*
X103535433Y-55221775D02*
X103550904Y-55167706D01*
X265452222Y-54776975D02*
X265487761Y-54820561D01*
X104888224Y-54425433D02*
X104942293Y-54440904D01*
X219419474Y-2038685D02*
X219393436Y-1988837D01*
X221360525Y-2038685D02*
X221331995Y-2087150D01*
X221477278Y-1723441D02*
X221464566Y-1778224D01*
X103805479Y-54735246D02*
X103845246Y-54695479D01*
X60221915Y-2597200D02*
X60166558Y-2587278D01*
X60111775Y-2574566D02*
X60057706Y-2559095D01*
X61194520Y-2264753D02*
X61154753Y-2304520D01*
X103589956Y-55062264D02*
X103613436Y-55011162D01*
X265720000Y-59500000D02*
X268500000Y-59500000D01*
X221232222Y-2223024D02*
X221194520Y-2264753D01*
X265630043Y-55062264D02*
X265650905Y-55114490D01*
X220722293Y-2559095D02*
X220668224Y-2574566D01*
X265289438Y-54622238D02*
X265333024Y-54657777D01*
X322500000Y2500000D02*
X221500000Y2500000D01*
X103512799Y-55331915D02*
X103522721Y-55276558D01*
X61267761Y-2179438D02*
X61232222Y-2223024D01*
X264553779Y-54391424D02*
X264610000Y-54390000D01*
X59448004Y-2087150D02*
X59419474Y-2038685D01*
X264942293Y-54440904D02*
X264995509Y-54459094D01*
X220111775Y-2574566D02*
X220057706Y-2559095D01*
X105714305Y-55387703D02*
X105718575Y-55443779D01*
X264995509Y-54459094D02*
X265047735Y-54479956D01*
X263975891Y-54588951D02*
X264022849Y-54558004D01*
X61301048Y-2134108D02*
X61267761Y-2179438D01*
X219585479Y-2264753D02*
X219547777Y-2223024D01*
X60446220Y-2608575D02*
X60390000Y-2609999D01*
X105719999Y-55500000D02*
X105720000Y-59500000D01*
X265098837Y-54503436D02*
X265148685Y-54529474D01*
X263886975Y-54657777D02*
X263930561Y-54622238D01*
X108500000Y-59500000D02*
X162500000Y-59500000D01*
X103500000Y-55500000D02*
X103501424Y-55443779D01*
X221430905Y-1885509D02*
X221410043Y-1937735D01*
X219666975Y-2342222D02*
X219625246Y-2304520D01*
X103975891Y-54588951D02*
X104022849Y-54558004D01*
X61232222Y-2223024D02*
X61194520Y-2264753D01*
X265374753Y-54695479D02*
X265414520Y-54735246D01*
X219315433Y-1778224D02*
X219302721Y-1723441D01*
X103668004Y-54912849D02*
X103698951Y-54865891D01*
X219349094Y-1885509D02*
X219330904Y-1832293D01*
X265606563Y-55011162D02*
X265630043Y-55062264D01*
X221487200Y-1668084D02*
X221477278Y-1723441D01*
X219802849Y-2441995D02*
X219755891Y-2411048D01*
X219710561Y-2377761D02*
X219666975Y-2342222D01*
X60502296Y-2604305D02*
X60446220Y-2608575D01*
X264224490Y-54459094D02*
X264277706Y-54440904D01*
X59292799Y-1668084D02*
X59285694Y-1612296D01*
X263501424Y-55443779D02*
X263505694Y-55387703D01*
X221500000Y2500000D02*
X221500000Y-1500000D01*
X219478951Y-2134108D02*
X219448004Y-2087150D01*
X105289438Y-54622238D02*
X105333024Y-54657777D01*
X105580525Y-54961314D02*
X105606563Y-55011162D01*
X105669095Y-55167706D02*
X105684566Y-55221775D01*
X219901162Y-2496563D02*
X219851314Y-2470525D01*
X105521048Y-54865891D02*
X105551995Y-54912849D01*
X61024108Y-2411048D02*
X60977150Y-2441995D01*
X105414520Y-54735246D02*
X105452222Y-54776975D01*
X264277706Y-54440904D02*
X264331775Y-54425433D01*
X219755891Y-2411048D02*
X219710561Y-2377761D01*
X61069438Y-2377761D02*
X61024108Y-2411048D01*
X265719999Y-55500000D02*
X265720000Y-59500000D01*
X60004490Y-2540905D02*
X59952264Y-2520043D01*
X104833441Y-54412721D02*
X104888224Y-54425433D01*
X104277706Y-54440904D02*
X104331775Y-54425433D01*
X104995509Y-54459094D02*
X105047735Y-54479956D01*
X61494305Y-1612296D02*
X61487200Y-1668084D01*
X220668224Y-2574566D02*
X220613441Y-2587278D01*
X264833441Y-54412721D02*
X264888224Y-54425433D01*
X103550904Y-55167706D02*
X103569094Y-55114490D01*
X268500000Y-59500000D02*
X322500000Y-59500000D01*
X104022849Y-54558004D02*
X104071314Y-54529474D01*
X264331775Y-54425433D02*
X264386558Y-54412721D01*
X327500000Y2500000D02*
X322500000Y2500000D01*
X61386563Y-1988837D02*
X61360525Y-2038685D01*
X60558084Y-2597200D02*
X60502296Y-2604305D01*
X103767777Y-54776975D02*
X103805479Y-54735246D01*
X2500000Y2500000D02*
X-2500000Y2500000D01*
X220057706Y-2559095D02*
X220004490Y-2540905D01*
X103505694Y-55387703D02*
X103512799Y-55331915D01*
X61113024Y-2342222D02*
X61069438Y-2377761D01*
X219292799Y-1668084D02*
X219285694Y-1612296D01*
X60057706Y-2559095D02*
X60004490Y-2540905D01*
X221498575Y-1556220D02*
X221494305Y-1612296D01*
X220446220Y-2608575D02*
X220390000Y-2609999D01*
X60613441Y-2587278D02*
X60558084Y-2597200D01*
X265414520Y-54735246D02*
X265452222Y-54776975D01*
X220004490Y-2540905D02*
X219952264Y-2520043D01*
X61331995Y-2087150D02*
X61301048Y-2134108D01*
X59755891Y-2411048D02*
X59710561Y-2377761D01*
X220928685Y-2470525D02*
X220878837Y-2496563D01*
X263550904Y-55167706D02*
X263569094Y-55114490D01*
X61154753Y-2304520D02*
X61113024Y-2342222D01*
X59901162Y-2496563D02*
X59851314Y-2470525D01*
X-2500000Y2500000D02*
X-2500000Y-59500000D01*
X59512238Y-2179438D02*
X59478951Y-2134108D01*
X105197150Y-54558004D02*
X105244108Y-54588951D01*
X59281424Y-1556220D02*
X59280000Y-1500000D01*
X105697278Y-55276558D02*
X105707200Y-55331915D01*
X105707200Y-55331915D02*
X105714305Y-55387703D01*
X61477278Y-1723441D02*
X61464566Y-1778224D01*
X263767777Y-54776975D02*
X263805479Y-54735246D01*
X103698951Y-54865891D02*
X103732238Y-54820561D01*
X265650905Y-55114490D02*
X265669095Y-55167706D01*
X104386558Y-54412721D02*
X104441915Y-54402799D01*
X263500000Y-59500000D02*
X263500000Y-55500000D01*
X162500000Y-59500000D02*
X263500000Y-59500000D01*
X59393436Y-1988837D02*
X59369956Y-1937735D01*
X221410043Y-1937735D02*
X221386563Y-1988837D01*
X221069438Y-2377761D02*
X221024108Y-2411048D01*
X264386558Y-54412721D02*
X264441915Y-54402799D01*
X264888224Y-54425433D02*
X264942293Y-54440904D01*
X220977150Y-2441995D02*
X220928685Y-2470525D01*
X221267761Y-2179438D02*
X221232222Y-2223024D01*
X103845246Y-54695479D02*
X103886975Y-54657777D01*
X263698951Y-54865891D02*
X263732238Y-54820561D01*
X264172264Y-54479956D02*
X264224490Y-54459094D01*
X220333779Y-2608575D02*
X220277703Y-2604305D01*
X59302721Y-1723441D02*
X59292799Y-1668084D01*
X61410043Y-1937735D02*
X61386563Y-1988837D01*
X265714305Y-55387703D02*
X265718575Y-55443779D01*
X103639474Y-54961314D02*
X103668004Y-54912849D01*
X60928685Y-2470525D02*
X60878837Y-2496563D01*
X327500000Y-59500000D02*
X327500000Y2500000D01*
X220221915Y-2597200D02*
X220166558Y-2587278D01*
X105333024Y-54657777D02*
X105374753Y-54695479D01*
X220390000Y-2609999D02*
X220333779Y-2608575D01*
X265551995Y-54912849D02*
X265580525Y-54961314D01*
X264666220Y-54391424D02*
X264722296Y-54395694D01*
X60878837Y-2496563D02*
X60827735Y-2520043D01*
X60333779Y-2608575D02*
X60277703Y-2604305D01*
X105452222Y-54776975D02*
X105487761Y-54820561D01*
X61464566Y-1778224D02*
X61449095Y-1832293D01*
X265197150Y-54558004D02*
X265244108Y-54588951D01*
X219285694Y-1612296D02*
X219281424Y-1556220D01*
X59585479Y-2264753D02*
X59547777Y-2223024D01*
X59478951Y-2134108D02*
X59448004Y-2087150D01*
X263668004Y-54912849D02*
X263698951Y-54865891D01*
X104553779Y-54391424D02*
X104610000Y-54390000D01*
X263522721Y-55276558D02*
X263535433Y-55221775D01*
X263500000Y-55500000D02*
X263501424Y-55443779D01*
X59285694Y-1612296D02*
X59281424Y-1556220D01*
X219547777Y-2223024D02*
X219512238Y-2179438D01*
X263639474Y-54961314D02*
X263668004Y-54912849D01*
X263845246Y-54695479D02*
X263886975Y-54657777D01*
X60166558Y-2587278D02*
X60111775Y-2574566D01*
X-2500000Y-59500000D02*
X-2500000Y-59500000D01*
X264610000Y-54390000D02*
X264666220Y-54391424D01*
X105487761Y-54820561D02*
X105521048Y-54865891D01*
X219302721Y-1723441D02*
X219292799Y-1668084D01*
X265697278Y-55276558D02*
X265707200Y-55331915D01*
X216500000Y2500000D02*
X162500000Y2500000D01*
X59315433Y-1778224D02*
X59302721Y-1723441D01*
X221113024Y-2342222D02*
X221069438Y-2377761D01*
X105244108Y-54588951D02*
X105289438Y-54622238D01*
X59802849Y-2441995D02*
X59755891Y-2411048D01*
X103886975Y-54657777D02*
X103930561Y-54622238D01*
X105098837Y-54503436D02*
X105148685Y-54529474D01*
X-2500000Y-59500000D02*
X2500000Y-59500000D01*
X220613441Y-2587278D02*
X220558084Y-2597200D01*
X104441915Y-54402799D02*
X104497703Y-54395694D01*
X104666220Y-54391424D02*
X104722296Y-54395694D01*
X265707200Y-55331915D02*
X265714305Y-55387703D01*
X219625246Y-2304520D02*
X219585479Y-2264753D01*
X264121162Y-54503436D02*
X264172264Y-54479956D01*
X103500000Y-59500000D02*
X103500000Y-55500000D01*
X104942293Y-54440904D02*
X104995509Y-54459094D01*
X263569094Y-55114490D02*
X263589956Y-55062264D01*
X60722293Y-2559095D02*
X60668224Y-2574566D01*
X60977150Y-2441995D02*
X60928685Y-2470525D01*
X220502296Y-2604305D02*
X220446220Y-2608575D01*
X265521048Y-54865891D02*
X265551995Y-54912849D01*
X104610000Y-54390000D02*
X104666220Y-54391424D01*
X105148685Y-54529474D02*
X105197150Y-54558004D01*
X220878837Y-2496563D02*
X220827735Y-2520043D01*
X265669095Y-55167706D02*
X265684566Y-55221775D01*
X59419474Y-2038685D02*
X59393436Y-1988837D01*
X60277703Y-2604305D02*
X60221915Y-2597200D01*
X103501424Y-55443779D02*
X103505694Y-55387703D01*
X59625246Y-2304520D02*
X59585479Y-2264753D01*
X219369956Y-1937735D02*
X219349094Y-1885509D01*
X219280000Y2500000D02*
X216500000Y2500000D01*
X103732238Y-54820561D02*
X103767777Y-54776975D01*
X263613436Y-55011162D02*
X263639474Y-54961314D01*
X61430905Y-1885509D02*
X61410043Y-1937735D01*
X219512238Y-2179438D02*
X219478951Y-2134108D01*
X105650905Y-55114490D02*
X105669095Y-55167706D01*
X105684566Y-55221775D02*
X105697278Y-55276558D01*
X220827735Y-2520043D02*
X220775509Y-2540905D01*
X59280000Y-1500000D02*
X59280000Y2500000D01*
X104172264Y-54479956D02*
X104224490Y-54459094D01*
X60827735Y-2520043D02*
X60775509Y-2540905D01*
X221024108Y-2411048D02*
X220977150Y-2441995D01*
X59952264Y-2520043D02*
X59901162Y-2496563D01*
X221449095Y-1832293D02*
X221430905Y-1885509D01*
X56500000Y2500000D02*
X2500000Y2500000D01*
X265333024Y-54657777D02*
X265374753Y-54695479D01*
X105606563Y-55011162D02*
X105630043Y-55062264D01*
X61500000Y2500000D02*
X61500000Y-1500000D01*
X220166558Y-2587278D02*
X220111775Y-2574566D01*
X219280000Y-1500000D02*
X219280000Y2500000D01*
X61500000Y-1500000D02*
X61498575Y-1556220D01*
X263505694Y-55387703D02*
X263512799Y-55331915D01*
X264071314Y-54529474D02*
X264121162Y-54503436D01*
X105630043Y-55062264D02*
X105650905Y-55114490D01*
X59666975Y-2342222D02*
X59625246Y-2304520D01*
X59547777Y-2223024D02*
X59512238Y-2179438D01*
X219393436Y-1988837D02*
X219369956Y-1937735D01*
X265684566Y-55221775D02*
X265697278Y-55276558D01*
X104331775Y-54425433D02*
X104386558Y-54412721D01*
X221154753Y-2304520D02*
X221113024Y-2342222D01*
X264022849Y-54558004D02*
X264071314Y-54529474D01*
X221386563Y-1988837D02*
X221360525Y-2038685D01*
X265580525Y-54961314D02*
X265606563Y-55011162D01*
X221500000Y-1500000D02*
X221498575Y-1556220D01*
X263732238Y-54820561D02*
X263767777Y-54776975D01*
X220558084Y-2597200D02*
X220502296Y-2604305D01*
X59280000Y2500000D02*
X56500000Y2500000D01*
X104224490Y-54459094D02*
X104277706Y-54440904D01*
X263589956Y-55062264D02*
X263613436Y-55011162D01*
X104071314Y-54529474D02*
X104121162Y-54503436D01*
X59330904Y-1832293D02*
X59315433Y-1778224D01*
X60668224Y-2574566D02*
X60613441Y-2587278D01*
X263535433Y-55221775D02*
X263550904Y-55167706D01*
X265244108Y-54588951D02*
X265289438Y-54622238D01*
X59349094Y-1885509D02*
X59330904Y-1832293D01*
X219330904Y-1832293D02*
X219315433Y-1778224D01*
X221494305Y-1612296D02*
X221487200Y-1668084D01*
X264497703Y-54395694D02*
X264553779Y-54391424D01*
X263512799Y-55331915D02*
X263522721Y-55276558D01*
X2500000Y-59500000D02*
X103500000Y-59500000D01*
X105718575Y-55443779D02*
X105719999Y-55500000D01*
X105374753Y-54695479D02*
X105414520Y-54735246D01*
X264441915Y-54402799D02*
X264497703Y-54395694D01*
X103613436Y-55011162D02*
X103639474Y-54961314D01*
X104722296Y-54395694D02*
X104778084Y-54402799D01*
X263930561Y-54622238D02*
X263975891Y-54588951D01*
X105551995Y-54912849D02*
X105580525Y-54961314D01*
X264722296Y-54395694D02*
X264778084Y-54402799D01*
X61498575Y-1556220D02*
X61494305Y-1612296D01*
X60390000Y-2609999D02*
X60333779Y-2608575D01*
X264778084Y-54402799D02*
X264833441Y-54412721D01*
X162500000Y2500000D02*
X61500000Y2500000D01*
X221464566Y-1778224D02*
X221449095Y-1832293D01*
X105047735Y-54479956D02*
X105098837Y-54503436D01*
X59369956Y-1937735D02*
X59349094Y-1885509D01*
X61360525Y-2038685D02*
X61331995Y-2087150D01*
X265487761Y-54820561D02*
X265521048Y-54865891D01*
X263805479Y-54735246D02*
X263845246Y-54695479D01*
X59851314Y-2470525D02*
X59802849Y-2441995D01*
X265718575Y-55443779D02*
X265719999Y-55500000D01*
X219952264Y-2520043D02*
X219901162Y-2496563D01*
X103522721Y-55276558D02*
X103535433Y-55221775D01*
X221331995Y-2087150D02*
X221301048Y-2134108D01*
X60775509Y-2540905D02*
X60722293Y-2559095D01*
X61487200Y-1668084D02*
X61477278Y-1723441D01*
X219448004Y-2087150D02*
X219419474Y-2038685D01*
X105720000Y-59500000D02*
X108500000Y-59500000D01*
M02*
