M48
; DRILL file {KiCad (7.0.0)} date Thu Jul 13 16:20:03 2023
; FORMAT={-:-/ absolute / metric / decimal}
; #@! TF.CreationDate,2023-07-13T16:20:03+02:00
; #@! TF.GenerationSoftware,Kicad,Pcbnew,(7.0.0)
; #@! TF.FileFunction,Plated,1,4,PTH
FMAT,2
METRIC
; #@! TA.AperFunction,Plated,PTH,ViaDrill
T1C0.250
; #@! TA.AperFunction,Plated,PTH,ComponentDrill
T2C1.321
; #@! TA.AperFunction,Plated,PTH,ComponentDrill
T3C1.773
%
G90
G05
T1
X52.24Y-95.95
X52.24Y-101.03
X52.24Y-106.11
X52.24Y-111.19
X52.24Y-126.95
X52.24Y-132.03
X52.24Y-137.11
X52.24Y-142.19
X52.24Y-157.95
X52.24Y-163.03
X52.24Y-168.11
X52.24Y-173.19
X52.24Y-188.95
X52.24Y-194.03
X52.24Y-199.11
X52.24Y-204.19
X57.32Y-106.11
X57.32Y-111.142
X57.32Y-117.582
X57.32Y-137.11
X57.32Y-142.142
X57.32Y-148.582
X57.32Y-168.11
X57.32Y-173.142
X57.32Y-179.582
X57.32Y-199.11
X57.32Y-204.142
X57.32Y-210.582
X58.79Y-117.582
X58.79Y-148.582
X58.79Y-179.582
X58.79Y-210.582
X59.86Y-90.2
X59.86Y-95.908
X59.86Y-101.03
X59.86Y-121.2
X59.86Y-126.908
X59.86Y-132.03
X59.86Y-152.2
X59.86Y-157.908
X59.86Y-163.03
X59.86Y-183.2
X59.86Y-188.908
X59.86Y-194.03
X61.79Y-117.582
X61.79Y-148.582
X61.79Y-179.582
X61.79Y-210.582
X64.79Y-117.582
X64.79Y-148.582
X64.79Y-179.582
X64.79Y-210.582
X64.94Y-90.2
X64.94Y-95.908
X64.94Y-101.03
X64.94Y-121.2
X64.94Y-126.908
X64.94Y-132.03
X64.94Y-152.2
X64.94Y-157.908
X64.94Y-163.03
X64.94Y-183.2
X64.94Y-188.908
X64.94Y-194.03
X67.138Y-106.67
X67.138Y-137.67
X67.138Y-168.67
X67.138Y-199.67
X67.739Y-106.67
X67.739Y-137.67
X67.739Y-168.67
X67.739Y-199.67
X68.341Y-106.67
X68.341Y-137.67
X68.341Y-168.67
X68.341Y-199.67
X68.942Y-106.67
X68.942Y-137.67
X68.942Y-168.67
X68.942Y-199.67
X69.57Y-100.498
X69.57Y-131.498
X69.57Y-162.498
X69.57Y-193.498
X69.638Y-106.67
X69.638Y-137.67
X69.638Y-168.67
X69.638Y-199.67
X70.02Y-90.2
X70.02Y-95.95
X70.02Y-117.582
X70.02Y-121.2
X70.02Y-126.95
X70.02Y-148.582
X70.02Y-152.2
X70.02Y-157.95
X70.02Y-179.582
X70.02Y-183.2
X70.02Y-188.95
X70.02Y-210.582
X70.24Y-106.66
X70.24Y-137.66
X70.24Y-168.66
X70.24Y-199.66
X70.77Y-99.498
X70.77Y-130.498
X70.77Y-161.498
X70.77Y-192.498
X70.844Y-106.66
X70.844Y-137.66
X70.844Y-168.66
X70.844Y-199.66
X71.138Y-107.67
X71.138Y-138.67
X71.138Y-169.67
X71.138Y-200.67
X71.295Y-108.67
X71.295Y-109.67
X71.295Y-139.67
X71.295Y-140.67
X71.295Y-170.67
X71.295Y-171.67
X71.295Y-201.67
X71.295Y-202.67
X71.446Y-106.67
X71.446Y-137.67
X71.446Y-168.67
X71.446Y-199.67
X71.739Y-107.67
X71.739Y-138.67
X71.739Y-169.67
X71.739Y-200.67
X71.97Y-100.498
X71.97Y-131.498
X71.97Y-162.498
X71.97Y-193.498
X72.341Y-107.67
X72.341Y-138.67
X72.341Y-169.67
X72.341Y-200.67
X72.638Y-106.67
X72.638Y-137.67
X72.638Y-168.67
X72.638Y-199.67
X72.785Y-108.67
X72.785Y-109.67
X72.785Y-139.67
X72.785Y-140.67
X72.785Y-170.67
X72.785Y-171.67
X72.785Y-201.67
X72.785Y-202.67
X72.942Y-107.67
X72.942Y-138.67
X72.942Y-169.67
X72.942Y-200.67
X73.239Y-106.67
X73.239Y-137.67
X73.239Y-168.67
X73.239Y-199.67
X73.841Y-106.67
X73.841Y-137.67
X73.841Y-168.67
X73.841Y-199.67
X74.138Y-107.67
X74.138Y-138.67
X74.138Y-169.67
X74.138Y-200.67
X74.442Y-106.67
X74.442Y-137.67
X74.442Y-168.67
X74.442Y-199.67
X74.49Y-108.67
X74.49Y-139.67
X74.49Y-170.67
X74.49Y-201.67
X74.739Y-107.67
X74.739Y-138.67
X74.739Y-169.67
X74.739Y-200.67
X75.1Y-90.2
X75.1Y-95.95
X75.1Y-101.03
X75.1Y-117.582
X75.1Y-121.2
X75.1Y-126.95
X75.1Y-132.03
X75.1Y-148.582
X75.1Y-152.2
X75.1Y-157.95
X75.1Y-163.03
X75.1Y-179.582
X75.1Y-183.2
X75.1Y-188.95
X75.1Y-194.03
X75.1Y-210.582
X75.341Y-107.67
X75.341Y-138.67
X75.341Y-169.67
X75.341Y-200.67
X75.942Y-107.67
X75.942Y-138.67
X75.942Y-169.67
X75.942Y-200.67
X80.18Y-90.2
X80.18Y-95.95
X80.18Y-117.582
X80.18Y-121.2
X80.18Y-126.95
X80.18Y-148.582
X80.18Y-152.2
X80.18Y-157.95
X80.18Y-179.582
X80.18Y-183.2
X80.18Y-188.95
X80.18Y-210.582
X82.627Y-117.582
X82.627Y-148.582
X82.627Y-179.582
X82.627Y-210.582
X85.26Y-90.2
X85.26Y-121.2
X85.26Y-152.2
X85.26Y-183.2
X85.686Y-117.586
X85.686Y-148.586
X85.686Y-179.586
X85.686Y-210.586
X88.686Y-117.582
X88.686Y-148.582
X88.686Y-179.582
X88.686Y-210.582
X90.34Y-90.2
X90.34Y-117.582
X90.34Y-121.2
X90.34Y-148.582
X90.34Y-152.2
X90.34Y-179.582
X90.34Y-183.2
X90.34Y-210.582
X93.49Y-100.498
X93.49Y-131.498
X93.49Y-162.498
X93.49Y-193.498
X94.69Y-99.328
X94.69Y-130.328
X94.69Y-161.328
X94.69Y-192.328
X95.192Y-106.67
X95.192Y-107.67
X95.192Y-108.67
X95.192Y-109.67
X95.192Y-110.67
X95.192Y-137.67
X95.192Y-138.67
X95.192Y-139.67
X95.192Y-140.67
X95.192Y-141.67
X95.192Y-168.67
X95.192Y-169.67
X95.192Y-170.67
X95.192Y-171.67
X95.192Y-172.67
X95.192Y-199.67
X95.192Y-200.67
X95.192Y-201.67
X95.192Y-202.67
X95.192Y-203.67
X95.42Y-90.2
X95.42Y-117.582
X95.42Y-121.2
X95.42Y-148.582
X95.42Y-152.2
X95.42Y-179.582
X95.42Y-183.2
X95.42Y-210.582
X95.89Y-100.498
X95.89Y-131.498
X95.89Y-162.498
X95.89Y-193.498
X96.67Y-107.67
X96.67Y-138.67
X96.67Y-169.67
X96.67Y-200.67
X96.7Y-106.67
X96.7Y-108.67
X96.7Y-109.67
X96.7Y-137.67
X96.7Y-139.67
X96.7Y-140.67
X96.7Y-168.67
X96.7Y-170.67
X96.7Y-171.67
X96.7Y-199.67
X96.7Y-201.67
X96.7Y-202.67
X98.188Y-106.67
X98.188Y-107.67
X98.188Y-108.67
X98.188Y-137.67
X98.188Y-138.67
X98.188Y-139.67
X98.188Y-168.67
X98.188Y-169.67
X98.188Y-170.67
X98.188Y-199.67
X98.188Y-200.67
X98.188Y-201.67
X100.5Y-90.2
X100.5Y-117.582
X100.5Y-121.2
X100.5Y-148.582
X100.5Y-152.2
X100.5Y-179.582
X100.5Y-183.2
X100.5Y-210.582
X104.23Y-90.2
X104.23Y-121.2
X104.23Y-152.2
X104.23Y-183.2
X105.5Y-91.67
X105.5Y-122.67
X105.5Y-153.67
X105.5Y-184.67
X106.586Y-117.582
X106.586Y-148.582
X106.586Y-179.582
X106.586Y-210.582
X109.586Y-117.582
X109.586Y-148.582
X109.586Y-179.582
X109.586Y-210.582
X111.2Y-88.77
X111.2Y-119.77
X111.2Y-150.77
X111.2Y-181.77
X112.586Y-117.582
X112.586Y-148.582
X112.586Y-179.582
X112.586Y-210.582
X113.6Y-88.77
X113.6Y-119.77
X113.6Y-150.77
X113.6Y-181.77
X114.938Y-106.67
X114.938Y-137.67
X114.938Y-168.67
X114.938Y-199.67
X115.539Y-106.67
X115.539Y-137.67
X115.539Y-168.67
X115.539Y-199.67
X116.0Y-88.77
X116.0Y-117.582
X116.0Y-119.77
X116.0Y-148.582
X116.0Y-150.77
X116.0Y-179.582
X116.0Y-181.77
X116.0Y-210.582
X116.141Y-106.67
X116.141Y-137.67
X116.141Y-168.67
X116.141Y-199.67
X116.742Y-106.67
X116.742Y-137.67
X116.742Y-168.67
X116.742Y-199.67
X117.39Y-100.498
X117.39Y-131.498
X117.39Y-162.498
X117.39Y-193.498
X118.4Y-88.77
X118.4Y-119.77
X118.4Y-150.77
X118.4Y-181.77
X118.59Y-99.498
X118.59Y-130.498
X118.59Y-161.498
X118.59Y-192.498
X119.085Y-106.67
X119.085Y-107.67
X119.085Y-108.67
X119.085Y-109.67
X119.085Y-137.67
X119.085Y-138.67
X119.085Y-139.67
X119.085Y-140.67
X119.085Y-168.67
X119.085Y-169.67
X119.085Y-170.67
X119.085Y-171.67
X119.085Y-199.67
X119.085Y-200.67
X119.085Y-201.67
X119.085Y-202.67
X119.79Y-100.498
X119.79Y-131.498
X119.79Y-162.498
X119.79Y-193.498
X120.09Y-111.73
X120.09Y-142.73
X120.09Y-173.73
X120.09Y-204.73
X120.595Y-106.67
X120.595Y-107.67
X120.595Y-108.67
X120.595Y-109.67
X120.595Y-137.67
X120.595Y-138.67
X120.595Y-139.67
X120.595Y-140.67
X120.595Y-168.67
X120.595Y-169.67
X120.595Y-170.67
X120.595Y-171.67
X120.595Y-199.67
X120.595Y-200.67
X120.595Y-201.67
X120.595Y-202.67
X120.8Y-88.77
X120.8Y-117.582
X120.8Y-119.77
X120.8Y-148.582
X120.8Y-150.77
X120.8Y-179.582
X120.8Y-181.77
X120.8Y-210.582
X122.093Y-106.67
X122.093Y-107.67
X122.093Y-137.67
X122.093Y-138.67
X122.093Y-168.67
X122.093Y-169.67
X122.093Y-199.67
X122.093Y-200.67
X122.46Y-109.578
X122.46Y-110.179
X122.46Y-110.781
X122.46Y-111.382
X122.46Y-140.578
X122.46Y-141.179
X122.46Y-141.781
X122.46Y-142.382
X122.46Y-171.578
X122.46Y-172.179
X122.46Y-172.781
X122.46Y-173.382
X122.46Y-202.578
X122.46Y-203.179
X122.46Y-203.781
X122.46Y-204.382
X122.655Y-113.835
X122.655Y-144.835
X122.655Y-175.835
X122.655Y-206.835
X123.2Y-88.77
X123.2Y-119.77
X123.2Y-150.77
X123.2Y-181.77
X123.288Y-107.875
X123.288Y-138.875
X123.288Y-169.875
X123.288Y-200.875
X125.6Y-88.77
X125.6Y-117.582
X125.6Y-119.77
X125.6Y-148.582
X125.6Y-150.77
X125.6Y-179.582
X125.6Y-181.77
X125.6Y-210.582
X128.0Y-88.77
X128.0Y-119.77
X128.0Y-150.77
X128.0Y-181.77
X130.4Y-88.77
X130.4Y-119.77
X130.4Y-150.77
X130.4Y-181.77
X132.8Y-88.77
X132.8Y-119.77
X132.8Y-150.77
X132.8Y-181.77
X135.2Y-88.77
X135.2Y-117.582
X135.2Y-119.77
X135.2Y-148.582
X135.2Y-150.77
X135.2Y-179.582
X135.2Y-181.77
X135.2Y-210.582
X136.63Y-109.602
X136.63Y-110.203
X136.63Y-110.805
X136.63Y-111.407
X136.63Y-140.602
X136.63Y-141.203
X136.63Y-141.805
X136.63Y-142.407
X136.63Y-171.602
X136.63Y-172.203
X136.63Y-172.805
X136.63Y-173.407
X136.63Y-202.602
X136.63Y-203.203
X136.63Y-203.805
X136.63Y-204.407
X137.6Y-88.77
X137.6Y-119.77
X137.6Y-150.77
X137.6Y-181.77
X140.0Y-88.77
X140.0Y-117.582
X140.0Y-119.77
X140.0Y-148.582
X140.0Y-150.77
X140.0Y-179.582
X140.0Y-181.77
X140.0Y-210.582
X140.113Y-110.96
X140.113Y-141.96
X140.113Y-172.96
X140.113Y-203.96
X141.28Y-100.498
X141.28Y-131.498
X141.28Y-162.498
X141.28Y-193.498
X141.338Y-106.67
X141.338Y-137.67
X141.338Y-168.67
X141.338Y-199.67
X141.939Y-106.67
X141.939Y-137.67
X141.939Y-168.67
X141.939Y-199.67
X141.95Y-110.941
X141.95Y-141.941
X141.95Y-172.941
X141.95Y-203.941
X142.4Y-88.77
X142.4Y-119.77
X142.4Y-150.77
X142.4Y-181.77
X142.48Y-99.498
X142.48Y-130.498
X142.48Y-161.498
X142.48Y-192.498
X142.541Y-106.67
X142.541Y-137.67
X142.541Y-168.67
X142.541Y-199.67
X142.838Y-107.67
X142.838Y-138.67
X142.838Y-169.67
X142.838Y-200.67
X143.142Y-106.67
X143.142Y-137.67
X143.142Y-168.67
X143.142Y-199.67
X143.439Y-107.67
X143.439Y-138.67
X143.439Y-169.67
X143.439Y-200.67
X143.68Y-100.498
X143.68Y-131.498
X143.68Y-162.498
X143.68Y-193.498
X144.041Y-107.67
X144.041Y-138.67
X144.041Y-169.67
X144.041Y-200.67
X144.338Y-106.67
X144.338Y-137.67
X144.338Y-168.67
X144.338Y-199.67
X144.495Y-108.67
X144.495Y-139.67
X144.495Y-170.67
X144.495Y-201.67
X144.642Y-107.67
X144.642Y-138.67
X144.642Y-169.67
X144.642Y-200.67
X144.8Y-88.77
X144.8Y-117.582
X144.8Y-119.77
X144.8Y-148.582
X144.8Y-150.77
X144.8Y-179.582
X144.8Y-181.77
X144.8Y-210.582
X144.939Y-106.67
X144.939Y-137.67
X144.939Y-168.67
X144.939Y-199.67
X145.541Y-106.67
X145.541Y-137.67
X145.541Y-168.67
X145.541Y-199.67
X145.838Y-107.67
X145.838Y-138.67
X145.838Y-169.67
X145.838Y-200.67
X145.993Y-108.67
X145.993Y-109.67
X145.993Y-139.67
X145.993Y-140.67
X145.993Y-170.67
X145.993Y-171.67
X145.993Y-201.67
X145.993Y-202.67
X146.142Y-106.67
X146.142Y-137.67
X146.142Y-168.67
X146.142Y-199.67
X146.439Y-107.67
X146.439Y-138.67
X146.439Y-169.67
X146.439Y-200.67
X146.984Y-117.582
X146.984Y-148.582
X146.984Y-179.582
X146.984Y-210.582
X147.041Y-107.67
X147.041Y-138.67
X147.041Y-169.67
X147.041Y-200.67
X147.2Y-88.77
X147.2Y-119.77
X147.2Y-150.77
X147.2Y-181.77
X147.642Y-107.67
X147.642Y-138.67
X147.642Y-169.67
X147.642Y-200.67
X149.6Y-88.77
X149.6Y-119.77
X149.6Y-150.77
X149.6Y-181.77
X149.984Y-117.582
X149.984Y-148.582
X149.984Y-179.582
X149.984Y-210.582
X152.984Y-117.582
X152.984Y-148.582
X152.984Y-179.582
X152.984Y-210.582
X153.23Y-90.2
X153.23Y-121.2
X153.23Y-152.2
X153.23Y-183.2
X154.5Y-91.67
X154.5Y-122.67
X154.5Y-153.67
X154.5Y-184.67
X155.77Y-90.2
X155.77Y-121.2
X155.77Y-152.2
X155.77Y-183.2
X157.17Y-117.582
X157.17Y-148.582
X157.17Y-179.582
X157.17Y-210.582
X161.46Y-90.2
X161.46Y-117.582
X161.46Y-121.2
X161.46Y-148.582
X161.46Y-152.2
X161.46Y-179.582
X161.46Y-183.2
X161.46Y-210.582
X161.774Y-109.802
X161.774Y-140.802
X161.774Y-171.802
X161.774Y-202.802
X162.734Y-106.67
X162.734Y-137.67
X162.734Y-168.67
X162.734Y-199.67
X163.336Y-106.67
X163.336Y-137.67
X163.336Y-168.67
X163.336Y-199.67
X163.941Y-106.67
X163.941Y-137.67
X163.941Y-168.67
X163.941Y-199.67
X164.542Y-106.67
X164.542Y-137.67
X164.542Y-168.67
X164.542Y-199.67
X165.18Y-100.498
X165.18Y-131.498
X165.18Y-162.498
X165.18Y-193.498
X165.234Y-106.67
X165.234Y-137.67
X165.234Y-168.67
X165.234Y-199.67
X165.836Y-106.67
X165.836Y-137.67
X165.836Y-168.67
X165.836Y-199.67
X166.0Y-109.695
X166.0Y-140.695
X166.0Y-171.695
X166.0Y-202.695
X166.441Y-106.67
X166.441Y-137.67
X166.441Y-168.67
X166.441Y-199.67
X166.54Y-90.2
X166.54Y-117.582
X166.54Y-121.2
X166.54Y-148.582
X166.54Y-152.2
X166.54Y-179.582
X166.54Y-183.2
X166.54Y-210.582
X166.738Y-107.67
X166.738Y-138.67
X166.738Y-169.67
X166.738Y-200.67
X166.897Y-108.67
X166.897Y-139.67
X166.897Y-170.67
X166.897Y-201.67
X167.033Y-113.478
X167.033Y-144.478
X167.033Y-175.478
X167.033Y-206.478
X167.042Y-106.67
X167.042Y-137.67
X167.042Y-168.67
X167.042Y-199.67
X167.339Y-107.67
X167.339Y-138.67
X167.339Y-169.67
X167.339Y-200.67
X167.58Y-100.498
X167.58Y-131.498
X167.58Y-162.498
X167.58Y-193.498
X167.941Y-107.67
X167.941Y-138.67
X167.941Y-169.67
X167.941Y-200.67
X168.238Y-106.67
X168.238Y-137.67
X168.238Y-168.67
X168.238Y-199.67
X168.392Y-108.67
X168.392Y-109.67
X168.392Y-139.67
X168.392Y-140.67
X168.392Y-170.67
X168.392Y-171.67
X168.392Y-201.67
X168.392Y-202.67
X168.542Y-107.67
X168.542Y-138.67
X168.542Y-169.67
X168.542Y-200.67
X168.839Y-106.67
X168.839Y-137.67
X168.839Y-168.67
X168.839Y-199.67
X168.918Y-111.934
X168.918Y-142.934
X168.918Y-173.934
X168.918Y-204.934
X169.441Y-106.67
X169.441Y-137.67
X169.441Y-168.67
X169.441Y-199.67
X169.738Y-107.67
X169.738Y-138.67
X169.738Y-169.67
X169.738Y-200.67
X169.897Y-108.67
X169.897Y-109.67
X169.897Y-110.67
X169.897Y-139.67
X169.897Y-140.67
X169.897Y-141.67
X169.897Y-170.67
X169.897Y-171.67
X169.897Y-172.67
X169.897Y-201.67
X169.897Y-202.67
X169.897Y-203.67
X170.042Y-106.67
X170.042Y-137.67
X170.042Y-168.67
X170.042Y-199.67
X170.339Y-107.67
X170.339Y-138.67
X170.339Y-169.67
X170.339Y-200.67
X170.882Y-117.582
X170.882Y-148.582
X170.882Y-179.582
X170.882Y-210.582
X170.941Y-107.67
X170.941Y-138.67
X170.941Y-169.67
X170.941Y-200.67
X171.542Y-107.67
X171.542Y-138.67
X171.542Y-169.67
X171.542Y-200.67
X171.62Y-90.2
X171.62Y-121.2
X171.62Y-152.2
X171.62Y-183.2
X173.882Y-117.582
X173.882Y-148.582
X173.882Y-179.582
X173.882Y-210.582
X176.7Y-90.2
X176.7Y-121.2
X176.7Y-152.2
X176.7Y-183.2
X176.882Y-117.582
X176.882Y-148.582
X176.882Y-179.582
X176.882Y-210.582
X181.78Y-90.2
X181.78Y-101.03
X181.78Y-117.582
X181.78Y-121.2
X181.78Y-132.03
X181.78Y-148.582
X181.78Y-152.2
X181.78Y-163.03
X181.78Y-179.582
X181.78Y-183.2
X181.78Y-194.03
X181.78Y-210.582
X186.86Y-90.2
X186.86Y-95.95
X186.86Y-101.03
X186.86Y-117.582
X186.86Y-121.2
X186.86Y-126.95
X186.86Y-132.03
X186.86Y-148.582
X186.86Y-152.2
X186.86Y-157.95
X186.86Y-163.03
X186.86Y-179.582
X186.86Y-183.2
X186.86Y-188.95
X186.86Y-194.03
X186.86Y-210.582
X189.08Y-100.498
X189.08Y-131.498
X189.08Y-162.498
X189.08Y-193.498
X190.28Y-99.498
X190.28Y-130.498
X190.28Y-161.498
X190.28Y-192.498
X190.775Y-106.67
X190.775Y-107.67
X190.775Y-137.67
X190.775Y-138.67
X190.775Y-168.67
X190.775Y-169.67
X190.775Y-199.67
X190.775Y-200.67
X191.48Y-100.498
X191.48Y-131.498
X191.48Y-162.498
X191.48Y-193.498
X191.94Y-90.2
X191.94Y-95.95
X191.94Y-117.582
X191.94Y-121.2
X191.94Y-126.95
X191.94Y-148.582
X191.94Y-152.2
X191.94Y-157.95
X191.94Y-179.582
X191.94Y-183.2
X191.94Y-188.95
X191.94Y-210.582
X192.27Y-106.67
X192.27Y-107.67
X192.27Y-108.67
X192.27Y-137.67
X192.27Y-138.67
X192.27Y-139.67
X192.27Y-168.67
X192.27Y-169.67
X192.27Y-170.67
X192.27Y-199.67
X192.27Y-200.67
X192.27Y-201.67
X193.782Y-106.645
X193.782Y-107.67
X193.782Y-108.67
X193.782Y-109.67
X193.782Y-137.645
X193.782Y-138.67
X193.782Y-139.67
X193.782Y-140.67
X193.782Y-168.645
X193.782Y-169.67
X193.782Y-170.67
X193.782Y-171.67
X193.782Y-199.645
X193.782Y-200.67
X193.782Y-201.67
X193.782Y-202.67
X194.78Y-117.582
X194.78Y-148.582
X194.78Y-179.582
X194.78Y-210.582
X197.02Y-90.2
X197.02Y-95.95
X197.02Y-101.03
X197.02Y-121.2
X197.02Y-126.95
X197.02Y-132.03
X197.02Y-152.2
X197.02Y-157.95
X197.02Y-163.03
X197.02Y-183.2
X197.02Y-188.95
X197.02Y-194.03
X197.78Y-117.582
X197.78Y-148.582
X197.78Y-179.582
X197.78Y-210.582
X200.78Y-117.582
X200.78Y-148.582
X200.78Y-179.582
X200.78Y-210.582
X202.1Y-90.2
X202.1Y-95.95
X202.1Y-101.03
X202.1Y-106.11
X202.1Y-111.19
X202.1Y-117.582
X202.1Y-121.2
X202.1Y-126.95
X202.1Y-132.03
X202.1Y-137.11
X202.1Y-142.19
X202.1Y-148.582
X202.1Y-152.2
X202.1Y-157.95
X202.1Y-163.03
X202.1Y-168.11
X202.1Y-173.19
X202.1Y-179.582
X202.1Y-183.2
X202.1Y-188.95
X202.1Y-194.03
X202.1Y-199.11
X202.1Y-204.19
X202.1Y-210.582
X207.18Y-95.95
X207.18Y-101.03
X207.18Y-106.11
X207.18Y-111.19
X207.18Y-126.95
X207.18Y-132.03
X207.18Y-137.11
X207.18Y-142.19
X207.18Y-157.95
X207.18Y-163.03
X207.18Y-168.11
X207.18Y-173.19
X207.18Y-188.95
X207.18Y-194.03
X207.18Y-199.11
X207.18Y-204.19
X212.24Y-95.95
X212.24Y-101.03
X212.24Y-106.11
X212.24Y-111.19
X212.24Y-126.95
X212.24Y-132.03
X212.24Y-137.11
X212.24Y-142.19
X212.24Y-157.95
X212.24Y-163.03
X212.24Y-168.11
X212.24Y-173.19
X212.24Y-188.95
X212.24Y-194.03
X212.24Y-199.11
X212.24Y-204.19
X217.32Y-106.11
X217.32Y-111.142
X217.32Y-117.582
X217.32Y-137.11
X217.32Y-142.142
X217.32Y-148.582
X217.32Y-168.11
X217.32Y-173.142
X217.32Y-179.582
X217.32Y-199.11
X217.32Y-204.142
X217.32Y-210.582
X218.79Y-117.582
X218.79Y-148.582
X218.79Y-179.582
X218.79Y-210.582
X219.86Y-90.2
X219.86Y-95.908
X219.86Y-101.03
X219.86Y-121.2
X219.86Y-126.908
X219.86Y-132.03
X219.86Y-152.2
X219.86Y-157.908
X219.86Y-163.03
X219.86Y-183.2
X219.86Y-188.908
X219.86Y-194.03
X221.79Y-117.582
X221.79Y-148.582
X221.79Y-179.582
X221.79Y-210.582
X224.79Y-117.582
X224.79Y-148.582
X224.79Y-179.582
X224.79Y-210.582
X224.94Y-90.2
X224.94Y-95.908
X224.94Y-101.03
X224.94Y-121.2
X224.94Y-126.908
X224.94Y-132.03
X224.94Y-152.2
X224.94Y-157.908
X224.94Y-163.03
X224.94Y-183.2
X224.94Y-188.908
X224.94Y-194.03
X227.138Y-106.67
X227.138Y-137.67
X227.138Y-168.67
X227.138Y-199.67
X227.739Y-106.67
X227.739Y-137.67
X227.739Y-168.67
X227.739Y-199.67
X228.341Y-106.67
X228.341Y-137.67
X228.341Y-168.67
X228.341Y-199.67
X228.942Y-106.67
X228.942Y-137.67
X228.942Y-168.67
X228.942Y-199.67
X229.57Y-100.498
X229.57Y-131.498
X229.57Y-162.498
X229.57Y-193.498
X229.638Y-106.67
X229.638Y-137.67
X229.638Y-168.67
X229.638Y-199.67
X230.02Y-90.2
X230.02Y-95.95
X230.02Y-117.582
X230.02Y-121.2
X230.02Y-126.95
X230.02Y-148.582
X230.02Y-152.2
X230.02Y-157.95
X230.02Y-179.582
X230.02Y-183.2
X230.02Y-188.95
X230.02Y-210.582
X230.24Y-106.66
X230.24Y-137.66
X230.24Y-168.66
X230.24Y-199.66
X230.77Y-99.498
X230.77Y-130.498
X230.77Y-161.498
X230.77Y-192.498
X230.844Y-106.66
X230.844Y-137.66
X230.844Y-168.66
X230.844Y-199.66
X231.138Y-107.67
X231.138Y-138.67
X231.138Y-169.67
X231.138Y-200.67
X231.295Y-108.67
X231.295Y-109.67
X231.295Y-139.67
X231.295Y-140.67
X231.295Y-170.67
X231.295Y-171.67
X231.295Y-201.67
X231.295Y-202.67
X231.446Y-106.67
X231.446Y-137.67
X231.446Y-168.67
X231.446Y-199.67
X231.739Y-107.67
X231.739Y-138.67
X231.739Y-169.67
X231.739Y-200.67
X231.97Y-100.498
X231.97Y-131.498
X231.97Y-162.498
X231.97Y-193.498
X232.341Y-107.67
X232.341Y-138.67
X232.341Y-169.67
X232.341Y-200.67
X232.638Y-106.67
X232.638Y-137.67
X232.638Y-168.67
X232.638Y-199.67
X232.785Y-108.67
X232.785Y-109.67
X232.785Y-139.67
X232.785Y-140.67
X232.785Y-170.67
X232.785Y-171.67
X232.785Y-201.67
X232.785Y-202.67
X232.942Y-107.67
X232.942Y-138.67
X232.942Y-169.67
X232.942Y-200.67
X233.239Y-106.67
X233.239Y-137.67
X233.239Y-168.67
X233.239Y-199.67
X233.841Y-106.67
X233.841Y-137.67
X233.841Y-168.67
X233.841Y-199.67
X234.138Y-107.67
X234.138Y-138.67
X234.138Y-169.67
X234.138Y-200.67
X234.442Y-106.67
X234.442Y-137.67
X234.442Y-168.67
X234.442Y-199.67
X234.49Y-108.67
X234.49Y-139.67
X234.49Y-170.67
X234.49Y-201.67
X234.739Y-107.67
X234.739Y-138.67
X234.739Y-169.67
X234.739Y-200.67
X235.1Y-90.2
X235.1Y-95.95
X235.1Y-101.03
X235.1Y-117.582
X235.1Y-121.2
X235.1Y-126.95
X235.1Y-132.03
X235.1Y-148.582
X235.1Y-152.2
X235.1Y-157.95
X235.1Y-163.03
X235.1Y-179.582
X235.1Y-183.2
X235.1Y-188.95
X235.1Y-194.03
X235.1Y-210.582
X235.341Y-107.67
X235.341Y-138.67
X235.341Y-169.67
X235.341Y-200.67
X235.942Y-107.67
X235.942Y-138.67
X235.942Y-169.67
X235.942Y-200.67
X240.18Y-90.2
X240.18Y-95.95
X240.18Y-117.582
X240.18Y-121.2
X240.18Y-126.95
X240.18Y-148.582
X240.18Y-152.2
X240.18Y-157.95
X240.18Y-179.582
X240.18Y-183.2
X240.18Y-188.95
X240.18Y-210.582
X242.627Y-117.582
X242.627Y-148.582
X242.627Y-179.582
X242.627Y-210.582
X245.26Y-90.2
X245.26Y-121.2
X245.26Y-152.2
X245.26Y-183.2
X245.686Y-117.586
X245.686Y-148.586
X245.686Y-179.586
X245.686Y-210.586
X248.686Y-117.582
X248.686Y-148.582
X248.686Y-179.582
X248.686Y-210.582
X250.34Y-90.2
X250.34Y-117.582
X250.34Y-121.2
X250.34Y-148.582
X250.34Y-152.2
X250.34Y-179.582
X250.34Y-183.2
X250.34Y-210.582
X253.49Y-100.498
X253.49Y-131.498
X253.49Y-162.498
X253.49Y-193.498
X254.69Y-99.328
X254.69Y-130.328
X254.69Y-161.328
X254.69Y-192.328
X255.192Y-106.67
X255.192Y-107.67
X255.192Y-108.67
X255.192Y-109.67
X255.192Y-110.67
X255.192Y-137.67
X255.192Y-138.67
X255.192Y-139.67
X255.192Y-140.67
X255.192Y-141.67
X255.192Y-168.67
X255.192Y-169.67
X255.192Y-170.67
X255.192Y-171.67
X255.192Y-172.67
X255.192Y-199.67
X255.192Y-200.67
X255.192Y-201.67
X255.192Y-202.67
X255.192Y-203.67
X255.42Y-90.2
X255.42Y-117.582
X255.42Y-121.2
X255.42Y-148.582
X255.42Y-152.2
X255.42Y-179.582
X255.42Y-183.2
X255.42Y-210.582
X255.89Y-100.498
X255.89Y-131.498
X255.89Y-162.498
X255.89Y-193.498
X256.67Y-107.67
X256.67Y-138.67
X256.67Y-169.67
X256.67Y-200.67
X256.7Y-106.67
X256.7Y-108.67
X256.7Y-109.67
X256.7Y-137.67
X256.7Y-139.67
X256.7Y-140.67
X256.7Y-168.67
X256.7Y-170.67
X256.7Y-171.67
X256.7Y-199.67
X256.7Y-201.67
X256.7Y-202.67
X258.188Y-106.67
X258.188Y-107.67
X258.188Y-108.67
X258.188Y-137.67
X258.188Y-138.67
X258.188Y-139.67
X258.188Y-168.67
X258.188Y-169.67
X258.188Y-170.67
X258.188Y-199.67
X258.188Y-200.67
X258.188Y-201.67
X260.5Y-90.2
X260.5Y-117.582
X260.5Y-121.2
X260.5Y-148.582
X260.5Y-152.2
X260.5Y-179.582
X260.5Y-183.2
X260.5Y-210.582
X264.23Y-90.2
X264.23Y-121.2
X264.23Y-152.2
X264.23Y-183.2
X265.5Y-91.67
X265.5Y-122.67
X265.5Y-153.67
X265.5Y-184.67
X266.586Y-117.582
X266.586Y-148.582
X266.586Y-179.582
X266.586Y-210.582
X269.586Y-117.582
X269.586Y-148.582
X269.586Y-179.582
X269.586Y-210.582
X271.2Y-88.77
X271.2Y-119.77
X271.2Y-150.77
X271.2Y-181.77
X272.586Y-117.582
X272.586Y-148.582
X272.586Y-179.582
X272.586Y-210.582
X273.6Y-88.77
X273.6Y-119.77
X273.6Y-150.77
X273.6Y-181.77
X274.938Y-106.67
X274.938Y-137.67
X274.938Y-168.67
X274.938Y-199.67
X275.539Y-106.67
X275.539Y-137.67
X275.539Y-168.67
X275.539Y-199.67
X276.0Y-88.77
X276.0Y-117.582
X276.0Y-119.77
X276.0Y-148.582
X276.0Y-150.77
X276.0Y-179.582
X276.0Y-181.77
X276.0Y-210.582
X276.141Y-106.67
X276.141Y-137.67
X276.141Y-168.67
X276.141Y-199.67
X276.742Y-106.67
X276.742Y-137.67
X276.742Y-168.67
X276.742Y-199.67
X277.39Y-100.498
X277.39Y-131.498
X277.39Y-162.498
X277.39Y-193.498
X278.4Y-88.77
X278.4Y-119.77
X278.4Y-150.77
X278.4Y-181.77
X278.59Y-99.498
X278.59Y-130.498
X278.59Y-161.498
X278.59Y-192.498
X279.085Y-106.67
X279.085Y-107.67
X279.085Y-108.67
X279.085Y-109.67
X279.085Y-137.67
X279.085Y-138.67
X279.085Y-139.67
X279.085Y-140.67
X279.085Y-168.67
X279.085Y-169.67
X279.085Y-170.67
X279.085Y-171.67
X279.085Y-199.67
X279.085Y-200.67
X279.085Y-201.67
X279.085Y-202.67
X279.79Y-100.498
X279.79Y-131.498
X279.79Y-162.498
X279.79Y-193.498
X280.09Y-111.73
X280.09Y-142.73
X280.09Y-173.73
X280.09Y-204.73
X280.595Y-106.67
X280.595Y-107.67
X280.595Y-108.67
X280.595Y-109.67
X280.595Y-137.67
X280.595Y-138.67
X280.595Y-139.67
X280.595Y-140.67
X280.595Y-168.67
X280.595Y-169.67
X280.595Y-170.67
X280.595Y-171.67
X280.595Y-199.67
X280.595Y-200.67
X280.595Y-201.67
X280.595Y-202.67
X280.8Y-88.77
X280.8Y-117.582
X280.8Y-119.77
X280.8Y-148.582
X280.8Y-150.77
X280.8Y-179.582
X280.8Y-181.77
X280.8Y-210.582
X282.092Y-106.67
X282.092Y-107.67
X282.092Y-137.67
X282.092Y-138.67
X282.092Y-168.67
X282.092Y-169.67
X282.092Y-199.67
X282.092Y-200.67
X282.46Y-109.578
X282.46Y-110.179
X282.46Y-110.781
X282.46Y-111.382
X282.46Y-140.578
X282.46Y-141.179
X282.46Y-141.781
X282.46Y-142.382
X282.46Y-171.578
X282.46Y-172.179
X282.46Y-172.781
X282.46Y-173.382
X282.46Y-202.578
X282.46Y-203.179
X282.46Y-203.781
X282.46Y-204.382
X282.655Y-113.835
X282.655Y-144.835
X282.655Y-175.835
X282.655Y-206.835
X283.2Y-88.77
X283.2Y-119.77
X283.2Y-150.77
X283.2Y-181.77
X283.288Y-107.875
X283.288Y-138.875
X283.288Y-169.875
X283.288Y-200.875
X285.6Y-88.77
X285.6Y-117.582
X285.6Y-119.77
X285.6Y-148.582
X285.6Y-150.77
X285.6Y-179.582
X285.6Y-181.77
X285.6Y-210.582
X288.0Y-88.77
X288.0Y-119.77
X288.0Y-150.77
X288.0Y-181.77
X290.4Y-88.77
X290.4Y-119.77
X290.4Y-150.77
X290.4Y-181.77
X292.8Y-88.77
X292.8Y-119.77
X292.8Y-150.77
X292.8Y-181.77
X295.2Y-88.77
X295.2Y-117.582
X295.2Y-119.77
X295.2Y-148.582
X295.2Y-150.77
X295.2Y-179.582
X295.2Y-181.77
X295.2Y-210.582
X296.63Y-109.602
X296.63Y-110.203
X296.63Y-110.805
X296.63Y-111.407
X296.63Y-140.602
X296.63Y-141.203
X296.63Y-141.805
X296.63Y-142.407
X296.63Y-171.602
X296.63Y-172.203
X296.63Y-172.805
X296.63Y-173.407
X296.63Y-202.602
X296.63Y-203.203
X296.63Y-203.805
X296.63Y-204.407
X297.6Y-88.77
X297.6Y-119.77
X297.6Y-150.77
X297.6Y-181.77
X300.0Y-88.77
X300.0Y-117.582
X300.0Y-119.77
X300.0Y-148.582
X300.0Y-150.77
X300.0Y-179.582
X300.0Y-181.77
X300.0Y-210.582
X300.113Y-110.96
X300.113Y-141.96
X300.113Y-172.96
X300.113Y-203.96
X301.28Y-100.498
X301.28Y-131.498
X301.28Y-162.498
X301.28Y-193.498
X301.338Y-106.67
X301.338Y-137.67
X301.338Y-168.67
X301.338Y-199.67
X301.939Y-106.67
X301.939Y-137.67
X301.939Y-168.67
X301.939Y-199.67
X301.95Y-110.941
X301.95Y-141.941
X301.95Y-172.941
X301.95Y-203.941
X302.4Y-88.77
X302.4Y-119.77
X302.4Y-150.77
X302.4Y-181.77
X302.48Y-99.498
X302.48Y-130.498
X302.48Y-161.498
X302.48Y-192.498
X302.541Y-106.67
X302.541Y-137.67
X302.541Y-168.67
X302.541Y-199.67
X302.838Y-107.67
X302.838Y-138.67
X302.838Y-169.67
X302.838Y-200.67
X303.142Y-106.67
X303.142Y-137.67
X303.142Y-168.67
X303.142Y-199.67
X303.439Y-107.67
X303.439Y-138.67
X303.439Y-169.67
X303.439Y-200.67
X303.68Y-100.498
X303.68Y-131.498
X303.68Y-162.498
X303.68Y-193.498
X304.041Y-107.67
X304.041Y-138.67
X304.041Y-169.67
X304.041Y-200.67
X304.338Y-106.67
X304.338Y-137.67
X304.338Y-168.67
X304.338Y-199.67
X304.495Y-108.67
X304.495Y-139.67
X304.495Y-170.67
X304.495Y-201.67
X304.642Y-107.67
X304.642Y-138.67
X304.642Y-169.67
X304.642Y-200.67
X304.8Y-88.77
X304.8Y-117.582
X304.8Y-119.77
X304.8Y-148.582
X304.8Y-150.77
X304.8Y-179.582
X304.8Y-181.77
X304.8Y-210.582
X304.939Y-106.67
X304.939Y-137.67
X304.939Y-168.67
X304.939Y-199.67
X305.541Y-106.67
X305.541Y-137.67
X305.541Y-168.67
X305.541Y-199.67
X305.838Y-107.67
X305.838Y-138.67
X305.838Y-169.67
X305.838Y-200.67
X305.993Y-108.67
X305.993Y-109.67
X305.993Y-139.67
X305.993Y-140.67
X305.993Y-170.67
X305.993Y-171.67
X305.993Y-201.67
X305.993Y-202.67
X306.142Y-106.67
X306.142Y-137.67
X306.142Y-168.67
X306.142Y-199.67
X306.439Y-107.67
X306.439Y-138.67
X306.439Y-169.67
X306.439Y-200.67
X306.984Y-117.582
X306.984Y-148.582
X306.984Y-179.582
X306.984Y-210.582
X307.041Y-107.67
X307.041Y-138.67
X307.041Y-169.67
X307.041Y-200.67
X307.2Y-88.77
X307.2Y-119.77
X307.2Y-150.77
X307.2Y-181.77
X307.642Y-107.67
X307.642Y-138.67
X307.642Y-169.67
X307.642Y-200.67
X309.6Y-88.77
X309.6Y-119.77
X309.6Y-150.77
X309.6Y-181.77
X309.984Y-117.582
X309.984Y-148.582
X309.984Y-179.582
X309.984Y-210.582
X312.984Y-117.582
X312.984Y-148.582
X312.984Y-179.582
X312.984Y-210.582
X313.23Y-90.2
X313.23Y-121.2
X313.23Y-152.2
X313.23Y-183.2
X314.5Y-91.67
X314.5Y-122.67
X314.5Y-153.67
X314.5Y-184.67
X315.77Y-90.2
X315.77Y-121.2
X315.77Y-152.2
X315.77Y-183.2
X317.17Y-117.582
X317.17Y-148.582
X317.17Y-179.582
X317.17Y-210.582
X321.46Y-90.2
X321.46Y-117.582
X321.46Y-121.2
X321.46Y-148.582
X321.46Y-152.2
X321.46Y-179.582
X321.46Y-183.2
X321.46Y-210.582
X321.774Y-109.802
X321.774Y-140.802
X321.774Y-171.802
X321.774Y-202.802
X322.734Y-106.67
X322.734Y-137.67
X322.734Y-168.67
X322.734Y-199.67
X323.336Y-106.67
X323.336Y-137.67
X323.336Y-168.67
X323.336Y-199.67
X323.941Y-106.67
X323.941Y-137.67
X323.941Y-168.67
X323.941Y-199.67
X324.542Y-106.67
X324.542Y-137.67
X324.542Y-168.67
X324.542Y-199.67
X325.18Y-100.498
X325.18Y-131.498
X325.18Y-162.498
X325.18Y-193.498
X325.234Y-106.67
X325.234Y-137.67
X325.234Y-168.67
X325.234Y-199.67
X325.836Y-106.67
X325.836Y-137.67
X325.836Y-168.67
X325.836Y-199.67
X326.0Y-109.695
X326.0Y-140.695
X326.0Y-171.695
X326.0Y-202.695
X326.441Y-106.67
X326.441Y-137.67
X326.441Y-168.67
X326.441Y-199.67
X326.54Y-90.2
X326.54Y-117.582
X326.54Y-121.2
X326.54Y-148.582
X326.54Y-152.2
X326.54Y-179.582
X326.54Y-183.2
X326.54Y-210.582
X326.738Y-107.67
X326.738Y-138.67
X326.738Y-169.67
X326.738Y-200.67
X326.897Y-108.67
X326.897Y-139.67
X326.897Y-170.67
X326.897Y-201.67
X327.033Y-113.478
X327.033Y-144.478
X327.033Y-175.478
X327.033Y-206.478
X327.042Y-106.67
X327.042Y-137.67
X327.042Y-168.67
X327.042Y-199.67
X327.339Y-107.67
X327.339Y-138.67
X327.339Y-169.67
X327.339Y-200.67
X327.58Y-100.498
X327.58Y-131.498
X327.58Y-162.498
X327.58Y-193.498
X327.941Y-107.67
X327.941Y-138.67
X327.941Y-169.67
X327.941Y-200.67
X328.238Y-106.67
X328.238Y-137.67
X328.238Y-168.67
X328.238Y-199.67
X328.392Y-108.67
X328.392Y-109.67
X328.392Y-139.67
X328.392Y-140.67
X328.392Y-170.67
X328.392Y-171.67
X328.392Y-201.67
X328.392Y-202.67
X328.542Y-107.67
X328.542Y-138.67
X328.542Y-169.67
X328.542Y-200.67
X328.839Y-106.67
X328.839Y-137.67
X328.839Y-168.67
X328.839Y-199.67
X328.918Y-111.934
X328.918Y-142.934
X328.918Y-173.934
X328.918Y-204.934
X329.441Y-106.67
X329.441Y-137.67
X329.441Y-168.67
X329.441Y-199.67
X329.738Y-107.67
X329.738Y-138.67
X329.738Y-169.67
X329.738Y-200.67
X329.897Y-108.67
X329.897Y-109.67
X329.897Y-110.67
X329.897Y-139.67
X329.897Y-140.67
X329.897Y-141.67
X329.897Y-170.67
X329.897Y-171.67
X329.897Y-172.67
X329.897Y-201.67
X329.897Y-202.67
X329.897Y-203.67
X330.042Y-106.67
X330.042Y-137.67
X330.042Y-168.67
X330.042Y-199.67
X330.339Y-107.67
X330.339Y-138.67
X330.339Y-169.67
X330.339Y-200.67
X330.882Y-117.582
X330.882Y-148.582
X330.882Y-179.582
X330.882Y-210.582
X330.941Y-107.67
X330.941Y-138.67
X330.941Y-169.67
X330.941Y-200.67
X331.542Y-107.67
X331.542Y-138.67
X331.542Y-169.67
X331.542Y-200.67
X331.62Y-90.2
X331.62Y-121.2
X331.62Y-152.2
X331.62Y-183.2
X333.882Y-117.582
X333.882Y-148.582
X333.882Y-179.582
X333.882Y-210.582
X336.7Y-90.2
X336.7Y-121.2
X336.7Y-152.2
X336.7Y-183.2
X336.882Y-117.582
X336.882Y-148.582
X336.882Y-179.582
X336.882Y-210.582
X341.78Y-90.2
X341.78Y-101.03
X341.78Y-117.582
X341.78Y-121.2
X341.78Y-132.03
X341.78Y-148.582
X341.78Y-152.2
X341.78Y-163.03
X341.78Y-179.582
X341.78Y-183.2
X341.78Y-194.03
X341.78Y-210.582
X346.86Y-90.2
X346.86Y-95.95
X346.86Y-101.03
X346.86Y-117.582
X346.86Y-121.2
X346.86Y-126.95
X346.86Y-132.03
X346.86Y-148.582
X346.86Y-152.2
X346.86Y-157.95
X346.86Y-163.03
X346.86Y-179.582
X346.86Y-183.2
X346.86Y-188.95
X346.86Y-194.03
X346.86Y-210.582
X349.08Y-100.498
X349.08Y-131.498
X349.08Y-162.498
X349.08Y-193.498
X350.28Y-99.498
X350.28Y-130.498
X350.28Y-161.498
X350.28Y-192.498
X350.775Y-106.67
X350.775Y-107.67
X350.775Y-137.67
X350.775Y-138.67
X350.775Y-168.67
X350.775Y-169.67
X350.775Y-199.67
X350.775Y-200.67
X351.48Y-100.498
X351.48Y-131.498
X351.48Y-162.498
X351.48Y-193.498
X351.94Y-90.2
X351.94Y-95.95
X351.94Y-117.582
X351.94Y-121.2
X351.94Y-126.95
X351.94Y-148.582
X351.94Y-152.2
X351.94Y-157.95
X351.94Y-179.582
X351.94Y-183.2
X351.94Y-188.95
X351.94Y-210.582
X352.27Y-106.67
X352.27Y-107.67
X352.27Y-108.67
X352.27Y-137.67
X352.27Y-138.67
X352.27Y-139.67
X352.27Y-168.67
X352.27Y-169.67
X352.27Y-170.67
X352.27Y-199.67
X352.27Y-200.67
X352.27Y-201.67
X353.782Y-106.645
X353.782Y-107.67
X353.782Y-108.67
X353.782Y-109.67
X353.782Y-137.645
X353.782Y-138.67
X353.782Y-139.67
X353.782Y-140.67
X353.782Y-168.645
X353.782Y-169.67
X353.782Y-170.67
X353.782Y-171.67
X353.782Y-199.645
X353.782Y-200.67
X353.782Y-201.67
X353.782Y-202.67
X354.78Y-117.582
X354.78Y-148.582
X354.78Y-179.582
X354.78Y-210.582
X357.02Y-90.2
X357.02Y-95.95
X357.02Y-101.03
X357.02Y-121.2
X357.02Y-126.95
X357.02Y-132.03
X357.02Y-152.2
X357.02Y-157.95
X357.02Y-163.03
X357.02Y-183.2
X357.02Y-188.95
X357.02Y-194.03
X357.78Y-117.582
X357.78Y-148.582
X357.78Y-179.582
X357.78Y-210.582
X360.78Y-117.582
X360.78Y-148.582
X360.78Y-179.582
X360.78Y-210.582
X362.1Y-90.2
X362.1Y-95.95
X362.1Y-101.03
X362.1Y-106.11
X362.1Y-111.19
X362.1Y-117.582
X362.1Y-121.2
X362.1Y-126.95
X362.1Y-132.03
X362.1Y-137.11
X362.1Y-142.19
X362.1Y-148.582
X362.1Y-152.2
X362.1Y-157.95
X362.1Y-163.03
X362.1Y-168.11
X362.1Y-173.19
X362.1Y-179.582
X362.1Y-183.2
X362.1Y-188.95
X362.1Y-194.03
X362.1Y-199.11
X362.1Y-204.19
X362.1Y-210.582
X367.18Y-95.95
X367.18Y-101.03
X367.18Y-106.11
X367.18Y-111.19
X367.18Y-126.95
X367.18Y-132.03
X367.18Y-137.11
X367.18Y-142.19
X367.18Y-157.95
X367.18Y-163.03
X367.18Y-168.11
X367.18Y-173.19
X367.18Y-188.95
X367.18Y-194.03
X367.18Y-199.11
X367.18Y-204.19
T2
X61.79Y-113.82
X61.79Y-144.82
X61.79Y-175.82
X61.79Y-206.82
X78.29Y-113.82
X78.29Y-144.82
X78.29Y-175.82
X78.29Y-206.82
X85.686Y-113.819
X85.686Y-144.819
X85.686Y-175.819
X85.686Y-206.819
X102.186Y-113.819
X102.186Y-144.819
X102.186Y-175.819
X102.186Y-206.819
X109.586Y-113.82
X109.586Y-144.82
X109.586Y-175.82
X109.586Y-206.82
X126.086Y-113.82
X126.086Y-144.82
X126.086Y-175.82
X126.086Y-206.82
X133.484Y-113.82
X133.484Y-144.82
X133.484Y-175.82
X133.484Y-206.82
X149.984Y-113.82
X149.984Y-144.82
X149.984Y-175.82
X149.984Y-206.82
X157.382Y-113.82
X157.382Y-144.82
X157.382Y-175.82
X157.382Y-206.82
X173.882Y-113.82
X173.882Y-144.82
X173.882Y-175.82
X173.882Y-206.82
X181.28Y-113.82
X181.28Y-144.82
X181.28Y-175.82
X181.28Y-206.82
X197.78Y-113.82
X197.78Y-144.82
X197.78Y-175.82
X197.78Y-206.82
X221.79Y-113.82
X221.79Y-144.82
X221.79Y-175.82
X221.79Y-206.82
X238.29Y-113.82
X238.29Y-144.82
X238.29Y-175.82
X238.29Y-206.82
X245.686Y-113.819
X245.686Y-144.819
X245.686Y-175.819
X245.686Y-206.819
X262.186Y-113.819
X262.186Y-144.819
X262.186Y-175.819
X262.186Y-206.819
X269.586Y-113.82
X269.586Y-144.82
X269.586Y-175.82
X269.586Y-206.82
X286.086Y-113.82
X286.086Y-144.82
X286.086Y-175.82
X286.086Y-206.82
X293.484Y-113.82
X293.484Y-144.82
X293.484Y-175.82
X293.484Y-206.82
X309.984Y-113.82
X309.984Y-144.82
X309.984Y-175.82
X309.984Y-206.82
X317.382Y-113.82
X317.382Y-144.82
X317.382Y-175.82
X317.382Y-206.82
X333.882Y-113.82
X333.882Y-144.82
X333.882Y-175.82
X333.882Y-206.82
X341.28Y-113.82
X341.28Y-144.82
X341.28Y-175.82
X341.28Y-206.82
X357.78Y-113.82
X357.78Y-144.82
X357.78Y-175.82
X357.78Y-206.82
T3
X61.79Y-107.04
X61.79Y-138.04
X61.79Y-169.04
X61.79Y-200.04
X78.29Y-107.04
X78.29Y-138.04
X78.29Y-169.04
X78.29Y-200.04
X85.686Y-107.039
X85.686Y-138.039
X85.686Y-169.039
X85.686Y-200.039
X102.186Y-107.039
X102.186Y-138.039
X102.186Y-169.039
X102.186Y-200.039
X109.586Y-107.04
X109.586Y-138.04
X109.586Y-169.04
X109.586Y-200.04
X126.086Y-107.04
X126.086Y-138.04
X126.086Y-169.04
X126.086Y-200.04
X133.484Y-107.04
X133.484Y-138.04
X133.484Y-169.04
X133.484Y-200.04
X149.984Y-107.04
X149.984Y-138.04
X149.984Y-169.04
X149.984Y-200.04
X157.382Y-107.04
X157.382Y-138.04
X157.382Y-169.04
X157.382Y-200.04
X173.882Y-107.04
X173.882Y-138.04
X173.882Y-169.04
X173.882Y-200.04
X181.28Y-107.04
X181.28Y-138.04
X181.28Y-169.04
X181.28Y-200.04
X197.78Y-107.04
X197.78Y-138.04
X197.78Y-169.04
X197.78Y-200.04
X221.79Y-107.04
X221.79Y-138.04
X221.79Y-169.04
X221.79Y-200.04
X238.29Y-107.04
X238.29Y-138.04
X238.29Y-169.04
X238.29Y-200.04
X245.686Y-107.039
X245.686Y-138.039
X245.686Y-169.039
X245.686Y-200.039
X262.186Y-107.039
X262.186Y-138.039
X262.186Y-169.039
X262.186Y-200.039
X269.586Y-107.04
X269.586Y-138.04
X269.586Y-169.04
X269.586Y-200.04
X286.086Y-107.04
X286.086Y-138.04
X286.086Y-169.04
X286.086Y-200.04
X293.484Y-107.04
X293.484Y-138.04
X293.484Y-169.04
X293.484Y-200.04
X309.984Y-107.04
X309.984Y-138.04
X309.984Y-169.04
X309.984Y-200.04
X317.382Y-107.04
X317.382Y-138.04
X317.382Y-169.04
X317.382Y-200.04
X333.882Y-107.04
X333.882Y-138.04
X333.882Y-169.04
X333.882Y-200.04
X341.28Y-107.04
X341.28Y-138.04
X341.28Y-169.04
X341.28Y-200.04
X357.78Y-107.04
X357.78Y-138.04
X357.78Y-169.04
X357.78Y-200.04
T0
M30
