%TF.GenerationSoftware,KiCad,Pcbnew,(7.0.0)*%
%TF.CreationDate,2023-07-13T12:21:55+02:00*%
%TF.ProjectId,Panelization,50616e65-6c69-47a6-9174-696f6e2e6b69,V1*%
%TF.SameCoordinates,PX2d4cae0PY73df160*%
%TF.FileFunction,Other,User*%
%FSLAX46Y46*%
G04 Gerber Fmt 4.6, Leading zero omitted, Abs format (unit mm)*
G04 Created by KiCad (PCBNEW (7.0.0)) date 2023-07-13 12:21:55*
%MOMM*%
%LPD*%
G01*
G04 APERTURE LIST*
%TA.AperFunction,Profile*%
%ADD10C,0.100000*%
%TD*%
G04 APERTURE END LIST*
D10*
X322500000Y-59500000D02*
X327500000Y-59500000D01*
X219281424Y-1556220D02*
X219280000Y-1500000D01*
X59710561Y-2377761D02*
X59666975Y-2342222D01*
X220277703Y-2604305D02*
X220221915Y-2597200D01*
X103569094Y-55114490D02*
X103589956Y-55062264D01*
X104121162Y-54503436D02*
X104172264Y-54479956D01*
X104497703Y-54395694D02*
X104553779Y-54391424D01*
X61449095Y-1832293D02*
X61430905Y-1885509D01*
X219851314Y-2470525D02*
X219802849Y-2441995D01*
X265047735Y-54479956D02*
X265098837Y-54503436D01*
X265148685Y-54529474D02*
X265197150Y-54558004D01*
X103930561Y-54622238D02*
X103975891Y-54588951D01*
X220775509Y-2540905D02*
X220722293Y-2559095D01*
X221301048Y-2134108D02*
X221267761Y-2179438D01*
X104778084Y-54402799D02*
X104833441Y-54412721D01*
X221194520Y-2264753D02*
X221154753Y-2304520D01*
X103535433Y-55221775D02*
X103550904Y-55167706D01*
X265452222Y-54776975D02*
X265487761Y-54820561D01*
X104888224Y-54425433D02*
X104942293Y-54440904D01*
X219419474Y-2038685D02*
X219393436Y-1988837D01*
X221360525Y-2038685D02*
X221331995Y-2087150D01*
X221477278Y-1723441D02*
X221464566Y-1778224D01*
X103805479Y-54735246D02*
X103845246Y-54695479D01*
X60221915Y-2597200D02*
X60166558Y-2587278D01*
X60111775Y-2574566D02*
X60057706Y-2559095D01*
X61194520Y-2264753D02*
X61154753Y-2304520D01*
X103589956Y-55062264D02*
X103613436Y-55011162D01*
X265720000Y-59500000D02*
X268500000Y-59500000D01*
X221232222Y-2223024D02*
X221194520Y-2264753D01*
X265630043Y-55062264D02*
X265650905Y-55114490D01*
X220722293Y-2559095D02*
X220668224Y-2574566D01*
X265289438Y-54622238D02*
X265333024Y-54657777D01*
X322500000Y2500000D02*
X221500000Y2500000D01*
X103512799Y-55331915D02*
X103522721Y-55276558D01*
X61267761Y-2179438D02*
X61232222Y-2223024D01*
X264553779Y-54391424D02*
X264610000Y-54390000D01*
X59448004Y-2087150D02*
X59419474Y-2038685D01*
X264942293Y-54440904D02*
X264995509Y-54459094D01*
X220111775Y-2574566D02*
X220057706Y-2559095D01*
X105714305Y-55387703D02*
X105718575Y-55443779D01*
X264995509Y-54459094D02*
X265047735Y-54479956D01*
X263975891Y-54588951D02*
X264022849Y-54558004D01*
X61301048Y-2134108D02*
X61267761Y-2179438D01*
X219585479Y-2264753D02*
X219547777Y-2223024D01*
X60446220Y-2608575D02*
X60390000Y-2609999D01*
X105719999Y-55500000D02*
X105720000Y-59500000D01*
X265098837Y-54503436D02*
X265148685Y-54529474D01*
X263886975Y-54657777D02*
X263930561Y-54622238D01*
X108500000Y-59500000D02*
X162500000Y-59500000D01*
X103500000Y-55500000D02*
X103501424Y-55443779D01*
X221430905Y-1885509D02*
X221410043Y-1937735D01*
X219666975Y-2342222D02*
X219625246Y-2304520D01*
X103975891Y-54588951D02*
X104022849Y-54558004D01*
X61232222Y-2223024D02*
X61194520Y-2264753D01*
X265374753Y-54695479D02*
X265414520Y-54735246D01*
X219315433Y-1778224D02*
X219302721Y-1723441D01*
X103668004Y-54912849D02*
X103698951Y-54865891D01*
X219349094Y-1885509D02*
X219330904Y-1832293D01*
X265606563Y-55011162D02*
X265630043Y-55062264D01*
X221487200Y-1668084D02*
X221477278Y-1723441D01*
X219802849Y-2441995D02*
X219755891Y-2411048D01*
X219710561Y-2377761D02*
X219666975Y-2342222D01*
X60502296Y-2604305D02*
X60446220Y-2608575D01*
X264224490Y-54459094D02*
X264277706Y-54440904D01*
X59292799Y-1668084D02*
X59285694Y-1612296D01*
X263501424Y-55443779D02*
X263505694Y-55387703D01*
X221500000Y2500000D02*
X221500000Y-1500000D01*
X219478951Y-2134108D02*
X219448004Y-2087150D01*
X105289438Y-54622238D02*
X105333024Y-54657777D01*
X105580525Y-54961314D02*
X105606563Y-55011162D01*
X105669095Y-55167706D02*
X105684566Y-55221775D01*
X219901162Y-2496563D02*
X219851314Y-2470525D01*
X105521048Y-54865891D02*
X105551995Y-54912849D01*
X61024108Y-2411048D02*
X60977150Y-2441995D01*
X105414520Y-54735246D02*
X105452222Y-54776975D01*
X264277706Y-54440904D02*
X264331775Y-54425433D01*
X219755891Y-2411048D02*
X219710561Y-2377761D01*
X61069438Y-2377761D02*
X61024108Y-2411048D01*
X265719999Y-55500000D02*
X265720000Y-59500000D01*
X60004490Y-2540905D02*
X59952264Y-2520043D01*
X104833441Y-54412721D02*
X104888224Y-54425433D01*
X104277706Y-54440904D02*
X104331775Y-54425433D01*
X104995509Y-54459094D02*
X105047735Y-54479956D01*
X61494305Y-1612296D02*
X61487200Y-1668084D01*
X220668224Y-2574566D02*
X220613441Y-2587278D01*
X264833441Y-54412721D02*
X264888224Y-54425433D01*
X103550904Y-55167706D02*
X103569094Y-55114490D01*
X268500000Y-59500000D02*
X322500000Y-59500000D01*
X104022849Y-54558004D02*
X104071314Y-54529474D01*
X264331775Y-54425433D02*
X264386558Y-54412721D01*
X327500000Y2500000D02*
X322500000Y2500000D01*
X61386563Y-1988837D02*
X61360525Y-2038685D01*
X60558084Y-2597200D02*
X60502296Y-2604305D01*
X103767777Y-54776975D02*
X103805479Y-54735246D01*
X2500000Y2500000D02*
X-2500000Y2500000D01*
X220057706Y-2559095D02*
X220004490Y-2540905D01*
X103505694Y-55387703D02*
X103512799Y-55331915D01*
X61113024Y-2342222D02*
X61069438Y-2377761D01*
X219292799Y-1668084D02*
X219285694Y-1612296D01*
X60057706Y-2559095D02*
X60004490Y-2540905D01*
X221498575Y-1556220D02*
X221494305Y-1612296D01*
X220446220Y-2608575D02*
X220390000Y-2609999D01*
X60613441Y-2587278D02*
X60558084Y-2597200D01*
X265414520Y-54735246D02*
X265452222Y-54776975D01*
X220004490Y-2540905D02*
X219952264Y-2520043D01*
X61331995Y-2087150D02*
X61301048Y-2134108D01*
X59755891Y-2411048D02*
X59710561Y-2377761D01*
X220928685Y-2470525D02*
X220878837Y-2496563D01*
X263550904Y-55167706D02*
X263569094Y-55114490D01*
X61154753Y-2304520D02*
X61113024Y-2342222D01*
X59901162Y-2496563D02*
X59851314Y-2470525D01*
X-2500000Y2500000D02*
X-2500000Y-59500000D01*
X59512238Y-2179438D02*
X59478951Y-2134108D01*
X105197150Y-54558004D02*
X105244108Y-54588951D01*
X59281424Y-1556220D02*
X59280000Y-1500000D01*
X105697278Y-55276558D02*
X105707200Y-55331915D01*
X105707200Y-55331915D02*
X105714305Y-55387703D01*
X61477278Y-1723441D02*
X61464566Y-1778224D01*
X263767777Y-54776975D02*
X263805479Y-54735246D01*
X103698951Y-54865891D02*
X103732238Y-54820561D01*
X265650905Y-55114490D02*
X265669095Y-55167706D01*
X104386558Y-54412721D02*
X104441915Y-54402799D01*
X263500000Y-59500000D02*
X263500000Y-55500000D01*
X162500000Y-59500000D02*
X263500000Y-59500000D01*
X59393436Y-1988837D02*
X59369956Y-1937735D01*
X221410043Y-1937735D02*
X221386563Y-1988837D01*
X221069438Y-2377761D02*
X221024108Y-2411048D01*
X264386558Y-54412721D02*
X264441915Y-54402799D01*
X264888224Y-54425433D02*
X264942293Y-54440904D01*
X220977150Y-2441995D02*
X220928685Y-2470525D01*
X221267761Y-2179438D02*
X221232222Y-2223024D01*
X103845246Y-54695479D02*
X103886975Y-54657777D01*
X263698951Y-54865891D02*
X263732238Y-54820561D01*
X264172264Y-54479956D02*
X264224490Y-54459094D01*
X220333779Y-2608575D02*
X220277703Y-2604305D01*
X59302721Y-1723441D02*
X59292799Y-1668084D01*
X61410043Y-1937735D02*
X61386563Y-1988837D01*
X265714305Y-55387703D02*
X265718575Y-55443779D01*
X103639474Y-54961314D02*
X103668004Y-54912849D01*
X60928685Y-2470525D02*
X60878837Y-2496563D01*
X327500000Y-59500000D02*
X327500000Y2500000D01*
X220221915Y-2597200D02*
X220166558Y-2587278D01*
X105333024Y-54657777D02*
X105374753Y-54695479D01*
X220390000Y-2609999D02*
X220333779Y-2608575D01*
X265551995Y-54912849D02*
X265580525Y-54961314D01*
X264666220Y-54391424D02*
X264722296Y-54395694D01*
X60878837Y-2496563D02*
X60827735Y-2520043D01*
X60333779Y-2608575D02*
X60277703Y-2604305D01*
X105452222Y-54776975D02*
X105487761Y-54820561D01*
X61464566Y-1778224D02*
X61449095Y-1832293D01*
X265197150Y-54558004D02*
X265244108Y-54588951D01*
X219285694Y-1612296D02*
X219281424Y-1556220D01*
X59585479Y-2264753D02*
X59547777Y-2223024D01*
X59478951Y-2134108D02*
X59448004Y-2087150D01*
X263668004Y-54912849D02*
X263698951Y-54865891D01*
X104553779Y-54391424D02*
X104610000Y-54390000D01*
X263522721Y-55276558D02*
X263535433Y-55221775D01*
X263500000Y-55500000D02*
X263501424Y-55443779D01*
X59285694Y-1612296D02*
X59281424Y-1556220D01*
X219547777Y-2223024D02*
X219512238Y-2179438D01*
X263639474Y-54961314D02*
X263668004Y-54912849D01*
X263845246Y-54695479D02*
X263886975Y-54657777D01*
X60166558Y-2587278D02*
X60111775Y-2574566D01*
X-2500000Y-59500000D02*
X-2500000Y-59500000D01*
X264610000Y-54390000D02*
X264666220Y-54391424D01*
X105487761Y-54820561D02*
X105521048Y-54865891D01*
X219302721Y-1723441D02*
X219292799Y-1668084D01*
X265697278Y-55276558D02*
X265707200Y-55331915D01*
X216500000Y2500000D02*
X162500000Y2500000D01*
X59315433Y-1778224D02*
X59302721Y-1723441D01*
X221113024Y-2342222D02*
X221069438Y-2377761D01*
X105244108Y-54588951D02*
X105289438Y-54622238D01*
X59802849Y-2441995D02*
X59755891Y-2411048D01*
X103886975Y-54657777D02*
X103930561Y-54622238D01*
X105098837Y-54503436D02*
X105148685Y-54529474D01*
X-2500000Y-59500000D02*
X2500000Y-59500000D01*
X220613441Y-2587278D02*
X220558084Y-2597200D01*
X104441915Y-54402799D02*
X104497703Y-54395694D01*
X104666220Y-54391424D02*
X104722296Y-54395694D01*
X265707200Y-55331915D02*
X265714305Y-55387703D01*
X219625246Y-2304520D02*
X219585479Y-2264753D01*
X264121162Y-54503436D02*
X264172264Y-54479956D01*
X103500000Y-59500000D02*
X103500000Y-55500000D01*
X104942293Y-54440904D02*
X104995509Y-54459094D01*
X263569094Y-55114490D02*
X263589956Y-55062264D01*
X60722293Y-2559095D02*
X60668224Y-2574566D01*
X60977150Y-2441995D02*
X60928685Y-2470525D01*
X220502296Y-2604305D02*
X220446220Y-2608575D01*
X265521048Y-54865891D02*
X265551995Y-54912849D01*
X104610000Y-54390000D02*
X104666220Y-54391424D01*
X105148685Y-54529474D02*
X105197150Y-54558004D01*
X220878837Y-2496563D02*
X220827735Y-2520043D01*
X265669095Y-55167706D02*
X265684566Y-55221775D01*
X59419474Y-2038685D02*
X59393436Y-1988837D01*
X60277703Y-2604305D02*
X60221915Y-2597200D01*
X103501424Y-55443779D02*
X103505694Y-55387703D01*
X59625246Y-2304520D02*
X59585479Y-2264753D01*
X219369956Y-1937735D02*
X219349094Y-1885509D01*
X219280000Y2500000D02*
X216500000Y2500000D01*
X103732238Y-54820561D02*
X103767777Y-54776975D01*
X263613436Y-55011162D02*
X263639474Y-54961314D01*
X61430905Y-1885509D02*
X61410043Y-1937735D01*
X219512238Y-2179438D02*
X219478951Y-2134108D01*
X105650905Y-55114490D02*
X105669095Y-55167706D01*
X105684566Y-55221775D02*
X105697278Y-55276558D01*
X220827735Y-2520043D02*
X220775509Y-2540905D01*
X59280000Y-1500000D02*
X59280000Y2500000D01*
X104172264Y-54479956D02*
X104224490Y-54459094D01*
X60827735Y-2520043D02*
X60775509Y-2540905D01*
X221024108Y-2411048D02*
X220977150Y-2441995D01*
X59952264Y-2520043D02*
X59901162Y-2496563D01*
X221449095Y-1832293D02*
X221430905Y-1885509D01*
X56500000Y2500000D02*
X2500000Y2500000D01*
X265333024Y-54657777D02*
X265374753Y-54695479D01*
X105606563Y-55011162D02*
X105630043Y-55062264D01*
X61500000Y2500000D02*
X61500000Y-1500000D01*
X220166558Y-2587278D02*
X220111775Y-2574566D01*
X219280000Y-1500000D02*
X219280000Y2500000D01*
X61500000Y-1500000D02*
X61498575Y-1556220D01*
X263505694Y-55387703D02*
X263512799Y-55331915D01*
X264071314Y-54529474D02*
X264121162Y-54503436D01*
X105630043Y-55062264D02*
X105650905Y-55114490D01*
X59666975Y-2342222D02*
X59625246Y-2304520D01*
X59547777Y-2223024D02*
X59512238Y-2179438D01*
X219393436Y-1988837D02*
X219369956Y-1937735D01*
X265684566Y-55221775D02*
X265697278Y-55276558D01*
X104331775Y-54425433D02*
X104386558Y-54412721D01*
X221154753Y-2304520D02*
X221113024Y-2342222D01*
X264022849Y-54558004D02*
X264071314Y-54529474D01*
X221386563Y-1988837D02*
X221360525Y-2038685D01*
X265580525Y-54961314D02*
X265606563Y-55011162D01*
X221500000Y-1500000D02*
X221498575Y-1556220D01*
X263732238Y-54820561D02*
X263767777Y-54776975D01*
X220558084Y-2597200D02*
X220502296Y-2604305D01*
X59280000Y2500000D02*
X56500000Y2500000D01*
X104224490Y-54459094D02*
X104277706Y-54440904D01*
X263589956Y-55062264D02*
X263613436Y-55011162D01*
X104071314Y-54529474D02*
X104121162Y-54503436D01*
X59330904Y-1832293D02*
X59315433Y-1778224D01*
X60668224Y-2574566D02*
X60613441Y-2587278D01*
X263535433Y-55221775D02*
X263550904Y-55167706D01*
X265244108Y-54588951D02*
X265289438Y-54622238D01*
X59349094Y-1885509D02*
X59330904Y-1832293D01*
X219330904Y-1832293D02*
X219315433Y-1778224D01*
X221494305Y-1612296D02*
X221487200Y-1668084D01*
X264497703Y-54395694D02*
X264553779Y-54391424D01*
X263512799Y-55331915D02*
X263522721Y-55276558D01*
X2500000Y-59500000D02*
X103500000Y-59500000D01*
X105718575Y-55443779D02*
X105719999Y-55500000D01*
X105374753Y-54695479D02*
X105414520Y-54735246D01*
X264441915Y-54402799D02*
X264497703Y-54395694D01*
X103613436Y-55011162D02*
X103639474Y-54961314D01*
X104722296Y-54395694D02*
X104778084Y-54402799D01*
X263930561Y-54622238D02*
X263975891Y-54588951D01*
X105551995Y-54912849D02*
X105580525Y-54961314D01*
X264722296Y-54395694D02*
X264778084Y-54402799D01*
X61498575Y-1556220D02*
X61494305Y-1612296D01*
X60390000Y-2609999D02*
X60333779Y-2608575D01*
X264778084Y-54402799D02*
X264833441Y-54412721D01*
X162500000Y2500000D02*
X61500000Y2500000D01*
X221464566Y-1778224D02*
X221449095Y-1832293D01*
X105047735Y-54479956D02*
X105098837Y-54503436D01*
X59369956Y-1937735D02*
X59349094Y-1885509D01*
X61360525Y-2038685D02*
X61331995Y-2087150D01*
X265487761Y-54820561D02*
X265521048Y-54865891D01*
X263805479Y-54735246D02*
X263845246Y-54695479D01*
X59851314Y-2470525D02*
X59802849Y-2441995D01*
X265718575Y-55443779D02*
X265719999Y-55500000D01*
X219952264Y-2520043D02*
X219901162Y-2496563D01*
X103522721Y-55276558D02*
X103535433Y-55221775D01*
X221331995Y-2087150D02*
X221301048Y-2134108D01*
X60775509Y-2540905D02*
X60722293Y-2559095D01*
X61487200Y-1668084D02*
X61477278Y-1723441D01*
X219448004Y-2087150D02*
X219419474Y-2038685D01*
X105720000Y-59500000D02*
X108500000Y-59500000D01*
M02*
