%TF.GenerationSoftware,KiCad,Pcbnew,(7.0.0)*%
%TF.CreationDate,2023-07-14T12:07:01+02:00*%
%TF.ProjectId,Panelization,50616e65-6c69-47a6-9174-696f6e2e6b69,V1*%
%TF.SameCoordinates,Original*%
%TF.FileFunction,Soldermask,Top*%
%TF.FilePolarity,Negative*%
%FSLAX46Y46*%
G04 Gerber Fmt 4.6, Leading zero omitted, Abs format (unit mm)*
G04 Created by KiCad (PCBNEW (7.0.0)) date 2023-07-14 12:07:01*
%MOMM*%
%LPD*%
G01*
G04 APERTURE LIST*
G04 Aperture macros list*
%AMRoundRect*
0 Rectangle with rounded corners*
0 $1 Rounding radius*
0 $2 $3 $4 $5 $6 $7 $8 $9 X,Y pos of 4 corners*
0 Add a 4 corners polygon primitive as box body*
4,1,4,$2,$3,$4,$5,$6,$7,$8,$9,$2,$3,0*
0 Add four circle primitives for the rounded corners*
1,1,$1+$1,$2,$3*
1,1,$1+$1,$4,$5*
1,1,$1+$1,$6,$7*
1,1,$1+$1,$8,$9*
0 Add four rect primitives between the rounded corners*
20,1,$1+$1,$2,$3,$4,$5,0*
20,1,$1+$1,$4,$5,$6,$7,0*
20,1,$1+$1,$6,$7,$8,$9,0*
20,1,$1+$1,$8,$9,$2,$3,0*%
G04 Aperture macros list end*
%ADD10C,3.200000*%
%ADD11RoundRect,0.250000X0.475000X-0.250000X0.475000X0.250000X-0.475000X0.250000X-0.475000X-0.250000X0*%
%ADD12C,0.001000*%
%ADD13R,0.280000X2.400000*%
%ADD14C,2.660000*%
%ADD15C,1.982000*%
%ADD16C,2.000000*%
%ADD17C,2.100000*%
%ADD18R,0.500000X1.480000*%
%ADD19R,1.500000X2.000000*%
G04 APERTURE END LIST*
D10*
%TO.C,*%
X214120000Y-115670000D03*
%TD*%
%TO.C,*%
X54120000Y-208670000D03*
%TD*%
%TO.C,*%
X54120000Y-177670000D03*
%TD*%
%TO.C,*%
X214120000Y-177670000D03*
%TD*%
%TO.C,*%
X54120000Y-146670000D03*
%TD*%
%TO.C,*%
X214120000Y-146670000D03*
%TD*%
%TO.C,*%
X54120000Y-115670000D03*
%TD*%
%TO.C,*%
X214120000Y-208670000D03*
%TD*%
D11*
%TO.C,C2*%
X94690000Y-164360000D03*
X94690000Y-162460000D03*
%TD*%
%TO.C,C2*%
X254690000Y-195360000D03*
X254690000Y-193460000D03*
%TD*%
%TO.C,C2*%
X94690000Y-102360000D03*
X94690000Y-100460000D03*
%TD*%
%TO.C,C2*%
X94690000Y-195360000D03*
X94690000Y-193460000D03*
%TD*%
%TO.C,C2*%
X254690000Y-133360000D03*
X254690000Y-131460000D03*
%TD*%
%TO.C,C2*%
X254690000Y-102360000D03*
X254690000Y-100460000D03*
%TD*%
%TO.C,C2*%
X94690000Y-133360000D03*
X94690000Y-131460000D03*
%TD*%
%TO.C,C2*%
X254690000Y-164360000D03*
X254690000Y-162460000D03*
%TD*%
D12*
%TO.C,J4*%
X141734000Y-176600000D03*
D13*
X147233999Y-166439999D03*
X146733999Y-166439999D03*
X146233999Y-166439999D03*
X145733999Y-166439999D03*
X145233999Y-166439999D03*
X144733999Y-166439999D03*
X144233999Y-166439999D03*
X143733999Y-166439999D03*
X143233999Y-166439999D03*
X142733999Y-166439999D03*
X142233999Y-166439999D03*
X141733999Y-166439999D03*
X141233999Y-166439999D03*
X140733999Y-166439999D03*
X140233999Y-166439999D03*
X139733999Y-166439999D03*
X139233999Y-166439999D03*
X138733999Y-166439999D03*
X138233999Y-166439999D03*
X137733999Y-166439999D03*
D14*
X133484000Y-169040000D03*
D15*
X133484000Y-175820000D03*
X149984000Y-175820000D03*
D14*
X149984000Y-169040000D03*
%TD*%
D12*
%TO.C,J4*%
X301734000Y-207600000D03*
D13*
X307233999Y-197439999D03*
X306733999Y-197439999D03*
X306233999Y-197439999D03*
X305733999Y-197439999D03*
X305233999Y-197439999D03*
X304733999Y-197439999D03*
X304233999Y-197439999D03*
X303733999Y-197439999D03*
X303233999Y-197439999D03*
X302733999Y-197439999D03*
X302233999Y-197439999D03*
X301733999Y-197439999D03*
X301233999Y-197439999D03*
X300733999Y-197439999D03*
X300233999Y-197439999D03*
X299733999Y-197439999D03*
X299233999Y-197439999D03*
X298733999Y-197439999D03*
X298233999Y-197439999D03*
X297733999Y-197439999D03*
D14*
X293484000Y-200040000D03*
D15*
X293484000Y-206820000D03*
X309984000Y-206820000D03*
D14*
X309984000Y-200040000D03*
%TD*%
D12*
%TO.C,J4*%
X301734000Y-176600000D03*
D13*
X307233999Y-166439999D03*
X306733999Y-166439999D03*
X306233999Y-166439999D03*
X305733999Y-166439999D03*
X305233999Y-166439999D03*
X304733999Y-166439999D03*
X304233999Y-166439999D03*
X303733999Y-166439999D03*
X303233999Y-166439999D03*
X302733999Y-166439999D03*
X302233999Y-166439999D03*
X301733999Y-166439999D03*
X301233999Y-166439999D03*
X300733999Y-166439999D03*
X300233999Y-166439999D03*
X299733999Y-166439999D03*
X299233999Y-166439999D03*
X298733999Y-166439999D03*
X298233999Y-166439999D03*
X297733999Y-166439999D03*
D14*
X293484000Y-169040000D03*
D15*
X293484000Y-175820000D03*
X309984000Y-175820000D03*
D14*
X309984000Y-169040000D03*
%TD*%
D12*
%TO.C,J4*%
X141734000Y-145600000D03*
D13*
X147233999Y-135439999D03*
X146733999Y-135439999D03*
X146233999Y-135439999D03*
X145733999Y-135439999D03*
X145233999Y-135439999D03*
X144733999Y-135439999D03*
X144233999Y-135439999D03*
X143733999Y-135439999D03*
X143233999Y-135439999D03*
X142733999Y-135439999D03*
X142233999Y-135439999D03*
X141733999Y-135439999D03*
X141233999Y-135439999D03*
X140733999Y-135439999D03*
X140233999Y-135439999D03*
X139733999Y-135439999D03*
X139233999Y-135439999D03*
X138733999Y-135439999D03*
X138233999Y-135439999D03*
X137733999Y-135439999D03*
D14*
X133484000Y-138040000D03*
D15*
X133484000Y-144820000D03*
X149984000Y-144820000D03*
D14*
X149984000Y-138040000D03*
%TD*%
D12*
%TO.C,J4*%
X141734000Y-207600000D03*
D13*
X147233999Y-197439999D03*
X146733999Y-197439999D03*
X146233999Y-197439999D03*
X145733999Y-197439999D03*
X145233999Y-197439999D03*
X144733999Y-197439999D03*
X144233999Y-197439999D03*
X143733999Y-197439999D03*
X143233999Y-197439999D03*
X142733999Y-197439999D03*
X142233999Y-197439999D03*
X141733999Y-197439999D03*
X141233999Y-197439999D03*
X140733999Y-197439999D03*
X140233999Y-197439999D03*
X139733999Y-197439999D03*
X139233999Y-197439999D03*
X138733999Y-197439999D03*
X138233999Y-197439999D03*
X137733999Y-197439999D03*
D14*
X133484000Y-200040000D03*
D15*
X133484000Y-206820000D03*
X149984000Y-206820000D03*
D14*
X149984000Y-200040000D03*
%TD*%
D12*
%TO.C,J4*%
X301734000Y-145600000D03*
D13*
X307233999Y-135439999D03*
X306733999Y-135439999D03*
X306233999Y-135439999D03*
X305733999Y-135439999D03*
X305233999Y-135439999D03*
X304733999Y-135439999D03*
X304233999Y-135439999D03*
X303733999Y-135439999D03*
X303233999Y-135439999D03*
X302733999Y-135439999D03*
X302233999Y-135439999D03*
X301733999Y-135439999D03*
X301233999Y-135439999D03*
X300733999Y-135439999D03*
X300233999Y-135439999D03*
X299733999Y-135439999D03*
X299233999Y-135439999D03*
X298733999Y-135439999D03*
X298233999Y-135439999D03*
X297733999Y-135439999D03*
D14*
X293484000Y-138040000D03*
D15*
X293484000Y-144820000D03*
X309984000Y-144820000D03*
D14*
X309984000Y-138040000D03*
%TD*%
D12*
%TO.C,J4*%
X141734000Y-114600000D03*
D13*
X147233999Y-104439999D03*
X146733999Y-104439999D03*
X146233999Y-104439999D03*
X145733999Y-104439999D03*
X145233999Y-104439999D03*
X144733999Y-104439999D03*
X144233999Y-104439999D03*
X143733999Y-104439999D03*
X143233999Y-104439999D03*
X142733999Y-104439999D03*
X142233999Y-104439999D03*
X141733999Y-104439999D03*
X141233999Y-104439999D03*
X140733999Y-104439999D03*
X140233999Y-104439999D03*
X139733999Y-104439999D03*
X139233999Y-104439999D03*
X138733999Y-104439999D03*
X138233999Y-104439999D03*
X137733999Y-104439999D03*
D14*
X133484000Y-107040000D03*
D15*
X133484000Y-113820000D03*
X149984000Y-113820000D03*
D14*
X149984000Y-107040000D03*
%TD*%
D12*
%TO.C,J4*%
X301734000Y-114600000D03*
D13*
X307233999Y-104439999D03*
X306733999Y-104439999D03*
X306233999Y-104439999D03*
X305733999Y-104439999D03*
X305233999Y-104439999D03*
X304733999Y-104439999D03*
X304233999Y-104439999D03*
X303733999Y-104439999D03*
X303233999Y-104439999D03*
X302733999Y-104439999D03*
X302233999Y-104439999D03*
X301733999Y-104439999D03*
X301233999Y-104439999D03*
X300733999Y-104439999D03*
X300233999Y-104439999D03*
X299733999Y-104439999D03*
X299233999Y-104439999D03*
X298733999Y-104439999D03*
X298233999Y-104439999D03*
X297733999Y-104439999D03*
D14*
X293484000Y-107040000D03*
D15*
X293484000Y-113820000D03*
X309984000Y-113820000D03*
D14*
X309984000Y-107040000D03*
%TD*%
D12*
%TO.C,J2*%
X253936000Y-114599000D03*
D13*
X259435999Y-104438999D03*
X258935999Y-104438999D03*
X258435999Y-104438999D03*
X257935999Y-104438999D03*
X257435999Y-104438999D03*
X256935999Y-104438999D03*
X256435999Y-104438999D03*
X255935999Y-104438999D03*
X255435999Y-104438999D03*
X254935999Y-104438999D03*
X254435999Y-104438999D03*
X253935999Y-104438999D03*
X253435999Y-104438999D03*
X252935999Y-104438999D03*
X252435999Y-104438999D03*
X251935999Y-104438999D03*
X251435999Y-104438999D03*
X250935999Y-104438999D03*
X250435999Y-104438999D03*
X249935999Y-104438999D03*
D14*
X245686000Y-107039000D03*
D15*
X245686000Y-113819000D03*
X262186000Y-113819000D03*
D14*
X262186000Y-107039000D03*
%TD*%
D12*
%TO.C,J2*%
X93936000Y-176599000D03*
D13*
X99435999Y-166438999D03*
X98935999Y-166438999D03*
X98435999Y-166438999D03*
X97935999Y-166438999D03*
X97435999Y-166438999D03*
X96935999Y-166438999D03*
X96435999Y-166438999D03*
X95935999Y-166438999D03*
X95435999Y-166438999D03*
X94935999Y-166438999D03*
X94435999Y-166438999D03*
X93935999Y-166438999D03*
X93435999Y-166438999D03*
X92935999Y-166438999D03*
X92435999Y-166438999D03*
X91935999Y-166438999D03*
X91435999Y-166438999D03*
X90935999Y-166438999D03*
X90435999Y-166438999D03*
X89935999Y-166438999D03*
D14*
X85686000Y-169039000D03*
D15*
X85686000Y-175819000D03*
X102186000Y-175819000D03*
D14*
X102186000Y-169039000D03*
%TD*%
D12*
%TO.C,J2*%
X253936000Y-145599000D03*
D13*
X259435999Y-135438999D03*
X258935999Y-135438999D03*
X258435999Y-135438999D03*
X257935999Y-135438999D03*
X257435999Y-135438999D03*
X256935999Y-135438999D03*
X256435999Y-135438999D03*
X255935999Y-135438999D03*
X255435999Y-135438999D03*
X254935999Y-135438999D03*
X254435999Y-135438999D03*
X253935999Y-135438999D03*
X253435999Y-135438999D03*
X252935999Y-135438999D03*
X252435999Y-135438999D03*
X251935999Y-135438999D03*
X251435999Y-135438999D03*
X250935999Y-135438999D03*
X250435999Y-135438999D03*
X249935999Y-135438999D03*
D14*
X245686000Y-138039000D03*
D15*
X245686000Y-144819000D03*
X262186000Y-144819000D03*
D14*
X262186000Y-138039000D03*
%TD*%
D12*
%TO.C,J2*%
X93936000Y-114599000D03*
D13*
X99435999Y-104438999D03*
X98935999Y-104438999D03*
X98435999Y-104438999D03*
X97935999Y-104438999D03*
X97435999Y-104438999D03*
X96935999Y-104438999D03*
X96435999Y-104438999D03*
X95935999Y-104438999D03*
X95435999Y-104438999D03*
X94935999Y-104438999D03*
X94435999Y-104438999D03*
X93935999Y-104438999D03*
X93435999Y-104438999D03*
X92935999Y-104438999D03*
X92435999Y-104438999D03*
X91935999Y-104438999D03*
X91435999Y-104438999D03*
X90935999Y-104438999D03*
X90435999Y-104438999D03*
X89935999Y-104438999D03*
D14*
X85686000Y-107039000D03*
D15*
X85686000Y-113819000D03*
X102186000Y-113819000D03*
D14*
X102186000Y-107039000D03*
%TD*%
D12*
%TO.C,J2*%
X93936000Y-145599000D03*
D13*
X99435999Y-135438999D03*
X98935999Y-135438999D03*
X98435999Y-135438999D03*
X97935999Y-135438999D03*
X97435999Y-135438999D03*
X96935999Y-135438999D03*
X96435999Y-135438999D03*
X95935999Y-135438999D03*
X95435999Y-135438999D03*
X94935999Y-135438999D03*
X94435999Y-135438999D03*
X93935999Y-135438999D03*
X93435999Y-135438999D03*
X92935999Y-135438999D03*
X92435999Y-135438999D03*
X91935999Y-135438999D03*
X91435999Y-135438999D03*
X90935999Y-135438999D03*
X90435999Y-135438999D03*
X89935999Y-135438999D03*
D14*
X85686000Y-138039000D03*
D15*
X85686000Y-144819000D03*
X102186000Y-144819000D03*
D14*
X102186000Y-138039000D03*
%TD*%
D12*
%TO.C,J2*%
X93936000Y-207599000D03*
D13*
X99435999Y-197438999D03*
X98935999Y-197438999D03*
X98435999Y-197438999D03*
X97935999Y-197438999D03*
X97435999Y-197438999D03*
X96935999Y-197438999D03*
X96435999Y-197438999D03*
X95935999Y-197438999D03*
X95435999Y-197438999D03*
X94935999Y-197438999D03*
X94435999Y-197438999D03*
X93935999Y-197438999D03*
X93435999Y-197438999D03*
X92935999Y-197438999D03*
X92435999Y-197438999D03*
X91935999Y-197438999D03*
X91435999Y-197438999D03*
X90935999Y-197438999D03*
X90435999Y-197438999D03*
X89935999Y-197438999D03*
D14*
X85686000Y-200039000D03*
D15*
X85686000Y-206819000D03*
X102186000Y-206819000D03*
D14*
X102186000Y-200039000D03*
%TD*%
D12*
%TO.C,J2*%
X253936000Y-176599000D03*
D13*
X259435999Y-166438999D03*
X258935999Y-166438999D03*
X258435999Y-166438999D03*
X257935999Y-166438999D03*
X257435999Y-166438999D03*
X256935999Y-166438999D03*
X256435999Y-166438999D03*
X255935999Y-166438999D03*
X255435999Y-166438999D03*
X254935999Y-166438999D03*
X254435999Y-166438999D03*
X253935999Y-166438999D03*
X253435999Y-166438999D03*
X252935999Y-166438999D03*
X252435999Y-166438999D03*
X251935999Y-166438999D03*
X251435999Y-166438999D03*
X250935999Y-166438999D03*
X250435999Y-166438999D03*
X249935999Y-166438999D03*
D14*
X245686000Y-169039000D03*
D15*
X245686000Y-175819000D03*
X262186000Y-175819000D03*
D14*
X262186000Y-169039000D03*
%TD*%
D12*
%TO.C,J2*%
X253936000Y-207599000D03*
D13*
X259435999Y-197438999D03*
X258935999Y-197438999D03*
X258435999Y-197438999D03*
X257935999Y-197438999D03*
X257435999Y-197438999D03*
X256935999Y-197438999D03*
X256435999Y-197438999D03*
X255935999Y-197438999D03*
X255435999Y-197438999D03*
X254935999Y-197438999D03*
X254435999Y-197438999D03*
X253935999Y-197438999D03*
X253435999Y-197438999D03*
X252935999Y-197438999D03*
X252435999Y-197438999D03*
X251935999Y-197438999D03*
X251435999Y-197438999D03*
X250935999Y-197438999D03*
X250435999Y-197438999D03*
X249935999Y-197438999D03*
D14*
X245686000Y-200039000D03*
D15*
X245686000Y-206819000D03*
X262186000Y-206819000D03*
D14*
X262186000Y-200039000D03*
%TD*%
D16*
%TO.C,REF\u002A\u002A*%
X372500000Y-85500000D03*
%TD*%
D11*
%TO.C,C1*%
X230770000Y-102360000D03*
X230770000Y-100460000D03*
%TD*%
%TO.C,C1*%
X230770000Y-164360000D03*
X230770000Y-162460000D03*
%TD*%
%TO.C,C1*%
X230770000Y-195360000D03*
X230770000Y-193460000D03*
%TD*%
%TO.C,C1*%
X70770000Y-102360000D03*
X70770000Y-100460000D03*
%TD*%
%TO.C,C1*%
X70770000Y-133360000D03*
X70770000Y-131460000D03*
%TD*%
%TO.C,C1*%
X70770000Y-195360000D03*
X70770000Y-193460000D03*
%TD*%
%TO.C,C1*%
X230770000Y-133360000D03*
X230770000Y-131460000D03*
%TD*%
%TO.C,C1*%
X70770000Y-164360000D03*
X70770000Y-162460000D03*
%TD*%
%TO.C,C6*%
X350280000Y-133360000D03*
X350280000Y-131460000D03*
%TD*%
%TO.C,C6*%
X190280000Y-195360000D03*
X190280000Y-193460000D03*
%TD*%
%TO.C,C6*%
X350280000Y-102360000D03*
X350280000Y-100460000D03*
%TD*%
%TO.C,C6*%
X190280000Y-102360000D03*
X190280000Y-100460000D03*
%TD*%
%TO.C,C6*%
X190280000Y-133360000D03*
X190280000Y-131460000D03*
%TD*%
%TO.C,C6*%
X190280000Y-164360000D03*
X190280000Y-162460000D03*
%TD*%
%TO.C,C6*%
X350280000Y-195360000D03*
X350280000Y-193460000D03*
%TD*%
%TO.C,C6*%
X350280000Y-164360000D03*
X350280000Y-162460000D03*
%TD*%
D17*
%TO.C,J7*%
X107890000Y-185000000D03*
D18*
X110399999Y-183059999D03*
X111199999Y-183059999D03*
X111999999Y-183059999D03*
X112799999Y-183059999D03*
X113599999Y-183059999D03*
X114399999Y-183059999D03*
X115199999Y-183059999D03*
X115999999Y-183059999D03*
X116799999Y-183059999D03*
X117599999Y-183059999D03*
X118399999Y-183059999D03*
X119199999Y-183059999D03*
X119999999Y-183059999D03*
X120799999Y-183059999D03*
X121599999Y-183059999D03*
X122399999Y-183059999D03*
X123199999Y-183059999D03*
X123999999Y-183059999D03*
X124799999Y-183059999D03*
X125599999Y-183059999D03*
X126399999Y-183059999D03*
X127199999Y-183059999D03*
X127999999Y-183059999D03*
X128799999Y-183059999D03*
X129599999Y-183059999D03*
X130399999Y-183059999D03*
X131199999Y-183059999D03*
X131999999Y-183059999D03*
X132799999Y-183059999D03*
X133599999Y-183059999D03*
X134399999Y-183059999D03*
X135199999Y-183059999D03*
X135999999Y-183059999D03*
X136799999Y-183059999D03*
X137599999Y-183059999D03*
X138399999Y-183059999D03*
X139199999Y-183059999D03*
X139999999Y-183059999D03*
X140799999Y-183059999D03*
X141599999Y-183059999D03*
X142399999Y-183059999D03*
X143199999Y-183059999D03*
X143999999Y-183059999D03*
X144799999Y-183059999D03*
X145599999Y-183059999D03*
X146399999Y-183059999D03*
X147199999Y-183059999D03*
X147999999Y-183059999D03*
X148799999Y-183059999D03*
X149599999Y-183059999D03*
D19*
X105499999Y-183199999D03*
X154499999Y-183199999D03*
%TD*%
D17*
%TO.C,J7*%
X267890000Y-185000000D03*
D18*
X270399999Y-183059999D03*
X271199999Y-183059999D03*
X271999999Y-183059999D03*
X272799999Y-183059999D03*
X273599999Y-183059999D03*
X274399999Y-183059999D03*
X275199999Y-183059999D03*
X275999999Y-183059999D03*
X276799999Y-183059999D03*
X277599999Y-183059999D03*
X278399999Y-183059999D03*
X279199999Y-183059999D03*
X279999999Y-183059999D03*
X280799999Y-183059999D03*
X281599999Y-183059999D03*
X282399999Y-183059999D03*
X283199999Y-183059999D03*
X283999999Y-183059999D03*
X284799999Y-183059999D03*
X285599999Y-183059999D03*
X286399999Y-183059999D03*
X287199999Y-183059999D03*
X287999999Y-183059999D03*
X288799999Y-183059999D03*
X289599999Y-183059999D03*
X290399999Y-183059999D03*
X291199999Y-183059999D03*
X291999999Y-183059999D03*
X292799999Y-183059999D03*
X293599999Y-183059999D03*
X294399999Y-183059999D03*
X295199999Y-183059999D03*
X295999999Y-183059999D03*
X296799999Y-183059999D03*
X297599999Y-183059999D03*
X298399999Y-183059999D03*
X299199999Y-183059999D03*
X299999999Y-183059999D03*
X300799999Y-183059999D03*
X301599999Y-183059999D03*
X302399999Y-183059999D03*
X303199999Y-183059999D03*
X303999999Y-183059999D03*
X304799999Y-183059999D03*
X305599999Y-183059999D03*
X306399999Y-183059999D03*
X307199999Y-183059999D03*
X307999999Y-183059999D03*
X308799999Y-183059999D03*
X309599999Y-183059999D03*
D19*
X265499999Y-183199999D03*
X314499999Y-183199999D03*
%TD*%
D17*
%TO.C,J7*%
X107890000Y-154000000D03*
D18*
X110399999Y-152059999D03*
X111199999Y-152059999D03*
X111999999Y-152059999D03*
X112799999Y-152059999D03*
X113599999Y-152059999D03*
X114399999Y-152059999D03*
X115199999Y-152059999D03*
X115999999Y-152059999D03*
X116799999Y-152059999D03*
X117599999Y-152059999D03*
X118399999Y-152059999D03*
X119199999Y-152059999D03*
X119999999Y-152059999D03*
X120799999Y-152059999D03*
X121599999Y-152059999D03*
X122399999Y-152059999D03*
X123199999Y-152059999D03*
X123999999Y-152059999D03*
X124799999Y-152059999D03*
X125599999Y-152059999D03*
X126399999Y-152059999D03*
X127199999Y-152059999D03*
X127999999Y-152059999D03*
X128799999Y-152059999D03*
X129599999Y-152059999D03*
X130399999Y-152059999D03*
X131199999Y-152059999D03*
X131999999Y-152059999D03*
X132799999Y-152059999D03*
X133599999Y-152059999D03*
X134399999Y-152059999D03*
X135199999Y-152059999D03*
X135999999Y-152059999D03*
X136799999Y-152059999D03*
X137599999Y-152059999D03*
X138399999Y-152059999D03*
X139199999Y-152059999D03*
X139999999Y-152059999D03*
X140799999Y-152059999D03*
X141599999Y-152059999D03*
X142399999Y-152059999D03*
X143199999Y-152059999D03*
X143999999Y-152059999D03*
X144799999Y-152059999D03*
X145599999Y-152059999D03*
X146399999Y-152059999D03*
X147199999Y-152059999D03*
X147999999Y-152059999D03*
X148799999Y-152059999D03*
X149599999Y-152059999D03*
D19*
X105499999Y-152199999D03*
X154499999Y-152199999D03*
%TD*%
D17*
%TO.C,J7*%
X107890000Y-92000000D03*
D18*
X110399999Y-90059999D03*
X111199999Y-90059999D03*
X111999999Y-90059999D03*
X112799999Y-90059999D03*
X113599999Y-90059999D03*
X114399999Y-90059999D03*
X115199999Y-90059999D03*
X115999999Y-90059999D03*
X116799999Y-90059999D03*
X117599999Y-90059999D03*
X118399999Y-90059999D03*
X119199999Y-90059999D03*
X119999999Y-90059999D03*
X120799999Y-90059999D03*
X121599999Y-90059999D03*
X122399999Y-90059999D03*
X123199999Y-90059999D03*
X123999999Y-90059999D03*
X124799999Y-90059999D03*
X125599999Y-90059999D03*
X126399999Y-90059999D03*
X127199999Y-90059999D03*
X127999999Y-90059999D03*
X128799999Y-90059999D03*
X129599999Y-90059999D03*
X130399999Y-90059999D03*
X131199999Y-90059999D03*
X131999999Y-90059999D03*
X132799999Y-90059999D03*
X133599999Y-90059999D03*
X134399999Y-90059999D03*
X135199999Y-90059999D03*
X135999999Y-90059999D03*
X136799999Y-90059999D03*
X137599999Y-90059999D03*
X138399999Y-90059999D03*
X139199999Y-90059999D03*
X139999999Y-90059999D03*
X140799999Y-90059999D03*
X141599999Y-90059999D03*
X142399999Y-90059999D03*
X143199999Y-90059999D03*
X143999999Y-90059999D03*
X144799999Y-90059999D03*
X145599999Y-90059999D03*
X146399999Y-90059999D03*
X147199999Y-90059999D03*
X147999999Y-90059999D03*
X148799999Y-90059999D03*
X149599999Y-90059999D03*
D19*
X105499999Y-90199999D03*
X154499999Y-90199999D03*
%TD*%
D17*
%TO.C,J7*%
X107890000Y-123000000D03*
D18*
X110399999Y-121059999D03*
X111199999Y-121059999D03*
X111999999Y-121059999D03*
X112799999Y-121059999D03*
X113599999Y-121059999D03*
X114399999Y-121059999D03*
X115199999Y-121059999D03*
X115999999Y-121059999D03*
X116799999Y-121059999D03*
X117599999Y-121059999D03*
X118399999Y-121059999D03*
X119199999Y-121059999D03*
X119999999Y-121059999D03*
X120799999Y-121059999D03*
X121599999Y-121059999D03*
X122399999Y-121059999D03*
X123199999Y-121059999D03*
X123999999Y-121059999D03*
X124799999Y-121059999D03*
X125599999Y-121059999D03*
X126399999Y-121059999D03*
X127199999Y-121059999D03*
X127999999Y-121059999D03*
X128799999Y-121059999D03*
X129599999Y-121059999D03*
X130399999Y-121059999D03*
X131199999Y-121059999D03*
X131999999Y-121059999D03*
X132799999Y-121059999D03*
X133599999Y-121059999D03*
X134399999Y-121059999D03*
X135199999Y-121059999D03*
X135999999Y-121059999D03*
X136799999Y-121059999D03*
X137599999Y-121059999D03*
X138399999Y-121059999D03*
X139199999Y-121059999D03*
X139999999Y-121059999D03*
X140799999Y-121059999D03*
X141599999Y-121059999D03*
X142399999Y-121059999D03*
X143199999Y-121059999D03*
X143999999Y-121059999D03*
X144799999Y-121059999D03*
X145599999Y-121059999D03*
X146399999Y-121059999D03*
X147199999Y-121059999D03*
X147999999Y-121059999D03*
X148799999Y-121059999D03*
X149599999Y-121059999D03*
D19*
X105499999Y-121199999D03*
X154499999Y-121199999D03*
%TD*%
D17*
%TO.C,J7*%
X267890000Y-92000000D03*
D18*
X270399999Y-90059999D03*
X271199999Y-90059999D03*
X271999999Y-90059999D03*
X272799999Y-90059999D03*
X273599999Y-90059999D03*
X274399999Y-90059999D03*
X275199999Y-90059999D03*
X275999999Y-90059999D03*
X276799999Y-90059999D03*
X277599999Y-90059999D03*
X278399999Y-90059999D03*
X279199999Y-90059999D03*
X279999999Y-90059999D03*
X280799999Y-90059999D03*
X281599999Y-90059999D03*
X282399999Y-90059999D03*
X283199999Y-90059999D03*
X283999999Y-90059999D03*
X284799999Y-90059999D03*
X285599999Y-90059999D03*
X286399999Y-90059999D03*
X287199999Y-90059999D03*
X287999999Y-90059999D03*
X288799999Y-90059999D03*
X289599999Y-90059999D03*
X290399999Y-90059999D03*
X291199999Y-90059999D03*
X291999999Y-90059999D03*
X292799999Y-90059999D03*
X293599999Y-90059999D03*
X294399999Y-90059999D03*
X295199999Y-90059999D03*
X295999999Y-90059999D03*
X296799999Y-90059999D03*
X297599999Y-90059999D03*
X298399999Y-90059999D03*
X299199999Y-90059999D03*
X299999999Y-90059999D03*
X300799999Y-90059999D03*
X301599999Y-90059999D03*
X302399999Y-90059999D03*
X303199999Y-90059999D03*
X303999999Y-90059999D03*
X304799999Y-90059999D03*
X305599999Y-90059999D03*
X306399999Y-90059999D03*
X307199999Y-90059999D03*
X307999999Y-90059999D03*
X308799999Y-90059999D03*
X309599999Y-90059999D03*
D19*
X265499999Y-90199999D03*
X314499999Y-90199999D03*
%TD*%
D17*
%TO.C,J7*%
X267890000Y-154000000D03*
D18*
X270399999Y-152059999D03*
X271199999Y-152059999D03*
X271999999Y-152059999D03*
X272799999Y-152059999D03*
X273599999Y-152059999D03*
X274399999Y-152059999D03*
X275199999Y-152059999D03*
X275999999Y-152059999D03*
X276799999Y-152059999D03*
X277599999Y-152059999D03*
X278399999Y-152059999D03*
X279199999Y-152059999D03*
X279999999Y-152059999D03*
X280799999Y-152059999D03*
X281599999Y-152059999D03*
X282399999Y-152059999D03*
X283199999Y-152059999D03*
X283999999Y-152059999D03*
X284799999Y-152059999D03*
X285599999Y-152059999D03*
X286399999Y-152059999D03*
X287199999Y-152059999D03*
X287999999Y-152059999D03*
X288799999Y-152059999D03*
X289599999Y-152059999D03*
X290399999Y-152059999D03*
X291199999Y-152059999D03*
X291999999Y-152059999D03*
X292799999Y-152059999D03*
X293599999Y-152059999D03*
X294399999Y-152059999D03*
X295199999Y-152059999D03*
X295999999Y-152059999D03*
X296799999Y-152059999D03*
X297599999Y-152059999D03*
X298399999Y-152059999D03*
X299199999Y-152059999D03*
X299999999Y-152059999D03*
X300799999Y-152059999D03*
X301599999Y-152059999D03*
X302399999Y-152059999D03*
X303199999Y-152059999D03*
X303999999Y-152059999D03*
X304799999Y-152059999D03*
X305599999Y-152059999D03*
X306399999Y-152059999D03*
X307199999Y-152059999D03*
X307999999Y-152059999D03*
X308799999Y-152059999D03*
X309599999Y-152059999D03*
D19*
X265499999Y-152199999D03*
X314499999Y-152199999D03*
%TD*%
D17*
%TO.C,J7*%
X267890000Y-123000000D03*
D18*
X270399999Y-121059999D03*
X271199999Y-121059999D03*
X271999999Y-121059999D03*
X272799999Y-121059999D03*
X273599999Y-121059999D03*
X274399999Y-121059999D03*
X275199999Y-121059999D03*
X275999999Y-121059999D03*
X276799999Y-121059999D03*
X277599999Y-121059999D03*
X278399999Y-121059999D03*
X279199999Y-121059999D03*
X279999999Y-121059999D03*
X280799999Y-121059999D03*
X281599999Y-121059999D03*
X282399999Y-121059999D03*
X283199999Y-121059999D03*
X283999999Y-121059999D03*
X284799999Y-121059999D03*
X285599999Y-121059999D03*
X286399999Y-121059999D03*
X287199999Y-121059999D03*
X287999999Y-121059999D03*
X288799999Y-121059999D03*
X289599999Y-121059999D03*
X290399999Y-121059999D03*
X291199999Y-121059999D03*
X291999999Y-121059999D03*
X292799999Y-121059999D03*
X293599999Y-121059999D03*
X294399999Y-121059999D03*
X295199999Y-121059999D03*
X295999999Y-121059999D03*
X296799999Y-121059999D03*
X297599999Y-121059999D03*
X298399999Y-121059999D03*
X299199999Y-121059999D03*
X299999999Y-121059999D03*
X300799999Y-121059999D03*
X301599999Y-121059999D03*
X302399999Y-121059999D03*
X303199999Y-121059999D03*
X303999999Y-121059999D03*
X304799999Y-121059999D03*
X305599999Y-121059999D03*
X306399999Y-121059999D03*
X307199999Y-121059999D03*
X307999999Y-121059999D03*
X308799999Y-121059999D03*
X309599999Y-121059999D03*
D19*
X265499999Y-121199999D03*
X314499999Y-121199999D03*
%TD*%
D11*
%TO.C,C3*%
X278590000Y-195360000D03*
X278590000Y-193460000D03*
%TD*%
%TO.C,C3*%
X118590000Y-195360000D03*
X118590000Y-193460000D03*
%TD*%
%TO.C,C3*%
X278590000Y-133360000D03*
X278590000Y-131460000D03*
%TD*%
%TO.C,C3*%
X118590000Y-133360000D03*
X118590000Y-131460000D03*
%TD*%
%TO.C,C3*%
X118590000Y-164360000D03*
X118590000Y-162460000D03*
%TD*%
%TO.C,C3*%
X278590000Y-102360000D03*
X278590000Y-100460000D03*
%TD*%
%TO.C,C3*%
X118590000Y-102360000D03*
X118590000Y-100460000D03*
%TD*%
%TO.C,C3*%
X278590000Y-164360000D03*
X278590000Y-162460000D03*
%TD*%
D12*
%TO.C,J6*%
X349530000Y-207600000D03*
D13*
X355029999Y-197439999D03*
X354529999Y-197439999D03*
X354029999Y-197439999D03*
X353529999Y-197439999D03*
X353029999Y-197439999D03*
X352529999Y-197439999D03*
X352029999Y-197439999D03*
X351529999Y-197439999D03*
X351029999Y-197439999D03*
X350529999Y-197439999D03*
X350029999Y-197439999D03*
X349529999Y-197439999D03*
X349029999Y-197439999D03*
X348529999Y-197439999D03*
X348029999Y-197439999D03*
X347529999Y-197439999D03*
X347029999Y-197439999D03*
X346529999Y-197439999D03*
X346029999Y-197439999D03*
X345529999Y-197439999D03*
D14*
X341280000Y-200040000D03*
D15*
X341280000Y-206820000D03*
X357780000Y-206820000D03*
D14*
X357780000Y-200040000D03*
%TD*%
D12*
%TO.C,J6*%
X349530000Y-145600000D03*
D13*
X355029999Y-135439999D03*
X354529999Y-135439999D03*
X354029999Y-135439999D03*
X353529999Y-135439999D03*
X353029999Y-135439999D03*
X352529999Y-135439999D03*
X352029999Y-135439999D03*
X351529999Y-135439999D03*
X351029999Y-135439999D03*
X350529999Y-135439999D03*
X350029999Y-135439999D03*
X349529999Y-135439999D03*
X349029999Y-135439999D03*
X348529999Y-135439999D03*
X348029999Y-135439999D03*
X347529999Y-135439999D03*
X347029999Y-135439999D03*
X346529999Y-135439999D03*
X346029999Y-135439999D03*
X345529999Y-135439999D03*
D14*
X341280000Y-138040000D03*
D15*
X341280000Y-144820000D03*
X357780000Y-144820000D03*
D14*
X357780000Y-138040000D03*
%TD*%
D12*
%TO.C,J6*%
X189530000Y-145600000D03*
D13*
X195029999Y-135439999D03*
X194529999Y-135439999D03*
X194029999Y-135439999D03*
X193529999Y-135439999D03*
X193029999Y-135439999D03*
X192529999Y-135439999D03*
X192029999Y-135439999D03*
X191529999Y-135439999D03*
X191029999Y-135439999D03*
X190529999Y-135439999D03*
X190029999Y-135439999D03*
X189529999Y-135439999D03*
X189029999Y-135439999D03*
X188529999Y-135439999D03*
X188029999Y-135439999D03*
X187529999Y-135439999D03*
X187029999Y-135439999D03*
X186529999Y-135439999D03*
X186029999Y-135439999D03*
X185529999Y-135439999D03*
D14*
X181280000Y-138040000D03*
D15*
X181280000Y-144820000D03*
X197780000Y-144820000D03*
D14*
X197780000Y-138040000D03*
%TD*%
D12*
%TO.C,J6*%
X189530000Y-207600000D03*
D13*
X195029999Y-197439999D03*
X194529999Y-197439999D03*
X194029999Y-197439999D03*
X193529999Y-197439999D03*
X193029999Y-197439999D03*
X192529999Y-197439999D03*
X192029999Y-197439999D03*
X191529999Y-197439999D03*
X191029999Y-197439999D03*
X190529999Y-197439999D03*
X190029999Y-197439999D03*
X189529999Y-197439999D03*
X189029999Y-197439999D03*
X188529999Y-197439999D03*
X188029999Y-197439999D03*
X187529999Y-197439999D03*
X187029999Y-197439999D03*
X186529999Y-197439999D03*
X186029999Y-197439999D03*
X185529999Y-197439999D03*
D14*
X181280000Y-200040000D03*
D15*
X181280000Y-206820000D03*
X197780000Y-206820000D03*
D14*
X197780000Y-200040000D03*
%TD*%
D12*
%TO.C,J6*%
X189530000Y-114600000D03*
D13*
X195029999Y-104439999D03*
X194529999Y-104439999D03*
X194029999Y-104439999D03*
X193529999Y-104439999D03*
X193029999Y-104439999D03*
X192529999Y-104439999D03*
X192029999Y-104439999D03*
X191529999Y-104439999D03*
X191029999Y-104439999D03*
X190529999Y-104439999D03*
X190029999Y-104439999D03*
X189529999Y-104439999D03*
X189029999Y-104439999D03*
X188529999Y-104439999D03*
X188029999Y-104439999D03*
X187529999Y-104439999D03*
X187029999Y-104439999D03*
X186529999Y-104439999D03*
X186029999Y-104439999D03*
X185529999Y-104439999D03*
D14*
X181280000Y-107040000D03*
D15*
X181280000Y-113820000D03*
X197780000Y-113820000D03*
D14*
X197780000Y-107040000D03*
%TD*%
D12*
%TO.C,J6*%
X189530000Y-176600000D03*
D13*
X195029999Y-166439999D03*
X194529999Y-166439999D03*
X194029999Y-166439999D03*
X193529999Y-166439999D03*
X193029999Y-166439999D03*
X192529999Y-166439999D03*
X192029999Y-166439999D03*
X191529999Y-166439999D03*
X191029999Y-166439999D03*
X190529999Y-166439999D03*
X190029999Y-166439999D03*
X189529999Y-166439999D03*
X189029999Y-166439999D03*
X188529999Y-166439999D03*
X188029999Y-166439999D03*
X187529999Y-166439999D03*
X187029999Y-166439999D03*
X186529999Y-166439999D03*
X186029999Y-166439999D03*
X185529999Y-166439999D03*
D14*
X181280000Y-169040000D03*
D15*
X181280000Y-175820000D03*
X197780000Y-175820000D03*
D14*
X197780000Y-169040000D03*
%TD*%
D12*
%TO.C,J6*%
X349530000Y-114600000D03*
D13*
X355029999Y-104439999D03*
X354529999Y-104439999D03*
X354029999Y-104439999D03*
X353529999Y-104439999D03*
X353029999Y-104439999D03*
X352529999Y-104439999D03*
X352029999Y-104439999D03*
X351529999Y-104439999D03*
X351029999Y-104439999D03*
X350529999Y-104439999D03*
X350029999Y-104439999D03*
X349529999Y-104439999D03*
X349029999Y-104439999D03*
X348529999Y-104439999D03*
X348029999Y-104439999D03*
X347529999Y-104439999D03*
X347029999Y-104439999D03*
X346529999Y-104439999D03*
X346029999Y-104439999D03*
X345529999Y-104439999D03*
D14*
X341280000Y-107040000D03*
D15*
X341280000Y-113820000D03*
X357780000Y-113820000D03*
D14*
X357780000Y-107040000D03*
%TD*%
D12*
%TO.C,J6*%
X349530000Y-176600000D03*
D13*
X355029999Y-166439999D03*
X354529999Y-166439999D03*
X354029999Y-166439999D03*
X353529999Y-166439999D03*
X353029999Y-166439999D03*
X352529999Y-166439999D03*
X352029999Y-166439999D03*
X351529999Y-166439999D03*
X351029999Y-166439999D03*
X350529999Y-166439999D03*
X350029999Y-166439999D03*
X349529999Y-166439999D03*
X349029999Y-166439999D03*
X348529999Y-166439999D03*
X348029999Y-166439999D03*
X347529999Y-166439999D03*
X347029999Y-166439999D03*
X346529999Y-166439999D03*
X346029999Y-166439999D03*
X345529999Y-166439999D03*
D14*
X341280000Y-169040000D03*
D15*
X341280000Y-175820000D03*
X357780000Y-175820000D03*
D14*
X357780000Y-169040000D03*
%TD*%
D16*
%TO.C,REF\u002A\u002A*%
X47500000Y-214500000D03*
%TD*%
D10*
%TO.C,*%
X214120000Y-122670000D03*
%TD*%
%TO.C,*%
X214120000Y-153670000D03*
%TD*%
%TO.C,*%
X54120000Y-184670000D03*
%TD*%
%TO.C,*%
X214120000Y-91670000D03*
%TD*%
%TO.C,*%
X214120000Y-184670000D03*
%TD*%
%TO.C,*%
X54120000Y-91670000D03*
%TD*%
%TO.C,*%
X54120000Y-122670000D03*
%TD*%
%TO.C,*%
X54120000Y-153670000D03*
%TD*%
D11*
%TO.C,C5*%
X326380000Y-133360000D03*
X326380000Y-131460000D03*
%TD*%
%TO.C,C5*%
X166380000Y-102360000D03*
X166380000Y-100460000D03*
%TD*%
%TO.C,C5*%
X166380000Y-164360000D03*
X166380000Y-162460000D03*
%TD*%
%TO.C,C5*%
X326380000Y-164360000D03*
X326380000Y-162460000D03*
%TD*%
%TO.C,C5*%
X326380000Y-102360000D03*
X326380000Y-100460000D03*
%TD*%
%TO.C,C5*%
X166380000Y-133360000D03*
X166380000Y-131460000D03*
%TD*%
%TO.C,C5*%
X166380000Y-195360000D03*
X166380000Y-193460000D03*
%TD*%
%TO.C,C5*%
X326380000Y-195360000D03*
X326380000Y-193460000D03*
%TD*%
D12*
%TO.C,J5*%
X165632000Y-114600000D03*
D13*
X171131999Y-104439999D03*
X170631999Y-104439999D03*
X170131999Y-104439999D03*
X169631999Y-104439999D03*
X169131999Y-104439999D03*
X168631999Y-104439999D03*
X168131999Y-104439999D03*
X167631999Y-104439999D03*
X167131999Y-104439999D03*
X166631999Y-104439999D03*
X166131999Y-104439999D03*
X165631999Y-104439999D03*
X165131999Y-104439999D03*
X164631999Y-104439999D03*
X164131999Y-104439999D03*
X163631999Y-104439999D03*
X163131999Y-104439999D03*
X162631999Y-104439999D03*
X162131999Y-104439999D03*
X161631999Y-104439999D03*
D14*
X157382000Y-107040000D03*
D15*
X157382000Y-113820000D03*
X173882000Y-113820000D03*
D14*
X173882000Y-107040000D03*
%TD*%
D12*
%TO.C,J5*%
X325632000Y-176600000D03*
D13*
X331131999Y-166439999D03*
X330631999Y-166439999D03*
X330131999Y-166439999D03*
X329631999Y-166439999D03*
X329131999Y-166439999D03*
X328631999Y-166439999D03*
X328131999Y-166439999D03*
X327631999Y-166439999D03*
X327131999Y-166439999D03*
X326631999Y-166439999D03*
X326131999Y-166439999D03*
X325631999Y-166439999D03*
X325131999Y-166439999D03*
X324631999Y-166439999D03*
X324131999Y-166439999D03*
X323631999Y-166439999D03*
X323131999Y-166439999D03*
X322631999Y-166439999D03*
X322131999Y-166439999D03*
X321631999Y-166439999D03*
D14*
X317382000Y-169040000D03*
D15*
X317382000Y-175820000D03*
X333882000Y-175820000D03*
D14*
X333882000Y-169040000D03*
%TD*%
D12*
%TO.C,J5*%
X325632000Y-114600000D03*
D13*
X331131999Y-104439999D03*
X330631999Y-104439999D03*
X330131999Y-104439999D03*
X329631999Y-104439999D03*
X329131999Y-104439999D03*
X328631999Y-104439999D03*
X328131999Y-104439999D03*
X327631999Y-104439999D03*
X327131999Y-104439999D03*
X326631999Y-104439999D03*
X326131999Y-104439999D03*
X325631999Y-104439999D03*
X325131999Y-104439999D03*
X324631999Y-104439999D03*
X324131999Y-104439999D03*
X323631999Y-104439999D03*
X323131999Y-104439999D03*
X322631999Y-104439999D03*
X322131999Y-104439999D03*
X321631999Y-104439999D03*
D14*
X317382000Y-107040000D03*
D15*
X317382000Y-113820000D03*
X333882000Y-113820000D03*
D14*
X333882000Y-107040000D03*
%TD*%
D12*
%TO.C,J5*%
X325632000Y-207600000D03*
D13*
X331131999Y-197439999D03*
X330631999Y-197439999D03*
X330131999Y-197439999D03*
X329631999Y-197439999D03*
X329131999Y-197439999D03*
X328631999Y-197439999D03*
X328131999Y-197439999D03*
X327631999Y-197439999D03*
X327131999Y-197439999D03*
X326631999Y-197439999D03*
X326131999Y-197439999D03*
X325631999Y-197439999D03*
X325131999Y-197439999D03*
X324631999Y-197439999D03*
X324131999Y-197439999D03*
X323631999Y-197439999D03*
X323131999Y-197439999D03*
X322631999Y-197439999D03*
X322131999Y-197439999D03*
X321631999Y-197439999D03*
D14*
X317382000Y-200040000D03*
D15*
X317382000Y-206820000D03*
X333882000Y-206820000D03*
D14*
X333882000Y-200040000D03*
%TD*%
D12*
%TO.C,J5*%
X165632000Y-176600000D03*
D13*
X171131999Y-166439999D03*
X170631999Y-166439999D03*
X170131999Y-166439999D03*
X169631999Y-166439999D03*
X169131999Y-166439999D03*
X168631999Y-166439999D03*
X168131999Y-166439999D03*
X167631999Y-166439999D03*
X167131999Y-166439999D03*
X166631999Y-166439999D03*
X166131999Y-166439999D03*
X165631999Y-166439999D03*
X165131999Y-166439999D03*
X164631999Y-166439999D03*
X164131999Y-166439999D03*
X163631999Y-166439999D03*
X163131999Y-166439999D03*
X162631999Y-166439999D03*
X162131999Y-166439999D03*
X161631999Y-166439999D03*
D14*
X157382000Y-169040000D03*
D15*
X157382000Y-175820000D03*
X173882000Y-175820000D03*
D14*
X173882000Y-169040000D03*
%TD*%
D12*
%TO.C,J5*%
X325632000Y-145600000D03*
D13*
X331131999Y-135439999D03*
X330631999Y-135439999D03*
X330131999Y-135439999D03*
X329631999Y-135439999D03*
X329131999Y-135439999D03*
X328631999Y-135439999D03*
X328131999Y-135439999D03*
X327631999Y-135439999D03*
X327131999Y-135439999D03*
X326631999Y-135439999D03*
X326131999Y-135439999D03*
X325631999Y-135439999D03*
X325131999Y-135439999D03*
X324631999Y-135439999D03*
X324131999Y-135439999D03*
X323631999Y-135439999D03*
X323131999Y-135439999D03*
X322631999Y-135439999D03*
X322131999Y-135439999D03*
X321631999Y-135439999D03*
D14*
X317382000Y-138040000D03*
D15*
X317382000Y-144820000D03*
X333882000Y-144820000D03*
D14*
X333882000Y-138040000D03*
%TD*%
D12*
%TO.C,J5*%
X165632000Y-145600000D03*
D13*
X171131999Y-135439999D03*
X170631999Y-135439999D03*
X170131999Y-135439999D03*
X169631999Y-135439999D03*
X169131999Y-135439999D03*
X168631999Y-135439999D03*
X168131999Y-135439999D03*
X167631999Y-135439999D03*
X167131999Y-135439999D03*
X166631999Y-135439999D03*
X166131999Y-135439999D03*
X165631999Y-135439999D03*
X165131999Y-135439999D03*
X164631999Y-135439999D03*
X164131999Y-135439999D03*
X163631999Y-135439999D03*
X163131999Y-135439999D03*
X162631999Y-135439999D03*
X162131999Y-135439999D03*
X161631999Y-135439999D03*
D14*
X157382000Y-138040000D03*
D15*
X157382000Y-144820000D03*
X173882000Y-144820000D03*
D14*
X173882000Y-138040000D03*
%TD*%
D12*
%TO.C,J5*%
X165632000Y-207600000D03*
D13*
X171131999Y-197439999D03*
X170631999Y-197439999D03*
X170131999Y-197439999D03*
X169631999Y-197439999D03*
X169131999Y-197439999D03*
X168631999Y-197439999D03*
X168131999Y-197439999D03*
X167631999Y-197439999D03*
X167131999Y-197439999D03*
X166631999Y-197439999D03*
X166131999Y-197439999D03*
X165631999Y-197439999D03*
X165131999Y-197439999D03*
X164631999Y-197439999D03*
X164131999Y-197439999D03*
X163631999Y-197439999D03*
X163131999Y-197439999D03*
X162631999Y-197439999D03*
X162131999Y-197439999D03*
X161631999Y-197439999D03*
D14*
X157382000Y-200040000D03*
D15*
X157382000Y-206820000D03*
X173882000Y-206820000D03*
D14*
X173882000Y-200040000D03*
%TD*%
D16*
%TO.C,REF\u002A\u002A*%
X47500000Y-85500000D03*
%TD*%
%TO.C,REF_Top*%
X368435000Y-120467000D03*
%TD*%
%TO.C,REF_Top*%
X208435000Y-120467000D03*
%TD*%
%TO.C,REF_Top*%
X208435000Y-182467000D03*
%TD*%
%TO.C,REF_Top*%
X368435000Y-151467000D03*
%TD*%
%TO.C,REF_Top*%
X368435000Y-89467000D03*
%TD*%
%TO.C,REF_Top*%
X208435000Y-89467000D03*
%TD*%
%TO.C,REF_Top*%
X208435000Y-151467000D03*
%TD*%
%TO.C,REF_Top*%
X368435000Y-182467000D03*
%TD*%
D12*
%TO.C,J3*%
X117836000Y-114600000D03*
D13*
X123335999Y-104439999D03*
X122835999Y-104439999D03*
X122335999Y-104439999D03*
X121835999Y-104439999D03*
X121335999Y-104439999D03*
X120835999Y-104439999D03*
X120335999Y-104439999D03*
X119835999Y-104439999D03*
X119335999Y-104439999D03*
X118835999Y-104439999D03*
X118335999Y-104439999D03*
X117835999Y-104439999D03*
X117335999Y-104439999D03*
X116835999Y-104439999D03*
X116335999Y-104439999D03*
X115835999Y-104439999D03*
X115335999Y-104439999D03*
X114835999Y-104439999D03*
X114335999Y-104439999D03*
X113835999Y-104439999D03*
D14*
X109586000Y-107040000D03*
D15*
X109586000Y-113820000D03*
X126086000Y-113820000D03*
D14*
X126086000Y-107040000D03*
%TD*%
D12*
%TO.C,J3*%
X117836000Y-176600000D03*
D13*
X123335999Y-166439999D03*
X122835999Y-166439999D03*
X122335999Y-166439999D03*
X121835999Y-166439999D03*
X121335999Y-166439999D03*
X120835999Y-166439999D03*
X120335999Y-166439999D03*
X119835999Y-166439999D03*
X119335999Y-166439999D03*
X118835999Y-166439999D03*
X118335999Y-166439999D03*
X117835999Y-166439999D03*
X117335999Y-166439999D03*
X116835999Y-166439999D03*
X116335999Y-166439999D03*
X115835999Y-166439999D03*
X115335999Y-166439999D03*
X114835999Y-166439999D03*
X114335999Y-166439999D03*
X113835999Y-166439999D03*
D14*
X109586000Y-169040000D03*
D15*
X109586000Y-175820000D03*
X126086000Y-175820000D03*
D14*
X126086000Y-169040000D03*
%TD*%
D12*
%TO.C,J3*%
X277836000Y-145600000D03*
D13*
X283335999Y-135439999D03*
X282835999Y-135439999D03*
X282335999Y-135439999D03*
X281835999Y-135439999D03*
X281335999Y-135439999D03*
X280835999Y-135439999D03*
X280335999Y-135439999D03*
X279835999Y-135439999D03*
X279335999Y-135439999D03*
X278835999Y-135439999D03*
X278335999Y-135439999D03*
X277835999Y-135439999D03*
X277335999Y-135439999D03*
X276835999Y-135439999D03*
X276335999Y-135439999D03*
X275835999Y-135439999D03*
X275335999Y-135439999D03*
X274835999Y-135439999D03*
X274335999Y-135439999D03*
X273835999Y-135439999D03*
D14*
X269586000Y-138040000D03*
D15*
X269586000Y-144820000D03*
X286086000Y-144820000D03*
D14*
X286086000Y-138040000D03*
%TD*%
D12*
%TO.C,J3*%
X117836000Y-145600000D03*
D13*
X123335999Y-135439999D03*
X122835999Y-135439999D03*
X122335999Y-135439999D03*
X121835999Y-135439999D03*
X121335999Y-135439999D03*
X120835999Y-135439999D03*
X120335999Y-135439999D03*
X119835999Y-135439999D03*
X119335999Y-135439999D03*
X118835999Y-135439999D03*
X118335999Y-135439999D03*
X117835999Y-135439999D03*
X117335999Y-135439999D03*
X116835999Y-135439999D03*
X116335999Y-135439999D03*
X115835999Y-135439999D03*
X115335999Y-135439999D03*
X114835999Y-135439999D03*
X114335999Y-135439999D03*
X113835999Y-135439999D03*
D14*
X109586000Y-138040000D03*
D15*
X109586000Y-144820000D03*
X126086000Y-144820000D03*
D14*
X126086000Y-138040000D03*
%TD*%
D12*
%TO.C,J3*%
X277836000Y-114600000D03*
D13*
X283335999Y-104439999D03*
X282835999Y-104439999D03*
X282335999Y-104439999D03*
X281835999Y-104439999D03*
X281335999Y-104439999D03*
X280835999Y-104439999D03*
X280335999Y-104439999D03*
X279835999Y-104439999D03*
X279335999Y-104439999D03*
X278835999Y-104439999D03*
X278335999Y-104439999D03*
X277835999Y-104439999D03*
X277335999Y-104439999D03*
X276835999Y-104439999D03*
X276335999Y-104439999D03*
X275835999Y-104439999D03*
X275335999Y-104439999D03*
X274835999Y-104439999D03*
X274335999Y-104439999D03*
X273835999Y-104439999D03*
D14*
X269586000Y-107040000D03*
D15*
X269586000Y-113820000D03*
X286086000Y-113820000D03*
D14*
X286086000Y-107040000D03*
%TD*%
D12*
%TO.C,J3*%
X117836000Y-207600000D03*
D13*
X123335999Y-197439999D03*
X122835999Y-197439999D03*
X122335999Y-197439999D03*
X121835999Y-197439999D03*
X121335999Y-197439999D03*
X120835999Y-197439999D03*
X120335999Y-197439999D03*
X119835999Y-197439999D03*
X119335999Y-197439999D03*
X118835999Y-197439999D03*
X118335999Y-197439999D03*
X117835999Y-197439999D03*
X117335999Y-197439999D03*
X116835999Y-197439999D03*
X116335999Y-197439999D03*
X115835999Y-197439999D03*
X115335999Y-197439999D03*
X114835999Y-197439999D03*
X114335999Y-197439999D03*
X113835999Y-197439999D03*
D14*
X109586000Y-200040000D03*
D15*
X109586000Y-206820000D03*
X126086000Y-206820000D03*
D14*
X126086000Y-200040000D03*
%TD*%
D12*
%TO.C,J3*%
X277836000Y-176600000D03*
D13*
X283335999Y-166439999D03*
X282835999Y-166439999D03*
X282335999Y-166439999D03*
X281835999Y-166439999D03*
X281335999Y-166439999D03*
X280835999Y-166439999D03*
X280335999Y-166439999D03*
X279835999Y-166439999D03*
X279335999Y-166439999D03*
X278835999Y-166439999D03*
X278335999Y-166439999D03*
X277835999Y-166439999D03*
X277335999Y-166439999D03*
X276835999Y-166439999D03*
X276335999Y-166439999D03*
X275835999Y-166439999D03*
X275335999Y-166439999D03*
X274835999Y-166439999D03*
X274335999Y-166439999D03*
X273835999Y-166439999D03*
D14*
X269586000Y-169040000D03*
D15*
X269586000Y-175820000D03*
X286086000Y-175820000D03*
D14*
X286086000Y-169040000D03*
%TD*%
D12*
%TO.C,J3*%
X277836000Y-207600000D03*
D13*
X283335999Y-197439999D03*
X282835999Y-197439999D03*
X282335999Y-197439999D03*
X281835999Y-197439999D03*
X281335999Y-197439999D03*
X280835999Y-197439999D03*
X280335999Y-197439999D03*
X279835999Y-197439999D03*
X279335999Y-197439999D03*
X278835999Y-197439999D03*
X278335999Y-197439999D03*
X277835999Y-197439999D03*
X277335999Y-197439999D03*
X276835999Y-197439999D03*
X276335999Y-197439999D03*
X275835999Y-197439999D03*
X275335999Y-197439999D03*
X274835999Y-197439999D03*
X274335999Y-197439999D03*
X273835999Y-197439999D03*
D14*
X269586000Y-200040000D03*
D15*
X269586000Y-206820000D03*
X286086000Y-206820000D03*
D14*
X286086000Y-200040000D03*
%TD*%
D10*
%TO.C,*%
X366120000Y-177670000D03*
%TD*%
%TO.C,*%
X206120000Y-115670000D03*
%TD*%
%TO.C,*%
X206120000Y-146670000D03*
%TD*%
%TO.C,*%
X366120000Y-146670000D03*
%TD*%
%TO.C,*%
X366120000Y-115670000D03*
%TD*%
%TO.C,*%
X366120000Y-208670000D03*
%TD*%
%TO.C,*%
X206120000Y-177670000D03*
%TD*%
%TO.C,*%
X206120000Y-208670000D03*
%TD*%
D12*
%TO.C,J1*%
X70040000Y-145600000D03*
D13*
X75539999Y-135439999D03*
X75039999Y-135439999D03*
X74539999Y-135439999D03*
X74039999Y-135439999D03*
X73539999Y-135439999D03*
X73039999Y-135439999D03*
X72539999Y-135439999D03*
X72039999Y-135439999D03*
X71539999Y-135439999D03*
X71039999Y-135439999D03*
X70539999Y-135439999D03*
X70039999Y-135439999D03*
X69539999Y-135439999D03*
X69039999Y-135439999D03*
X68539999Y-135439999D03*
X68039999Y-135439999D03*
X67539999Y-135439999D03*
X67039999Y-135439999D03*
X66539999Y-135439999D03*
X66039999Y-135439999D03*
D14*
X61790000Y-138040000D03*
D15*
X61790000Y-144820000D03*
X78290000Y-144820000D03*
D14*
X78290000Y-138040000D03*
%TD*%
D12*
%TO.C,J1*%
X230040000Y-114600000D03*
D13*
X235539999Y-104439999D03*
X235039999Y-104439999D03*
X234539999Y-104439999D03*
X234039999Y-104439999D03*
X233539999Y-104439999D03*
X233039999Y-104439999D03*
X232539999Y-104439999D03*
X232039999Y-104439999D03*
X231539999Y-104439999D03*
X231039999Y-104439999D03*
X230539999Y-104439999D03*
X230039999Y-104439999D03*
X229539999Y-104439999D03*
X229039999Y-104439999D03*
X228539999Y-104439999D03*
X228039999Y-104439999D03*
X227539999Y-104439999D03*
X227039999Y-104439999D03*
X226539999Y-104439999D03*
X226039999Y-104439999D03*
D14*
X221790000Y-107040000D03*
D15*
X221790000Y-113820000D03*
X238290000Y-113820000D03*
D14*
X238290000Y-107040000D03*
%TD*%
D12*
%TO.C,J1*%
X230040000Y-207600000D03*
D13*
X235539999Y-197439999D03*
X235039999Y-197439999D03*
X234539999Y-197439999D03*
X234039999Y-197439999D03*
X233539999Y-197439999D03*
X233039999Y-197439999D03*
X232539999Y-197439999D03*
X232039999Y-197439999D03*
X231539999Y-197439999D03*
X231039999Y-197439999D03*
X230539999Y-197439999D03*
X230039999Y-197439999D03*
X229539999Y-197439999D03*
X229039999Y-197439999D03*
X228539999Y-197439999D03*
X228039999Y-197439999D03*
X227539999Y-197439999D03*
X227039999Y-197439999D03*
X226539999Y-197439999D03*
X226039999Y-197439999D03*
D14*
X221790000Y-200040000D03*
D15*
X221790000Y-206820000D03*
X238290000Y-206820000D03*
D14*
X238290000Y-200040000D03*
%TD*%
D12*
%TO.C,J1*%
X70040000Y-114600000D03*
D13*
X75539999Y-104439999D03*
X75039999Y-104439999D03*
X74539999Y-104439999D03*
X74039999Y-104439999D03*
X73539999Y-104439999D03*
X73039999Y-104439999D03*
X72539999Y-104439999D03*
X72039999Y-104439999D03*
X71539999Y-104439999D03*
X71039999Y-104439999D03*
X70539999Y-104439999D03*
X70039999Y-104439999D03*
X69539999Y-104439999D03*
X69039999Y-104439999D03*
X68539999Y-104439999D03*
X68039999Y-104439999D03*
X67539999Y-104439999D03*
X67039999Y-104439999D03*
X66539999Y-104439999D03*
X66039999Y-104439999D03*
D14*
X61790000Y-107040000D03*
D15*
X61790000Y-113820000D03*
X78290000Y-113820000D03*
D14*
X78290000Y-107040000D03*
%TD*%
D12*
%TO.C,J1*%
X230040000Y-145600000D03*
D13*
X235539999Y-135439999D03*
X235039999Y-135439999D03*
X234539999Y-135439999D03*
X234039999Y-135439999D03*
X233539999Y-135439999D03*
X233039999Y-135439999D03*
X232539999Y-135439999D03*
X232039999Y-135439999D03*
X231539999Y-135439999D03*
X231039999Y-135439999D03*
X230539999Y-135439999D03*
X230039999Y-135439999D03*
X229539999Y-135439999D03*
X229039999Y-135439999D03*
X228539999Y-135439999D03*
X228039999Y-135439999D03*
X227539999Y-135439999D03*
X227039999Y-135439999D03*
X226539999Y-135439999D03*
X226039999Y-135439999D03*
D14*
X221790000Y-138040000D03*
D15*
X221790000Y-144820000D03*
X238290000Y-144820000D03*
D14*
X238290000Y-138040000D03*
%TD*%
D12*
%TO.C,J1*%
X230040000Y-176600000D03*
D13*
X235539999Y-166439999D03*
X235039999Y-166439999D03*
X234539999Y-166439999D03*
X234039999Y-166439999D03*
X233539999Y-166439999D03*
X233039999Y-166439999D03*
X232539999Y-166439999D03*
X232039999Y-166439999D03*
X231539999Y-166439999D03*
X231039999Y-166439999D03*
X230539999Y-166439999D03*
X230039999Y-166439999D03*
X229539999Y-166439999D03*
X229039999Y-166439999D03*
X228539999Y-166439999D03*
X228039999Y-166439999D03*
X227539999Y-166439999D03*
X227039999Y-166439999D03*
X226539999Y-166439999D03*
X226039999Y-166439999D03*
D14*
X221790000Y-169040000D03*
D15*
X221790000Y-175820000D03*
X238290000Y-175820000D03*
D14*
X238290000Y-169040000D03*
%TD*%
D12*
%TO.C,J1*%
X70040000Y-207600000D03*
D13*
X75539999Y-197439999D03*
X75039999Y-197439999D03*
X74539999Y-197439999D03*
X74039999Y-197439999D03*
X73539999Y-197439999D03*
X73039999Y-197439999D03*
X72539999Y-197439999D03*
X72039999Y-197439999D03*
X71539999Y-197439999D03*
X71039999Y-197439999D03*
X70539999Y-197439999D03*
X70039999Y-197439999D03*
X69539999Y-197439999D03*
X69039999Y-197439999D03*
X68539999Y-197439999D03*
X68039999Y-197439999D03*
X67539999Y-197439999D03*
X67039999Y-197439999D03*
X66539999Y-197439999D03*
X66039999Y-197439999D03*
D14*
X61790000Y-200040000D03*
D15*
X61790000Y-206820000D03*
X78290000Y-206820000D03*
D14*
X78290000Y-200040000D03*
%TD*%
D12*
%TO.C,J1*%
X70040000Y-176600000D03*
D13*
X75539999Y-166439999D03*
X75039999Y-166439999D03*
X74539999Y-166439999D03*
X74039999Y-166439999D03*
X73539999Y-166439999D03*
X73039999Y-166439999D03*
X72539999Y-166439999D03*
X72039999Y-166439999D03*
X71539999Y-166439999D03*
X71039999Y-166439999D03*
X70539999Y-166439999D03*
X70039999Y-166439999D03*
X69539999Y-166439999D03*
X69039999Y-166439999D03*
X68539999Y-166439999D03*
X68039999Y-166439999D03*
X67539999Y-166439999D03*
X67039999Y-166439999D03*
X66539999Y-166439999D03*
X66039999Y-166439999D03*
D14*
X61790000Y-169040000D03*
D15*
X61790000Y-175820000D03*
X78290000Y-175820000D03*
D14*
X78290000Y-169040000D03*
%TD*%
D10*
%TO.C,*%
X366120000Y-91670000D03*
%TD*%
%TO.C,*%
X366120000Y-184670000D03*
%TD*%
%TO.C,*%
X206120000Y-153670000D03*
%TD*%
%TO.C,*%
X366120000Y-153670000D03*
%TD*%
%TO.C,*%
X206120000Y-91670000D03*
%TD*%
%TO.C,*%
X206120000Y-184670000D03*
%TD*%
%TO.C,*%
X206120000Y-122670000D03*
%TD*%
%TO.C,*%
X366120000Y-122670000D03*
%TD*%
D16*
%TO.C,REF_Top*%
X211489000Y-117481000D03*
%TD*%
%TO.C,REF_Top*%
X51489000Y-179481000D03*
%TD*%
%TO.C,REF_Top*%
X51489000Y-148481000D03*
%TD*%
%TO.C,REF_Top*%
X211489000Y-179481000D03*
%TD*%
%TO.C,REF_Top*%
X51489000Y-210481000D03*
%TD*%
%TO.C,REF_Top*%
X211489000Y-210481000D03*
%TD*%
%TO.C,REF_Top*%
X211489000Y-148481000D03*
%TD*%
%TO.C,REF_Top*%
X51489000Y-117481000D03*
%TD*%
D11*
%TO.C,C4*%
X142480000Y-102360000D03*
X142480000Y-100460000D03*
%TD*%
%TO.C,C4*%
X142480000Y-133360000D03*
X142480000Y-131460000D03*
%TD*%
%TO.C,C4*%
X302480000Y-133360000D03*
X302480000Y-131460000D03*
%TD*%
%TO.C,C4*%
X302480000Y-164360000D03*
X302480000Y-162460000D03*
%TD*%
%TO.C,C4*%
X142480000Y-195360000D03*
X142480000Y-193460000D03*
%TD*%
%TO.C,C4*%
X142480000Y-164360000D03*
X142480000Y-162460000D03*
%TD*%
%TO.C,C4*%
X302480000Y-102360000D03*
X302480000Y-100460000D03*
%TD*%
%TO.C,C4*%
X302480000Y-195360000D03*
X302480000Y-193460000D03*
%TD*%
M02*
