M48
; DRILL file {KiCad (7.0.0)} date Fri Jul 14 11:16:45 2023
; FORMAT={-:-/ absolute / metric / decimal}
; #@! TF.CreationDate,2023-07-14T11:16:45+02:00
; #@! TF.GenerationSoftware,Kicad,Pcbnew,(7.0.0)
; #@! TF.FileFunction,NonPlated,1,4,NPTH
FMAT,2
METRIC
; #@! TA.AperFunction,NonPlated,NPTH,ComponentDrill
T1C1.450
; #@! TA.AperFunction,NonPlated,NPTH,ComponentDrill
T2C2.220
; #@! TA.AperFunction,NonPlated,NPTH,ComponentDrill
T3C3.200
%
G90
G05
T1
X70.04Y-114.6
X70.04Y-145.6
X70.04Y-176.6
X70.04Y-207.6
X93.936Y-114.599
X93.936Y-145.599
X93.936Y-176.599
X93.936Y-207.599
X117.836Y-114.6
X117.836Y-145.6
X117.836Y-176.6
X117.836Y-207.6
X141.734Y-114.6
X141.734Y-145.6
X141.734Y-176.6
X141.734Y-207.6
X165.632Y-114.6
X165.632Y-145.6
X165.632Y-176.6
X165.632Y-207.6
X189.53Y-114.6
X189.53Y-145.6
X189.53Y-176.6
X189.53Y-207.6
X230.04Y-114.6
X230.04Y-145.6
X230.04Y-176.6
X230.04Y-207.6
X253.936Y-114.599
X253.936Y-145.599
X253.936Y-176.599
X253.936Y-207.599
X277.836Y-114.6
X277.836Y-145.6
X277.836Y-176.6
X277.836Y-207.6
X301.734Y-114.6
X301.734Y-145.6
X301.734Y-176.6
X301.734Y-207.6
X325.632Y-114.6
X325.632Y-145.6
X325.632Y-176.6
X325.632Y-207.6
X349.53Y-114.6
X349.53Y-145.6
X349.53Y-176.6
X349.53Y-207.6
T2
X107.89Y-92.0
X107.89Y-123.0
X107.89Y-154.0
X107.89Y-185.0
X267.89Y-92.0
X267.89Y-123.0
X267.89Y-154.0
X267.89Y-185.0
T3
X54.12Y-91.67
X54.12Y-115.67
X54.12Y-122.67
X54.12Y-146.67
X54.12Y-153.67
X54.12Y-177.67
X54.12Y-184.67
X54.12Y-208.67
X206.12Y-91.67
X206.12Y-115.67
X206.12Y-122.67
X206.12Y-146.67
X206.12Y-153.67
X206.12Y-177.67
X206.12Y-184.67
X206.12Y-208.67
X214.12Y-91.67
X214.12Y-115.67
X214.12Y-122.67
X214.12Y-146.67
X214.12Y-153.67
X214.12Y-177.67
X214.12Y-184.67
X214.12Y-208.67
X366.12Y-91.67
X366.12Y-115.67
X366.12Y-122.67
X366.12Y-146.67
X366.12Y-153.67
X366.12Y-177.67
X366.12Y-184.67
X366.12Y-208.67
T0
M30
