%TF.GenerationSoftware,KiCad,Pcbnew,(7.0.0)*%
%TF.CreationDate,2023-07-14T12:07:01+02:00*%
%TF.ProjectId,Panelization,50616e65-6c69-47a6-9174-696f6e2e6b69,V1*%
%TF.SameCoordinates,Original*%
%TF.FileFunction,Soldermask,Bot*%
%TF.FilePolarity,Negative*%
%FSLAX46Y46*%
G04 Gerber Fmt 4.6, Leading zero omitted, Abs format (unit mm)*
G04 Created by KiCad (PCBNEW (7.0.0)) date 2023-07-14 12:07:01*
%MOMM*%
%LPD*%
G01*
G04 APERTURE LIST*
G04 Aperture macros list*
%AMRoundRect*
0 Rectangle with rounded corners*
0 $1 Rounding radius*
0 $2 $3 $4 $5 $6 $7 $8 $9 X,Y pos of 4 corners*
0 Add a 4 corners polygon primitive as box body*
4,1,4,$2,$3,$4,$5,$6,$7,$8,$9,$2,$3,0*
0 Add four circle primitives for the rounded corners*
1,1,$1+$1,$2,$3*
1,1,$1+$1,$4,$5*
1,1,$1+$1,$6,$7*
1,1,$1+$1,$8,$9*
0 Add four rect primitives between the rounded corners*
20,1,$1+$1,$2,$3,$4,$5,0*
20,1,$1+$1,$4,$5,$6,$7,0*
20,1,$1+$1,$6,$7,$8,$9,0*
20,1,$1+$1,$8,$9,$2,$3,0*%
G04 Aperture macros list end*
%ADD10C,3.200000*%
%ADD11C,0.001000*%
%ADD12C,2.660000*%
%ADD13C,1.982000*%
%ADD14C,2.100000*%
%ADD15R,0.500000X1.480000*%
%ADD16R,1.500000X2.000000*%
%ADD17C,2.000000*%
%ADD18RoundRect,0.250000X-0.475000X0.250000X-0.475000X-0.250000X0.475000X-0.250000X0.475000X0.250000X0*%
%ADD19RoundRect,0.250000X-0.450000X0.262500X-0.450000X-0.262500X0.450000X-0.262500X0.450000X0.262500X0*%
G04 APERTURE END LIST*
D10*
%TO.C,*%
X214120000Y-115670000D03*
%TD*%
%TO.C,*%
X54120000Y-208670000D03*
%TD*%
%TO.C,*%
X54120000Y-177670000D03*
%TD*%
%TO.C,*%
X214120000Y-177670000D03*
%TD*%
%TO.C,*%
X54120000Y-146670000D03*
%TD*%
%TO.C,*%
X214120000Y-146670000D03*
%TD*%
%TO.C,*%
X54120000Y-115670000D03*
%TD*%
%TO.C,*%
X214120000Y-208670000D03*
%TD*%
D11*
%TO.C,J4*%
X141734000Y-176600000D03*
D12*
X133484000Y-169040000D03*
D13*
X133484000Y-175820000D03*
X149984000Y-175820000D03*
D12*
X149984000Y-169040000D03*
%TD*%
D11*
%TO.C,J4*%
X301734000Y-207600000D03*
D12*
X293484000Y-200040000D03*
D13*
X293484000Y-206820000D03*
X309984000Y-206820000D03*
D12*
X309984000Y-200040000D03*
%TD*%
D11*
%TO.C,J4*%
X301734000Y-176600000D03*
D12*
X293484000Y-169040000D03*
D13*
X293484000Y-175820000D03*
X309984000Y-175820000D03*
D12*
X309984000Y-169040000D03*
%TD*%
D11*
%TO.C,J4*%
X141734000Y-145600000D03*
D12*
X133484000Y-138040000D03*
D13*
X133484000Y-144820000D03*
X149984000Y-144820000D03*
D12*
X149984000Y-138040000D03*
%TD*%
D11*
%TO.C,J4*%
X141734000Y-207600000D03*
D12*
X133484000Y-200040000D03*
D13*
X133484000Y-206820000D03*
X149984000Y-206820000D03*
D12*
X149984000Y-200040000D03*
%TD*%
D11*
%TO.C,J4*%
X301734000Y-145600000D03*
D12*
X293484000Y-138040000D03*
D13*
X293484000Y-144820000D03*
X309984000Y-144820000D03*
D12*
X309984000Y-138040000D03*
%TD*%
D11*
%TO.C,J4*%
X141734000Y-114600000D03*
D12*
X133484000Y-107040000D03*
D13*
X133484000Y-113820000D03*
X149984000Y-113820000D03*
D12*
X149984000Y-107040000D03*
%TD*%
D11*
%TO.C,J4*%
X301734000Y-114600000D03*
D12*
X293484000Y-107040000D03*
D13*
X293484000Y-113820000D03*
X309984000Y-113820000D03*
D12*
X309984000Y-107040000D03*
%TD*%
D11*
%TO.C,J2*%
X253936000Y-114599000D03*
D12*
X245686000Y-107039000D03*
D13*
X245686000Y-113819000D03*
X262186000Y-113819000D03*
D12*
X262186000Y-107039000D03*
%TD*%
D11*
%TO.C,J2*%
X93936000Y-176599000D03*
D12*
X85686000Y-169039000D03*
D13*
X85686000Y-175819000D03*
X102186000Y-175819000D03*
D12*
X102186000Y-169039000D03*
%TD*%
D11*
%TO.C,J2*%
X253936000Y-145599000D03*
D12*
X245686000Y-138039000D03*
D13*
X245686000Y-144819000D03*
X262186000Y-144819000D03*
D12*
X262186000Y-138039000D03*
%TD*%
D11*
%TO.C,J2*%
X93936000Y-114599000D03*
D12*
X85686000Y-107039000D03*
D13*
X85686000Y-113819000D03*
X102186000Y-113819000D03*
D12*
X102186000Y-107039000D03*
%TD*%
D11*
%TO.C,J2*%
X93936000Y-145599000D03*
D12*
X85686000Y-138039000D03*
D13*
X85686000Y-144819000D03*
X102186000Y-144819000D03*
D12*
X102186000Y-138039000D03*
%TD*%
D11*
%TO.C,J2*%
X93936000Y-207599000D03*
D12*
X85686000Y-200039000D03*
D13*
X85686000Y-206819000D03*
X102186000Y-206819000D03*
D12*
X102186000Y-200039000D03*
%TD*%
D11*
%TO.C,J2*%
X253936000Y-176599000D03*
D12*
X245686000Y-169039000D03*
D13*
X245686000Y-175819000D03*
X262186000Y-175819000D03*
D12*
X262186000Y-169039000D03*
%TD*%
D11*
%TO.C,J2*%
X253936000Y-207599000D03*
D12*
X245686000Y-200039000D03*
D13*
X245686000Y-206819000D03*
X262186000Y-206819000D03*
D12*
X262186000Y-200039000D03*
%TD*%
D14*
%TO.C,J7*%
X107890000Y-185000000D03*
D15*
X110399999Y-183059999D03*
X111199999Y-183059999D03*
X111999999Y-183059999D03*
X112799999Y-183059999D03*
X113599999Y-183059999D03*
X114399999Y-183059999D03*
X115199999Y-183059999D03*
X115999999Y-183059999D03*
X116799999Y-183059999D03*
X117599999Y-183059999D03*
X118399999Y-183059999D03*
X119199999Y-183059999D03*
X119999999Y-183059999D03*
X120799999Y-183059999D03*
X121599999Y-183059999D03*
X122399999Y-183059999D03*
X123199999Y-183059999D03*
X123999999Y-183059999D03*
X124799999Y-183059999D03*
X125599999Y-183059999D03*
X126399999Y-183059999D03*
X127199999Y-183059999D03*
X127999999Y-183059999D03*
X128799999Y-183059999D03*
X129599999Y-183059999D03*
X130399999Y-183059999D03*
X131199999Y-183059999D03*
X131999999Y-183059999D03*
X132799999Y-183059999D03*
X133599999Y-183059999D03*
X134399999Y-183059999D03*
X135199999Y-183059999D03*
X135999999Y-183059999D03*
X136799999Y-183059999D03*
X137599999Y-183059999D03*
X138399999Y-183059999D03*
X139199999Y-183059999D03*
X139999999Y-183059999D03*
X140799999Y-183059999D03*
X141599999Y-183059999D03*
X142399999Y-183059999D03*
X143199999Y-183059999D03*
X143999999Y-183059999D03*
X144799999Y-183059999D03*
X145599999Y-183059999D03*
X146399999Y-183059999D03*
X147199999Y-183059999D03*
X147999999Y-183059999D03*
X148799999Y-183059999D03*
X149599999Y-183059999D03*
D16*
X105499999Y-183199999D03*
X154499999Y-183199999D03*
%TD*%
D14*
%TO.C,J7*%
X267890000Y-185000000D03*
D15*
X270399999Y-183059999D03*
X271199999Y-183059999D03*
X271999999Y-183059999D03*
X272799999Y-183059999D03*
X273599999Y-183059999D03*
X274399999Y-183059999D03*
X275199999Y-183059999D03*
X275999999Y-183059999D03*
X276799999Y-183059999D03*
X277599999Y-183059999D03*
X278399999Y-183059999D03*
X279199999Y-183059999D03*
X279999999Y-183059999D03*
X280799999Y-183059999D03*
X281599999Y-183059999D03*
X282399999Y-183059999D03*
X283199999Y-183059999D03*
X283999999Y-183059999D03*
X284799999Y-183059999D03*
X285599999Y-183059999D03*
X286399999Y-183059999D03*
X287199999Y-183059999D03*
X287999999Y-183059999D03*
X288799999Y-183059999D03*
X289599999Y-183059999D03*
X290399999Y-183059999D03*
X291199999Y-183059999D03*
X291999999Y-183059999D03*
X292799999Y-183059999D03*
X293599999Y-183059999D03*
X294399999Y-183059999D03*
X295199999Y-183059999D03*
X295999999Y-183059999D03*
X296799999Y-183059999D03*
X297599999Y-183059999D03*
X298399999Y-183059999D03*
X299199999Y-183059999D03*
X299999999Y-183059999D03*
X300799999Y-183059999D03*
X301599999Y-183059999D03*
X302399999Y-183059999D03*
X303199999Y-183059999D03*
X303999999Y-183059999D03*
X304799999Y-183059999D03*
X305599999Y-183059999D03*
X306399999Y-183059999D03*
X307199999Y-183059999D03*
X307999999Y-183059999D03*
X308799999Y-183059999D03*
X309599999Y-183059999D03*
D16*
X265499999Y-183199999D03*
X314499999Y-183199999D03*
%TD*%
D14*
%TO.C,J7*%
X107890000Y-154000000D03*
D15*
X110399999Y-152059999D03*
X111199999Y-152059999D03*
X111999999Y-152059999D03*
X112799999Y-152059999D03*
X113599999Y-152059999D03*
X114399999Y-152059999D03*
X115199999Y-152059999D03*
X115999999Y-152059999D03*
X116799999Y-152059999D03*
X117599999Y-152059999D03*
X118399999Y-152059999D03*
X119199999Y-152059999D03*
X119999999Y-152059999D03*
X120799999Y-152059999D03*
X121599999Y-152059999D03*
X122399999Y-152059999D03*
X123199999Y-152059999D03*
X123999999Y-152059999D03*
X124799999Y-152059999D03*
X125599999Y-152059999D03*
X126399999Y-152059999D03*
X127199999Y-152059999D03*
X127999999Y-152059999D03*
X128799999Y-152059999D03*
X129599999Y-152059999D03*
X130399999Y-152059999D03*
X131199999Y-152059999D03*
X131999999Y-152059999D03*
X132799999Y-152059999D03*
X133599999Y-152059999D03*
X134399999Y-152059999D03*
X135199999Y-152059999D03*
X135999999Y-152059999D03*
X136799999Y-152059999D03*
X137599999Y-152059999D03*
X138399999Y-152059999D03*
X139199999Y-152059999D03*
X139999999Y-152059999D03*
X140799999Y-152059999D03*
X141599999Y-152059999D03*
X142399999Y-152059999D03*
X143199999Y-152059999D03*
X143999999Y-152059999D03*
X144799999Y-152059999D03*
X145599999Y-152059999D03*
X146399999Y-152059999D03*
X147199999Y-152059999D03*
X147999999Y-152059999D03*
X148799999Y-152059999D03*
X149599999Y-152059999D03*
D16*
X105499999Y-152199999D03*
X154499999Y-152199999D03*
%TD*%
D14*
%TO.C,J7*%
X107890000Y-92000000D03*
D15*
X110399999Y-90059999D03*
X111199999Y-90059999D03*
X111999999Y-90059999D03*
X112799999Y-90059999D03*
X113599999Y-90059999D03*
X114399999Y-90059999D03*
X115199999Y-90059999D03*
X115999999Y-90059999D03*
X116799999Y-90059999D03*
X117599999Y-90059999D03*
X118399999Y-90059999D03*
X119199999Y-90059999D03*
X119999999Y-90059999D03*
X120799999Y-90059999D03*
X121599999Y-90059999D03*
X122399999Y-90059999D03*
X123199999Y-90059999D03*
X123999999Y-90059999D03*
X124799999Y-90059999D03*
X125599999Y-90059999D03*
X126399999Y-90059999D03*
X127199999Y-90059999D03*
X127999999Y-90059999D03*
X128799999Y-90059999D03*
X129599999Y-90059999D03*
X130399999Y-90059999D03*
X131199999Y-90059999D03*
X131999999Y-90059999D03*
X132799999Y-90059999D03*
X133599999Y-90059999D03*
X134399999Y-90059999D03*
X135199999Y-90059999D03*
X135999999Y-90059999D03*
X136799999Y-90059999D03*
X137599999Y-90059999D03*
X138399999Y-90059999D03*
X139199999Y-90059999D03*
X139999999Y-90059999D03*
X140799999Y-90059999D03*
X141599999Y-90059999D03*
X142399999Y-90059999D03*
X143199999Y-90059999D03*
X143999999Y-90059999D03*
X144799999Y-90059999D03*
X145599999Y-90059999D03*
X146399999Y-90059999D03*
X147199999Y-90059999D03*
X147999999Y-90059999D03*
X148799999Y-90059999D03*
X149599999Y-90059999D03*
D16*
X105499999Y-90199999D03*
X154499999Y-90199999D03*
%TD*%
D14*
%TO.C,J7*%
X107890000Y-123000000D03*
D15*
X110399999Y-121059999D03*
X111199999Y-121059999D03*
X111999999Y-121059999D03*
X112799999Y-121059999D03*
X113599999Y-121059999D03*
X114399999Y-121059999D03*
X115199999Y-121059999D03*
X115999999Y-121059999D03*
X116799999Y-121059999D03*
X117599999Y-121059999D03*
X118399999Y-121059999D03*
X119199999Y-121059999D03*
X119999999Y-121059999D03*
X120799999Y-121059999D03*
X121599999Y-121059999D03*
X122399999Y-121059999D03*
X123199999Y-121059999D03*
X123999999Y-121059999D03*
X124799999Y-121059999D03*
X125599999Y-121059999D03*
X126399999Y-121059999D03*
X127199999Y-121059999D03*
X127999999Y-121059999D03*
X128799999Y-121059999D03*
X129599999Y-121059999D03*
X130399999Y-121059999D03*
X131199999Y-121059999D03*
X131999999Y-121059999D03*
X132799999Y-121059999D03*
X133599999Y-121059999D03*
X134399999Y-121059999D03*
X135199999Y-121059999D03*
X135999999Y-121059999D03*
X136799999Y-121059999D03*
X137599999Y-121059999D03*
X138399999Y-121059999D03*
X139199999Y-121059999D03*
X139999999Y-121059999D03*
X140799999Y-121059999D03*
X141599999Y-121059999D03*
X142399999Y-121059999D03*
X143199999Y-121059999D03*
X143999999Y-121059999D03*
X144799999Y-121059999D03*
X145599999Y-121059999D03*
X146399999Y-121059999D03*
X147199999Y-121059999D03*
X147999999Y-121059999D03*
X148799999Y-121059999D03*
X149599999Y-121059999D03*
D16*
X105499999Y-121199999D03*
X154499999Y-121199999D03*
%TD*%
D14*
%TO.C,J7*%
X267890000Y-92000000D03*
D15*
X270399999Y-90059999D03*
X271199999Y-90059999D03*
X271999999Y-90059999D03*
X272799999Y-90059999D03*
X273599999Y-90059999D03*
X274399999Y-90059999D03*
X275199999Y-90059999D03*
X275999999Y-90059999D03*
X276799999Y-90059999D03*
X277599999Y-90059999D03*
X278399999Y-90059999D03*
X279199999Y-90059999D03*
X279999999Y-90059999D03*
X280799999Y-90059999D03*
X281599999Y-90059999D03*
X282399999Y-90059999D03*
X283199999Y-90059999D03*
X283999999Y-90059999D03*
X284799999Y-90059999D03*
X285599999Y-90059999D03*
X286399999Y-90059999D03*
X287199999Y-90059999D03*
X287999999Y-90059999D03*
X288799999Y-90059999D03*
X289599999Y-90059999D03*
X290399999Y-90059999D03*
X291199999Y-90059999D03*
X291999999Y-90059999D03*
X292799999Y-90059999D03*
X293599999Y-90059999D03*
X294399999Y-90059999D03*
X295199999Y-90059999D03*
X295999999Y-90059999D03*
X296799999Y-90059999D03*
X297599999Y-90059999D03*
X298399999Y-90059999D03*
X299199999Y-90059999D03*
X299999999Y-90059999D03*
X300799999Y-90059999D03*
X301599999Y-90059999D03*
X302399999Y-90059999D03*
X303199999Y-90059999D03*
X303999999Y-90059999D03*
X304799999Y-90059999D03*
X305599999Y-90059999D03*
X306399999Y-90059999D03*
X307199999Y-90059999D03*
X307999999Y-90059999D03*
X308799999Y-90059999D03*
X309599999Y-90059999D03*
D16*
X265499999Y-90199999D03*
X314499999Y-90199999D03*
%TD*%
D14*
%TO.C,J7*%
X267890000Y-154000000D03*
D15*
X270399999Y-152059999D03*
X271199999Y-152059999D03*
X271999999Y-152059999D03*
X272799999Y-152059999D03*
X273599999Y-152059999D03*
X274399999Y-152059999D03*
X275199999Y-152059999D03*
X275999999Y-152059999D03*
X276799999Y-152059999D03*
X277599999Y-152059999D03*
X278399999Y-152059999D03*
X279199999Y-152059999D03*
X279999999Y-152059999D03*
X280799999Y-152059999D03*
X281599999Y-152059999D03*
X282399999Y-152059999D03*
X283199999Y-152059999D03*
X283999999Y-152059999D03*
X284799999Y-152059999D03*
X285599999Y-152059999D03*
X286399999Y-152059999D03*
X287199999Y-152059999D03*
X287999999Y-152059999D03*
X288799999Y-152059999D03*
X289599999Y-152059999D03*
X290399999Y-152059999D03*
X291199999Y-152059999D03*
X291999999Y-152059999D03*
X292799999Y-152059999D03*
X293599999Y-152059999D03*
X294399999Y-152059999D03*
X295199999Y-152059999D03*
X295999999Y-152059999D03*
X296799999Y-152059999D03*
X297599999Y-152059999D03*
X298399999Y-152059999D03*
X299199999Y-152059999D03*
X299999999Y-152059999D03*
X300799999Y-152059999D03*
X301599999Y-152059999D03*
X302399999Y-152059999D03*
X303199999Y-152059999D03*
X303999999Y-152059999D03*
X304799999Y-152059999D03*
X305599999Y-152059999D03*
X306399999Y-152059999D03*
X307199999Y-152059999D03*
X307999999Y-152059999D03*
X308799999Y-152059999D03*
X309599999Y-152059999D03*
D16*
X265499999Y-152199999D03*
X314499999Y-152199999D03*
%TD*%
D14*
%TO.C,J7*%
X267890000Y-123000000D03*
D15*
X270399999Y-121059999D03*
X271199999Y-121059999D03*
X271999999Y-121059999D03*
X272799999Y-121059999D03*
X273599999Y-121059999D03*
X274399999Y-121059999D03*
X275199999Y-121059999D03*
X275999999Y-121059999D03*
X276799999Y-121059999D03*
X277599999Y-121059999D03*
X278399999Y-121059999D03*
X279199999Y-121059999D03*
X279999999Y-121059999D03*
X280799999Y-121059999D03*
X281599999Y-121059999D03*
X282399999Y-121059999D03*
X283199999Y-121059999D03*
X283999999Y-121059999D03*
X284799999Y-121059999D03*
X285599999Y-121059999D03*
X286399999Y-121059999D03*
X287199999Y-121059999D03*
X287999999Y-121059999D03*
X288799999Y-121059999D03*
X289599999Y-121059999D03*
X290399999Y-121059999D03*
X291199999Y-121059999D03*
X291999999Y-121059999D03*
X292799999Y-121059999D03*
X293599999Y-121059999D03*
X294399999Y-121059999D03*
X295199999Y-121059999D03*
X295999999Y-121059999D03*
X296799999Y-121059999D03*
X297599999Y-121059999D03*
X298399999Y-121059999D03*
X299199999Y-121059999D03*
X299999999Y-121059999D03*
X300799999Y-121059999D03*
X301599999Y-121059999D03*
X302399999Y-121059999D03*
X303199999Y-121059999D03*
X303999999Y-121059999D03*
X304799999Y-121059999D03*
X305599999Y-121059999D03*
X306399999Y-121059999D03*
X307199999Y-121059999D03*
X307999999Y-121059999D03*
X308799999Y-121059999D03*
X309599999Y-121059999D03*
D16*
X265499999Y-121199999D03*
X314499999Y-121199999D03*
%TD*%
D11*
%TO.C,J6*%
X349530000Y-207600000D03*
D12*
X341280000Y-200040000D03*
D13*
X341280000Y-206820000D03*
X357780000Y-206820000D03*
D12*
X357780000Y-200040000D03*
%TD*%
D11*
%TO.C,J6*%
X349530000Y-145600000D03*
D12*
X341280000Y-138040000D03*
D13*
X341280000Y-144820000D03*
X357780000Y-144820000D03*
D12*
X357780000Y-138040000D03*
%TD*%
D11*
%TO.C,J6*%
X189530000Y-145600000D03*
D12*
X181280000Y-138040000D03*
D13*
X181280000Y-144820000D03*
X197780000Y-144820000D03*
D12*
X197780000Y-138040000D03*
%TD*%
D11*
%TO.C,J6*%
X189530000Y-207600000D03*
D12*
X181280000Y-200040000D03*
D13*
X181280000Y-206820000D03*
X197780000Y-206820000D03*
D12*
X197780000Y-200040000D03*
%TD*%
D11*
%TO.C,J6*%
X189530000Y-114600000D03*
D12*
X181280000Y-107040000D03*
D13*
X181280000Y-113820000D03*
X197780000Y-113820000D03*
D12*
X197780000Y-107040000D03*
%TD*%
D11*
%TO.C,J6*%
X189530000Y-176600000D03*
D12*
X181280000Y-169040000D03*
D13*
X181280000Y-175820000D03*
X197780000Y-175820000D03*
D12*
X197780000Y-169040000D03*
%TD*%
D11*
%TO.C,J6*%
X349530000Y-114600000D03*
D12*
X341280000Y-107040000D03*
D13*
X341280000Y-113820000D03*
X357780000Y-113820000D03*
D12*
X357780000Y-107040000D03*
%TD*%
D11*
%TO.C,J6*%
X349530000Y-176600000D03*
D12*
X341280000Y-169040000D03*
D13*
X341280000Y-175820000D03*
X357780000Y-175820000D03*
D12*
X357780000Y-169040000D03*
%TD*%
D10*
%TO.C,*%
X214120000Y-122670000D03*
%TD*%
%TO.C,*%
X214120000Y-153670000D03*
%TD*%
%TO.C,*%
X54120000Y-184670000D03*
%TD*%
%TO.C,*%
X214120000Y-91670000D03*
%TD*%
%TO.C,*%
X214120000Y-184670000D03*
%TD*%
%TO.C,*%
X54120000Y-91670000D03*
%TD*%
%TO.C,*%
X54120000Y-122670000D03*
%TD*%
%TO.C,*%
X54120000Y-153670000D03*
%TD*%
D11*
%TO.C,J5*%
X165632000Y-114600000D03*
D12*
X157382000Y-107040000D03*
D13*
X157382000Y-113820000D03*
X173882000Y-113820000D03*
D12*
X173882000Y-107040000D03*
%TD*%
D11*
%TO.C,J5*%
X325632000Y-176600000D03*
D12*
X317382000Y-169040000D03*
D13*
X317382000Y-175820000D03*
X333882000Y-175820000D03*
D12*
X333882000Y-169040000D03*
%TD*%
D11*
%TO.C,J5*%
X325632000Y-114600000D03*
D12*
X317382000Y-107040000D03*
D13*
X317382000Y-113820000D03*
X333882000Y-113820000D03*
D12*
X333882000Y-107040000D03*
%TD*%
D11*
%TO.C,J5*%
X325632000Y-207600000D03*
D12*
X317382000Y-200040000D03*
D13*
X317382000Y-206820000D03*
X333882000Y-206820000D03*
D12*
X333882000Y-200040000D03*
%TD*%
D11*
%TO.C,J5*%
X165632000Y-176600000D03*
D12*
X157382000Y-169040000D03*
D13*
X157382000Y-175820000D03*
X173882000Y-175820000D03*
D12*
X173882000Y-169040000D03*
%TD*%
D11*
%TO.C,J5*%
X325632000Y-145600000D03*
D12*
X317382000Y-138040000D03*
D13*
X317382000Y-144820000D03*
X333882000Y-144820000D03*
D12*
X333882000Y-138040000D03*
%TD*%
D11*
%TO.C,J5*%
X165632000Y-145600000D03*
D12*
X157382000Y-138040000D03*
D13*
X157382000Y-144820000D03*
X173882000Y-144820000D03*
D12*
X173882000Y-138040000D03*
%TD*%
D11*
%TO.C,J5*%
X165632000Y-207600000D03*
D12*
X157382000Y-200040000D03*
D13*
X157382000Y-206820000D03*
X173882000Y-206820000D03*
D12*
X173882000Y-200040000D03*
%TD*%
D11*
%TO.C,J3*%
X117836000Y-114600000D03*
D12*
X109586000Y-107040000D03*
D13*
X109586000Y-113820000D03*
X126086000Y-113820000D03*
D12*
X126086000Y-107040000D03*
%TD*%
D11*
%TO.C,J3*%
X117836000Y-176600000D03*
D12*
X109586000Y-169040000D03*
D13*
X109586000Y-175820000D03*
X126086000Y-175820000D03*
D12*
X126086000Y-169040000D03*
%TD*%
D11*
%TO.C,J3*%
X277836000Y-145600000D03*
D12*
X269586000Y-138040000D03*
D13*
X269586000Y-144820000D03*
X286086000Y-144820000D03*
D12*
X286086000Y-138040000D03*
%TD*%
D11*
%TO.C,J3*%
X117836000Y-145600000D03*
D12*
X109586000Y-138040000D03*
D13*
X109586000Y-144820000D03*
X126086000Y-144820000D03*
D12*
X126086000Y-138040000D03*
%TD*%
D11*
%TO.C,J3*%
X277836000Y-114600000D03*
D12*
X269586000Y-107040000D03*
D13*
X269586000Y-113820000D03*
X286086000Y-113820000D03*
D12*
X286086000Y-107040000D03*
%TD*%
D11*
%TO.C,J3*%
X117836000Y-207600000D03*
D12*
X109586000Y-200040000D03*
D13*
X109586000Y-206820000D03*
X126086000Y-206820000D03*
D12*
X126086000Y-200040000D03*
%TD*%
D11*
%TO.C,J3*%
X277836000Y-176600000D03*
D12*
X269586000Y-169040000D03*
D13*
X269586000Y-175820000D03*
X286086000Y-175820000D03*
D12*
X286086000Y-169040000D03*
%TD*%
D11*
%TO.C,J3*%
X277836000Y-207600000D03*
D12*
X269586000Y-200040000D03*
D13*
X269586000Y-206820000D03*
X286086000Y-206820000D03*
D12*
X286086000Y-200040000D03*
%TD*%
D10*
%TO.C,*%
X366120000Y-177670000D03*
%TD*%
%TO.C,*%
X206120000Y-115670000D03*
%TD*%
%TO.C,*%
X206120000Y-146670000D03*
%TD*%
%TO.C,*%
X366120000Y-146670000D03*
%TD*%
%TO.C,*%
X366120000Y-115670000D03*
%TD*%
%TO.C,*%
X366120000Y-208670000D03*
%TD*%
%TO.C,*%
X206120000Y-177670000D03*
%TD*%
%TO.C,*%
X206120000Y-208670000D03*
%TD*%
D11*
%TO.C,J1*%
X70040000Y-145600000D03*
D12*
X61790000Y-138040000D03*
D13*
X61790000Y-144820000D03*
X78290000Y-144820000D03*
D12*
X78290000Y-138040000D03*
%TD*%
D11*
%TO.C,J1*%
X230040000Y-114600000D03*
D12*
X221790000Y-107040000D03*
D13*
X221790000Y-113820000D03*
X238290000Y-113820000D03*
D12*
X238290000Y-107040000D03*
%TD*%
D11*
%TO.C,J1*%
X230040000Y-207600000D03*
D12*
X221790000Y-200040000D03*
D13*
X221790000Y-206820000D03*
X238290000Y-206820000D03*
D12*
X238290000Y-200040000D03*
%TD*%
D11*
%TO.C,J1*%
X70040000Y-114600000D03*
D12*
X61790000Y-107040000D03*
D13*
X61790000Y-113820000D03*
X78290000Y-113820000D03*
D12*
X78290000Y-107040000D03*
%TD*%
D11*
%TO.C,J1*%
X230040000Y-145600000D03*
D12*
X221790000Y-138040000D03*
D13*
X221790000Y-144820000D03*
X238290000Y-144820000D03*
D12*
X238290000Y-138040000D03*
%TD*%
D11*
%TO.C,J1*%
X230040000Y-176600000D03*
D12*
X221790000Y-169040000D03*
D13*
X221790000Y-175820000D03*
X238290000Y-175820000D03*
D12*
X238290000Y-169040000D03*
%TD*%
D11*
%TO.C,J1*%
X70040000Y-207600000D03*
D12*
X61790000Y-200040000D03*
D13*
X61790000Y-206820000D03*
X78290000Y-206820000D03*
D12*
X78290000Y-200040000D03*
%TD*%
D11*
%TO.C,J1*%
X70040000Y-176600000D03*
D12*
X61790000Y-169040000D03*
D13*
X61790000Y-175820000D03*
X78290000Y-175820000D03*
D12*
X78290000Y-169040000D03*
%TD*%
D10*
%TO.C,*%
X366120000Y-91670000D03*
%TD*%
%TO.C,*%
X366120000Y-184670000D03*
%TD*%
%TO.C,*%
X206120000Y-153670000D03*
%TD*%
%TO.C,*%
X366120000Y-153670000D03*
%TD*%
%TO.C,*%
X206120000Y-91670000D03*
%TD*%
%TO.C,*%
X206120000Y-184670000D03*
%TD*%
%TO.C,*%
X206120000Y-122670000D03*
%TD*%
%TO.C,*%
X366120000Y-122670000D03*
%TD*%
D17*
%TO.C,REF_Bottom*%
X208436000Y-120467000D03*
%TD*%
%TO.C,REF_Bottom*%
X368436000Y-182467000D03*
%TD*%
%TO.C,REF_Bottom*%
X208436000Y-89467000D03*
%TD*%
%TO.C,REF_Bottom*%
X368436000Y-120467000D03*
%TD*%
%TO.C,REF_Bottom*%
X368436000Y-151467000D03*
%TD*%
%TO.C,REF_Bottom*%
X368436000Y-89467000D03*
%TD*%
%TO.C,REF_Bottom*%
X208436000Y-182467000D03*
%TD*%
%TO.C,REF_Bottom*%
X208436000Y-151467000D03*
%TD*%
D18*
%TO.C,C12*%
X199280000Y-177720000D03*
X199280000Y-179620000D03*
%TD*%
%TO.C,C12*%
X359280000Y-177720000D03*
X359280000Y-179620000D03*
%TD*%
%TO.C,C12*%
X199280000Y-115720000D03*
X199280000Y-117620000D03*
%TD*%
%TO.C,C12*%
X199280000Y-208720000D03*
X199280000Y-210620000D03*
%TD*%
%TO.C,C12*%
X359280000Y-208720000D03*
X359280000Y-210620000D03*
%TD*%
%TO.C,C12*%
X359280000Y-115720000D03*
X359280000Y-117620000D03*
%TD*%
%TO.C,C12*%
X199280000Y-146720000D03*
X199280000Y-148620000D03*
%TD*%
%TO.C,C12*%
X359280000Y-146720000D03*
X359280000Y-148620000D03*
%TD*%
D17*
%TO.C,REF\u002A\u002A*%
X47500000Y-214500000D03*
%TD*%
D19*
%TO.C,R3*%
X111086000Y-208757500D03*
X111086000Y-210582500D03*
%TD*%
%TO.C,R3*%
X271086000Y-208757500D03*
X271086000Y-210582500D03*
%TD*%
%TO.C,R3*%
X271086000Y-177757500D03*
X271086000Y-179582500D03*
%TD*%
%TO.C,R3*%
X271086000Y-146757500D03*
X271086000Y-148582500D03*
%TD*%
%TO.C,R3*%
X271086000Y-115757500D03*
X271086000Y-117582500D03*
%TD*%
%TO.C,R3*%
X111086000Y-115757500D03*
X111086000Y-117582500D03*
%TD*%
%TO.C,R3*%
X111086000Y-177757500D03*
X111086000Y-179582500D03*
%TD*%
%TO.C,R3*%
X111086000Y-146757500D03*
X111086000Y-148582500D03*
%TD*%
%TO.C,R6*%
X356280000Y-115757500D03*
X356280000Y-117582500D03*
%TD*%
%TO.C,R6*%
X356280000Y-146757500D03*
X356280000Y-148582500D03*
%TD*%
%TO.C,R6*%
X196280000Y-146757500D03*
X196280000Y-148582500D03*
%TD*%
%TO.C,R6*%
X196280000Y-208757500D03*
X196280000Y-210582500D03*
%TD*%
%TO.C,R6*%
X356280000Y-177757500D03*
X356280000Y-179582500D03*
%TD*%
%TO.C,R6*%
X196280000Y-115757500D03*
X196280000Y-117582500D03*
%TD*%
%TO.C,R6*%
X196280000Y-177757500D03*
X196280000Y-179582500D03*
%TD*%
%TO.C,R6*%
X356280000Y-208757500D03*
X356280000Y-210582500D03*
%TD*%
%TO.C,R4*%
X308484000Y-177757500D03*
X308484000Y-179582500D03*
%TD*%
%TO.C,R4*%
X148484000Y-146757500D03*
X148484000Y-148582500D03*
%TD*%
%TO.C,R4*%
X308484000Y-115757500D03*
X308484000Y-117582500D03*
%TD*%
%TO.C,R4*%
X148484000Y-177757500D03*
X148484000Y-179582500D03*
%TD*%
%TO.C,R4*%
X308484000Y-146757500D03*
X308484000Y-148582500D03*
%TD*%
%TO.C,R4*%
X308484000Y-208757500D03*
X308484000Y-210582500D03*
%TD*%
%TO.C,R4*%
X148484000Y-208757500D03*
X148484000Y-210582500D03*
%TD*%
%TO.C,R4*%
X148484000Y-115757500D03*
X148484000Y-117582500D03*
%TD*%
D17*
%TO.C,REF\u002A\u002A*%
X372500000Y-85500000D03*
%TD*%
%TO.C,REF_Bottom*%
X51489000Y-148481000D03*
%TD*%
%TO.C,REF_Bottom*%
X211489000Y-179481000D03*
%TD*%
%TO.C,REF_Bottom*%
X211489000Y-117481000D03*
%TD*%
%TO.C,REF_Bottom*%
X51489000Y-210481000D03*
%TD*%
%TO.C,REF_Bottom*%
X211489000Y-210481000D03*
%TD*%
%TO.C,REF_Bottom*%
X51489000Y-179481000D03*
%TD*%
%TO.C,REF_Bottom*%
X51489000Y-117481000D03*
%TD*%
%TO.C,REF_Bottom*%
X211489000Y-148481000D03*
%TD*%
D19*
%TO.C,R2*%
X87186000Y-115757500D03*
X87186000Y-117582500D03*
%TD*%
%TO.C,R2*%
X247186000Y-115757500D03*
X247186000Y-117582500D03*
%TD*%
%TO.C,R2*%
X87186000Y-177757500D03*
X87186000Y-179582500D03*
%TD*%
%TO.C,R2*%
X247186000Y-146757500D03*
X247186000Y-148582500D03*
%TD*%
%TO.C,R2*%
X247186000Y-177757500D03*
X247186000Y-179582500D03*
%TD*%
%TO.C,R2*%
X87186000Y-208757500D03*
X87186000Y-210582500D03*
%TD*%
%TO.C,R2*%
X87186000Y-146757500D03*
X87186000Y-148582500D03*
%TD*%
%TO.C,R2*%
X247186000Y-208757500D03*
X247186000Y-210582500D03*
%TD*%
%TO.C,R1*%
X223290000Y-177757500D03*
X223290000Y-179582500D03*
%TD*%
%TO.C,R1*%
X223290000Y-146757500D03*
X223290000Y-148582500D03*
%TD*%
%TO.C,R1*%
X223290000Y-115757500D03*
X223290000Y-117582500D03*
%TD*%
%TO.C,R1*%
X63290000Y-177757500D03*
X63290000Y-179582500D03*
%TD*%
%TO.C,R1*%
X63290000Y-146757500D03*
X63290000Y-148582500D03*
%TD*%
%TO.C,R1*%
X63290000Y-115757500D03*
X63290000Y-117582500D03*
%TD*%
%TO.C,R1*%
X63290000Y-208757500D03*
X63290000Y-210582500D03*
%TD*%
%TO.C,R1*%
X223290000Y-208757500D03*
X223290000Y-210582500D03*
%TD*%
D18*
%TO.C,C8*%
X244127000Y-146720000D03*
X244127000Y-148620000D03*
%TD*%
%TO.C,C8*%
X244127000Y-115720000D03*
X244127000Y-117620000D03*
%TD*%
%TO.C,C8*%
X84127000Y-177720000D03*
X84127000Y-179620000D03*
%TD*%
%TO.C,C8*%
X84127000Y-208720000D03*
X84127000Y-210620000D03*
%TD*%
%TO.C,C8*%
X84127000Y-115720000D03*
X84127000Y-117620000D03*
%TD*%
%TO.C,C8*%
X244127000Y-177720000D03*
X244127000Y-179620000D03*
%TD*%
%TO.C,C8*%
X244127000Y-208720000D03*
X244127000Y-210620000D03*
%TD*%
%TO.C,C8*%
X84127000Y-146720000D03*
X84127000Y-148620000D03*
%TD*%
%TO.C,C7*%
X60290000Y-177720000D03*
X60290000Y-179620000D03*
%TD*%
%TO.C,C7*%
X60290000Y-146720000D03*
X60290000Y-148620000D03*
%TD*%
%TO.C,C7*%
X60290000Y-208720000D03*
X60290000Y-210620000D03*
%TD*%
%TO.C,C7*%
X220290000Y-177720000D03*
X220290000Y-179620000D03*
%TD*%
%TO.C,C7*%
X220290000Y-115720000D03*
X220290000Y-117620000D03*
%TD*%
%TO.C,C7*%
X220290000Y-146720000D03*
X220290000Y-148620000D03*
%TD*%
%TO.C,C7*%
X60290000Y-115720000D03*
X60290000Y-117620000D03*
%TD*%
%TO.C,C7*%
X220290000Y-208720000D03*
X220290000Y-210620000D03*
%TD*%
%TO.C,C9*%
X268086000Y-146720000D03*
X268086000Y-148620000D03*
%TD*%
%TO.C,C9*%
X108086000Y-177720000D03*
X108086000Y-179620000D03*
%TD*%
%TO.C,C9*%
X268086000Y-208720000D03*
X268086000Y-210620000D03*
%TD*%
%TO.C,C9*%
X108086000Y-115720000D03*
X108086000Y-117620000D03*
%TD*%
%TO.C,C9*%
X108086000Y-208720000D03*
X108086000Y-210620000D03*
%TD*%
%TO.C,C9*%
X108086000Y-146720000D03*
X108086000Y-148620000D03*
%TD*%
%TO.C,C9*%
X268086000Y-115720000D03*
X268086000Y-117620000D03*
%TD*%
%TO.C,C9*%
X268086000Y-177720000D03*
X268086000Y-179620000D03*
%TD*%
D19*
%TO.C,R5*%
X172382000Y-146757500D03*
X172382000Y-148582500D03*
%TD*%
%TO.C,R5*%
X172382000Y-115757500D03*
X172382000Y-117582500D03*
%TD*%
%TO.C,R5*%
X332382000Y-115757500D03*
X332382000Y-117582500D03*
%TD*%
%TO.C,R5*%
X332382000Y-177757500D03*
X332382000Y-179582500D03*
%TD*%
%TO.C,R5*%
X172382000Y-177757500D03*
X172382000Y-179582500D03*
%TD*%
%TO.C,R5*%
X172382000Y-208757500D03*
X172382000Y-210582500D03*
%TD*%
%TO.C,R5*%
X332382000Y-146757500D03*
X332382000Y-148582500D03*
%TD*%
%TO.C,R5*%
X332382000Y-208757500D03*
X332382000Y-210582500D03*
%TD*%
D17*
%TO.C,REF\u002A\u002A*%
X47500000Y-85500000D03*
%TD*%
D18*
%TO.C,C11*%
X335382000Y-115720000D03*
X335382000Y-117620000D03*
%TD*%
%TO.C,C11*%
X175382000Y-177720000D03*
X175382000Y-179620000D03*
%TD*%
%TO.C,C11*%
X175382000Y-208720000D03*
X175382000Y-210620000D03*
%TD*%
%TO.C,C11*%
X335382000Y-177720000D03*
X335382000Y-179620000D03*
%TD*%
%TO.C,C11*%
X175382000Y-146720000D03*
X175382000Y-148620000D03*
%TD*%
%TO.C,C11*%
X335382000Y-146720000D03*
X335382000Y-148620000D03*
%TD*%
%TO.C,C11*%
X175382000Y-115720000D03*
X175382000Y-117620000D03*
%TD*%
%TO.C,C11*%
X335382000Y-208720000D03*
X335382000Y-210620000D03*
%TD*%
%TO.C,C10*%
X151484000Y-115720000D03*
X151484000Y-117620000D03*
%TD*%
%TO.C,C10*%
X311484000Y-115720000D03*
X311484000Y-117620000D03*
%TD*%
%TO.C,C10*%
X311484000Y-146720000D03*
X311484000Y-148620000D03*
%TD*%
%TO.C,C10*%
X311484000Y-208720000D03*
X311484000Y-210620000D03*
%TD*%
%TO.C,C10*%
X151484000Y-208720000D03*
X151484000Y-210620000D03*
%TD*%
%TO.C,C10*%
X311484000Y-177720000D03*
X311484000Y-179620000D03*
%TD*%
%TO.C,C10*%
X151484000Y-146720000D03*
X151484000Y-148620000D03*
%TD*%
%TO.C,C10*%
X151484000Y-177720000D03*
X151484000Y-179620000D03*
%TD*%
M02*
