%TF.GenerationSoftware,KiCad,Pcbnew,(7.0.0)*%
%TF.CreationDate,2023-07-13T16:19:27+02:00*%
%TF.ProjectId,Panelization,50616e65-6c69-47a6-9174-696f6e2e6b69,V1*%
%TF.SameCoordinates,Original*%
%TF.FileFunction,Soldermask,Bot*%
%TF.FilePolarity,Negative*%
%FSLAX46Y46*%
G04 Gerber Fmt 4.6, Leading zero omitted, Abs format (unit mm)*
G04 Created by KiCad (PCBNEW (7.0.0)) date 2023-07-13 16:19:27*
%MOMM*%
%LPD*%
G01*
G04 APERTURE LIST*
G04 Aperture macros list*
%AMRoundRect*
0 Rectangle with rounded corners*
0 $1 Rounding radius*
0 $2 $3 $4 $5 $6 $7 $8 $9 X,Y pos of 4 corners*
0 Add a 4 corners polygon primitive as box body*
4,1,4,$2,$3,$4,$5,$6,$7,$8,$9,$2,$3,0*
0 Add four circle primitives for the rounded corners*
1,1,$1+$1,$2,$3*
1,1,$1+$1,$4,$5*
1,1,$1+$1,$6,$7*
1,1,$1+$1,$8,$9*
0 Add four rect primitives between the rounded corners*
20,1,$1+$1,$2,$3,$4,$5,0*
20,1,$1+$1,$4,$5,$6,$7,0*
20,1,$1+$1,$6,$7,$8,$9,0*
20,1,$1+$1,$8,$9,$2,$3,0*%
G04 Aperture macros list end*
%ADD10C,2.000000*%
%ADD11RoundRect,0.250000X-0.475000X0.250000X-0.475000X-0.250000X0.475000X-0.250000X0.475000X0.250000X0*%
%ADD12RoundRect,0.250000X-0.450000X0.262500X-0.450000X-0.262500X0.450000X-0.262500X0.450000X0.262500X0*%
%ADD13C,3.200000*%
%ADD14C,0.001000*%
%ADD15C,2.660000*%
%ADD16C,1.982000*%
%ADD17C,2.100000*%
%ADD18R,0.500000X1.480000*%
%ADD19R,1.500000X2.000000*%
%ADD20C,0.400000*%
%TA.AperFunction,Profile*%
%ADD21C,0.100000*%
%TD*%
%TA.AperFunction,Profile*%
%ADD22C,0.400000*%
%TD*%
G04 APERTURE END LIST*
D10*
%TO.C,REF\u002A\u002A*%
X372500000Y-90500000D03*
%TD*%
D11*
%TO.C,C10*%
X151484000Y-146720000D03*
X151484000Y-148620000D03*
%TD*%
%TO.C,C10*%
X311484000Y-208720000D03*
X311484000Y-210620000D03*
%TD*%
%TO.C,C10*%
X311484000Y-115720000D03*
X311484000Y-117620000D03*
%TD*%
%TO.C,C10*%
X151484000Y-208720000D03*
X151484000Y-210620000D03*
%TD*%
%TO.C,C10*%
X311484000Y-177720000D03*
X311484000Y-179620000D03*
%TD*%
%TO.C,C10*%
X151484000Y-115720000D03*
X151484000Y-117620000D03*
%TD*%
%TO.C,C10*%
X151484000Y-177720000D03*
X151484000Y-179620000D03*
%TD*%
%TO.C,C10*%
X311484000Y-146720000D03*
X311484000Y-148620000D03*
%TD*%
D10*
%TO.C,REF\u002A\u002A*%
X47500000Y-90500000D03*
%TD*%
D11*
%TO.C,C11*%
X335382000Y-208720000D03*
X335382000Y-210620000D03*
%TD*%
%TO.C,C11*%
X335382000Y-115720000D03*
X335382000Y-117620000D03*
%TD*%
%TO.C,C11*%
X175382000Y-146720000D03*
X175382000Y-148620000D03*
%TD*%
%TO.C,C11*%
X335382000Y-177720000D03*
X335382000Y-179620000D03*
%TD*%
%TO.C,C11*%
X335382000Y-146720000D03*
X335382000Y-148620000D03*
%TD*%
%TO.C,C11*%
X175382000Y-115720000D03*
X175382000Y-117620000D03*
%TD*%
%TO.C,C11*%
X175382000Y-208720000D03*
X175382000Y-210620000D03*
%TD*%
%TO.C,C11*%
X175382000Y-177720000D03*
X175382000Y-179620000D03*
%TD*%
D12*
%TO.C,R5*%
X332382000Y-177757500D03*
X332382000Y-179582500D03*
%TD*%
%TO.C,R5*%
X172382000Y-146757500D03*
X172382000Y-148582500D03*
%TD*%
%TO.C,R5*%
X332382000Y-115757500D03*
X332382000Y-117582500D03*
%TD*%
%TO.C,R5*%
X172382000Y-115757500D03*
X172382000Y-117582500D03*
%TD*%
%TO.C,R5*%
X172382000Y-208757500D03*
X172382000Y-210582500D03*
%TD*%
%TO.C,R5*%
X332382000Y-146757500D03*
X332382000Y-148582500D03*
%TD*%
%TO.C,R5*%
X172382000Y-177757500D03*
X172382000Y-179582500D03*
%TD*%
%TO.C,R5*%
X332382000Y-208757500D03*
X332382000Y-210582500D03*
%TD*%
D11*
%TO.C,C9*%
X268086000Y-146720000D03*
X268086000Y-148620000D03*
%TD*%
%TO.C,C9*%
X268086000Y-208720000D03*
X268086000Y-210620000D03*
%TD*%
%TO.C,C9*%
X108086000Y-208720000D03*
X108086000Y-210620000D03*
%TD*%
%TO.C,C9*%
X268086000Y-177720000D03*
X268086000Y-179620000D03*
%TD*%
%TO.C,C9*%
X108086000Y-146720000D03*
X108086000Y-148620000D03*
%TD*%
%TO.C,C9*%
X268086000Y-115720000D03*
X268086000Y-117620000D03*
%TD*%
%TO.C,C9*%
X108086000Y-115720000D03*
X108086000Y-117620000D03*
%TD*%
%TO.C,C9*%
X108086000Y-177720000D03*
X108086000Y-179620000D03*
%TD*%
%TO.C,C7*%
X60290000Y-177720000D03*
X60290000Y-179620000D03*
%TD*%
%TO.C,C7*%
X220290000Y-208720000D03*
X220290000Y-210620000D03*
%TD*%
%TO.C,C7*%
X220290000Y-177720000D03*
X220290000Y-179620000D03*
%TD*%
%TO.C,C7*%
X220290000Y-146720000D03*
X220290000Y-148620000D03*
%TD*%
%TO.C,C7*%
X60290000Y-146720000D03*
X60290000Y-148620000D03*
%TD*%
%TO.C,C7*%
X60290000Y-115720000D03*
X60290000Y-117620000D03*
%TD*%
%TO.C,C7*%
X60290000Y-208720000D03*
X60290000Y-210620000D03*
%TD*%
%TO.C,C7*%
X220290000Y-115720000D03*
X220290000Y-117620000D03*
%TD*%
D10*
%TO.C,REF\u002A\u002A*%
X47500000Y-209500000D03*
%TD*%
D11*
%TO.C,C8*%
X84127000Y-146720000D03*
X84127000Y-148620000D03*
%TD*%
%TO.C,C8*%
X84127000Y-208720000D03*
X84127000Y-210620000D03*
%TD*%
%TO.C,C8*%
X244127000Y-177720000D03*
X244127000Y-179620000D03*
%TD*%
%TO.C,C8*%
X244127000Y-115720000D03*
X244127000Y-117620000D03*
%TD*%
%TO.C,C8*%
X84127000Y-115720000D03*
X84127000Y-117620000D03*
%TD*%
%TO.C,C8*%
X244127000Y-146720000D03*
X244127000Y-148620000D03*
%TD*%
%TO.C,C8*%
X84127000Y-177720000D03*
X84127000Y-179620000D03*
%TD*%
%TO.C,C8*%
X244127000Y-208720000D03*
X244127000Y-210620000D03*
%TD*%
D12*
%TO.C,R1*%
X223290000Y-177757500D03*
X223290000Y-179582500D03*
%TD*%
%TO.C,R1*%
X223290000Y-208757500D03*
X223290000Y-210582500D03*
%TD*%
%TO.C,R1*%
X223290000Y-146757500D03*
X223290000Y-148582500D03*
%TD*%
%TO.C,R1*%
X63290000Y-146757500D03*
X63290000Y-148582500D03*
%TD*%
%TO.C,R1*%
X223290000Y-115757500D03*
X223290000Y-117582500D03*
%TD*%
%TO.C,R1*%
X63290000Y-177757500D03*
X63290000Y-179582500D03*
%TD*%
%TO.C,R1*%
X63290000Y-208757500D03*
X63290000Y-210582500D03*
%TD*%
%TO.C,R1*%
X63290000Y-115757500D03*
X63290000Y-117582500D03*
%TD*%
%TO.C,R2*%
X87186000Y-115757500D03*
X87186000Y-117582500D03*
%TD*%
%TO.C,R2*%
X87186000Y-177757500D03*
X87186000Y-179582500D03*
%TD*%
%TO.C,R2*%
X247186000Y-208757500D03*
X247186000Y-210582500D03*
%TD*%
%TO.C,R2*%
X247186000Y-177757500D03*
X247186000Y-179582500D03*
%TD*%
%TO.C,R2*%
X87186000Y-208757500D03*
X87186000Y-210582500D03*
%TD*%
%TO.C,R2*%
X87186000Y-146757500D03*
X87186000Y-148582500D03*
%TD*%
%TO.C,R2*%
X247186000Y-115757500D03*
X247186000Y-117582500D03*
%TD*%
%TO.C,R2*%
X247186000Y-146757500D03*
X247186000Y-148582500D03*
%TD*%
D10*
%TO.C,REF_Bottom*%
X51489000Y-179481000D03*
%TD*%
%TO.C,REF_Bottom*%
X51489000Y-117481000D03*
%TD*%
%TO.C,REF_Bottom*%
X211489000Y-210481000D03*
%TD*%
%TO.C,REF_Bottom*%
X211489000Y-148481000D03*
%TD*%
%TO.C,REF_Bottom*%
X51489000Y-210481000D03*
%TD*%
%TO.C,REF_Bottom*%
X211489000Y-179481000D03*
%TD*%
%TO.C,REF_Bottom*%
X51489000Y-148481000D03*
%TD*%
%TO.C,REF_Bottom*%
X211489000Y-117481000D03*
%TD*%
D12*
%TO.C,R4*%
X148484000Y-115757500D03*
X148484000Y-117582500D03*
%TD*%
%TO.C,R4*%
X308484000Y-208757500D03*
X308484000Y-210582500D03*
%TD*%
%TO.C,R4*%
X148484000Y-146757500D03*
X148484000Y-148582500D03*
%TD*%
%TO.C,R4*%
X308484000Y-115757500D03*
X308484000Y-117582500D03*
%TD*%
%TO.C,R4*%
X308484000Y-177757500D03*
X308484000Y-179582500D03*
%TD*%
%TO.C,R4*%
X148484000Y-208757500D03*
X148484000Y-210582500D03*
%TD*%
%TO.C,R4*%
X308484000Y-146757500D03*
X308484000Y-148582500D03*
%TD*%
%TO.C,R4*%
X148484000Y-177757500D03*
X148484000Y-179582500D03*
%TD*%
%TO.C,R6*%
X356280000Y-208757500D03*
X356280000Y-210582500D03*
%TD*%
%TO.C,R6*%
X196280000Y-177757500D03*
X196280000Y-179582500D03*
%TD*%
%TO.C,R6*%
X356280000Y-115757500D03*
X356280000Y-117582500D03*
%TD*%
%TO.C,R6*%
X196280000Y-115757500D03*
X196280000Y-117582500D03*
%TD*%
%TO.C,R6*%
X196280000Y-146757500D03*
X196280000Y-148582500D03*
%TD*%
%TO.C,R6*%
X196280000Y-208757500D03*
X196280000Y-210582500D03*
%TD*%
%TO.C,R6*%
X356280000Y-177757500D03*
X356280000Y-179582500D03*
%TD*%
%TO.C,R6*%
X356280000Y-146757500D03*
X356280000Y-148582500D03*
%TD*%
%TO.C,R3*%
X111086000Y-208757500D03*
X111086000Y-210582500D03*
%TD*%
%TO.C,R3*%
X271086000Y-177757500D03*
X271086000Y-179582500D03*
%TD*%
%TO.C,R3*%
X111086000Y-177757500D03*
X111086000Y-179582500D03*
%TD*%
%TO.C,R3*%
X111086000Y-146757500D03*
X111086000Y-148582500D03*
%TD*%
%TO.C,R3*%
X271086000Y-146757500D03*
X271086000Y-148582500D03*
%TD*%
%TO.C,R3*%
X271086000Y-115757500D03*
X271086000Y-117582500D03*
%TD*%
%TO.C,R3*%
X271086000Y-208757500D03*
X271086000Y-210582500D03*
%TD*%
%TO.C,R3*%
X111086000Y-115757500D03*
X111086000Y-117582500D03*
%TD*%
D11*
%TO.C,C12*%
X199280000Y-146720000D03*
X199280000Y-148620000D03*
%TD*%
%TO.C,C12*%
X199280000Y-208720000D03*
X199280000Y-210620000D03*
%TD*%
%TO.C,C12*%
X199280000Y-177720000D03*
X199280000Y-179620000D03*
%TD*%
%TO.C,C12*%
X359280000Y-177720000D03*
X359280000Y-179620000D03*
%TD*%
%TO.C,C12*%
X199280000Y-115720000D03*
X199280000Y-117620000D03*
%TD*%
%TO.C,C12*%
X359280000Y-115720000D03*
X359280000Y-117620000D03*
%TD*%
%TO.C,C12*%
X359280000Y-146720000D03*
X359280000Y-148620000D03*
%TD*%
%TO.C,C12*%
X359280000Y-208720000D03*
X359280000Y-210620000D03*
%TD*%
D13*
%TO.C,*%
X206120000Y-184670000D03*
%TD*%
%TO.C,*%
X206120000Y-122670000D03*
%TD*%
%TO.C,*%
X366120000Y-184670000D03*
%TD*%
%TO.C,*%
X366120000Y-122670000D03*
%TD*%
%TO.C,*%
X366120000Y-153670000D03*
%TD*%
%TO.C,*%
X366120000Y-91670000D03*
%TD*%
%TO.C,*%
X206120000Y-91670000D03*
%TD*%
%TO.C,*%
X206120000Y-153670000D03*
%TD*%
D14*
%TO.C,J1*%
X70040000Y-176600000D03*
D15*
X61790000Y-169040000D03*
D16*
X61790000Y-175820000D03*
X78290000Y-175820000D03*
D15*
X78290000Y-169040000D03*
%TD*%
D14*
%TO.C,J1*%
X230040000Y-207600000D03*
D15*
X221790000Y-200040000D03*
D16*
X221790000Y-206820000D03*
X238290000Y-206820000D03*
D15*
X238290000Y-200040000D03*
%TD*%
D14*
%TO.C,J1*%
X70040000Y-207600000D03*
D15*
X61790000Y-200040000D03*
D16*
X61790000Y-206820000D03*
X78290000Y-206820000D03*
D15*
X78290000Y-200040000D03*
%TD*%
D14*
%TO.C,J1*%
X230040000Y-145600000D03*
D15*
X221790000Y-138040000D03*
D16*
X221790000Y-144820000D03*
X238290000Y-144820000D03*
D15*
X238290000Y-138040000D03*
%TD*%
D14*
%TO.C,J1*%
X70040000Y-145600000D03*
D15*
X61790000Y-138040000D03*
D16*
X61790000Y-144820000D03*
X78290000Y-144820000D03*
D15*
X78290000Y-138040000D03*
%TD*%
D14*
%TO.C,J1*%
X70040000Y-114600000D03*
D15*
X61790000Y-107040000D03*
D16*
X61790000Y-113820000D03*
X78290000Y-113820000D03*
D15*
X78290000Y-107040000D03*
%TD*%
D14*
%TO.C,J1*%
X230040000Y-176600000D03*
D15*
X221790000Y-169040000D03*
D16*
X221790000Y-175820000D03*
X238290000Y-175820000D03*
D15*
X238290000Y-169040000D03*
%TD*%
D14*
%TO.C,J1*%
X230040000Y-114600000D03*
D15*
X221790000Y-107040000D03*
D16*
X221790000Y-113820000D03*
X238290000Y-113820000D03*
D15*
X238290000Y-107040000D03*
%TD*%
D13*
%TO.C,*%
X366120000Y-177670000D03*
%TD*%
%TO.C,*%
X366120000Y-208670000D03*
%TD*%
%TO.C,*%
X206120000Y-177670000D03*
%TD*%
%TO.C,*%
X206120000Y-208670000D03*
%TD*%
%TO.C,*%
X366120000Y-115670000D03*
%TD*%
%TO.C,*%
X366120000Y-146670000D03*
%TD*%
%TO.C,*%
X206120000Y-146670000D03*
%TD*%
%TO.C,*%
X206120000Y-115670000D03*
%TD*%
D14*
%TO.C,J3*%
X117836000Y-207600000D03*
D15*
X109586000Y-200040000D03*
D16*
X109586000Y-206820000D03*
X126086000Y-206820000D03*
D15*
X126086000Y-200040000D03*
%TD*%
D14*
%TO.C,J3*%
X117836000Y-145600000D03*
D15*
X109586000Y-138040000D03*
D16*
X109586000Y-144820000D03*
X126086000Y-144820000D03*
D15*
X126086000Y-138040000D03*
%TD*%
D14*
%TO.C,J3*%
X277836000Y-114600000D03*
D15*
X269586000Y-107040000D03*
D16*
X269586000Y-113820000D03*
X286086000Y-113820000D03*
D15*
X286086000Y-107040000D03*
%TD*%
D14*
%TO.C,J3*%
X277836000Y-145600000D03*
D15*
X269586000Y-138040000D03*
D16*
X269586000Y-144820000D03*
X286086000Y-144820000D03*
D15*
X286086000Y-138040000D03*
%TD*%
D14*
%TO.C,J3*%
X277836000Y-176600000D03*
D15*
X269586000Y-169040000D03*
D16*
X269586000Y-175820000D03*
X286086000Y-175820000D03*
D15*
X286086000Y-169040000D03*
%TD*%
D14*
%TO.C,J3*%
X277836000Y-207600000D03*
D15*
X269586000Y-200040000D03*
D16*
X269586000Y-206820000D03*
X286086000Y-206820000D03*
D15*
X286086000Y-200040000D03*
%TD*%
D14*
%TO.C,J3*%
X117836000Y-176600000D03*
D15*
X109586000Y-169040000D03*
D16*
X109586000Y-175820000D03*
X126086000Y-175820000D03*
D15*
X126086000Y-169040000D03*
%TD*%
D14*
%TO.C,J3*%
X117836000Y-114600000D03*
D15*
X109586000Y-107040000D03*
D16*
X109586000Y-113820000D03*
X126086000Y-113820000D03*
D15*
X126086000Y-107040000D03*
%TD*%
D14*
%TO.C,J5*%
X325632000Y-176600000D03*
D15*
X317382000Y-169040000D03*
D16*
X317382000Y-175820000D03*
X333882000Y-175820000D03*
D15*
X333882000Y-169040000D03*
%TD*%
D14*
%TO.C,J5*%
X165632000Y-176600000D03*
D15*
X157382000Y-169040000D03*
D16*
X157382000Y-175820000D03*
X173882000Y-175820000D03*
D15*
X173882000Y-169040000D03*
%TD*%
D14*
%TO.C,J5*%
X325632000Y-114600000D03*
D15*
X317382000Y-107040000D03*
D16*
X317382000Y-113820000D03*
X333882000Y-113820000D03*
D15*
X333882000Y-107040000D03*
%TD*%
D14*
%TO.C,J5*%
X165632000Y-145600000D03*
D15*
X157382000Y-138040000D03*
D16*
X157382000Y-144820000D03*
X173882000Y-144820000D03*
D15*
X173882000Y-138040000D03*
%TD*%
D14*
%TO.C,J5*%
X325632000Y-145600000D03*
D15*
X317382000Y-138040000D03*
D16*
X317382000Y-144820000D03*
X333882000Y-144820000D03*
D15*
X333882000Y-138040000D03*
%TD*%
D14*
%TO.C,J5*%
X165632000Y-114600000D03*
D15*
X157382000Y-107040000D03*
D16*
X157382000Y-113820000D03*
X173882000Y-113820000D03*
D15*
X173882000Y-107040000D03*
%TD*%
D14*
%TO.C,J5*%
X165632000Y-207600000D03*
D15*
X157382000Y-200040000D03*
D16*
X157382000Y-206820000D03*
X173882000Y-206820000D03*
D15*
X173882000Y-200040000D03*
%TD*%
D14*
%TO.C,J5*%
X325632000Y-207600000D03*
D15*
X317382000Y-200040000D03*
D16*
X317382000Y-206820000D03*
X333882000Y-206820000D03*
D15*
X333882000Y-200040000D03*
%TD*%
D13*
%TO.C,*%
X54120000Y-122670000D03*
%TD*%
%TO.C,*%
X54120000Y-91670000D03*
%TD*%
%TO.C,*%
X214120000Y-184670000D03*
%TD*%
%TO.C,*%
X54120000Y-184670000D03*
%TD*%
%TO.C,*%
X214120000Y-153670000D03*
%TD*%
%TO.C,*%
X54120000Y-153670000D03*
%TD*%
%TO.C,*%
X214120000Y-122670000D03*
%TD*%
%TO.C,*%
X214120000Y-91670000D03*
%TD*%
D14*
%TO.C,J6*%
X349530000Y-207600000D03*
D15*
X341280000Y-200040000D03*
D16*
X341280000Y-206820000D03*
X357780000Y-206820000D03*
D15*
X357780000Y-200040000D03*
%TD*%
D14*
%TO.C,J6*%
X189530000Y-207600000D03*
D15*
X181280000Y-200040000D03*
D16*
X181280000Y-206820000D03*
X197780000Y-206820000D03*
D15*
X197780000Y-200040000D03*
%TD*%
D14*
%TO.C,J6*%
X189530000Y-176600000D03*
D15*
X181280000Y-169040000D03*
D16*
X181280000Y-175820000D03*
X197780000Y-175820000D03*
D15*
X197780000Y-169040000D03*
%TD*%
D14*
%TO.C,J6*%
X349530000Y-114600000D03*
D15*
X341280000Y-107040000D03*
D16*
X341280000Y-113820000D03*
X357780000Y-113820000D03*
D15*
X357780000Y-107040000D03*
%TD*%
D14*
%TO.C,J6*%
X189530000Y-145600000D03*
D15*
X181280000Y-138040000D03*
D16*
X181280000Y-144820000D03*
X197780000Y-144820000D03*
D15*
X197780000Y-138040000D03*
%TD*%
D14*
%TO.C,J6*%
X349530000Y-176600000D03*
D15*
X341280000Y-169040000D03*
D16*
X341280000Y-175820000D03*
X357780000Y-175820000D03*
D15*
X357780000Y-169040000D03*
%TD*%
D14*
%TO.C,J6*%
X189530000Y-114600000D03*
D15*
X181280000Y-107040000D03*
D16*
X181280000Y-113820000D03*
X197780000Y-113820000D03*
D15*
X197780000Y-107040000D03*
%TD*%
D14*
%TO.C,J6*%
X349530000Y-145600000D03*
D15*
X341280000Y-138040000D03*
D16*
X341280000Y-144820000D03*
X357780000Y-144820000D03*
D15*
X357780000Y-138040000D03*
%TD*%
D17*
%TO.C,J7*%
X267890000Y-123000000D03*
D18*
X270399999Y-121059999D03*
X271199999Y-121059999D03*
X271999999Y-121059999D03*
X272799999Y-121059999D03*
X273599999Y-121059999D03*
X274399999Y-121059999D03*
X275199999Y-121059999D03*
X275999999Y-121059999D03*
X276799999Y-121059999D03*
X277599999Y-121059999D03*
X278399999Y-121059999D03*
X279199999Y-121059999D03*
X279999999Y-121059999D03*
X280799999Y-121059999D03*
X281599999Y-121059999D03*
X282399999Y-121059999D03*
X283199999Y-121059999D03*
X283999999Y-121059999D03*
X284799999Y-121059999D03*
X285599999Y-121059999D03*
X286399999Y-121059999D03*
X287199999Y-121059999D03*
X287999999Y-121059999D03*
X288799999Y-121059999D03*
X289599999Y-121059999D03*
X290399999Y-121059999D03*
X291199999Y-121059999D03*
X291999999Y-121059999D03*
X292799999Y-121059999D03*
X293599999Y-121059999D03*
X294399999Y-121059999D03*
X295199999Y-121059999D03*
X295999999Y-121059999D03*
X296799999Y-121059999D03*
X297599999Y-121059999D03*
X298399999Y-121059999D03*
X299199999Y-121059999D03*
X299999999Y-121059999D03*
X300799999Y-121059999D03*
X301599999Y-121059999D03*
X302399999Y-121059999D03*
X303199999Y-121059999D03*
X303999999Y-121059999D03*
X304799999Y-121059999D03*
X305599999Y-121059999D03*
X306399999Y-121059999D03*
X307199999Y-121059999D03*
X307999999Y-121059999D03*
X308799999Y-121059999D03*
X309599999Y-121059999D03*
D19*
X265499999Y-121199999D03*
X314499999Y-121199999D03*
%TD*%
D17*
%TO.C,J7*%
X107890000Y-154000000D03*
D18*
X110399999Y-152059999D03*
X111199999Y-152059999D03*
X111999999Y-152059999D03*
X112799999Y-152059999D03*
X113599999Y-152059999D03*
X114399999Y-152059999D03*
X115199999Y-152059999D03*
X115999999Y-152059999D03*
X116799999Y-152059999D03*
X117599999Y-152059999D03*
X118399999Y-152059999D03*
X119199999Y-152059999D03*
X119999999Y-152059999D03*
X120799999Y-152059999D03*
X121599999Y-152059999D03*
X122399999Y-152059999D03*
X123199999Y-152059999D03*
X123999999Y-152059999D03*
X124799999Y-152059999D03*
X125599999Y-152059999D03*
X126399999Y-152059999D03*
X127199999Y-152059999D03*
X127999999Y-152059999D03*
X128799999Y-152059999D03*
X129599999Y-152059999D03*
X130399999Y-152059999D03*
X131199999Y-152059999D03*
X131999999Y-152059999D03*
X132799999Y-152059999D03*
X133599999Y-152059999D03*
X134399999Y-152059999D03*
X135199999Y-152059999D03*
X135999999Y-152059999D03*
X136799999Y-152059999D03*
X137599999Y-152059999D03*
X138399999Y-152059999D03*
X139199999Y-152059999D03*
X139999999Y-152059999D03*
X140799999Y-152059999D03*
X141599999Y-152059999D03*
X142399999Y-152059999D03*
X143199999Y-152059999D03*
X143999999Y-152059999D03*
X144799999Y-152059999D03*
X145599999Y-152059999D03*
X146399999Y-152059999D03*
X147199999Y-152059999D03*
X147999999Y-152059999D03*
X148799999Y-152059999D03*
X149599999Y-152059999D03*
D19*
X105499999Y-152199999D03*
X154499999Y-152199999D03*
%TD*%
D17*
%TO.C,J7*%
X107890000Y-185000000D03*
D18*
X110399999Y-183059999D03*
X111199999Y-183059999D03*
X111999999Y-183059999D03*
X112799999Y-183059999D03*
X113599999Y-183059999D03*
X114399999Y-183059999D03*
X115199999Y-183059999D03*
X115999999Y-183059999D03*
X116799999Y-183059999D03*
X117599999Y-183059999D03*
X118399999Y-183059999D03*
X119199999Y-183059999D03*
X119999999Y-183059999D03*
X120799999Y-183059999D03*
X121599999Y-183059999D03*
X122399999Y-183059999D03*
X123199999Y-183059999D03*
X123999999Y-183059999D03*
X124799999Y-183059999D03*
X125599999Y-183059999D03*
X126399999Y-183059999D03*
X127199999Y-183059999D03*
X127999999Y-183059999D03*
X128799999Y-183059999D03*
X129599999Y-183059999D03*
X130399999Y-183059999D03*
X131199999Y-183059999D03*
X131999999Y-183059999D03*
X132799999Y-183059999D03*
X133599999Y-183059999D03*
X134399999Y-183059999D03*
X135199999Y-183059999D03*
X135999999Y-183059999D03*
X136799999Y-183059999D03*
X137599999Y-183059999D03*
X138399999Y-183059999D03*
X139199999Y-183059999D03*
X139999999Y-183059999D03*
X140799999Y-183059999D03*
X141599999Y-183059999D03*
X142399999Y-183059999D03*
X143199999Y-183059999D03*
X143999999Y-183059999D03*
X144799999Y-183059999D03*
X145599999Y-183059999D03*
X146399999Y-183059999D03*
X147199999Y-183059999D03*
X147999999Y-183059999D03*
X148799999Y-183059999D03*
X149599999Y-183059999D03*
D19*
X105499999Y-183199999D03*
X154499999Y-183199999D03*
%TD*%
D17*
%TO.C,J7*%
X267890000Y-185000000D03*
D18*
X270399999Y-183059999D03*
X271199999Y-183059999D03*
X271999999Y-183059999D03*
X272799999Y-183059999D03*
X273599999Y-183059999D03*
X274399999Y-183059999D03*
X275199999Y-183059999D03*
X275999999Y-183059999D03*
X276799999Y-183059999D03*
X277599999Y-183059999D03*
X278399999Y-183059999D03*
X279199999Y-183059999D03*
X279999999Y-183059999D03*
X280799999Y-183059999D03*
X281599999Y-183059999D03*
X282399999Y-183059999D03*
X283199999Y-183059999D03*
X283999999Y-183059999D03*
X284799999Y-183059999D03*
X285599999Y-183059999D03*
X286399999Y-183059999D03*
X287199999Y-183059999D03*
X287999999Y-183059999D03*
X288799999Y-183059999D03*
X289599999Y-183059999D03*
X290399999Y-183059999D03*
X291199999Y-183059999D03*
X291999999Y-183059999D03*
X292799999Y-183059999D03*
X293599999Y-183059999D03*
X294399999Y-183059999D03*
X295199999Y-183059999D03*
X295999999Y-183059999D03*
X296799999Y-183059999D03*
X297599999Y-183059999D03*
X298399999Y-183059999D03*
X299199999Y-183059999D03*
X299999999Y-183059999D03*
X300799999Y-183059999D03*
X301599999Y-183059999D03*
X302399999Y-183059999D03*
X303199999Y-183059999D03*
X303999999Y-183059999D03*
X304799999Y-183059999D03*
X305599999Y-183059999D03*
X306399999Y-183059999D03*
X307199999Y-183059999D03*
X307999999Y-183059999D03*
X308799999Y-183059999D03*
X309599999Y-183059999D03*
D19*
X265499999Y-183199999D03*
X314499999Y-183199999D03*
%TD*%
D17*
%TO.C,J7*%
X107890000Y-92000000D03*
D18*
X110399999Y-90059999D03*
X111199999Y-90059999D03*
X111999999Y-90059999D03*
X112799999Y-90059999D03*
X113599999Y-90059999D03*
X114399999Y-90059999D03*
X115199999Y-90059999D03*
X115999999Y-90059999D03*
X116799999Y-90059999D03*
X117599999Y-90059999D03*
X118399999Y-90059999D03*
X119199999Y-90059999D03*
X119999999Y-90059999D03*
X120799999Y-90059999D03*
X121599999Y-90059999D03*
X122399999Y-90059999D03*
X123199999Y-90059999D03*
X123999999Y-90059999D03*
X124799999Y-90059999D03*
X125599999Y-90059999D03*
X126399999Y-90059999D03*
X127199999Y-90059999D03*
X127999999Y-90059999D03*
X128799999Y-90059999D03*
X129599999Y-90059999D03*
X130399999Y-90059999D03*
X131199999Y-90059999D03*
X131999999Y-90059999D03*
X132799999Y-90059999D03*
X133599999Y-90059999D03*
X134399999Y-90059999D03*
X135199999Y-90059999D03*
X135999999Y-90059999D03*
X136799999Y-90059999D03*
X137599999Y-90059999D03*
X138399999Y-90059999D03*
X139199999Y-90059999D03*
X139999999Y-90059999D03*
X140799999Y-90059999D03*
X141599999Y-90059999D03*
X142399999Y-90059999D03*
X143199999Y-90059999D03*
X143999999Y-90059999D03*
X144799999Y-90059999D03*
X145599999Y-90059999D03*
X146399999Y-90059999D03*
X147199999Y-90059999D03*
X147999999Y-90059999D03*
X148799999Y-90059999D03*
X149599999Y-90059999D03*
D19*
X105499999Y-90199999D03*
X154499999Y-90199999D03*
%TD*%
D17*
%TO.C,J7*%
X107890000Y-123000000D03*
D18*
X110399999Y-121059999D03*
X111199999Y-121059999D03*
X111999999Y-121059999D03*
X112799999Y-121059999D03*
X113599999Y-121059999D03*
X114399999Y-121059999D03*
X115199999Y-121059999D03*
X115999999Y-121059999D03*
X116799999Y-121059999D03*
X117599999Y-121059999D03*
X118399999Y-121059999D03*
X119199999Y-121059999D03*
X119999999Y-121059999D03*
X120799999Y-121059999D03*
X121599999Y-121059999D03*
X122399999Y-121059999D03*
X123199999Y-121059999D03*
X123999999Y-121059999D03*
X124799999Y-121059999D03*
X125599999Y-121059999D03*
X126399999Y-121059999D03*
X127199999Y-121059999D03*
X127999999Y-121059999D03*
X128799999Y-121059999D03*
X129599999Y-121059999D03*
X130399999Y-121059999D03*
X131199999Y-121059999D03*
X131999999Y-121059999D03*
X132799999Y-121059999D03*
X133599999Y-121059999D03*
X134399999Y-121059999D03*
X135199999Y-121059999D03*
X135999999Y-121059999D03*
X136799999Y-121059999D03*
X137599999Y-121059999D03*
X138399999Y-121059999D03*
X139199999Y-121059999D03*
X139999999Y-121059999D03*
X140799999Y-121059999D03*
X141599999Y-121059999D03*
X142399999Y-121059999D03*
X143199999Y-121059999D03*
X143999999Y-121059999D03*
X144799999Y-121059999D03*
X145599999Y-121059999D03*
X146399999Y-121059999D03*
X147199999Y-121059999D03*
X147999999Y-121059999D03*
X148799999Y-121059999D03*
X149599999Y-121059999D03*
D19*
X105499999Y-121199999D03*
X154499999Y-121199999D03*
%TD*%
D17*
%TO.C,J7*%
X267890000Y-154000000D03*
D18*
X270399999Y-152059999D03*
X271199999Y-152059999D03*
X271999999Y-152059999D03*
X272799999Y-152059999D03*
X273599999Y-152059999D03*
X274399999Y-152059999D03*
X275199999Y-152059999D03*
X275999999Y-152059999D03*
X276799999Y-152059999D03*
X277599999Y-152059999D03*
X278399999Y-152059999D03*
X279199999Y-152059999D03*
X279999999Y-152059999D03*
X280799999Y-152059999D03*
X281599999Y-152059999D03*
X282399999Y-152059999D03*
X283199999Y-152059999D03*
X283999999Y-152059999D03*
X284799999Y-152059999D03*
X285599999Y-152059999D03*
X286399999Y-152059999D03*
X287199999Y-152059999D03*
X287999999Y-152059999D03*
X288799999Y-152059999D03*
X289599999Y-152059999D03*
X290399999Y-152059999D03*
X291199999Y-152059999D03*
X291999999Y-152059999D03*
X292799999Y-152059999D03*
X293599999Y-152059999D03*
X294399999Y-152059999D03*
X295199999Y-152059999D03*
X295999999Y-152059999D03*
X296799999Y-152059999D03*
X297599999Y-152059999D03*
X298399999Y-152059999D03*
X299199999Y-152059999D03*
X299999999Y-152059999D03*
X300799999Y-152059999D03*
X301599999Y-152059999D03*
X302399999Y-152059999D03*
X303199999Y-152059999D03*
X303999999Y-152059999D03*
X304799999Y-152059999D03*
X305599999Y-152059999D03*
X306399999Y-152059999D03*
X307199999Y-152059999D03*
X307999999Y-152059999D03*
X308799999Y-152059999D03*
X309599999Y-152059999D03*
D19*
X265499999Y-152199999D03*
X314499999Y-152199999D03*
%TD*%
D17*
%TO.C,J7*%
X267890000Y-92000000D03*
D18*
X270399999Y-90059999D03*
X271199999Y-90059999D03*
X271999999Y-90059999D03*
X272799999Y-90059999D03*
X273599999Y-90059999D03*
X274399999Y-90059999D03*
X275199999Y-90059999D03*
X275999999Y-90059999D03*
X276799999Y-90059999D03*
X277599999Y-90059999D03*
X278399999Y-90059999D03*
X279199999Y-90059999D03*
X279999999Y-90059999D03*
X280799999Y-90059999D03*
X281599999Y-90059999D03*
X282399999Y-90059999D03*
X283199999Y-90059999D03*
X283999999Y-90059999D03*
X284799999Y-90059999D03*
X285599999Y-90059999D03*
X286399999Y-90059999D03*
X287199999Y-90059999D03*
X287999999Y-90059999D03*
X288799999Y-90059999D03*
X289599999Y-90059999D03*
X290399999Y-90059999D03*
X291199999Y-90059999D03*
X291999999Y-90059999D03*
X292799999Y-90059999D03*
X293599999Y-90059999D03*
X294399999Y-90059999D03*
X295199999Y-90059999D03*
X295999999Y-90059999D03*
X296799999Y-90059999D03*
X297599999Y-90059999D03*
X298399999Y-90059999D03*
X299199999Y-90059999D03*
X299999999Y-90059999D03*
X300799999Y-90059999D03*
X301599999Y-90059999D03*
X302399999Y-90059999D03*
X303199999Y-90059999D03*
X303999999Y-90059999D03*
X304799999Y-90059999D03*
X305599999Y-90059999D03*
X306399999Y-90059999D03*
X307199999Y-90059999D03*
X307999999Y-90059999D03*
X308799999Y-90059999D03*
X309599999Y-90059999D03*
D19*
X265499999Y-90199999D03*
X314499999Y-90199999D03*
%TD*%
D14*
%TO.C,J2*%
X93936000Y-176599000D03*
D15*
X85686000Y-169039000D03*
D16*
X85686000Y-175819000D03*
X102186000Y-175819000D03*
D15*
X102186000Y-169039000D03*
%TD*%
D14*
%TO.C,J2*%
X93936000Y-207599000D03*
D15*
X85686000Y-200039000D03*
D16*
X85686000Y-206819000D03*
X102186000Y-206819000D03*
D15*
X102186000Y-200039000D03*
%TD*%
D14*
%TO.C,J2*%
X253936000Y-176599000D03*
D15*
X245686000Y-169039000D03*
D16*
X245686000Y-175819000D03*
X262186000Y-175819000D03*
D15*
X262186000Y-169039000D03*
%TD*%
D14*
%TO.C,J2*%
X253936000Y-207599000D03*
D15*
X245686000Y-200039000D03*
D16*
X245686000Y-206819000D03*
X262186000Y-206819000D03*
D15*
X262186000Y-200039000D03*
%TD*%
D14*
%TO.C,J2*%
X253936000Y-145599000D03*
D15*
X245686000Y-138039000D03*
D16*
X245686000Y-144819000D03*
X262186000Y-144819000D03*
D15*
X262186000Y-138039000D03*
%TD*%
D14*
%TO.C,J2*%
X93936000Y-145599000D03*
D15*
X85686000Y-138039000D03*
D16*
X85686000Y-144819000D03*
X102186000Y-144819000D03*
D15*
X102186000Y-138039000D03*
%TD*%
D14*
%TO.C,J2*%
X93936000Y-114599000D03*
D15*
X85686000Y-107039000D03*
D16*
X85686000Y-113819000D03*
X102186000Y-113819000D03*
D15*
X102186000Y-107039000D03*
%TD*%
D14*
%TO.C,J2*%
X253936000Y-114599000D03*
D15*
X245686000Y-107039000D03*
D16*
X245686000Y-113819000D03*
X262186000Y-113819000D03*
D15*
X262186000Y-107039000D03*
%TD*%
D14*
%TO.C,J4*%
X141734000Y-176600000D03*
D15*
X133484000Y-169040000D03*
D16*
X133484000Y-175820000D03*
X149984000Y-175820000D03*
D15*
X149984000Y-169040000D03*
%TD*%
D14*
%TO.C,J4*%
X301734000Y-207600000D03*
D15*
X293484000Y-200040000D03*
D16*
X293484000Y-206820000D03*
X309984000Y-206820000D03*
D15*
X309984000Y-200040000D03*
%TD*%
D14*
%TO.C,J4*%
X301734000Y-114600000D03*
D15*
X293484000Y-107040000D03*
D16*
X293484000Y-113820000D03*
X309984000Y-113820000D03*
D15*
X309984000Y-107040000D03*
%TD*%
D14*
%TO.C,J4*%
X141734000Y-207600000D03*
D15*
X133484000Y-200040000D03*
D16*
X133484000Y-206820000D03*
X149984000Y-206820000D03*
D15*
X149984000Y-200040000D03*
%TD*%
D14*
%TO.C,J4*%
X301734000Y-176600000D03*
D15*
X293484000Y-169040000D03*
D16*
X293484000Y-175820000D03*
X309984000Y-175820000D03*
D15*
X309984000Y-169040000D03*
%TD*%
D14*
%TO.C,J4*%
X141734000Y-114600000D03*
D15*
X133484000Y-107040000D03*
D16*
X133484000Y-113820000D03*
X149984000Y-113820000D03*
D15*
X149984000Y-107040000D03*
%TD*%
D14*
%TO.C,J4*%
X301734000Y-145600000D03*
D15*
X293484000Y-138040000D03*
D16*
X293484000Y-144820000D03*
X309984000Y-144820000D03*
D15*
X309984000Y-138040000D03*
%TD*%
D14*
%TO.C,J4*%
X141734000Y-145600000D03*
D15*
X133484000Y-138040000D03*
D16*
X133484000Y-144820000D03*
X149984000Y-144820000D03*
D15*
X149984000Y-138040000D03*
%TD*%
D13*
%TO.C,*%
X54120000Y-115670000D03*
%TD*%
%TO.C,*%
X214120000Y-115670000D03*
%TD*%
%TO.C,*%
X214120000Y-208670000D03*
%TD*%
%TO.C,*%
X54120000Y-208670000D03*
%TD*%
%TO.C,*%
X54120000Y-177670000D03*
%TD*%
%TO.C,*%
X214120000Y-177670000D03*
%TD*%
%TO.C,*%
X54120000Y-146670000D03*
%TD*%
%TO.C,*%
X214120000Y-146670000D03*
%TD*%
D20*
X381190476Y-179734761D02*
X381857142Y-181734761D01*
X381857142Y-181734761D02*
X382523809Y-179734761D01*
X383190476Y-180972857D02*
X384714286Y-180972857D01*
X386809523Y-181544285D02*
X386714285Y-181639523D01*
X386714285Y-181639523D02*
X386428571Y-181734761D01*
X386428571Y-181734761D02*
X386238095Y-181734761D01*
X386238095Y-181734761D02*
X385952380Y-181639523D01*
X385952380Y-181639523D02*
X385761904Y-181449047D01*
X385761904Y-181449047D02*
X385666666Y-181258571D01*
X385666666Y-181258571D02*
X385571428Y-180877619D01*
X385571428Y-180877619D02*
X385571428Y-180591904D01*
X385571428Y-180591904D02*
X385666666Y-180210952D01*
X385666666Y-180210952D02*
X385761904Y-180020476D01*
X385761904Y-180020476D02*
X385952380Y-179830000D01*
X385952380Y-179830000D02*
X386238095Y-179734761D01*
X386238095Y-179734761D02*
X386428571Y-179734761D01*
X386428571Y-179734761D02*
X386714285Y-179830000D01*
X386714285Y-179830000D02*
X386809523Y-179925238D01*
X387666666Y-179734761D02*
X387666666Y-181353809D01*
X387666666Y-181353809D02*
X387761904Y-181544285D01*
X387761904Y-181544285D02*
X387857142Y-181639523D01*
X387857142Y-181639523D02*
X388047618Y-181734761D01*
X388047618Y-181734761D02*
X388428571Y-181734761D01*
X388428571Y-181734761D02*
X388619047Y-181639523D01*
X388619047Y-181639523D02*
X388714285Y-181544285D01*
X388714285Y-181544285D02*
X388809523Y-181353809D01*
X388809523Y-181353809D02*
X388809523Y-179734761D01*
X389476190Y-179734761D02*
X390619047Y-179734761D01*
X390047618Y-181734761D02*
X390047618Y-179734761D01*
X368734761Y-81809523D02*
X370734761Y-81142857D01*
X370734761Y-81142857D02*
X368734761Y-80476190D01*
X369972857Y-79809523D02*
X369972857Y-78285714D01*
X370544285Y-76190476D02*
X370639523Y-76285714D01*
X370639523Y-76285714D02*
X370734761Y-76571428D01*
X370734761Y-76571428D02*
X370734761Y-76761904D01*
X370734761Y-76761904D02*
X370639523Y-77047619D01*
X370639523Y-77047619D02*
X370449047Y-77238095D01*
X370449047Y-77238095D02*
X370258571Y-77333333D01*
X370258571Y-77333333D02*
X369877619Y-77428571D01*
X369877619Y-77428571D02*
X369591904Y-77428571D01*
X369591904Y-77428571D02*
X369210952Y-77333333D01*
X369210952Y-77333333D02*
X369020476Y-77238095D01*
X369020476Y-77238095D02*
X368830000Y-77047619D01*
X368830000Y-77047619D02*
X368734761Y-76761904D01*
X368734761Y-76761904D02*
X368734761Y-76571428D01*
X368734761Y-76571428D02*
X368830000Y-76285714D01*
X368830000Y-76285714D02*
X368925238Y-76190476D01*
X368734761Y-75333333D02*
X370353809Y-75333333D01*
X370353809Y-75333333D02*
X370544285Y-75238095D01*
X370544285Y-75238095D02*
X370639523Y-75142857D01*
X370639523Y-75142857D02*
X370734761Y-74952381D01*
X370734761Y-74952381D02*
X370734761Y-74571428D01*
X370734761Y-74571428D02*
X370639523Y-74380952D01*
X370639523Y-74380952D02*
X370544285Y-74285714D01*
X370544285Y-74285714D02*
X370353809Y-74190476D01*
X370353809Y-74190476D02*
X368734761Y-74190476D01*
X368734761Y-73523809D02*
X368734761Y-72380952D01*
X370734761Y-72952381D02*
X368734761Y-72952381D01*
X48734761Y-81809523D02*
X50734761Y-81142857D01*
X50734761Y-81142857D02*
X48734761Y-80476190D01*
X49972857Y-79809523D02*
X49972857Y-78285714D01*
X50544285Y-76190476D02*
X50639523Y-76285714D01*
X50639523Y-76285714D02*
X50734761Y-76571428D01*
X50734761Y-76571428D02*
X50734761Y-76761904D01*
X50734761Y-76761904D02*
X50639523Y-77047619D01*
X50639523Y-77047619D02*
X50449047Y-77238095D01*
X50449047Y-77238095D02*
X50258571Y-77333333D01*
X50258571Y-77333333D02*
X49877619Y-77428571D01*
X49877619Y-77428571D02*
X49591904Y-77428571D01*
X49591904Y-77428571D02*
X49210952Y-77333333D01*
X49210952Y-77333333D02*
X49020476Y-77238095D01*
X49020476Y-77238095D02*
X48830000Y-77047619D01*
X48830000Y-77047619D02*
X48734761Y-76761904D01*
X48734761Y-76761904D02*
X48734761Y-76571428D01*
X48734761Y-76571428D02*
X48830000Y-76285714D01*
X48830000Y-76285714D02*
X48925238Y-76190476D01*
X48734761Y-75333333D02*
X50353809Y-75333333D01*
X50353809Y-75333333D02*
X50544285Y-75238095D01*
X50544285Y-75238095D02*
X50639523Y-75142857D01*
X50639523Y-75142857D02*
X50734761Y-74952381D01*
X50734761Y-74952381D02*
X50734761Y-74571428D01*
X50734761Y-74571428D02*
X50639523Y-74380952D01*
X50639523Y-74380952D02*
X50544285Y-74285714D01*
X50544285Y-74285714D02*
X50353809Y-74190476D01*
X50353809Y-74190476D02*
X48734761Y-74190476D01*
X48734761Y-73523809D02*
X48734761Y-72380952D01*
X50734761Y-72952381D02*
X48734761Y-72952381D01*
X381190476Y-117734761D02*
X381857142Y-119734761D01*
X381857142Y-119734761D02*
X382523809Y-117734761D01*
X383190476Y-118972857D02*
X384714286Y-118972857D01*
X386809523Y-119544285D02*
X386714285Y-119639523D01*
X386714285Y-119639523D02*
X386428571Y-119734761D01*
X386428571Y-119734761D02*
X386238095Y-119734761D01*
X386238095Y-119734761D02*
X385952380Y-119639523D01*
X385952380Y-119639523D02*
X385761904Y-119449047D01*
X385761904Y-119449047D02*
X385666666Y-119258571D01*
X385666666Y-119258571D02*
X385571428Y-118877619D01*
X385571428Y-118877619D02*
X385571428Y-118591904D01*
X385571428Y-118591904D02*
X385666666Y-118210952D01*
X385666666Y-118210952D02*
X385761904Y-118020476D01*
X385761904Y-118020476D02*
X385952380Y-117830000D01*
X385952380Y-117830000D02*
X386238095Y-117734761D01*
X386238095Y-117734761D02*
X386428571Y-117734761D01*
X386428571Y-117734761D02*
X386714285Y-117830000D01*
X386714285Y-117830000D02*
X386809523Y-117925238D01*
X387666666Y-117734761D02*
X387666666Y-119353809D01*
X387666666Y-119353809D02*
X387761904Y-119544285D01*
X387761904Y-119544285D02*
X387857142Y-119639523D01*
X387857142Y-119639523D02*
X388047618Y-119734761D01*
X388047618Y-119734761D02*
X388428571Y-119734761D01*
X388428571Y-119734761D02*
X388619047Y-119639523D01*
X388619047Y-119639523D02*
X388714285Y-119544285D01*
X388714285Y-119544285D02*
X388809523Y-119353809D01*
X388809523Y-119353809D02*
X388809523Y-117734761D01*
X389476190Y-117734761D02*
X390619047Y-117734761D01*
X390047618Y-119734761D02*
X390047618Y-117734761D01*
X208734761Y-81809523D02*
X210734761Y-81142857D01*
X210734761Y-81142857D02*
X208734761Y-80476190D01*
X209972857Y-79809523D02*
X209972857Y-78285714D01*
X210544285Y-76190476D02*
X210639523Y-76285714D01*
X210639523Y-76285714D02*
X210734761Y-76571428D01*
X210734761Y-76571428D02*
X210734761Y-76761904D01*
X210734761Y-76761904D02*
X210639523Y-77047619D01*
X210639523Y-77047619D02*
X210449047Y-77238095D01*
X210449047Y-77238095D02*
X210258571Y-77333333D01*
X210258571Y-77333333D02*
X209877619Y-77428571D01*
X209877619Y-77428571D02*
X209591904Y-77428571D01*
X209591904Y-77428571D02*
X209210952Y-77333333D01*
X209210952Y-77333333D02*
X209020476Y-77238095D01*
X209020476Y-77238095D02*
X208830000Y-77047619D01*
X208830000Y-77047619D02*
X208734761Y-76761904D01*
X208734761Y-76761904D02*
X208734761Y-76571428D01*
X208734761Y-76571428D02*
X208830000Y-76285714D01*
X208830000Y-76285714D02*
X208925238Y-76190476D01*
X208734761Y-75333333D02*
X210353809Y-75333333D01*
X210353809Y-75333333D02*
X210544285Y-75238095D01*
X210544285Y-75238095D02*
X210639523Y-75142857D01*
X210639523Y-75142857D02*
X210734761Y-74952381D01*
X210734761Y-74952381D02*
X210734761Y-74571428D01*
X210734761Y-74571428D02*
X210639523Y-74380952D01*
X210639523Y-74380952D02*
X210544285Y-74285714D01*
X210544285Y-74285714D02*
X210353809Y-74190476D01*
X210353809Y-74190476D02*
X208734761Y-74190476D01*
X208734761Y-73523809D02*
X208734761Y-72380952D01*
X210734761Y-72952381D02*
X208734761Y-72952381D01*
X381190476Y-148734761D02*
X381857142Y-150734761D01*
X381857142Y-150734761D02*
X382523809Y-148734761D01*
X383190476Y-149972857D02*
X384714286Y-149972857D01*
X386809523Y-150544285D02*
X386714285Y-150639523D01*
X386714285Y-150639523D02*
X386428571Y-150734761D01*
X386428571Y-150734761D02*
X386238095Y-150734761D01*
X386238095Y-150734761D02*
X385952380Y-150639523D01*
X385952380Y-150639523D02*
X385761904Y-150449047D01*
X385761904Y-150449047D02*
X385666666Y-150258571D01*
X385666666Y-150258571D02*
X385571428Y-149877619D01*
X385571428Y-149877619D02*
X385571428Y-149591904D01*
X385571428Y-149591904D02*
X385666666Y-149210952D01*
X385666666Y-149210952D02*
X385761904Y-149020476D01*
X385761904Y-149020476D02*
X385952380Y-148830000D01*
X385952380Y-148830000D02*
X386238095Y-148734761D01*
X386238095Y-148734761D02*
X386428571Y-148734761D01*
X386428571Y-148734761D02*
X386714285Y-148830000D01*
X386714285Y-148830000D02*
X386809523Y-148925238D01*
X387666666Y-148734761D02*
X387666666Y-150353809D01*
X387666666Y-150353809D02*
X387761904Y-150544285D01*
X387761904Y-150544285D02*
X387857142Y-150639523D01*
X387857142Y-150639523D02*
X388047618Y-150734761D01*
X388047618Y-150734761D02*
X388428571Y-150734761D01*
X388428571Y-150734761D02*
X388619047Y-150639523D01*
X388619047Y-150639523D02*
X388714285Y-150544285D01*
X388714285Y-150544285D02*
X388809523Y-150353809D01*
X388809523Y-150353809D02*
X388809523Y-148734761D01*
X389476190Y-148734761D02*
X390619047Y-148734761D01*
X390047618Y-150734761D02*
X390047618Y-148734761D01*
D21*
X210000000Y-212000000D02*
X370000000Y-212000000D01*
X267666558Y-124087278D02*
X267611775Y-124074566D01*
X268168224Y-124074566D02*
X268113441Y-124087278D01*
X108524108Y-185911048D02*
X108477150Y-185941995D01*
X266948004Y-185587150D02*
X266919474Y-185538685D01*
X45000000Y-212000000D02*
X50000000Y-212000000D01*
X107890000Y-124109999D02*
X107833779Y-124108575D01*
X107047777Y-154723024D02*
X107012238Y-154679438D01*
X108428685Y-185970525D02*
X108378837Y-185996563D01*
X268222293Y-124059095D02*
X268168224Y-124074566D01*
X267946220Y-124108575D02*
X267890000Y-124109999D01*
X267012238Y-92679438D02*
X266978951Y-92634108D01*
X266815433Y-185278224D02*
X266802721Y-185223441D01*
X268275509Y-93040905D02*
X268222293Y-93059095D01*
X106893436Y-92488837D02*
X106869956Y-92437735D01*
X106785694Y-92112296D02*
X106781424Y-92056220D01*
X268275509Y-124040905D02*
X268222293Y-124059095D01*
X107666558Y-155087278D02*
X107611775Y-155074566D01*
X109000000Y-119000000D02*
X109000000Y-123000000D01*
X267012238Y-123679438D02*
X266978951Y-123634108D01*
X107012238Y-123679438D02*
X106978951Y-123634108D01*
X107721915Y-186097200D02*
X107666558Y-186087278D01*
X107721915Y-155097200D02*
X107666558Y-155087278D01*
X108058084Y-93097200D02*
X108002296Y-93104305D01*
X106792799Y-185168084D02*
X106785694Y-185112296D01*
X50000000Y-88000000D02*
X45000000Y-88000000D01*
X108327735Y-186020043D02*
X108275509Y-186040905D01*
X108977278Y-92223441D02*
X108964566Y-92278224D01*
X108831995Y-123587150D02*
X108801048Y-123634108D01*
X267666558Y-155087278D02*
X267611775Y-155074566D01*
X267890000Y-124109999D02*
X267833779Y-124108575D01*
X107401162Y-154996563D02*
X107351314Y-154970525D01*
X108222293Y-93059095D02*
X108168224Y-93074566D01*
X268613024Y-123842222D02*
X268569438Y-123877761D01*
X267504490Y-155040905D02*
X267452264Y-155020043D01*
X107777703Y-124104305D02*
X107721915Y-124097200D01*
X106948004Y-123587150D02*
X106919474Y-123538685D01*
X268964566Y-185278224D02*
X268949095Y-185332293D01*
X107012238Y-154679438D02*
X106978951Y-154634108D01*
X108977278Y-123223441D02*
X108964566Y-123278224D01*
X106802721Y-123223441D02*
X106792799Y-123168084D01*
X108569438Y-185877761D02*
X108524108Y-185911048D01*
X107210561Y-92877761D02*
X107166975Y-92842222D01*
X266802721Y-185223441D02*
X266792799Y-185168084D01*
X268327735Y-93020043D02*
X268275509Y-93040905D01*
X266781424Y-92056220D02*
X266780000Y-92000000D01*
X266869956Y-123437735D02*
X266849094Y-123385509D01*
X45000000Y-88000000D02*
X45000000Y-212000000D01*
X268767761Y-123679438D02*
X268732222Y-123723024D01*
X268477150Y-185941995D02*
X268428685Y-185970525D01*
X108994305Y-185112296D02*
X108987200Y-185168084D01*
X107890000Y-186109999D02*
X107833779Y-186108575D01*
X106792799Y-123168084D02*
X106785694Y-123112296D01*
X108987200Y-185168084D02*
X108977278Y-185223441D01*
X267210561Y-154877761D02*
X267166975Y-154842222D01*
X107946220Y-93108575D02*
X107890000Y-93109999D01*
X268910043Y-185437735D02*
X268910043Y-185437735D01*
X109000000Y-92000000D02*
X108998575Y-92056220D01*
X108886563Y-92488837D02*
X108860525Y-92538685D01*
X266948004Y-123587150D02*
X266919474Y-123538685D01*
X267255891Y-92911048D02*
X267210561Y-92877761D01*
X268910043Y-92437735D02*
X268886563Y-92488837D01*
X106849094Y-92385509D02*
X106830904Y-92332293D01*
X108002296Y-155104305D02*
X107946220Y-155108575D01*
X106781424Y-154056220D02*
X106780000Y-154000000D01*
X108477150Y-92941995D02*
X108428685Y-92970525D01*
X267125246Y-123804520D02*
X267085479Y-123764753D01*
X106830904Y-92332293D02*
X106815433Y-92278224D01*
X267504490Y-124040905D02*
X267452264Y-124020043D01*
X267890000Y-155109999D02*
X267833779Y-155108575D01*
X266919474Y-154538685D02*
X266893436Y-154488837D01*
X266792799Y-185168084D02*
X266785694Y-185112296D01*
X268569438Y-154877761D02*
X268524108Y-154911048D01*
X109000000Y-185000000D02*
X108998575Y-185056220D01*
X106802721Y-92223441D02*
X106792799Y-92168084D01*
X268860525Y-123538685D02*
X268831995Y-123587150D01*
X108930905Y-154385509D02*
X108910043Y-154437735D01*
X107255891Y-185911048D02*
X107210561Y-185877761D01*
X267611775Y-93074566D02*
X267557706Y-93059095D01*
X106780000Y-123000000D02*
X106780000Y-119000000D01*
X266869956Y-185437735D02*
X266849094Y-185385509D01*
X266869956Y-92437735D02*
X266849094Y-92385509D01*
X108378837Y-154996563D02*
X108327735Y-155020043D01*
X108977278Y-154223441D02*
X108964566Y-154278224D01*
X267351314Y-92970525D02*
X267302849Y-92941995D01*
X107085479Y-92764753D02*
X107047777Y-92723024D01*
X267085479Y-92764753D02*
X267047777Y-92723024D01*
X266785694Y-92112296D02*
X266781424Y-92056220D01*
X108767761Y-123679438D02*
X108767761Y-123679438D01*
X108477150Y-123941995D02*
X108428685Y-123970525D01*
X266978951Y-123634108D02*
X266948004Y-123587150D01*
X108058084Y-124097200D02*
X108002296Y-124104305D01*
X107302849Y-154941995D02*
X107255891Y-154911048D01*
X107047777Y-185723024D02*
X107012238Y-185679438D01*
X268831995Y-154587150D02*
X268801048Y-154634108D01*
X267012238Y-185679438D02*
X266978951Y-185634108D01*
X108860525Y-154538685D02*
X108831995Y-154587150D01*
X267721915Y-186097200D02*
X267666558Y-186087278D01*
X108949095Y-123332293D02*
X108930905Y-123385509D01*
X107777703Y-93104305D02*
X107721915Y-93097200D01*
X267611775Y-124074566D02*
X267557706Y-124059095D01*
X106893436Y-154488837D02*
X106869956Y-154437735D01*
X107777703Y-186104305D02*
X107721915Y-186097200D01*
X108860525Y-123538685D02*
X108831995Y-123587150D01*
X267351314Y-123970525D02*
X267302849Y-123941995D01*
X108910043Y-123437735D02*
X108886563Y-123488837D01*
X267833779Y-124108575D02*
X267777703Y-124104305D01*
X106978951Y-123634108D02*
X106948004Y-123587150D01*
X107721915Y-93097200D02*
X107666558Y-93087278D01*
X107085479Y-154764753D02*
X107047777Y-154723024D01*
X268987200Y-154168084D02*
X268977278Y-154223441D01*
X107777703Y-155104305D02*
X107721915Y-155097200D01*
X107452264Y-124020043D02*
X107401162Y-123996563D01*
X108275509Y-155040905D02*
X108222293Y-155059095D01*
X266849094Y-123385509D02*
X266830904Y-123332293D01*
X108168224Y-186074566D02*
X108113441Y-186087278D01*
X266948004Y-92587150D02*
X266919474Y-92538685D01*
X266830904Y-185332293D02*
X266815433Y-185278224D01*
X267777703Y-93104305D02*
X267721915Y-93097200D01*
X268949095Y-185332293D02*
X268930905Y-185385509D01*
X108987200Y-154168084D02*
X108977278Y-154223441D01*
X107946220Y-124108575D02*
X107890000Y-124109999D01*
X108994305Y-92112296D02*
X108987200Y-92168084D01*
X268930905Y-154385509D02*
X268910043Y-154437735D01*
X267946220Y-186108575D02*
X267890000Y-186109999D01*
X108327735Y-124020043D02*
X108275509Y-124040905D01*
X268327735Y-124020043D02*
X268275509Y-124040905D01*
X268694520Y-154764753D02*
X268654753Y-154804520D01*
X267255891Y-123911048D02*
X267210561Y-123877761D01*
X106815433Y-123278224D02*
X106802721Y-123223441D01*
X264000000Y-88000000D02*
X210000000Y-88000000D01*
X268524108Y-154911048D02*
X268477150Y-154941995D01*
X268987200Y-92168084D02*
X268977278Y-92223441D01*
X266849094Y-92385509D02*
X266830904Y-92332293D01*
X106830904Y-123332293D02*
X106815433Y-123278224D01*
X268378837Y-185996563D02*
X268327735Y-186020043D01*
X108222293Y-186059095D02*
X108168224Y-186074566D01*
X108949095Y-185332293D02*
X108930905Y-185385509D01*
X266785694Y-154112296D02*
X266781424Y-154056220D01*
X106948004Y-185587150D02*
X106919474Y-185538685D01*
X268002296Y-124104305D02*
X267946220Y-124108575D01*
X268767761Y-92679438D02*
X268732222Y-92723024D01*
X108654753Y-154804520D02*
X108613024Y-154842222D01*
X268998575Y-185056220D02*
X268994305Y-185112296D01*
X107125246Y-154804520D02*
X107085479Y-154764753D01*
X106780000Y-119000000D02*
X109000000Y-119000000D01*
X268886563Y-185488837D02*
X268860525Y-185538685D01*
X269000000Y-88000000D02*
X269000000Y-92000000D01*
X266815433Y-154278224D02*
X266802721Y-154223441D01*
X267401162Y-92996563D02*
X267351314Y-92970525D01*
X107012238Y-92679438D02*
X106978951Y-92634108D01*
X108613024Y-123842222D02*
X108569438Y-123877761D01*
X210000000Y-88000000D02*
X109000000Y-88000000D01*
X268801048Y-154634108D02*
X268767761Y-154679438D01*
X108998575Y-123056220D02*
X108994305Y-123112296D01*
X268910043Y-123437735D02*
X268886563Y-123488837D01*
X268732222Y-123723024D02*
X268694520Y-123764753D01*
X267452264Y-93020043D02*
X267401162Y-92996563D01*
X109000000Y-154000000D02*
X108998575Y-154056220D01*
X268524108Y-123911048D02*
X268477150Y-123941995D01*
X108964566Y-123278224D02*
X108949095Y-123332293D01*
X266849094Y-154385509D02*
X266830904Y-154332293D01*
X268613024Y-185842222D02*
X268569438Y-185877761D01*
X266815433Y-92278224D02*
X266802721Y-92223441D01*
X106919474Y-154538685D02*
X106893436Y-154488837D01*
X266978951Y-154634108D02*
X266948004Y-154587150D01*
X106869956Y-123437735D02*
X106849094Y-123385509D01*
X107611775Y-93074566D02*
X107557706Y-93059095D01*
X106919474Y-185538685D02*
X106893436Y-185488837D01*
X267777703Y-124104305D02*
X267721915Y-124097200D01*
X268327735Y-155020043D02*
X268275509Y-155040905D01*
X267833779Y-186108575D02*
X267777703Y-186104305D01*
X268569438Y-185877761D02*
X268524108Y-185911048D01*
X108222293Y-155059095D02*
X108168224Y-155074566D01*
X108002296Y-186104305D02*
X107946220Y-186108575D01*
X107085479Y-185764753D02*
X107047777Y-185723024D01*
X268275509Y-186040905D02*
X268222293Y-186059095D01*
X107833779Y-124108575D02*
X107777703Y-124104305D01*
X108058084Y-155097200D02*
X108002296Y-155104305D01*
X108113441Y-124087278D02*
X108058084Y-124097200D01*
X108113441Y-93087278D02*
X108058084Y-93097200D01*
X267255891Y-154911048D02*
X267210561Y-154877761D01*
X268524108Y-92911048D02*
X268477150Y-92941995D01*
X108613024Y-154842222D02*
X108569438Y-154877761D01*
X269000000Y-181000000D02*
X269000000Y-185000000D01*
X107166975Y-185842222D02*
X107125246Y-185804520D01*
X268613024Y-154842222D02*
X268569438Y-154877761D01*
X106815433Y-92278224D02*
X106802721Y-92223441D01*
X108569438Y-92877761D02*
X108524108Y-92911048D01*
X106802721Y-185223441D02*
X106792799Y-185168084D01*
X108113441Y-186087278D02*
X108058084Y-186097200D01*
X104000000Y-88000000D02*
X50000000Y-88000000D01*
X106781424Y-185056220D02*
X106780000Y-185000000D01*
X108998575Y-154056220D02*
X108994305Y-154112296D01*
X268860525Y-154538685D02*
X268831995Y-154587150D01*
X268113441Y-155087278D02*
X268058084Y-155097200D01*
X267666558Y-186087278D02*
X267611775Y-186074566D01*
X107721915Y-124097200D02*
X107666558Y-124087278D01*
X108275509Y-186040905D02*
X108222293Y-186059095D01*
X107504490Y-155040905D02*
X107452264Y-155020043D01*
X268994305Y-123112296D02*
X268987200Y-123168084D01*
X268987200Y-123168084D02*
X268977278Y-123223441D01*
X268378837Y-154996563D02*
X268327735Y-155020043D01*
X268831995Y-92587150D02*
X268801048Y-92634108D01*
X268275509Y-155040905D02*
X268222293Y-155059095D01*
X266781424Y-154056220D02*
X266780000Y-154000000D01*
X268058084Y-93097200D02*
X268002296Y-93104305D01*
X268801048Y-185634108D02*
X268767761Y-185679438D01*
X108860525Y-185538685D02*
X108831995Y-185587150D01*
X107302849Y-92941995D02*
X107255891Y-92911048D01*
X268977278Y-154223441D02*
X268964566Y-154278224D01*
X266792799Y-123168084D02*
X266785694Y-123112296D01*
X108831995Y-185587150D02*
X108801048Y-185634108D01*
X266869956Y-154437735D02*
X266849094Y-154385509D01*
X106780000Y-185000000D02*
X106780000Y-181000000D01*
X268378837Y-92996563D02*
X268327735Y-93020043D01*
X106948004Y-92587150D02*
X106919474Y-92538685D01*
X106780000Y-88000000D02*
X104000000Y-88000000D01*
X268222293Y-93059095D02*
X268168224Y-93074566D01*
X266893436Y-123488837D02*
X266869956Y-123437735D01*
X108378837Y-92996563D02*
X108327735Y-93020043D01*
X267504490Y-93040905D02*
X267452264Y-93020043D01*
X268949095Y-123332293D02*
X268930905Y-123385509D01*
X267611775Y-186074566D02*
X267557706Y-186059095D01*
X267085479Y-154764753D02*
X267047777Y-154723024D01*
X267302849Y-185941995D02*
X267255891Y-185911048D01*
X267452264Y-186020043D02*
X267401162Y-185996563D01*
X106893436Y-185488837D02*
X106869956Y-185437735D01*
X108930905Y-185385509D02*
X108910043Y-185437735D01*
X108613024Y-92842222D02*
X108569438Y-92877761D01*
X106948004Y-154587150D02*
X106919474Y-154538685D01*
X108654753Y-92804520D02*
X108613024Y-92842222D01*
X268732222Y-185723024D02*
X268694520Y-185764753D01*
X107351314Y-154970525D02*
X107302849Y-154941995D01*
X266948004Y-154587150D02*
X266919474Y-154538685D01*
X267351314Y-154970525D02*
X267302849Y-154941995D01*
X108569438Y-154877761D02*
X108524108Y-154911048D01*
X108987200Y-123168084D02*
X108977278Y-123223441D01*
X268654753Y-185804520D02*
X268613024Y-185842222D01*
X107125246Y-185804520D02*
X107085479Y-185764753D01*
X109000000Y-150000000D02*
X109000000Y-154000000D01*
X267557706Y-124059095D02*
X267504490Y-124040905D01*
X108886563Y-185488837D02*
X108860525Y-185538685D01*
X106781424Y-123056220D02*
X106780000Y-123000000D01*
X268767761Y-154679438D02*
X268732222Y-154723024D01*
X106978951Y-185634108D02*
X106948004Y-185587150D01*
X108831995Y-154587150D02*
X108831995Y-154587150D01*
X267166975Y-92842222D02*
X267125246Y-92804520D01*
X106978951Y-92634108D02*
X106948004Y-92587150D01*
X268428685Y-185970525D02*
X268378837Y-185996563D01*
X268694520Y-185764753D02*
X268654753Y-185804520D01*
X108930905Y-123385509D02*
X108910043Y-123437735D01*
X268524108Y-185911048D02*
X268477150Y-185941995D01*
X107302849Y-123941995D02*
X107255891Y-123911048D01*
X107504490Y-124040905D02*
X107452264Y-124020043D01*
X106785694Y-154112296D02*
X106781424Y-154056220D01*
X267166975Y-154842222D02*
X267125246Y-154804520D01*
D22*
X42000000Y-119000000D02*
X378000000Y-119000000D01*
D21*
X107166975Y-154842222D02*
X107125246Y-154804520D01*
X107125246Y-92804520D02*
X107085479Y-92764753D01*
X268886563Y-123488837D02*
X268860525Y-123538685D01*
X106780000Y-181000000D02*
X109000000Y-181000000D01*
X108801048Y-123634108D02*
X108767761Y-123679438D01*
X108168224Y-155074566D02*
X108113441Y-155087278D01*
X107401162Y-92996563D02*
X107351314Y-92970525D01*
X268002296Y-93104305D02*
X267946220Y-93108575D01*
X107255891Y-154911048D02*
X107210561Y-154877761D01*
X266978951Y-92634108D02*
X266948004Y-92587150D01*
X267302849Y-154941995D02*
X267255891Y-154911048D01*
X266893436Y-92488837D02*
X266869956Y-92437735D01*
X108732222Y-185723024D02*
X108694520Y-185764753D01*
X268428685Y-154970525D02*
X268378837Y-154996563D01*
X266780000Y-185000000D02*
X266780000Y-181000000D01*
X266830904Y-123332293D02*
X266815433Y-123278224D01*
X266849094Y-185385509D02*
X266830904Y-185332293D01*
X268860525Y-185538685D02*
X268831995Y-185587150D01*
X108168224Y-93074566D02*
X108113441Y-93087278D01*
X268860525Y-154538685D02*
X268860525Y-154538685D01*
X108694520Y-154764753D02*
X108654753Y-154804520D01*
X268998575Y-92056220D02*
X268994305Y-92112296D01*
X108168224Y-124074566D02*
X108113441Y-124087278D01*
X109000000Y-181000000D02*
X109000000Y-185000000D01*
X107255891Y-92911048D02*
X107210561Y-92877761D01*
X107890000Y-93109999D02*
X107833779Y-93108575D01*
X106815433Y-154278224D02*
X106802721Y-154223441D01*
X108977278Y-185223441D02*
X108964566Y-185278224D01*
X107125246Y-123804520D02*
X107085479Y-123764753D01*
X107047777Y-123723024D02*
X107012238Y-123679438D01*
X268987200Y-185168084D02*
X268977278Y-185223441D01*
X108910043Y-185437735D02*
X108886563Y-185488837D01*
D22*
X50000000Y-85000000D02*
X50000000Y-215000000D01*
D21*
X268930905Y-92385509D02*
X268910043Y-92437735D01*
X268654753Y-92804520D02*
X268613024Y-92842222D01*
X107557706Y-124059095D02*
X107504490Y-124040905D01*
X268002296Y-155104305D02*
X267946220Y-155108575D01*
X375000000Y-88000000D02*
X370000000Y-88000000D01*
X108428685Y-123970525D02*
X108378837Y-123996563D01*
X106978951Y-154634108D02*
X106948004Y-154587150D01*
X266792799Y-92168084D02*
X266785694Y-92112296D01*
X108860525Y-92538685D02*
X108831995Y-92587150D01*
X267557706Y-155059095D02*
X267504490Y-155040905D01*
X108994305Y-154112296D02*
X108987200Y-154168084D01*
X268113441Y-186087278D02*
X268058084Y-186097200D01*
X107833779Y-155108575D02*
X107777703Y-155104305D01*
X267833779Y-155108575D02*
X267777703Y-155104305D01*
X268694520Y-123764753D02*
X268654753Y-123804520D01*
X370000000Y-212000000D02*
X375000000Y-212000000D01*
X108477150Y-154941995D02*
X108428685Y-154970525D01*
X108275509Y-124040905D02*
X108222293Y-124059095D01*
X108886563Y-185488837D02*
X108886563Y-185488837D01*
X107166975Y-123842222D02*
X107125246Y-123804520D01*
X267302849Y-92941995D02*
X267255891Y-92911048D01*
X267166975Y-123842222D02*
X267125246Y-123804520D01*
X268998575Y-154056220D02*
X268994305Y-154112296D01*
X266919474Y-185538685D02*
X266893436Y-185488837D01*
X106849094Y-154385509D02*
X106830904Y-154332293D01*
X109000000Y-88000000D02*
X109000000Y-92000000D01*
X268058084Y-124097200D02*
X268002296Y-124104305D01*
X108964566Y-154278224D02*
X108949095Y-154332293D01*
X266815433Y-123278224D02*
X266802721Y-123223441D01*
X107452264Y-155020043D02*
X107401162Y-154996563D01*
X107351314Y-123970525D02*
X107302849Y-123941995D01*
X268732222Y-92723024D02*
X268694520Y-92764753D01*
X268930905Y-123385509D02*
X268910043Y-123437735D01*
X268428685Y-123970525D02*
X268378837Y-123996563D01*
X108998575Y-185056220D02*
X108994305Y-185112296D01*
X108964566Y-185278224D02*
X108949095Y-185332293D01*
X106919474Y-92538685D02*
X106893436Y-92488837D01*
X267210561Y-185877761D02*
X267166975Y-185842222D01*
X107666558Y-93087278D02*
X107611775Y-93074566D01*
X108949095Y-92332293D02*
X108930905Y-92385509D01*
X266780000Y-181000000D02*
X269000000Y-181000000D01*
X267401162Y-154996563D02*
X267351314Y-154970525D01*
X268058084Y-186097200D02*
X268002296Y-186104305D01*
X269000000Y-185000000D02*
X268998575Y-185056220D01*
X267890000Y-93109999D02*
X267833779Y-93108575D01*
X108930905Y-92385509D02*
X108910043Y-92437735D01*
X45000000Y-212000000D02*
X45000000Y-212000000D01*
X107504490Y-186040905D02*
X107452264Y-186020043D01*
X267125246Y-185804520D02*
X267085479Y-185764753D01*
X107946220Y-186108575D02*
X107890000Y-186109999D01*
X267890000Y-186109999D02*
X267833779Y-186108575D01*
X266780000Y-154000000D02*
X266780000Y-150000000D01*
X266802721Y-123223441D02*
X266792799Y-123168084D01*
X268168224Y-186074566D02*
X268113441Y-186087278D01*
X267125246Y-92804520D02*
X267085479Y-92764753D01*
X107611775Y-124074566D02*
X107557706Y-124059095D01*
X108732222Y-154723024D02*
X108694520Y-154764753D01*
X266830904Y-154332293D02*
X266815433Y-154278224D01*
X268801048Y-123634108D02*
X268767761Y-123679438D01*
X267721915Y-124097200D02*
X267666558Y-124087278D01*
X268168224Y-93074566D02*
X268113441Y-93087278D01*
X266830904Y-92332293D02*
X266815433Y-92278224D01*
X267557706Y-93059095D02*
X267504490Y-93040905D01*
X268964566Y-92278224D02*
X268949095Y-92332293D01*
X106780000Y-150000000D02*
X109000000Y-150000000D01*
X268168224Y-155074566D02*
X268113441Y-155087278D01*
X267777703Y-155104305D02*
X267721915Y-155097200D01*
X108002296Y-124104305D02*
X107946220Y-124108575D01*
X268477150Y-123941995D02*
X268428685Y-123970525D01*
X267255891Y-185911048D02*
X267210561Y-185877761D01*
X108524108Y-123911048D02*
X108477150Y-123941995D01*
X267611775Y-155074566D02*
X267557706Y-155059095D01*
X106781424Y-92056220D02*
X106780000Y-92000000D01*
X267777703Y-186104305D02*
X267721915Y-186097200D01*
X267557706Y-186059095D02*
X267504490Y-186040905D01*
X106792799Y-92168084D02*
X106785694Y-92112296D01*
X267401162Y-185996563D02*
X267351314Y-185970525D01*
X108910043Y-92437735D02*
X108886563Y-92488837D01*
X268994305Y-92112296D02*
X268987200Y-92168084D01*
X107166975Y-92842222D02*
X107125246Y-92804520D01*
X108994305Y-123112296D02*
X108987200Y-123168084D01*
X268886563Y-154488837D02*
X268860525Y-154538685D01*
X268977278Y-123223441D02*
X268964566Y-123278224D01*
X267210561Y-123877761D02*
X267166975Y-123842222D01*
X370000000Y-88000000D02*
X269000000Y-88000000D01*
X269000000Y-92000000D02*
X268998575Y-92056220D01*
X108428685Y-92970525D02*
X108378837Y-92996563D01*
X268654753Y-123804520D02*
X268613024Y-123842222D01*
X107557706Y-155059095D02*
X107504490Y-155040905D01*
X107012238Y-185679438D02*
X106978951Y-185634108D01*
X268994305Y-185112296D02*
X268987200Y-185168084D01*
X268930905Y-185385509D02*
X268910043Y-185437735D01*
X107401162Y-185996563D02*
X107351314Y-185970525D01*
X107833779Y-186108575D02*
X107777703Y-186104305D01*
X266781424Y-123056220D02*
X266780000Y-123000000D01*
X267721915Y-93097200D02*
X267666558Y-93087278D01*
X108801048Y-92634108D02*
X108767761Y-92679438D01*
X268002296Y-186104305D02*
X267946220Y-186108575D01*
X108113441Y-155087278D02*
X108058084Y-155097200D01*
X268613024Y-92842222D02*
X268569438Y-92877761D01*
X375000000Y-212000000D02*
X375000000Y-88000000D01*
X268569438Y-123877761D02*
X268524108Y-123911048D01*
X106785694Y-123112296D02*
X106781424Y-123056220D01*
X268222293Y-186059095D02*
X268168224Y-186074566D01*
X108613024Y-185842222D02*
X108569438Y-185877761D01*
X266802721Y-154223441D02*
X266792799Y-154168084D01*
X107890000Y-155109999D02*
X107833779Y-155108575D01*
X108327735Y-155020043D02*
X108275509Y-155040905D01*
X106792799Y-154168084D02*
X106785694Y-154112296D01*
X107210561Y-154877761D02*
X107166975Y-154842222D01*
X107351314Y-92970525D02*
X107302849Y-92941995D01*
X266781424Y-185056220D02*
X266780000Y-185000000D01*
X267452264Y-124020043D02*
X267401162Y-123996563D01*
X106919474Y-123538685D02*
X106893436Y-123488837D01*
X266893436Y-185488837D02*
X266869956Y-185437735D01*
X107452264Y-186020043D02*
X107401162Y-185996563D01*
X268860525Y-92538685D02*
X268831995Y-92587150D01*
X266978951Y-185634108D02*
X266948004Y-185587150D01*
X268654753Y-154804520D02*
X268613024Y-154842222D01*
X107210561Y-123877761D02*
X107166975Y-123842222D01*
X108654753Y-123804520D02*
X108613024Y-123842222D01*
X108222293Y-124059095D02*
X108168224Y-124074566D01*
X267666558Y-93087278D02*
X267611775Y-93074566D01*
X267452264Y-155020043D02*
X267401162Y-154996563D01*
D22*
X370000000Y-85000000D02*
X370000000Y-215000000D01*
D21*
X269000000Y-150000000D02*
X269000000Y-154000000D01*
X268058084Y-155097200D02*
X268002296Y-155104305D01*
X108694520Y-185764753D02*
X108654753Y-185804520D01*
X267504490Y-186040905D02*
X267452264Y-186020043D01*
X268428685Y-92970525D02*
X268378837Y-92996563D01*
X108378837Y-185996563D02*
X108327735Y-186020043D01*
X108767761Y-185679438D02*
X108732222Y-185723024D01*
X107210561Y-185877761D02*
X107166975Y-185842222D01*
X267401162Y-123996563D02*
X267351314Y-123970525D01*
X107255891Y-123911048D02*
X107210561Y-123877761D01*
X107666558Y-124087278D02*
X107611775Y-124074566D01*
X106815433Y-185278224D02*
X106802721Y-185223441D01*
X108732222Y-92723024D02*
X108694520Y-92764753D01*
X108654753Y-185804520D02*
X108613024Y-185842222D01*
X267946220Y-93108575D02*
X267890000Y-93109999D01*
X107452264Y-93020043D02*
X107401162Y-92996563D01*
X267047777Y-92723024D02*
X267012238Y-92679438D01*
X108801048Y-154634108D02*
X108767761Y-154679438D01*
X108910043Y-154437735D02*
X108886563Y-154488837D01*
X107611775Y-186074566D02*
X107557706Y-186059095D01*
X108477150Y-185941995D02*
X108428685Y-185970525D01*
X107946220Y-155108575D02*
X107890000Y-155109999D01*
X268886563Y-92488837D02*
X268860525Y-92538685D01*
X268977278Y-185223441D02*
X268964566Y-185278224D01*
X269000000Y-154000000D02*
X268998575Y-154056220D01*
X266919474Y-123538685D02*
X266893436Y-123488837D01*
X107085479Y-123764753D02*
X107047777Y-123723024D01*
X109000000Y-123000000D02*
X108998575Y-123056220D01*
X267946220Y-155108575D02*
X267890000Y-155109999D01*
X108327735Y-93020043D02*
X108275509Y-93040905D01*
X108428685Y-154970525D02*
X108378837Y-154996563D01*
X268831995Y-123587150D02*
X268801048Y-123634108D01*
X107557706Y-186059095D02*
X107504490Y-186040905D01*
X107047777Y-92723024D02*
X107012238Y-92679438D01*
D22*
X42000000Y-150000000D02*
X378000000Y-150000000D01*
D21*
X108569438Y-123877761D02*
X108524108Y-123911048D01*
X108732222Y-123723024D02*
X108694520Y-123764753D01*
X268994305Y-154112296D02*
X268987200Y-154168084D01*
X266780000Y-92000000D02*
X266780000Y-88000000D01*
X108886563Y-123488837D02*
X108860525Y-123538685D01*
X108275509Y-93040905D02*
X108222293Y-93059095D01*
X268569438Y-92877761D02*
X268524108Y-92911048D01*
X106849094Y-123385509D02*
X106830904Y-123332293D01*
X107401162Y-123996563D02*
X107351314Y-123970525D01*
X108801048Y-185634108D02*
X108767761Y-185679438D01*
X266780000Y-119000000D02*
X269000000Y-119000000D01*
X106785694Y-185112296D02*
X106781424Y-185056220D01*
X267012238Y-154679438D02*
X266978951Y-154634108D01*
X266802721Y-92223441D02*
X266792799Y-92168084D01*
X107611775Y-155074566D02*
X107557706Y-155059095D01*
X108002296Y-93104305D02*
X107946220Y-93108575D01*
X107351314Y-185970525D02*
X107302849Y-185941995D01*
X108694520Y-92764753D02*
X108654753Y-92804520D01*
X106830904Y-185332293D02*
X106815433Y-185278224D01*
X108886563Y-154488837D02*
X108860525Y-154538685D01*
X267047777Y-185723024D02*
X267012238Y-185679438D01*
X108767761Y-92679438D02*
X108732222Y-92723024D01*
X106849094Y-185385509D02*
X106830904Y-185332293D01*
X268477150Y-92941995D02*
X268428685Y-92970525D01*
X269000000Y-119000000D02*
X269000000Y-123000000D01*
X108949095Y-154332293D02*
X108930905Y-154385509D01*
X108767761Y-123679438D02*
X108732222Y-123723024D01*
X268964566Y-154278224D02*
X268949095Y-154332293D01*
X108767761Y-154679438D02*
X108732222Y-154723024D01*
X268910043Y-154437735D02*
X268886563Y-154488837D01*
X107666558Y-186087278D02*
X107611775Y-186074566D01*
X106830904Y-154332293D02*
X106815433Y-154278224D01*
X267085479Y-185764753D02*
X267047777Y-185723024D01*
X267047777Y-123723024D02*
X267012238Y-123679438D01*
X266785694Y-123112296D02*
X266781424Y-123056220D01*
X108694520Y-123764753D02*
X108654753Y-123804520D01*
X108831995Y-154587150D02*
X108801048Y-154634108D01*
X106893436Y-123488837D02*
X106869956Y-123437735D01*
X267125246Y-154804520D02*
X267085479Y-154764753D01*
X266780000Y-88000000D02*
X264000000Y-88000000D01*
X267302849Y-123941995D02*
X267255891Y-123911048D01*
X108831995Y-92587150D02*
X108801048Y-92634108D01*
X107557706Y-93059095D02*
X107504490Y-93040905D01*
X267085479Y-123764753D02*
X267047777Y-123723024D01*
X108987200Y-92168084D02*
X108977278Y-92223441D01*
X107504490Y-93040905D02*
X107452264Y-93020043D01*
X106869956Y-185437735D02*
X106849094Y-185385509D01*
X107833779Y-93108575D02*
X107777703Y-93104305D01*
X268222293Y-155059095D02*
X268168224Y-155074566D01*
X268998575Y-123056220D02*
X268994305Y-123112296D01*
X106780000Y-154000000D02*
X106780000Y-150000000D01*
X266785694Y-185112296D02*
X266781424Y-185056220D01*
X268964566Y-123278224D02*
X268949095Y-123332293D01*
X268477150Y-154941995D02*
X268428685Y-154970525D01*
X268949095Y-92332293D02*
X268930905Y-92385509D01*
X268694520Y-92764753D02*
X268654753Y-92804520D01*
X268801048Y-92634108D02*
X268767761Y-92679438D01*
X268767761Y-185679438D02*
X268732222Y-185723024D01*
X267047777Y-154723024D02*
X267012238Y-154679438D01*
X268113441Y-93087278D02*
X268058084Y-93097200D01*
X267721915Y-155097200D02*
X267666558Y-155087278D01*
X269000000Y-123000000D02*
X268998575Y-123056220D01*
X267210561Y-92877761D02*
X267166975Y-92842222D01*
X266893436Y-154488837D02*
X266869956Y-154437735D01*
X106802721Y-154223441D02*
X106792799Y-154168084D01*
X267351314Y-185970525D02*
X267302849Y-185941995D01*
D22*
X42000000Y-181000000D02*
X378000000Y-181000000D01*
D21*
X108998575Y-92056220D02*
X108994305Y-92112296D01*
X268801048Y-123634108D02*
X268801048Y-123634108D01*
X267166975Y-185842222D02*
X267125246Y-185804520D01*
X266919474Y-92538685D02*
X266893436Y-92488837D01*
X268831995Y-185587150D02*
X268801048Y-185634108D01*
X267833779Y-93108575D02*
X267777703Y-93104305D01*
X107302849Y-185941995D02*
X107255891Y-185911048D01*
X268910043Y-185437735D02*
X268886563Y-185488837D01*
X266792799Y-154168084D02*
X266785694Y-154112296D01*
X108524108Y-154911048D02*
X108477150Y-154941995D01*
X268327735Y-186020043D02*
X268275509Y-186040905D01*
X268977278Y-92223441D02*
X268964566Y-92278224D01*
X106869956Y-92437735D02*
X106849094Y-92385509D01*
D22*
X210000000Y-85000000D02*
X210000000Y-215000000D01*
D21*
X50000000Y-212000000D02*
X210000000Y-212000000D01*
X266780000Y-123000000D02*
X266780000Y-119000000D01*
X268949095Y-154332293D02*
X268930905Y-154385509D01*
X106780000Y-92000000D02*
X106780000Y-88000000D01*
X268113441Y-124087278D02*
X268058084Y-124097200D01*
X108378837Y-123996563D02*
X108327735Y-124020043D01*
X106869956Y-154437735D02*
X106849094Y-154385509D01*
X266780000Y-150000000D02*
X269000000Y-150000000D01*
X268732222Y-154723024D02*
X268694520Y-154764753D01*
X108524108Y-92911048D02*
X108477150Y-92941995D01*
X108058084Y-186097200D02*
X108002296Y-186104305D01*
X108964566Y-92278224D02*
X108949095Y-92332293D01*
X268378837Y-123996563D02*
X268327735Y-124020043D01*
M02*
