%TF.GenerationSoftware,KiCad,Pcbnew,(7.0.0)*%
%TF.CreationDate,2023-07-13T12:21:55+02:00*%
%TF.ProjectId,Panelization,50616e65-6c69-47a6-9174-696f6e2e6b69,V1*%
%TF.SameCoordinates,PX2d4cae0PY73df160*%
%TF.FileFunction,Paste,Top*%
%TF.FilePolarity,Positive*%
%FSLAX46Y46*%
G04 Gerber Fmt 4.6, Leading zero omitted, Abs format (unit mm)*
G04 Created by KiCad (PCBNEW (7.0.0)) date 2023-07-13 12:21:55*
%MOMM*%
%LPD*%
G01*
G04 APERTURE LIST*
G04 Aperture macros list*
%AMRoundRect*
0 Rectangle with rounded corners*
0 $1 Rounding radius*
0 $2 $3 $4 $5 $6 $7 $8 $9 X,Y pos of 4 corners*
0 Add a 4 corners polygon primitive as box body*
4,1,4,$2,$3,$4,$5,$6,$7,$8,$9,$2,$3,0*
0 Add four circle primitives for the rounded corners*
1,1,$1+$1,$2,$3*
1,1,$1+$1,$4,$5*
1,1,$1+$1,$6,$7*
1,1,$1+$1,$8,$9*
0 Add four rect primitives between the rounded corners*
20,1,$1+$1,$2,$3,$4,$5,0*
20,1,$1+$1,$4,$5,$6,$7,0*
20,1,$1+$1,$6,$7,$8,$9,0*
20,1,$1+$1,$8,$9,$2,$3,0*%
G04 Aperture macros list end*
%ADD10C,0.010000*%
%ADD11RoundRect,0.250000X-0.475000X0.250000X-0.475000X-0.250000X0.475000X-0.250000X0.475000X0.250000X0*%
%ADD12R,0.280000X2.400000*%
%ADD13RoundRect,0.250000X0.475000X-0.250000X0.475000X0.250000X-0.475000X0.250000X-0.475000X-0.250000X0*%
%ADD14R,1.500000X2.000000*%
%ADD15C,1.000000*%
%TA.AperFunction,Profile*%
%ADD16C,0.100000*%
%TD*%
G04 APERTURE END LIST*
%TO.C,J7*%
G36*
X262280000Y-57270000D02*
G01*
X262100000Y-57530000D01*
X261920000Y-57270000D01*
X261920000Y-56000000D01*
X262280000Y-56000000D01*
X262280000Y-57270000D01*
G37*
D10*
X262280000Y-57270000D02*
X262100000Y-57530000D01*
X261920000Y-57270000D01*
X261920000Y-56000000D01*
X262280000Y-56000000D01*
X262280000Y-57270000D01*
G36*
X261480000Y-57270000D02*
G01*
X261300000Y-57530000D01*
X261120000Y-57270000D01*
X261120000Y-56000000D01*
X261480000Y-56000000D01*
X261480000Y-57270000D01*
G37*
X261480000Y-57270000D02*
X261300000Y-57530000D01*
X261120000Y-57270000D01*
X261120000Y-56000000D01*
X261480000Y-56000000D01*
X261480000Y-57270000D01*
G36*
X260680000Y-57270000D02*
G01*
X260500000Y-57530000D01*
X260320000Y-57270000D01*
X260320000Y-56000000D01*
X260680000Y-56000000D01*
X260680000Y-57270000D01*
G37*
X260680000Y-57270000D02*
X260500000Y-57530000D01*
X260320000Y-57270000D01*
X260320000Y-56000000D01*
X260680000Y-56000000D01*
X260680000Y-57270000D01*
G36*
X259880000Y-57270000D02*
G01*
X259700000Y-57530000D01*
X259520000Y-57270000D01*
X259520000Y-56000000D01*
X259880000Y-56000000D01*
X259880000Y-57270000D01*
G37*
X259880000Y-57270000D02*
X259700000Y-57530000D01*
X259520000Y-57270000D01*
X259520000Y-56000000D01*
X259880000Y-56000000D01*
X259880000Y-57270000D01*
G36*
X259080000Y-57270000D02*
G01*
X258900000Y-57530000D01*
X258720000Y-57270000D01*
X258720000Y-56000000D01*
X259080000Y-56000000D01*
X259080000Y-57270000D01*
G37*
X259080000Y-57270000D02*
X258900000Y-57530000D01*
X258720000Y-57270000D01*
X258720000Y-56000000D01*
X259080000Y-56000000D01*
X259080000Y-57270000D01*
G36*
X258280000Y-57270000D02*
G01*
X258100000Y-57530000D01*
X257920000Y-57270000D01*
X257920000Y-56000000D01*
X258280000Y-56000000D01*
X258280000Y-57270000D01*
G37*
X258280000Y-57270000D02*
X258100000Y-57530000D01*
X257920000Y-57270000D01*
X257920000Y-56000000D01*
X258280000Y-56000000D01*
X258280000Y-57270000D01*
G36*
X257480000Y-57270000D02*
G01*
X257300000Y-57530000D01*
X257120000Y-57270000D01*
X257120000Y-56000000D01*
X257480000Y-56000000D01*
X257480000Y-57270000D01*
G37*
X257480000Y-57270000D02*
X257300000Y-57530000D01*
X257120000Y-57270000D01*
X257120000Y-56000000D01*
X257480000Y-56000000D01*
X257480000Y-57270000D01*
G36*
X256680000Y-57270000D02*
G01*
X256500000Y-57530000D01*
X256320000Y-57270000D01*
X256320000Y-56000000D01*
X256680000Y-56000000D01*
X256680000Y-57270000D01*
G37*
X256680000Y-57270000D02*
X256500000Y-57530000D01*
X256320000Y-57270000D01*
X256320000Y-56000000D01*
X256680000Y-56000000D01*
X256680000Y-57270000D01*
G36*
X255880000Y-57270000D02*
G01*
X255700000Y-57530000D01*
X255520000Y-57270000D01*
X255520000Y-56000000D01*
X255880000Y-56000000D01*
X255880000Y-57270000D01*
G37*
X255880000Y-57270000D02*
X255700000Y-57530000D01*
X255520000Y-57270000D01*
X255520000Y-56000000D01*
X255880000Y-56000000D01*
X255880000Y-57270000D01*
G36*
X255080000Y-57270000D02*
G01*
X254900000Y-57530000D01*
X254720000Y-57270000D01*
X254720000Y-56000000D01*
X255080000Y-56000000D01*
X255080000Y-57270000D01*
G37*
X255080000Y-57270000D02*
X254900000Y-57530000D01*
X254720000Y-57270000D01*
X254720000Y-56000000D01*
X255080000Y-56000000D01*
X255080000Y-57270000D01*
G36*
X254280000Y-57270000D02*
G01*
X254100000Y-57530000D01*
X253920000Y-57270000D01*
X253920000Y-56000000D01*
X254280000Y-56000000D01*
X254280000Y-57270000D01*
G37*
X254280000Y-57270000D02*
X254100000Y-57530000D01*
X253920000Y-57270000D01*
X253920000Y-56000000D01*
X254280000Y-56000000D01*
X254280000Y-57270000D01*
G36*
X253480000Y-57270000D02*
G01*
X253300000Y-57530000D01*
X253120000Y-57270000D01*
X253120000Y-56000000D01*
X253480000Y-56000000D01*
X253480000Y-57270000D01*
G37*
X253480000Y-57270000D02*
X253300000Y-57530000D01*
X253120000Y-57270000D01*
X253120000Y-56000000D01*
X253480000Y-56000000D01*
X253480000Y-57270000D01*
G36*
X252680000Y-57270000D02*
G01*
X252500000Y-57530000D01*
X252320000Y-57270000D01*
X252320000Y-56000000D01*
X252680000Y-56000000D01*
X252680000Y-57270000D01*
G37*
X252680000Y-57270000D02*
X252500000Y-57530000D01*
X252320000Y-57270000D01*
X252320000Y-56000000D01*
X252680000Y-56000000D01*
X252680000Y-57270000D01*
G36*
X251880000Y-57270000D02*
G01*
X251700000Y-57530000D01*
X251520000Y-57270000D01*
X251520000Y-56000000D01*
X251880000Y-56000000D01*
X251880000Y-57270000D01*
G37*
X251880000Y-57270000D02*
X251700000Y-57530000D01*
X251520000Y-57270000D01*
X251520000Y-56000000D01*
X251880000Y-56000000D01*
X251880000Y-57270000D01*
G36*
X251080000Y-57270000D02*
G01*
X250900000Y-57530000D01*
X250720000Y-57270000D01*
X250720000Y-56000000D01*
X251080000Y-56000000D01*
X251080000Y-57270000D01*
G37*
X251080000Y-57270000D02*
X250900000Y-57530000D01*
X250720000Y-57270000D01*
X250720000Y-56000000D01*
X251080000Y-56000000D01*
X251080000Y-57270000D01*
G36*
X250280000Y-57270000D02*
G01*
X250100000Y-57530000D01*
X249920000Y-57270000D01*
X249920000Y-56000000D01*
X250280000Y-56000000D01*
X250280000Y-57270000D01*
G37*
X250280000Y-57270000D02*
X250100000Y-57530000D01*
X249920000Y-57270000D01*
X249920000Y-56000000D01*
X250280000Y-56000000D01*
X250280000Y-57270000D01*
G36*
X249480000Y-57270000D02*
G01*
X249300000Y-57530000D01*
X249120000Y-57270000D01*
X249120000Y-56000000D01*
X249480000Y-56000000D01*
X249480000Y-57270000D01*
G37*
X249480000Y-57270000D02*
X249300000Y-57530000D01*
X249120000Y-57270000D01*
X249120000Y-56000000D01*
X249480000Y-56000000D01*
X249480000Y-57270000D01*
G36*
X248680000Y-57270000D02*
G01*
X248500000Y-57530000D01*
X248320000Y-57270000D01*
X248320000Y-56000000D01*
X248680000Y-56000000D01*
X248680000Y-57270000D01*
G37*
X248680000Y-57270000D02*
X248500000Y-57530000D01*
X248320000Y-57270000D01*
X248320000Y-56000000D01*
X248680000Y-56000000D01*
X248680000Y-57270000D01*
G36*
X247880000Y-57270000D02*
G01*
X247700000Y-57530000D01*
X247520000Y-57270000D01*
X247520000Y-56000000D01*
X247880000Y-56000000D01*
X247880000Y-57270000D01*
G37*
X247880000Y-57270000D02*
X247700000Y-57530000D01*
X247520000Y-57270000D01*
X247520000Y-56000000D01*
X247880000Y-56000000D01*
X247880000Y-57270000D01*
G36*
X247080000Y-57270000D02*
G01*
X246900000Y-57530000D01*
X246720000Y-57270000D01*
X246720000Y-56000000D01*
X247080000Y-56000000D01*
X247080000Y-57270000D01*
G37*
X247080000Y-57270000D02*
X246900000Y-57530000D01*
X246720000Y-57270000D01*
X246720000Y-56000000D01*
X247080000Y-56000000D01*
X247080000Y-57270000D01*
G36*
X246280000Y-57270000D02*
G01*
X246100000Y-57530000D01*
X245920000Y-57270000D01*
X245920000Y-56000000D01*
X246280000Y-56000000D01*
X246280000Y-57270000D01*
G37*
X246280000Y-57270000D02*
X246100000Y-57530000D01*
X245920000Y-57270000D01*
X245920000Y-56000000D01*
X246280000Y-56000000D01*
X246280000Y-57270000D01*
G36*
X245480000Y-57270000D02*
G01*
X245300000Y-57530000D01*
X245120000Y-57270000D01*
X245120000Y-56000000D01*
X245480000Y-56000000D01*
X245480000Y-57270000D01*
G37*
X245480000Y-57270000D02*
X245300000Y-57530000D01*
X245120000Y-57270000D01*
X245120000Y-56000000D01*
X245480000Y-56000000D01*
X245480000Y-57270000D01*
G36*
X244680000Y-57270000D02*
G01*
X244500000Y-57530000D01*
X244320000Y-57270000D01*
X244320000Y-56000000D01*
X244680000Y-56000000D01*
X244680000Y-57270000D01*
G37*
X244680000Y-57270000D02*
X244500000Y-57530000D01*
X244320000Y-57270000D01*
X244320000Y-56000000D01*
X244680000Y-56000000D01*
X244680000Y-57270000D01*
G36*
X243880000Y-57270000D02*
G01*
X243700000Y-57530000D01*
X243520000Y-57270000D01*
X243520000Y-56000000D01*
X243880000Y-56000000D01*
X243880000Y-57270000D01*
G37*
X243880000Y-57270000D02*
X243700000Y-57530000D01*
X243520000Y-57270000D01*
X243520000Y-56000000D01*
X243880000Y-56000000D01*
X243880000Y-57270000D01*
G36*
X243080000Y-57270000D02*
G01*
X242900000Y-57530000D01*
X242720000Y-57270000D01*
X242720000Y-56000000D01*
X243080000Y-56000000D01*
X243080000Y-57270000D01*
G37*
X243080000Y-57270000D02*
X242900000Y-57530000D01*
X242720000Y-57270000D01*
X242720000Y-56000000D01*
X243080000Y-56000000D01*
X243080000Y-57270000D01*
G36*
X242280000Y-57270000D02*
G01*
X242100000Y-57530000D01*
X241920000Y-57270000D01*
X241920000Y-56000000D01*
X242280000Y-56000000D01*
X242280000Y-57270000D01*
G37*
X242280000Y-57270000D02*
X242100000Y-57530000D01*
X241920000Y-57270000D01*
X241920000Y-56000000D01*
X242280000Y-56000000D01*
X242280000Y-57270000D01*
G36*
X241480000Y-57270000D02*
G01*
X241300000Y-57530000D01*
X241120000Y-57270000D01*
X241120000Y-56000000D01*
X241480000Y-56000000D01*
X241480000Y-57270000D01*
G37*
X241480000Y-57270000D02*
X241300000Y-57530000D01*
X241120000Y-57270000D01*
X241120000Y-56000000D01*
X241480000Y-56000000D01*
X241480000Y-57270000D01*
G36*
X240680000Y-57270000D02*
G01*
X240500000Y-57530000D01*
X240320000Y-57270000D01*
X240320000Y-56000000D01*
X240680000Y-56000000D01*
X240680000Y-57270000D01*
G37*
X240680000Y-57270000D02*
X240500000Y-57530000D01*
X240320000Y-57270000D01*
X240320000Y-56000000D01*
X240680000Y-56000000D01*
X240680000Y-57270000D01*
G36*
X239880000Y-57270000D02*
G01*
X239700000Y-57530000D01*
X239520000Y-57270000D01*
X239520000Y-56000000D01*
X239880000Y-56000000D01*
X239880000Y-57270000D01*
G37*
X239880000Y-57270000D02*
X239700000Y-57530000D01*
X239520000Y-57270000D01*
X239520000Y-56000000D01*
X239880000Y-56000000D01*
X239880000Y-57270000D01*
G36*
X239080000Y-57270000D02*
G01*
X238900000Y-57530000D01*
X238720000Y-57270000D01*
X238720000Y-56000000D01*
X239080000Y-56000000D01*
X239080000Y-57270000D01*
G37*
X239080000Y-57270000D02*
X238900000Y-57530000D01*
X238720000Y-57270000D01*
X238720000Y-56000000D01*
X239080000Y-56000000D01*
X239080000Y-57270000D01*
G36*
X238280000Y-57270000D02*
G01*
X238100000Y-57530000D01*
X237920000Y-57270000D01*
X237920000Y-56000000D01*
X238280000Y-56000000D01*
X238280000Y-57270000D01*
G37*
X238280000Y-57270000D02*
X238100000Y-57530000D01*
X237920000Y-57270000D01*
X237920000Y-56000000D01*
X238280000Y-56000000D01*
X238280000Y-57270000D01*
G36*
X237480000Y-57270000D02*
G01*
X237300000Y-57530000D01*
X237120000Y-57270000D01*
X237120000Y-56000000D01*
X237480000Y-56000000D01*
X237480000Y-57270000D01*
G37*
X237480000Y-57270000D02*
X237300000Y-57530000D01*
X237120000Y-57270000D01*
X237120000Y-56000000D01*
X237480000Y-56000000D01*
X237480000Y-57270000D01*
G36*
X236680000Y-57270000D02*
G01*
X236500000Y-57530000D01*
X236320000Y-57270000D01*
X236320000Y-56000000D01*
X236680000Y-56000000D01*
X236680000Y-57270000D01*
G37*
X236680000Y-57270000D02*
X236500000Y-57530000D01*
X236320000Y-57270000D01*
X236320000Y-56000000D01*
X236680000Y-56000000D01*
X236680000Y-57270000D01*
G36*
X235880000Y-57270000D02*
G01*
X235700000Y-57530000D01*
X235520000Y-57270000D01*
X235520000Y-56000000D01*
X235880000Y-56000000D01*
X235880000Y-57270000D01*
G37*
X235880000Y-57270000D02*
X235700000Y-57530000D01*
X235520000Y-57270000D01*
X235520000Y-56000000D01*
X235880000Y-56000000D01*
X235880000Y-57270000D01*
G36*
X235080000Y-57270000D02*
G01*
X234900000Y-57530000D01*
X234720000Y-57270000D01*
X234720000Y-56000000D01*
X235080000Y-56000000D01*
X235080000Y-57270000D01*
G37*
X235080000Y-57270000D02*
X234900000Y-57530000D01*
X234720000Y-57270000D01*
X234720000Y-56000000D01*
X235080000Y-56000000D01*
X235080000Y-57270000D01*
G36*
X234280000Y-57270000D02*
G01*
X234100000Y-57530000D01*
X233920000Y-57270000D01*
X233920000Y-56000000D01*
X234280000Y-56000000D01*
X234280000Y-57270000D01*
G37*
X234280000Y-57270000D02*
X234100000Y-57530000D01*
X233920000Y-57270000D01*
X233920000Y-56000000D01*
X234280000Y-56000000D01*
X234280000Y-57270000D01*
G36*
X233480000Y-57270000D02*
G01*
X233300000Y-57530000D01*
X233120000Y-57270000D01*
X233120000Y-56000000D01*
X233480000Y-56000000D01*
X233480000Y-57270000D01*
G37*
X233480000Y-57270000D02*
X233300000Y-57530000D01*
X233120000Y-57270000D01*
X233120000Y-56000000D01*
X233480000Y-56000000D01*
X233480000Y-57270000D01*
G36*
X232680000Y-57270000D02*
G01*
X232500000Y-57530000D01*
X232320000Y-57270000D01*
X232320000Y-56000000D01*
X232680000Y-56000000D01*
X232680000Y-57270000D01*
G37*
X232680000Y-57270000D02*
X232500000Y-57530000D01*
X232320000Y-57270000D01*
X232320000Y-56000000D01*
X232680000Y-56000000D01*
X232680000Y-57270000D01*
G36*
X231880000Y-57270000D02*
G01*
X231700000Y-57530000D01*
X231520000Y-57270000D01*
X231520000Y-56000000D01*
X231880000Y-56000000D01*
X231880000Y-57270000D01*
G37*
X231880000Y-57270000D02*
X231700000Y-57530000D01*
X231520000Y-57270000D01*
X231520000Y-56000000D01*
X231880000Y-56000000D01*
X231880000Y-57270000D01*
G36*
X231080000Y-57270000D02*
G01*
X230900000Y-57530000D01*
X230720000Y-57270000D01*
X230720000Y-56000000D01*
X231080000Y-56000000D01*
X231080000Y-57270000D01*
G37*
X231080000Y-57270000D02*
X230900000Y-57530000D01*
X230720000Y-57270000D01*
X230720000Y-56000000D01*
X231080000Y-56000000D01*
X231080000Y-57270000D01*
G36*
X230280000Y-57270000D02*
G01*
X230100000Y-57530000D01*
X229920000Y-57270000D01*
X229920000Y-56000000D01*
X230280000Y-56000000D01*
X230280000Y-57270000D01*
G37*
X230280000Y-57270000D02*
X230100000Y-57530000D01*
X229920000Y-57270000D01*
X229920000Y-56000000D01*
X230280000Y-56000000D01*
X230280000Y-57270000D01*
G36*
X229480000Y-57270000D02*
G01*
X229300000Y-57530000D01*
X229120000Y-57270000D01*
X229120000Y-56000000D01*
X229480000Y-56000000D01*
X229480000Y-57270000D01*
G37*
X229480000Y-57270000D02*
X229300000Y-57530000D01*
X229120000Y-57270000D01*
X229120000Y-56000000D01*
X229480000Y-56000000D01*
X229480000Y-57270000D01*
G36*
X228680000Y-57270000D02*
G01*
X228500000Y-57530000D01*
X228320000Y-57270000D01*
X228320000Y-56000000D01*
X228680000Y-56000000D01*
X228680000Y-57270000D01*
G37*
X228680000Y-57270000D02*
X228500000Y-57530000D01*
X228320000Y-57270000D01*
X228320000Y-56000000D01*
X228680000Y-56000000D01*
X228680000Y-57270000D01*
G36*
X227880000Y-57270000D02*
G01*
X227700000Y-57530000D01*
X227520000Y-57270000D01*
X227520000Y-56000000D01*
X227880000Y-56000000D01*
X227880000Y-57270000D01*
G37*
X227880000Y-57270000D02*
X227700000Y-57530000D01*
X227520000Y-57270000D01*
X227520000Y-56000000D01*
X227880000Y-56000000D01*
X227880000Y-57270000D01*
G36*
X227080000Y-57270000D02*
G01*
X226900000Y-57530000D01*
X226720000Y-57270000D01*
X226720000Y-56000000D01*
X227080000Y-56000000D01*
X227080000Y-57270000D01*
G37*
X227080000Y-57270000D02*
X226900000Y-57530000D01*
X226720000Y-57270000D01*
X226720000Y-56000000D01*
X227080000Y-56000000D01*
X227080000Y-57270000D01*
G36*
X226280000Y-57270000D02*
G01*
X226100000Y-57530000D01*
X225920000Y-57270000D01*
X225920000Y-56000000D01*
X226280000Y-56000000D01*
X226280000Y-57270000D01*
G37*
X226280000Y-57270000D02*
X226100000Y-57530000D01*
X225920000Y-57270000D01*
X225920000Y-56000000D01*
X226280000Y-56000000D01*
X226280000Y-57270000D01*
G36*
X225480000Y-57270000D02*
G01*
X225300000Y-57530000D01*
X225120000Y-57270000D01*
X225120000Y-56000000D01*
X225480000Y-56000000D01*
X225480000Y-57270000D01*
G37*
X225480000Y-57270000D02*
X225300000Y-57530000D01*
X225120000Y-57270000D01*
X225120000Y-56000000D01*
X225480000Y-56000000D01*
X225480000Y-57270000D01*
G36*
X224680000Y-57270000D02*
G01*
X224500000Y-57530000D01*
X224320000Y-57270000D01*
X224320000Y-56000000D01*
X224680000Y-56000000D01*
X224680000Y-57270000D01*
G37*
X224680000Y-57270000D02*
X224500000Y-57530000D01*
X224320000Y-57270000D01*
X224320000Y-56000000D01*
X224680000Y-56000000D01*
X224680000Y-57270000D01*
G36*
X223880000Y-57270000D02*
G01*
X223700000Y-57530000D01*
X223520000Y-57270000D01*
X223520000Y-56000000D01*
X223880000Y-56000000D01*
X223880000Y-57270000D01*
G37*
X223880000Y-57270000D02*
X223700000Y-57530000D01*
X223520000Y-57270000D01*
X223520000Y-56000000D01*
X223880000Y-56000000D01*
X223880000Y-57270000D01*
G36*
X223080000Y-57270000D02*
G01*
X222900000Y-57530000D01*
X222720000Y-57270000D01*
X222720000Y-56000000D01*
X223080000Y-56000000D01*
X223080000Y-57270000D01*
G37*
X223080000Y-57270000D02*
X222900000Y-57530000D01*
X222720000Y-57270000D01*
X222720000Y-56000000D01*
X223080000Y-56000000D01*
X223080000Y-57270000D01*
G36*
X63080000Y270000D02*
G01*
X63080000Y-1000000D01*
X62720000Y-1000000D01*
X62720000Y270000D01*
X62900000Y530000D01*
X63080000Y270000D01*
G37*
X63080000Y270000D02*
X63080000Y-1000000D01*
X62720000Y-1000000D01*
X62720000Y270000D01*
X62900000Y530000D01*
X63080000Y270000D01*
G36*
X63880000Y270000D02*
G01*
X63880000Y-1000000D01*
X63520000Y-1000000D01*
X63520000Y270000D01*
X63700000Y530000D01*
X63880000Y270000D01*
G37*
X63880000Y270000D02*
X63880000Y-1000000D01*
X63520000Y-1000000D01*
X63520000Y270000D01*
X63700000Y530000D01*
X63880000Y270000D01*
G36*
X64680000Y270000D02*
G01*
X64680000Y-1000000D01*
X64320000Y-1000000D01*
X64320000Y270000D01*
X64500000Y530000D01*
X64680000Y270000D01*
G37*
X64680000Y270000D02*
X64680000Y-1000000D01*
X64320000Y-1000000D01*
X64320000Y270000D01*
X64500000Y530000D01*
X64680000Y270000D01*
G36*
X65480000Y270000D02*
G01*
X65480000Y-1000000D01*
X65120000Y-1000000D01*
X65120000Y270000D01*
X65300000Y530000D01*
X65480000Y270000D01*
G37*
X65480000Y270000D02*
X65480000Y-1000000D01*
X65120000Y-1000000D01*
X65120000Y270000D01*
X65300000Y530000D01*
X65480000Y270000D01*
G36*
X66280000Y270000D02*
G01*
X66280000Y-1000000D01*
X65920000Y-1000000D01*
X65920000Y270000D01*
X66100000Y530000D01*
X66280000Y270000D01*
G37*
X66280000Y270000D02*
X66280000Y-1000000D01*
X65920000Y-1000000D01*
X65920000Y270000D01*
X66100000Y530000D01*
X66280000Y270000D01*
G36*
X67080000Y270000D02*
G01*
X67080000Y-1000000D01*
X66720000Y-1000000D01*
X66720000Y270000D01*
X66900000Y530000D01*
X67080000Y270000D01*
G37*
X67080000Y270000D02*
X67080000Y-1000000D01*
X66720000Y-1000000D01*
X66720000Y270000D01*
X66900000Y530000D01*
X67080000Y270000D01*
G36*
X67880000Y270000D02*
G01*
X67880000Y-1000000D01*
X67520000Y-1000000D01*
X67520000Y270000D01*
X67700000Y530000D01*
X67880000Y270000D01*
G37*
X67880000Y270000D02*
X67880000Y-1000000D01*
X67520000Y-1000000D01*
X67520000Y270000D01*
X67700000Y530000D01*
X67880000Y270000D01*
G36*
X68680000Y270000D02*
G01*
X68680000Y-1000000D01*
X68320000Y-1000000D01*
X68320000Y270000D01*
X68500000Y530000D01*
X68680000Y270000D01*
G37*
X68680000Y270000D02*
X68680000Y-1000000D01*
X68320000Y-1000000D01*
X68320000Y270000D01*
X68500000Y530000D01*
X68680000Y270000D01*
G36*
X69480000Y270000D02*
G01*
X69480000Y-1000000D01*
X69120000Y-1000000D01*
X69120000Y270000D01*
X69300000Y530000D01*
X69480000Y270000D01*
G37*
X69480000Y270000D02*
X69480000Y-1000000D01*
X69120000Y-1000000D01*
X69120000Y270000D01*
X69300000Y530000D01*
X69480000Y270000D01*
G36*
X70280000Y270000D02*
G01*
X70280000Y-1000000D01*
X69920000Y-1000000D01*
X69920000Y270000D01*
X70100000Y530000D01*
X70280000Y270000D01*
G37*
X70280000Y270000D02*
X70280000Y-1000000D01*
X69920000Y-1000000D01*
X69920000Y270000D01*
X70100000Y530000D01*
X70280000Y270000D01*
G36*
X71080000Y270000D02*
G01*
X71080000Y-1000000D01*
X70720000Y-1000000D01*
X70720000Y270000D01*
X70900000Y530000D01*
X71080000Y270000D01*
G37*
X71080000Y270000D02*
X71080000Y-1000000D01*
X70720000Y-1000000D01*
X70720000Y270000D01*
X70900000Y530000D01*
X71080000Y270000D01*
G36*
X71880000Y270000D02*
G01*
X71880000Y-1000000D01*
X71520000Y-1000000D01*
X71520000Y270000D01*
X71700000Y530000D01*
X71880000Y270000D01*
G37*
X71880000Y270000D02*
X71880000Y-1000000D01*
X71520000Y-1000000D01*
X71520000Y270000D01*
X71700000Y530000D01*
X71880000Y270000D01*
G36*
X72680000Y270000D02*
G01*
X72680000Y-1000000D01*
X72320000Y-1000000D01*
X72320000Y270000D01*
X72500000Y530000D01*
X72680000Y270000D01*
G37*
X72680000Y270000D02*
X72680000Y-1000000D01*
X72320000Y-1000000D01*
X72320000Y270000D01*
X72500000Y530000D01*
X72680000Y270000D01*
G36*
X73480000Y270000D02*
G01*
X73480000Y-1000000D01*
X73120000Y-1000000D01*
X73120000Y270000D01*
X73300000Y530000D01*
X73480000Y270000D01*
G37*
X73480000Y270000D02*
X73480000Y-1000000D01*
X73120000Y-1000000D01*
X73120000Y270000D01*
X73300000Y530000D01*
X73480000Y270000D01*
G36*
X74280000Y270000D02*
G01*
X74280000Y-1000000D01*
X73920000Y-1000000D01*
X73920000Y270000D01*
X74100000Y530000D01*
X74280000Y270000D01*
G37*
X74280000Y270000D02*
X74280000Y-1000000D01*
X73920000Y-1000000D01*
X73920000Y270000D01*
X74100000Y530000D01*
X74280000Y270000D01*
G36*
X75080000Y270000D02*
G01*
X75080000Y-1000000D01*
X74720000Y-1000000D01*
X74720000Y270000D01*
X74900000Y530000D01*
X75080000Y270000D01*
G37*
X75080000Y270000D02*
X75080000Y-1000000D01*
X74720000Y-1000000D01*
X74720000Y270000D01*
X74900000Y530000D01*
X75080000Y270000D01*
G36*
X75880000Y270000D02*
G01*
X75880000Y-1000000D01*
X75520000Y-1000000D01*
X75520000Y270000D01*
X75700000Y530000D01*
X75880000Y270000D01*
G37*
X75880000Y270000D02*
X75880000Y-1000000D01*
X75520000Y-1000000D01*
X75520000Y270000D01*
X75700000Y530000D01*
X75880000Y270000D01*
G36*
X76680000Y270000D02*
G01*
X76680000Y-1000000D01*
X76320000Y-1000000D01*
X76320000Y270000D01*
X76500000Y530000D01*
X76680000Y270000D01*
G37*
X76680000Y270000D02*
X76680000Y-1000000D01*
X76320000Y-1000000D01*
X76320000Y270000D01*
X76500000Y530000D01*
X76680000Y270000D01*
G36*
X77480000Y270000D02*
G01*
X77480000Y-1000000D01*
X77120000Y-1000000D01*
X77120000Y270000D01*
X77300000Y530000D01*
X77480000Y270000D01*
G37*
X77480000Y270000D02*
X77480000Y-1000000D01*
X77120000Y-1000000D01*
X77120000Y270000D01*
X77300000Y530000D01*
X77480000Y270000D01*
G36*
X78280000Y270000D02*
G01*
X78280000Y-1000000D01*
X77920000Y-1000000D01*
X77920000Y270000D01*
X78100000Y530000D01*
X78280000Y270000D01*
G37*
X78280000Y270000D02*
X78280000Y-1000000D01*
X77920000Y-1000000D01*
X77920000Y270000D01*
X78100000Y530000D01*
X78280000Y270000D01*
G36*
X79080000Y270000D02*
G01*
X79080000Y-1000000D01*
X78720000Y-1000000D01*
X78720000Y270000D01*
X78900000Y530000D01*
X79080000Y270000D01*
G37*
X79080000Y270000D02*
X79080000Y-1000000D01*
X78720000Y-1000000D01*
X78720000Y270000D01*
X78900000Y530000D01*
X79080000Y270000D01*
G36*
X79880000Y270000D02*
G01*
X79880000Y-1000000D01*
X79520000Y-1000000D01*
X79520000Y270000D01*
X79700000Y530000D01*
X79880000Y270000D01*
G37*
X79880000Y270000D02*
X79880000Y-1000000D01*
X79520000Y-1000000D01*
X79520000Y270000D01*
X79700000Y530000D01*
X79880000Y270000D01*
G36*
X80680000Y270000D02*
G01*
X80680000Y-1000000D01*
X80320000Y-1000000D01*
X80320000Y270000D01*
X80500000Y530000D01*
X80680000Y270000D01*
G37*
X80680000Y270000D02*
X80680000Y-1000000D01*
X80320000Y-1000000D01*
X80320000Y270000D01*
X80500000Y530000D01*
X80680000Y270000D01*
G36*
X81480000Y270000D02*
G01*
X81480000Y-1000000D01*
X81120000Y-1000000D01*
X81120000Y270000D01*
X81300000Y530000D01*
X81480000Y270000D01*
G37*
X81480000Y270000D02*
X81480000Y-1000000D01*
X81120000Y-1000000D01*
X81120000Y270000D01*
X81300000Y530000D01*
X81480000Y270000D01*
G36*
X82280000Y270000D02*
G01*
X82280000Y-1000000D01*
X81920000Y-1000000D01*
X81920000Y270000D01*
X82100000Y530000D01*
X82280000Y270000D01*
G37*
X82280000Y270000D02*
X82280000Y-1000000D01*
X81920000Y-1000000D01*
X81920000Y270000D01*
X82100000Y530000D01*
X82280000Y270000D01*
G36*
X83080000Y270000D02*
G01*
X83080000Y-1000000D01*
X82720000Y-1000000D01*
X82720000Y270000D01*
X82900000Y530000D01*
X83080000Y270000D01*
G37*
X83080000Y270000D02*
X83080000Y-1000000D01*
X82720000Y-1000000D01*
X82720000Y270000D01*
X82900000Y530000D01*
X83080000Y270000D01*
G36*
X83880000Y270000D02*
G01*
X83880000Y-1000000D01*
X83520000Y-1000000D01*
X83520000Y270000D01*
X83700000Y530000D01*
X83880000Y270000D01*
G37*
X83880000Y270000D02*
X83880000Y-1000000D01*
X83520000Y-1000000D01*
X83520000Y270000D01*
X83700000Y530000D01*
X83880000Y270000D01*
G36*
X84680000Y270000D02*
G01*
X84680000Y-1000000D01*
X84320000Y-1000000D01*
X84320000Y270000D01*
X84500000Y530000D01*
X84680000Y270000D01*
G37*
X84680000Y270000D02*
X84680000Y-1000000D01*
X84320000Y-1000000D01*
X84320000Y270000D01*
X84500000Y530000D01*
X84680000Y270000D01*
G36*
X85480000Y270000D02*
G01*
X85480000Y-1000000D01*
X85120000Y-1000000D01*
X85120000Y270000D01*
X85300000Y530000D01*
X85480000Y270000D01*
G37*
X85480000Y270000D02*
X85480000Y-1000000D01*
X85120000Y-1000000D01*
X85120000Y270000D01*
X85300000Y530000D01*
X85480000Y270000D01*
G36*
X86280000Y270000D02*
G01*
X86280000Y-1000000D01*
X85920000Y-1000000D01*
X85920000Y270000D01*
X86100000Y530000D01*
X86280000Y270000D01*
G37*
X86280000Y270000D02*
X86280000Y-1000000D01*
X85920000Y-1000000D01*
X85920000Y270000D01*
X86100000Y530000D01*
X86280000Y270000D01*
G36*
X87080000Y270000D02*
G01*
X87080000Y-1000000D01*
X86720000Y-1000000D01*
X86720000Y270000D01*
X86900000Y530000D01*
X87080000Y270000D01*
G37*
X87080000Y270000D02*
X87080000Y-1000000D01*
X86720000Y-1000000D01*
X86720000Y270000D01*
X86900000Y530000D01*
X87080000Y270000D01*
G36*
X87880000Y270000D02*
G01*
X87880000Y-1000000D01*
X87520000Y-1000000D01*
X87520000Y270000D01*
X87700000Y530000D01*
X87880000Y270000D01*
G37*
X87880000Y270000D02*
X87880000Y-1000000D01*
X87520000Y-1000000D01*
X87520000Y270000D01*
X87700000Y530000D01*
X87880000Y270000D01*
G36*
X88680000Y270000D02*
G01*
X88680000Y-1000000D01*
X88320000Y-1000000D01*
X88320000Y270000D01*
X88500000Y530000D01*
X88680000Y270000D01*
G37*
X88680000Y270000D02*
X88680000Y-1000000D01*
X88320000Y-1000000D01*
X88320000Y270000D01*
X88500000Y530000D01*
X88680000Y270000D01*
G36*
X89480000Y270000D02*
G01*
X89480000Y-1000000D01*
X89120000Y-1000000D01*
X89120000Y270000D01*
X89300000Y530000D01*
X89480000Y270000D01*
G37*
X89480000Y270000D02*
X89480000Y-1000000D01*
X89120000Y-1000000D01*
X89120000Y270000D01*
X89300000Y530000D01*
X89480000Y270000D01*
G36*
X90280000Y270000D02*
G01*
X90280000Y-1000000D01*
X89920000Y-1000000D01*
X89920000Y270000D01*
X90100000Y530000D01*
X90280000Y270000D01*
G37*
X90280000Y270000D02*
X90280000Y-1000000D01*
X89920000Y-1000000D01*
X89920000Y270000D01*
X90100000Y530000D01*
X90280000Y270000D01*
G36*
X91080000Y270000D02*
G01*
X91080000Y-1000000D01*
X90720000Y-1000000D01*
X90720000Y270000D01*
X90900000Y530000D01*
X91080000Y270000D01*
G37*
X91080000Y270000D02*
X91080000Y-1000000D01*
X90720000Y-1000000D01*
X90720000Y270000D01*
X90900000Y530000D01*
X91080000Y270000D01*
G36*
X91880000Y270000D02*
G01*
X91880000Y-1000000D01*
X91520000Y-1000000D01*
X91520000Y270000D01*
X91700000Y530000D01*
X91880000Y270000D01*
G37*
X91880000Y270000D02*
X91880000Y-1000000D01*
X91520000Y-1000000D01*
X91520000Y270000D01*
X91700000Y530000D01*
X91880000Y270000D01*
G36*
X92680000Y270000D02*
G01*
X92680000Y-1000000D01*
X92320000Y-1000000D01*
X92320000Y270000D01*
X92500000Y530000D01*
X92680000Y270000D01*
G37*
X92680000Y270000D02*
X92680000Y-1000000D01*
X92320000Y-1000000D01*
X92320000Y270000D01*
X92500000Y530000D01*
X92680000Y270000D01*
G36*
X93480000Y270000D02*
G01*
X93480000Y-1000000D01*
X93120000Y-1000000D01*
X93120000Y270000D01*
X93300000Y530000D01*
X93480000Y270000D01*
G37*
X93480000Y270000D02*
X93480000Y-1000000D01*
X93120000Y-1000000D01*
X93120000Y270000D01*
X93300000Y530000D01*
X93480000Y270000D01*
G36*
X94280000Y270000D02*
G01*
X94280000Y-1000000D01*
X93920000Y-1000000D01*
X93920000Y270000D01*
X94100000Y530000D01*
X94280000Y270000D01*
G37*
X94280000Y270000D02*
X94280000Y-1000000D01*
X93920000Y-1000000D01*
X93920000Y270000D01*
X94100000Y530000D01*
X94280000Y270000D01*
G36*
X95080000Y270000D02*
G01*
X95080000Y-1000000D01*
X94720000Y-1000000D01*
X94720000Y270000D01*
X94900000Y530000D01*
X95080000Y270000D01*
G37*
X95080000Y270000D02*
X95080000Y-1000000D01*
X94720000Y-1000000D01*
X94720000Y270000D01*
X94900000Y530000D01*
X95080000Y270000D01*
G36*
X95880000Y270000D02*
G01*
X95880000Y-1000000D01*
X95520000Y-1000000D01*
X95520000Y270000D01*
X95700000Y530000D01*
X95880000Y270000D01*
G37*
X95880000Y270000D02*
X95880000Y-1000000D01*
X95520000Y-1000000D01*
X95520000Y270000D01*
X95700000Y530000D01*
X95880000Y270000D01*
G36*
X96680000Y270000D02*
G01*
X96680000Y-1000000D01*
X96320000Y-1000000D01*
X96320000Y270000D01*
X96500000Y530000D01*
X96680000Y270000D01*
G37*
X96680000Y270000D02*
X96680000Y-1000000D01*
X96320000Y-1000000D01*
X96320000Y270000D01*
X96500000Y530000D01*
X96680000Y270000D01*
G36*
X97480000Y270000D02*
G01*
X97480000Y-1000000D01*
X97120000Y-1000000D01*
X97120000Y270000D01*
X97300000Y530000D01*
X97480000Y270000D01*
G37*
X97480000Y270000D02*
X97480000Y-1000000D01*
X97120000Y-1000000D01*
X97120000Y270000D01*
X97300000Y530000D01*
X97480000Y270000D01*
G36*
X98280000Y270000D02*
G01*
X98280000Y-1000000D01*
X97920000Y-1000000D01*
X97920000Y270000D01*
X98100000Y530000D01*
X98280000Y270000D01*
G37*
X98280000Y270000D02*
X98280000Y-1000000D01*
X97920000Y-1000000D01*
X97920000Y270000D01*
X98100000Y530000D01*
X98280000Y270000D01*
G36*
X99080000Y270000D02*
G01*
X99080000Y-1000000D01*
X98720000Y-1000000D01*
X98720000Y270000D01*
X98900000Y530000D01*
X99080000Y270000D01*
G37*
X99080000Y270000D02*
X99080000Y-1000000D01*
X98720000Y-1000000D01*
X98720000Y270000D01*
X98900000Y530000D01*
X99080000Y270000D01*
G36*
X99880000Y270000D02*
G01*
X99880000Y-1000000D01*
X99520000Y-1000000D01*
X99520000Y270000D01*
X99700000Y530000D01*
X99880000Y270000D01*
G37*
X99880000Y270000D02*
X99880000Y-1000000D01*
X99520000Y-1000000D01*
X99520000Y270000D01*
X99700000Y530000D01*
X99880000Y270000D01*
G36*
X100680000Y270000D02*
G01*
X100680000Y-1000000D01*
X100320000Y-1000000D01*
X100320000Y270000D01*
X100500000Y530000D01*
X100680000Y270000D01*
G37*
X100680000Y270000D02*
X100680000Y-1000000D01*
X100320000Y-1000000D01*
X100320000Y270000D01*
X100500000Y530000D01*
X100680000Y270000D01*
G36*
X101480000Y270000D02*
G01*
X101480000Y-1000000D01*
X101120000Y-1000000D01*
X101120000Y270000D01*
X101300000Y530000D01*
X101480000Y270000D01*
G37*
X101480000Y270000D02*
X101480000Y-1000000D01*
X101120000Y-1000000D01*
X101120000Y270000D01*
X101300000Y530000D01*
X101480000Y270000D01*
G36*
X102280000Y270000D02*
G01*
X102280000Y-1000000D01*
X101920000Y-1000000D01*
X101920000Y270000D01*
X102100000Y530000D01*
X102280000Y270000D01*
G37*
X102280000Y270000D02*
X102280000Y-1000000D01*
X101920000Y-1000000D01*
X101920000Y270000D01*
X102100000Y530000D01*
X102280000Y270000D01*
G36*
X223080000Y270000D02*
G01*
X223080000Y-1000000D01*
X222720000Y-1000000D01*
X222720000Y270000D01*
X222900000Y530000D01*
X223080000Y270000D01*
G37*
X223080000Y270000D02*
X223080000Y-1000000D01*
X222720000Y-1000000D01*
X222720000Y270000D01*
X222900000Y530000D01*
X223080000Y270000D01*
G36*
X223880000Y270000D02*
G01*
X223880000Y-1000000D01*
X223520000Y-1000000D01*
X223520000Y270000D01*
X223700000Y530000D01*
X223880000Y270000D01*
G37*
X223880000Y270000D02*
X223880000Y-1000000D01*
X223520000Y-1000000D01*
X223520000Y270000D01*
X223700000Y530000D01*
X223880000Y270000D01*
G36*
X224680000Y270000D02*
G01*
X224680000Y-1000000D01*
X224320000Y-1000000D01*
X224320000Y270000D01*
X224500000Y530000D01*
X224680000Y270000D01*
G37*
X224680000Y270000D02*
X224680000Y-1000000D01*
X224320000Y-1000000D01*
X224320000Y270000D01*
X224500000Y530000D01*
X224680000Y270000D01*
G36*
X225480000Y270000D02*
G01*
X225480000Y-1000000D01*
X225120000Y-1000000D01*
X225120000Y270000D01*
X225300000Y530000D01*
X225480000Y270000D01*
G37*
X225480000Y270000D02*
X225480000Y-1000000D01*
X225120000Y-1000000D01*
X225120000Y270000D01*
X225300000Y530000D01*
X225480000Y270000D01*
G36*
X226280000Y270000D02*
G01*
X226280000Y-1000000D01*
X225920000Y-1000000D01*
X225920000Y270000D01*
X226100000Y530000D01*
X226280000Y270000D01*
G37*
X226280000Y270000D02*
X226280000Y-1000000D01*
X225920000Y-1000000D01*
X225920000Y270000D01*
X226100000Y530000D01*
X226280000Y270000D01*
G36*
X227080000Y270000D02*
G01*
X227080000Y-1000000D01*
X226720000Y-1000000D01*
X226720000Y270000D01*
X226900000Y530000D01*
X227080000Y270000D01*
G37*
X227080000Y270000D02*
X227080000Y-1000000D01*
X226720000Y-1000000D01*
X226720000Y270000D01*
X226900000Y530000D01*
X227080000Y270000D01*
G36*
X227880000Y270000D02*
G01*
X227880000Y-1000000D01*
X227520000Y-1000000D01*
X227520000Y270000D01*
X227700000Y530000D01*
X227880000Y270000D01*
G37*
X227880000Y270000D02*
X227880000Y-1000000D01*
X227520000Y-1000000D01*
X227520000Y270000D01*
X227700000Y530000D01*
X227880000Y270000D01*
G36*
X228680000Y270000D02*
G01*
X228680000Y-1000000D01*
X228320000Y-1000000D01*
X228320000Y270000D01*
X228500000Y530000D01*
X228680000Y270000D01*
G37*
X228680000Y270000D02*
X228680000Y-1000000D01*
X228320000Y-1000000D01*
X228320000Y270000D01*
X228500000Y530000D01*
X228680000Y270000D01*
G36*
X229480000Y270000D02*
G01*
X229480000Y-1000000D01*
X229120000Y-1000000D01*
X229120000Y270000D01*
X229300000Y530000D01*
X229480000Y270000D01*
G37*
X229480000Y270000D02*
X229480000Y-1000000D01*
X229120000Y-1000000D01*
X229120000Y270000D01*
X229300000Y530000D01*
X229480000Y270000D01*
G36*
X230280000Y270000D02*
G01*
X230280000Y-1000000D01*
X229920000Y-1000000D01*
X229920000Y270000D01*
X230100000Y530000D01*
X230280000Y270000D01*
G37*
X230280000Y270000D02*
X230280000Y-1000000D01*
X229920000Y-1000000D01*
X229920000Y270000D01*
X230100000Y530000D01*
X230280000Y270000D01*
G36*
X231080000Y270000D02*
G01*
X231080000Y-1000000D01*
X230720000Y-1000000D01*
X230720000Y270000D01*
X230900000Y530000D01*
X231080000Y270000D01*
G37*
X231080000Y270000D02*
X231080000Y-1000000D01*
X230720000Y-1000000D01*
X230720000Y270000D01*
X230900000Y530000D01*
X231080000Y270000D01*
G36*
X231880000Y270000D02*
G01*
X231880000Y-1000000D01*
X231520000Y-1000000D01*
X231520000Y270000D01*
X231700000Y530000D01*
X231880000Y270000D01*
G37*
X231880000Y270000D02*
X231880000Y-1000000D01*
X231520000Y-1000000D01*
X231520000Y270000D01*
X231700000Y530000D01*
X231880000Y270000D01*
G36*
X232680000Y270000D02*
G01*
X232680000Y-1000000D01*
X232320000Y-1000000D01*
X232320000Y270000D01*
X232500000Y530000D01*
X232680000Y270000D01*
G37*
X232680000Y270000D02*
X232680000Y-1000000D01*
X232320000Y-1000000D01*
X232320000Y270000D01*
X232500000Y530000D01*
X232680000Y270000D01*
G36*
X233480000Y270000D02*
G01*
X233480000Y-1000000D01*
X233120000Y-1000000D01*
X233120000Y270000D01*
X233300000Y530000D01*
X233480000Y270000D01*
G37*
X233480000Y270000D02*
X233480000Y-1000000D01*
X233120000Y-1000000D01*
X233120000Y270000D01*
X233300000Y530000D01*
X233480000Y270000D01*
G36*
X234280000Y270000D02*
G01*
X234280000Y-1000000D01*
X233920000Y-1000000D01*
X233920000Y270000D01*
X234100000Y530000D01*
X234280000Y270000D01*
G37*
X234280000Y270000D02*
X234280000Y-1000000D01*
X233920000Y-1000000D01*
X233920000Y270000D01*
X234100000Y530000D01*
X234280000Y270000D01*
G36*
X235080000Y270000D02*
G01*
X235080000Y-1000000D01*
X234720000Y-1000000D01*
X234720000Y270000D01*
X234900000Y530000D01*
X235080000Y270000D01*
G37*
X235080000Y270000D02*
X235080000Y-1000000D01*
X234720000Y-1000000D01*
X234720000Y270000D01*
X234900000Y530000D01*
X235080000Y270000D01*
G36*
X235880000Y270000D02*
G01*
X235880000Y-1000000D01*
X235520000Y-1000000D01*
X235520000Y270000D01*
X235700000Y530000D01*
X235880000Y270000D01*
G37*
X235880000Y270000D02*
X235880000Y-1000000D01*
X235520000Y-1000000D01*
X235520000Y270000D01*
X235700000Y530000D01*
X235880000Y270000D01*
G36*
X236680000Y270000D02*
G01*
X236680000Y-1000000D01*
X236320000Y-1000000D01*
X236320000Y270000D01*
X236500000Y530000D01*
X236680000Y270000D01*
G37*
X236680000Y270000D02*
X236680000Y-1000000D01*
X236320000Y-1000000D01*
X236320000Y270000D01*
X236500000Y530000D01*
X236680000Y270000D01*
G36*
X237480000Y270000D02*
G01*
X237480000Y-1000000D01*
X237120000Y-1000000D01*
X237120000Y270000D01*
X237300000Y530000D01*
X237480000Y270000D01*
G37*
X237480000Y270000D02*
X237480000Y-1000000D01*
X237120000Y-1000000D01*
X237120000Y270000D01*
X237300000Y530000D01*
X237480000Y270000D01*
G36*
X238280000Y270000D02*
G01*
X238280000Y-1000000D01*
X237920000Y-1000000D01*
X237920000Y270000D01*
X238100000Y530000D01*
X238280000Y270000D01*
G37*
X238280000Y270000D02*
X238280000Y-1000000D01*
X237920000Y-1000000D01*
X237920000Y270000D01*
X238100000Y530000D01*
X238280000Y270000D01*
G36*
X239080000Y270000D02*
G01*
X239080000Y-1000000D01*
X238720000Y-1000000D01*
X238720000Y270000D01*
X238900000Y530000D01*
X239080000Y270000D01*
G37*
X239080000Y270000D02*
X239080000Y-1000000D01*
X238720000Y-1000000D01*
X238720000Y270000D01*
X238900000Y530000D01*
X239080000Y270000D01*
G36*
X239880000Y270000D02*
G01*
X239880000Y-1000000D01*
X239520000Y-1000000D01*
X239520000Y270000D01*
X239700000Y530000D01*
X239880000Y270000D01*
G37*
X239880000Y270000D02*
X239880000Y-1000000D01*
X239520000Y-1000000D01*
X239520000Y270000D01*
X239700000Y530000D01*
X239880000Y270000D01*
G36*
X240680000Y270000D02*
G01*
X240680000Y-1000000D01*
X240320000Y-1000000D01*
X240320000Y270000D01*
X240500000Y530000D01*
X240680000Y270000D01*
G37*
X240680000Y270000D02*
X240680000Y-1000000D01*
X240320000Y-1000000D01*
X240320000Y270000D01*
X240500000Y530000D01*
X240680000Y270000D01*
G36*
X241480000Y270000D02*
G01*
X241480000Y-1000000D01*
X241120000Y-1000000D01*
X241120000Y270000D01*
X241300000Y530000D01*
X241480000Y270000D01*
G37*
X241480000Y270000D02*
X241480000Y-1000000D01*
X241120000Y-1000000D01*
X241120000Y270000D01*
X241300000Y530000D01*
X241480000Y270000D01*
G36*
X242280000Y270000D02*
G01*
X242280000Y-1000000D01*
X241920000Y-1000000D01*
X241920000Y270000D01*
X242100000Y530000D01*
X242280000Y270000D01*
G37*
X242280000Y270000D02*
X242280000Y-1000000D01*
X241920000Y-1000000D01*
X241920000Y270000D01*
X242100000Y530000D01*
X242280000Y270000D01*
G36*
X243080000Y270000D02*
G01*
X243080000Y-1000000D01*
X242720000Y-1000000D01*
X242720000Y270000D01*
X242900000Y530000D01*
X243080000Y270000D01*
G37*
X243080000Y270000D02*
X243080000Y-1000000D01*
X242720000Y-1000000D01*
X242720000Y270000D01*
X242900000Y530000D01*
X243080000Y270000D01*
G36*
X243880000Y270000D02*
G01*
X243880000Y-1000000D01*
X243520000Y-1000000D01*
X243520000Y270000D01*
X243700000Y530000D01*
X243880000Y270000D01*
G37*
X243880000Y270000D02*
X243880000Y-1000000D01*
X243520000Y-1000000D01*
X243520000Y270000D01*
X243700000Y530000D01*
X243880000Y270000D01*
G36*
X244680000Y270000D02*
G01*
X244680000Y-1000000D01*
X244320000Y-1000000D01*
X244320000Y270000D01*
X244500000Y530000D01*
X244680000Y270000D01*
G37*
X244680000Y270000D02*
X244680000Y-1000000D01*
X244320000Y-1000000D01*
X244320000Y270000D01*
X244500000Y530000D01*
X244680000Y270000D01*
G36*
X245480000Y270000D02*
G01*
X245480000Y-1000000D01*
X245120000Y-1000000D01*
X245120000Y270000D01*
X245300000Y530000D01*
X245480000Y270000D01*
G37*
X245480000Y270000D02*
X245480000Y-1000000D01*
X245120000Y-1000000D01*
X245120000Y270000D01*
X245300000Y530000D01*
X245480000Y270000D01*
G36*
X246280000Y270000D02*
G01*
X246280000Y-1000000D01*
X245920000Y-1000000D01*
X245920000Y270000D01*
X246100000Y530000D01*
X246280000Y270000D01*
G37*
X246280000Y270000D02*
X246280000Y-1000000D01*
X245920000Y-1000000D01*
X245920000Y270000D01*
X246100000Y530000D01*
X246280000Y270000D01*
G36*
X247080000Y270000D02*
G01*
X247080000Y-1000000D01*
X246720000Y-1000000D01*
X246720000Y270000D01*
X246900000Y530000D01*
X247080000Y270000D01*
G37*
X247080000Y270000D02*
X247080000Y-1000000D01*
X246720000Y-1000000D01*
X246720000Y270000D01*
X246900000Y530000D01*
X247080000Y270000D01*
G36*
X247880000Y270000D02*
G01*
X247880000Y-1000000D01*
X247520000Y-1000000D01*
X247520000Y270000D01*
X247700000Y530000D01*
X247880000Y270000D01*
G37*
X247880000Y270000D02*
X247880000Y-1000000D01*
X247520000Y-1000000D01*
X247520000Y270000D01*
X247700000Y530000D01*
X247880000Y270000D01*
G36*
X248680000Y270000D02*
G01*
X248680000Y-1000000D01*
X248320000Y-1000000D01*
X248320000Y270000D01*
X248500000Y530000D01*
X248680000Y270000D01*
G37*
X248680000Y270000D02*
X248680000Y-1000000D01*
X248320000Y-1000000D01*
X248320000Y270000D01*
X248500000Y530000D01*
X248680000Y270000D01*
G36*
X249480000Y270000D02*
G01*
X249480000Y-1000000D01*
X249120000Y-1000000D01*
X249120000Y270000D01*
X249300000Y530000D01*
X249480000Y270000D01*
G37*
X249480000Y270000D02*
X249480000Y-1000000D01*
X249120000Y-1000000D01*
X249120000Y270000D01*
X249300000Y530000D01*
X249480000Y270000D01*
G36*
X250280000Y270000D02*
G01*
X250280000Y-1000000D01*
X249920000Y-1000000D01*
X249920000Y270000D01*
X250100000Y530000D01*
X250280000Y270000D01*
G37*
X250280000Y270000D02*
X250280000Y-1000000D01*
X249920000Y-1000000D01*
X249920000Y270000D01*
X250100000Y530000D01*
X250280000Y270000D01*
G36*
X251080000Y270000D02*
G01*
X251080000Y-1000000D01*
X250720000Y-1000000D01*
X250720000Y270000D01*
X250900000Y530000D01*
X251080000Y270000D01*
G37*
X251080000Y270000D02*
X251080000Y-1000000D01*
X250720000Y-1000000D01*
X250720000Y270000D01*
X250900000Y530000D01*
X251080000Y270000D01*
G36*
X251880000Y270000D02*
G01*
X251880000Y-1000000D01*
X251520000Y-1000000D01*
X251520000Y270000D01*
X251700000Y530000D01*
X251880000Y270000D01*
G37*
X251880000Y270000D02*
X251880000Y-1000000D01*
X251520000Y-1000000D01*
X251520000Y270000D01*
X251700000Y530000D01*
X251880000Y270000D01*
G36*
X252680000Y270000D02*
G01*
X252680000Y-1000000D01*
X252320000Y-1000000D01*
X252320000Y270000D01*
X252500000Y530000D01*
X252680000Y270000D01*
G37*
X252680000Y270000D02*
X252680000Y-1000000D01*
X252320000Y-1000000D01*
X252320000Y270000D01*
X252500000Y530000D01*
X252680000Y270000D01*
G36*
X253480000Y270000D02*
G01*
X253480000Y-1000000D01*
X253120000Y-1000000D01*
X253120000Y270000D01*
X253300000Y530000D01*
X253480000Y270000D01*
G37*
X253480000Y270000D02*
X253480000Y-1000000D01*
X253120000Y-1000000D01*
X253120000Y270000D01*
X253300000Y530000D01*
X253480000Y270000D01*
G36*
X254280000Y270000D02*
G01*
X254280000Y-1000000D01*
X253920000Y-1000000D01*
X253920000Y270000D01*
X254100000Y530000D01*
X254280000Y270000D01*
G37*
X254280000Y270000D02*
X254280000Y-1000000D01*
X253920000Y-1000000D01*
X253920000Y270000D01*
X254100000Y530000D01*
X254280000Y270000D01*
G36*
X255080000Y270000D02*
G01*
X255080000Y-1000000D01*
X254720000Y-1000000D01*
X254720000Y270000D01*
X254900000Y530000D01*
X255080000Y270000D01*
G37*
X255080000Y270000D02*
X255080000Y-1000000D01*
X254720000Y-1000000D01*
X254720000Y270000D01*
X254900000Y530000D01*
X255080000Y270000D01*
G36*
X255880000Y270000D02*
G01*
X255880000Y-1000000D01*
X255520000Y-1000000D01*
X255520000Y270000D01*
X255700000Y530000D01*
X255880000Y270000D01*
G37*
X255880000Y270000D02*
X255880000Y-1000000D01*
X255520000Y-1000000D01*
X255520000Y270000D01*
X255700000Y530000D01*
X255880000Y270000D01*
G36*
X256680000Y270000D02*
G01*
X256680000Y-1000000D01*
X256320000Y-1000000D01*
X256320000Y270000D01*
X256500000Y530000D01*
X256680000Y270000D01*
G37*
X256680000Y270000D02*
X256680000Y-1000000D01*
X256320000Y-1000000D01*
X256320000Y270000D01*
X256500000Y530000D01*
X256680000Y270000D01*
G36*
X257480000Y270000D02*
G01*
X257480000Y-1000000D01*
X257120000Y-1000000D01*
X257120000Y270000D01*
X257300000Y530000D01*
X257480000Y270000D01*
G37*
X257480000Y270000D02*
X257480000Y-1000000D01*
X257120000Y-1000000D01*
X257120000Y270000D01*
X257300000Y530000D01*
X257480000Y270000D01*
G36*
X258280000Y270000D02*
G01*
X258280000Y-1000000D01*
X257920000Y-1000000D01*
X257920000Y270000D01*
X258100000Y530000D01*
X258280000Y270000D01*
G37*
X258280000Y270000D02*
X258280000Y-1000000D01*
X257920000Y-1000000D01*
X257920000Y270000D01*
X258100000Y530000D01*
X258280000Y270000D01*
G36*
X259080000Y270000D02*
G01*
X259080000Y-1000000D01*
X258720000Y-1000000D01*
X258720000Y270000D01*
X258900000Y530000D01*
X259080000Y270000D01*
G37*
X259080000Y270000D02*
X259080000Y-1000000D01*
X258720000Y-1000000D01*
X258720000Y270000D01*
X258900000Y530000D01*
X259080000Y270000D01*
G36*
X259880000Y270000D02*
G01*
X259880000Y-1000000D01*
X259520000Y-1000000D01*
X259520000Y270000D01*
X259700000Y530000D01*
X259880000Y270000D01*
G37*
X259880000Y270000D02*
X259880000Y-1000000D01*
X259520000Y-1000000D01*
X259520000Y270000D01*
X259700000Y530000D01*
X259880000Y270000D01*
G36*
X260680000Y270000D02*
G01*
X260680000Y-1000000D01*
X260320000Y-1000000D01*
X260320000Y270000D01*
X260500000Y530000D01*
X260680000Y270000D01*
G37*
X260680000Y270000D02*
X260680000Y-1000000D01*
X260320000Y-1000000D01*
X260320000Y270000D01*
X260500000Y530000D01*
X260680000Y270000D01*
G36*
X261480000Y270000D02*
G01*
X261480000Y-1000000D01*
X261120000Y-1000000D01*
X261120000Y270000D01*
X261300000Y530000D01*
X261480000Y270000D01*
G37*
X261480000Y270000D02*
X261480000Y-1000000D01*
X261120000Y-1000000D01*
X261120000Y270000D01*
X261300000Y530000D01*
X261480000Y270000D01*
G36*
X262280000Y270000D02*
G01*
X262280000Y-1000000D01*
X261920000Y-1000000D01*
X261920000Y270000D01*
X262100000Y530000D01*
X262280000Y270000D01*
G37*
X262280000Y270000D02*
X262280000Y-1000000D01*
X261920000Y-1000000D01*
X261920000Y270000D01*
X262100000Y530000D01*
X262280000Y270000D01*
G36*
X102280000Y-57270000D02*
G01*
X102100000Y-57530000D01*
X101920000Y-57270000D01*
X101920000Y-56000000D01*
X102280000Y-56000000D01*
X102280000Y-57270000D01*
G37*
X102280000Y-57270000D02*
X102100000Y-57530000D01*
X101920000Y-57270000D01*
X101920000Y-56000000D01*
X102280000Y-56000000D01*
X102280000Y-57270000D01*
G36*
X101480000Y-57270000D02*
G01*
X101300000Y-57530000D01*
X101120000Y-57270000D01*
X101120000Y-56000000D01*
X101480000Y-56000000D01*
X101480000Y-57270000D01*
G37*
X101480000Y-57270000D02*
X101300000Y-57530000D01*
X101120000Y-57270000D01*
X101120000Y-56000000D01*
X101480000Y-56000000D01*
X101480000Y-57270000D01*
G36*
X100680000Y-57270000D02*
G01*
X100500000Y-57530000D01*
X100320000Y-57270000D01*
X100320000Y-56000000D01*
X100680000Y-56000000D01*
X100680000Y-57270000D01*
G37*
X100680000Y-57270000D02*
X100500000Y-57530000D01*
X100320000Y-57270000D01*
X100320000Y-56000000D01*
X100680000Y-56000000D01*
X100680000Y-57270000D01*
G36*
X99880000Y-57270000D02*
G01*
X99700000Y-57530000D01*
X99520000Y-57270000D01*
X99520000Y-56000000D01*
X99880000Y-56000000D01*
X99880000Y-57270000D01*
G37*
X99880000Y-57270000D02*
X99700000Y-57530000D01*
X99520000Y-57270000D01*
X99520000Y-56000000D01*
X99880000Y-56000000D01*
X99880000Y-57270000D01*
G36*
X99080000Y-57270000D02*
G01*
X98900000Y-57530000D01*
X98720000Y-57270000D01*
X98720000Y-56000000D01*
X99080000Y-56000000D01*
X99080000Y-57270000D01*
G37*
X99080000Y-57270000D02*
X98900000Y-57530000D01*
X98720000Y-57270000D01*
X98720000Y-56000000D01*
X99080000Y-56000000D01*
X99080000Y-57270000D01*
G36*
X98280000Y-57270000D02*
G01*
X98100000Y-57530000D01*
X97920000Y-57270000D01*
X97920000Y-56000000D01*
X98280000Y-56000000D01*
X98280000Y-57270000D01*
G37*
X98280000Y-57270000D02*
X98100000Y-57530000D01*
X97920000Y-57270000D01*
X97920000Y-56000000D01*
X98280000Y-56000000D01*
X98280000Y-57270000D01*
G36*
X97480000Y-57270000D02*
G01*
X97300000Y-57530000D01*
X97120000Y-57270000D01*
X97120000Y-56000000D01*
X97480000Y-56000000D01*
X97480000Y-57270000D01*
G37*
X97480000Y-57270000D02*
X97300000Y-57530000D01*
X97120000Y-57270000D01*
X97120000Y-56000000D01*
X97480000Y-56000000D01*
X97480000Y-57270000D01*
G36*
X96680000Y-57270000D02*
G01*
X96500000Y-57530000D01*
X96320000Y-57270000D01*
X96320000Y-56000000D01*
X96680000Y-56000000D01*
X96680000Y-57270000D01*
G37*
X96680000Y-57270000D02*
X96500000Y-57530000D01*
X96320000Y-57270000D01*
X96320000Y-56000000D01*
X96680000Y-56000000D01*
X96680000Y-57270000D01*
G36*
X95880000Y-57270000D02*
G01*
X95700000Y-57530000D01*
X95520000Y-57270000D01*
X95520000Y-56000000D01*
X95880000Y-56000000D01*
X95880000Y-57270000D01*
G37*
X95880000Y-57270000D02*
X95700000Y-57530000D01*
X95520000Y-57270000D01*
X95520000Y-56000000D01*
X95880000Y-56000000D01*
X95880000Y-57270000D01*
G36*
X95080000Y-57270000D02*
G01*
X94900000Y-57530000D01*
X94720000Y-57270000D01*
X94720000Y-56000000D01*
X95080000Y-56000000D01*
X95080000Y-57270000D01*
G37*
X95080000Y-57270000D02*
X94900000Y-57530000D01*
X94720000Y-57270000D01*
X94720000Y-56000000D01*
X95080000Y-56000000D01*
X95080000Y-57270000D01*
G36*
X94280000Y-57270000D02*
G01*
X94100000Y-57530000D01*
X93920000Y-57270000D01*
X93920000Y-56000000D01*
X94280000Y-56000000D01*
X94280000Y-57270000D01*
G37*
X94280000Y-57270000D02*
X94100000Y-57530000D01*
X93920000Y-57270000D01*
X93920000Y-56000000D01*
X94280000Y-56000000D01*
X94280000Y-57270000D01*
G36*
X93480000Y-57270000D02*
G01*
X93300000Y-57530000D01*
X93120000Y-57270000D01*
X93120000Y-56000000D01*
X93480000Y-56000000D01*
X93480000Y-57270000D01*
G37*
X93480000Y-57270000D02*
X93300000Y-57530000D01*
X93120000Y-57270000D01*
X93120000Y-56000000D01*
X93480000Y-56000000D01*
X93480000Y-57270000D01*
G36*
X92680000Y-57270000D02*
G01*
X92500000Y-57530000D01*
X92320000Y-57270000D01*
X92320000Y-56000000D01*
X92680000Y-56000000D01*
X92680000Y-57270000D01*
G37*
X92680000Y-57270000D02*
X92500000Y-57530000D01*
X92320000Y-57270000D01*
X92320000Y-56000000D01*
X92680000Y-56000000D01*
X92680000Y-57270000D01*
G36*
X91880000Y-57270000D02*
G01*
X91700000Y-57530000D01*
X91520000Y-57270000D01*
X91520000Y-56000000D01*
X91880000Y-56000000D01*
X91880000Y-57270000D01*
G37*
X91880000Y-57270000D02*
X91700000Y-57530000D01*
X91520000Y-57270000D01*
X91520000Y-56000000D01*
X91880000Y-56000000D01*
X91880000Y-57270000D01*
G36*
X91080000Y-57270000D02*
G01*
X90900000Y-57530000D01*
X90720000Y-57270000D01*
X90720000Y-56000000D01*
X91080000Y-56000000D01*
X91080000Y-57270000D01*
G37*
X91080000Y-57270000D02*
X90900000Y-57530000D01*
X90720000Y-57270000D01*
X90720000Y-56000000D01*
X91080000Y-56000000D01*
X91080000Y-57270000D01*
G36*
X90280000Y-57270000D02*
G01*
X90100000Y-57530000D01*
X89920000Y-57270000D01*
X89920000Y-56000000D01*
X90280000Y-56000000D01*
X90280000Y-57270000D01*
G37*
X90280000Y-57270000D02*
X90100000Y-57530000D01*
X89920000Y-57270000D01*
X89920000Y-56000000D01*
X90280000Y-56000000D01*
X90280000Y-57270000D01*
G36*
X89480000Y-57270000D02*
G01*
X89300000Y-57530000D01*
X89120000Y-57270000D01*
X89120000Y-56000000D01*
X89480000Y-56000000D01*
X89480000Y-57270000D01*
G37*
X89480000Y-57270000D02*
X89300000Y-57530000D01*
X89120000Y-57270000D01*
X89120000Y-56000000D01*
X89480000Y-56000000D01*
X89480000Y-57270000D01*
G36*
X88680000Y-57270000D02*
G01*
X88500000Y-57530000D01*
X88320000Y-57270000D01*
X88320000Y-56000000D01*
X88680000Y-56000000D01*
X88680000Y-57270000D01*
G37*
X88680000Y-57270000D02*
X88500000Y-57530000D01*
X88320000Y-57270000D01*
X88320000Y-56000000D01*
X88680000Y-56000000D01*
X88680000Y-57270000D01*
G36*
X87880000Y-57270000D02*
G01*
X87700000Y-57530000D01*
X87520000Y-57270000D01*
X87520000Y-56000000D01*
X87880000Y-56000000D01*
X87880000Y-57270000D01*
G37*
X87880000Y-57270000D02*
X87700000Y-57530000D01*
X87520000Y-57270000D01*
X87520000Y-56000000D01*
X87880000Y-56000000D01*
X87880000Y-57270000D01*
G36*
X87080000Y-57270000D02*
G01*
X86900000Y-57530000D01*
X86720000Y-57270000D01*
X86720000Y-56000000D01*
X87080000Y-56000000D01*
X87080000Y-57270000D01*
G37*
X87080000Y-57270000D02*
X86900000Y-57530000D01*
X86720000Y-57270000D01*
X86720000Y-56000000D01*
X87080000Y-56000000D01*
X87080000Y-57270000D01*
G36*
X86280000Y-57270000D02*
G01*
X86100000Y-57530000D01*
X85920000Y-57270000D01*
X85920000Y-56000000D01*
X86280000Y-56000000D01*
X86280000Y-57270000D01*
G37*
X86280000Y-57270000D02*
X86100000Y-57530000D01*
X85920000Y-57270000D01*
X85920000Y-56000000D01*
X86280000Y-56000000D01*
X86280000Y-57270000D01*
G36*
X85480000Y-57270000D02*
G01*
X85300000Y-57530000D01*
X85120000Y-57270000D01*
X85120000Y-56000000D01*
X85480000Y-56000000D01*
X85480000Y-57270000D01*
G37*
X85480000Y-57270000D02*
X85300000Y-57530000D01*
X85120000Y-57270000D01*
X85120000Y-56000000D01*
X85480000Y-56000000D01*
X85480000Y-57270000D01*
G36*
X84680000Y-57270000D02*
G01*
X84500000Y-57530000D01*
X84320000Y-57270000D01*
X84320000Y-56000000D01*
X84680000Y-56000000D01*
X84680000Y-57270000D01*
G37*
X84680000Y-57270000D02*
X84500000Y-57530000D01*
X84320000Y-57270000D01*
X84320000Y-56000000D01*
X84680000Y-56000000D01*
X84680000Y-57270000D01*
G36*
X83880000Y-57270000D02*
G01*
X83700000Y-57530000D01*
X83520000Y-57270000D01*
X83520000Y-56000000D01*
X83880000Y-56000000D01*
X83880000Y-57270000D01*
G37*
X83880000Y-57270000D02*
X83700000Y-57530000D01*
X83520000Y-57270000D01*
X83520000Y-56000000D01*
X83880000Y-56000000D01*
X83880000Y-57270000D01*
G36*
X83080000Y-57270000D02*
G01*
X82900000Y-57530000D01*
X82720000Y-57270000D01*
X82720000Y-56000000D01*
X83080000Y-56000000D01*
X83080000Y-57270000D01*
G37*
X83080000Y-57270000D02*
X82900000Y-57530000D01*
X82720000Y-57270000D01*
X82720000Y-56000000D01*
X83080000Y-56000000D01*
X83080000Y-57270000D01*
G36*
X82280000Y-57270000D02*
G01*
X82100000Y-57530000D01*
X81920000Y-57270000D01*
X81920000Y-56000000D01*
X82280000Y-56000000D01*
X82280000Y-57270000D01*
G37*
X82280000Y-57270000D02*
X82100000Y-57530000D01*
X81920000Y-57270000D01*
X81920000Y-56000000D01*
X82280000Y-56000000D01*
X82280000Y-57270000D01*
G36*
X81480000Y-57270000D02*
G01*
X81300000Y-57530000D01*
X81120000Y-57270000D01*
X81120000Y-56000000D01*
X81480000Y-56000000D01*
X81480000Y-57270000D01*
G37*
X81480000Y-57270000D02*
X81300000Y-57530000D01*
X81120000Y-57270000D01*
X81120000Y-56000000D01*
X81480000Y-56000000D01*
X81480000Y-57270000D01*
G36*
X80680000Y-57270000D02*
G01*
X80500000Y-57530000D01*
X80320000Y-57270000D01*
X80320000Y-56000000D01*
X80680000Y-56000000D01*
X80680000Y-57270000D01*
G37*
X80680000Y-57270000D02*
X80500000Y-57530000D01*
X80320000Y-57270000D01*
X80320000Y-56000000D01*
X80680000Y-56000000D01*
X80680000Y-57270000D01*
G36*
X79880000Y-57270000D02*
G01*
X79700000Y-57530000D01*
X79520000Y-57270000D01*
X79520000Y-56000000D01*
X79880000Y-56000000D01*
X79880000Y-57270000D01*
G37*
X79880000Y-57270000D02*
X79700000Y-57530000D01*
X79520000Y-57270000D01*
X79520000Y-56000000D01*
X79880000Y-56000000D01*
X79880000Y-57270000D01*
G36*
X79080000Y-57270000D02*
G01*
X78900000Y-57530000D01*
X78720000Y-57270000D01*
X78720000Y-56000000D01*
X79080000Y-56000000D01*
X79080000Y-57270000D01*
G37*
X79080000Y-57270000D02*
X78900000Y-57530000D01*
X78720000Y-57270000D01*
X78720000Y-56000000D01*
X79080000Y-56000000D01*
X79080000Y-57270000D01*
G36*
X78280000Y-57270000D02*
G01*
X78100000Y-57530000D01*
X77920000Y-57270000D01*
X77920000Y-56000000D01*
X78280000Y-56000000D01*
X78280000Y-57270000D01*
G37*
X78280000Y-57270000D02*
X78100000Y-57530000D01*
X77920000Y-57270000D01*
X77920000Y-56000000D01*
X78280000Y-56000000D01*
X78280000Y-57270000D01*
G36*
X77480000Y-57270000D02*
G01*
X77300000Y-57530000D01*
X77120000Y-57270000D01*
X77120000Y-56000000D01*
X77480000Y-56000000D01*
X77480000Y-57270000D01*
G37*
X77480000Y-57270000D02*
X77300000Y-57530000D01*
X77120000Y-57270000D01*
X77120000Y-56000000D01*
X77480000Y-56000000D01*
X77480000Y-57270000D01*
G36*
X76680000Y-57270000D02*
G01*
X76500000Y-57530000D01*
X76320000Y-57270000D01*
X76320000Y-56000000D01*
X76680000Y-56000000D01*
X76680000Y-57270000D01*
G37*
X76680000Y-57270000D02*
X76500000Y-57530000D01*
X76320000Y-57270000D01*
X76320000Y-56000000D01*
X76680000Y-56000000D01*
X76680000Y-57270000D01*
G36*
X75880000Y-57270000D02*
G01*
X75700000Y-57530000D01*
X75520000Y-57270000D01*
X75520000Y-56000000D01*
X75880000Y-56000000D01*
X75880000Y-57270000D01*
G37*
X75880000Y-57270000D02*
X75700000Y-57530000D01*
X75520000Y-57270000D01*
X75520000Y-56000000D01*
X75880000Y-56000000D01*
X75880000Y-57270000D01*
G36*
X75080000Y-57270000D02*
G01*
X74900000Y-57530000D01*
X74720000Y-57270000D01*
X74720000Y-56000000D01*
X75080000Y-56000000D01*
X75080000Y-57270000D01*
G37*
X75080000Y-57270000D02*
X74900000Y-57530000D01*
X74720000Y-57270000D01*
X74720000Y-56000000D01*
X75080000Y-56000000D01*
X75080000Y-57270000D01*
G36*
X74280000Y-57270000D02*
G01*
X74100000Y-57530000D01*
X73920000Y-57270000D01*
X73920000Y-56000000D01*
X74280000Y-56000000D01*
X74280000Y-57270000D01*
G37*
X74280000Y-57270000D02*
X74100000Y-57530000D01*
X73920000Y-57270000D01*
X73920000Y-56000000D01*
X74280000Y-56000000D01*
X74280000Y-57270000D01*
G36*
X73480000Y-57270000D02*
G01*
X73300000Y-57530000D01*
X73120000Y-57270000D01*
X73120000Y-56000000D01*
X73480000Y-56000000D01*
X73480000Y-57270000D01*
G37*
X73480000Y-57270000D02*
X73300000Y-57530000D01*
X73120000Y-57270000D01*
X73120000Y-56000000D01*
X73480000Y-56000000D01*
X73480000Y-57270000D01*
G36*
X72680000Y-57270000D02*
G01*
X72500000Y-57530000D01*
X72320000Y-57270000D01*
X72320000Y-56000000D01*
X72680000Y-56000000D01*
X72680000Y-57270000D01*
G37*
X72680000Y-57270000D02*
X72500000Y-57530000D01*
X72320000Y-57270000D01*
X72320000Y-56000000D01*
X72680000Y-56000000D01*
X72680000Y-57270000D01*
G36*
X71880000Y-57270000D02*
G01*
X71700000Y-57530000D01*
X71520000Y-57270000D01*
X71520000Y-56000000D01*
X71880000Y-56000000D01*
X71880000Y-57270000D01*
G37*
X71880000Y-57270000D02*
X71700000Y-57530000D01*
X71520000Y-57270000D01*
X71520000Y-56000000D01*
X71880000Y-56000000D01*
X71880000Y-57270000D01*
G36*
X71080000Y-57270000D02*
G01*
X70900000Y-57530000D01*
X70720000Y-57270000D01*
X70720000Y-56000000D01*
X71080000Y-56000000D01*
X71080000Y-57270000D01*
G37*
X71080000Y-57270000D02*
X70900000Y-57530000D01*
X70720000Y-57270000D01*
X70720000Y-56000000D01*
X71080000Y-56000000D01*
X71080000Y-57270000D01*
G36*
X70280000Y-57270000D02*
G01*
X70100000Y-57530000D01*
X69920000Y-57270000D01*
X69920000Y-56000000D01*
X70280000Y-56000000D01*
X70280000Y-57270000D01*
G37*
X70280000Y-57270000D02*
X70100000Y-57530000D01*
X69920000Y-57270000D01*
X69920000Y-56000000D01*
X70280000Y-56000000D01*
X70280000Y-57270000D01*
G36*
X69480000Y-57270000D02*
G01*
X69300000Y-57530000D01*
X69120000Y-57270000D01*
X69120000Y-56000000D01*
X69480000Y-56000000D01*
X69480000Y-57270000D01*
G37*
X69480000Y-57270000D02*
X69300000Y-57530000D01*
X69120000Y-57270000D01*
X69120000Y-56000000D01*
X69480000Y-56000000D01*
X69480000Y-57270000D01*
G36*
X68680000Y-57270000D02*
G01*
X68500000Y-57530000D01*
X68320000Y-57270000D01*
X68320000Y-56000000D01*
X68680000Y-56000000D01*
X68680000Y-57270000D01*
G37*
X68680000Y-57270000D02*
X68500000Y-57530000D01*
X68320000Y-57270000D01*
X68320000Y-56000000D01*
X68680000Y-56000000D01*
X68680000Y-57270000D01*
G36*
X67880000Y-57270000D02*
G01*
X67700000Y-57530000D01*
X67520000Y-57270000D01*
X67520000Y-56000000D01*
X67880000Y-56000000D01*
X67880000Y-57270000D01*
G37*
X67880000Y-57270000D02*
X67700000Y-57530000D01*
X67520000Y-57270000D01*
X67520000Y-56000000D01*
X67880000Y-56000000D01*
X67880000Y-57270000D01*
G36*
X67080000Y-57270000D02*
G01*
X66900000Y-57530000D01*
X66720000Y-57270000D01*
X66720000Y-56000000D01*
X67080000Y-56000000D01*
X67080000Y-57270000D01*
G37*
X67080000Y-57270000D02*
X66900000Y-57530000D01*
X66720000Y-57270000D01*
X66720000Y-56000000D01*
X67080000Y-56000000D01*
X67080000Y-57270000D01*
G36*
X66280000Y-57270000D02*
G01*
X66100000Y-57530000D01*
X65920000Y-57270000D01*
X65920000Y-56000000D01*
X66280000Y-56000000D01*
X66280000Y-57270000D01*
G37*
X66280000Y-57270000D02*
X66100000Y-57530000D01*
X65920000Y-57270000D01*
X65920000Y-56000000D01*
X66280000Y-56000000D01*
X66280000Y-57270000D01*
G36*
X65480000Y-57270000D02*
G01*
X65300000Y-57530000D01*
X65120000Y-57270000D01*
X65120000Y-56000000D01*
X65480000Y-56000000D01*
X65480000Y-57270000D01*
G37*
X65480000Y-57270000D02*
X65300000Y-57530000D01*
X65120000Y-57270000D01*
X65120000Y-56000000D01*
X65480000Y-56000000D01*
X65480000Y-57270000D01*
G36*
X64680000Y-57270000D02*
G01*
X64500000Y-57530000D01*
X64320000Y-57270000D01*
X64320000Y-56000000D01*
X64680000Y-56000000D01*
X64680000Y-57270000D01*
G37*
X64680000Y-57270000D02*
X64500000Y-57530000D01*
X64320000Y-57270000D01*
X64320000Y-56000000D01*
X64680000Y-56000000D01*
X64680000Y-57270000D01*
G36*
X63880000Y-57270000D02*
G01*
X63700000Y-57530000D01*
X63520000Y-57270000D01*
X63520000Y-56000000D01*
X63880000Y-56000000D01*
X63880000Y-57270000D01*
G37*
X63880000Y-57270000D02*
X63700000Y-57530000D01*
X63520000Y-57270000D01*
X63520000Y-56000000D01*
X63880000Y-56000000D01*
X63880000Y-57270000D01*
G36*
X63080000Y-57270000D02*
G01*
X62900000Y-57530000D01*
X62720000Y-57270000D01*
X62720000Y-56000000D01*
X63080000Y-56000000D01*
X63080000Y-57270000D01*
G37*
X63080000Y-57270000D02*
X62900000Y-57530000D01*
X62720000Y-57270000D01*
X62720000Y-56000000D01*
X63080000Y-56000000D01*
X63080000Y-57270000D01*
%TD*%
D11*
%TO.C,C2*%
X117810000Y-45140000D03*
X117810000Y-47040000D03*
%TD*%
D12*
%TO.C,J5*%
X123631999Y-13939999D03*
X123131999Y-13939999D03*
X122631999Y-13939999D03*
X122131999Y-13939999D03*
X121631999Y-13939999D03*
X121131999Y-13939999D03*
X120631999Y-13939999D03*
X120131999Y-13939999D03*
X119631999Y-13939999D03*
X119131999Y-13939999D03*
X118631999Y-13939999D03*
X118131999Y-13939999D03*
X117631999Y-13939999D03*
X117131999Y-13939999D03*
X116631999Y-13939999D03*
X116131999Y-13939999D03*
X115631999Y-13939999D03*
X115131999Y-13939999D03*
X114631999Y-13939999D03*
X114131999Y-13939999D03*
%TD*%
D13*
%TO.C,C3*%
X71090000Y-11860000D03*
X71090000Y-9960000D03*
%TD*%
D12*
%TO.C,J4*%
X225265999Y-43059999D03*
X225765999Y-43059999D03*
X226265999Y-43059999D03*
X226765999Y-43059999D03*
X227265999Y-43059999D03*
X227765999Y-43059999D03*
X228265999Y-43059999D03*
X228765999Y-43059999D03*
X229265999Y-43059999D03*
X229765999Y-43059999D03*
X230265999Y-43059999D03*
X230765999Y-43059999D03*
X231265999Y-43059999D03*
X231765999Y-43059999D03*
X232265999Y-43059999D03*
X232765999Y-43059999D03*
X233265999Y-43059999D03*
X233765999Y-43059999D03*
X234265999Y-43059999D03*
X234765999Y-43059999D03*
%TD*%
%TO.C,J2*%
X51935999Y-13938999D03*
X51435999Y-13938999D03*
X50935999Y-13938999D03*
X50435999Y-13938999D03*
X49935999Y-13938999D03*
X49435999Y-13938999D03*
X48935999Y-13938999D03*
X48435999Y-13938999D03*
X47935999Y-13938999D03*
X47435999Y-13938999D03*
X46935999Y-13938999D03*
X46435999Y-13938999D03*
X45935999Y-13938999D03*
X45435999Y-13938999D03*
X44935999Y-13938999D03*
X44435999Y-13938999D03*
X43935999Y-13938999D03*
X43435999Y-13938999D03*
X42935999Y-13938999D03*
X42435999Y-13938999D03*
%TD*%
%TO.C,J2*%
X211935999Y-13938999D03*
X211435999Y-13938999D03*
X210935999Y-13938999D03*
X210435999Y-13938999D03*
X209935999Y-13938999D03*
X209435999Y-13938999D03*
X208935999Y-13938999D03*
X208435999Y-13938999D03*
X207935999Y-13938999D03*
X207435999Y-13938999D03*
X206935999Y-13938999D03*
X206435999Y-13938999D03*
X205935999Y-13938999D03*
X205435999Y-13938999D03*
X204935999Y-13938999D03*
X204435999Y-13938999D03*
X203935999Y-13938999D03*
X203435999Y-13938999D03*
X202935999Y-13938999D03*
X202435999Y-13938999D03*
%TD*%
D11*
%TO.C,C3*%
X253910000Y-45140000D03*
X253910000Y-47040000D03*
%TD*%
D13*
%TO.C,C6*%
X302780000Y-11860000D03*
X302780000Y-9960000D03*
%TD*%
D12*
%TO.C,J1*%
X296959999Y-43059999D03*
X297459999Y-43059999D03*
X297959999Y-43059999D03*
X298459999Y-43059999D03*
X298959999Y-43059999D03*
X299459999Y-43059999D03*
X299959999Y-43059999D03*
X300459999Y-43059999D03*
X300959999Y-43059999D03*
X301459999Y-43059999D03*
X301959999Y-43059999D03*
X302459999Y-43059999D03*
X302959999Y-43059999D03*
X303459999Y-43059999D03*
X303959999Y-43059999D03*
X304459999Y-43059999D03*
X304959999Y-43059999D03*
X305459999Y-43059999D03*
X305959999Y-43059999D03*
X306459999Y-43059999D03*
%TD*%
%TO.C,J1*%
X136959999Y-43059999D03*
X137459999Y-43059999D03*
X137959999Y-43059999D03*
X138459999Y-43059999D03*
X138959999Y-43059999D03*
X139459999Y-43059999D03*
X139959999Y-43059999D03*
X140459999Y-43059999D03*
X140959999Y-43059999D03*
X141459999Y-43059999D03*
X141959999Y-43059999D03*
X142459999Y-43059999D03*
X142959999Y-43059999D03*
X143459999Y-43059999D03*
X143959999Y-43059999D03*
X144459999Y-43059999D03*
X144959999Y-43059999D03*
X145459999Y-43059999D03*
X145959999Y-43059999D03*
X146459999Y-43059999D03*
%TD*%
D13*
%TO.C,C4*%
X94980000Y-11860000D03*
X94980000Y-9960000D03*
%TD*%
%TO.C,C1*%
X183270000Y-11860000D03*
X183270000Y-9960000D03*
%TD*%
D12*
%TO.C,J6*%
X147529999Y-13939999D03*
X147029999Y-13939999D03*
X146529999Y-13939999D03*
X146029999Y-13939999D03*
X145529999Y-13939999D03*
X145029999Y-13939999D03*
X144529999Y-13939999D03*
X144029999Y-13939999D03*
X143529999Y-13939999D03*
X143029999Y-13939999D03*
X142529999Y-13939999D03*
X142029999Y-13939999D03*
X141529999Y-13939999D03*
X141029999Y-13939999D03*
X140529999Y-13939999D03*
X140029999Y-13939999D03*
X139529999Y-13939999D03*
X139029999Y-13939999D03*
X138529999Y-13939999D03*
X138029999Y-13939999D03*
%TD*%
D11*
%TO.C,C6*%
X182220000Y-45140000D03*
X182220000Y-47040000D03*
%TD*%
%TO.C,C5*%
X206120000Y-45140000D03*
X206120000Y-47040000D03*
%TD*%
D14*
%TO.C,J7*%
X266999999Y-57299999D03*
X217999999Y-57299999D03*
%TD*%
D13*
%TO.C,C2*%
X207190000Y-11860000D03*
X207190000Y-9960000D03*
%TD*%
D14*
%TO.C,J7*%
X57999999Y299999D03*
X106999999Y299999D03*
%TD*%
D13*
%TO.C,C5*%
X278880000Y-11860000D03*
X278880000Y-9960000D03*
%TD*%
D11*
%TO.C,C3*%
X93910000Y-45140000D03*
X93910000Y-47040000D03*
%TD*%
D12*
%TO.C,J4*%
X65265999Y-43059999D03*
X65765999Y-43059999D03*
X66265999Y-43059999D03*
X66765999Y-43059999D03*
X67265999Y-43059999D03*
X67765999Y-43059999D03*
X68265999Y-43059999D03*
X68765999Y-43059999D03*
X69265999Y-43059999D03*
X69765999Y-43059999D03*
X70265999Y-43059999D03*
X70765999Y-43059999D03*
X71265999Y-43059999D03*
X71765999Y-43059999D03*
X72265999Y-43059999D03*
X72765999Y-43059999D03*
X73265999Y-43059999D03*
X73765999Y-43059999D03*
X74265999Y-43059999D03*
X74765999Y-43059999D03*
%TD*%
D13*
%TO.C,C3*%
X231090000Y-11860000D03*
X231090000Y-9960000D03*
%TD*%
D12*
%TO.C,J6*%
X307529999Y-13939999D03*
X307029999Y-13939999D03*
X306529999Y-13939999D03*
X306029999Y-13939999D03*
X305529999Y-13939999D03*
X305029999Y-13939999D03*
X304529999Y-13939999D03*
X304029999Y-13939999D03*
X303529999Y-13939999D03*
X303029999Y-13939999D03*
X302529999Y-13939999D03*
X302029999Y-13939999D03*
X301529999Y-13939999D03*
X301029999Y-13939999D03*
X300529999Y-13939999D03*
X300029999Y-13939999D03*
X299529999Y-13939999D03*
X299029999Y-13939999D03*
X298529999Y-13939999D03*
X298029999Y-13939999D03*
%TD*%
%TO.C,J1*%
X188039999Y-13939999D03*
X187539999Y-13939999D03*
X187039999Y-13939999D03*
X186539999Y-13939999D03*
X186039999Y-13939999D03*
X185539999Y-13939999D03*
X185039999Y-13939999D03*
X184539999Y-13939999D03*
X184039999Y-13939999D03*
X183539999Y-13939999D03*
X183039999Y-13939999D03*
X182539999Y-13939999D03*
X182039999Y-13939999D03*
X181539999Y-13939999D03*
X181039999Y-13939999D03*
X180539999Y-13939999D03*
X180039999Y-13939999D03*
X179539999Y-13939999D03*
X179039999Y-13939999D03*
X178539999Y-13939999D03*
%TD*%
D11*
%TO.C,C5*%
X46120000Y-45140000D03*
X46120000Y-47040000D03*
%TD*%
D12*
%TO.C,J5*%
X283631999Y-13939999D03*
X283131999Y-13939999D03*
X282631999Y-13939999D03*
X282131999Y-13939999D03*
X281631999Y-13939999D03*
X281131999Y-13939999D03*
X280631999Y-13939999D03*
X280131999Y-13939999D03*
X279631999Y-13939999D03*
X279131999Y-13939999D03*
X278631999Y-13939999D03*
X278131999Y-13939999D03*
X277631999Y-13939999D03*
X277131999Y-13939999D03*
X276631999Y-13939999D03*
X276131999Y-13939999D03*
X275631999Y-13939999D03*
X275131999Y-13939999D03*
X274631999Y-13939999D03*
X274131999Y-13939999D03*
%TD*%
%TO.C,J3*%
X249163999Y-43059999D03*
X249663999Y-43059999D03*
X250163999Y-43059999D03*
X250663999Y-43059999D03*
X251163999Y-43059999D03*
X251663999Y-43059999D03*
X252163999Y-43059999D03*
X252663999Y-43059999D03*
X253163999Y-43059999D03*
X253663999Y-43059999D03*
X254163999Y-43059999D03*
X254663999Y-43059999D03*
X255163999Y-43059999D03*
X255663999Y-43059999D03*
X256163999Y-43059999D03*
X256663999Y-43059999D03*
X257163999Y-43059999D03*
X257663999Y-43059999D03*
X258163999Y-43059999D03*
X258663999Y-43059999D03*
%TD*%
D13*
%TO.C,C6*%
X142780000Y-11860000D03*
X142780000Y-9960000D03*
%TD*%
D12*
%TO.C,J4*%
X99733999Y-13939999D03*
X99233999Y-13939999D03*
X98733999Y-13939999D03*
X98233999Y-13939999D03*
X97733999Y-13939999D03*
X97233999Y-13939999D03*
X96733999Y-13939999D03*
X96233999Y-13939999D03*
X95733999Y-13939999D03*
X95233999Y-13939999D03*
X94733999Y-13939999D03*
X94233999Y-13939999D03*
X93733999Y-13939999D03*
X93233999Y-13939999D03*
X92733999Y-13939999D03*
X92233999Y-13939999D03*
X91733999Y-13939999D03*
X91233999Y-13939999D03*
X90733999Y-13939999D03*
X90233999Y-13939999D03*
%TD*%
%TO.C,J4*%
X259733999Y-13939999D03*
X259233999Y-13939999D03*
X258733999Y-13939999D03*
X258233999Y-13939999D03*
X257733999Y-13939999D03*
X257233999Y-13939999D03*
X256733999Y-13939999D03*
X256233999Y-13939999D03*
X255733999Y-13939999D03*
X255233999Y-13939999D03*
X254733999Y-13939999D03*
X254233999Y-13939999D03*
X253733999Y-13939999D03*
X253233999Y-13939999D03*
X252733999Y-13939999D03*
X252233999Y-13939999D03*
X251733999Y-13939999D03*
X251233999Y-13939999D03*
X250733999Y-13939999D03*
X250233999Y-13939999D03*
%TD*%
D11*
%TO.C,C1*%
X301730000Y-45140000D03*
X301730000Y-47040000D03*
%TD*%
%TO.C,C6*%
X22220000Y-45140000D03*
X22220000Y-47040000D03*
%TD*%
D13*
%TO.C,C2*%
X47190000Y-11860000D03*
X47190000Y-9960000D03*
%TD*%
D15*
%TO.C,REF\u002A\u002A*%
X325000000Y0D03*
%TD*%
D12*
%TO.C,J6*%
X177469999Y-43059999D03*
X177969999Y-43059999D03*
X178469999Y-43059999D03*
X178969999Y-43059999D03*
X179469999Y-43059999D03*
X179969999Y-43059999D03*
X180469999Y-43059999D03*
X180969999Y-43059999D03*
X181469999Y-43059999D03*
X181969999Y-43059999D03*
X182469999Y-43059999D03*
X182969999Y-43059999D03*
X183469999Y-43059999D03*
X183969999Y-43059999D03*
X184469999Y-43059999D03*
X184969999Y-43059999D03*
X185469999Y-43059999D03*
X185969999Y-43059999D03*
X186469999Y-43059999D03*
X186969999Y-43059999D03*
%TD*%
D11*
%TO.C,C1*%
X141730000Y-45140000D03*
X141730000Y-47040000D03*
%TD*%
%TO.C,C4*%
X70020000Y-45140000D03*
X70020000Y-47040000D03*
%TD*%
D14*
%TO.C,J7*%
X217999999Y299999D03*
X266999999Y299999D03*
%TD*%
D15*
%TO.C,REF\u002A\u002A*%
X0Y-57000000D03*
%TD*%
D13*
%TO.C,C5*%
X118880000Y-11860000D03*
X118880000Y-9960000D03*
%TD*%
D12*
%TO.C,J5*%
X41367999Y-43059999D03*
X41867999Y-43059999D03*
X42367999Y-43059999D03*
X42867999Y-43059999D03*
X43367999Y-43059999D03*
X43867999Y-43059999D03*
X44367999Y-43059999D03*
X44867999Y-43059999D03*
X45367999Y-43059999D03*
X45867999Y-43059999D03*
X46367999Y-43059999D03*
X46867999Y-43059999D03*
X47367999Y-43059999D03*
X47867999Y-43059999D03*
X48367999Y-43059999D03*
X48867999Y-43059999D03*
X49367999Y-43059999D03*
X49867999Y-43059999D03*
X50367999Y-43059999D03*
X50867999Y-43059999D03*
%TD*%
D11*
%TO.C,C2*%
X277810000Y-45140000D03*
X277810000Y-47040000D03*
%TD*%
D12*
%TO.C,J5*%
X201367999Y-43059999D03*
X201867999Y-43059999D03*
X202367999Y-43059999D03*
X202867999Y-43059999D03*
X203367999Y-43059999D03*
X203867999Y-43059999D03*
X204367999Y-43059999D03*
X204867999Y-43059999D03*
X205367999Y-43059999D03*
X205867999Y-43059999D03*
X206367999Y-43059999D03*
X206867999Y-43059999D03*
X207367999Y-43059999D03*
X207867999Y-43059999D03*
X208367999Y-43059999D03*
X208867999Y-43059999D03*
X209367999Y-43059999D03*
X209867999Y-43059999D03*
X210367999Y-43059999D03*
X210867999Y-43059999D03*
%TD*%
%TO.C,J3*%
X235835999Y-13939999D03*
X235335999Y-13939999D03*
X234835999Y-13939999D03*
X234335999Y-13939999D03*
X233835999Y-13939999D03*
X233335999Y-13939999D03*
X232835999Y-13939999D03*
X232335999Y-13939999D03*
X231835999Y-13939999D03*
X231335999Y-13939999D03*
X230835999Y-13939999D03*
X230335999Y-13939999D03*
X229835999Y-13939999D03*
X229335999Y-13939999D03*
X228835999Y-13939999D03*
X228335999Y-13939999D03*
X227835999Y-13939999D03*
X227335999Y-13939999D03*
X226835999Y-13939999D03*
X226335999Y-13939999D03*
%TD*%
%TO.C,J6*%
X17469999Y-43059999D03*
X17969999Y-43059999D03*
X18469999Y-43059999D03*
X18969999Y-43059999D03*
X19469999Y-43059999D03*
X19969999Y-43059999D03*
X20469999Y-43059999D03*
X20969999Y-43059999D03*
X21469999Y-43059999D03*
X21969999Y-43059999D03*
X22469999Y-43059999D03*
X22969999Y-43059999D03*
X23469999Y-43059999D03*
X23969999Y-43059999D03*
X24469999Y-43059999D03*
X24969999Y-43059999D03*
X25469999Y-43059999D03*
X25969999Y-43059999D03*
X26469999Y-43059999D03*
X26969999Y-43059999D03*
%TD*%
%TO.C,J3*%
X89163999Y-43059999D03*
X89663999Y-43059999D03*
X90163999Y-43059999D03*
X90663999Y-43059999D03*
X91163999Y-43059999D03*
X91663999Y-43059999D03*
X92163999Y-43059999D03*
X92663999Y-43059999D03*
X93163999Y-43059999D03*
X93663999Y-43059999D03*
X94163999Y-43059999D03*
X94663999Y-43059999D03*
X95163999Y-43059999D03*
X95663999Y-43059999D03*
X96163999Y-43059999D03*
X96663999Y-43059999D03*
X97163999Y-43059999D03*
X97663999Y-43059999D03*
X98163999Y-43059999D03*
X98663999Y-43059999D03*
%TD*%
%TO.C,J2*%
X113063999Y-43060999D03*
X113563999Y-43060999D03*
X114063999Y-43060999D03*
X114563999Y-43060999D03*
X115063999Y-43060999D03*
X115563999Y-43060999D03*
X116063999Y-43060999D03*
X116563999Y-43060999D03*
X117063999Y-43060999D03*
X117563999Y-43060999D03*
X118063999Y-43060999D03*
X118563999Y-43060999D03*
X119063999Y-43060999D03*
X119563999Y-43060999D03*
X120063999Y-43060999D03*
X120563999Y-43060999D03*
X121063999Y-43060999D03*
X121563999Y-43060999D03*
X122063999Y-43060999D03*
X122563999Y-43060999D03*
%TD*%
D11*
%TO.C,C4*%
X230020000Y-45140000D03*
X230020000Y-47040000D03*
%TD*%
D13*
%TO.C,C1*%
X23270000Y-11860000D03*
X23270000Y-9960000D03*
%TD*%
D12*
%TO.C,J1*%
X28039999Y-13939999D03*
X27539999Y-13939999D03*
X27039999Y-13939999D03*
X26539999Y-13939999D03*
X26039999Y-13939999D03*
X25539999Y-13939999D03*
X25039999Y-13939999D03*
X24539999Y-13939999D03*
X24039999Y-13939999D03*
X23539999Y-13939999D03*
X23039999Y-13939999D03*
X22539999Y-13939999D03*
X22039999Y-13939999D03*
X21539999Y-13939999D03*
X21039999Y-13939999D03*
X20539999Y-13939999D03*
X20039999Y-13939999D03*
X19539999Y-13939999D03*
X19039999Y-13939999D03*
X18539999Y-13939999D03*
%TD*%
D14*
%TO.C,J7*%
X106999999Y-57299999D03*
X57999999Y-57299999D03*
%TD*%
D15*
%TO.C,REF\u002A\u002A*%
X0Y0D03*
%TD*%
D12*
%TO.C,J2*%
X273063999Y-43060999D03*
X273563999Y-43060999D03*
X274063999Y-43060999D03*
X274563999Y-43060999D03*
X275063999Y-43060999D03*
X275563999Y-43060999D03*
X276063999Y-43060999D03*
X276563999Y-43060999D03*
X277063999Y-43060999D03*
X277563999Y-43060999D03*
X278063999Y-43060999D03*
X278563999Y-43060999D03*
X279063999Y-43060999D03*
X279563999Y-43060999D03*
X280063999Y-43060999D03*
X280563999Y-43060999D03*
X281063999Y-43060999D03*
X281563999Y-43060999D03*
X282063999Y-43060999D03*
X282563999Y-43060999D03*
%TD*%
%TO.C,J3*%
X75835999Y-13939999D03*
X75335999Y-13939999D03*
X74835999Y-13939999D03*
X74335999Y-13939999D03*
X73835999Y-13939999D03*
X73335999Y-13939999D03*
X72835999Y-13939999D03*
X72335999Y-13939999D03*
X71835999Y-13939999D03*
X71335999Y-13939999D03*
X70835999Y-13939999D03*
X70335999Y-13939999D03*
X69835999Y-13939999D03*
X69335999Y-13939999D03*
X68835999Y-13939999D03*
X68335999Y-13939999D03*
X67835999Y-13939999D03*
X67335999Y-13939999D03*
X66835999Y-13939999D03*
X66335999Y-13939999D03*
%TD*%
D13*
%TO.C,C4*%
X254980000Y-11860000D03*
X254980000Y-9960000D03*
%TD*%
D16*
X322500000Y-59500000D02*
X327500000Y-59500000D01*
X219281424Y-1556220D02*
X219280000Y-1500000D01*
X59710561Y-2377761D02*
X59666975Y-2342222D01*
X220277703Y-2604305D02*
X220221915Y-2597200D01*
X103569094Y-55114490D02*
X103589956Y-55062264D01*
X104121162Y-54503436D02*
X104172264Y-54479956D01*
X104497703Y-54395694D02*
X104553779Y-54391424D01*
X61449095Y-1832293D02*
X61430905Y-1885509D01*
X219851314Y-2470525D02*
X219802849Y-2441995D01*
X265047735Y-54479956D02*
X265098837Y-54503436D01*
X265148685Y-54529474D02*
X265197150Y-54558004D01*
X103930561Y-54622238D02*
X103975891Y-54588951D01*
X220775509Y-2540905D02*
X220722293Y-2559095D01*
X221301048Y-2134108D02*
X221267761Y-2179438D01*
X104778084Y-54402799D02*
X104833441Y-54412721D01*
X221194520Y-2264753D02*
X221154753Y-2304520D01*
X103535433Y-55221775D02*
X103550904Y-55167706D01*
X265452222Y-54776975D02*
X265487761Y-54820561D01*
X104888224Y-54425433D02*
X104942293Y-54440904D01*
X219419474Y-2038685D02*
X219393436Y-1988837D01*
X221360525Y-2038685D02*
X221331995Y-2087150D01*
X221477278Y-1723441D02*
X221464566Y-1778224D01*
X103805479Y-54735246D02*
X103845246Y-54695479D01*
X60221915Y-2597200D02*
X60166558Y-2587278D01*
X60111775Y-2574566D02*
X60057706Y-2559095D01*
X61194520Y-2264753D02*
X61154753Y-2304520D01*
X103589956Y-55062264D02*
X103613436Y-55011162D01*
X265720000Y-59500000D02*
X268500000Y-59500000D01*
X221232222Y-2223024D02*
X221194520Y-2264753D01*
X265630043Y-55062264D02*
X265650905Y-55114490D01*
X220722293Y-2559095D02*
X220668224Y-2574566D01*
X265289438Y-54622238D02*
X265333024Y-54657777D01*
X322500000Y2500000D02*
X221500000Y2500000D01*
X103512799Y-55331915D02*
X103522721Y-55276558D01*
X61267761Y-2179438D02*
X61232222Y-2223024D01*
X264553779Y-54391424D02*
X264610000Y-54390000D01*
X59448004Y-2087150D02*
X59419474Y-2038685D01*
X264942293Y-54440904D02*
X264995509Y-54459094D01*
X220111775Y-2574566D02*
X220057706Y-2559095D01*
X105714305Y-55387703D02*
X105718575Y-55443779D01*
X264995509Y-54459094D02*
X265047735Y-54479956D01*
X263975891Y-54588951D02*
X264022849Y-54558004D01*
X61301048Y-2134108D02*
X61267761Y-2179438D01*
X219585479Y-2264753D02*
X219547777Y-2223024D01*
X60446220Y-2608575D02*
X60390000Y-2609999D01*
X105719999Y-55500000D02*
X105720000Y-59500000D01*
X265098837Y-54503436D02*
X265148685Y-54529474D01*
X263886975Y-54657777D02*
X263930561Y-54622238D01*
X108500000Y-59500000D02*
X162500000Y-59500000D01*
X103500000Y-55500000D02*
X103501424Y-55443779D01*
X221430905Y-1885509D02*
X221410043Y-1937735D01*
X219666975Y-2342222D02*
X219625246Y-2304520D01*
X103975891Y-54588951D02*
X104022849Y-54558004D01*
X61232222Y-2223024D02*
X61194520Y-2264753D01*
X265374753Y-54695479D02*
X265414520Y-54735246D01*
X219315433Y-1778224D02*
X219302721Y-1723441D01*
X103668004Y-54912849D02*
X103698951Y-54865891D01*
X219349094Y-1885509D02*
X219330904Y-1832293D01*
X265606563Y-55011162D02*
X265630043Y-55062264D01*
X221487200Y-1668084D02*
X221477278Y-1723441D01*
X219802849Y-2441995D02*
X219755891Y-2411048D01*
X219710561Y-2377761D02*
X219666975Y-2342222D01*
X60502296Y-2604305D02*
X60446220Y-2608575D01*
X264224490Y-54459094D02*
X264277706Y-54440904D01*
X59292799Y-1668084D02*
X59285694Y-1612296D01*
X263501424Y-55443779D02*
X263505694Y-55387703D01*
X221500000Y2500000D02*
X221500000Y-1500000D01*
X219478951Y-2134108D02*
X219448004Y-2087150D01*
X105289438Y-54622238D02*
X105333024Y-54657777D01*
X105580525Y-54961314D02*
X105606563Y-55011162D01*
X105669095Y-55167706D02*
X105684566Y-55221775D01*
X219901162Y-2496563D02*
X219851314Y-2470525D01*
X105521048Y-54865891D02*
X105551995Y-54912849D01*
X61024108Y-2411048D02*
X60977150Y-2441995D01*
X105414520Y-54735246D02*
X105452222Y-54776975D01*
X264277706Y-54440904D02*
X264331775Y-54425433D01*
X219755891Y-2411048D02*
X219710561Y-2377761D01*
X61069438Y-2377761D02*
X61024108Y-2411048D01*
X265719999Y-55500000D02*
X265720000Y-59500000D01*
X60004490Y-2540905D02*
X59952264Y-2520043D01*
X104833441Y-54412721D02*
X104888224Y-54425433D01*
X104277706Y-54440904D02*
X104331775Y-54425433D01*
X104995509Y-54459094D02*
X105047735Y-54479956D01*
X61494305Y-1612296D02*
X61487200Y-1668084D01*
X220668224Y-2574566D02*
X220613441Y-2587278D01*
X264833441Y-54412721D02*
X264888224Y-54425433D01*
X103550904Y-55167706D02*
X103569094Y-55114490D01*
X268500000Y-59500000D02*
X322500000Y-59500000D01*
X104022849Y-54558004D02*
X104071314Y-54529474D01*
X264331775Y-54425433D02*
X264386558Y-54412721D01*
X327500000Y2500000D02*
X322500000Y2500000D01*
X61386563Y-1988837D02*
X61360525Y-2038685D01*
X60558084Y-2597200D02*
X60502296Y-2604305D01*
X103767777Y-54776975D02*
X103805479Y-54735246D01*
X2500000Y2500000D02*
X-2500000Y2500000D01*
X220057706Y-2559095D02*
X220004490Y-2540905D01*
X103505694Y-55387703D02*
X103512799Y-55331915D01*
X61113024Y-2342222D02*
X61069438Y-2377761D01*
X219292799Y-1668084D02*
X219285694Y-1612296D01*
X60057706Y-2559095D02*
X60004490Y-2540905D01*
X221498575Y-1556220D02*
X221494305Y-1612296D01*
X220446220Y-2608575D02*
X220390000Y-2609999D01*
X60613441Y-2587278D02*
X60558084Y-2597200D01*
X265414520Y-54735246D02*
X265452222Y-54776975D01*
X220004490Y-2540905D02*
X219952264Y-2520043D01*
X61331995Y-2087150D02*
X61301048Y-2134108D01*
X59755891Y-2411048D02*
X59710561Y-2377761D01*
X220928685Y-2470525D02*
X220878837Y-2496563D01*
X263550904Y-55167706D02*
X263569094Y-55114490D01*
X61154753Y-2304520D02*
X61113024Y-2342222D01*
X59901162Y-2496563D02*
X59851314Y-2470525D01*
X-2500000Y2500000D02*
X-2500000Y-59500000D01*
X59512238Y-2179438D02*
X59478951Y-2134108D01*
X105197150Y-54558004D02*
X105244108Y-54588951D01*
X59281424Y-1556220D02*
X59280000Y-1500000D01*
X105697278Y-55276558D02*
X105707200Y-55331915D01*
X105707200Y-55331915D02*
X105714305Y-55387703D01*
X61477278Y-1723441D02*
X61464566Y-1778224D01*
X263767777Y-54776975D02*
X263805479Y-54735246D01*
X103698951Y-54865891D02*
X103732238Y-54820561D01*
X265650905Y-55114490D02*
X265669095Y-55167706D01*
X104386558Y-54412721D02*
X104441915Y-54402799D01*
X263500000Y-59500000D02*
X263500000Y-55500000D01*
X162500000Y-59500000D02*
X263500000Y-59500000D01*
X59393436Y-1988837D02*
X59369956Y-1937735D01*
X221410043Y-1937735D02*
X221386563Y-1988837D01*
X221069438Y-2377761D02*
X221024108Y-2411048D01*
X264386558Y-54412721D02*
X264441915Y-54402799D01*
X264888224Y-54425433D02*
X264942293Y-54440904D01*
X220977150Y-2441995D02*
X220928685Y-2470525D01*
X221267761Y-2179438D02*
X221232222Y-2223024D01*
X103845246Y-54695479D02*
X103886975Y-54657777D01*
X263698951Y-54865891D02*
X263732238Y-54820561D01*
X264172264Y-54479956D02*
X264224490Y-54459094D01*
X220333779Y-2608575D02*
X220277703Y-2604305D01*
X59302721Y-1723441D02*
X59292799Y-1668084D01*
X61410043Y-1937735D02*
X61386563Y-1988837D01*
X265714305Y-55387703D02*
X265718575Y-55443779D01*
X103639474Y-54961314D02*
X103668004Y-54912849D01*
X60928685Y-2470525D02*
X60878837Y-2496563D01*
X327500000Y-59500000D02*
X327500000Y2500000D01*
X220221915Y-2597200D02*
X220166558Y-2587278D01*
X105333024Y-54657777D02*
X105374753Y-54695479D01*
X220390000Y-2609999D02*
X220333779Y-2608575D01*
X265551995Y-54912849D02*
X265580525Y-54961314D01*
X264666220Y-54391424D02*
X264722296Y-54395694D01*
X60878837Y-2496563D02*
X60827735Y-2520043D01*
X60333779Y-2608575D02*
X60277703Y-2604305D01*
X105452222Y-54776975D02*
X105487761Y-54820561D01*
X61464566Y-1778224D02*
X61449095Y-1832293D01*
X265197150Y-54558004D02*
X265244108Y-54588951D01*
X219285694Y-1612296D02*
X219281424Y-1556220D01*
X59585479Y-2264753D02*
X59547777Y-2223024D01*
X59478951Y-2134108D02*
X59448004Y-2087150D01*
X263668004Y-54912849D02*
X263698951Y-54865891D01*
X104553779Y-54391424D02*
X104610000Y-54390000D01*
X263522721Y-55276558D02*
X263535433Y-55221775D01*
X263500000Y-55500000D02*
X263501424Y-55443779D01*
X59285694Y-1612296D02*
X59281424Y-1556220D01*
X219547777Y-2223024D02*
X219512238Y-2179438D01*
X263639474Y-54961314D02*
X263668004Y-54912849D01*
X263845246Y-54695479D02*
X263886975Y-54657777D01*
X60166558Y-2587278D02*
X60111775Y-2574566D01*
X-2500000Y-59500000D02*
X-2500000Y-59500000D01*
X264610000Y-54390000D02*
X264666220Y-54391424D01*
X105487761Y-54820561D02*
X105521048Y-54865891D01*
X219302721Y-1723441D02*
X219292799Y-1668084D01*
X265697278Y-55276558D02*
X265707200Y-55331915D01*
X216500000Y2500000D02*
X162500000Y2500000D01*
X59315433Y-1778224D02*
X59302721Y-1723441D01*
X221113024Y-2342222D02*
X221069438Y-2377761D01*
X105244108Y-54588951D02*
X105289438Y-54622238D01*
X59802849Y-2441995D02*
X59755891Y-2411048D01*
X103886975Y-54657777D02*
X103930561Y-54622238D01*
X105098837Y-54503436D02*
X105148685Y-54529474D01*
X-2500000Y-59500000D02*
X2500000Y-59500000D01*
X220613441Y-2587278D02*
X220558084Y-2597200D01*
X104441915Y-54402799D02*
X104497703Y-54395694D01*
X104666220Y-54391424D02*
X104722296Y-54395694D01*
X265707200Y-55331915D02*
X265714305Y-55387703D01*
X219625246Y-2304520D02*
X219585479Y-2264753D01*
X264121162Y-54503436D02*
X264172264Y-54479956D01*
X103500000Y-59500000D02*
X103500000Y-55500000D01*
X104942293Y-54440904D02*
X104995509Y-54459094D01*
X263569094Y-55114490D02*
X263589956Y-55062264D01*
X60722293Y-2559095D02*
X60668224Y-2574566D01*
X60977150Y-2441995D02*
X60928685Y-2470525D01*
X220502296Y-2604305D02*
X220446220Y-2608575D01*
X265521048Y-54865891D02*
X265551995Y-54912849D01*
X104610000Y-54390000D02*
X104666220Y-54391424D01*
X105148685Y-54529474D02*
X105197150Y-54558004D01*
X220878837Y-2496563D02*
X220827735Y-2520043D01*
X265669095Y-55167706D02*
X265684566Y-55221775D01*
X59419474Y-2038685D02*
X59393436Y-1988837D01*
X60277703Y-2604305D02*
X60221915Y-2597200D01*
X103501424Y-55443779D02*
X103505694Y-55387703D01*
X59625246Y-2304520D02*
X59585479Y-2264753D01*
X219369956Y-1937735D02*
X219349094Y-1885509D01*
X219280000Y2500000D02*
X216500000Y2500000D01*
X103732238Y-54820561D02*
X103767777Y-54776975D01*
X263613436Y-55011162D02*
X263639474Y-54961314D01*
X61430905Y-1885509D02*
X61410043Y-1937735D01*
X219512238Y-2179438D02*
X219478951Y-2134108D01*
X105650905Y-55114490D02*
X105669095Y-55167706D01*
X105684566Y-55221775D02*
X105697278Y-55276558D01*
X220827735Y-2520043D02*
X220775509Y-2540905D01*
X59280000Y-1500000D02*
X59280000Y2500000D01*
X104172264Y-54479956D02*
X104224490Y-54459094D01*
X60827735Y-2520043D02*
X60775509Y-2540905D01*
X221024108Y-2411048D02*
X220977150Y-2441995D01*
X59952264Y-2520043D02*
X59901162Y-2496563D01*
X221449095Y-1832293D02*
X221430905Y-1885509D01*
X56500000Y2500000D02*
X2500000Y2500000D01*
X265333024Y-54657777D02*
X265374753Y-54695479D01*
X105606563Y-55011162D02*
X105630043Y-55062264D01*
X61500000Y2500000D02*
X61500000Y-1500000D01*
X220166558Y-2587278D02*
X220111775Y-2574566D01*
X219280000Y-1500000D02*
X219280000Y2500000D01*
X61500000Y-1500000D02*
X61498575Y-1556220D01*
X263505694Y-55387703D02*
X263512799Y-55331915D01*
X264071314Y-54529474D02*
X264121162Y-54503436D01*
X105630043Y-55062264D02*
X105650905Y-55114490D01*
X59666975Y-2342222D02*
X59625246Y-2304520D01*
X59547777Y-2223024D02*
X59512238Y-2179438D01*
X219393436Y-1988837D02*
X219369956Y-1937735D01*
X265684566Y-55221775D02*
X265697278Y-55276558D01*
X104331775Y-54425433D02*
X104386558Y-54412721D01*
X221154753Y-2304520D02*
X221113024Y-2342222D01*
X264022849Y-54558004D02*
X264071314Y-54529474D01*
X221386563Y-1988837D02*
X221360525Y-2038685D01*
X265580525Y-54961314D02*
X265606563Y-55011162D01*
X221500000Y-1500000D02*
X221498575Y-1556220D01*
X263732238Y-54820561D02*
X263767777Y-54776975D01*
X220558084Y-2597200D02*
X220502296Y-2604305D01*
X59280000Y2500000D02*
X56500000Y2500000D01*
X104224490Y-54459094D02*
X104277706Y-54440904D01*
X263589956Y-55062264D02*
X263613436Y-55011162D01*
X104071314Y-54529474D02*
X104121162Y-54503436D01*
X59330904Y-1832293D02*
X59315433Y-1778224D01*
X60668224Y-2574566D02*
X60613441Y-2587278D01*
X263535433Y-55221775D02*
X263550904Y-55167706D01*
X265244108Y-54588951D02*
X265289438Y-54622238D01*
X59349094Y-1885509D02*
X59330904Y-1832293D01*
X219330904Y-1832293D02*
X219315433Y-1778224D01*
X221494305Y-1612296D02*
X221487200Y-1668084D01*
X264497703Y-54395694D02*
X264553779Y-54391424D01*
X263512799Y-55331915D02*
X263522721Y-55276558D01*
X2500000Y-59500000D02*
X103500000Y-59500000D01*
X105718575Y-55443779D02*
X105719999Y-55500000D01*
X105374753Y-54695479D02*
X105414520Y-54735246D01*
X264441915Y-54402799D02*
X264497703Y-54395694D01*
X103613436Y-55011162D02*
X103639474Y-54961314D01*
X104722296Y-54395694D02*
X104778084Y-54402799D01*
X263930561Y-54622238D02*
X263975891Y-54588951D01*
X105551995Y-54912849D02*
X105580525Y-54961314D01*
X264722296Y-54395694D02*
X264778084Y-54402799D01*
X61498575Y-1556220D02*
X61494305Y-1612296D01*
X60390000Y-2609999D02*
X60333779Y-2608575D01*
X264778084Y-54402799D02*
X264833441Y-54412721D01*
X162500000Y2500000D02*
X61500000Y2500000D01*
X221464566Y-1778224D02*
X221449095Y-1832293D01*
X105047735Y-54479956D02*
X105098837Y-54503436D01*
X59369956Y-1937735D02*
X59349094Y-1885509D01*
X61360525Y-2038685D02*
X61331995Y-2087150D01*
X265487761Y-54820561D02*
X265521048Y-54865891D01*
X263805479Y-54735246D02*
X263845246Y-54695479D01*
X59851314Y-2470525D02*
X59802849Y-2441995D01*
X265718575Y-55443779D02*
X265719999Y-55500000D01*
X219952264Y-2520043D02*
X219901162Y-2496563D01*
X103522721Y-55276558D02*
X103535433Y-55221775D01*
X221331995Y-2087150D02*
X221301048Y-2134108D01*
X60775509Y-2540905D02*
X60722293Y-2559095D01*
X61487200Y-1668084D02*
X61477278Y-1723441D01*
X219448004Y-2087150D02*
X219419474Y-2038685D01*
X105720000Y-59500000D02*
X108500000Y-59500000D01*
M02*
