M48
; DRILL file {KiCad (7.0.0)} date Thu Jul 13 12:22:18 2023
; FORMAT={-:-/ absolute / metric / decimal}
; #@! TF.CreationDate,2023-07-13T12:22:18+02:00
; #@! TF.GenerationSoftware,Kicad,Pcbnew,(7.0.0)
; #@! TF.FileFunction,NonPlated,1,4,NPTH
FMAT,2
METRIC
; #@! TA.AperFunction,NonPlated,NPTH,ComponentDrill
T1C1.450
; #@! TA.AperFunction,NonPlated,NPTH,ComponentDrill
T2C2.220
; #@! TA.AperFunction,NonPlated,NPTH,ComponentDrill
T3C3.200
%
G90
G05
T1
X22.54Y-24.1
X22.97Y-32.9
X46.436Y-24.099
X46.868Y-32.9
X70.336Y-24.1
X70.766Y-32.9
X94.234Y-24.1
X94.664Y-32.9
X118.132Y-24.1
X118.564Y-32.901
X142.03Y-24.1
X142.46Y-32.9
X182.54Y-24.1
X182.97Y-32.9
X206.436Y-24.099
X206.868Y-32.9
X230.336Y-24.1
X230.766Y-32.9
X254.234Y-24.1
X254.664Y-32.9
X278.132Y-24.1
X278.564Y-32.901
X302.03Y-24.1
X302.46Y-32.9
T2
X60.39Y-1.5
X104.61Y-55.5
X220.39Y-1.5
X264.61Y-55.5
T3
X6.38Y-31.83
X6.38Y-55.83
X6.62Y-1.17
X6.62Y-25.17
X158.38Y-31.83
X158.38Y-55.83
X158.62Y-1.17
X158.62Y-25.17
X166.38Y-31.83
X166.38Y-55.83
X166.62Y-1.17
X166.62Y-25.17
X318.38Y-31.83
X318.38Y-55.83
X318.62Y-1.17
X318.62Y-25.17
T0
M30
