M48
; DRILL file {KiCad (7.0.0)} date Thu Jul 13 12:22:18 2023
; FORMAT={-:-/ absolute / metric / decimal}
; #@! TF.CreationDate,2023-07-13T12:22:18+02:00
; #@! TF.GenerationSoftware,Kicad,Pcbnew,(7.0.0)
; #@! TF.FileFunction,Plated,1,4,PTH
FMAT,2
METRIC
; #@! TA.AperFunction,Plated,PTH,ViaDrill
T1C0.250
; #@! TA.AperFunction,Plated,PTH,ComponentDrill
T2C1.321
; #@! TA.AperFunction,Plated,PTH,ComponentDrill
T3C1.773
%
G90
G05
T1
X4.74Y-5.45
X4.74Y-10.53
X4.74Y-15.61
X4.74Y-20.69
X5.32Y-36.31
X5.32Y-41.39
X5.32Y-46.47
X5.32Y-51.55
X9.82Y-15.61
X9.82Y-20.642
X9.82Y-27.082
X10.4Y-29.917
X10.4Y-36.31
X10.4Y-41.39
X10.4Y-46.47
X10.4Y-51.55
X10.4Y-57.3
X11.29Y-27.082
X11.72Y-29.917
X12.36Y0.3
X12.36Y-5.408
X12.36Y-10.53
X14.29Y-27.082
X14.72Y-29.917
X15.48Y-46.47
X15.48Y-51.55
X15.48Y-57.3
X17.29Y-27.082
X17.44Y0.3
X17.44Y-5.408
X17.44Y-10.53
X17.72Y-29.917
X18.717Y-37.83
X18.717Y-38.83
X18.717Y-39.83
X18.717Y-40.855
X19.638Y-16.17
X20.23Y-38.83
X20.23Y-39.83
X20.23Y-40.83
X20.239Y-16.17
X20.56Y-29.917
X20.56Y-51.55
X20.56Y-57.3
X20.841Y-16.17
X21.02Y-47.002
X21.442Y-16.17
X21.725Y-39.83
X21.725Y-40.83
X22.07Y-9.997
X22.138Y-16.17
X22.22Y-48.002
X22.52Y0.3
X22.52Y-5.45
X22.52Y-27.082
X22.74Y-16.16
X23.27Y-8.997
X23.344Y-16.16
X23.42Y-47.002
X23.638Y-17.17
X23.795Y-18.17
X23.795Y-19.17
X23.946Y-16.17
X24.239Y-17.17
X24.47Y-9.997
X24.841Y-17.17
X25.138Y-16.17
X25.285Y-18.17
X25.285Y-19.17
X25.442Y-17.17
X25.64Y-29.917
X25.64Y-46.47
X25.64Y-51.55
X25.64Y-57.3
X25.739Y-16.17
X26.341Y-16.17
X26.638Y-17.17
X26.942Y-16.17
X26.99Y-18.17
X27.239Y-17.17
X27.6Y0.3
X27.6Y-5.45
X27.6Y-10.53
X27.6Y-27.082
X27.841Y-17.17
X28.442Y-17.17
X30.72Y-29.917
X30.72Y-46.47
X30.72Y-57.3
X32.68Y0.3
X32.68Y-5.45
X32.68Y-27.082
X35.127Y-27.082
X35.618Y-29.917
X35.8Y-57.3
X37.76Y0.3
X38.186Y-27.086
X38.618Y-29.917
X40.88Y-57.3
X40.958Y-39.83
X41.186Y-27.082
X41.559Y-39.83
X41.618Y-29.917
X42.161Y-39.83
X42.458Y-40.83
X42.602Y-36.83
X42.602Y-37.83
X42.602Y-38.83
X42.762Y-39.83
X42.84Y0.3
X42.84Y-27.082
X43.059Y-40.83
X43.582Y-35.566
X43.661Y-40.83
X43.958Y-39.83
X44.107Y-37.83
X44.107Y-38.83
X44.262Y-40.83
X44.559Y-39.83
X44.92Y-47.002
X45.161Y-39.83
X45.458Y-40.83
X45.467Y-34.022
X45.602Y-38.83
X45.762Y-39.83
X45.96Y-29.917
X45.96Y-57.3
X45.99Y-9.997
X46.059Y-40.83
X46.5Y-37.805
X46.664Y-40.83
X47.19Y-8.828
X47.266Y-40.83
X47.32Y-47.002
X47.692Y-16.17
X47.692Y-17.17
X47.692Y-18.17
X47.692Y-19.17
X47.692Y-20.17
X47.92Y0.3
X47.92Y-27.082
X47.958Y-40.83
X48.39Y-9.997
X48.559Y-40.83
X49.164Y-40.83
X49.17Y-17.17
X49.2Y-16.17
X49.2Y-18.17
X49.2Y-19.17
X49.766Y-40.83
X50.688Y-16.17
X50.688Y-17.17
X50.688Y-18.17
X50.726Y-37.698
X51.04Y-29.917
X51.04Y-57.3
X53.0Y0.3
X53.0Y-27.082
X55.33Y-29.917
X56.73Y0.3
X56.73Y-57.3
X58.0Y-1.17
X58.0Y-55.83
X59.086Y-27.082
X59.27Y-57.3
X59.516Y-29.917
X62.086Y-27.082
X62.516Y-29.917
X62.9Y-58.73
X63.7Y1.73
X64.858Y-39.83
X65.086Y-27.082
X65.3Y-58.73
X65.459Y-39.83
X65.516Y-29.917
X66.061Y-39.83
X66.1Y1.73
X66.358Y-40.83
X66.507Y-37.83
X66.507Y-38.83
X66.662Y-39.83
X66.959Y-40.83
X67.438Y-16.17
X67.561Y-40.83
X67.7Y-29.917
X67.7Y-58.73
X67.858Y-39.83
X68.005Y-38.83
X68.039Y-16.17
X68.162Y-40.83
X68.459Y-39.83
X68.5Y1.73
X68.5Y-27.082
X68.641Y-16.17
X68.82Y-47.002
X69.061Y-39.83
X69.242Y-16.17
X69.358Y-40.83
X69.662Y-39.83
X69.89Y-9.997
X69.959Y-40.83
X70.02Y-48.002
X70.1Y-58.73
X70.55Y-36.559
X70.561Y-40.83
X70.9Y1.73
X71.09Y-8.997
X71.162Y-40.83
X71.22Y-47.002
X71.585Y-16.17
X71.585Y-17.17
X71.585Y-18.17
X71.585Y-19.17
X72.29Y-9.997
X72.387Y-36.54
X72.5Y-29.917
X72.5Y-58.73
X72.59Y-21.23
X73.095Y-16.17
X73.095Y-17.17
X73.095Y-18.17
X73.095Y-19.17
X73.3Y1.73
X73.3Y-27.082
X74.593Y-16.17
X74.593Y-17.17
X74.9Y-58.73
X74.96Y-19.078
X74.96Y-19.679
X74.96Y-20.281
X74.96Y-20.882
X75.155Y-23.335
X75.7Y1.73
X75.788Y-17.375
X75.87Y-36.093
X75.87Y-36.695
X75.87Y-37.297
X75.87Y-37.898
X77.3Y-29.917
X77.3Y-58.73
X78.1Y1.73
X78.1Y-27.082
X79.7Y-58.73
X80.5Y1.73
X82.1Y-58.73
X82.9Y1.73
X84.5Y-58.73
X85.3Y1.73
X86.9Y-29.917
X86.9Y-58.73
X87.7Y1.73
X87.7Y-27.082
X89.13Y-19.102
X89.13Y-19.703
X89.13Y-20.305
X89.13Y-20.907
X89.212Y-39.625
X89.3Y-58.73
X89.845Y-33.665
X90.04Y-36.118
X90.04Y-36.719
X90.04Y-37.321
X90.04Y-37.922
X90.1Y1.73
X90.407Y-39.83
X90.407Y-40.83
X91.7Y-29.917
X91.7Y-58.73
X91.905Y-37.83
X91.905Y-38.83
X91.905Y-39.83
X91.905Y-40.83
X92.41Y-35.77
X92.5Y1.73
X92.5Y-27.082
X92.613Y-20.46
X92.71Y-47.002
X93.415Y-37.83
X93.415Y-38.83
X93.415Y-39.83
X93.415Y-40.83
X93.78Y-9.997
X93.838Y-16.17
X93.91Y-48.002
X94.1Y-58.73
X94.439Y-16.17
X94.45Y-20.441
X94.9Y1.73
X94.98Y-8.997
X95.041Y-16.17
X95.11Y-47.002
X95.338Y-17.17
X95.642Y-16.17
X95.758Y-40.83
X95.939Y-17.17
X96.18Y-9.997
X96.359Y-40.83
X96.5Y-29.917
X96.5Y-58.73
X96.541Y-17.17
X96.838Y-16.17
X96.961Y-40.83
X96.995Y-18.17
X97.142Y-17.17
X97.3Y1.73
X97.3Y-27.082
X97.439Y-16.17
X97.562Y-40.83
X98.041Y-16.17
X98.338Y-17.17
X98.492Y-18.17
X98.492Y-19.17
X98.642Y-16.17
X98.9Y-58.73
X98.939Y-17.17
X99.484Y-27.082
X99.541Y-17.17
X99.7Y1.73
X99.914Y-29.917
X100.142Y-17.17
X101.3Y-58.73
X102.1Y1.73
X102.484Y-27.082
X102.914Y-29.917
X105.484Y-27.082
X105.73Y0.3
X105.914Y-29.917
X107.0Y-1.17
X107.0Y-55.83
X108.27Y0.3
X108.27Y-57.3
X109.67Y-27.082
X112.0Y-29.917
X112.0Y-57.3
X113.96Y0.3
X113.96Y-27.082
X114.274Y-19.302
X114.312Y-38.83
X114.312Y-39.83
X114.312Y-40.83
X115.234Y-16.17
X115.8Y-37.83
X115.8Y-38.83
X115.8Y-40.83
X115.83Y-39.83
X115.836Y-16.17
X116.441Y-16.17
X116.61Y-47.002
X117.042Y-16.17
X117.08Y-29.917
X117.08Y-57.3
X117.307Y-36.83
X117.307Y-37.83
X117.307Y-38.83
X117.307Y-39.83
X117.307Y-40.83
X117.68Y-9.997
X117.734Y-16.17
X117.81Y-48.172
X118.336Y-16.17
X118.5Y-19.195
X118.941Y-16.17
X119.01Y-47.002
X119.04Y0.3
X119.04Y-27.082
X119.238Y-17.17
X119.397Y-18.17
X119.533Y-22.978
X119.542Y-16.17
X119.839Y-17.17
X120.08Y-9.997
X120.441Y-17.17
X120.738Y-16.17
X120.892Y-18.17
X120.892Y-19.17
X121.042Y-17.17
X121.339Y-16.17
X121.418Y-21.434
X121.941Y-16.17
X122.16Y-29.917
X122.16Y-57.3
X122.238Y-17.17
X122.397Y-18.17
X122.397Y-19.17
X122.397Y-20.17
X122.542Y-16.17
X122.839Y-17.17
X123.382Y-27.082
X123.441Y-17.17
X123.814Y-29.917
X124.042Y-17.17
X124.12Y0.3
X126.382Y-27.082
X126.814Y-29.914
X127.24Y-57.3
X129.2Y0.3
X129.382Y-27.082
X129.873Y-29.917
X132.32Y-29.917
X132.32Y-51.55
X132.32Y-57.3
X134.28Y0.3
X134.28Y-10.53
X134.28Y-27.082
X136.558Y-39.83
X137.159Y-39.83
X137.4Y-29.917
X137.4Y-46.47
X137.4Y-51.55
X137.4Y-57.3
X137.761Y-39.83
X138.01Y-38.83
X138.058Y-40.83
X138.362Y-39.83
X138.659Y-40.83
X139.261Y-40.83
X139.36Y0.3
X139.36Y-5.45
X139.36Y-10.53
X139.36Y-27.082
X139.558Y-39.83
X139.715Y-37.83
X139.715Y-38.83
X139.862Y-40.83
X140.159Y-39.83
X140.53Y-47.002
X140.761Y-39.83
X141.054Y-40.83
X141.205Y-37.83
X141.205Y-38.83
X141.362Y-39.83
X141.58Y-9.997
X141.656Y-40.84
X141.73Y-48.002
X142.26Y-40.84
X142.48Y-29.917
X142.48Y-51.55
X142.48Y-57.3
X142.78Y-8.997
X142.862Y-40.83
X142.93Y-47.002
X143.275Y-16.17
X143.275Y-17.17
X143.558Y-40.83
X143.98Y-9.997
X144.159Y-40.83
X144.44Y0.3
X144.44Y-5.45
X144.44Y-27.082
X144.761Y-40.83
X144.77Y-16.17
X144.77Y-17.17
X144.77Y-18.17
X145.362Y-40.83
X146.282Y-16.145
X146.282Y-17.17
X146.282Y-18.17
X146.282Y-19.17
X147.28Y-27.082
X147.56Y-46.47
X147.56Y-51.592
X147.56Y-57.3
X147.71Y-29.917
X149.52Y0.3
X149.52Y-5.45
X149.52Y-10.53
X150.28Y-27.082
X150.71Y-29.917
X152.64Y-46.47
X152.64Y-51.592
X152.64Y-57.3
X153.28Y-27.082
X153.71Y-29.917
X154.6Y0.3
X154.6Y-5.45
X154.6Y-10.53
X154.6Y-15.61
X154.6Y-20.69
X154.6Y-27.082
X155.18Y-29.917
X155.18Y-36.358
X155.18Y-41.39
X159.68Y-5.45
X159.68Y-10.53
X159.68Y-15.61
X159.68Y-20.69
X160.26Y-36.31
X160.26Y-41.39
X160.26Y-46.47
X160.26Y-51.55
X164.74Y-5.45
X164.74Y-10.53
X164.74Y-15.61
X164.74Y-20.69
X165.32Y-36.31
X165.32Y-41.39
X165.32Y-46.47
X165.32Y-51.55
X169.82Y-15.61
X169.82Y-20.642
X169.82Y-27.082
X170.4Y-29.917
X170.4Y-36.31
X170.4Y-41.39
X170.4Y-46.47
X170.4Y-51.55
X170.4Y-57.3
X171.29Y-27.082
X171.72Y-29.917
X172.36Y0.3
X172.36Y-5.408
X172.36Y-10.53
X174.29Y-27.082
X174.72Y-29.917
X175.48Y-46.47
X175.48Y-51.55
X175.48Y-57.3
X177.29Y-27.082
X177.44Y0.3
X177.44Y-5.408
X177.44Y-10.53
X177.72Y-29.917
X178.718Y-37.83
X178.718Y-38.83
X178.718Y-39.83
X178.718Y-40.855
X179.638Y-16.17
X180.23Y-38.83
X180.23Y-39.83
X180.23Y-40.83
X180.239Y-16.17
X180.56Y-29.917
X180.56Y-51.55
X180.56Y-57.3
X180.841Y-16.17
X181.02Y-47.002
X181.442Y-16.17
X181.725Y-39.83
X181.725Y-40.83
X182.07Y-9.997
X182.138Y-16.17
X182.22Y-48.002
X182.52Y0.3
X182.52Y-5.45
X182.52Y-27.082
X182.74Y-16.16
X183.27Y-8.997
X183.344Y-16.16
X183.42Y-47.002
X183.638Y-17.17
X183.795Y-18.17
X183.795Y-19.17
X183.946Y-16.17
X184.239Y-17.17
X184.47Y-9.997
X184.841Y-17.17
X185.138Y-16.17
X185.285Y-18.17
X185.285Y-19.17
X185.442Y-17.17
X185.64Y-29.917
X185.64Y-46.47
X185.64Y-51.55
X185.64Y-57.3
X185.739Y-16.17
X186.341Y-16.17
X186.638Y-17.17
X186.942Y-16.17
X186.99Y-18.17
X187.239Y-17.17
X187.6Y0.3
X187.6Y-5.45
X187.6Y-10.53
X187.6Y-27.082
X187.841Y-17.17
X188.442Y-17.17
X190.72Y-29.917
X190.72Y-46.47
X190.72Y-57.3
X192.68Y0.3
X192.68Y-5.45
X192.68Y-27.082
X195.127Y-27.082
X195.618Y-29.917
X195.8Y-57.3
X197.76Y0.3
X198.186Y-27.086
X198.618Y-29.917
X200.88Y-57.3
X200.958Y-39.83
X201.186Y-27.082
X201.559Y-39.83
X201.618Y-29.917
X202.161Y-39.83
X202.458Y-40.83
X202.602Y-36.83
X202.602Y-37.83
X202.602Y-38.83
X202.762Y-39.83
X202.84Y0.3
X202.84Y-27.082
X203.059Y-40.83
X203.582Y-35.566
X203.661Y-40.83
X203.958Y-39.83
X204.107Y-37.83
X204.107Y-38.83
X204.262Y-40.83
X204.559Y-39.83
X204.92Y-47.002
X205.161Y-39.83
X205.458Y-40.83
X205.467Y-34.022
X205.602Y-38.83
X205.762Y-39.83
X205.96Y-29.917
X205.96Y-57.3
X205.99Y-9.997
X206.059Y-40.83
X206.5Y-37.805
X206.664Y-40.83
X207.19Y-8.828
X207.266Y-40.83
X207.32Y-47.002
X207.692Y-16.17
X207.692Y-17.17
X207.692Y-18.17
X207.692Y-19.17
X207.692Y-20.17
X207.92Y0.3
X207.92Y-27.082
X207.958Y-40.83
X208.39Y-9.997
X208.559Y-40.83
X209.164Y-40.83
X209.17Y-17.17
X209.2Y-16.17
X209.2Y-18.17
X209.2Y-19.17
X209.766Y-40.83
X210.688Y-16.17
X210.688Y-17.17
X210.688Y-18.17
X210.726Y-37.698
X211.04Y-29.917
X211.04Y-57.3
X213.0Y0.3
X213.0Y-27.082
X215.33Y-29.917
X216.73Y0.3
X216.73Y-57.3
X218.0Y-1.17
X218.0Y-55.83
X219.086Y-27.082
X219.27Y-57.3
X219.516Y-29.917
X222.086Y-27.082
X222.516Y-29.917
X222.9Y-58.73
X223.7Y1.73
X224.858Y-39.83
X225.086Y-27.082
X225.3Y-58.73
X225.459Y-39.83
X225.516Y-29.917
X226.061Y-39.83
X226.1Y1.73
X226.358Y-40.83
X226.507Y-37.83
X226.507Y-38.83
X226.662Y-39.83
X226.959Y-40.83
X227.438Y-16.17
X227.561Y-40.83
X227.7Y-29.917
X227.7Y-58.73
X227.858Y-39.83
X228.005Y-38.83
X228.039Y-16.17
X228.162Y-40.83
X228.459Y-39.83
X228.5Y1.73
X228.5Y-27.082
X228.641Y-16.17
X228.82Y-47.002
X229.061Y-39.83
X229.242Y-16.17
X229.358Y-40.83
X229.662Y-39.83
X229.89Y-9.997
X229.959Y-40.83
X230.02Y-48.002
X230.1Y-58.73
X230.55Y-36.559
X230.561Y-40.83
X230.9Y1.73
X231.09Y-8.997
X231.162Y-40.83
X231.22Y-47.002
X231.585Y-16.17
X231.585Y-17.17
X231.585Y-18.17
X231.585Y-19.17
X232.29Y-9.997
X232.387Y-36.54
X232.5Y-29.917
X232.5Y-58.73
X232.59Y-21.23
X233.095Y-16.17
X233.095Y-17.17
X233.095Y-18.17
X233.095Y-19.17
X233.3Y1.73
X233.3Y-27.082
X234.593Y-16.17
X234.593Y-17.17
X234.9Y-58.73
X234.96Y-19.078
X234.96Y-19.679
X234.96Y-20.281
X234.96Y-20.882
X235.155Y-23.335
X235.7Y1.73
X235.788Y-17.375
X235.87Y-36.093
X235.87Y-36.695
X235.87Y-37.297
X235.87Y-37.898
X237.3Y-29.917
X237.3Y-58.73
X238.1Y1.73
X238.1Y-27.082
X239.7Y-58.73
X240.5Y1.73
X242.1Y-58.73
X242.9Y1.73
X244.5Y-58.73
X245.3Y1.73
X246.9Y-29.917
X246.9Y-58.73
X247.7Y1.73
X247.7Y-27.082
X249.13Y-19.102
X249.13Y-19.703
X249.13Y-20.305
X249.13Y-20.907
X249.212Y-39.625
X249.3Y-58.73
X249.845Y-33.665
X250.04Y-36.118
X250.04Y-36.719
X250.04Y-37.321
X250.04Y-37.922
X250.1Y1.73
X250.407Y-39.83
X250.407Y-40.83
X251.7Y-29.917
X251.7Y-58.73
X251.905Y-37.83
X251.905Y-38.83
X251.905Y-39.83
X251.905Y-40.83
X252.41Y-35.77
X252.5Y1.73
X252.5Y-27.082
X252.613Y-20.46
X252.71Y-47.002
X253.415Y-37.83
X253.415Y-38.83
X253.415Y-39.83
X253.415Y-40.83
X253.78Y-9.997
X253.838Y-16.17
X253.91Y-48.002
X254.1Y-58.73
X254.439Y-16.17
X254.45Y-20.441
X254.9Y1.73
X254.98Y-8.997
X255.041Y-16.17
X255.11Y-47.002
X255.338Y-17.17
X255.642Y-16.17
X255.758Y-40.83
X255.939Y-17.17
X256.18Y-9.997
X256.359Y-40.83
X256.5Y-29.917
X256.5Y-58.73
X256.541Y-17.17
X256.838Y-16.17
X256.961Y-40.83
X256.995Y-18.17
X257.142Y-17.17
X257.3Y1.73
X257.3Y-27.082
X257.439Y-16.17
X257.562Y-40.83
X258.041Y-16.17
X258.338Y-17.17
X258.493Y-18.17
X258.493Y-19.17
X258.642Y-16.17
X258.9Y-58.73
X258.939Y-17.17
X259.484Y-27.082
X259.541Y-17.17
X259.7Y1.73
X259.914Y-29.917
X260.142Y-17.17
X261.3Y-58.73
X262.1Y1.73
X262.484Y-27.082
X262.914Y-29.917
X265.484Y-27.082
X265.73Y0.3
X265.914Y-29.917
X267.0Y-1.17
X267.0Y-55.83
X268.27Y0.3
X268.27Y-57.3
X269.67Y-27.082
X272.0Y-29.917
X272.0Y-57.3
X273.96Y0.3
X273.96Y-27.082
X274.274Y-19.302
X274.312Y-38.83
X274.312Y-39.83
X274.312Y-40.83
X275.234Y-16.17
X275.8Y-37.83
X275.8Y-38.83
X275.8Y-40.83
X275.83Y-39.83
X275.836Y-16.17
X276.441Y-16.17
X276.61Y-47.002
X277.042Y-16.17
X277.08Y-29.917
X277.08Y-57.3
X277.308Y-36.83
X277.308Y-37.83
X277.308Y-38.83
X277.308Y-39.83
X277.308Y-40.83
X277.68Y-9.997
X277.734Y-16.17
X277.81Y-48.172
X278.336Y-16.17
X278.5Y-19.195
X278.941Y-16.17
X279.01Y-47.002
X279.04Y0.3
X279.04Y-27.082
X279.238Y-17.17
X279.397Y-18.17
X279.533Y-22.978
X279.542Y-16.17
X279.839Y-17.17
X280.08Y-9.997
X280.441Y-17.17
X280.738Y-16.17
X280.892Y-18.17
X280.892Y-19.17
X281.042Y-17.17
X281.339Y-16.17
X281.418Y-21.434
X281.941Y-16.17
X282.16Y-29.917
X282.16Y-57.3
X282.238Y-17.17
X282.397Y-18.17
X282.397Y-19.17
X282.397Y-20.17
X282.542Y-16.17
X282.839Y-17.17
X283.382Y-27.082
X283.441Y-17.17
X283.814Y-29.917
X284.042Y-17.17
X284.12Y0.3
X286.382Y-27.082
X286.814Y-29.914
X287.24Y-57.3
X289.2Y0.3
X289.382Y-27.082
X289.873Y-29.917
X292.32Y-29.917
X292.32Y-51.55
X292.32Y-57.3
X294.28Y0.3
X294.28Y-10.53
X294.28Y-27.082
X296.558Y-39.83
X297.159Y-39.83
X297.4Y-29.917
X297.4Y-46.47
X297.4Y-51.55
X297.4Y-57.3
X297.761Y-39.83
X298.01Y-38.83
X298.058Y-40.83
X298.362Y-39.83
X298.659Y-40.83
X299.261Y-40.83
X299.36Y0.3
X299.36Y-5.45
X299.36Y-10.53
X299.36Y-27.082
X299.558Y-39.83
X299.715Y-37.83
X299.715Y-38.83
X299.862Y-40.83
X300.159Y-39.83
X300.53Y-47.002
X300.761Y-39.83
X301.054Y-40.83
X301.205Y-37.83
X301.205Y-38.83
X301.362Y-39.83
X301.58Y-9.997
X301.656Y-40.84
X301.73Y-48.002
X302.26Y-40.84
X302.48Y-29.917
X302.48Y-51.55
X302.48Y-57.3
X302.78Y-8.997
X302.862Y-40.83
X302.93Y-47.002
X303.275Y-16.17
X303.275Y-17.17
X303.558Y-40.83
X303.98Y-9.997
X304.159Y-40.83
X304.44Y0.3
X304.44Y-5.45
X304.44Y-27.082
X304.761Y-40.83
X304.77Y-16.17
X304.77Y-17.17
X304.77Y-18.17
X305.362Y-40.83
X306.282Y-16.145
X306.282Y-17.17
X306.282Y-18.17
X306.282Y-19.17
X307.28Y-27.082
X307.56Y-46.47
X307.56Y-51.592
X307.56Y-57.3
X307.71Y-29.917
X309.52Y0.3
X309.52Y-5.45
X309.52Y-10.53
X310.28Y-27.082
X310.71Y-29.917
X312.64Y-46.47
X312.64Y-51.592
X312.64Y-57.3
X313.28Y-27.082
X313.71Y-29.917
X314.6Y0.3
X314.6Y-5.45
X314.6Y-10.53
X314.6Y-15.61
X314.6Y-20.69
X314.6Y-27.082
X315.18Y-29.917
X315.18Y-36.358
X315.18Y-41.39
X319.68Y-5.45
X319.68Y-10.53
X319.68Y-15.61
X319.68Y-20.69
X320.26Y-36.31
X320.26Y-41.39
X320.26Y-46.47
X320.26Y-51.55
T2
X14.29Y-23.32
X14.72Y-33.68
X30.79Y-23.32
X31.22Y-33.68
X38.186Y-23.319
X38.618Y-33.68
X54.686Y-23.319
X55.118Y-33.68
X62.086Y-23.32
X62.516Y-33.68
X78.586Y-23.32
X79.016Y-33.68
X85.984Y-23.32
X86.414Y-33.68
X102.484Y-23.32
X102.914Y-33.68
X109.882Y-23.32
X110.314Y-33.681
X126.382Y-23.32
X126.814Y-33.681
X133.78Y-23.32
X134.21Y-33.68
X150.28Y-23.32
X150.71Y-33.68
X174.29Y-23.32
X174.72Y-33.68
X190.79Y-23.32
X191.22Y-33.68
X198.186Y-23.319
X198.618Y-33.68
X214.686Y-23.319
X215.118Y-33.68
X222.086Y-23.32
X222.516Y-33.68
X238.586Y-23.32
X239.016Y-33.68
X245.984Y-23.32
X246.414Y-33.68
X262.484Y-23.32
X262.914Y-33.68
X269.882Y-23.32
X270.314Y-33.681
X286.382Y-23.32
X286.814Y-33.681
X293.78Y-23.32
X294.21Y-33.68
X310.28Y-23.32
X310.71Y-33.68
T3
X14.29Y-16.54
X14.72Y-40.46
X30.79Y-16.54
X31.22Y-40.46
X38.186Y-16.539
X38.618Y-40.46
X54.686Y-16.539
X55.118Y-40.46
X62.086Y-16.54
X62.516Y-40.46
X78.586Y-16.54
X79.016Y-40.46
X85.984Y-16.54
X86.414Y-40.46
X102.484Y-16.54
X102.914Y-40.46
X109.882Y-16.54
X110.314Y-40.461
X126.382Y-16.54
X126.814Y-40.461
X133.78Y-16.54
X134.21Y-40.46
X150.28Y-16.54
X150.71Y-40.46
X174.29Y-16.54
X174.72Y-40.46
X190.79Y-16.54
X191.22Y-40.46
X198.186Y-16.539
X198.618Y-40.46
X214.686Y-16.539
X215.118Y-40.46
X222.086Y-16.54
X222.516Y-40.46
X238.586Y-16.54
X239.016Y-40.46
X245.984Y-16.54
X246.414Y-40.46
X262.484Y-16.54
X262.914Y-40.46
X269.882Y-16.54
X270.314Y-40.461
X286.382Y-16.54
X286.814Y-40.461
X293.78Y-16.54
X294.21Y-40.46
X310.28Y-16.54
X310.71Y-40.46
T0
M30
