%TF.GenerationSoftware,KiCad,Pcbnew,(7.0.0)*%
%TF.CreationDate,2023-07-13T11:56:27+02:00*%
%TF.ProjectId,RD53B_Quad_6DP_to_ERF8_Data_Adapter,52443533-425f-4517-9561-645f3644505f,V1*%
%TF.SameCoordinates,PX1767f18PY451e560*%
%TF.FileFunction,Drillmap*%
%TF.FilePolarity,Positive*%
%FSLAX45Y45*%
G04 Gerber Fmt 4.5, Leading zero omitted, Abs format (unit mm)*
G04 Created by KiCad (PCBNEW (7.0.0)) date 2023-07-13 11:56:27*
%MOMM*%
%LPD*%
G01*
G04 APERTURE LIST*
%ADD10C,0.010000*%
%ADD11C,0.200000*%
%ADD12C,0.025000*%
%ADD13C,0.132100*%
%ADD14C,0.177340*%
G04 APERTURE END LIST*
D10*
X-200Y3100500D02*
X-200Y500D01*
X15999800Y3100500D02*
X15999800Y500D01*
X10599800Y3100500D02*
X15999800Y3100500D01*
X5399800Y3100500D02*
X-200Y3100500D01*
X-200Y500D02*
X15999800Y500D01*
D11*
D12*
X211300Y2318000D02*
X236300Y2293000D01*
X236300Y2318000D02*
X211300Y2293000D01*
X211300Y1810000D02*
X236300Y1785000D01*
X236300Y1810000D02*
X211300Y1785000D01*
X211300Y1302000D02*
X236300Y1277000D01*
X236300Y1302000D02*
X211300Y1277000D01*
X211300Y794000D02*
X236300Y769000D01*
X236300Y794000D02*
X211300Y769000D01*
X719300Y1302000D02*
X744300Y1277000D01*
X744300Y1302000D02*
X719300Y1277000D01*
X719300Y798800D02*
X744300Y773800D01*
X744300Y798800D02*
X719300Y773800D01*
X719300Y154750D02*
X744300Y129750D01*
X744300Y154750D02*
X719300Y129750D01*
X866300Y154750D02*
X891300Y129750D01*
X891300Y154750D02*
X866300Y129750D01*
X973300Y2893000D02*
X998300Y2868000D01*
X998300Y2893000D02*
X973300Y2868000D01*
X973300Y2322200D02*
X998300Y2297200D01*
X998300Y2322200D02*
X973300Y2297200D01*
X973300Y1810000D02*
X998300Y1785000D01*
X998300Y1810000D02*
X973300Y1785000D01*
X1166300Y154750D02*
X1191300Y129750D01*
X1191300Y154750D02*
X1166300Y129750D01*
X1466300Y154750D02*
X1491300Y129750D01*
X1491300Y154750D02*
X1466300Y129750D01*
X1481300Y2893000D02*
X1506300Y2868000D01*
X1506300Y2893000D02*
X1481300Y2868000D01*
X1481300Y2322200D02*
X1506300Y2297200D01*
X1506300Y2322200D02*
X1481300Y2297200D01*
X1481300Y1810000D02*
X1506300Y1785000D01*
X1506300Y1810000D02*
X1481300Y1785000D01*
X1701060Y1246000D02*
X1726060Y1221000D01*
X1726060Y1246000D02*
X1701060Y1221000D01*
X1761220Y1246000D02*
X1786220Y1221000D01*
X1786220Y1246000D02*
X1761220Y1221000D01*
X1821380Y1246000D02*
X1846380Y1221000D01*
X1846380Y1246000D02*
X1821380Y1221000D01*
X1881540Y1246000D02*
X1906540Y1221000D01*
X1906540Y1246000D02*
X1881540Y1221000D01*
X1944300Y1863250D02*
X1969300Y1838250D01*
X1969300Y1863250D02*
X1944300Y1838250D01*
X1951140Y1246000D02*
X1976140Y1221000D01*
X1976140Y1246000D02*
X1951140Y1221000D01*
X1989300Y2893000D02*
X2014300Y2868000D01*
X2014300Y2893000D02*
X1989300Y2868000D01*
X1989300Y2318000D02*
X2014300Y2293000D01*
X2014300Y2318000D02*
X1989300Y2293000D01*
X1989300Y154750D02*
X2014300Y129750D01*
X2014300Y154750D02*
X1989300Y129750D01*
X2011300Y1247000D02*
X2036300Y1222000D01*
X2036300Y1247000D02*
X2011300Y1222000D01*
X2064300Y1963250D02*
X2089300Y1938250D01*
X2089300Y1963250D02*
X2064300Y1938250D01*
X2071710Y1247000D02*
X2096710Y1222000D01*
X2096710Y1247000D02*
X2071710Y1222000D01*
X2101060Y1146000D02*
X2126060Y1121000D01*
X2126060Y1146000D02*
X2101060Y1121000D01*
X2116800Y1046000D02*
X2141800Y1021000D01*
X2141800Y1046000D02*
X2116800Y1021000D01*
X2116800Y946000D02*
X2141800Y921000D01*
X2141800Y946000D02*
X2116800Y921000D01*
X2131870Y1246000D02*
X2156870Y1221000D01*
X2156870Y1246000D02*
X2131870Y1221000D01*
X2161220Y1146000D02*
X2186220Y1121000D01*
X2186220Y1146000D02*
X2161220Y1121000D01*
X2184300Y1863250D02*
X2209300Y1838250D01*
X2209300Y1863250D02*
X2184300Y1838250D01*
X2221380Y1146000D02*
X2246380Y1121000D01*
X2246380Y1146000D02*
X2221380Y1121000D01*
X2251060Y1246000D02*
X2276060Y1221000D01*
X2276060Y1246000D02*
X2251060Y1221000D01*
X2265800Y1046000D02*
X2290800Y1021000D01*
X2290800Y1046000D02*
X2265800Y1021000D01*
X2265800Y946000D02*
X2290800Y921000D01*
X2290800Y946000D02*
X2265800Y921000D01*
X2281540Y1146000D02*
X2306540Y1121000D01*
X2306540Y1146000D02*
X2281540Y1121000D01*
X2311220Y1246000D02*
X2336220Y1221000D01*
X2336220Y1246000D02*
X2311220Y1221000D01*
X2371380Y1246000D02*
X2396380Y1221000D01*
X2396380Y1246000D02*
X2371380Y1221000D01*
X2401060Y1146000D02*
X2426060Y1121000D01*
X2426060Y1146000D02*
X2401060Y1121000D01*
X2431540Y1246000D02*
X2456540Y1221000D01*
X2456540Y1246000D02*
X2431540Y1221000D01*
X2436300Y1046000D02*
X2461300Y1021000D01*
X2461300Y1046000D02*
X2436300Y1021000D01*
X2461220Y1146000D02*
X2486220Y1121000D01*
X2486220Y1146000D02*
X2461220Y1121000D01*
X2497300Y2893000D02*
X2522300Y2868000D01*
X2522300Y2893000D02*
X2497300Y2868000D01*
X2497300Y2318000D02*
X2522300Y2293000D01*
X2522300Y2318000D02*
X2497300Y2293000D01*
X2497300Y1810000D02*
X2522300Y1785000D01*
X2522300Y1810000D02*
X2497300Y1785000D01*
X2497300Y154750D02*
X2522300Y129750D01*
X2522300Y154750D02*
X2497300Y129750D01*
X2521380Y1146000D02*
X2546380Y1121000D01*
X2546380Y1146000D02*
X2521380Y1121000D01*
X2581540Y1146000D02*
X2606540Y1121000D01*
X2606540Y1146000D02*
X2581540Y1121000D01*
X3005300Y2893000D02*
X3030300Y2868000D01*
X3030300Y2893000D02*
X3005300Y2868000D01*
X3005300Y2318000D02*
X3030300Y2293000D01*
X3030300Y2318000D02*
X3005300Y2293000D01*
X3005300Y154750D02*
X3030300Y129750D01*
X3030300Y154750D02*
X3005300Y129750D01*
X3250000Y154750D02*
X3275000Y129750D01*
X3275000Y154750D02*
X3250000Y129750D01*
X3513300Y2893000D02*
X3538300Y2868000D01*
X3538300Y2893000D02*
X3513300Y2868000D01*
X3555900Y154400D02*
X3580900Y129400D01*
X3580900Y154400D02*
X3555900Y129400D01*
X3855900Y154750D02*
X3880900Y129750D01*
X3880900Y154750D02*
X3855900Y129750D01*
X4021300Y2893000D02*
X4046300Y2868000D01*
X4046300Y2893000D02*
X4021300Y2868000D01*
X4021300Y154750D02*
X4046300Y129750D01*
X4046300Y154750D02*
X4021300Y129750D01*
X4336300Y1863250D02*
X4361300Y1838250D01*
X4361300Y1863250D02*
X4336300Y1838250D01*
X4456300Y1980170D02*
X4481300Y1955170D01*
X4481300Y1980170D02*
X4456300Y1955170D01*
X4506550Y1246000D02*
X4531550Y1221000D01*
X4531550Y1246000D02*
X4506550Y1221000D01*
X4506550Y1146000D02*
X4531550Y1121000D01*
X4531550Y1146000D02*
X4506550Y1121000D01*
X4506550Y1046000D02*
X4531550Y1021000D01*
X4531550Y1046000D02*
X4506550Y1021000D01*
X4506550Y946000D02*
X4531550Y921000D01*
X4531550Y946000D02*
X4506550Y921000D01*
X4506550Y846000D02*
X4531550Y821000D01*
X4531550Y846000D02*
X4506550Y821000D01*
X4529300Y2893000D02*
X4554300Y2868000D01*
X4554300Y2893000D02*
X4529300Y2868000D01*
X4529300Y154750D02*
X4554300Y129750D01*
X4554300Y154750D02*
X4529300Y129750D01*
X4576300Y1863250D02*
X4601300Y1838250D01*
X4601300Y1863250D02*
X4576300Y1838250D01*
X4654300Y1146000D02*
X4679300Y1121000D01*
X4679300Y1146000D02*
X4654300Y1121000D01*
X4657300Y1246000D02*
X4682300Y1221000D01*
X4682300Y1246000D02*
X4657300Y1221000D01*
X4657300Y1046000D02*
X4682300Y1021000D01*
X4682300Y1046000D02*
X4657300Y1021000D01*
X4657300Y946000D02*
X4682300Y921000D01*
X4682300Y946000D02*
X4657300Y921000D01*
X4806050Y1246000D02*
X4831050Y1221000D01*
X4831050Y1246000D02*
X4806050Y1221000D01*
X4806050Y1146000D02*
X4831050Y1121000D01*
X4831050Y1146000D02*
X4806050Y1121000D01*
X4806050Y1046000D02*
X4831050Y1021000D01*
X4831050Y1046000D02*
X4806050Y1021000D01*
X5037300Y2893000D02*
X5062300Y2868000D01*
X5062300Y2893000D02*
X5037300Y2868000D01*
X5037300Y154750D02*
X5062300Y129750D01*
X5062300Y154750D02*
X5037300Y129750D01*
X5410300Y2893000D02*
X5435300Y2868000D01*
X5435300Y2893000D02*
X5410300Y2868000D01*
X5537300Y2746000D02*
X5562300Y2721000D01*
X5562300Y2746000D02*
X5537300Y2721000D01*
X5645900Y154750D02*
X5670900Y129750D01*
X5670900Y154750D02*
X5645900Y129750D01*
X5945900Y154750D02*
X5970900Y129750D01*
X5970900Y154750D02*
X5945900Y129750D01*
X6107300Y3036000D02*
X6132300Y3011000D01*
X6132300Y3036000D02*
X6107300Y3011000D01*
X6245900Y154750D02*
X6270900Y129750D01*
X6270900Y154750D02*
X6245900Y129750D01*
X6347300Y3036000D02*
X6372300Y3011000D01*
X6372300Y3036000D02*
X6347300Y3011000D01*
X6481060Y1246000D02*
X6506060Y1221000D01*
X6506060Y1246000D02*
X6481060Y1221000D01*
X6541220Y1246000D02*
X6566220Y1221000D01*
X6566220Y1246000D02*
X6541220Y1221000D01*
X6587300Y3036000D02*
X6612300Y3011000D01*
X6612300Y3036000D02*
X6587300Y3011000D01*
X6587300Y154750D02*
X6612300Y129750D01*
X6612300Y154750D02*
X6587300Y129750D01*
X6601380Y1246000D02*
X6626380Y1221000D01*
X6626380Y1246000D02*
X6601380Y1221000D01*
X6661540Y1246000D02*
X6686540Y1221000D01*
X6686540Y1246000D02*
X6661540Y1221000D01*
X6726300Y1863250D02*
X6751300Y1838250D01*
X6751300Y1863250D02*
X6726300Y1838250D01*
X6827300Y3036000D02*
X6852300Y3011000D01*
X6852300Y3036000D02*
X6827300Y3011000D01*
X6846300Y1963250D02*
X6871300Y1938250D01*
X6871300Y1963250D02*
X6846300Y1938250D01*
X6895800Y1246000D02*
X6920800Y1221000D01*
X6920800Y1246000D02*
X6895800Y1221000D01*
X6895800Y1146000D02*
X6920800Y1121000D01*
X6920800Y1146000D02*
X6895800Y1121000D01*
X6895800Y1046000D02*
X6920800Y1021000D01*
X6920800Y1046000D02*
X6895800Y1021000D01*
X6895800Y946000D02*
X6920800Y921000D01*
X6920800Y946000D02*
X6895800Y921000D01*
X6966300Y1863250D02*
X6991300Y1838250D01*
X6991300Y1863250D02*
X6966300Y1838250D01*
X6996300Y740000D02*
X7021300Y715000D01*
X7021300Y740000D02*
X6996300Y715000D01*
X7046800Y1246000D02*
X7071800Y1221000D01*
X7071800Y1246000D02*
X7046800Y1221000D01*
X7046800Y1146000D02*
X7071800Y1121000D01*
X7071800Y1146000D02*
X7046800Y1121000D01*
X7046800Y1046000D02*
X7071800Y1021000D01*
X7071800Y1046000D02*
X7046800Y1021000D01*
X7046800Y946000D02*
X7071800Y921000D01*
X7071800Y946000D02*
X7046800Y921000D01*
X7067300Y3036000D02*
X7092300Y3011000D01*
X7092300Y3036000D02*
X7067300Y3011000D01*
X7067300Y154750D02*
X7092300Y129750D01*
X7092300Y154750D02*
X7067300Y129750D01*
X7196550Y1246000D02*
X7221550Y1221000D01*
X7221550Y1246000D02*
X7196550Y1221000D01*
X7196550Y1146000D02*
X7221550Y1121000D01*
X7221550Y1146000D02*
X7196550Y1121000D01*
X7233300Y955240D02*
X7258300Y930240D01*
X7258300Y955240D02*
X7233300Y930240D01*
X7233300Y895080D02*
X7258300Y870080D01*
X7258300Y895080D02*
X7233300Y870080D01*
X7233300Y834920D02*
X7258300Y809920D01*
X7258300Y834920D02*
X7233300Y809920D01*
X7233300Y774760D02*
X7258300Y749760D01*
X7258300Y774760D02*
X7233300Y749760D01*
X7252800Y529500D02*
X7277800Y504500D01*
X7277800Y529500D02*
X7252800Y504500D01*
X7307300Y3036000D02*
X7332300Y3011000D01*
X7332300Y3036000D02*
X7307300Y3011000D01*
X7316100Y1125500D02*
X7341100Y1100500D01*
X7341100Y1125500D02*
X7316100Y1100500D01*
X7547300Y3036000D02*
X7572300Y3011000D01*
X7572300Y3036000D02*
X7547300Y3011000D01*
X7547300Y154750D02*
X7572300Y129750D01*
X7572300Y154750D02*
X7547300Y129750D01*
X7787300Y3036000D02*
X7812300Y3011000D01*
X7812300Y3036000D02*
X7787300Y3011000D01*
X8027300Y3036000D02*
X8052300Y3011000D01*
X8052300Y3036000D02*
X8027300Y3011000D01*
X8267300Y3036000D02*
X8292300Y3011000D01*
X8292300Y3036000D02*
X8267300Y3011000D01*
X8507300Y3036000D02*
X8532300Y3011000D01*
X8532300Y3036000D02*
X8507300Y3011000D01*
X8507300Y154750D02*
X8532300Y129750D01*
X8532300Y154750D02*
X8507300Y129750D01*
X8650300Y952820D02*
X8675300Y927820D01*
X8675300Y952820D02*
X8650300Y927820D01*
X8650300Y892660D02*
X8675300Y867660D01*
X8675300Y892660D02*
X8650300Y867660D01*
X8650300Y832500D02*
X8675300Y807500D01*
X8675300Y832500D02*
X8650300Y807500D01*
X8650300Y772340D02*
X8675300Y747340D01*
X8675300Y772340D02*
X8650300Y747340D01*
X8747300Y3036000D02*
X8772300Y3011000D01*
X8772300Y3036000D02*
X8747300Y3011000D01*
X8987300Y3036000D02*
X9012300Y3011000D01*
X9012300Y3036000D02*
X8987300Y3011000D01*
X8987300Y154750D02*
X9012300Y129750D01*
X9012300Y154750D02*
X8987300Y129750D01*
X8998600Y817000D02*
X9023600Y792000D01*
X9023600Y817000D02*
X8998600Y792000D01*
X9115300Y1863250D02*
X9140300Y1838250D01*
X9140300Y1863250D02*
X9115300Y1838250D01*
X9121060Y1246000D02*
X9146060Y1221000D01*
X9146060Y1246000D02*
X9121060Y1221000D01*
X9181220Y1246000D02*
X9206220Y1221000D01*
X9206220Y1246000D02*
X9181220Y1221000D01*
X9182300Y818900D02*
X9207300Y793900D01*
X9207300Y818900D02*
X9182300Y793900D01*
X9227300Y3036000D02*
X9252300Y3011000D01*
X9252300Y3036000D02*
X9227300Y3011000D01*
X9235300Y1963250D02*
X9260300Y1938250D01*
X9260300Y1963250D02*
X9235300Y1938250D01*
X9241380Y1246000D02*
X9266380Y1221000D01*
X9266380Y1246000D02*
X9241380Y1221000D01*
X9271060Y1146000D02*
X9296060Y1121000D01*
X9296060Y1146000D02*
X9271060Y1121000D01*
X9301540Y1246000D02*
X9326540Y1221000D01*
X9326540Y1246000D02*
X9301540Y1221000D01*
X9331220Y1146000D02*
X9356220Y1121000D01*
X9356220Y1146000D02*
X9331220Y1121000D01*
X9355300Y1863250D02*
X9380300Y1838250D01*
X9380300Y1863250D02*
X9355300Y1838250D01*
X9391380Y1146000D02*
X9416380Y1121000D01*
X9416380Y1146000D02*
X9391380Y1121000D01*
X9421060Y1246000D02*
X9446060Y1221000D01*
X9446060Y1246000D02*
X9421060Y1221000D01*
X9436800Y1046000D02*
X9461800Y1021000D01*
X9461800Y1046000D02*
X9436800Y1021000D01*
X9451540Y1146000D02*
X9476540Y1121000D01*
X9476540Y1146000D02*
X9451540Y1121000D01*
X9467300Y3036000D02*
X9492300Y3011000D01*
X9492300Y3036000D02*
X9467300Y3011000D01*
X9467300Y154750D02*
X9492300Y129750D01*
X9492300Y154750D02*
X9467300Y129750D01*
X9481220Y1246000D02*
X9506220Y1221000D01*
X9506220Y1246000D02*
X9481220Y1221000D01*
X9541380Y1246000D02*
X9566380Y1221000D01*
X9566380Y1246000D02*
X9541380Y1221000D01*
X9571060Y1146000D02*
X9596060Y1121000D01*
X9596060Y1146000D02*
X9571060Y1121000D01*
X9586550Y1046000D02*
X9611550Y1021000D01*
X9611550Y1046000D02*
X9586550Y1021000D01*
X9586550Y946000D02*
X9611550Y921000D01*
X9611550Y946000D02*
X9586550Y921000D01*
X9601540Y1246000D02*
X9626540Y1221000D01*
X9626540Y1246000D02*
X9601540Y1221000D01*
X9631220Y1146000D02*
X9656220Y1121000D01*
X9656220Y1146000D02*
X9631220Y1121000D01*
X9685700Y154750D02*
X9710700Y129750D01*
X9710700Y154750D02*
X9685700Y129750D01*
X9691380Y1146000D02*
X9716380Y1121000D01*
X9716380Y1146000D02*
X9691380Y1121000D01*
X9707300Y3036000D02*
X9732300Y3011000D01*
X9732300Y3036000D02*
X9707300Y3011000D01*
X9751540Y1146000D02*
X9776540Y1121000D01*
X9776540Y1146000D02*
X9751540Y1121000D01*
X9947300Y3036000D02*
X9972300Y3011000D01*
X9972300Y3036000D02*
X9947300Y3011000D01*
X9985700Y154750D02*
X10010700Y129750D01*
X10010700Y154750D02*
X9985700Y129750D01*
X10285700Y154750D02*
X10310700Y129750D01*
X10310700Y154750D02*
X10285700Y129750D01*
X10310300Y2893000D02*
X10335300Y2868000D01*
X10335300Y2893000D02*
X10310300Y2868000D01*
X10437300Y2746000D02*
X10462300Y2721000D01*
X10462300Y2746000D02*
X10437300Y2721000D01*
X10564300Y2893000D02*
X10589300Y2868000D01*
X10589300Y2893000D02*
X10564300Y2868000D01*
X10704300Y154750D02*
X10729300Y129750D01*
X10729300Y154750D02*
X10704300Y129750D01*
X11133300Y2893000D02*
X11158300Y2868000D01*
X11158300Y2893000D02*
X11133300Y2868000D01*
X11133300Y154750D02*
X11158300Y129750D01*
X11158300Y154750D02*
X11133300Y129750D01*
X11164700Y932800D02*
X11189700Y907800D01*
X11189700Y932800D02*
X11164700Y907800D01*
X11260730Y1246000D02*
X11285730Y1221000D01*
X11285730Y1246000D02*
X11260730Y1221000D01*
X11320890Y1246000D02*
X11345890Y1221000D01*
X11345890Y1246000D02*
X11320890Y1221000D01*
X11381380Y1246000D02*
X11406380Y1221000D01*
X11406380Y1246000D02*
X11381380Y1221000D01*
X11441540Y1246000D02*
X11466540Y1221000D01*
X11466540Y1246000D02*
X11441540Y1221000D01*
X11505300Y1863250D02*
X11530300Y1838250D01*
X11530300Y1863250D02*
X11505300Y1838250D01*
X11510730Y1246000D02*
X11535730Y1221000D01*
X11535730Y1246000D02*
X11510730Y1221000D01*
X11570890Y1246000D02*
X11595890Y1221000D01*
X11595890Y1246000D02*
X11570890Y1221000D01*
X11587300Y943500D02*
X11612300Y918500D01*
X11612300Y943500D02*
X11587300Y918500D01*
X11631380Y1246000D02*
X11656380Y1221000D01*
X11656380Y1246000D02*
X11631380Y1221000D01*
X11641300Y2893000D02*
X11666300Y2868000D01*
X11666300Y2893000D02*
X11641300Y2868000D01*
X11641300Y154750D02*
X11666300Y129750D01*
X11666300Y154750D02*
X11641300Y129750D01*
X11661060Y1146000D02*
X11686060Y1121000D01*
X11686060Y1146000D02*
X11661060Y1121000D01*
X11677050Y1046000D02*
X11702050Y1021000D01*
X11702050Y1046000D02*
X11677050Y1021000D01*
X11690600Y565200D02*
X11715600Y540200D01*
X11715600Y565200D02*
X11690600Y540200D01*
X11691540Y1246000D02*
X11716540Y1221000D01*
X11716540Y1246000D02*
X11691540Y1221000D01*
X11721220Y1146000D02*
X11746220Y1121000D01*
X11746220Y1146000D02*
X11721220Y1121000D01*
X11745300Y1863250D02*
X11770300Y1838250D01*
X11770300Y1863250D02*
X11745300Y1838250D01*
X11781380Y1146000D02*
X11806380Y1121000D01*
X11806380Y1146000D02*
X11781380Y1121000D01*
X11811060Y1246000D02*
X11836060Y1221000D01*
X11836060Y1246000D02*
X11811060Y1221000D01*
X11826550Y1046000D02*
X11851550Y1021000D01*
X11851550Y1046000D02*
X11826550Y1021000D01*
X11826550Y946000D02*
X11851550Y921000D01*
X11851550Y946000D02*
X11826550Y921000D01*
X11841540Y1146000D02*
X11866540Y1121000D01*
X11866540Y1146000D02*
X11841540Y1121000D01*
X11871220Y1246000D02*
X11896220Y1221000D01*
X11896220Y1246000D02*
X11871220Y1221000D01*
X11879100Y719600D02*
X11904100Y694600D01*
X11904100Y719600D02*
X11879100Y694600D01*
X11931380Y1246000D02*
X11956380Y1221000D01*
X11956380Y1246000D02*
X11931380Y1221000D01*
X11961060Y1146000D02*
X11986060Y1121000D01*
X11986060Y1146000D02*
X11961060Y1121000D01*
X11977050Y1046000D02*
X12002050Y1021000D01*
X12002050Y1046000D02*
X11977050Y1021000D01*
X11977050Y946000D02*
X12002050Y921000D01*
X12002050Y946000D02*
X11977050Y921000D01*
X11977050Y846000D02*
X12002050Y821000D01*
X12002050Y846000D02*
X11977050Y821000D01*
X11991540Y1246000D02*
X12016540Y1221000D01*
X12016540Y1246000D02*
X11991540Y1221000D01*
X12021220Y1146000D02*
X12046220Y1121000D01*
X12046220Y1146000D02*
X12021220Y1121000D01*
X12075500Y154750D02*
X12100500Y129750D01*
X12100500Y154750D02*
X12075500Y129750D01*
X12081380Y1146000D02*
X12106380Y1121000D01*
X12106380Y1146000D02*
X12081380Y1121000D01*
X12141540Y1146000D02*
X12166540Y1121000D01*
X12166540Y1146000D02*
X12141540Y1121000D01*
X12149300Y2893000D02*
X12174300Y2868000D01*
X12174300Y2893000D02*
X12149300Y2868000D01*
X12375500Y154750D02*
X12400500Y129750D01*
X12400500Y154750D02*
X12375500Y129750D01*
X12657300Y2893000D02*
X12682300Y2868000D01*
X12682300Y2893000D02*
X12657300Y2868000D01*
X12675500Y154750D02*
X12700500Y129750D01*
X12700500Y154750D02*
X12675500Y129750D01*
X13165300Y2893000D02*
X13190300Y2868000D01*
X13190300Y2893000D02*
X13165300Y2868000D01*
X13165300Y1810000D02*
X13190300Y1785000D01*
X13190300Y1810000D02*
X13165300Y1785000D01*
X13165300Y154750D02*
X13190300Y129750D01*
X13190300Y154750D02*
X13165300Y129750D01*
X13673300Y2893000D02*
X13698300Y2868000D01*
X13698300Y2893000D02*
X13673300Y2868000D01*
X13673300Y2318000D02*
X13698300Y2293000D01*
X13698300Y2318000D02*
X13673300Y2293000D01*
X13673300Y1810000D02*
X13698300Y1785000D01*
X13698300Y1810000D02*
X13673300Y1785000D01*
X13673300Y154750D02*
X13698300Y129750D01*
X13698300Y154750D02*
X13673300Y129750D01*
X13895300Y1863250D02*
X13920300Y1838250D01*
X13920300Y1863250D02*
X13895300Y1838250D01*
X14015300Y1963250D02*
X14040300Y1938250D01*
X14040300Y1963250D02*
X14015300Y1938250D01*
X14064800Y1246000D02*
X14089800Y1221000D01*
X14089800Y1246000D02*
X14064800Y1221000D01*
X14064800Y1146000D02*
X14089800Y1121000D01*
X14089800Y1146000D02*
X14064800Y1121000D01*
X14135300Y1863250D02*
X14160300Y1838250D01*
X14160300Y1863250D02*
X14135300Y1838250D01*
X14181300Y2893000D02*
X14206300Y2868000D01*
X14206300Y2893000D02*
X14181300Y2868000D01*
X14181300Y2318000D02*
X14206300Y2293000D01*
X14206300Y2318000D02*
X14181300Y2293000D01*
X14181300Y154750D02*
X14206300Y129750D01*
X14206300Y154750D02*
X14181300Y129750D01*
X14214300Y1246000D02*
X14239300Y1221000D01*
X14239300Y1246000D02*
X14214300Y1221000D01*
X14214300Y1146000D02*
X14239300Y1121000D01*
X14239300Y1146000D02*
X14214300Y1121000D01*
X14214300Y1046000D02*
X14239300Y1021000D01*
X14239300Y1046000D02*
X14214300Y1021000D01*
X14365550Y1248500D02*
X14390550Y1223500D01*
X14390550Y1248500D02*
X14365550Y1223500D01*
X14365550Y1146000D02*
X14390550Y1121000D01*
X14390550Y1146000D02*
X14365550Y1121000D01*
X14365550Y1046000D02*
X14390550Y1021000D01*
X14390550Y1046000D02*
X14365550Y1021000D01*
X14365550Y946000D02*
X14390550Y921000D01*
X14390550Y946000D02*
X14365550Y921000D01*
X14465300Y154750D02*
X14490300Y129750D01*
X14490300Y154750D02*
X14465300Y129750D01*
X14689300Y2893000D02*
X14714300Y2868000D01*
X14714300Y2893000D02*
X14689300Y2868000D01*
X14689300Y2318000D02*
X14714300Y2293000D01*
X14714300Y2318000D02*
X14689300Y2293000D01*
X14689300Y1810000D02*
X14714300Y1785000D01*
X14714300Y1810000D02*
X14689300Y1785000D01*
X14765300Y154750D02*
X14790300Y129750D01*
X14790300Y154750D02*
X14765300Y129750D01*
X15065300Y154750D02*
X15090300Y129750D01*
X15090300Y154750D02*
X15065300Y129750D01*
X15197300Y2893000D02*
X15222300Y2868000D01*
X15222300Y2893000D02*
X15197300Y2868000D01*
X15197300Y2318000D02*
X15222300Y2293000D01*
X15222300Y2318000D02*
X15197300Y2293000D01*
X15197300Y1810000D02*
X15222300Y1785000D01*
X15222300Y1810000D02*
X15197300Y1785000D01*
X15197300Y1302000D02*
X15222300Y1277000D01*
X15222300Y1302000D02*
X15197300Y1277000D01*
X15197300Y794000D02*
X15222300Y769000D01*
X15222300Y794000D02*
X15197300Y769000D01*
X15197300Y154750D02*
X15222300Y129750D01*
X15222300Y154750D02*
X15197300Y129750D01*
X15705300Y2318000D02*
X15730300Y2293000D01*
X15730300Y2318000D02*
X15705300Y2293000D01*
X15705300Y1810000D02*
X15730300Y1785000D01*
X15730300Y1810000D02*
X15705300Y1785000D01*
X15705300Y1302000D02*
X15730300Y1277000D01*
X15730300Y1302000D02*
X15705300Y1277000D01*
X15705300Y794000D02*
X15730300Y769000D01*
X15730300Y794000D02*
X15705300Y769000D01*
D13*
X1244850Y518500D02*
G75*
G03*
X1244850Y518500I-66050J0D01*
G01*
X2894850Y518500D02*
G75*
G03*
X2894850Y518500I-66050J0D01*
G01*
X3634450Y518600D02*
G75*
G03*
X3634450Y518600I-66050J0D01*
G01*
X5284450Y518600D02*
G75*
G03*
X5284450Y518600I-66050J0D01*
G01*
X6024450Y518500D02*
G75*
G03*
X6024450Y518500I-66050J0D01*
G01*
X7674450Y518500D02*
G75*
G03*
X7674450Y518500I-66050J0D01*
G01*
X8414250Y518500D02*
G75*
G03*
X8414250Y518500I-66050J0D01*
G01*
X10064250Y518500D02*
G75*
G03*
X10064250Y518500I-66050J0D01*
G01*
X10804050Y518500D02*
G75*
G03*
X10804050Y518500I-66050J0D01*
G01*
X12454050Y518500D02*
G75*
G03*
X12454050Y518500I-66050J0D01*
G01*
X13193850Y518500D02*
G75*
G03*
X13193850Y518500I-66050J0D01*
G01*
X14843850Y518500D02*
G75*
G03*
X14843850Y518500I-66050J0D01*
G01*
D14*
X1178800Y1285170D02*
X1178800Y1107830D01*
X1090130Y1196500D02*
X1267470Y1196500D01*
X2828800Y1285170D02*
X2828800Y1107830D01*
X2740130Y1196500D02*
X2917470Y1196500D01*
X3568400Y1285270D02*
X3568400Y1107930D01*
X3479730Y1196600D02*
X3657070Y1196600D01*
X5218400Y1285270D02*
X5218400Y1107930D01*
X5129730Y1196600D02*
X5307070Y1196600D01*
X5958400Y1285170D02*
X5958400Y1107830D01*
X5869730Y1196500D02*
X6047070Y1196500D01*
X7608400Y1285170D02*
X7608400Y1107830D01*
X7519730Y1196500D02*
X7697070Y1196500D01*
X8348200Y1285170D02*
X8348200Y1107830D01*
X8259530Y1196500D02*
X8436870Y1196500D01*
X9998200Y1285170D02*
X9998200Y1107830D01*
X9909530Y1196500D02*
X10086870Y1196500D01*
X10738000Y1285170D02*
X10738000Y1107830D01*
X10649330Y1196500D02*
X10826670Y1196500D01*
X12388000Y1285170D02*
X12388000Y1107830D01*
X12299330Y1196500D02*
X12476670Y1196500D01*
X13127800Y1285170D02*
X13127800Y1107830D01*
X13039130Y1196500D02*
X13216470Y1196500D01*
X14777800Y1285170D02*
X14777800Y1107830D01*
X14689130Y1196500D02*
X14866470Y1196500D01*
D11*
X246919Y-293476D02*
X246919Y-93476D01*
X246919Y-93476D02*
X294538Y-93476D01*
X294538Y-93476D02*
X323110Y-103000D01*
X323110Y-103000D02*
X342157Y-122048D01*
X342157Y-122048D02*
X351681Y-141095D01*
X351681Y-141095D02*
X361205Y-179190D01*
X361205Y-179190D02*
X361205Y-207762D01*
X361205Y-207762D02*
X351681Y-245857D01*
X351681Y-245857D02*
X342157Y-264905D01*
X342157Y-264905D02*
X323110Y-283952D01*
X323110Y-283952D02*
X294538Y-293476D01*
X294538Y-293476D02*
X246919Y-293476D01*
X446919Y-293476D02*
X446919Y-160143D01*
X446919Y-198238D02*
X456443Y-179190D01*
X456443Y-179190D02*
X465967Y-169667D01*
X465967Y-169667D02*
X485014Y-160143D01*
X485014Y-160143D02*
X504062Y-160143D01*
X570729Y-293476D02*
X570729Y-160143D01*
X570729Y-93476D02*
X561205Y-103000D01*
X561205Y-103000D02*
X570729Y-112524D01*
X570729Y-112524D02*
X580252Y-103000D01*
X580252Y-103000D02*
X570729Y-93476D01*
X570729Y-93476D02*
X570729Y-112524D01*
X694538Y-293476D02*
X675490Y-283952D01*
X675490Y-283952D02*
X665967Y-264905D01*
X665967Y-264905D02*
X665967Y-93476D01*
X799300Y-293476D02*
X780252Y-283952D01*
X780252Y-283952D02*
X770728Y-264905D01*
X770728Y-264905D02*
X770728Y-93476D01*
X995490Y-293476D02*
X995490Y-93476D01*
X995490Y-93476D02*
X1062157Y-236333D01*
X1062157Y-236333D02*
X1128824Y-93476D01*
X1128824Y-93476D02*
X1128824Y-293476D01*
X1309776Y-293476D02*
X1309776Y-188714D01*
X1309776Y-188714D02*
X1300252Y-169667D01*
X1300252Y-169667D02*
X1281205Y-160143D01*
X1281205Y-160143D02*
X1243109Y-160143D01*
X1243109Y-160143D02*
X1224062Y-169667D01*
X1309776Y-283952D02*
X1290729Y-293476D01*
X1290729Y-293476D02*
X1243109Y-293476D01*
X1243109Y-293476D02*
X1224062Y-283952D01*
X1224062Y-283952D02*
X1214538Y-264905D01*
X1214538Y-264905D02*
X1214538Y-245857D01*
X1214538Y-245857D02*
X1224062Y-226809D01*
X1224062Y-226809D02*
X1243109Y-217286D01*
X1243109Y-217286D02*
X1290729Y-217286D01*
X1290729Y-217286D02*
X1309776Y-207762D01*
X1405014Y-160143D02*
X1405014Y-360143D01*
X1405014Y-169667D02*
X1424062Y-160143D01*
X1424062Y-160143D02*
X1462157Y-160143D01*
X1462157Y-160143D02*
X1481205Y-169667D01*
X1481205Y-169667D02*
X1490728Y-179190D01*
X1490728Y-179190D02*
X1500252Y-198238D01*
X1500252Y-198238D02*
X1500252Y-255381D01*
X1500252Y-255381D02*
X1490728Y-274429D01*
X1490728Y-274429D02*
X1481205Y-283952D01*
X1481205Y-283952D02*
X1462157Y-293476D01*
X1462157Y-293476D02*
X1424062Y-293476D01*
X1424062Y-293476D02*
X1405014Y-283952D01*
X1585967Y-274429D02*
X1595490Y-283952D01*
X1595490Y-283952D02*
X1585967Y-293476D01*
X1585967Y-293476D02*
X1576443Y-283952D01*
X1576443Y-283952D02*
X1585967Y-274429D01*
X1585967Y-274429D02*
X1585967Y-293476D01*
X1585967Y-169667D02*
X1595490Y-179190D01*
X1595490Y-179190D02*
X1585967Y-188714D01*
X1585967Y-188714D02*
X1576443Y-179190D01*
X1576443Y-179190D02*
X1585967Y-169667D01*
X1585967Y-169667D02*
X1585967Y-188714D01*
D12*
X-25700Y-627500D02*
X-700Y-652500D01*
X-700Y-627500D02*
X-25700Y-652500D01*
D11*
X285014Y-513476D02*
X304062Y-513476D01*
X304062Y-513476D02*
X323110Y-523000D01*
X323110Y-523000D02*
X332633Y-532524D01*
X332633Y-532524D02*
X342157Y-551571D01*
X342157Y-551571D02*
X351681Y-589667D01*
X351681Y-589667D02*
X351681Y-637286D01*
X351681Y-637286D02*
X342157Y-675381D01*
X342157Y-675381D02*
X332633Y-694429D01*
X332633Y-694429D02*
X323110Y-703952D01*
X323110Y-703952D02*
X304062Y-713476D01*
X304062Y-713476D02*
X285014Y-713476D01*
X285014Y-713476D02*
X265967Y-703952D01*
X265967Y-703952D02*
X256443Y-694429D01*
X256443Y-694429D02*
X246919Y-675381D01*
X246919Y-675381D02*
X237395Y-637286D01*
X237395Y-637286D02*
X237395Y-589667D01*
X237395Y-589667D02*
X246919Y-551571D01*
X246919Y-551571D02*
X256443Y-532524D01*
X256443Y-532524D02*
X265967Y-523000D01*
X265967Y-523000D02*
X285014Y-513476D01*
X437395Y-694429D02*
X446919Y-703952D01*
X446919Y-703952D02*
X437395Y-713476D01*
X437395Y-713476D02*
X427871Y-703952D01*
X427871Y-703952D02*
X437395Y-694429D01*
X437395Y-694429D02*
X437395Y-713476D01*
X523109Y-532524D02*
X532633Y-523000D01*
X532633Y-523000D02*
X551681Y-513476D01*
X551681Y-513476D02*
X599300Y-513476D01*
X599300Y-513476D02*
X618348Y-523000D01*
X618348Y-523000D02*
X627871Y-532524D01*
X627871Y-532524D02*
X637395Y-551571D01*
X637395Y-551571D02*
X637395Y-570619D01*
X637395Y-570619D02*
X627871Y-599190D01*
X627871Y-599190D02*
X513586Y-713476D01*
X513586Y-713476D02*
X637395Y-713476D01*
X818348Y-513476D02*
X723109Y-513476D01*
X723109Y-513476D02*
X713586Y-608714D01*
X713586Y-608714D02*
X723109Y-599190D01*
X723109Y-599190D02*
X742157Y-589667D01*
X742157Y-589667D02*
X789776Y-589667D01*
X789776Y-589667D02*
X808824Y-599190D01*
X808824Y-599190D02*
X818348Y-608714D01*
X818348Y-608714D02*
X827871Y-627762D01*
X827871Y-627762D02*
X827871Y-675381D01*
X827871Y-675381D02*
X818348Y-694429D01*
X818348Y-694429D02*
X808824Y-703952D01*
X808824Y-703952D02*
X789776Y-713476D01*
X789776Y-713476D02*
X742157Y-713476D01*
X742157Y-713476D02*
X723109Y-703952D01*
X723109Y-703952D02*
X713586Y-694429D01*
X951681Y-513476D02*
X970729Y-513476D01*
X970729Y-513476D02*
X989776Y-523000D01*
X989776Y-523000D02*
X999300Y-532524D01*
X999300Y-532524D02*
X1008824Y-551571D01*
X1008824Y-551571D02*
X1018348Y-589667D01*
X1018348Y-589667D02*
X1018348Y-637286D01*
X1018348Y-637286D02*
X1008824Y-675381D01*
X1008824Y-675381D02*
X999300Y-694429D01*
X999300Y-694429D02*
X989776Y-703952D01*
X989776Y-703952D02*
X970729Y-713476D01*
X970729Y-713476D02*
X951681Y-713476D01*
X951681Y-713476D02*
X932633Y-703952D01*
X932633Y-703952D02*
X923109Y-694429D01*
X923109Y-694429D02*
X913586Y-675381D01*
X913586Y-675381D02*
X904062Y-637286D01*
X904062Y-637286D02*
X904062Y-589667D01*
X904062Y-589667D02*
X913586Y-551571D01*
X913586Y-551571D02*
X923109Y-532524D01*
X923109Y-532524D02*
X932633Y-523000D01*
X932633Y-523000D02*
X951681Y-513476D01*
X1104062Y-713476D02*
X1104062Y-580143D01*
X1104062Y-599190D02*
X1113586Y-589667D01*
X1113586Y-589667D02*
X1132633Y-580143D01*
X1132633Y-580143D02*
X1161205Y-580143D01*
X1161205Y-580143D02*
X1180252Y-589667D01*
X1180252Y-589667D02*
X1189776Y-608714D01*
X1189776Y-608714D02*
X1189776Y-713476D01*
X1189776Y-608714D02*
X1199300Y-589667D01*
X1199300Y-589667D02*
X1218348Y-580143D01*
X1218348Y-580143D02*
X1246919Y-580143D01*
X1246919Y-580143D02*
X1265967Y-589667D01*
X1265967Y-589667D02*
X1275491Y-608714D01*
X1275491Y-608714D02*
X1275491Y-713476D01*
X1370729Y-713476D02*
X1370729Y-580143D01*
X1370729Y-599190D02*
X1380252Y-589667D01*
X1380252Y-589667D02*
X1399300Y-580143D01*
X1399300Y-580143D02*
X1427871Y-580143D01*
X1427871Y-580143D02*
X1446919Y-589667D01*
X1446919Y-589667D02*
X1456443Y-608714D01*
X1456443Y-608714D02*
X1456443Y-713476D01*
X1456443Y-608714D02*
X1465967Y-589667D01*
X1465967Y-589667D02*
X1485014Y-580143D01*
X1485014Y-580143D02*
X1513586Y-580143D01*
X1513586Y-580143D02*
X1532633Y-589667D01*
X1532633Y-589667D02*
X1542157Y-608714D01*
X1542157Y-608714D02*
X1542157Y-713476D01*
X1900252Y-503952D02*
X1728824Y-761095D01*
X2125014Y-513476D02*
X2144062Y-513476D01*
X2144062Y-513476D02*
X2163110Y-523000D01*
X2163110Y-523000D02*
X2172633Y-532524D01*
X2172633Y-532524D02*
X2182157Y-551571D01*
X2182157Y-551571D02*
X2191681Y-589667D01*
X2191681Y-589667D02*
X2191681Y-637286D01*
X2191681Y-637286D02*
X2182157Y-675381D01*
X2182157Y-675381D02*
X2172633Y-694429D01*
X2172633Y-694429D02*
X2163110Y-703952D01*
X2163110Y-703952D02*
X2144062Y-713476D01*
X2144062Y-713476D02*
X2125014Y-713476D01*
X2125014Y-713476D02*
X2105967Y-703952D01*
X2105967Y-703952D02*
X2096443Y-694429D01*
X2096443Y-694429D02*
X2086919Y-675381D01*
X2086919Y-675381D02*
X2077395Y-637286D01*
X2077395Y-637286D02*
X2077395Y-589667D01*
X2077395Y-589667D02*
X2086919Y-551571D01*
X2086919Y-551571D02*
X2096443Y-532524D01*
X2096443Y-532524D02*
X2105967Y-523000D01*
X2105967Y-523000D02*
X2125014Y-513476D01*
X2277395Y-694429D02*
X2286919Y-703952D01*
X2286919Y-703952D02*
X2277395Y-713476D01*
X2277395Y-713476D02*
X2267872Y-703952D01*
X2267872Y-703952D02*
X2277395Y-694429D01*
X2277395Y-694429D02*
X2277395Y-713476D01*
X2410729Y-513476D02*
X2429776Y-513476D01*
X2429776Y-513476D02*
X2448824Y-523000D01*
X2448824Y-523000D02*
X2458348Y-532524D01*
X2458348Y-532524D02*
X2467872Y-551571D01*
X2467872Y-551571D02*
X2477395Y-589667D01*
X2477395Y-589667D02*
X2477395Y-637286D01*
X2477395Y-637286D02*
X2467872Y-675381D01*
X2467872Y-675381D02*
X2458348Y-694429D01*
X2458348Y-694429D02*
X2448824Y-703952D01*
X2448824Y-703952D02*
X2429776Y-713476D01*
X2429776Y-713476D02*
X2410729Y-713476D01*
X2410729Y-713476D02*
X2391681Y-703952D01*
X2391681Y-703952D02*
X2382157Y-694429D01*
X2382157Y-694429D02*
X2372633Y-675381D01*
X2372633Y-675381D02*
X2363110Y-637286D01*
X2363110Y-637286D02*
X2363110Y-589667D01*
X2363110Y-589667D02*
X2372633Y-551571D01*
X2372633Y-551571D02*
X2382157Y-532524D01*
X2382157Y-532524D02*
X2391681Y-523000D01*
X2391681Y-523000D02*
X2410729Y-513476D01*
X2601205Y-513476D02*
X2620253Y-513476D01*
X2620253Y-513476D02*
X2639300Y-523000D01*
X2639300Y-523000D02*
X2648824Y-532524D01*
X2648824Y-532524D02*
X2658348Y-551571D01*
X2658348Y-551571D02*
X2667872Y-589667D01*
X2667872Y-589667D02*
X2667872Y-637286D01*
X2667872Y-637286D02*
X2658348Y-675381D01*
X2658348Y-675381D02*
X2648824Y-694429D01*
X2648824Y-694429D02*
X2639300Y-703952D01*
X2639300Y-703952D02*
X2620253Y-713476D01*
X2620253Y-713476D02*
X2601205Y-713476D01*
X2601205Y-713476D02*
X2582157Y-703952D01*
X2582157Y-703952D02*
X2572633Y-694429D01*
X2572633Y-694429D02*
X2563110Y-675381D01*
X2563110Y-675381D02*
X2553586Y-637286D01*
X2553586Y-637286D02*
X2553586Y-589667D01*
X2553586Y-589667D02*
X2563110Y-551571D01*
X2563110Y-551571D02*
X2572633Y-532524D01*
X2572633Y-532524D02*
X2582157Y-523000D01*
X2582157Y-523000D02*
X2601205Y-513476D01*
X2763110Y-713476D02*
X2801205Y-713476D01*
X2801205Y-713476D02*
X2820252Y-703952D01*
X2820252Y-703952D02*
X2829776Y-694429D01*
X2829776Y-694429D02*
X2848824Y-665857D01*
X2848824Y-665857D02*
X2858348Y-627762D01*
X2858348Y-627762D02*
X2858348Y-551571D01*
X2858348Y-551571D02*
X2848824Y-532524D01*
X2848824Y-532524D02*
X2839300Y-523000D01*
X2839300Y-523000D02*
X2820252Y-513476D01*
X2820252Y-513476D02*
X2782157Y-513476D01*
X2782157Y-513476D02*
X2763110Y-523000D01*
X2763110Y-523000D02*
X2753586Y-532524D01*
X2753586Y-532524D02*
X2744062Y-551571D01*
X2744062Y-551571D02*
X2744062Y-599190D01*
X2744062Y-599190D02*
X2753586Y-618238D01*
X2753586Y-618238D02*
X2763110Y-627762D01*
X2763110Y-627762D02*
X2782157Y-637286D01*
X2782157Y-637286D02*
X2820252Y-637286D01*
X2820252Y-637286D02*
X2839300Y-627762D01*
X2839300Y-627762D02*
X2848824Y-618238D01*
X2848824Y-618238D02*
X2858348Y-599190D01*
X2972633Y-599190D02*
X2953586Y-589667D01*
X2953586Y-589667D02*
X2944062Y-580143D01*
X2944062Y-580143D02*
X2934538Y-561095D01*
X2934538Y-561095D02*
X2934538Y-551571D01*
X2934538Y-551571D02*
X2944062Y-532524D01*
X2944062Y-532524D02*
X2953586Y-523000D01*
X2953586Y-523000D02*
X2972633Y-513476D01*
X2972633Y-513476D02*
X3010729Y-513476D01*
X3010729Y-513476D02*
X3029776Y-523000D01*
X3029776Y-523000D02*
X3039300Y-532524D01*
X3039300Y-532524D02*
X3048824Y-551571D01*
X3048824Y-551571D02*
X3048824Y-561095D01*
X3048824Y-561095D02*
X3039300Y-580143D01*
X3039300Y-580143D02*
X3029776Y-589667D01*
X3029776Y-589667D02*
X3010729Y-599190D01*
X3010729Y-599190D02*
X2972633Y-599190D01*
X2972633Y-599190D02*
X2953586Y-608714D01*
X2953586Y-608714D02*
X2944062Y-618238D01*
X2944062Y-618238D02*
X2934538Y-637286D01*
X2934538Y-637286D02*
X2934538Y-675381D01*
X2934538Y-675381D02*
X2944062Y-694429D01*
X2944062Y-694429D02*
X2953586Y-703952D01*
X2953586Y-703952D02*
X2972633Y-713476D01*
X2972633Y-713476D02*
X3010729Y-713476D01*
X3010729Y-713476D02*
X3029776Y-703952D01*
X3029776Y-703952D02*
X3039300Y-694429D01*
X3039300Y-694429D02*
X3048824Y-675381D01*
X3048824Y-675381D02*
X3048824Y-637286D01*
X3048824Y-637286D02*
X3039300Y-618238D01*
X3039300Y-618238D02*
X3029776Y-608714D01*
X3029776Y-608714D02*
X3010729Y-599190D01*
X3125014Y-513476D02*
X3125014Y-551571D01*
X3201205Y-513476D02*
X3201205Y-551571D01*
X3464062Y-789667D02*
X3454538Y-780143D01*
X3454538Y-780143D02*
X3435491Y-751571D01*
X3435491Y-751571D02*
X3425967Y-732524D01*
X3425967Y-732524D02*
X3416443Y-703952D01*
X3416443Y-703952D02*
X3406919Y-656333D01*
X3406919Y-656333D02*
X3406919Y-618238D01*
X3406919Y-618238D02*
X3416443Y-570619D01*
X3416443Y-570619D02*
X3425967Y-542048D01*
X3425967Y-542048D02*
X3435491Y-523000D01*
X3435491Y-523000D02*
X3454538Y-494428D01*
X3454538Y-494428D02*
X3464062Y-484905D01*
X3530729Y-532524D02*
X3540252Y-523000D01*
X3540252Y-523000D02*
X3559300Y-513476D01*
X3559300Y-513476D02*
X3606919Y-513476D01*
X3606919Y-513476D02*
X3625967Y-523000D01*
X3625967Y-523000D02*
X3635491Y-532524D01*
X3635491Y-532524D02*
X3645014Y-551571D01*
X3645014Y-551571D02*
X3645014Y-570619D01*
X3645014Y-570619D02*
X3635491Y-599190D01*
X3635491Y-599190D02*
X3521205Y-713476D01*
X3521205Y-713476D02*
X3645014Y-713476D01*
X3816443Y-580143D02*
X3816443Y-713476D01*
X3768824Y-503952D02*
X3721205Y-646810D01*
X3721205Y-646810D02*
X3845014Y-646810D01*
X4016443Y-513476D02*
X3921205Y-513476D01*
X3921205Y-513476D02*
X3911681Y-608714D01*
X3911681Y-608714D02*
X3921205Y-599190D01*
X3921205Y-599190D02*
X3940252Y-589667D01*
X3940252Y-589667D02*
X3987872Y-589667D01*
X3987872Y-589667D02*
X4006919Y-599190D01*
X4006919Y-599190D02*
X4016443Y-608714D01*
X4016443Y-608714D02*
X4025967Y-627762D01*
X4025967Y-627762D02*
X4025967Y-675381D01*
X4025967Y-675381D02*
X4016443Y-694429D01*
X4016443Y-694429D02*
X4006919Y-703952D01*
X4006919Y-703952D02*
X3987872Y-713476D01*
X3987872Y-713476D02*
X3940252Y-713476D01*
X3940252Y-713476D02*
X3921205Y-703952D01*
X3921205Y-703952D02*
X3911681Y-694429D01*
X4231681Y-713476D02*
X4231681Y-513476D01*
X4317395Y-713476D02*
X4317395Y-608714D01*
X4317395Y-608714D02*
X4307872Y-589667D01*
X4307872Y-589667D02*
X4288824Y-580143D01*
X4288824Y-580143D02*
X4260253Y-580143D01*
X4260253Y-580143D02*
X4241205Y-589667D01*
X4241205Y-589667D02*
X4231681Y-599190D01*
X4441205Y-713476D02*
X4422157Y-703952D01*
X4422157Y-703952D02*
X4412634Y-694429D01*
X4412634Y-694429D02*
X4403110Y-675381D01*
X4403110Y-675381D02*
X4403110Y-618238D01*
X4403110Y-618238D02*
X4412634Y-599190D01*
X4412634Y-599190D02*
X4422157Y-589667D01*
X4422157Y-589667D02*
X4441205Y-580143D01*
X4441205Y-580143D02*
X4469776Y-580143D01*
X4469776Y-580143D02*
X4488824Y-589667D01*
X4488824Y-589667D02*
X4498348Y-599190D01*
X4498348Y-599190D02*
X4507872Y-618238D01*
X4507872Y-618238D02*
X4507872Y-675381D01*
X4507872Y-675381D02*
X4498348Y-694429D01*
X4498348Y-694429D02*
X4488824Y-703952D01*
X4488824Y-703952D02*
X4469776Y-713476D01*
X4469776Y-713476D02*
X4441205Y-713476D01*
X4622157Y-713476D02*
X4603110Y-703952D01*
X4603110Y-703952D02*
X4593586Y-684905D01*
X4593586Y-684905D02*
X4593586Y-513476D01*
X4774538Y-703952D02*
X4755491Y-713476D01*
X4755491Y-713476D02*
X4717395Y-713476D01*
X4717395Y-713476D02*
X4698348Y-703952D01*
X4698348Y-703952D02*
X4688824Y-684905D01*
X4688824Y-684905D02*
X4688824Y-608714D01*
X4688824Y-608714D02*
X4698348Y-589667D01*
X4698348Y-589667D02*
X4717395Y-580143D01*
X4717395Y-580143D02*
X4755491Y-580143D01*
X4755491Y-580143D02*
X4774538Y-589667D01*
X4774538Y-589667D02*
X4784062Y-608714D01*
X4784062Y-608714D02*
X4784062Y-627762D01*
X4784062Y-627762D02*
X4688824Y-646810D01*
X4860253Y-703952D02*
X4879300Y-713476D01*
X4879300Y-713476D02*
X4917395Y-713476D01*
X4917395Y-713476D02*
X4936443Y-703952D01*
X4936443Y-703952D02*
X4945967Y-684905D01*
X4945967Y-684905D02*
X4945967Y-675381D01*
X4945967Y-675381D02*
X4936443Y-656333D01*
X4936443Y-656333D02*
X4917395Y-646810D01*
X4917395Y-646810D02*
X4888824Y-646810D01*
X4888824Y-646810D02*
X4869776Y-637286D01*
X4869776Y-637286D02*
X4860253Y-618238D01*
X4860253Y-618238D02*
X4860253Y-608714D01*
X4860253Y-608714D02*
X4869776Y-589667D01*
X4869776Y-589667D02*
X4888824Y-580143D01*
X4888824Y-580143D02*
X4917395Y-580143D01*
X4917395Y-580143D02*
X4936443Y-589667D01*
X5012634Y-789667D02*
X5022157Y-780143D01*
X5022157Y-780143D02*
X5041205Y-751571D01*
X5041205Y-751571D02*
X5050729Y-732524D01*
X5050729Y-732524D02*
X5060253Y-703952D01*
X5060253Y-703952D02*
X5069776Y-656333D01*
X5069776Y-656333D02*
X5069776Y-618238D01*
X5069776Y-618238D02*
X5060253Y-570619D01*
X5060253Y-570619D02*
X5050729Y-542048D01*
X5050729Y-542048D02*
X5041205Y-523000D01*
X5041205Y-523000D02*
X5022157Y-494428D01*
X5022157Y-494428D02*
X5012634Y-484905D01*
D13*
X-700Y-904000D02*
G75*
G03*
X-700Y-904000I-66050J0D01*
G01*
D11*
X351681Y-977476D02*
X237395Y-977476D01*
X294538Y-977476D02*
X294538Y-777476D01*
X294538Y-777476D02*
X275490Y-806048D01*
X275490Y-806048D02*
X256443Y-825095D01*
X256443Y-825095D02*
X237395Y-834619D01*
X437395Y-958428D02*
X446919Y-967952D01*
X446919Y-967952D02*
X437395Y-977476D01*
X437395Y-977476D02*
X427871Y-967952D01*
X427871Y-967952D02*
X437395Y-958428D01*
X437395Y-958428D02*
X437395Y-977476D01*
X513586Y-777476D02*
X637395Y-777476D01*
X637395Y-777476D02*
X570729Y-853667D01*
X570729Y-853667D02*
X599300Y-853667D01*
X599300Y-853667D02*
X618348Y-863190D01*
X618348Y-863190D02*
X627871Y-872714D01*
X627871Y-872714D02*
X637395Y-891762D01*
X637395Y-891762D02*
X637395Y-939381D01*
X637395Y-939381D02*
X627871Y-958428D01*
X627871Y-958428D02*
X618348Y-967952D01*
X618348Y-967952D02*
X599300Y-977476D01*
X599300Y-977476D02*
X542157Y-977476D01*
X542157Y-977476D02*
X523109Y-967952D01*
X523109Y-967952D02*
X513586Y-958428D01*
X713586Y-796524D02*
X723109Y-787000D01*
X723109Y-787000D02*
X742157Y-777476D01*
X742157Y-777476D02*
X789776Y-777476D01*
X789776Y-777476D02*
X808824Y-787000D01*
X808824Y-787000D02*
X818348Y-796524D01*
X818348Y-796524D02*
X827871Y-815571D01*
X827871Y-815571D02*
X827871Y-834619D01*
X827871Y-834619D02*
X818348Y-863190D01*
X818348Y-863190D02*
X704062Y-977476D01*
X704062Y-977476D02*
X827871Y-977476D01*
X1018348Y-977476D02*
X904062Y-977476D01*
X961205Y-977476D02*
X961205Y-777476D01*
X961205Y-777476D02*
X942157Y-806048D01*
X942157Y-806048D02*
X923109Y-825095D01*
X923109Y-825095D02*
X904062Y-834619D01*
X1104062Y-977476D02*
X1104062Y-844143D01*
X1104062Y-863190D02*
X1113586Y-853667D01*
X1113586Y-853667D02*
X1132633Y-844143D01*
X1132633Y-844143D02*
X1161205Y-844143D01*
X1161205Y-844143D02*
X1180252Y-853667D01*
X1180252Y-853667D02*
X1189776Y-872714D01*
X1189776Y-872714D02*
X1189776Y-977476D01*
X1189776Y-872714D02*
X1199300Y-853667D01*
X1199300Y-853667D02*
X1218348Y-844143D01*
X1218348Y-844143D02*
X1246919Y-844143D01*
X1246919Y-844143D02*
X1265967Y-853667D01*
X1265967Y-853667D02*
X1275491Y-872714D01*
X1275491Y-872714D02*
X1275491Y-977476D01*
X1370729Y-977476D02*
X1370729Y-844143D01*
X1370729Y-863190D02*
X1380252Y-853667D01*
X1380252Y-853667D02*
X1399300Y-844143D01*
X1399300Y-844143D02*
X1427871Y-844143D01*
X1427871Y-844143D02*
X1446919Y-853667D01*
X1446919Y-853667D02*
X1456443Y-872714D01*
X1456443Y-872714D02*
X1456443Y-977476D01*
X1456443Y-872714D02*
X1465967Y-853667D01*
X1465967Y-853667D02*
X1485014Y-844143D01*
X1485014Y-844143D02*
X1513586Y-844143D01*
X1513586Y-844143D02*
X1532633Y-853667D01*
X1532633Y-853667D02*
X1542157Y-872714D01*
X1542157Y-872714D02*
X1542157Y-977476D01*
X1900252Y-767952D02*
X1728824Y-1025095D01*
X2125014Y-777476D02*
X2144062Y-777476D01*
X2144062Y-777476D02*
X2163110Y-787000D01*
X2163110Y-787000D02*
X2172633Y-796524D01*
X2172633Y-796524D02*
X2182157Y-815571D01*
X2182157Y-815571D02*
X2191681Y-853667D01*
X2191681Y-853667D02*
X2191681Y-901286D01*
X2191681Y-901286D02*
X2182157Y-939381D01*
X2182157Y-939381D02*
X2172633Y-958428D01*
X2172633Y-958428D02*
X2163110Y-967952D01*
X2163110Y-967952D02*
X2144062Y-977476D01*
X2144062Y-977476D02*
X2125014Y-977476D01*
X2125014Y-977476D02*
X2105967Y-967952D01*
X2105967Y-967952D02*
X2096443Y-958428D01*
X2096443Y-958428D02*
X2086919Y-939381D01*
X2086919Y-939381D02*
X2077395Y-901286D01*
X2077395Y-901286D02*
X2077395Y-853667D01*
X2077395Y-853667D02*
X2086919Y-815571D01*
X2086919Y-815571D02*
X2096443Y-796524D01*
X2096443Y-796524D02*
X2105967Y-787000D01*
X2105967Y-787000D02*
X2125014Y-777476D01*
X2277395Y-958428D02*
X2286919Y-967952D01*
X2286919Y-967952D02*
X2277395Y-977476D01*
X2277395Y-977476D02*
X2267872Y-967952D01*
X2267872Y-967952D02*
X2277395Y-958428D01*
X2277395Y-958428D02*
X2277395Y-977476D01*
X2410729Y-777476D02*
X2429776Y-777476D01*
X2429776Y-777476D02*
X2448824Y-787000D01*
X2448824Y-787000D02*
X2458348Y-796524D01*
X2458348Y-796524D02*
X2467872Y-815571D01*
X2467872Y-815571D02*
X2477395Y-853667D01*
X2477395Y-853667D02*
X2477395Y-901286D01*
X2477395Y-901286D02*
X2467872Y-939381D01*
X2467872Y-939381D02*
X2458348Y-958428D01*
X2458348Y-958428D02*
X2448824Y-967952D01*
X2448824Y-967952D02*
X2429776Y-977476D01*
X2429776Y-977476D02*
X2410729Y-977476D01*
X2410729Y-977476D02*
X2391681Y-967952D01*
X2391681Y-967952D02*
X2382157Y-958428D01*
X2382157Y-958428D02*
X2372633Y-939381D01*
X2372633Y-939381D02*
X2363110Y-901286D01*
X2363110Y-901286D02*
X2363110Y-853667D01*
X2363110Y-853667D02*
X2372633Y-815571D01*
X2372633Y-815571D02*
X2382157Y-796524D01*
X2382157Y-796524D02*
X2391681Y-787000D01*
X2391681Y-787000D02*
X2410729Y-777476D01*
X2658348Y-777476D02*
X2563110Y-777476D01*
X2563110Y-777476D02*
X2553586Y-872714D01*
X2553586Y-872714D02*
X2563110Y-863190D01*
X2563110Y-863190D02*
X2582157Y-853667D01*
X2582157Y-853667D02*
X2629776Y-853667D01*
X2629776Y-853667D02*
X2648824Y-863190D01*
X2648824Y-863190D02*
X2658348Y-872714D01*
X2658348Y-872714D02*
X2667872Y-891762D01*
X2667872Y-891762D02*
X2667872Y-939381D01*
X2667872Y-939381D02*
X2658348Y-958428D01*
X2658348Y-958428D02*
X2648824Y-967952D01*
X2648824Y-967952D02*
X2629776Y-977476D01*
X2629776Y-977476D02*
X2582157Y-977476D01*
X2582157Y-977476D02*
X2563110Y-967952D01*
X2563110Y-967952D02*
X2553586Y-958428D01*
X2744062Y-796524D02*
X2753586Y-787000D01*
X2753586Y-787000D02*
X2772633Y-777476D01*
X2772633Y-777476D02*
X2820252Y-777476D01*
X2820252Y-777476D02*
X2839300Y-787000D01*
X2839300Y-787000D02*
X2848824Y-796524D01*
X2848824Y-796524D02*
X2858348Y-815571D01*
X2858348Y-815571D02*
X2858348Y-834619D01*
X2858348Y-834619D02*
X2848824Y-863190D01*
X2848824Y-863190D02*
X2734538Y-977476D01*
X2734538Y-977476D02*
X2858348Y-977476D01*
X2982157Y-777476D02*
X3001205Y-777476D01*
X3001205Y-777476D02*
X3020252Y-787000D01*
X3020252Y-787000D02*
X3029776Y-796524D01*
X3029776Y-796524D02*
X3039300Y-815571D01*
X3039300Y-815571D02*
X3048824Y-853667D01*
X3048824Y-853667D02*
X3048824Y-901286D01*
X3048824Y-901286D02*
X3039300Y-939381D01*
X3039300Y-939381D02*
X3029776Y-958428D01*
X3029776Y-958428D02*
X3020252Y-967952D01*
X3020252Y-967952D02*
X3001205Y-977476D01*
X3001205Y-977476D02*
X2982157Y-977476D01*
X2982157Y-977476D02*
X2963110Y-967952D01*
X2963110Y-967952D02*
X2953586Y-958428D01*
X2953586Y-958428D02*
X2944062Y-939381D01*
X2944062Y-939381D02*
X2934538Y-901286D01*
X2934538Y-901286D02*
X2934538Y-853667D01*
X2934538Y-853667D02*
X2944062Y-815571D01*
X2944062Y-815571D02*
X2953586Y-796524D01*
X2953586Y-796524D02*
X2963110Y-787000D01*
X2963110Y-787000D02*
X2982157Y-777476D01*
X3125014Y-777476D02*
X3125014Y-815571D01*
X3201205Y-777476D02*
X3201205Y-815571D01*
X3464062Y-1053667D02*
X3454538Y-1044143D01*
X3454538Y-1044143D02*
X3435491Y-1015571D01*
X3435491Y-1015571D02*
X3425967Y-996524D01*
X3425967Y-996524D02*
X3416443Y-967952D01*
X3416443Y-967952D02*
X3406919Y-920333D01*
X3406919Y-920333D02*
X3406919Y-882238D01*
X3406919Y-882238D02*
X3416443Y-834619D01*
X3416443Y-834619D02*
X3425967Y-806048D01*
X3425967Y-806048D02*
X3435491Y-787000D01*
X3435491Y-787000D02*
X3454538Y-758428D01*
X3454538Y-758428D02*
X3464062Y-748905D01*
X3645014Y-977476D02*
X3530729Y-977476D01*
X3587871Y-977476D02*
X3587871Y-777476D01*
X3587871Y-777476D02*
X3568824Y-806048D01*
X3568824Y-806048D02*
X3549776Y-825095D01*
X3549776Y-825095D02*
X3530729Y-834619D01*
X3721205Y-796524D02*
X3730729Y-787000D01*
X3730729Y-787000D02*
X3749776Y-777476D01*
X3749776Y-777476D02*
X3797395Y-777476D01*
X3797395Y-777476D02*
X3816443Y-787000D01*
X3816443Y-787000D02*
X3825967Y-796524D01*
X3825967Y-796524D02*
X3835491Y-815571D01*
X3835491Y-815571D02*
X3835491Y-834619D01*
X3835491Y-834619D02*
X3825967Y-863190D01*
X3825967Y-863190D02*
X3711681Y-977476D01*
X3711681Y-977476D02*
X3835491Y-977476D01*
X4041205Y-977476D02*
X4041205Y-777476D01*
X4126919Y-977476D02*
X4126919Y-872714D01*
X4126919Y-872714D02*
X4117395Y-853667D01*
X4117395Y-853667D02*
X4098348Y-844143D01*
X4098348Y-844143D02*
X4069776Y-844143D01*
X4069776Y-844143D02*
X4050729Y-853667D01*
X4050729Y-853667D02*
X4041205Y-863190D01*
X4250729Y-977476D02*
X4231681Y-967952D01*
X4231681Y-967952D02*
X4222157Y-958428D01*
X4222157Y-958428D02*
X4212634Y-939381D01*
X4212634Y-939381D02*
X4212634Y-882238D01*
X4212634Y-882238D02*
X4222157Y-863190D01*
X4222157Y-863190D02*
X4231681Y-853667D01*
X4231681Y-853667D02*
X4250729Y-844143D01*
X4250729Y-844143D02*
X4279300Y-844143D01*
X4279300Y-844143D02*
X4298348Y-853667D01*
X4298348Y-853667D02*
X4307872Y-863190D01*
X4307872Y-863190D02*
X4317395Y-882238D01*
X4317395Y-882238D02*
X4317395Y-939381D01*
X4317395Y-939381D02*
X4307872Y-958428D01*
X4307872Y-958428D02*
X4298348Y-967952D01*
X4298348Y-967952D02*
X4279300Y-977476D01*
X4279300Y-977476D02*
X4250729Y-977476D01*
X4431681Y-977476D02*
X4412634Y-967952D01*
X4412634Y-967952D02*
X4403110Y-948905D01*
X4403110Y-948905D02*
X4403110Y-777476D01*
X4584062Y-967952D02*
X4565015Y-977476D01*
X4565015Y-977476D02*
X4526919Y-977476D01*
X4526919Y-977476D02*
X4507872Y-967952D01*
X4507872Y-967952D02*
X4498348Y-948905D01*
X4498348Y-948905D02*
X4498348Y-872714D01*
X4498348Y-872714D02*
X4507872Y-853667D01*
X4507872Y-853667D02*
X4526919Y-844143D01*
X4526919Y-844143D02*
X4565015Y-844143D01*
X4565015Y-844143D02*
X4584062Y-853667D01*
X4584062Y-853667D02*
X4593586Y-872714D01*
X4593586Y-872714D02*
X4593586Y-891762D01*
X4593586Y-891762D02*
X4498348Y-910809D01*
X4669776Y-967952D02*
X4688824Y-977476D01*
X4688824Y-977476D02*
X4726919Y-977476D01*
X4726919Y-977476D02*
X4745967Y-967952D01*
X4745967Y-967952D02*
X4755491Y-948905D01*
X4755491Y-948905D02*
X4755491Y-939381D01*
X4755491Y-939381D02*
X4745967Y-920333D01*
X4745967Y-920333D02*
X4726919Y-910809D01*
X4726919Y-910809D02*
X4698348Y-910809D01*
X4698348Y-910809D02*
X4679300Y-901286D01*
X4679300Y-901286D02*
X4669776Y-882238D01*
X4669776Y-882238D02*
X4669776Y-872714D01*
X4669776Y-872714D02*
X4679300Y-853667D01*
X4679300Y-853667D02*
X4698348Y-844143D01*
X4698348Y-844143D02*
X4726919Y-844143D01*
X4726919Y-844143D02*
X4745967Y-853667D01*
X4822157Y-1053667D02*
X4831681Y-1044143D01*
X4831681Y-1044143D02*
X4850729Y-1015571D01*
X4850729Y-1015571D02*
X4860253Y-996524D01*
X4860253Y-996524D02*
X4869776Y-967952D01*
X4869776Y-967952D02*
X4879300Y-920333D01*
X4879300Y-920333D02*
X4879300Y-882238D01*
X4879300Y-882238D02*
X4869776Y-834619D01*
X4869776Y-834619D02*
X4860253Y-806048D01*
X4860253Y-806048D02*
X4850729Y-787000D01*
X4850729Y-787000D02*
X4831681Y-758428D01*
X4831681Y-758428D02*
X4822157Y-748905D01*
D14*
X-89370Y-1079330D02*
X-89370Y-1256670D01*
X-178040Y-1168000D02*
X-700Y-1168000D01*
D11*
X351681Y-1241476D02*
X237395Y-1241476D01*
X294538Y-1241476D02*
X294538Y-1041476D01*
X294538Y-1041476D02*
X275490Y-1070048D01*
X275490Y-1070048D02*
X256443Y-1089095D01*
X256443Y-1089095D02*
X237395Y-1098619D01*
X437395Y-1222429D02*
X446919Y-1231952D01*
X446919Y-1231952D02*
X437395Y-1241476D01*
X437395Y-1241476D02*
X427871Y-1231952D01*
X427871Y-1231952D02*
X437395Y-1222429D01*
X437395Y-1222429D02*
X437395Y-1241476D01*
X513586Y-1041476D02*
X646919Y-1041476D01*
X646919Y-1041476D02*
X561205Y-1241476D01*
X704062Y-1041476D02*
X837395Y-1041476D01*
X837395Y-1041476D02*
X751681Y-1241476D01*
X894538Y-1041476D02*
X1018348Y-1041476D01*
X1018348Y-1041476D02*
X951681Y-1117667D01*
X951681Y-1117667D02*
X980252Y-1117667D01*
X980252Y-1117667D02*
X999300Y-1127190D01*
X999300Y-1127190D02*
X1008824Y-1136714D01*
X1008824Y-1136714D02*
X1018348Y-1155762D01*
X1018348Y-1155762D02*
X1018348Y-1203381D01*
X1018348Y-1203381D02*
X1008824Y-1222429D01*
X1008824Y-1222429D02*
X999300Y-1231952D01*
X999300Y-1231952D02*
X980252Y-1241476D01*
X980252Y-1241476D02*
X923109Y-1241476D01*
X923109Y-1241476D02*
X904062Y-1231952D01*
X904062Y-1231952D02*
X894538Y-1222429D01*
X1104062Y-1241476D02*
X1104062Y-1108143D01*
X1104062Y-1127190D02*
X1113586Y-1117667D01*
X1113586Y-1117667D02*
X1132633Y-1108143D01*
X1132633Y-1108143D02*
X1161205Y-1108143D01*
X1161205Y-1108143D02*
X1180252Y-1117667D01*
X1180252Y-1117667D02*
X1189776Y-1136714D01*
X1189776Y-1136714D02*
X1189776Y-1241476D01*
X1189776Y-1136714D02*
X1199300Y-1117667D01*
X1199300Y-1117667D02*
X1218348Y-1108143D01*
X1218348Y-1108143D02*
X1246919Y-1108143D01*
X1246919Y-1108143D02*
X1265967Y-1117667D01*
X1265967Y-1117667D02*
X1275491Y-1136714D01*
X1275491Y-1136714D02*
X1275491Y-1241476D01*
X1370729Y-1241476D02*
X1370729Y-1108143D01*
X1370729Y-1127190D02*
X1380252Y-1117667D01*
X1380252Y-1117667D02*
X1399300Y-1108143D01*
X1399300Y-1108143D02*
X1427871Y-1108143D01*
X1427871Y-1108143D02*
X1446919Y-1117667D01*
X1446919Y-1117667D02*
X1456443Y-1136714D01*
X1456443Y-1136714D02*
X1456443Y-1241476D01*
X1456443Y-1136714D02*
X1465967Y-1117667D01*
X1465967Y-1117667D02*
X1485014Y-1108143D01*
X1485014Y-1108143D02*
X1513586Y-1108143D01*
X1513586Y-1108143D02*
X1532633Y-1117667D01*
X1532633Y-1117667D02*
X1542157Y-1136714D01*
X1542157Y-1136714D02*
X1542157Y-1241476D01*
X1900252Y-1031952D02*
X1728824Y-1289095D01*
X2125014Y-1041476D02*
X2144062Y-1041476D01*
X2144062Y-1041476D02*
X2163110Y-1051000D01*
X2163110Y-1051000D02*
X2172633Y-1060524D01*
X2172633Y-1060524D02*
X2182157Y-1079571D01*
X2182157Y-1079571D02*
X2191681Y-1117667D01*
X2191681Y-1117667D02*
X2191681Y-1165286D01*
X2191681Y-1165286D02*
X2182157Y-1203381D01*
X2182157Y-1203381D02*
X2172633Y-1222429D01*
X2172633Y-1222429D02*
X2163110Y-1231952D01*
X2163110Y-1231952D02*
X2144062Y-1241476D01*
X2144062Y-1241476D02*
X2125014Y-1241476D01*
X2125014Y-1241476D02*
X2105967Y-1231952D01*
X2105967Y-1231952D02*
X2096443Y-1222429D01*
X2096443Y-1222429D02*
X2086919Y-1203381D01*
X2086919Y-1203381D02*
X2077395Y-1165286D01*
X2077395Y-1165286D02*
X2077395Y-1117667D01*
X2077395Y-1117667D02*
X2086919Y-1079571D01*
X2086919Y-1079571D02*
X2096443Y-1060524D01*
X2096443Y-1060524D02*
X2105967Y-1051000D01*
X2105967Y-1051000D02*
X2125014Y-1041476D01*
X2277395Y-1222429D02*
X2286919Y-1231952D01*
X2286919Y-1231952D02*
X2277395Y-1241476D01*
X2277395Y-1241476D02*
X2267872Y-1231952D01*
X2267872Y-1231952D02*
X2277395Y-1222429D01*
X2277395Y-1222429D02*
X2277395Y-1241476D01*
X2410729Y-1041476D02*
X2429776Y-1041476D01*
X2429776Y-1041476D02*
X2448824Y-1051000D01*
X2448824Y-1051000D02*
X2458348Y-1060524D01*
X2458348Y-1060524D02*
X2467872Y-1079571D01*
X2467872Y-1079571D02*
X2477395Y-1117667D01*
X2477395Y-1117667D02*
X2477395Y-1165286D01*
X2477395Y-1165286D02*
X2467872Y-1203381D01*
X2467872Y-1203381D02*
X2458348Y-1222429D01*
X2458348Y-1222429D02*
X2448824Y-1231952D01*
X2448824Y-1231952D02*
X2429776Y-1241476D01*
X2429776Y-1241476D02*
X2410729Y-1241476D01*
X2410729Y-1241476D02*
X2391681Y-1231952D01*
X2391681Y-1231952D02*
X2382157Y-1222429D01*
X2382157Y-1222429D02*
X2372633Y-1203381D01*
X2372633Y-1203381D02*
X2363110Y-1165286D01*
X2363110Y-1165286D02*
X2363110Y-1117667D01*
X2363110Y-1117667D02*
X2372633Y-1079571D01*
X2372633Y-1079571D02*
X2382157Y-1060524D01*
X2382157Y-1060524D02*
X2391681Y-1051000D01*
X2391681Y-1051000D02*
X2410729Y-1041476D01*
X2648824Y-1041476D02*
X2610729Y-1041476D01*
X2610729Y-1041476D02*
X2591681Y-1051000D01*
X2591681Y-1051000D02*
X2582157Y-1060524D01*
X2582157Y-1060524D02*
X2563110Y-1089095D01*
X2563110Y-1089095D02*
X2553586Y-1127190D01*
X2553586Y-1127190D02*
X2553586Y-1203381D01*
X2553586Y-1203381D02*
X2563110Y-1222429D01*
X2563110Y-1222429D02*
X2572633Y-1231952D01*
X2572633Y-1231952D02*
X2591681Y-1241476D01*
X2591681Y-1241476D02*
X2629776Y-1241476D01*
X2629776Y-1241476D02*
X2648824Y-1231952D01*
X2648824Y-1231952D02*
X2658348Y-1222429D01*
X2658348Y-1222429D02*
X2667872Y-1203381D01*
X2667872Y-1203381D02*
X2667872Y-1155762D01*
X2667872Y-1155762D02*
X2658348Y-1136714D01*
X2658348Y-1136714D02*
X2648824Y-1127190D01*
X2648824Y-1127190D02*
X2629776Y-1117667D01*
X2629776Y-1117667D02*
X2591681Y-1117667D01*
X2591681Y-1117667D02*
X2572633Y-1127190D01*
X2572633Y-1127190D02*
X2563110Y-1136714D01*
X2563110Y-1136714D02*
X2553586Y-1155762D01*
X2763110Y-1241476D02*
X2801205Y-1241476D01*
X2801205Y-1241476D02*
X2820252Y-1231952D01*
X2820252Y-1231952D02*
X2829776Y-1222429D01*
X2829776Y-1222429D02*
X2848824Y-1193857D01*
X2848824Y-1193857D02*
X2858348Y-1155762D01*
X2858348Y-1155762D02*
X2858348Y-1079571D01*
X2858348Y-1079571D02*
X2848824Y-1060524D01*
X2848824Y-1060524D02*
X2839300Y-1051000D01*
X2839300Y-1051000D02*
X2820252Y-1041476D01*
X2820252Y-1041476D02*
X2782157Y-1041476D01*
X2782157Y-1041476D02*
X2763110Y-1051000D01*
X2763110Y-1051000D02*
X2753586Y-1060524D01*
X2753586Y-1060524D02*
X2744062Y-1079571D01*
X2744062Y-1079571D02*
X2744062Y-1127190D01*
X2744062Y-1127190D02*
X2753586Y-1146238D01*
X2753586Y-1146238D02*
X2763110Y-1155762D01*
X2763110Y-1155762D02*
X2782157Y-1165286D01*
X2782157Y-1165286D02*
X2820252Y-1165286D01*
X2820252Y-1165286D02*
X2839300Y-1155762D01*
X2839300Y-1155762D02*
X2848824Y-1146238D01*
X2848824Y-1146238D02*
X2858348Y-1127190D01*
X2972633Y-1127190D02*
X2953586Y-1117667D01*
X2953586Y-1117667D02*
X2944062Y-1108143D01*
X2944062Y-1108143D02*
X2934538Y-1089095D01*
X2934538Y-1089095D02*
X2934538Y-1079571D01*
X2934538Y-1079571D02*
X2944062Y-1060524D01*
X2944062Y-1060524D02*
X2953586Y-1051000D01*
X2953586Y-1051000D02*
X2972633Y-1041476D01*
X2972633Y-1041476D02*
X3010729Y-1041476D01*
X3010729Y-1041476D02*
X3029776Y-1051000D01*
X3029776Y-1051000D02*
X3039300Y-1060524D01*
X3039300Y-1060524D02*
X3048824Y-1079571D01*
X3048824Y-1079571D02*
X3048824Y-1089095D01*
X3048824Y-1089095D02*
X3039300Y-1108143D01*
X3039300Y-1108143D02*
X3029776Y-1117667D01*
X3029776Y-1117667D02*
X3010729Y-1127190D01*
X3010729Y-1127190D02*
X2972633Y-1127190D01*
X2972633Y-1127190D02*
X2953586Y-1136714D01*
X2953586Y-1136714D02*
X2944062Y-1146238D01*
X2944062Y-1146238D02*
X2934538Y-1165286D01*
X2934538Y-1165286D02*
X2934538Y-1203381D01*
X2934538Y-1203381D02*
X2944062Y-1222429D01*
X2944062Y-1222429D02*
X2953586Y-1231952D01*
X2953586Y-1231952D02*
X2972633Y-1241476D01*
X2972633Y-1241476D02*
X3010729Y-1241476D01*
X3010729Y-1241476D02*
X3029776Y-1231952D01*
X3029776Y-1231952D02*
X3039300Y-1222429D01*
X3039300Y-1222429D02*
X3048824Y-1203381D01*
X3048824Y-1203381D02*
X3048824Y-1165286D01*
X3048824Y-1165286D02*
X3039300Y-1146238D01*
X3039300Y-1146238D02*
X3029776Y-1136714D01*
X3029776Y-1136714D02*
X3010729Y-1127190D01*
X3125014Y-1041476D02*
X3125014Y-1079571D01*
X3201205Y-1041476D02*
X3201205Y-1079571D01*
X3464062Y-1317667D02*
X3454538Y-1308143D01*
X3454538Y-1308143D02*
X3435491Y-1279571D01*
X3435491Y-1279571D02*
X3425967Y-1260524D01*
X3425967Y-1260524D02*
X3416443Y-1231952D01*
X3416443Y-1231952D02*
X3406919Y-1184333D01*
X3406919Y-1184333D02*
X3406919Y-1146238D01*
X3406919Y-1146238D02*
X3416443Y-1098619D01*
X3416443Y-1098619D02*
X3425967Y-1070048D01*
X3425967Y-1070048D02*
X3435491Y-1051000D01*
X3435491Y-1051000D02*
X3454538Y-1022428D01*
X3454538Y-1022428D02*
X3464062Y-1012905D01*
X3645014Y-1241476D02*
X3530729Y-1241476D01*
X3587871Y-1241476D02*
X3587871Y-1041476D01*
X3587871Y-1041476D02*
X3568824Y-1070048D01*
X3568824Y-1070048D02*
X3549776Y-1089095D01*
X3549776Y-1089095D02*
X3530729Y-1098619D01*
X3721205Y-1060524D02*
X3730729Y-1051000D01*
X3730729Y-1051000D02*
X3749776Y-1041476D01*
X3749776Y-1041476D02*
X3797395Y-1041476D01*
X3797395Y-1041476D02*
X3816443Y-1051000D01*
X3816443Y-1051000D02*
X3825967Y-1060524D01*
X3825967Y-1060524D02*
X3835491Y-1079571D01*
X3835491Y-1079571D02*
X3835491Y-1098619D01*
X3835491Y-1098619D02*
X3825967Y-1127190D01*
X3825967Y-1127190D02*
X3711681Y-1241476D01*
X3711681Y-1241476D02*
X3835491Y-1241476D01*
X4041205Y-1241476D02*
X4041205Y-1041476D01*
X4126919Y-1241476D02*
X4126919Y-1136714D01*
X4126919Y-1136714D02*
X4117395Y-1117667D01*
X4117395Y-1117667D02*
X4098348Y-1108143D01*
X4098348Y-1108143D02*
X4069776Y-1108143D01*
X4069776Y-1108143D02*
X4050729Y-1117667D01*
X4050729Y-1117667D02*
X4041205Y-1127190D01*
X4250729Y-1241476D02*
X4231681Y-1231952D01*
X4231681Y-1231952D02*
X4222157Y-1222429D01*
X4222157Y-1222429D02*
X4212634Y-1203381D01*
X4212634Y-1203381D02*
X4212634Y-1146238D01*
X4212634Y-1146238D02*
X4222157Y-1127190D01*
X4222157Y-1127190D02*
X4231681Y-1117667D01*
X4231681Y-1117667D02*
X4250729Y-1108143D01*
X4250729Y-1108143D02*
X4279300Y-1108143D01*
X4279300Y-1108143D02*
X4298348Y-1117667D01*
X4298348Y-1117667D02*
X4307872Y-1127190D01*
X4307872Y-1127190D02*
X4317395Y-1146238D01*
X4317395Y-1146238D02*
X4317395Y-1203381D01*
X4317395Y-1203381D02*
X4307872Y-1222429D01*
X4307872Y-1222429D02*
X4298348Y-1231952D01*
X4298348Y-1231952D02*
X4279300Y-1241476D01*
X4279300Y-1241476D02*
X4250729Y-1241476D01*
X4431681Y-1241476D02*
X4412634Y-1231952D01*
X4412634Y-1231952D02*
X4403110Y-1212905D01*
X4403110Y-1212905D02*
X4403110Y-1041476D01*
X4584062Y-1231952D02*
X4565015Y-1241476D01*
X4565015Y-1241476D02*
X4526919Y-1241476D01*
X4526919Y-1241476D02*
X4507872Y-1231952D01*
X4507872Y-1231952D02*
X4498348Y-1212905D01*
X4498348Y-1212905D02*
X4498348Y-1136714D01*
X4498348Y-1136714D02*
X4507872Y-1117667D01*
X4507872Y-1117667D02*
X4526919Y-1108143D01*
X4526919Y-1108143D02*
X4565015Y-1108143D01*
X4565015Y-1108143D02*
X4584062Y-1117667D01*
X4584062Y-1117667D02*
X4593586Y-1136714D01*
X4593586Y-1136714D02*
X4593586Y-1155762D01*
X4593586Y-1155762D02*
X4498348Y-1174810D01*
X4669776Y-1231952D02*
X4688824Y-1241476D01*
X4688824Y-1241476D02*
X4726919Y-1241476D01*
X4726919Y-1241476D02*
X4745967Y-1231952D01*
X4745967Y-1231952D02*
X4755491Y-1212905D01*
X4755491Y-1212905D02*
X4755491Y-1203381D01*
X4755491Y-1203381D02*
X4745967Y-1184333D01*
X4745967Y-1184333D02*
X4726919Y-1174810D01*
X4726919Y-1174810D02*
X4698348Y-1174810D01*
X4698348Y-1174810D02*
X4679300Y-1165286D01*
X4679300Y-1165286D02*
X4669776Y-1146238D01*
X4669776Y-1146238D02*
X4669776Y-1136714D01*
X4669776Y-1136714D02*
X4679300Y-1117667D01*
X4679300Y-1117667D02*
X4698348Y-1108143D01*
X4698348Y-1108143D02*
X4726919Y-1108143D01*
X4726919Y-1108143D02*
X4745967Y-1117667D01*
X4822157Y-1317667D02*
X4831681Y-1308143D01*
X4831681Y-1308143D02*
X4850729Y-1279571D01*
X4850729Y-1279571D02*
X4860253Y-1260524D01*
X4860253Y-1260524D02*
X4869776Y-1231952D01*
X4869776Y-1231952D02*
X4879300Y-1184333D01*
X4879300Y-1184333D02*
X4879300Y-1146238D01*
X4879300Y-1146238D02*
X4869776Y-1098619D01*
X4869776Y-1098619D02*
X4860253Y-1070048D01*
X4860253Y-1070048D02*
X4850729Y-1051000D01*
X4850729Y-1051000D02*
X4831681Y-1022428D01*
X4831681Y-1022428D02*
X4822157Y-1012905D01*
M02*
