M48
; DRILL file {KiCad (7.0.0)} date Thu Jul 13 12:07:47 2023
; FORMAT={-:-/ absolute / metric / decimal}
; #@! TF.CreationDate,2023-07-13T12:07:47+02:00
; #@! TF.GenerationSoftware,Kicad,Pcbnew,(7.0.0)
; #@! TF.FileFunction,Plated,1,4,PTH
FMAT,2
METRIC
; #@! TA.AperFunction,Plated,PTH,ViaDrill
T1C0.250
; #@! TA.AperFunction,Plated,PTH,ComponentDrill
T2C1.321
; #@! TA.AperFunction,Plated,PTH,ComponentDrill
T3C1.773
%
G90
G05
T1
X2.238Y23.055
X2.238Y17.975
X2.238Y12.895
X2.238Y7.815
X7.318Y12.895
X7.318Y7.863
X7.318Y1.422
X8.788Y1.422
X9.858Y28.805
X9.858Y23.097
X9.858Y17.975
X11.788Y1.422
X14.788Y1.422
X14.938Y28.805
X14.938Y23.097
X14.938Y17.975
X17.136Y12.335
X17.737Y12.335
X18.339Y12.335
X18.94Y12.335
X19.568Y18.508
X19.636Y12.335
X20.018Y28.805
X20.018Y23.055
X20.018Y1.422
X20.238Y12.345
X20.768Y19.508
X20.842Y12.345
X21.136Y11.335
X21.293Y10.335
X21.293Y9.335
X21.444Y12.335
X21.737Y11.335
X21.968Y18.508
X22.339Y11.335
X22.636Y12.335
X22.783Y10.335
X22.783Y9.335
X22.94Y11.335
X23.237Y12.335
X23.839Y12.335
X24.136Y11.335
X24.44Y12.335
X24.488Y10.335
X24.737Y11.335
X25.098Y28.805
X25.098Y23.055
X25.098Y17.975
X25.098Y1.422
X25.339Y11.335
X25.94Y11.335
X30.178Y28.805
X30.178Y23.055
X30.178Y1.422
X32.625Y1.422
X35.258Y28.805
X35.684Y1.419
X38.684Y1.422
X40.338Y28.805
X40.338Y1.422
X43.488Y18.508
X44.688Y19.677
X45.191Y12.335
X45.191Y11.335
X45.191Y10.335
X45.191Y9.335
X45.191Y8.335
X45.418Y28.805
X45.418Y1.422
X45.888Y18.508
X46.668Y11.335
X46.698Y12.335
X46.698Y10.335
X46.698Y9.335
X48.185Y12.335
X48.185Y11.335
X48.185Y10.335
X50.498Y28.805
X50.498Y1.422
X54.228Y28.805
X55.498Y27.335
X56.584Y1.422
X59.584Y1.422
X61.198Y30.235
X62.584Y1.422
X63.598Y30.235
X64.936Y12.335
X65.537Y12.335
X65.998Y30.235
X65.998Y1.422
X66.139Y12.335
X66.74Y12.335
X67.388Y18.508
X68.398Y30.235
X68.588Y19.508
X69.083Y12.335
X69.083Y11.335
X69.083Y10.335
X69.083Y9.335
X69.788Y18.508
X70.088Y7.275
X70.593Y12.335
X70.593Y11.335
X70.593Y10.335
X70.593Y9.335
X70.798Y30.235
X70.798Y1.422
X72.09Y12.335
X72.09Y11.335
X72.458Y9.427
X72.458Y8.826
X72.458Y8.224
X72.458Y7.623
X72.653Y5.17
X73.198Y30.235
X73.286Y11.13
X75.598Y30.235
X75.598Y1.422
X77.998Y30.235
X80.398Y30.235
X82.798Y30.235
X85.198Y30.235
X85.198Y1.422
X86.628Y9.403
X86.628Y8.802
X86.628Y8.2
X86.628Y7.598
X87.598Y30.235
X89.998Y30.235
X89.998Y1.422
X90.111Y8.045
X91.278Y18.508
X91.336Y12.335
X91.937Y12.335
X91.948Y8.064
X92.398Y30.235
X92.478Y19.508
X92.539Y12.335
X92.836Y11.335
X93.14Y12.335
X93.437Y11.335
X93.678Y18.508
X94.039Y11.335
X94.336Y12.335
X94.493Y10.335
X94.64Y11.335
X94.798Y30.235
X94.798Y1.422
X94.937Y12.335
X95.539Y12.335
X95.836Y11.335
X95.99Y10.335
X95.99Y9.335
X96.14Y12.335
X96.437Y11.335
X96.982Y1.422
X97.039Y11.335
X97.198Y30.235
X97.64Y11.335
X99.598Y30.235
X99.982Y1.422
X102.982Y1.422
X103.228Y28.805
X104.498Y27.335
X105.768Y28.805
X107.168Y1.422
X111.458Y28.805
X111.458Y1.422
X111.772Y9.203
X112.732Y12.335
X113.334Y12.335
X113.939Y12.335
X114.54Y12.335
X115.178Y18.508
X115.232Y12.335
X115.834Y12.335
X115.998Y9.31
X116.439Y12.335
X116.538Y28.805
X116.538Y1.422
X116.736Y11.335
X116.895Y10.335
X117.031Y5.527
X117.04Y12.335
X117.337Y11.335
X117.578Y18.508
X117.939Y11.335
X118.236Y12.335
X118.39Y10.335
X118.39Y9.335
X118.54Y11.335
X118.837Y12.335
X118.916Y7.071
X119.439Y12.335
X119.736Y11.335
X119.895Y10.335
X119.895Y9.335
X119.895Y8.335
X120.04Y12.335
X120.337Y11.335
X120.88Y1.422
X120.939Y11.335
X121.54Y11.335
X121.618Y28.805
X123.88Y1.422
X126.698Y28.805
X126.88Y1.422
X131.778Y28.805
X131.778Y17.975
X131.778Y1.422
X136.858Y28.805
X136.858Y23.055
X136.858Y17.975
X136.858Y1.422
X139.078Y18.508
X140.278Y19.508
X140.773Y12.335
X140.773Y11.335
X141.478Y18.508
X141.938Y28.805
X141.938Y23.055
X141.938Y1.422
X142.268Y12.335
X142.268Y11.335
X142.268Y10.335
X143.78Y12.36
X143.78Y11.335
X143.78Y10.335
X143.78Y9.335
X144.778Y1.422
X147.018Y28.805
X147.018Y23.055
X147.018Y17.975
X147.778Y1.422
X150.778Y1.422
X152.098Y28.805
X152.098Y23.055
X152.098Y17.975
X152.098Y12.895
X152.098Y7.815
X152.098Y1.422
X157.178Y23.055
X157.178Y17.975
X157.178Y12.895
X157.178Y7.815
T2
X11.788Y5.185
X28.288Y5.185
X35.684Y5.186
X52.184Y5.186
X59.584Y5.185
X76.084Y5.185
X83.482Y5.185
X99.982Y5.185
X107.38Y5.185
X123.88Y5.185
X131.278Y5.185
X147.778Y5.185
T3
X11.788Y11.965
X28.288Y11.965
X35.684Y11.966
X52.184Y11.966
X59.584Y11.965
X76.084Y11.965
X83.482Y11.965
X99.982Y11.965
X107.38Y11.965
X123.88Y11.965
X131.278Y11.965
X147.778Y11.965
T0
M30
