%TF.GenerationSoftware,KiCad,Pcbnew,(7.0.0)*%
%TF.CreationDate,2023-07-13T12:07:19+02:00*%
%TF.ProjectId,RD53B_Quad_6DP_to_ERF8_Data_Adapter,52443533-425f-4517-9561-645f3644505f,V1*%
%TF.SameCoordinates,PX1767f18PY451e560*%
%TF.FileFunction,Other,User*%
%FSLAX46Y46*%
G04 Gerber Fmt 4.6, Leading zero omitted, Abs format (unit mm)*
G04 Created by KiCad (PCBNEW (7.0.0)) date 2023-07-13 12:07:19*
%MOMM*%
%LPD*%
G01*
G04 APERTURE LIST*
%ADD10C,0.050000*%
G04 APERTURE END LIST*
D10*
%TO.C,J7*%
X53748000Y38255000D02*
X106248000Y38255000D01*
X53748000Y25555000D02*
X53748000Y38255000D01*
X106248000Y38255000D02*
X106248000Y25555000D01*
X106248000Y25555000D02*
X53748000Y25555000D01*
%TO.C,C12*%
X150258000Y4035000D02*
X148298000Y4035000D01*
X148298000Y4035000D02*
X148298000Y635000D01*
X150258000Y635000D02*
X150258000Y4035000D01*
X148298000Y635000D02*
X150258000Y635000D01*
%TO.C,R3*%
X62034000Y4015000D02*
X60134000Y4015000D01*
X60134000Y4015000D02*
X60134000Y655000D01*
X62034000Y655000D02*
X62034000Y4015000D01*
X60134000Y655000D02*
X62034000Y655000D01*
%TO.C,R6*%
X147228000Y4015000D02*
X145328000Y4015000D01*
X145328000Y4015000D02*
X145328000Y655000D01*
X147228000Y655000D02*
X147228000Y4015000D01*
X145328000Y655000D02*
X147228000Y655000D01*
%TO.C,R4*%
X99432000Y4015000D02*
X97532000Y4015000D01*
X97532000Y4015000D02*
X97532000Y655000D01*
X99432000Y655000D02*
X99432000Y4015000D01*
X97532000Y655000D02*
X99432000Y655000D01*
%TO.C,REF_Bottom*%
X2737000Y1524000D02*
G75*
G03*
X2737000Y1524000I-1250000J0D01*
G01*
%TO.C,R2*%
X38134000Y4015000D02*
X36234000Y4015000D01*
X36234000Y4015000D02*
X36234000Y655000D01*
X38134000Y655000D02*
X38134000Y4015000D01*
X36234000Y655000D02*
X38134000Y655000D01*
%TO.C,R1*%
X14238000Y4015000D02*
X12338000Y4015000D01*
X12338000Y4015000D02*
X12338000Y655000D01*
X14238000Y655000D02*
X14238000Y4015000D01*
X12338000Y655000D02*
X14238000Y655000D01*
%TO.C,C8*%
X35105000Y4035000D02*
X33145000Y4035000D01*
X33145000Y4035000D02*
X33145000Y635000D01*
X35105000Y635000D02*
X35105000Y4035000D01*
X33145000Y635000D02*
X35105000Y635000D01*
%TO.C,C7*%
X11268000Y4035000D02*
X9308000Y4035000D01*
X9308000Y4035000D02*
X9308000Y635000D01*
X11268000Y635000D02*
X11268000Y4035000D01*
X9308000Y635000D02*
X11268000Y635000D01*
%TO.C,C9*%
X59064000Y4035000D02*
X57104000Y4035000D01*
X57104000Y4035000D02*
X57104000Y635000D01*
X59064000Y635000D02*
X59064000Y4035000D01*
X57104000Y635000D02*
X59064000Y635000D01*
%TO.C,R5*%
X123330000Y4015000D02*
X121430000Y4015000D01*
X121430000Y4015000D02*
X121430000Y655000D01*
X123330000Y655000D02*
X123330000Y4015000D01*
X121430000Y655000D02*
X123330000Y655000D01*
%TO.C,C11*%
X126360000Y4035000D02*
X124400000Y4035000D01*
X124400000Y4035000D02*
X124400000Y635000D01*
X126360000Y635000D02*
X126360000Y4035000D01*
X124400000Y635000D02*
X126360000Y635000D01*
%TO.C,C10*%
X102462000Y4035000D02*
X100502000Y4035000D01*
X100502000Y4035000D02*
X100502000Y635000D01*
X102462000Y635000D02*
X102462000Y4035000D01*
X100502000Y635000D02*
X102462000Y635000D01*
%TD*%
M02*
