%TF.GenerationSoftware,KiCad,Pcbnew,(7.0.0)*%
%TF.CreationDate,2023-07-13T16:08:18+02:00*%
%TF.ProjectId,RD53B_Quad_6DP_to_ERF8_Data_Adapter,52443533-425f-4517-9561-645f3644505f,V1*%
%TF.SameCoordinates,PX1767f18PY451e560*%
%TF.FileFunction,Soldermask,Top*%
%TF.FilePolarity,Negative*%
%FSLAX46Y46*%
G04 Gerber Fmt 4.6, Leading zero omitted, Abs format (unit mm)*
G04 Created by KiCad (PCBNEW (7.0.0)) date 2023-07-13 16:08:18*
%MOMM*%
%LPD*%
G01*
G04 APERTURE LIST*
G04 Aperture macros list*
%AMRoundRect*
0 Rectangle with rounded corners*
0 $1 Rounding radius*
0 $2 $3 $4 $5 $6 $7 $8 $9 X,Y pos of 4 corners*
0 Add a 4 corners polygon primitive as box body*
4,1,4,$2,$3,$4,$5,$6,$7,$8,$9,$2,$3,0*
0 Add four circle primitives for the rounded corners*
1,1,$1+$1,$2,$3*
1,1,$1+$1,$4,$5*
1,1,$1+$1,$6,$7*
1,1,$1+$1,$8,$9*
0 Add four rect primitives between the rounded corners*
20,1,$1+$1,$2,$3,$4,$5,0*
20,1,$1+$1,$4,$5,$6,$7,0*
20,1,$1+$1,$6,$7,$8,$9,0*
20,1,$1+$1,$8,$9,$2,$3,0*%
G04 Aperture macros list end*
%ADD10C,3.200000*%
%ADD11RoundRect,0.250000X0.475000X-0.250000X0.475000X0.250000X-0.475000X0.250000X-0.475000X-0.250000X0*%
%ADD12C,0.001000*%
%ADD13R,0.280000X2.400000*%
%ADD14C,2.660000*%
%ADD15C,1.982000*%
%ADD16C,2.100000*%
%ADD17R,0.500000X1.480000*%
%ADD18R,1.500000X2.000000*%
%ADD19C,2.000000*%
%TA.AperFunction,Profile*%
%ADD20C,0.010000*%
%TD*%
G04 APERTURE END LIST*
D10*
%TO.C,*%
X4118000Y3335000D03*
%TD*%
D11*
%TO.C,C2*%
X44688000Y16645000D03*
X44688000Y18545000D03*
%TD*%
D12*
%TO.C,J4*%
X91732000Y4405000D03*
D13*
X97231999Y14564999D03*
X96731999Y14564999D03*
X96231999Y14564999D03*
X95731999Y14564999D03*
X95231999Y14564999D03*
X94731999Y14564999D03*
X94231999Y14564999D03*
X93731999Y14564999D03*
X93231999Y14564999D03*
X92731999Y14564999D03*
X92231999Y14564999D03*
X91731999Y14564999D03*
X91231999Y14564999D03*
X90731999Y14564999D03*
X90231999Y14564999D03*
X89731999Y14564999D03*
X89231999Y14564999D03*
X88731999Y14564999D03*
X88231999Y14564999D03*
X87731999Y14564999D03*
D14*
X83482000Y11965000D03*
D15*
X83482000Y5185000D03*
X99982000Y5185000D03*
D14*
X99982000Y11965000D03*
%TD*%
D12*
%TO.C,J2*%
X43934000Y4406000D03*
D13*
X49433999Y14565999D03*
X48933999Y14565999D03*
X48433999Y14565999D03*
X47933999Y14565999D03*
X47433999Y14565999D03*
X46933999Y14565999D03*
X46433999Y14565999D03*
X45933999Y14565999D03*
X45433999Y14565999D03*
X44933999Y14565999D03*
X44433999Y14565999D03*
X43933999Y14565999D03*
X43433999Y14565999D03*
X42933999Y14565999D03*
X42433999Y14565999D03*
X41933999Y14565999D03*
X41433999Y14565999D03*
X40933999Y14565999D03*
X40433999Y14565999D03*
X39933999Y14565999D03*
D14*
X35684000Y11966000D03*
D15*
X35684000Y5186000D03*
X52184000Y5186000D03*
D14*
X52184000Y11966000D03*
%TD*%
D11*
%TO.C,C1*%
X20768000Y16645000D03*
X20768000Y18545000D03*
%TD*%
%TO.C,C6*%
X140278000Y16645000D03*
X140278000Y18545000D03*
%TD*%
D16*
%TO.C,J7*%
X57888000Y27005000D03*
D17*
X60397999Y28944999D03*
X61197999Y28944999D03*
X61997999Y28944999D03*
X62797999Y28944999D03*
X63597999Y28944999D03*
X64397999Y28944999D03*
X65197999Y28944999D03*
X65997999Y28944999D03*
X66797999Y28944999D03*
X67597999Y28944999D03*
X68397999Y28944999D03*
X69197999Y28944999D03*
X69997999Y28944999D03*
X70797999Y28944999D03*
X71597999Y28944999D03*
X72397999Y28944999D03*
X73197999Y28944999D03*
X73997999Y28944999D03*
X74797999Y28944999D03*
X75597999Y28944999D03*
X76397999Y28944999D03*
X77197999Y28944999D03*
X77997999Y28944999D03*
X78797999Y28944999D03*
X79597999Y28944999D03*
X80397999Y28944999D03*
X81197999Y28944999D03*
X81997999Y28944999D03*
X82797999Y28944999D03*
X83597999Y28944999D03*
X84397999Y28944999D03*
X85197999Y28944999D03*
X85997999Y28944999D03*
X86797999Y28944999D03*
X87597999Y28944999D03*
X88397999Y28944999D03*
X89197999Y28944999D03*
X89997999Y28944999D03*
X90797999Y28944999D03*
X91597999Y28944999D03*
X92397999Y28944999D03*
X93197999Y28944999D03*
X93997999Y28944999D03*
X94797999Y28944999D03*
X95597999Y28944999D03*
X96397999Y28944999D03*
X97197999Y28944999D03*
X97997999Y28944999D03*
X98797999Y28944999D03*
X99597999Y28944999D03*
D18*
X55497999Y28804999D03*
X104497999Y28804999D03*
%TD*%
D11*
%TO.C,C3*%
X68588000Y16645000D03*
X68588000Y18545000D03*
%TD*%
D12*
%TO.C,J6*%
X139528000Y4405000D03*
D13*
X145027999Y14564999D03*
X144527999Y14564999D03*
X144027999Y14564999D03*
X143527999Y14564999D03*
X143027999Y14564999D03*
X142527999Y14564999D03*
X142027999Y14564999D03*
X141527999Y14564999D03*
X141027999Y14564999D03*
X140527999Y14564999D03*
X140027999Y14564999D03*
X139527999Y14564999D03*
X139027999Y14564999D03*
X138527999Y14564999D03*
X138027999Y14564999D03*
X137527999Y14564999D03*
X137027999Y14564999D03*
X136527999Y14564999D03*
X136027999Y14564999D03*
X135527999Y14564999D03*
D14*
X131278000Y11965000D03*
D15*
X131278000Y5185000D03*
X147778000Y5185000D03*
D14*
X147778000Y11965000D03*
%TD*%
D10*
%TO.C,*%
X4118000Y27335000D03*
%TD*%
D11*
%TO.C,C5*%
X116378000Y16645000D03*
X116378000Y18545000D03*
%TD*%
D12*
%TO.C,J5*%
X115630000Y4405000D03*
D13*
X121129999Y14564999D03*
X120629999Y14564999D03*
X120129999Y14564999D03*
X119629999Y14564999D03*
X119129999Y14564999D03*
X118629999Y14564999D03*
X118129999Y14564999D03*
X117629999Y14564999D03*
X117129999Y14564999D03*
X116629999Y14564999D03*
X116129999Y14564999D03*
X115629999Y14564999D03*
X115129999Y14564999D03*
X114629999Y14564999D03*
X114129999Y14564999D03*
X113629999Y14564999D03*
X113129999Y14564999D03*
X112629999Y14564999D03*
X112129999Y14564999D03*
X111629999Y14564999D03*
D14*
X107380000Y11965000D03*
D15*
X107380000Y5185000D03*
X123880000Y5185000D03*
D14*
X123880000Y11965000D03*
%TD*%
D12*
%TO.C,J3*%
X67834000Y4405000D03*
D13*
X73333999Y14564999D03*
X72833999Y14564999D03*
X72333999Y14564999D03*
X71833999Y14564999D03*
X71333999Y14564999D03*
X70833999Y14564999D03*
X70333999Y14564999D03*
X69833999Y14564999D03*
X69333999Y14564999D03*
X68833999Y14564999D03*
X68333999Y14564999D03*
X67833999Y14564999D03*
X67333999Y14564999D03*
X66833999Y14564999D03*
X66333999Y14564999D03*
X65833999Y14564999D03*
X65333999Y14564999D03*
X64833999Y14564999D03*
X64333999Y14564999D03*
X63833999Y14564999D03*
D14*
X59584000Y11965000D03*
D15*
X59584000Y5185000D03*
X76084000Y5185000D03*
D14*
X76084000Y11965000D03*
%TD*%
D10*
%TO.C,*%
X156118000Y3335000D03*
%TD*%
D12*
%TO.C,J1*%
X20038000Y4405000D03*
D13*
X25537999Y14564999D03*
X25037999Y14564999D03*
X24537999Y14564999D03*
X24037999Y14564999D03*
X23537999Y14564999D03*
X23037999Y14564999D03*
X22537999Y14564999D03*
X22037999Y14564999D03*
X21537999Y14564999D03*
X21037999Y14564999D03*
X20537999Y14564999D03*
X20037999Y14564999D03*
X19537999Y14564999D03*
X19037999Y14564999D03*
X18537999Y14564999D03*
X18037999Y14564999D03*
X17537999Y14564999D03*
X17037999Y14564999D03*
X16537999Y14564999D03*
X16037999Y14564999D03*
D14*
X11788000Y11965000D03*
D15*
X11788000Y5185000D03*
X28288000Y5185000D03*
D14*
X28288000Y11965000D03*
%TD*%
D10*
%TO.C,*%
X156118000Y27335000D03*
%TD*%
D19*
%TO.C,REF_Top*%
X1487000Y1524000D03*
%TD*%
D11*
%TO.C,C4*%
X92478000Y16645000D03*
X92478000Y18545000D03*
%TD*%
D20*
X-2000Y31005000D02*
X-2000Y5000D01*
X159998000Y31005000D02*
X159998000Y5000D01*
X105998000Y31005000D02*
X159998000Y31005000D01*
X53998000Y31005000D02*
X-2000Y31005000D01*
X-2000Y5000D02*
X159998000Y5000D01*
%TO.C,J7*%
X56778000Y31005000D02*
X53998000Y31005000D01*
X56778000Y27005000D02*
X56778000Y31005000D01*
X58998000Y31005000D02*
X58998000Y27005000D01*
X105998000Y31005000D02*
X58998000Y31005000D01*
X56778000Y27005000D02*
G75*
G03*
X57888000Y25895000I1109998J-2D01*
G01*
X57888000Y25895000D02*
G75*
G03*
X58998000Y27005000I2J1109998D01*
G01*
%TD*%
M02*
