%TF.GenerationSoftware,KiCad,Pcbnew,(7.0.0)*%
%TF.CreationDate,2023-07-14T12:09:43+02:00*%
%TF.ProjectId,RD53B_Quad_6DP_to_ERF8_Data_Adapter,52443533-425f-4517-9561-645f3644505f,V1*%
%TF.SameCoordinates,PX1767f18PY451e560*%
%TF.FileFunction,Soldermask,Bot*%
%TF.FilePolarity,Negative*%
%FSLAX46Y46*%
G04 Gerber Fmt 4.6, Leading zero omitted, Abs format (unit mm)*
G04 Created by KiCad (PCBNEW (7.0.0)) date 2023-07-14 12:09:43*
%MOMM*%
%LPD*%
G01*
G04 APERTURE LIST*
G04 Aperture macros list*
%AMRoundRect*
0 Rectangle with rounded corners*
0 $1 Rounding radius*
0 $2 $3 $4 $5 $6 $7 $8 $9 X,Y pos of 4 corners*
0 Add a 4 corners polygon primitive as box body*
4,1,4,$2,$3,$4,$5,$6,$7,$8,$9,$2,$3,0*
0 Add four circle primitives for the rounded corners*
1,1,$1+$1,$2,$3*
1,1,$1+$1,$4,$5*
1,1,$1+$1,$6,$7*
1,1,$1+$1,$8,$9*
0 Add four rect primitives between the rounded corners*
20,1,$1+$1,$2,$3,$4,$5,0*
20,1,$1+$1,$4,$5,$6,$7,0*
20,1,$1+$1,$6,$7,$8,$9,0*
20,1,$1+$1,$8,$9,$2,$3,0*%
G04 Aperture macros list end*
%ADD10C,3.200000*%
%ADD11C,0.001000*%
%ADD12C,2.660000*%
%ADD13C,1.982000*%
%ADD14C,2.100000*%
%ADD15R,0.500000X1.480000*%
%ADD16R,1.500000X2.000000*%
%ADD17C,2.000000*%
%ADD18RoundRect,0.250000X-0.475000X0.250000X-0.475000X-0.250000X0.475000X-0.250000X0.475000X0.250000X0*%
%ADD19RoundRect,0.250000X-0.450000X0.262500X-0.450000X-0.262500X0.450000X-0.262500X0.450000X0.262500X0*%
G04 APERTURE END LIST*
D10*
%TO.C,*%
X4118000Y3335000D03*
%TD*%
D11*
%TO.C,J4*%
X91732000Y4405000D03*
D12*
X83482000Y11965000D03*
D13*
X83482000Y5185000D03*
X99982000Y5185000D03*
D12*
X99982000Y11965000D03*
%TD*%
D11*
%TO.C,J2*%
X43934000Y4406000D03*
D12*
X35684000Y11966000D03*
D13*
X35684000Y5186000D03*
X52184000Y5186000D03*
D12*
X52184000Y11966000D03*
%TD*%
D14*
%TO.C,J7*%
X57888000Y27005000D03*
D15*
X60397999Y28944999D03*
X61197999Y28944999D03*
X61997999Y28944999D03*
X62797999Y28944999D03*
X63597999Y28944999D03*
X64397999Y28944999D03*
X65197999Y28944999D03*
X65997999Y28944999D03*
X66797999Y28944999D03*
X67597999Y28944999D03*
X68397999Y28944999D03*
X69197999Y28944999D03*
X69997999Y28944999D03*
X70797999Y28944999D03*
X71597999Y28944999D03*
X72397999Y28944999D03*
X73197999Y28944999D03*
X73997999Y28944999D03*
X74797999Y28944999D03*
X75597999Y28944999D03*
X76397999Y28944999D03*
X77197999Y28944999D03*
X77997999Y28944999D03*
X78797999Y28944999D03*
X79597999Y28944999D03*
X80397999Y28944999D03*
X81197999Y28944999D03*
X81997999Y28944999D03*
X82797999Y28944999D03*
X83597999Y28944999D03*
X84397999Y28944999D03*
X85197999Y28944999D03*
X85997999Y28944999D03*
X86797999Y28944999D03*
X87597999Y28944999D03*
X88397999Y28944999D03*
X89197999Y28944999D03*
X89997999Y28944999D03*
X90797999Y28944999D03*
X91597999Y28944999D03*
X92397999Y28944999D03*
X93197999Y28944999D03*
X93997999Y28944999D03*
X94797999Y28944999D03*
X95597999Y28944999D03*
X96397999Y28944999D03*
X97197999Y28944999D03*
X97997999Y28944999D03*
X98797999Y28944999D03*
X99597999Y28944999D03*
D16*
X55497999Y28804999D03*
X104497999Y28804999D03*
%TD*%
D11*
%TO.C,J6*%
X139528000Y4405000D03*
D12*
X131278000Y11965000D03*
D13*
X131278000Y5185000D03*
X147778000Y5185000D03*
D12*
X147778000Y11965000D03*
%TD*%
D10*
%TO.C,*%
X4118000Y27335000D03*
%TD*%
D11*
%TO.C,J5*%
X115630000Y4405000D03*
D12*
X107380000Y11965000D03*
D13*
X107380000Y5185000D03*
X123880000Y5185000D03*
D12*
X123880000Y11965000D03*
%TD*%
D11*
%TO.C,J3*%
X67834000Y4405000D03*
D12*
X59584000Y11965000D03*
D13*
X59584000Y5185000D03*
X76084000Y5185000D03*
D12*
X76084000Y11965000D03*
%TD*%
D10*
%TO.C,*%
X156118000Y3335000D03*
%TD*%
D11*
%TO.C,J1*%
X20038000Y4405000D03*
D12*
X11788000Y11965000D03*
D13*
X11788000Y5185000D03*
X28288000Y5185000D03*
D12*
X28288000Y11965000D03*
%TD*%
D10*
%TO.C,*%
X156118000Y27335000D03*
%TD*%
D17*
%TO.C,REF_Bottom*%
X158434000Y29538000D03*
%TD*%
D18*
%TO.C,C12*%
X149278000Y3285000D03*
X149278000Y1385000D03*
%TD*%
D19*
%TO.C,R3*%
X61084000Y3247500D03*
X61084000Y1422500D03*
%TD*%
%TO.C,R6*%
X146278000Y3247500D03*
X146278000Y1422500D03*
%TD*%
%TO.C,R4*%
X98482000Y3247500D03*
X98482000Y1422500D03*
%TD*%
D17*
%TO.C,REF_Bottom*%
X1487000Y1524000D03*
%TD*%
D19*
%TO.C,R2*%
X37184000Y3247500D03*
X37184000Y1422500D03*
%TD*%
%TO.C,R1*%
X13288000Y3247500D03*
X13288000Y1422500D03*
%TD*%
D18*
%TO.C,C8*%
X34125000Y3285000D03*
X34125000Y1385000D03*
%TD*%
%TO.C,C7*%
X10288000Y3285000D03*
X10288000Y1385000D03*
%TD*%
%TO.C,C9*%
X58084000Y3285000D03*
X58084000Y1385000D03*
%TD*%
D19*
%TO.C,R5*%
X122380000Y3247500D03*
X122380000Y1422500D03*
%TD*%
D18*
%TO.C,C11*%
X125380000Y3285000D03*
X125380000Y1385000D03*
%TD*%
%TO.C,C10*%
X101482000Y3285000D03*
X101482000Y1385000D03*
%TD*%
M02*
