%TF.GenerationSoftware,KiCad,Pcbnew,(7.0.0)*%
%TF.CreationDate,2023-07-13T12:17:45+02:00*%
%TF.ProjectId,RD53B_Quad_6DP_to_ERF8_Data_Adapter,52443533-425f-4517-9561-645f3644505f,V1*%
%TF.SameCoordinates,PX1767f18PY451e560*%
%TF.FileFunction,AssemblyDrawing,Top*%
%FSLAX46Y46*%
G04 Gerber Fmt 4.6, Leading zero omitted, Abs format (unit mm)*
G04 Created by KiCad (PCBNEW (7.0.0)) date 2023-07-13 12:17:45*
%MOMM*%
%LPD*%
G01*
G04 APERTURE LIST*
%ADD10C,0.150000*%
%ADD11C,0.100000*%
%ADD12C,0.254000*%
%ADD13C,0.200000*%
%ADD14C,0.100000*%
%TD*%
%TA.AperFunction,Profile*%
%ADD15C,0.010000*%
%TD*%
G04 APERTURE END LIST*
D10*
X160645943Y10918672D02*
X160646542Y11537719D01*
X160646542Y11537719D02*
X161027172Y11204017D01*
X161027172Y11204017D02*
X161027310Y11346875D01*
X161027310Y11346875D02*
X161075021Y11442067D01*
X161075021Y11442067D02*
X161122686Y11489639D01*
X161122686Y11489639D02*
X161217970Y11537166D01*
X161217970Y11537166D02*
X161456065Y11536936D01*
X161456065Y11536936D02*
X161551257Y11489225D01*
X161551257Y11489225D02*
X161598830Y11441560D01*
X161598830Y11441560D02*
X161646357Y11346275D01*
X161646357Y11346275D02*
X161646081Y11060561D01*
X161646081Y11060561D02*
X161598370Y10965369D01*
X161598370Y10965369D02*
X161550704Y10917796D01*
X161647463Y12489132D02*
X161646910Y11917704D01*
X161647187Y12203418D02*
X160647187Y12204386D01*
X160647187Y12204386D02*
X160789952Y12109009D01*
X160789952Y12109009D02*
X160885098Y12013679D01*
X160885098Y12013679D02*
X160932625Y11918395D01*
X161552640Y12917796D02*
X161600305Y12965369D01*
X161600305Y12965369D02*
X161647878Y12917703D01*
X161647878Y12917703D02*
X161600213Y12870130D01*
X161600213Y12870130D02*
X161552640Y12917796D01*
X161552640Y12917796D02*
X161647878Y12917703D01*
X160648524Y13585337D02*
X160648616Y13680575D01*
X160648616Y13680575D02*
X160696327Y13775767D01*
X160696327Y13775767D02*
X160743992Y13823340D01*
X160743992Y13823340D02*
X160839276Y13870867D01*
X160839276Y13870867D02*
X161029798Y13918302D01*
X161029798Y13918302D02*
X161267894Y13918071D01*
X161267894Y13918071D02*
X161458324Y13870268D01*
X161458324Y13870268D02*
X161553516Y13822557D01*
X161553516Y13822557D02*
X161601088Y13774891D01*
X161601088Y13774891D02*
X161648615Y13679607D01*
X161648615Y13679607D02*
X161648523Y13584369D01*
X161648523Y13584369D02*
X161600812Y13489177D01*
X161600812Y13489177D02*
X161553147Y13441604D01*
X161553147Y13441604D02*
X161457863Y13394078D01*
X161457863Y13394078D02*
X161267341Y13346643D01*
X161267341Y13346643D02*
X161029245Y13346873D01*
X161029245Y13346873D02*
X160838815Y13394677D01*
X160838815Y13394677D02*
X160743623Y13442388D01*
X160743623Y13442388D02*
X160696050Y13490053D01*
X160696050Y13490053D02*
X160648524Y13585337D01*
X160649445Y14537718D02*
X160649537Y14632956D01*
X160649537Y14632956D02*
X160697249Y14728148D01*
X160697249Y14728148D02*
X160744914Y14775721D01*
X160744914Y14775721D02*
X160840198Y14823247D01*
X160840198Y14823247D02*
X161030720Y14870682D01*
X161030720Y14870682D02*
X161268815Y14870452D01*
X161268815Y14870452D02*
X161459245Y14822648D01*
X161459245Y14822648D02*
X161554437Y14774937D01*
X161554437Y14774937D02*
X161602010Y14727272D01*
X161602010Y14727272D02*
X161649537Y14631988D01*
X161649537Y14631988D02*
X161649445Y14536750D01*
X161649445Y14536750D02*
X161601734Y14441558D01*
X161601734Y14441558D02*
X161554068Y14393985D01*
X161554068Y14393985D02*
X161458784Y14346458D01*
X161458784Y14346458D02*
X161268262Y14299023D01*
X161268262Y14299023D02*
X161030167Y14299254D01*
X161030167Y14299254D02*
X160839737Y14347057D01*
X160839737Y14347057D02*
X160744545Y14394768D01*
X160744545Y14394768D02*
X160696972Y14442433D01*
X160696972Y14442433D02*
X160649445Y14537718D01*
X160650367Y15490098D02*
X160650459Y15585336D01*
X160650459Y15585336D02*
X160698170Y15680528D01*
X160698170Y15680528D02*
X160745835Y15728101D01*
X160745835Y15728101D02*
X160841120Y15775628D01*
X160841120Y15775628D02*
X161031642Y15823063D01*
X161031642Y15823063D02*
X161269737Y15822832D01*
X161269737Y15822832D02*
X161460167Y15775029D01*
X161460167Y15775029D02*
X161555359Y15727318D01*
X161555359Y15727318D02*
X161602932Y15679653D01*
X161602932Y15679653D02*
X161650459Y15584368D01*
X161650459Y15584368D02*
X161650366Y15489130D01*
X161650366Y15489130D02*
X161602655Y15393938D01*
X161602655Y15393938D02*
X161554990Y15346365D01*
X161554990Y15346365D02*
X161459706Y15298839D01*
X161459706Y15298839D02*
X161269184Y15251404D01*
X161269184Y15251404D02*
X161031089Y15251634D01*
X161031089Y15251634D02*
X160840659Y15299438D01*
X160840659Y15299438D02*
X160745467Y15347149D01*
X160745467Y15347149D02*
X160697894Y15394814D01*
X160697894Y15394814D02*
X160650367Y15490098D01*
X160651289Y16442479D02*
X160651381Y16537717D01*
X160651381Y16537717D02*
X160699092Y16632909D01*
X160699092Y16632909D02*
X160746757Y16680482D01*
X160746757Y16680482D02*
X160842041Y16728009D01*
X160842041Y16728009D02*
X161032563Y16775443D01*
X161032563Y16775443D02*
X161270658Y16775213D01*
X161270658Y16775213D02*
X161461089Y16727409D01*
X161461089Y16727409D02*
X161556280Y16679698D01*
X161556280Y16679698D02*
X161603853Y16632033D01*
X161603853Y16632033D02*
X161651380Y16536749D01*
X161651380Y16536749D02*
X161651288Y16441511D01*
X161651288Y16441511D02*
X161603577Y16346319D01*
X161603577Y16346319D02*
X161555912Y16298746D01*
X161555912Y16298746D02*
X161460628Y16251219D01*
X161460628Y16251219D02*
X161270105Y16203784D01*
X161270105Y16203784D02*
X161032010Y16204015D01*
X161032010Y16204015D02*
X160841580Y16251818D01*
X160841580Y16251818D02*
X160746388Y16299529D01*
X160746388Y16299529D02*
X160698815Y16347195D01*
X160698815Y16347195D02*
X160651289Y16442479D01*
X161652606Y17803415D02*
X160985940Y17804060D01*
X161081178Y17803968D02*
X161033605Y17851633D01*
X161033605Y17851633D02*
X160986078Y17946917D01*
X160986078Y17946917D02*
X160986216Y18089774D01*
X160986216Y18089774D02*
X161033927Y18184966D01*
X161033927Y18184966D02*
X161129212Y18232493D01*
X161129212Y18232493D02*
X161653021Y18231986D01*
X161129212Y18232493D02*
X161034020Y18280204D01*
X161034020Y18280204D02*
X160986493Y18375489D01*
X160986493Y18375489D02*
X160986631Y18518346D01*
X160986631Y18518346D02*
X161034342Y18613538D01*
X161034342Y18613538D02*
X161129626Y18661064D01*
X161129626Y18661064D02*
X161653436Y18660558D01*
X161653896Y19136748D02*
X160987230Y19137393D01*
X161082468Y19137301D02*
X161034895Y19184966D01*
X161034895Y19184966D02*
X160987368Y19280250D01*
X160987368Y19280250D02*
X160987507Y19423107D01*
X160987507Y19423107D02*
X161035218Y19518299D01*
X161035218Y19518299D02*
X161130502Y19565826D01*
X161130502Y19565826D02*
X161654311Y19565319D01*
X161130502Y19565826D02*
X161035310Y19613537D01*
X161035310Y19613537D02*
X160987783Y19708821D01*
X160987783Y19708821D02*
X160987921Y19851678D01*
X160987921Y19851678D02*
X161035632Y19946870D01*
X161035632Y19946870D02*
X161130917Y19994397D01*
X161130917Y19994397D02*
X161654726Y19993890D01*
D11*
X160528000Y31004516D02*
X163034419Y31002090D01*
X160498000Y4516D02*
X163004419Y2090D01*
X162447999Y31002658D02*
X162417999Y2658D01*
X162447999Y31002658D02*
X162417999Y2658D01*
X162447999Y31002658D02*
X163033329Y29875587D01*
X162447999Y31002658D02*
X161860488Y29876722D01*
X162417999Y2658D02*
X161832669Y1129729D01*
X162417999Y2658D02*
X163005510Y1128594D01*
D10*
X164371382Y10796906D02*
X164323763Y10844525D01*
X164323763Y10844525D02*
X164276143Y10939763D01*
X164276143Y10939763D02*
X164276143Y11177858D01*
X164276143Y11177858D02*
X164323763Y11273096D01*
X164323763Y11273096D02*
X164371382Y11320715D01*
X164371382Y11320715D02*
X164466620Y11368334D01*
X164466620Y11368334D02*
X164561858Y11368334D01*
X164561858Y11368334D02*
X164704715Y11320715D01*
X164704715Y11320715D02*
X165276143Y10749287D01*
X165276143Y10749287D02*
X165276143Y11368334D01*
X164609477Y12225477D02*
X165276143Y12225477D01*
X164228524Y11987382D02*
X164942810Y11749287D01*
X164942810Y11749287D02*
X164942810Y12368334D01*
X165180905Y12749287D02*
X165228524Y12796906D01*
X165228524Y12796906D02*
X165276143Y12749287D01*
X165276143Y12749287D02*
X165228524Y12701668D01*
X165228524Y12701668D02*
X165180905Y12749287D01*
X165180905Y12749287D02*
X165276143Y12749287D01*
X164276143Y13415953D02*
X164276143Y13511191D01*
X164276143Y13511191D02*
X164323763Y13606429D01*
X164323763Y13606429D02*
X164371382Y13654048D01*
X164371382Y13654048D02*
X164466620Y13701667D01*
X164466620Y13701667D02*
X164657096Y13749286D01*
X164657096Y13749286D02*
X164895191Y13749286D01*
X164895191Y13749286D02*
X165085667Y13701667D01*
X165085667Y13701667D02*
X165180905Y13654048D01*
X165180905Y13654048D02*
X165228524Y13606429D01*
X165228524Y13606429D02*
X165276143Y13511191D01*
X165276143Y13511191D02*
X165276143Y13415953D01*
X165276143Y13415953D02*
X165228524Y13320715D01*
X165228524Y13320715D02*
X165180905Y13273096D01*
X165180905Y13273096D02*
X165085667Y13225477D01*
X165085667Y13225477D02*
X164895191Y13177858D01*
X164895191Y13177858D02*
X164657096Y13177858D01*
X164657096Y13177858D02*
X164466620Y13225477D01*
X164466620Y13225477D02*
X164371382Y13273096D01*
X164371382Y13273096D02*
X164323763Y13320715D01*
X164323763Y13320715D02*
X164276143Y13415953D01*
X164276143Y14368334D02*
X164276143Y14463572D01*
X164276143Y14463572D02*
X164323763Y14558810D01*
X164323763Y14558810D02*
X164371382Y14606429D01*
X164371382Y14606429D02*
X164466620Y14654048D01*
X164466620Y14654048D02*
X164657096Y14701667D01*
X164657096Y14701667D02*
X164895191Y14701667D01*
X164895191Y14701667D02*
X165085667Y14654048D01*
X165085667Y14654048D02*
X165180905Y14606429D01*
X165180905Y14606429D02*
X165228524Y14558810D01*
X165228524Y14558810D02*
X165276143Y14463572D01*
X165276143Y14463572D02*
X165276143Y14368334D01*
X165276143Y14368334D02*
X165228524Y14273096D01*
X165228524Y14273096D02*
X165180905Y14225477D01*
X165180905Y14225477D02*
X165085667Y14177858D01*
X165085667Y14177858D02*
X164895191Y14130239D01*
X164895191Y14130239D02*
X164657096Y14130239D01*
X164657096Y14130239D02*
X164466620Y14177858D01*
X164466620Y14177858D02*
X164371382Y14225477D01*
X164371382Y14225477D02*
X164323763Y14273096D01*
X164323763Y14273096D02*
X164276143Y14368334D01*
X164276143Y15320715D02*
X164276143Y15415953D01*
X164276143Y15415953D02*
X164323763Y15511191D01*
X164323763Y15511191D02*
X164371382Y15558810D01*
X164371382Y15558810D02*
X164466620Y15606429D01*
X164466620Y15606429D02*
X164657096Y15654048D01*
X164657096Y15654048D02*
X164895191Y15654048D01*
X164895191Y15654048D02*
X165085667Y15606429D01*
X165085667Y15606429D02*
X165180905Y15558810D01*
X165180905Y15558810D02*
X165228524Y15511191D01*
X165228524Y15511191D02*
X165276143Y15415953D01*
X165276143Y15415953D02*
X165276143Y15320715D01*
X165276143Y15320715D02*
X165228524Y15225477D01*
X165228524Y15225477D02*
X165180905Y15177858D01*
X165180905Y15177858D02*
X165085667Y15130239D01*
X165085667Y15130239D02*
X164895191Y15082620D01*
X164895191Y15082620D02*
X164657096Y15082620D01*
X164657096Y15082620D02*
X164466620Y15130239D01*
X164466620Y15130239D02*
X164371382Y15177858D01*
X164371382Y15177858D02*
X164323763Y15225477D01*
X164323763Y15225477D02*
X164276143Y15320715D01*
X164276143Y16273096D02*
X164276143Y16368334D01*
X164276143Y16368334D02*
X164323763Y16463572D01*
X164323763Y16463572D02*
X164371382Y16511191D01*
X164371382Y16511191D02*
X164466620Y16558810D01*
X164466620Y16558810D02*
X164657096Y16606429D01*
X164657096Y16606429D02*
X164895191Y16606429D01*
X164895191Y16606429D02*
X165085667Y16558810D01*
X165085667Y16558810D02*
X165180905Y16511191D01*
X165180905Y16511191D02*
X165228524Y16463572D01*
X165228524Y16463572D02*
X165276143Y16368334D01*
X165276143Y16368334D02*
X165276143Y16273096D01*
X165276143Y16273096D02*
X165228524Y16177858D01*
X165228524Y16177858D02*
X165180905Y16130239D01*
X165180905Y16130239D02*
X165085667Y16082620D01*
X165085667Y16082620D02*
X164895191Y16035001D01*
X164895191Y16035001D02*
X164657096Y16035001D01*
X164657096Y16035001D02*
X164466620Y16082620D01*
X164466620Y16082620D02*
X164371382Y16130239D01*
X164371382Y16130239D02*
X164323763Y16177858D01*
X164323763Y16177858D02*
X164276143Y16273096D01*
X165276143Y17635001D02*
X164609477Y17635001D01*
X164704715Y17635001D02*
X164657096Y17682620D01*
X164657096Y17682620D02*
X164609477Y17777858D01*
X164609477Y17777858D02*
X164609477Y17920715D01*
X164609477Y17920715D02*
X164657096Y18015953D01*
X164657096Y18015953D02*
X164752334Y18063572D01*
X164752334Y18063572D02*
X165276143Y18063572D01*
X164752334Y18063572D02*
X164657096Y18111191D01*
X164657096Y18111191D02*
X164609477Y18206429D01*
X164609477Y18206429D02*
X164609477Y18349286D01*
X164609477Y18349286D02*
X164657096Y18444525D01*
X164657096Y18444525D02*
X164752334Y18492144D01*
X164752334Y18492144D02*
X165276143Y18492144D01*
X165276143Y18968334D02*
X164609477Y18968334D01*
X164704715Y18968334D02*
X164657096Y19015953D01*
X164657096Y19015953D02*
X164609477Y19111191D01*
X164609477Y19111191D02*
X164609477Y19254048D01*
X164609477Y19254048D02*
X164657096Y19349286D01*
X164657096Y19349286D02*
X164752334Y19396905D01*
X164752334Y19396905D02*
X165276143Y19396905D01*
X164752334Y19396905D02*
X164657096Y19444524D01*
X164657096Y19444524D02*
X164609477Y19539762D01*
X164609477Y19539762D02*
X164609477Y19682619D01*
X164609477Y19682619D02*
X164657096Y19777858D01*
X164657096Y19777858D02*
X164752334Y19825477D01*
X164752334Y19825477D02*
X165276143Y19825477D01*
D11*
X156618000Y27335000D02*
X166645183Y27335000D01*
X156618000Y3335000D02*
X166645183Y3335000D01*
X166058763Y27335000D02*
X166058763Y3335000D01*
X166058763Y27335000D02*
X166058763Y3335000D01*
X166058763Y27335000D02*
X166645184Y26208496D01*
X166058763Y27335000D02*
X165472342Y26208496D01*
X166058763Y3335000D02*
X165472342Y4461504D01*
X166058763Y3335000D02*
X166645184Y4461504D01*
D10*
X75555143Y-3282380D02*
X74983715Y-3282380D01*
X75269429Y-3282380D02*
X75269429Y-2282380D01*
X75269429Y-2282380D02*
X75174191Y-2425238D01*
X75174191Y-2425238D02*
X75078953Y-2520476D01*
X75078953Y-2520476D02*
X74983715Y-2568095D01*
X76412286Y-2282380D02*
X76221810Y-2282380D01*
X76221810Y-2282380D02*
X76126572Y-2330000D01*
X76126572Y-2330000D02*
X76078953Y-2377619D01*
X76078953Y-2377619D02*
X75983715Y-2520476D01*
X75983715Y-2520476D02*
X75936096Y-2710952D01*
X75936096Y-2710952D02*
X75936096Y-3091904D01*
X75936096Y-3091904D02*
X75983715Y-3187142D01*
X75983715Y-3187142D02*
X76031334Y-3234761D01*
X76031334Y-3234761D02*
X76126572Y-3282380D01*
X76126572Y-3282380D02*
X76317048Y-3282380D01*
X76317048Y-3282380D02*
X76412286Y-3234761D01*
X76412286Y-3234761D02*
X76459905Y-3187142D01*
X76459905Y-3187142D02*
X76507524Y-3091904D01*
X76507524Y-3091904D02*
X76507524Y-2853809D01*
X76507524Y-2853809D02*
X76459905Y-2758571D01*
X76459905Y-2758571D02*
X76412286Y-2710952D01*
X76412286Y-2710952D02*
X76317048Y-2663333D01*
X76317048Y-2663333D02*
X76126572Y-2663333D01*
X76126572Y-2663333D02*
X76031334Y-2710952D01*
X76031334Y-2710952D02*
X75983715Y-2758571D01*
X75983715Y-2758571D02*
X75936096Y-2853809D01*
X77126572Y-2282380D02*
X77221810Y-2282380D01*
X77221810Y-2282380D02*
X77317048Y-2330000D01*
X77317048Y-2330000D02*
X77364667Y-2377619D01*
X77364667Y-2377619D02*
X77412286Y-2472857D01*
X77412286Y-2472857D02*
X77459905Y-2663333D01*
X77459905Y-2663333D02*
X77459905Y-2901428D01*
X77459905Y-2901428D02*
X77412286Y-3091904D01*
X77412286Y-3091904D02*
X77364667Y-3187142D01*
X77364667Y-3187142D02*
X77317048Y-3234761D01*
X77317048Y-3234761D02*
X77221810Y-3282380D01*
X77221810Y-3282380D02*
X77126572Y-3282380D01*
X77126572Y-3282380D02*
X77031334Y-3234761D01*
X77031334Y-3234761D02*
X76983715Y-3187142D01*
X76983715Y-3187142D02*
X76936096Y-3091904D01*
X76936096Y-3091904D02*
X76888477Y-2901428D01*
X76888477Y-2901428D02*
X76888477Y-2663333D01*
X76888477Y-2663333D02*
X76936096Y-2472857D01*
X76936096Y-2472857D02*
X76983715Y-2377619D01*
X76983715Y-2377619D02*
X77031334Y-2330000D01*
X77031334Y-2330000D02*
X77126572Y-2282380D01*
X77888477Y-3187142D02*
X77936096Y-3234761D01*
X77936096Y-3234761D02*
X77888477Y-3282380D01*
X77888477Y-3282380D02*
X77840858Y-3234761D01*
X77840858Y-3234761D02*
X77888477Y-3187142D01*
X77888477Y-3187142D02*
X77888477Y-3282380D01*
X78555143Y-2282380D02*
X78650381Y-2282380D01*
X78650381Y-2282380D02*
X78745619Y-2330000D01*
X78745619Y-2330000D02*
X78793238Y-2377619D01*
X78793238Y-2377619D02*
X78840857Y-2472857D01*
X78840857Y-2472857D02*
X78888476Y-2663333D01*
X78888476Y-2663333D02*
X78888476Y-2901428D01*
X78888476Y-2901428D02*
X78840857Y-3091904D01*
X78840857Y-3091904D02*
X78793238Y-3187142D01*
X78793238Y-3187142D02*
X78745619Y-3234761D01*
X78745619Y-3234761D02*
X78650381Y-3282380D01*
X78650381Y-3282380D02*
X78555143Y-3282380D01*
X78555143Y-3282380D02*
X78459905Y-3234761D01*
X78459905Y-3234761D02*
X78412286Y-3187142D01*
X78412286Y-3187142D02*
X78364667Y-3091904D01*
X78364667Y-3091904D02*
X78317048Y-2901428D01*
X78317048Y-2901428D02*
X78317048Y-2663333D01*
X78317048Y-2663333D02*
X78364667Y-2472857D01*
X78364667Y-2472857D02*
X78412286Y-2377619D01*
X78412286Y-2377619D02*
X78459905Y-2330000D01*
X78459905Y-2330000D02*
X78555143Y-2282380D01*
X79507524Y-2282380D02*
X79602762Y-2282380D01*
X79602762Y-2282380D02*
X79698000Y-2330000D01*
X79698000Y-2330000D02*
X79745619Y-2377619D01*
X79745619Y-2377619D02*
X79793238Y-2472857D01*
X79793238Y-2472857D02*
X79840857Y-2663333D01*
X79840857Y-2663333D02*
X79840857Y-2901428D01*
X79840857Y-2901428D02*
X79793238Y-3091904D01*
X79793238Y-3091904D02*
X79745619Y-3187142D01*
X79745619Y-3187142D02*
X79698000Y-3234761D01*
X79698000Y-3234761D02*
X79602762Y-3282380D01*
X79602762Y-3282380D02*
X79507524Y-3282380D01*
X79507524Y-3282380D02*
X79412286Y-3234761D01*
X79412286Y-3234761D02*
X79364667Y-3187142D01*
X79364667Y-3187142D02*
X79317048Y-3091904D01*
X79317048Y-3091904D02*
X79269429Y-2901428D01*
X79269429Y-2901428D02*
X79269429Y-2663333D01*
X79269429Y-2663333D02*
X79317048Y-2472857D01*
X79317048Y-2472857D02*
X79364667Y-2377619D01*
X79364667Y-2377619D02*
X79412286Y-2330000D01*
X79412286Y-2330000D02*
X79507524Y-2282380D01*
X80459905Y-2282380D02*
X80555143Y-2282380D01*
X80555143Y-2282380D02*
X80650381Y-2330000D01*
X80650381Y-2330000D02*
X80698000Y-2377619D01*
X80698000Y-2377619D02*
X80745619Y-2472857D01*
X80745619Y-2472857D02*
X80793238Y-2663333D01*
X80793238Y-2663333D02*
X80793238Y-2901428D01*
X80793238Y-2901428D02*
X80745619Y-3091904D01*
X80745619Y-3091904D02*
X80698000Y-3187142D01*
X80698000Y-3187142D02*
X80650381Y-3234761D01*
X80650381Y-3234761D02*
X80555143Y-3282380D01*
X80555143Y-3282380D02*
X80459905Y-3282380D01*
X80459905Y-3282380D02*
X80364667Y-3234761D01*
X80364667Y-3234761D02*
X80317048Y-3187142D01*
X80317048Y-3187142D02*
X80269429Y-3091904D01*
X80269429Y-3091904D02*
X80221810Y-2901428D01*
X80221810Y-2901428D02*
X80221810Y-2663333D01*
X80221810Y-2663333D02*
X80269429Y-2472857D01*
X80269429Y-2472857D02*
X80317048Y-2377619D01*
X80317048Y-2377619D02*
X80364667Y-2330000D01*
X80364667Y-2330000D02*
X80459905Y-2282380D01*
X81412286Y-2282380D02*
X81507524Y-2282380D01*
X81507524Y-2282380D02*
X81602762Y-2330000D01*
X81602762Y-2330000D02*
X81650381Y-2377619D01*
X81650381Y-2377619D02*
X81698000Y-2472857D01*
X81698000Y-2472857D02*
X81745619Y-2663333D01*
X81745619Y-2663333D02*
X81745619Y-2901428D01*
X81745619Y-2901428D02*
X81698000Y-3091904D01*
X81698000Y-3091904D02*
X81650381Y-3187142D01*
X81650381Y-3187142D02*
X81602762Y-3234761D01*
X81602762Y-3234761D02*
X81507524Y-3282380D01*
X81507524Y-3282380D02*
X81412286Y-3282380D01*
X81412286Y-3282380D02*
X81317048Y-3234761D01*
X81317048Y-3234761D02*
X81269429Y-3187142D01*
X81269429Y-3187142D02*
X81221810Y-3091904D01*
X81221810Y-3091904D02*
X81174191Y-2901428D01*
X81174191Y-2901428D02*
X81174191Y-2663333D01*
X81174191Y-2663333D02*
X81221810Y-2472857D01*
X81221810Y-2472857D02*
X81269429Y-2377619D01*
X81269429Y-2377619D02*
X81317048Y-2330000D01*
X81317048Y-2330000D02*
X81412286Y-2282380D01*
X82774191Y-3282380D02*
X82774191Y-2615714D01*
X82774191Y-2710952D02*
X82821810Y-2663333D01*
X82821810Y-2663333D02*
X82917048Y-2615714D01*
X82917048Y-2615714D02*
X83059905Y-2615714D01*
X83059905Y-2615714D02*
X83155143Y-2663333D01*
X83155143Y-2663333D02*
X83202762Y-2758571D01*
X83202762Y-2758571D02*
X83202762Y-3282380D01*
X83202762Y-2758571D02*
X83250381Y-2663333D01*
X83250381Y-2663333D02*
X83345619Y-2615714D01*
X83345619Y-2615714D02*
X83488476Y-2615714D01*
X83488476Y-2615714D02*
X83583715Y-2663333D01*
X83583715Y-2663333D02*
X83631334Y-2758571D01*
X83631334Y-2758571D02*
X83631334Y-3282380D01*
X84107524Y-3282380D02*
X84107524Y-2615714D01*
X84107524Y-2710952D02*
X84155143Y-2663333D01*
X84155143Y-2663333D02*
X84250381Y-2615714D01*
X84250381Y-2615714D02*
X84393238Y-2615714D01*
X84393238Y-2615714D02*
X84488476Y-2663333D01*
X84488476Y-2663333D02*
X84536095Y-2758571D01*
X84536095Y-2758571D02*
X84536095Y-3282380D01*
X84536095Y-2758571D02*
X84583714Y-2663333D01*
X84583714Y-2663333D02*
X84678952Y-2615714D01*
X84678952Y-2615714D02*
X84821809Y-2615714D01*
X84821809Y-2615714D02*
X84917048Y-2663333D01*
X84917048Y-2663333D02*
X84964667Y-2758571D01*
X84964667Y-2758571D02*
X84964667Y-3282380D01*
D11*
X-2000Y-495000D02*
X-2000Y-4651420D01*
X159998000Y-495000D02*
X159998000Y-4651420D01*
X-2000Y-4065000D02*
X159998000Y-4065000D01*
X-2000Y-4065000D02*
X159998000Y-4065000D01*
X-2000Y-4065000D02*
X1124504Y-3478579D01*
X-2000Y-4065000D02*
X1124504Y-4651421D01*
X159998000Y-4065000D02*
X158871496Y-4651421D01*
X159998000Y-4065000D02*
X158871496Y-3478579D01*
D10*
X75672643Y-6933380D02*
X75101215Y-6933380D01*
X75386929Y-6933380D02*
X75386929Y-5933380D01*
X75386929Y-5933380D02*
X75291691Y-6076238D01*
X75291691Y-6076238D02*
X75196453Y-6171476D01*
X75196453Y-6171476D02*
X75101215Y-6219095D01*
X76577405Y-5933380D02*
X76101215Y-5933380D01*
X76101215Y-5933380D02*
X76053596Y-6409571D01*
X76053596Y-6409571D02*
X76101215Y-6361952D01*
X76101215Y-6361952D02*
X76196453Y-6314333D01*
X76196453Y-6314333D02*
X76434548Y-6314333D01*
X76434548Y-6314333D02*
X76529786Y-6361952D01*
X76529786Y-6361952D02*
X76577405Y-6409571D01*
X76577405Y-6409571D02*
X76625024Y-6504809D01*
X76625024Y-6504809D02*
X76625024Y-6742904D01*
X76625024Y-6742904D02*
X76577405Y-6838142D01*
X76577405Y-6838142D02*
X76529786Y-6885761D01*
X76529786Y-6885761D02*
X76434548Y-6933380D01*
X76434548Y-6933380D02*
X76196453Y-6933380D01*
X76196453Y-6933380D02*
X76101215Y-6885761D01*
X76101215Y-6885761D02*
X76053596Y-6838142D01*
X77005977Y-6028619D02*
X77053596Y-5981000D01*
X77053596Y-5981000D02*
X77148834Y-5933380D01*
X77148834Y-5933380D02*
X77386929Y-5933380D01*
X77386929Y-5933380D02*
X77482167Y-5981000D01*
X77482167Y-5981000D02*
X77529786Y-6028619D01*
X77529786Y-6028619D02*
X77577405Y-6123857D01*
X77577405Y-6123857D02*
X77577405Y-6219095D01*
X77577405Y-6219095D02*
X77529786Y-6361952D01*
X77529786Y-6361952D02*
X76958358Y-6933380D01*
X76958358Y-6933380D02*
X77577405Y-6933380D01*
X78005977Y-6838142D02*
X78053596Y-6885761D01*
X78053596Y-6885761D02*
X78005977Y-6933380D01*
X78005977Y-6933380D02*
X77958358Y-6885761D01*
X77958358Y-6885761D02*
X78005977Y-6838142D01*
X78005977Y-6838142D02*
X78005977Y-6933380D01*
X78672643Y-5933380D02*
X78767881Y-5933380D01*
X78767881Y-5933380D02*
X78863119Y-5981000D01*
X78863119Y-5981000D02*
X78910738Y-6028619D01*
X78910738Y-6028619D02*
X78958357Y-6123857D01*
X78958357Y-6123857D02*
X79005976Y-6314333D01*
X79005976Y-6314333D02*
X79005976Y-6552428D01*
X79005976Y-6552428D02*
X78958357Y-6742904D01*
X78958357Y-6742904D02*
X78910738Y-6838142D01*
X78910738Y-6838142D02*
X78863119Y-6885761D01*
X78863119Y-6885761D02*
X78767881Y-6933380D01*
X78767881Y-6933380D02*
X78672643Y-6933380D01*
X78672643Y-6933380D02*
X78577405Y-6885761D01*
X78577405Y-6885761D02*
X78529786Y-6838142D01*
X78529786Y-6838142D02*
X78482167Y-6742904D01*
X78482167Y-6742904D02*
X78434548Y-6552428D01*
X78434548Y-6552428D02*
X78434548Y-6314333D01*
X78434548Y-6314333D02*
X78482167Y-6123857D01*
X78482167Y-6123857D02*
X78529786Y-6028619D01*
X78529786Y-6028619D02*
X78577405Y-5981000D01*
X78577405Y-5981000D02*
X78672643Y-5933380D01*
X79625024Y-5933380D02*
X79720262Y-5933380D01*
X79720262Y-5933380D02*
X79815500Y-5981000D01*
X79815500Y-5981000D02*
X79863119Y-6028619D01*
X79863119Y-6028619D02*
X79910738Y-6123857D01*
X79910738Y-6123857D02*
X79958357Y-6314333D01*
X79958357Y-6314333D02*
X79958357Y-6552428D01*
X79958357Y-6552428D02*
X79910738Y-6742904D01*
X79910738Y-6742904D02*
X79863119Y-6838142D01*
X79863119Y-6838142D02*
X79815500Y-6885761D01*
X79815500Y-6885761D02*
X79720262Y-6933380D01*
X79720262Y-6933380D02*
X79625024Y-6933380D01*
X79625024Y-6933380D02*
X79529786Y-6885761D01*
X79529786Y-6885761D02*
X79482167Y-6838142D01*
X79482167Y-6838142D02*
X79434548Y-6742904D01*
X79434548Y-6742904D02*
X79386929Y-6552428D01*
X79386929Y-6552428D02*
X79386929Y-6314333D01*
X79386929Y-6314333D02*
X79434548Y-6123857D01*
X79434548Y-6123857D02*
X79482167Y-6028619D01*
X79482167Y-6028619D02*
X79529786Y-5981000D01*
X79529786Y-5981000D02*
X79625024Y-5933380D01*
X80863119Y-5933380D02*
X80386929Y-5933380D01*
X80386929Y-5933380D02*
X80339310Y-6409571D01*
X80339310Y-6409571D02*
X80386929Y-6361952D01*
X80386929Y-6361952D02*
X80482167Y-6314333D01*
X80482167Y-6314333D02*
X80720262Y-6314333D01*
X80720262Y-6314333D02*
X80815500Y-6361952D01*
X80815500Y-6361952D02*
X80863119Y-6409571D01*
X80863119Y-6409571D02*
X80910738Y-6504809D01*
X80910738Y-6504809D02*
X80910738Y-6742904D01*
X80910738Y-6742904D02*
X80863119Y-6838142D01*
X80863119Y-6838142D02*
X80815500Y-6885761D01*
X80815500Y-6885761D02*
X80720262Y-6933380D01*
X80720262Y-6933380D02*
X80482167Y-6933380D01*
X80482167Y-6933380D02*
X80386929Y-6885761D01*
X80386929Y-6885761D02*
X80339310Y-6838142D01*
X81529786Y-5933380D02*
X81625024Y-5933380D01*
X81625024Y-5933380D02*
X81720262Y-5981000D01*
X81720262Y-5981000D02*
X81767881Y-6028619D01*
X81767881Y-6028619D02*
X81815500Y-6123857D01*
X81815500Y-6123857D02*
X81863119Y-6314333D01*
X81863119Y-6314333D02*
X81863119Y-6552428D01*
X81863119Y-6552428D02*
X81815500Y-6742904D01*
X81815500Y-6742904D02*
X81767881Y-6838142D01*
X81767881Y-6838142D02*
X81720262Y-6885761D01*
X81720262Y-6885761D02*
X81625024Y-6933380D01*
X81625024Y-6933380D02*
X81529786Y-6933380D01*
X81529786Y-6933380D02*
X81434548Y-6885761D01*
X81434548Y-6885761D02*
X81386929Y-6838142D01*
X81386929Y-6838142D02*
X81339310Y-6742904D01*
X81339310Y-6742904D02*
X81291691Y-6552428D01*
X81291691Y-6552428D02*
X81291691Y-6314333D01*
X81291691Y-6314333D02*
X81339310Y-6123857D01*
X81339310Y-6123857D02*
X81386929Y-6028619D01*
X81386929Y-6028619D02*
X81434548Y-5981000D01*
X81434548Y-5981000D02*
X81529786Y-5933380D01*
X82891691Y-6933380D02*
X82891691Y-6266714D01*
X82891691Y-6361952D02*
X82939310Y-6314333D01*
X82939310Y-6314333D02*
X83034548Y-6266714D01*
X83034548Y-6266714D02*
X83177405Y-6266714D01*
X83177405Y-6266714D02*
X83272643Y-6314333D01*
X83272643Y-6314333D02*
X83320262Y-6409571D01*
X83320262Y-6409571D02*
X83320262Y-6933380D01*
X83320262Y-6409571D02*
X83367881Y-6314333D01*
X83367881Y-6314333D02*
X83463119Y-6266714D01*
X83463119Y-6266714D02*
X83605976Y-6266714D01*
X83605976Y-6266714D02*
X83701215Y-6314333D01*
X83701215Y-6314333D02*
X83748834Y-6409571D01*
X83748834Y-6409571D02*
X83748834Y-6933380D01*
X84225024Y-6933380D02*
X84225024Y-6266714D01*
X84225024Y-6361952D02*
X84272643Y-6314333D01*
X84272643Y-6314333D02*
X84367881Y-6266714D01*
X84367881Y-6266714D02*
X84510738Y-6266714D01*
X84510738Y-6266714D02*
X84605976Y-6314333D01*
X84605976Y-6314333D02*
X84653595Y-6409571D01*
X84653595Y-6409571D02*
X84653595Y-6933380D01*
X84653595Y-6409571D02*
X84701214Y-6314333D01*
X84701214Y-6314333D02*
X84796452Y-6266714D01*
X84796452Y-6266714D02*
X84939309Y-6266714D01*
X84939309Y-6266714D02*
X85034548Y-6314333D01*
X85034548Y-6314333D02*
X85082167Y-6409571D01*
X85082167Y-6409571D02*
X85082167Y-6933380D01*
D11*
X4113000Y2835000D02*
X4113000Y-8302420D01*
X156118000Y2835000D02*
X156118000Y-8302420D01*
X4113000Y-7716000D02*
X156118000Y-7716000D01*
X4113000Y-7716000D02*
X156118000Y-7716000D01*
X4113000Y-7716000D02*
X5239504Y-7129579D01*
X4113000Y-7716000D02*
X5239504Y-8302421D01*
X156118000Y-7716000D02*
X154991496Y-8302421D01*
X156118000Y-7716000D02*
X154991496Y-7129579D01*
D12*
%TO.C,J4*%
X91308667Y9008427D02*
X91308667Y8101284D01*
X91308667Y8101284D02*
X91248190Y7919855D01*
X91248190Y7919855D02*
X91127238Y7798903D01*
X91127238Y7798903D02*
X90945809Y7738427D01*
X90945809Y7738427D02*
X90824857Y7738427D01*
X92457714Y8585093D02*
X92457714Y7738427D01*
X92155333Y9068903D02*
X91852952Y8161760D01*
X91852952Y8161760D02*
X92639143Y8161760D01*
%TO.C,J2*%
X43510667Y9009427D02*
X43510667Y8102284D01*
X43510667Y8102284D02*
X43450190Y7920855D01*
X43450190Y7920855D02*
X43329238Y7799903D01*
X43329238Y7799903D02*
X43147809Y7739427D01*
X43147809Y7739427D02*
X43026857Y7739427D01*
X44054952Y8888474D02*
X44115428Y8948950D01*
X44115428Y8948950D02*
X44236381Y9009427D01*
X44236381Y9009427D02*
X44538762Y9009427D01*
X44538762Y9009427D02*
X44659714Y8948950D01*
X44659714Y8948950D02*
X44720190Y8888474D01*
X44720190Y8888474D02*
X44780667Y8767522D01*
X44780667Y8767522D02*
X44780667Y8646570D01*
X44780667Y8646570D02*
X44720190Y8465141D01*
X44720190Y8465141D02*
X43994476Y7739427D01*
X43994476Y7739427D02*
X44780667Y7739427D01*
D10*
%TO.C,J7*%
X68611572Y33031429D02*
X68944905Y33031429D01*
X69087762Y32507620D02*
X68611572Y32507620D01*
X68611572Y32507620D02*
X68611572Y33507620D01*
X68611572Y33507620D02*
X69087762Y33507620D01*
X70087762Y32507620D02*
X69754429Y32983810D01*
X69516334Y32507620D02*
X69516334Y33507620D01*
X69516334Y33507620D02*
X69897286Y33507620D01*
X69897286Y33507620D02*
X69992524Y33460000D01*
X69992524Y33460000D02*
X70040143Y33412381D01*
X70040143Y33412381D02*
X70087762Y33317143D01*
X70087762Y33317143D02*
X70087762Y33174286D01*
X70087762Y33174286D02*
X70040143Y33079048D01*
X70040143Y33079048D02*
X69992524Y33031429D01*
X69992524Y33031429D02*
X69897286Y32983810D01*
X69897286Y32983810D02*
X69516334Y32983810D01*
X70849667Y33031429D02*
X70516334Y33031429D01*
X70516334Y32507620D02*
X70516334Y33507620D01*
X70516334Y33507620D02*
X70992524Y33507620D01*
X71516334Y33079048D02*
X71421096Y33126667D01*
X71421096Y33126667D02*
X71373477Y33174286D01*
X71373477Y33174286D02*
X71325858Y33269524D01*
X71325858Y33269524D02*
X71325858Y33317143D01*
X71325858Y33317143D02*
X71373477Y33412381D01*
X71373477Y33412381D02*
X71421096Y33460000D01*
X71421096Y33460000D02*
X71516334Y33507620D01*
X71516334Y33507620D02*
X71706810Y33507620D01*
X71706810Y33507620D02*
X71802048Y33460000D01*
X71802048Y33460000D02*
X71849667Y33412381D01*
X71849667Y33412381D02*
X71897286Y33317143D01*
X71897286Y33317143D02*
X71897286Y33269524D01*
X71897286Y33269524D02*
X71849667Y33174286D01*
X71849667Y33174286D02*
X71802048Y33126667D01*
X71802048Y33126667D02*
X71706810Y33079048D01*
X71706810Y33079048D02*
X71516334Y33079048D01*
X71516334Y33079048D02*
X71421096Y33031429D01*
X71421096Y33031429D02*
X71373477Y32983810D01*
X71373477Y32983810D02*
X71325858Y32888572D01*
X71325858Y32888572D02*
X71325858Y32698096D01*
X71325858Y32698096D02*
X71373477Y32602858D01*
X71373477Y32602858D02*
X71421096Y32555239D01*
X71421096Y32555239D02*
X71516334Y32507620D01*
X71516334Y32507620D02*
X71706810Y32507620D01*
X71706810Y32507620D02*
X71802048Y32555239D01*
X71802048Y32555239D02*
X71849667Y32602858D01*
X71849667Y32602858D02*
X71897286Y32698096D01*
X71897286Y32698096D02*
X71897286Y32888572D01*
X71897286Y32888572D02*
X71849667Y32983810D01*
X71849667Y32983810D02*
X71802048Y33031429D01*
X71802048Y33031429D02*
X71706810Y33079048D01*
X72325858Y32888572D02*
X73087763Y32888572D01*
X73754429Y33507620D02*
X73849667Y33507620D01*
X73849667Y33507620D02*
X73944905Y33460000D01*
X73944905Y33460000D02*
X73992524Y33412381D01*
X73992524Y33412381D02*
X74040143Y33317143D01*
X74040143Y33317143D02*
X74087762Y33126667D01*
X74087762Y33126667D02*
X74087762Y32888572D01*
X74087762Y32888572D02*
X74040143Y32698096D01*
X74040143Y32698096D02*
X73992524Y32602858D01*
X73992524Y32602858D02*
X73944905Y32555239D01*
X73944905Y32555239D02*
X73849667Y32507620D01*
X73849667Y32507620D02*
X73754429Y32507620D01*
X73754429Y32507620D02*
X73659191Y32555239D01*
X73659191Y32555239D02*
X73611572Y32602858D01*
X73611572Y32602858D02*
X73563953Y32698096D01*
X73563953Y32698096D02*
X73516334Y32888572D01*
X73516334Y32888572D02*
X73516334Y33126667D01*
X73516334Y33126667D02*
X73563953Y33317143D01*
X73563953Y33317143D02*
X73611572Y33412381D01*
X73611572Y33412381D02*
X73659191Y33460000D01*
X73659191Y33460000D02*
X73754429Y33507620D01*
X74992524Y33507620D02*
X74516334Y33507620D01*
X74516334Y33507620D02*
X74468715Y33031429D01*
X74468715Y33031429D02*
X74516334Y33079048D01*
X74516334Y33079048D02*
X74611572Y33126667D01*
X74611572Y33126667D02*
X74849667Y33126667D01*
X74849667Y33126667D02*
X74944905Y33079048D01*
X74944905Y33079048D02*
X74992524Y33031429D01*
X74992524Y33031429D02*
X75040143Y32936191D01*
X75040143Y32936191D02*
X75040143Y32698096D01*
X75040143Y32698096D02*
X74992524Y32602858D01*
X74992524Y32602858D02*
X74944905Y32555239D01*
X74944905Y32555239D02*
X74849667Y32507620D01*
X74849667Y32507620D02*
X74611572Y32507620D01*
X74611572Y32507620D02*
X74516334Y32555239D01*
X74516334Y32555239D02*
X74468715Y32602858D01*
X75659191Y33507620D02*
X75754429Y33507620D01*
X75754429Y33507620D02*
X75849667Y33460000D01*
X75849667Y33460000D02*
X75897286Y33412381D01*
X75897286Y33412381D02*
X75944905Y33317143D01*
X75944905Y33317143D02*
X75992524Y33126667D01*
X75992524Y33126667D02*
X75992524Y32888572D01*
X75992524Y32888572D02*
X75944905Y32698096D01*
X75944905Y32698096D02*
X75897286Y32602858D01*
X75897286Y32602858D02*
X75849667Y32555239D01*
X75849667Y32555239D02*
X75754429Y32507620D01*
X75754429Y32507620D02*
X75659191Y32507620D01*
X75659191Y32507620D02*
X75563953Y32555239D01*
X75563953Y32555239D02*
X75516334Y32602858D01*
X75516334Y32602858D02*
X75468715Y32698096D01*
X75468715Y32698096D02*
X75421096Y32888572D01*
X75421096Y32888572D02*
X75421096Y33126667D01*
X75421096Y33126667D02*
X75468715Y33317143D01*
X75468715Y33317143D02*
X75516334Y33412381D01*
X75516334Y33412381D02*
X75563953Y33460000D01*
X75563953Y33460000D02*
X75659191Y33507620D01*
X76421096Y32888572D02*
X77183001Y32888572D01*
X77849667Y33507620D02*
X77944905Y33507620D01*
X77944905Y33507620D02*
X78040143Y33460000D01*
X78040143Y33460000D02*
X78087762Y33412381D01*
X78087762Y33412381D02*
X78135381Y33317143D01*
X78135381Y33317143D02*
X78183000Y33126667D01*
X78183000Y33126667D02*
X78183000Y32888572D01*
X78183000Y32888572D02*
X78135381Y32698096D01*
X78135381Y32698096D02*
X78087762Y32602858D01*
X78087762Y32602858D02*
X78040143Y32555239D01*
X78040143Y32555239D02*
X77944905Y32507620D01*
X77944905Y32507620D02*
X77849667Y32507620D01*
X77849667Y32507620D02*
X77754429Y32555239D01*
X77754429Y32555239D02*
X77706810Y32602858D01*
X77706810Y32602858D02*
X77659191Y32698096D01*
X77659191Y32698096D02*
X77611572Y32888572D01*
X77611572Y32888572D02*
X77611572Y33126667D01*
X77611572Y33126667D02*
X77659191Y33317143D01*
X77659191Y33317143D02*
X77706810Y33412381D01*
X77706810Y33412381D02*
X77754429Y33460000D01*
X77754429Y33460000D02*
X77849667Y33507620D01*
X79135381Y32507620D02*
X78563953Y32507620D01*
X78849667Y32507620D02*
X78849667Y33507620D01*
X78849667Y33507620D02*
X78754429Y33364762D01*
X78754429Y33364762D02*
X78659191Y33269524D01*
X78659191Y33269524D02*
X78563953Y33221905D01*
X79563953Y32888572D02*
X80325858Y32888572D01*
X80706810Y33507620D02*
X81373476Y32507620D01*
X81373476Y33507620D02*
X80706810Y32507620D01*
X81754429Y32888572D02*
X82516334Y32888572D01*
X82992524Y32507620D02*
X82992524Y33507620D01*
X82992524Y33507620D02*
X83230619Y33507620D01*
X83230619Y33507620D02*
X83373476Y33460000D01*
X83373476Y33460000D02*
X83468714Y33364762D01*
X83468714Y33364762D02*
X83516333Y33269524D01*
X83516333Y33269524D02*
X83563952Y33079048D01*
X83563952Y33079048D02*
X83563952Y32936191D01*
X83563952Y32936191D02*
X83516333Y32745715D01*
X83516333Y32745715D02*
X83468714Y32650477D01*
X83468714Y32650477D02*
X83373476Y32555239D01*
X83373476Y32555239D02*
X83230619Y32507620D01*
X83230619Y32507620D02*
X82992524Y32507620D01*
X83992524Y32888572D02*
X84754429Y32888572D01*
X85230619Y33031429D02*
X85563952Y33031429D01*
X85706809Y32507620D02*
X85230619Y32507620D01*
X85230619Y32507620D02*
X85230619Y33507620D01*
X85230619Y33507620D02*
X85706809Y33507620D01*
X86135381Y32507620D02*
X86135381Y33507620D01*
X86135381Y33507620D02*
X86468714Y32793334D01*
X86468714Y32793334D02*
X86802047Y33507620D01*
X86802047Y33507620D02*
X86802047Y32507620D01*
X87230619Y33412381D02*
X87278238Y33460000D01*
X87278238Y33460000D02*
X87373476Y33507620D01*
X87373476Y33507620D02*
X87611571Y33507620D01*
X87611571Y33507620D02*
X87706809Y33460000D01*
X87706809Y33460000D02*
X87754428Y33412381D01*
X87754428Y33412381D02*
X87802047Y33317143D01*
X87802047Y33317143D02*
X87802047Y33221905D01*
X87802047Y33221905D02*
X87754428Y33079048D01*
X87754428Y33079048D02*
X87183000Y32507620D01*
X87183000Y32507620D02*
X87802047Y32507620D01*
X88230619Y32888572D02*
X88992524Y32888572D01*
X89325857Y33507620D02*
X89897285Y33507620D01*
X89611571Y32507620D02*
X89611571Y33507620D01*
X90802047Y32507620D02*
X90468714Y32983810D01*
X90230619Y32507620D02*
X90230619Y33507620D01*
X90230619Y33507620D02*
X90611571Y33507620D01*
X90611571Y33507620D02*
X90706809Y33460000D01*
X90706809Y33460000D02*
X90754428Y33412381D01*
X90754428Y33412381D02*
X90802047Y33317143D01*
X90802047Y33317143D02*
X90802047Y33174286D01*
X90802047Y33174286D02*
X90754428Y33079048D01*
X90754428Y33079048D02*
X90706809Y33031429D01*
X90706809Y33031429D02*
X90611571Y32983810D01*
X90611571Y32983810D02*
X90230619Y32983810D01*
D12*
%TO.C,J6*%
X139104667Y9008427D02*
X139104667Y8101284D01*
X139104667Y8101284D02*
X139044190Y7919855D01*
X139044190Y7919855D02*
X138923238Y7798903D01*
X138923238Y7798903D02*
X138741809Y7738427D01*
X138741809Y7738427D02*
X138620857Y7738427D01*
X140253714Y9008427D02*
X140011809Y9008427D01*
X140011809Y9008427D02*
X139890857Y8947950D01*
X139890857Y8947950D02*
X139830381Y8887474D01*
X139830381Y8887474D02*
X139709428Y8706046D01*
X139709428Y8706046D02*
X139648952Y8464141D01*
X139648952Y8464141D02*
X139648952Y7980331D01*
X139648952Y7980331D02*
X139709428Y7859379D01*
X139709428Y7859379D02*
X139769905Y7798903D01*
X139769905Y7798903D02*
X139890857Y7738427D01*
X139890857Y7738427D02*
X140132762Y7738427D01*
X140132762Y7738427D02*
X140253714Y7798903D01*
X140253714Y7798903D02*
X140314190Y7859379D01*
X140314190Y7859379D02*
X140374667Y7980331D01*
X140374667Y7980331D02*
X140374667Y8282712D01*
X140374667Y8282712D02*
X140314190Y8403665D01*
X140314190Y8403665D02*
X140253714Y8464141D01*
X140253714Y8464141D02*
X140132762Y8524617D01*
X140132762Y8524617D02*
X139890857Y8524617D01*
X139890857Y8524617D02*
X139769905Y8464141D01*
X139769905Y8464141D02*
X139709428Y8403665D01*
X139709428Y8403665D02*
X139648952Y8282712D01*
%TO.C,J5*%
X115206667Y9008427D02*
X115206667Y8101284D01*
X115206667Y8101284D02*
X115146190Y7919855D01*
X115146190Y7919855D02*
X115025238Y7798903D01*
X115025238Y7798903D02*
X114843809Y7738427D01*
X114843809Y7738427D02*
X114722857Y7738427D01*
X116416190Y9008427D02*
X115811428Y9008427D01*
X115811428Y9008427D02*
X115750952Y8403665D01*
X115750952Y8403665D02*
X115811428Y8464141D01*
X115811428Y8464141D02*
X115932381Y8524617D01*
X115932381Y8524617D02*
X116234762Y8524617D01*
X116234762Y8524617D02*
X116355714Y8464141D01*
X116355714Y8464141D02*
X116416190Y8403665D01*
X116416190Y8403665D02*
X116476667Y8282712D01*
X116476667Y8282712D02*
X116476667Y7980331D01*
X116476667Y7980331D02*
X116416190Y7859379D01*
X116416190Y7859379D02*
X116355714Y7798903D01*
X116355714Y7798903D02*
X116234762Y7738427D01*
X116234762Y7738427D02*
X115932381Y7738427D01*
X115932381Y7738427D02*
X115811428Y7798903D01*
X115811428Y7798903D02*
X115750952Y7859379D01*
%TO.C,J3*%
X67410667Y9008427D02*
X67410667Y8101284D01*
X67410667Y8101284D02*
X67350190Y7919855D01*
X67350190Y7919855D02*
X67229238Y7798903D01*
X67229238Y7798903D02*
X67047809Y7738427D01*
X67047809Y7738427D02*
X66926857Y7738427D01*
X67894476Y9008427D02*
X68680667Y9008427D01*
X68680667Y9008427D02*
X68257333Y8524617D01*
X68257333Y8524617D02*
X68438762Y8524617D01*
X68438762Y8524617D02*
X68559714Y8464141D01*
X68559714Y8464141D02*
X68620190Y8403665D01*
X68620190Y8403665D02*
X68680667Y8282712D01*
X68680667Y8282712D02*
X68680667Y7980331D01*
X68680667Y7980331D02*
X68620190Y7859379D01*
X68620190Y7859379D02*
X68559714Y7798903D01*
X68559714Y7798903D02*
X68438762Y7738427D01*
X68438762Y7738427D02*
X68075905Y7738427D01*
X68075905Y7738427D02*
X67954952Y7798903D01*
X67954952Y7798903D02*
X67894476Y7859379D01*
%TO.C,J1*%
X19614667Y9008427D02*
X19614667Y8101284D01*
X19614667Y8101284D02*
X19554190Y7919855D01*
X19554190Y7919855D02*
X19433238Y7798903D01*
X19433238Y7798903D02*
X19251809Y7738427D01*
X19251809Y7738427D02*
X19130857Y7738427D01*
X20884667Y7738427D02*
X20158952Y7738427D01*
X20521809Y7738427D02*
X20521809Y9008427D01*
X20521809Y9008427D02*
X20400857Y8826998D01*
X20400857Y8826998D02*
X20279905Y8706046D01*
X20279905Y8706046D02*
X20158952Y8645570D01*
D11*
%TO.C,C2*%
X44063000Y16595000D02*
X44063000Y18595000D01*
X45313000Y16595000D02*
X44063000Y16595000D01*
X44063000Y18595000D02*
X45313000Y18595000D01*
X45313000Y18595000D02*
X45313000Y16595000D01*
D13*
%TO.C,J4*%
X83282000Y14105000D02*
X100182000Y14105000D01*
X83282000Y105000D02*
X83282000Y14105000D01*
X100182000Y14105000D02*
X100182000Y105000D01*
X100182000Y105000D02*
X83282000Y105000D01*
%TO.C,J2*%
X35484000Y14106000D02*
X52384000Y14106000D01*
X35484000Y106000D02*
X35484000Y14106000D01*
X52384000Y14106000D02*
X52384000Y106000D01*
X52384000Y106000D02*
X35484000Y106000D01*
D11*
%TO.C,C1*%
X20143000Y16595000D02*
X20143000Y18595000D01*
X21393000Y16595000D02*
X20143000Y16595000D01*
X20143000Y18595000D02*
X21393000Y18595000D01*
X21393000Y18595000D02*
X21393000Y16595000D01*
%TO.C,C6*%
X139653000Y16595000D02*
X139653000Y18595000D01*
X140903000Y16595000D02*
X139653000Y16595000D01*
X139653000Y18595000D02*
X140903000Y18595000D01*
X140903000Y18595000D02*
X140903000Y16595000D01*
%TO.C,J7*%
X53998000Y35005000D02*
X57138000Y35005000D01*
X53998000Y31005000D02*
X53998000Y35005000D01*
X53998000Y31005000D02*
X58998000Y31005000D01*
X53998000Y25805000D02*
X53998000Y31005000D01*
X53998000Y25805000D02*
X58998000Y25805000D01*
X57138000Y38005000D02*
X102858000Y38005000D01*
X57138000Y35005000D02*
X57138000Y38005000D01*
X57138000Y35005000D02*
X102858000Y35005000D01*
X58998000Y31005000D02*
X100998000Y31005000D01*
X58998000Y25805000D02*
X58998000Y31005000D01*
X100998000Y31005000D02*
X100998000Y25805000D01*
X100998000Y31005000D02*
X105998000Y31005000D01*
X100998000Y25805000D02*
X105998000Y25805000D01*
X102858000Y38005000D02*
X102858000Y35005000D01*
X102858000Y35005000D02*
X105998000Y35005000D01*
X105998000Y35005000D02*
X105998000Y31005000D01*
X105998000Y31005000D02*
X105998000Y25805000D01*
X105998000Y31005000D02*
X111498000Y31005000D01*
D13*
X60498000Y26805000D02*
G75*
G03*
X60498000Y26805000I-100000J0D01*
G01*
D11*
%TO.C,C3*%
X67963000Y16595000D02*
X67963000Y18595000D01*
X69213000Y16595000D02*
X67963000Y16595000D01*
X67963000Y18595000D02*
X69213000Y18595000D01*
X69213000Y18595000D02*
X69213000Y16595000D01*
D13*
%TO.C,J6*%
X131078000Y14105000D02*
X147978000Y14105000D01*
X131078000Y105000D02*
X131078000Y14105000D01*
X147978000Y14105000D02*
X147978000Y105000D01*
X147978000Y105000D02*
X131078000Y105000D01*
D11*
%TO.C,C5*%
X115753000Y16595000D02*
X115753000Y18595000D01*
X117003000Y16595000D02*
X115753000Y16595000D01*
X115753000Y18595000D02*
X117003000Y18595000D01*
X117003000Y18595000D02*
X117003000Y16595000D01*
D13*
%TO.C,J5*%
X107180000Y14105000D02*
X124080000Y14105000D01*
X107180000Y105000D02*
X107180000Y14105000D01*
X124080000Y14105000D02*
X124080000Y105000D01*
X124080000Y105000D02*
X107180000Y105000D01*
%TO.C,J3*%
X59384000Y14105000D02*
X76284000Y14105000D01*
X59384000Y105000D02*
X59384000Y14105000D01*
X76284000Y14105000D02*
X76284000Y105000D01*
X76284000Y105000D02*
X59384000Y105000D01*
%TO.C,J1*%
X11588000Y14105000D02*
X28488000Y14105000D01*
X11588000Y105000D02*
X11588000Y14105000D01*
X28488000Y14105000D02*
X28488000Y105000D01*
X28488000Y105000D02*
X11588000Y105000D01*
D11*
%TO.C,REF_Top*%
X2487000Y1524000D02*
G75*
G03*
X2487000Y1524000I-1000000J0D01*
G01*
%TO.C,C4*%
X91853000Y16595000D02*
X91853000Y18595000D01*
X93103000Y16595000D02*
X91853000Y16595000D01*
X91853000Y18595000D02*
X93103000Y18595000D01*
X93103000Y18595000D02*
X93103000Y16595000D01*
%TD*%
%TO.C,*%
X5718000Y3335000D02*
G75*
G03*
X5718000Y3335000I-1600000J0D01*
G01*
%TD*%
D14*
%TO.C,C2*%
D11*
X44213000Y16145000D02*
X44117329Y16164030D01*
X44036223Y16218223D01*
X43982030Y16299329D01*
X43963000Y16395000D01*
X43963000Y16895000D01*
X43982030Y16990671D01*
X44036223Y17071777D01*
X44117329Y17125970D01*
X44213000Y17145000D01*
X45163000Y17145000D01*
X45258671Y17125970D01*
X45339777Y17071777D01*
X45393970Y16990671D01*
X45413000Y16895000D01*
X45413000Y16395000D01*
X45393970Y16299329D01*
X45339777Y16218223D01*
X45258671Y16164030D01*
X45163000Y16145000D01*
X44213000Y16145000D01*
D14*
D11*
X44213000Y18045000D02*
X44117329Y18064030D01*
X44036223Y18118223D01*
X43982030Y18199329D01*
X43963000Y18295000D01*
X43963000Y18795000D01*
X43982030Y18890671D01*
X44036223Y18971777D01*
X44117329Y19025970D01*
X44213000Y19045000D01*
X45163000Y19045000D01*
X45258671Y19025970D01*
X45339777Y18971777D01*
X45393970Y18890671D01*
X45413000Y18795000D01*
X45413000Y18295000D01*
X45393970Y18199329D01*
X45339777Y18118223D01*
X45258671Y18064030D01*
X45163000Y18045000D01*
X44213000Y18045000D01*
%TD*%
%TO.C,J4*%
X91732500Y4405000D02*
G75*
G03*
X91732500Y4405000I-500J0D01*
G01*
X97092000Y15765000D02*
X97092000Y13365000D01*
X97372000Y13365000D01*
X97372000Y15765000D01*
X97092000Y15765000D01*
X96592000Y15765000D02*
X96592000Y13365000D01*
X96872000Y13365000D01*
X96872000Y15765000D01*
X96592000Y15765000D01*
X96092000Y15765000D02*
X96092000Y13365000D01*
X96372000Y13365000D01*
X96372000Y15765000D01*
X96092000Y15765000D01*
X95592000Y15765000D02*
X95592000Y13365000D01*
X95872000Y13365000D01*
X95872000Y15765000D01*
X95592000Y15765000D01*
X95092000Y15765000D02*
X95092000Y13365000D01*
X95372000Y13365000D01*
X95372000Y15765000D01*
X95092000Y15765000D01*
X94592000Y15765000D02*
X94592000Y13365000D01*
X94872000Y13365000D01*
X94872000Y15765000D01*
X94592000Y15765000D01*
X94092000Y15765000D02*
X94092000Y13365000D01*
X94372000Y13365000D01*
X94372000Y15765000D01*
X94092000Y15765000D01*
X93592000Y15765000D02*
X93592000Y13365000D01*
X93872000Y13365000D01*
X93872000Y15765000D01*
X93592000Y15765000D01*
X93092000Y15765000D02*
X93092000Y13365000D01*
X93372000Y13365000D01*
X93372000Y15765000D01*
X93092000Y15765000D01*
X92592000Y15765000D02*
X92592000Y13365000D01*
X92872000Y13365000D01*
X92872000Y15765000D01*
X92592000Y15765000D01*
X92092000Y15765000D02*
X92092000Y13365000D01*
X92372000Y13365000D01*
X92372000Y15765000D01*
X92092000Y15765000D01*
X91592000Y15765000D02*
X91592000Y13365000D01*
X91872000Y13365000D01*
X91872000Y15765000D01*
X91592000Y15765000D01*
X91092000Y15765000D02*
X91092000Y13365000D01*
X91372000Y13365000D01*
X91372000Y15765000D01*
X91092000Y15765000D01*
X90592000Y15765000D02*
X90592000Y13365000D01*
X90872000Y13365000D01*
X90872000Y15765000D01*
X90592000Y15765000D01*
X90092000Y15765000D02*
X90092000Y13365000D01*
X90372000Y13365000D01*
X90372000Y15765000D01*
X90092000Y15765000D01*
X89592000Y15765000D02*
X89592000Y13365000D01*
X89872000Y13365000D01*
X89872000Y15765000D01*
X89592000Y15765000D01*
X89092000Y15765000D02*
X89092000Y13365000D01*
X89372000Y13365000D01*
X89372000Y15765000D01*
X89092000Y15765000D01*
X88592000Y15765000D02*
X88592000Y13365000D01*
X88872000Y13365000D01*
X88872000Y15765000D01*
X88592000Y15765000D01*
X88092000Y15765000D02*
X88092000Y13365000D01*
X88372000Y13365000D01*
X88372000Y15765000D01*
X88092000Y15765000D01*
X87592000Y15765000D02*
X87592000Y13365000D01*
X87872000Y13365000D01*
X87872000Y15765000D01*
X87592000Y15765000D01*
X84812000Y11965000D02*
G75*
G03*
X84812000Y11965000I-1330000J0D01*
G01*
X84473000Y5185000D02*
G75*
G03*
X84473000Y5185000I-991000J0D01*
G01*
X100973000Y5185000D02*
G75*
G03*
X100973000Y5185000I-991000J0D01*
G01*
X101312000Y11965000D02*
G75*
G03*
X101312000Y11965000I-1330000J0D01*
G01*
%TD*%
%TO.C,J2*%
X43934500Y4406000D02*
G75*
G03*
X43934500Y4406000I-500J0D01*
G01*
X49294000Y15766000D02*
X49294000Y13366000D01*
X49574000Y13366000D01*
X49574000Y15766000D01*
X49294000Y15766000D01*
X48794000Y15766000D02*
X48794000Y13366000D01*
X49074000Y13366000D01*
X49074000Y15766000D01*
X48794000Y15766000D01*
X48294000Y15766000D02*
X48294000Y13366000D01*
X48574000Y13366000D01*
X48574000Y15766000D01*
X48294000Y15766000D01*
X47794000Y15766000D02*
X47794000Y13366000D01*
X48074000Y13366000D01*
X48074000Y15766000D01*
X47794000Y15766000D01*
X47294000Y15766000D02*
X47294000Y13366000D01*
X47574000Y13366000D01*
X47574000Y15766000D01*
X47294000Y15766000D01*
X46794000Y15766000D02*
X46794000Y13366000D01*
X47074000Y13366000D01*
X47074000Y15766000D01*
X46794000Y15766000D01*
X46294000Y15766000D02*
X46294000Y13366000D01*
X46574000Y13366000D01*
X46574000Y15766000D01*
X46294000Y15766000D01*
X45794000Y15766000D02*
X45794000Y13366000D01*
X46074000Y13366000D01*
X46074000Y15766000D01*
X45794000Y15766000D01*
X45294000Y15766000D02*
X45294000Y13366000D01*
X45574000Y13366000D01*
X45574000Y15766000D01*
X45294000Y15766000D01*
X44794000Y15766000D02*
X44794000Y13366000D01*
X45074000Y13366000D01*
X45074000Y15766000D01*
X44794000Y15766000D01*
X44294000Y15766000D02*
X44294000Y13366000D01*
X44574000Y13366000D01*
X44574000Y15766000D01*
X44294000Y15766000D01*
X43794000Y15766000D02*
X43794000Y13366000D01*
X44074000Y13366000D01*
X44074000Y15766000D01*
X43794000Y15766000D01*
X43294000Y15766000D02*
X43294000Y13366000D01*
X43574000Y13366000D01*
X43574000Y15766000D01*
X43294000Y15766000D01*
X42794000Y15766000D02*
X42794000Y13366000D01*
X43074000Y13366000D01*
X43074000Y15766000D01*
X42794000Y15766000D01*
X42294000Y15766000D02*
X42294000Y13366000D01*
X42574000Y13366000D01*
X42574000Y15766000D01*
X42294000Y15766000D01*
X41794000Y15766000D02*
X41794000Y13366000D01*
X42074000Y13366000D01*
X42074000Y15766000D01*
X41794000Y15766000D01*
X41294000Y15766000D02*
X41294000Y13366000D01*
X41574000Y13366000D01*
X41574000Y15766000D01*
X41294000Y15766000D01*
X40794000Y15766000D02*
X40794000Y13366000D01*
X41074000Y13366000D01*
X41074000Y15766000D01*
X40794000Y15766000D01*
X40294000Y15766000D02*
X40294000Y13366000D01*
X40574000Y13366000D01*
X40574000Y15766000D01*
X40294000Y15766000D01*
X39794000Y15766000D02*
X39794000Y13366000D01*
X40074000Y13366000D01*
X40074000Y15766000D01*
X39794000Y15766000D01*
X37014000Y11966000D02*
G75*
G03*
X37014000Y11966000I-1330000J0D01*
G01*
X36675000Y5186000D02*
G75*
G03*
X36675000Y5186000I-991000J0D01*
G01*
X53175000Y5186000D02*
G75*
G03*
X53175000Y5186000I-991000J0D01*
G01*
X53514000Y11966000D02*
G75*
G03*
X53514000Y11966000I-1330000J0D01*
G01*
%TD*%
D14*
%TO.C,C1*%
D11*
X20293000Y16145000D02*
X20197329Y16164030D01*
X20116223Y16218223D01*
X20062030Y16299329D01*
X20043000Y16395000D01*
X20043000Y16895000D01*
X20062030Y16990671D01*
X20116223Y17071777D01*
X20197329Y17125970D01*
X20293000Y17145000D01*
X21243000Y17145000D01*
X21338671Y17125970D01*
X21419777Y17071777D01*
X21473970Y16990671D01*
X21493000Y16895000D01*
X21493000Y16395000D01*
X21473970Y16299329D01*
X21419777Y16218223D01*
X21338671Y16164030D01*
X21243000Y16145000D01*
X20293000Y16145000D01*
D14*
D11*
X20293000Y18045000D02*
X20197329Y18064030D01*
X20116223Y18118223D01*
X20062030Y18199329D01*
X20043000Y18295000D01*
X20043000Y18795000D01*
X20062030Y18890671D01*
X20116223Y18971777D01*
X20197329Y19025970D01*
X20293000Y19045000D01*
X21243000Y19045000D01*
X21338671Y19025970D01*
X21419777Y18971777D01*
X21473970Y18890671D01*
X21493000Y18795000D01*
X21493000Y18295000D01*
X21473970Y18199329D01*
X21419777Y18118223D01*
X21338671Y18064030D01*
X21243000Y18045000D01*
X20293000Y18045000D01*
%TD*%
D14*
%TO.C,C6*%
D11*
X139803000Y16145000D02*
X139707329Y16164030D01*
X139626223Y16218223D01*
X139572030Y16299329D01*
X139553000Y16395000D01*
X139553000Y16895000D01*
X139572030Y16990671D01*
X139626223Y17071777D01*
X139707329Y17125970D01*
X139803000Y17145000D01*
X140753000Y17145000D01*
X140848671Y17125970D01*
X140929777Y17071777D01*
X140983970Y16990671D01*
X141003000Y16895000D01*
X141003000Y16395000D01*
X140983970Y16299329D01*
X140929777Y16218223D01*
X140848671Y16164030D01*
X140753000Y16145000D01*
X139803000Y16145000D01*
D14*
D11*
X139803000Y18045000D02*
X139707329Y18064030D01*
X139626223Y18118223D01*
X139572030Y18199329D01*
X139553000Y18295000D01*
X139553000Y18795000D01*
X139572030Y18890671D01*
X139626223Y18971777D01*
X139707329Y19025970D01*
X139803000Y19045000D01*
X140753000Y19045000D01*
X140848671Y19025970D01*
X140929777Y18971777D01*
X140983970Y18890671D01*
X141003000Y18795000D01*
X141003000Y18295000D01*
X140983970Y18199329D01*
X140929777Y18118223D01*
X140848671Y18064030D01*
X140753000Y18045000D01*
X139803000Y18045000D01*
%TD*%
%TO.C,J7*%
X58938000Y27005000D02*
G75*
G03*
X58938000Y27005000I-1050000J0D01*
G01*
X60148000Y29685000D02*
X60148000Y28205000D01*
X60648000Y28205000D01*
X60648000Y29685000D01*
X60148000Y29685000D01*
X60948000Y29685000D02*
X60948000Y28205000D01*
X61448000Y28205000D01*
X61448000Y29685000D01*
X60948000Y29685000D01*
X61748000Y29685000D02*
X61748000Y28205000D01*
X62248000Y28205000D01*
X62248000Y29685000D01*
X61748000Y29685000D01*
X62548000Y29685000D02*
X62548000Y28205000D01*
X63048000Y28205000D01*
X63048000Y29685000D01*
X62548000Y29685000D01*
X63348000Y29685000D02*
X63348000Y28205000D01*
X63848000Y28205000D01*
X63848000Y29685000D01*
X63348000Y29685000D01*
X64148000Y29685000D02*
X64148000Y28205000D01*
X64648000Y28205000D01*
X64648000Y29685000D01*
X64148000Y29685000D01*
X64948000Y29685000D02*
X64948000Y28205000D01*
X65448000Y28205000D01*
X65448000Y29685000D01*
X64948000Y29685000D01*
X65748000Y29685000D02*
X65748000Y28205000D01*
X66248000Y28205000D01*
X66248000Y29685000D01*
X65748000Y29685000D01*
X66548000Y29685000D02*
X66548000Y28205000D01*
X67048000Y28205000D01*
X67048000Y29685000D01*
X66548000Y29685000D01*
X67348000Y29685000D02*
X67348000Y28205000D01*
X67848000Y28205000D01*
X67848000Y29685000D01*
X67348000Y29685000D01*
X68148000Y29685000D02*
X68148000Y28205000D01*
X68648000Y28205000D01*
X68648000Y29685000D01*
X68148000Y29685000D01*
X68948000Y29685000D02*
X68948000Y28205000D01*
X69448000Y28205000D01*
X69448000Y29685000D01*
X68948000Y29685000D01*
X69748000Y29685000D02*
X69748000Y28205000D01*
X70248000Y28205000D01*
X70248000Y29685000D01*
X69748000Y29685000D01*
X70548000Y29685000D02*
X70548000Y28205000D01*
X71048000Y28205000D01*
X71048000Y29685000D01*
X70548000Y29685000D01*
X71348000Y29685000D02*
X71348000Y28205000D01*
X71848000Y28205000D01*
X71848000Y29685000D01*
X71348000Y29685000D01*
X72148000Y29685000D02*
X72148000Y28205000D01*
X72648000Y28205000D01*
X72648000Y29685000D01*
X72148000Y29685000D01*
X72948000Y29685000D02*
X72948000Y28205000D01*
X73448000Y28205000D01*
X73448000Y29685000D01*
X72948000Y29685000D01*
X73748000Y29685000D02*
X73748000Y28205000D01*
X74248000Y28205000D01*
X74248000Y29685000D01*
X73748000Y29685000D01*
X74548000Y29685000D02*
X74548000Y28205000D01*
X75048000Y28205000D01*
X75048000Y29685000D01*
X74548000Y29685000D01*
X75348000Y29685000D02*
X75348000Y28205000D01*
X75848000Y28205000D01*
X75848000Y29685000D01*
X75348000Y29685000D01*
X76148000Y29685000D02*
X76148000Y28205000D01*
X76648000Y28205000D01*
X76648000Y29685000D01*
X76148000Y29685000D01*
X76948000Y29685000D02*
X76948000Y28205000D01*
X77448000Y28205000D01*
X77448000Y29685000D01*
X76948000Y29685000D01*
X77748000Y29685000D02*
X77748000Y28205000D01*
X78248000Y28205000D01*
X78248000Y29685000D01*
X77748000Y29685000D01*
X78548000Y29685000D02*
X78548000Y28205000D01*
X79048000Y28205000D01*
X79048000Y29685000D01*
X78548000Y29685000D01*
X79348000Y29685000D02*
X79348000Y28205000D01*
X79848000Y28205000D01*
X79848000Y29685000D01*
X79348000Y29685000D01*
X80148000Y29685000D02*
X80148000Y28205000D01*
X80648000Y28205000D01*
X80648000Y29685000D01*
X80148000Y29685000D01*
X80948000Y29685000D02*
X80948000Y28205000D01*
X81448000Y28205000D01*
X81448000Y29685000D01*
X80948000Y29685000D01*
X81748000Y29685000D02*
X81748000Y28205000D01*
X82248000Y28205000D01*
X82248000Y29685000D01*
X81748000Y29685000D01*
X82548000Y29685000D02*
X82548000Y28205000D01*
X83048000Y28205000D01*
X83048000Y29685000D01*
X82548000Y29685000D01*
X83348000Y29685000D02*
X83348000Y28205000D01*
X83848000Y28205000D01*
X83848000Y29685000D01*
X83348000Y29685000D01*
X84148000Y29685000D02*
X84148000Y28205000D01*
X84648000Y28205000D01*
X84648000Y29685000D01*
X84148000Y29685000D01*
X84948000Y29685000D02*
X84948000Y28205000D01*
X85448000Y28205000D01*
X85448000Y29685000D01*
X84948000Y29685000D01*
X85748000Y29685000D02*
X85748000Y28205000D01*
X86248000Y28205000D01*
X86248000Y29685000D01*
X85748000Y29685000D01*
X86548000Y29685000D02*
X86548000Y28205000D01*
X87048000Y28205000D01*
X87048000Y29685000D01*
X86548000Y29685000D01*
X87348000Y29685000D02*
X87348000Y28205000D01*
X87848000Y28205000D01*
X87848000Y29685000D01*
X87348000Y29685000D01*
X88148000Y29685000D02*
X88148000Y28205000D01*
X88648000Y28205000D01*
X88648000Y29685000D01*
X88148000Y29685000D01*
X88948000Y29685000D02*
X88948000Y28205000D01*
X89448000Y28205000D01*
X89448000Y29685000D01*
X88948000Y29685000D01*
X89748000Y29685000D02*
X89748000Y28205000D01*
X90248000Y28205000D01*
X90248000Y29685000D01*
X89748000Y29685000D01*
X90548000Y29685000D02*
X90548000Y28205000D01*
X91048000Y28205000D01*
X91048000Y29685000D01*
X90548000Y29685000D01*
X91348000Y29685000D02*
X91348000Y28205000D01*
X91848000Y28205000D01*
X91848000Y29685000D01*
X91348000Y29685000D01*
X92148000Y29685000D02*
X92148000Y28205000D01*
X92648000Y28205000D01*
X92648000Y29685000D01*
X92148000Y29685000D01*
X92948000Y29685000D02*
X92948000Y28205000D01*
X93448000Y28205000D01*
X93448000Y29685000D01*
X92948000Y29685000D01*
X93748000Y29685000D02*
X93748000Y28205000D01*
X94248000Y28205000D01*
X94248000Y29685000D01*
X93748000Y29685000D01*
X94548000Y29685000D02*
X94548000Y28205000D01*
X95048000Y28205000D01*
X95048000Y29685000D01*
X94548000Y29685000D01*
X95348000Y29685000D02*
X95348000Y28205000D01*
X95848000Y28205000D01*
X95848000Y29685000D01*
X95348000Y29685000D01*
X96148000Y29685000D02*
X96148000Y28205000D01*
X96648000Y28205000D01*
X96648000Y29685000D01*
X96148000Y29685000D01*
X96948000Y29685000D02*
X96948000Y28205000D01*
X97448000Y28205000D01*
X97448000Y29685000D01*
X96948000Y29685000D01*
X97748000Y29685000D02*
X97748000Y28205000D01*
X98248000Y28205000D01*
X98248000Y29685000D01*
X97748000Y29685000D01*
X98548000Y29685000D02*
X98548000Y28205000D01*
X99048000Y28205000D01*
X99048000Y29685000D01*
X98548000Y29685000D01*
X99348000Y29685000D02*
X99348000Y28205000D01*
X99848000Y28205000D01*
X99848000Y29685000D01*
X99348000Y29685000D01*
X54748000Y29805000D02*
X54748000Y27805000D01*
X56248000Y27805000D01*
X56248000Y29805000D01*
X54748000Y29805000D01*
X103748000Y29805000D02*
X103748000Y27805000D01*
X105248000Y27805000D01*
X105248000Y29805000D01*
X103748000Y29805000D01*
%TD*%
D14*
%TO.C,C3*%
D11*
X68113000Y16145000D02*
X68017329Y16164030D01*
X67936223Y16218223D01*
X67882030Y16299329D01*
X67863000Y16395000D01*
X67863000Y16895000D01*
X67882030Y16990671D01*
X67936223Y17071777D01*
X68017329Y17125970D01*
X68113000Y17145000D01*
X69063000Y17145000D01*
X69158671Y17125970D01*
X69239777Y17071777D01*
X69293970Y16990671D01*
X69313000Y16895000D01*
X69313000Y16395000D01*
X69293970Y16299329D01*
X69239777Y16218223D01*
X69158671Y16164030D01*
X69063000Y16145000D01*
X68113000Y16145000D01*
D14*
D11*
X68113000Y18045000D02*
X68017329Y18064030D01*
X67936223Y18118223D01*
X67882030Y18199329D01*
X67863000Y18295000D01*
X67863000Y18795000D01*
X67882030Y18890671D01*
X67936223Y18971777D01*
X68017329Y19025970D01*
X68113000Y19045000D01*
X69063000Y19045000D01*
X69158671Y19025970D01*
X69239777Y18971777D01*
X69293970Y18890671D01*
X69313000Y18795000D01*
X69313000Y18295000D01*
X69293970Y18199329D01*
X69239777Y18118223D01*
X69158671Y18064030D01*
X69063000Y18045000D01*
X68113000Y18045000D01*
%TD*%
%TO.C,J6*%
X139528500Y4405000D02*
G75*
G03*
X139528500Y4405000I-500J0D01*
G01*
X144888000Y15765000D02*
X144888000Y13365000D01*
X145168000Y13365000D01*
X145168000Y15765000D01*
X144888000Y15765000D01*
X144388000Y15765000D02*
X144388000Y13365000D01*
X144668000Y13365000D01*
X144668000Y15765000D01*
X144388000Y15765000D01*
X143888000Y15765000D02*
X143888000Y13365000D01*
X144168000Y13365000D01*
X144168000Y15765000D01*
X143888000Y15765000D01*
X143388000Y15765000D02*
X143388000Y13365000D01*
X143668000Y13365000D01*
X143668000Y15765000D01*
X143388000Y15765000D01*
X142888000Y15765000D02*
X142888000Y13365000D01*
X143168000Y13365000D01*
X143168000Y15765000D01*
X142888000Y15765000D01*
X142388000Y15765000D02*
X142388000Y13365000D01*
X142668000Y13365000D01*
X142668000Y15765000D01*
X142388000Y15765000D01*
X141888000Y15765000D02*
X141888000Y13365000D01*
X142168000Y13365000D01*
X142168000Y15765000D01*
X141888000Y15765000D01*
X141388000Y15765000D02*
X141388000Y13365000D01*
X141668000Y13365000D01*
X141668000Y15765000D01*
X141388000Y15765000D01*
X140888000Y15765000D02*
X140888000Y13365000D01*
X141168000Y13365000D01*
X141168000Y15765000D01*
X140888000Y15765000D01*
X140388000Y15765000D02*
X140388000Y13365000D01*
X140668000Y13365000D01*
X140668000Y15765000D01*
X140388000Y15765000D01*
X139888000Y15765000D02*
X139888000Y13365000D01*
X140168000Y13365000D01*
X140168000Y15765000D01*
X139888000Y15765000D01*
X139388000Y15765000D02*
X139388000Y13365000D01*
X139668000Y13365000D01*
X139668000Y15765000D01*
X139388000Y15765000D01*
X138888000Y15765000D02*
X138888000Y13365000D01*
X139168000Y13365000D01*
X139168000Y15765000D01*
X138888000Y15765000D01*
X138388000Y15765000D02*
X138388000Y13365000D01*
X138668000Y13365000D01*
X138668000Y15765000D01*
X138388000Y15765000D01*
X137888000Y15765000D02*
X137888000Y13365000D01*
X138168000Y13365000D01*
X138168000Y15765000D01*
X137888000Y15765000D01*
X137388000Y15765000D02*
X137388000Y13365000D01*
X137668000Y13365000D01*
X137668000Y15765000D01*
X137388000Y15765000D01*
X136888000Y15765000D02*
X136888000Y13365000D01*
X137168000Y13365000D01*
X137168000Y15765000D01*
X136888000Y15765000D01*
X136388000Y15765000D02*
X136388000Y13365000D01*
X136668000Y13365000D01*
X136668000Y15765000D01*
X136388000Y15765000D01*
X135888000Y15765000D02*
X135888000Y13365000D01*
X136168000Y13365000D01*
X136168000Y15765000D01*
X135888000Y15765000D01*
X135388000Y15765000D02*
X135388000Y13365000D01*
X135668000Y13365000D01*
X135668000Y15765000D01*
X135388000Y15765000D01*
X132608000Y11965000D02*
G75*
G03*
X132608000Y11965000I-1330000J0D01*
G01*
X132269000Y5185000D02*
G75*
G03*
X132269000Y5185000I-991000J0D01*
G01*
X148769000Y5185000D02*
G75*
G03*
X148769000Y5185000I-991000J0D01*
G01*
X149108000Y11965000D02*
G75*
G03*
X149108000Y11965000I-1330000J0D01*
G01*
%TD*%
%TO.C,*%
X5718000Y27335000D02*
G75*
G03*
X5718000Y27335000I-1600000J0D01*
G01*
%TD*%
D14*
%TO.C,C5*%
D11*
X115903000Y16145000D02*
X115807329Y16164030D01*
X115726223Y16218223D01*
X115672030Y16299329D01*
X115653000Y16395000D01*
X115653000Y16895000D01*
X115672030Y16990671D01*
X115726223Y17071777D01*
X115807329Y17125970D01*
X115903000Y17145000D01*
X116853000Y17145000D01*
X116948671Y17125970D01*
X117029777Y17071777D01*
X117083970Y16990671D01*
X117103000Y16895000D01*
X117103000Y16395000D01*
X117083970Y16299329D01*
X117029777Y16218223D01*
X116948671Y16164030D01*
X116853000Y16145000D01*
X115903000Y16145000D01*
D14*
D11*
X115903000Y18045000D02*
X115807329Y18064030D01*
X115726223Y18118223D01*
X115672030Y18199329D01*
X115653000Y18295000D01*
X115653000Y18795000D01*
X115672030Y18890671D01*
X115726223Y18971777D01*
X115807329Y19025970D01*
X115903000Y19045000D01*
X116853000Y19045000D01*
X116948671Y19025970D01*
X117029777Y18971777D01*
X117083970Y18890671D01*
X117103000Y18795000D01*
X117103000Y18295000D01*
X117083970Y18199329D01*
X117029777Y18118223D01*
X116948671Y18064030D01*
X116853000Y18045000D01*
X115903000Y18045000D01*
%TD*%
%TO.C,J5*%
X115630500Y4405000D02*
G75*
G03*
X115630500Y4405000I-500J0D01*
G01*
X120990000Y15765000D02*
X120990000Y13365000D01*
X121270000Y13365000D01*
X121270000Y15765000D01*
X120990000Y15765000D01*
X120490000Y15765000D02*
X120490000Y13365000D01*
X120770000Y13365000D01*
X120770000Y15765000D01*
X120490000Y15765000D01*
X119990000Y15765000D02*
X119990000Y13365000D01*
X120270000Y13365000D01*
X120270000Y15765000D01*
X119990000Y15765000D01*
X119490000Y15765000D02*
X119490000Y13365000D01*
X119770000Y13365000D01*
X119770000Y15765000D01*
X119490000Y15765000D01*
X118990000Y15765000D02*
X118990000Y13365000D01*
X119270000Y13365000D01*
X119270000Y15765000D01*
X118990000Y15765000D01*
X118490000Y15765000D02*
X118490000Y13365000D01*
X118770000Y13365000D01*
X118770000Y15765000D01*
X118490000Y15765000D01*
X117990000Y15765000D02*
X117990000Y13365000D01*
X118270000Y13365000D01*
X118270000Y15765000D01*
X117990000Y15765000D01*
X117490000Y15765000D02*
X117490000Y13365000D01*
X117770000Y13365000D01*
X117770000Y15765000D01*
X117490000Y15765000D01*
X116990000Y15765000D02*
X116990000Y13365000D01*
X117270000Y13365000D01*
X117270000Y15765000D01*
X116990000Y15765000D01*
X116490000Y15765000D02*
X116490000Y13365000D01*
X116770000Y13365000D01*
X116770000Y15765000D01*
X116490000Y15765000D01*
X115990000Y15765000D02*
X115990000Y13365000D01*
X116270000Y13365000D01*
X116270000Y15765000D01*
X115990000Y15765000D01*
X115490000Y15765000D02*
X115490000Y13365000D01*
X115770000Y13365000D01*
X115770000Y15765000D01*
X115490000Y15765000D01*
X114990000Y15765000D02*
X114990000Y13365000D01*
X115270000Y13365000D01*
X115270000Y15765000D01*
X114990000Y15765000D01*
X114490000Y15765000D02*
X114490000Y13365000D01*
X114770000Y13365000D01*
X114770000Y15765000D01*
X114490000Y15765000D01*
X113990000Y15765000D02*
X113990000Y13365000D01*
X114270000Y13365000D01*
X114270000Y15765000D01*
X113990000Y15765000D01*
X113490000Y15765000D02*
X113490000Y13365000D01*
X113770000Y13365000D01*
X113770000Y15765000D01*
X113490000Y15765000D01*
X112990000Y15765000D02*
X112990000Y13365000D01*
X113270000Y13365000D01*
X113270000Y15765000D01*
X112990000Y15765000D01*
X112490000Y15765000D02*
X112490000Y13365000D01*
X112770000Y13365000D01*
X112770000Y15765000D01*
X112490000Y15765000D01*
X111990000Y15765000D02*
X111990000Y13365000D01*
X112270000Y13365000D01*
X112270000Y15765000D01*
X111990000Y15765000D01*
X111490000Y15765000D02*
X111490000Y13365000D01*
X111770000Y13365000D01*
X111770000Y15765000D01*
X111490000Y15765000D01*
X108710000Y11965000D02*
G75*
G03*
X108710000Y11965000I-1330000J0D01*
G01*
X108371000Y5185000D02*
G75*
G03*
X108371000Y5185000I-991000J0D01*
G01*
X124871000Y5185000D02*
G75*
G03*
X124871000Y5185000I-991000J0D01*
G01*
X125210000Y11965000D02*
G75*
G03*
X125210000Y11965000I-1330000J0D01*
G01*
%TD*%
%TO.C,J3*%
X67834500Y4405000D02*
G75*
G03*
X67834500Y4405000I-500J0D01*
G01*
X73194000Y15765000D02*
X73194000Y13365000D01*
X73474000Y13365000D01*
X73474000Y15765000D01*
X73194000Y15765000D01*
X72694000Y15765000D02*
X72694000Y13365000D01*
X72974000Y13365000D01*
X72974000Y15765000D01*
X72694000Y15765000D01*
X72194000Y15765000D02*
X72194000Y13365000D01*
X72474000Y13365000D01*
X72474000Y15765000D01*
X72194000Y15765000D01*
X71694000Y15765000D02*
X71694000Y13365000D01*
X71974000Y13365000D01*
X71974000Y15765000D01*
X71694000Y15765000D01*
X71194000Y15765000D02*
X71194000Y13365000D01*
X71474000Y13365000D01*
X71474000Y15765000D01*
X71194000Y15765000D01*
X70694000Y15765000D02*
X70694000Y13365000D01*
X70974000Y13365000D01*
X70974000Y15765000D01*
X70694000Y15765000D01*
X70194000Y15765000D02*
X70194000Y13365000D01*
X70474000Y13365000D01*
X70474000Y15765000D01*
X70194000Y15765000D01*
X69694000Y15765000D02*
X69694000Y13365000D01*
X69974000Y13365000D01*
X69974000Y15765000D01*
X69694000Y15765000D01*
X69194000Y15765000D02*
X69194000Y13365000D01*
X69474000Y13365000D01*
X69474000Y15765000D01*
X69194000Y15765000D01*
X68694000Y15765000D02*
X68694000Y13365000D01*
X68974000Y13365000D01*
X68974000Y15765000D01*
X68694000Y15765000D01*
X68194000Y15765000D02*
X68194000Y13365000D01*
X68474000Y13365000D01*
X68474000Y15765000D01*
X68194000Y15765000D01*
X67694000Y15765000D02*
X67694000Y13365000D01*
X67974000Y13365000D01*
X67974000Y15765000D01*
X67694000Y15765000D01*
X67194000Y15765000D02*
X67194000Y13365000D01*
X67474000Y13365000D01*
X67474000Y15765000D01*
X67194000Y15765000D01*
X66694000Y15765000D02*
X66694000Y13365000D01*
X66974000Y13365000D01*
X66974000Y15765000D01*
X66694000Y15765000D01*
X66194000Y15765000D02*
X66194000Y13365000D01*
X66474000Y13365000D01*
X66474000Y15765000D01*
X66194000Y15765000D01*
X65694000Y15765000D02*
X65694000Y13365000D01*
X65974000Y13365000D01*
X65974000Y15765000D01*
X65694000Y15765000D01*
X65194000Y15765000D02*
X65194000Y13365000D01*
X65474000Y13365000D01*
X65474000Y15765000D01*
X65194000Y15765000D01*
X64694000Y15765000D02*
X64694000Y13365000D01*
X64974000Y13365000D01*
X64974000Y15765000D01*
X64694000Y15765000D01*
X64194000Y15765000D02*
X64194000Y13365000D01*
X64474000Y13365000D01*
X64474000Y15765000D01*
X64194000Y15765000D01*
X63694000Y15765000D02*
X63694000Y13365000D01*
X63974000Y13365000D01*
X63974000Y15765000D01*
X63694000Y15765000D01*
X60914000Y11965000D02*
G75*
G03*
X60914000Y11965000I-1330000J0D01*
G01*
X60575000Y5185000D02*
G75*
G03*
X60575000Y5185000I-991000J0D01*
G01*
X77075000Y5185000D02*
G75*
G03*
X77075000Y5185000I-991000J0D01*
G01*
X77414000Y11965000D02*
G75*
G03*
X77414000Y11965000I-1330000J0D01*
G01*
%TD*%
%TO.C,*%
X157718000Y3335000D02*
G75*
G03*
X157718000Y3335000I-1600000J0D01*
G01*
%TD*%
%TO.C,J1*%
X20038500Y4405000D02*
G75*
G03*
X20038500Y4405000I-500J0D01*
G01*
X25398000Y15765000D02*
X25398000Y13365000D01*
X25678000Y13365000D01*
X25678000Y15765000D01*
X25398000Y15765000D01*
X24898000Y15765000D02*
X24898000Y13365000D01*
X25178000Y13365000D01*
X25178000Y15765000D01*
X24898000Y15765000D01*
X24398000Y15765000D02*
X24398000Y13365000D01*
X24678000Y13365000D01*
X24678000Y15765000D01*
X24398000Y15765000D01*
X23898000Y15765000D02*
X23898000Y13365000D01*
X24178000Y13365000D01*
X24178000Y15765000D01*
X23898000Y15765000D01*
X23398000Y15765000D02*
X23398000Y13365000D01*
X23678000Y13365000D01*
X23678000Y15765000D01*
X23398000Y15765000D01*
X22898000Y15765000D02*
X22898000Y13365000D01*
X23178000Y13365000D01*
X23178000Y15765000D01*
X22898000Y15765000D01*
X22398000Y15765000D02*
X22398000Y13365000D01*
X22678000Y13365000D01*
X22678000Y15765000D01*
X22398000Y15765000D01*
X21898000Y15765000D02*
X21898000Y13365000D01*
X22178000Y13365000D01*
X22178000Y15765000D01*
X21898000Y15765000D01*
X21398000Y15765000D02*
X21398000Y13365000D01*
X21678000Y13365000D01*
X21678000Y15765000D01*
X21398000Y15765000D01*
X20898000Y15765000D02*
X20898000Y13365000D01*
X21178000Y13365000D01*
X21178000Y15765000D01*
X20898000Y15765000D01*
X20398000Y15765000D02*
X20398000Y13365000D01*
X20678000Y13365000D01*
X20678000Y15765000D01*
X20398000Y15765000D01*
X19898000Y15765000D02*
X19898000Y13365000D01*
X20178000Y13365000D01*
X20178000Y15765000D01*
X19898000Y15765000D01*
X19398000Y15765000D02*
X19398000Y13365000D01*
X19678000Y13365000D01*
X19678000Y15765000D01*
X19398000Y15765000D01*
X18898000Y15765000D02*
X18898000Y13365000D01*
X19178000Y13365000D01*
X19178000Y15765000D01*
X18898000Y15765000D01*
X18398000Y15765000D02*
X18398000Y13365000D01*
X18678000Y13365000D01*
X18678000Y15765000D01*
X18398000Y15765000D01*
X17898000Y15765000D02*
X17898000Y13365000D01*
X18178000Y13365000D01*
X18178000Y15765000D01*
X17898000Y15765000D01*
X17398000Y15765000D02*
X17398000Y13365000D01*
X17678000Y13365000D01*
X17678000Y15765000D01*
X17398000Y15765000D01*
X16898000Y15765000D02*
X16898000Y13365000D01*
X17178000Y13365000D01*
X17178000Y15765000D01*
X16898000Y15765000D01*
X16398000Y15765000D02*
X16398000Y13365000D01*
X16678000Y13365000D01*
X16678000Y15765000D01*
X16398000Y15765000D01*
X15898000Y15765000D02*
X15898000Y13365000D01*
X16178000Y13365000D01*
X16178000Y15765000D01*
X15898000Y15765000D01*
X13118000Y11965000D02*
G75*
G03*
X13118000Y11965000I-1330000J0D01*
G01*
X12779000Y5185000D02*
G75*
G03*
X12779000Y5185000I-991000J0D01*
G01*
X29279000Y5185000D02*
G75*
G03*
X29279000Y5185000I-991000J0D01*
G01*
X29618000Y11965000D02*
G75*
G03*
X29618000Y11965000I-1330000J0D01*
G01*
%TD*%
%TO.C,*%
X157718000Y27335000D02*
G75*
G03*
X157718000Y27335000I-1600000J0D01*
G01*
%TD*%
%TO.C,REF_Top*%
X1987000Y1524000D02*
G75*
G03*
X1987000Y1524000I-500000J0D01*
G01*
%TD*%
D14*
%TO.C,C4*%
D11*
X92003000Y16145000D02*
X91907329Y16164030D01*
X91826223Y16218223D01*
X91772030Y16299329D01*
X91753000Y16395000D01*
X91753000Y16895000D01*
X91772030Y16990671D01*
X91826223Y17071777D01*
X91907329Y17125970D01*
X92003000Y17145000D01*
X92953000Y17145000D01*
X93048671Y17125970D01*
X93129777Y17071777D01*
X93183970Y16990671D01*
X93203000Y16895000D01*
X93203000Y16395000D01*
X93183970Y16299329D01*
X93129777Y16218223D01*
X93048671Y16164030D01*
X92953000Y16145000D01*
X92003000Y16145000D01*
D14*
D11*
X92003000Y18045000D02*
X91907329Y18064030D01*
X91826223Y18118223D01*
X91772030Y18199329D01*
X91753000Y18295000D01*
X91753000Y18795000D01*
X91772030Y18890671D01*
X91826223Y18971777D01*
X91907329Y19025970D01*
X92003000Y19045000D01*
X92953000Y19045000D01*
X93048671Y19025970D01*
X93129777Y18971777D01*
X93183970Y18890671D01*
X93203000Y18795000D01*
X93203000Y18295000D01*
X93183970Y18199329D01*
X93129777Y18118223D01*
X93048671Y18064030D01*
X92953000Y18045000D01*
X92003000Y18045000D01*
%TD*%
D15*
X-2000Y31005000D02*
X-2000Y5000D01*
X159998000Y31005000D02*
X159998000Y5000D01*
X105998000Y31005000D02*
X159998000Y31005000D01*
X53998000Y31005000D02*
X-2000Y31005000D01*
X-2000Y5000D02*
X159998000Y5000D01*
%TO.C,J7*%
X56778000Y31005000D02*
X53998000Y31005000D01*
X56778000Y27005000D02*
X56778000Y31005000D01*
X58998000Y31005000D02*
X58998000Y27005000D01*
X105998000Y31005000D02*
X58998000Y31005000D01*
X56778000Y27005000D02*
G75*
G03*
X57888000Y25895000I1109998J-2D01*
G01*
X57888000Y25895000D02*
G75*
G03*
X58998000Y27005000I2J1109998D01*
G01*
%TD*%
M02*
