%TF.GenerationSoftware,KiCad,Pcbnew,(7.0.0)*%
%TF.CreationDate,2023-07-13T12:17:45+02:00*%
%TF.ProjectId,RD53B_Quad_6DP_to_ERF8_Data_Adapter,52443533-425f-4517-9561-645f3644505f,V1*%
%TF.SameCoordinates,PX1767f18PY451e560*%
%TF.FileFunction,Other,User*%
%FSLAX46Y46*%
G04 Gerber Fmt 4.6, Leading zero omitted, Abs format (unit mm)*
G04 Created by KiCad (PCBNEW (7.0.0)) date 2023-07-13 12:17:45*
%MOMM*%
%LPD*%
G01*
G04 APERTURE LIST*
%ADD10C,0.050000*%
%ADD11C,0.100000*%
%TA.AperFunction,Profile*%
%ADD12C,0.010000*%
%TD*%
G04 APERTURE END LIST*
D10*
%TO.C,C2*%
X43708000Y15895000D02*
X43708000Y19295000D01*
X45668000Y15895000D02*
X43708000Y15895000D01*
X43708000Y19295000D02*
X45668000Y19295000D01*
X45668000Y19295000D02*
X45668000Y15895000D01*
D11*
%TO.C,J4*%
X81152000Y17305000D02*
X102312000Y17305000D01*
X81152000Y-895000D02*
X81152000Y17305000D01*
X102312000Y17305000D02*
X102312000Y-895000D01*
X102312000Y-895000D02*
X81152000Y-895000D01*
%TO.C,J2*%
X33354000Y17306000D02*
X54514000Y17306000D01*
X33354000Y-894000D02*
X33354000Y17306000D01*
X54514000Y17306000D02*
X54514000Y-894000D01*
X54514000Y-894000D02*
X33354000Y-894000D01*
D10*
%TO.C,C1*%
X19788000Y15895000D02*
X19788000Y19295000D01*
X21748000Y15895000D02*
X19788000Y15895000D01*
X19788000Y19295000D02*
X21748000Y19295000D01*
X21748000Y19295000D02*
X21748000Y15895000D01*
%TO.C,C6*%
X139298000Y15895000D02*
X139298000Y19295000D01*
X141258000Y15895000D02*
X139298000Y15895000D01*
X139298000Y19295000D02*
X141258000Y19295000D01*
X141258000Y19295000D02*
X141258000Y15895000D01*
%TO.C,J7*%
X53748000Y38255000D02*
X106248000Y38255000D01*
X53748000Y25555000D02*
X53748000Y38255000D01*
X106248000Y38255000D02*
X106248000Y25555000D01*
X106248000Y25555000D02*
X53748000Y25555000D01*
%TO.C,C3*%
X67608000Y15895000D02*
X67608000Y19295000D01*
X69568000Y15895000D02*
X67608000Y15895000D01*
X67608000Y19295000D02*
X69568000Y19295000D01*
X69568000Y19295000D02*
X69568000Y15895000D01*
D11*
%TO.C,J6*%
X128948000Y17305000D02*
X150108000Y17305000D01*
X128948000Y-895000D02*
X128948000Y17305000D01*
X150108000Y17305000D02*
X150108000Y-895000D01*
X150108000Y-895000D02*
X128948000Y-895000D01*
D10*
%TO.C,C5*%
X115398000Y15895000D02*
X115398000Y19295000D01*
X117358000Y15895000D02*
X115398000Y15895000D01*
X115398000Y19295000D02*
X117358000Y19295000D01*
X117358000Y19295000D02*
X117358000Y15895000D01*
D11*
%TO.C,J5*%
X105050000Y17305000D02*
X126210000Y17305000D01*
X105050000Y-895000D02*
X105050000Y17305000D01*
X126210000Y17305000D02*
X126210000Y-895000D01*
X126210000Y-895000D02*
X105050000Y-895000D01*
%TO.C,J3*%
X57254000Y17305000D02*
X78414000Y17305000D01*
X57254000Y-895000D02*
X57254000Y17305000D01*
X78414000Y17305000D02*
X78414000Y-895000D01*
X78414000Y-895000D02*
X57254000Y-895000D01*
%TO.C,J1*%
X9458000Y17305000D02*
X30618000Y17305000D01*
X9458000Y-895000D02*
X9458000Y17305000D01*
X30618000Y17305000D02*
X30618000Y-895000D01*
X30618000Y-895000D02*
X9458000Y-895000D01*
D10*
%TO.C,REF_Top*%
X2737000Y1524000D02*
G75*
G03*
X2737000Y1524000I-1250000J0D01*
G01*
%TO.C,C4*%
X91498000Y15895000D02*
X91498000Y19295000D01*
X93458000Y15895000D02*
X91498000Y15895000D01*
X91498000Y19295000D02*
X93458000Y19295000D01*
X93458000Y19295000D02*
X93458000Y15895000D01*
%TD*%
D12*
X-2000Y31005000D02*
X-2000Y5000D01*
X159998000Y31005000D02*
X159998000Y5000D01*
X105998000Y31005000D02*
X159998000Y31005000D01*
X53998000Y31005000D02*
X-2000Y31005000D01*
X-2000Y5000D02*
X159998000Y5000D01*
%TO.C,J7*%
X56778000Y31005000D02*
X53998000Y31005000D01*
X56778000Y27005000D02*
X56778000Y31005000D01*
X58998000Y31005000D02*
X58998000Y27005000D01*
X105998000Y31005000D02*
X58998000Y31005000D01*
X56778000Y27005000D02*
G75*
G03*
X57888000Y25895000I1109998J-2D01*
G01*
X57888000Y25895000D02*
G75*
G03*
X58998000Y27005000I2J1109998D01*
G01*
%TD*%
M02*
