%TF.GenerationSoftware,KiCad,Pcbnew,(7.0.0)*%
%TF.CreationDate,2023-07-13T12:17:45+02:00*%
%TF.ProjectId,RD53B_Quad_6DP_to_ERF8_Data_Adapter,52443533-425f-4517-9561-645f3644505f,V1*%
%TF.SameCoordinates,PX1767f18PY451e560*%
%TF.FileFunction,Copper,L3,Inr*%
%TF.FilePolarity,Positive*%
%FSLAX46Y46*%
G04 Gerber Fmt 4.6, Leading zero omitted, Abs format (unit mm)*
G04 Created by KiCad (PCBNEW (7.0.0)) date 2023-07-13 12:17:45*
%MOMM*%
%LPD*%
G01*
G04 APERTURE LIST*
%TA.AperFunction,ComponentPad*%
%ADD10C,2.660000*%
%TD*%
%TA.AperFunction,ComponentPad*%
%ADD11C,1.982000*%
%TD*%
%TA.AperFunction,ViaPad*%
%ADD12C,0.500000*%
%TD*%
%TA.AperFunction,Profile*%
%ADD13C,0.010000*%
%TD*%
G04 APERTURE END LIST*
D10*
%TO.N,/DP4_SGND*%
%TO.C,J4*%
X83482000Y11965000D03*
D11*
X83482000Y5185000D03*
X99982000Y5185000D03*
D10*
X99982000Y11965000D03*
%TD*%
%TO.N,/DP2_SGND*%
%TO.C,J2*%
X35684000Y11966000D03*
D11*
X35684000Y5186000D03*
X52184000Y5186000D03*
D10*
X52184000Y11966000D03*
%TD*%
%TO.N,/DP6_SGND*%
%TO.C,J6*%
X131278000Y11965000D03*
D11*
X131278000Y5185000D03*
X147778000Y5185000D03*
D10*
X147778000Y11965000D03*
%TD*%
%TO.N,/DP5_SGND*%
%TO.C,J5*%
X107380000Y11965000D03*
D11*
X107380000Y5185000D03*
X123880000Y5185000D03*
D10*
X123880000Y11965000D03*
%TD*%
%TO.N,/DP3_SGND*%
%TO.C,J3*%
X59584000Y11965000D03*
D11*
X59584000Y5185000D03*
X76084000Y5185000D03*
D10*
X76084000Y11965000D03*
%TD*%
%TO.N,/DP1_SGND*%
%TO.C,J1*%
X11788000Y11965000D03*
D11*
X11788000Y5185000D03*
X28288000Y5185000D03*
D10*
X28288000Y11965000D03*
%TD*%
D12*
%TO.N,GND*%
X94640400Y11335000D03*
X116895500Y10335000D03*
X80398000Y30235000D03*
X9858000Y23097000D03*
X77998000Y30235000D03*
X72458000Y7622600D03*
X70593000Y9335000D03*
X136858000Y23055000D03*
X70593000Y11335000D03*
X152098000Y23055000D03*
X126698000Y28805000D03*
X14938000Y17975000D03*
X70798000Y1422500D03*
X20018000Y23055000D03*
X93140400Y12335000D03*
X140773000Y12335000D03*
X111458000Y1422500D03*
X75598000Y1422500D03*
X67388000Y18507500D03*
X118390500Y10335000D03*
X92478000Y19507500D03*
X25940400Y11335000D03*
X25098000Y1422500D03*
X96982000Y1422500D03*
X45190500Y10335000D03*
X87598000Y30235000D03*
X56584000Y1422500D03*
X144778000Y1422500D03*
X91335600Y12335000D03*
X14938000Y28805000D03*
X48185500Y10335000D03*
X97198000Y30235000D03*
X40338000Y28805000D03*
X69083000Y11335000D03*
X44688000Y19676700D03*
X95835600Y11335000D03*
X48185500Y12335000D03*
X89998000Y1422500D03*
X95990500Y10335000D03*
X73198000Y30235000D03*
X45888000Y18507500D03*
X86628000Y7598400D03*
X91278000Y18507500D03*
X117578000Y18507500D03*
X19568000Y18507500D03*
X64935600Y12335000D03*
X86628000Y9403200D03*
X147778000Y1422500D03*
X103228000Y28805000D03*
X9858000Y28805000D03*
X147018000Y28805000D03*
X116735600Y11335000D03*
X118390500Y9335000D03*
X61198000Y30235000D03*
X140278000Y19507500D03*
X96140400Y12335000D03*
X24135600Y11335000D03*
X2238000Y17975000D03*
X68398000Y30235000D03*
X141938000Y1422500D03*
X117040400Y12335000D03*
X111458000Y28805000D03*
X141478000Y18507500D03*
X102982000Y1422500D03*
X142268000Y10335000D03*
X2238000Y12895000D03*
X30178000Y28805000D03*
X118540400Y11335000D03*
X69788000Y18507500D03*
X92398000Y30235000D03*
X66740400Y12335000D03*
X152098000Y28805000D03*
X75598000Y30235000D03*
X20018000Y28805000D03*
X46698000Y9335000D03*
X143780500Y12360000D03*
X18940400Y12335000D03*
X157178000Y12895000D03*
X21293000Y9335000D03*
X157178000Y23055000D03*
X22635600Y12335000D03*
X11788000Y1422500D03*
X120880000Y1422500D03*
X68588000Y19507500D03*
X14788000Y1422500D03*
X22783000Y10335000D03*
X35258000Y28805000D03*
X70593000Y12335000D03*
X32625000Y1422500D03*
X24488000Y10335000D03*
X152098000Y1422500D03*
X46698000Y12335000D03*
X54228000Y28805000D03*
X45418000Y1422500D03*
X55498000Y27335000D03*
X45190500Y8335000D03*
X115178000Y18507500D03*
X22940400Y11335000D03*
X30178000Y1422500D03*
X121540400Y11335000D03*
X24440400Y12335000D03*
X157178000Y7815000D03*
X69083000Y10335000D03*
X143780500Y9335000D03*
X21135600Y11335000D03*
X142268000Y12335000D03*
X139078000Y18507500D03*
X7318000Y12895000D03*
X120040400Y12335000D03*
X72458000Y9427400D03*
X46668000Y11335000D03*
X147018000Y17975000D03*
X72090500Y12335000D03*
X30178000Y23055000D03*
X65998000Y30235000D03*
X95990500Y9335000D03*
X97640400Y11335000D03*
X136858000Y28805000D03*
X38684000Y1422500D03*
X45190500Y12335000D03*
X143780500Y10335000D03*
X99598000Y30235000D03*
X116538000Y1422500D03*
X62584000Y1422500D03*
X94493000Y10335000D03*
X92835600Y11335000D03*
X116538000Y28805000D03*
X105768000Y28805000D03*
X50498000Y28805000D03*
X140773000Y11335000D03*
X119895500Y9335000D03*
X99982000Y1422500D03*
X25098000Y17975000D03*
X50498000Y1422500D03*
X70798000Y30235000D03*
X21443700Y12335000D03*
X119735600Y11335000D03*
X69083000Y12335000D03*
X46698000Y10335000D03*
X118235600Y12335000D03*
X142268000Y11335000D03*
X115232300Y12335000D03*
X20768000Y19507500D03*
X152098000Y12895000D03*
X2238000Y7815000D03*
X45190500Y11335000D03*
X25098000Y23055000D03*
X85198000Y1422500D03*
X70593000Y10335000D03*
X104498000Y27335000D03*
X94798000Y30235000D03*
X7318000Y7863000D03*
X82798000Y30235000D03*
X112732300Y12335000D03*
X65998000Y1422500D03*
X20018000Y1422500D03*
X45418000Y28805000D03*
X141938000Y28805000D03*
X126880000Y1422500D03*
X63598000Y30235000D03*
X119895500Y10335000D03*
X107168000Y1422500D03*
X14938000Y23097000D03*
X114540400Y12335000D03*
X94798000Y1422500D03*
X131778000Y17975000D03*
X8788000Y1422500D03*
X59584000Y1422500D03*
X21293000Y10335000D03*
X72090500Y11335000D03*
X143780500Y11335000D03*
X131778000Y28805000D03*
X40338000Y1422500D03*
X131778000Y1422500D03*
X43488000Y18507500D03*
X35684000Y1419000D03*
X93678000Y18507500D03*
X150778000Y1422500D03*
X19636400Y12335000D03*
X141938000Y23055000D03*
X2238000Y23055000D03*
X121618000Y28805000D03*
X136858000Y17975000D03*
X22783000Y9335000D03*
X25098000Y28805000D03*
X7318000Y1422500D03*
X85198000Y30235000D03*
X94335600Y12335000D03*
X136858000Y1422500D03*
X9858000Y17975000D03*
X48185500Y11335000D03*
X123880000Y1422500D03*
X152098000Y17975000D03*
X45190500Y9335000D03*
X147018000Y23055000D03*
X89998000Y30235000D03*
X69083000Y9335000D03*
X119895500Y8335000D03*
X17135600Y12335000D03*
X157178000Y17975000D03*
X152098000Y7815000D03*
X21968000Y18507500D03*
%TD*%
%TA.AperFunction,Conductor*%
%TO.N,GND*%
G36*
X56664500Y30937619D02*
G01*
X56710619Y30891500D01*
X56727500Y30828500D01*
X56727500Y27645142D01*
X56715695Y27591892D01*
X56654153Y27459916D01*
X56654149Y27459907D01*
X56651829Y27454930D01*
X56650408Y27449629D01*
X56650405Y27449619D01*
X56593901Y27238745D01*
X56593899Y27238737D01*
X56592479Y27233435D01*
X56592000Y27227968D01*
X56591999Y27227958D01*
X56589152Y27195410D01*
X56572494Y27005000D01*
X56572973Y26999525D01*
X56591999Y26782043D01*
X56592000Y26782035D01*
X56592479Y26776565D01*
X56593899Y26771263D01*
X56593901Y26771256D01*
X56650405Y26560382D01*
X56650407Y26560376D01*
X56651829Y26555070D01*
X56654151Y26550091D01*
X56654153Y26550085D01*
X56710929Y26428329D01*
X56748738Y26347247D01*
X56751891Y26342744D01*
X56751894Y26342739D01*
X56828477Y26233368D01*
X56880264Y26159409D01*
X57042409Y25997264D01*
X57230247Y25865738D01*
X57438070Y25768829D01*
X57659565Y25709479D01*
X57830780Y25694500D01*
X57942480Y25694500D01*
X57945220Y25694500D01*
X58116435Y25709479D01*
X58337930Y25768829D01*
X58545753Y25865738D01*
X58733591Y25997264D01*
X58895736Y26159409D01*
X59027262Y26347247D01*
X59124171Y26555070D01*
X59183521Y26776565D01*
X59203506Y27005000D01*
X59186440Y27200071D01*
X154317500Y27200071D01*
X154318201Y27195417D01*
X154318202Y27195410D01*
X154346077Y27010475D01*
X154357720Y26933228D01*
X154359106Y26928732D01*
X154359108Y26928727D01*
X154435871Y26679866D01*
X154435874Y26679857D01*
X154437262Y26675359D01*
X154439307Y26671113D01*
X154439308Y26671110D01*
X154552302Y26436475D01*
X154552303Y26436474D01*
X154554349Y26432226D01*
X154706365Y26209259D01*
X154709565Y26205810D01*
X154709570Y26205804D01*
X154861133Y26042459D01*
X154889915Y26011439D01*
X155100898Y25843185D01*
X155104976Y25840831D01*
X155104977Y25840830D01*
X155330020Y25710902D01*
X155334602Y25708257D01*
X155338991Y25706535D01*
X155338994Y25706533D01*
X155423544Y25673350D01*
X155585805Y25609666D01*
X155848897Y25549617D01*
X156050624Y25534500D01*
X156183023Y25534500D01*
X156185376Y25534500D01*
X156387103Y25549617D01*
X156650195Y25609666D01*
X156901398Y25708257D01*
X157135102Y25843185D01*
X157346085Y26011439D01*
X157529635Y26209259D01*
X157681651Y26432225D01*
X157798738Y26675359D01*
X157878280Y26933228D01*
X157918500Y27200071D01*
X157918500Y27469929D01*
X157878280Y27736772D01*
X157798738Y27994641D01*
X157681651Y28237774D01*
X157529635Y28460741D01*
X157526433Y28464192D01*
X157526429Y28464197D01*
X157349285Y28655112D01*
X157346085Y28658561D01*
X157135102Y28826815D01*
X157131026Y28829169D01*
X157131022Y28829171D01*
X156905485Y28959384D01*
X156905478Y28959388D01*
X156901398Y28961743D01*
X156897014Y28963464D01*
X156897005Y28963468D01*
X156654588Y29058610D01*
X156654586Y29058611D01*
X156650195Y29060334D01*
X156645595Y29061384D01*
X156391704Y29119333D01*
X156391702Y29119334D01*
X156387103Y29120383D01*
X156382401Y29120736D01*
X156382397Y29120736D01*
X156187718Y29135325D01*
X156187704Y29135326D01*
X156185376Y29135500D01*
X156050624Y29135500D01*
X156048296Y29135326D01*
X156048281Y29135325D01*
X155853602Y29120736D01*
X155853596Y29120736D01*
X155848897Y29120383D01*
X155844299Y29119334D01*
X155844295Y29119333D01*
X155590404Y29061384D01*
X155590400Y29061383D01*
X155585805Y29060334D01*
X155581417Y29058612D01*
X155581411Y29058610D01*
X155338994Y28963468D01*
X155338979Y28963462D01*
X155334602Y28961743D01*
X155330526Y28959390D01*
X155330514Y28959384D01*
X155104977Y28829171D01*
X155104967Y28829165D01*
X155100898Y28826815D01*
X155097221Y28823884D01*
X155097217Y28823880D01*
X154893595Y28661496D01*
X154889915Y28658561D01*
X154886719Y28655118D01*
X154886714Y28655112D01*
X154709570Y28464197D01*
X154709559Y28464184D01*
X154706365Y28460741D01*
X154703715Y28456855D01*
X154703706Y28456843D01*
X154557005Y28241672D01*
X154556999Y28241664D01*
X154554349Y28237775D01*
X154552304Y28233530D01*
X154552303Y28233527D01*
X154439308Y27998891D01*
X154439304Y27998884D01*
X154437262Y27994641D01*
X154435876Y27990148D01*
X154435871Y27990135D01*
X154359108Y27741274D01*
X154359106Y27741266D01*
X154357720Y27736772D01*
X154357019Y27732122D01*
X154357018Y27732117D01*
X154318202Y27474591D01*
X154318201Y27474583D01*
X154317500Y27469929D01*
X154317500Y27200071D01*
X59186440Y27200071D01*
X59183521Y27233435D01*
X59124171Y27454930D01*
X59060305Y27591892D01*
X59048500Y27645142D01*
X59048500Y30828500D01*
X59065381Y30891500D01*
X59111500Y30937619D01*
X59174500Y30954500D01*
X105987955Y30954500D01*
X106008045Y30954500D01*
X159821500Y30954500D01*
X159884500Y30937619D01*
X159930619Y30891500D01*
X159947500Y30828500D01*
X159947500Y181500D01*
X159930619Y118500D01*
X159884500Y72381D01*
X159821500Y55500D01*
X174500Y55500D01*
X111500Y72381D01*
X65381Y118500D01*
X48500Y181500D01*
X48500Y3200071D01*
X2317500Y3200071D01*
X2318201Y3195417D01*
X2318202Y3195410D01*
X2357018Y2937884D01*
X2357720Y2933228D01*
X2359106Y2928732D01*
X2359108Y2928727D01*
X2435871Y2679866D01*
X2435874Y2679857D01*
X2437262Y2675359D01*
X2439307Y2671113D01*
X2439308Y2671110D01*
X2552302Y2436475D01*
X2552303Y2436474D01*
X2554349Y2432226D01*
X2706365Y2209259D01*
X2709565Y2205810D01*
X2709570Y2205804D01*
X2861133Y2042459D01*
X2889915Y2011439D01*
X3100898Y1843185D01*
X3334602Y1708257D01*
X3338991Y1706535D01*
X3338994Y1706533D01*
X3423544Y1673350D01*
X3585805Y1609666D01*
X3848897Y1549617D01*
X4050624Y1534500D01*
X4183023Y1534500D01*
X4185376Y1534500D01*
X4387103Y1549617D01*
X4650195Y1609666D01*
X4901398Y1708257D01*
X5135102Y1843185D01*
X5346085Y2011439D01*
X5529635Y2209259D01*
X5681651Y2432225D01*
X5798738Y2675359D01*
X5878280Y2933228D01*
X5918500Y3200071D01*
X154317500Y3200071D01*
X154318201Y3195417D01*
X154318202Y3195410D01*
X154357018Y2937884D01*
X154357720Y2933228D01*
X154359106Y2928732D01*
X154359108Y2928727D01*
X154435871Y2679866D01*
X154435874Y2679857D01*
X154437262Y2675359D01*
X154439307Y2671113D01*
X154439308Y2671110D01*
X154552302Y2436475D01*
X154552303Y2436474D01*
X154554349Y2432226D01*
X154706365Y2209259D01*
X154709565Y2205810D01*
X154709570Y2205804D01*
X154861133Y2042459D01*
X154889915Y2011439D01*
X155100898Y1843185D01*
X155334602Y1708257D01*
X155338991Y1706535D01*
X155338994Y1706533D01*
X155423544Y1673350D01*
X155585805Y1609666D01*
X155848897Y1549617D01*
X156050624Y1534500D01*
X156183023Y1534500D01*
X156185376Y1534500D01*
X156387103Y1549617D01*
X156650195Y1609666D01*
X156901398Y1708257D01*
X157135102Y1843185D01*
X157346085Y2011439D01*
X157529635Y2209259D01*
X157681651Y2432225D01*
X157798738Y2675359D01*
X157878280Y2933228D01*
X157918500Y3200071D01*
X157918500Y3469929D01*
X157878280Y3736772D01*
X157798738Y3994641D01*
X157736013Y4124890D01*
X157683697Y4233526D01*
X157683695Y4233529D01*
X157681651Y4237774D01*
X157529635Y4460741D01*
X157526433Y4464192D01*
X157526429Y4464197D01*
X157349285Y4655112D01*
X157346085Y4658561D01*
X157135102Y4826815D01*
X157131026Y4829169D01*
X157131022Y4829171D01*
X156905485Y4959384D01*
X156905478Y4959388D01*
X156901398Y4961743D01*
X156897014Y4963464D01*
X156897005Y4963468D01*
X156654588Y5058610D01*
X156654586Y5058611D01*
X156650195Y5060334D01*
X156617432Y5067812D01*
X156391704Y5119333D01*
X156391702Y5119334D01*
X156387103Y5120383D01*
X156382401Y5120736D01*
X156382397Y5120736D01*
X156187718Y5135325D01*
X156187704Y5135326D01*
X156185376Y5135500D01*
X156050624Y5135500D01*
X156048296Y5135326D01*
X156048281Y5135325D01*
X155853602Y5120736D01*
X155853596Y5120736D01*
X155848897Y5120383D01*
X155844299Y5119334D01*
X155844295Y5119333D01*
X155590404Y5061384D01*
X155590400Y5061383D01*
X155585805Y5060334D01*
X155581417Y5058612D01*
X155581411Y5058610D01*
X155338994Y4963468D01*
X155338979Y4963462D01*
X155334602Y4961743D01*
X155330526Y4959390D01*
X155330514Y4959384D01*
X155104977Y4829171D01*
X155104967Y4829165D01*
X155100898Y4826815D01*
X155097221Y4823884D01*
X155097217Y4823880D01*
X154933816Y4693571D01*
X154889915Y4658561D01*
X154886719Y4655118D01*
X154886714Y4655112D01*
X154709570Y4464197D01*
X154709559Y4464184D01*
X154706365Y4460741D01*
X154703715Y4456855D01*
X154703706Y4456843D01*
X154557005Y4241672D01*
X154556999Y4241664D01*
X154554349Y4237775D01*
X154552304Y4233530D01*
X154552303Y4233527D01*
X154439308Y3998891D01*
X154439304Y3998884D01*
X154437262Y3994641D01*
X154435876Y3990148D01*
X154435871Y3990135D01*
X154359108Y3741274D01*
X154359106Y3741266D01*
X154357720Y3736772D01*
X154357019Y3732122D01*
X154357018Y3732117D01*
X154318202Y3474591D01*
X154318201Y3474583D01*
X154317500Y3469929D01*
X154317500Y3200071D01*
X5918500Y3200071D01*
X5918500Y3469929D01*
X5878280Y3736772D01*
X5798738Y3994641D01*
X5736013Y4124890D01*
X5683697Y4233526D01*
X5683695Y4233529D01*
X5681651Y4237774D01*
X5529635Y4460741D01*
X5526433Y4464192D01*
X5526429Y4464197D01*
X5349285Y4655112D01*
X5346085Y4658561D01*
X5135102Y4826815D01*
X5131026Y4829169D01*
X5131022Y4829171D01*
X4905485Y4959384D01*
X4905478Y4959388D01*
X4901398Y4961743D01*
X4897014Y4963464D01*
X4897005Y4963468D01*
X4654588Y5058610D01*
X4654586Y5058611D01*
X4650195Y5060334D01*
X4617432Y5067812D01*
X4391704Y5119333D01*
X4391702Y5119334D01*
X4387103Y5120383D01*
X4382401Y5120736D01*
X4382397Y5120736D01*
X4187718Y5135325D01*
X4187704Y5135326D01*
X4185376Y5135500D01*
X4050624Y5135500D01*
X4048296Y5135326D01*
X4048281Y5135325D01*
X3853602Y5120736D01*
X3853596Y5120736D01*
X3848897Y5120383D01*
X3844299Y5119334D01*
X3844295Y5119333D01*
X3590404Y5061384D01*
X3590400Y5061383D01*
X3585805Y5060334D01*
X3581417Y5058612D01*
X3581411Y5058610D01*
X3338994Y4963468D01*
X3338979Y4963462D01*
X3334602Y4961743D01*
X3330526Y4959390D01*
X3330514Y4959384D01*
X3104977Y4829171D01*
X3104967Y4829165D01*
X3100898Y4826815D01*
X3097221Y4823884D01*
X3097217Y4823880D01*
X2933816Y4693571D01*
X2889915Y4658561D01*
X2886719Y4655118D01*
X2886714Y4655112D01*
X2709570Y4464197D01*
X2709559Y4464184D01*
X2706365Y4460741D01*
X2703715Y4456855D01*
X2703706Y4456843D01*
X2557005Y4241672D01*
X2556999Y4241664D01*
X2554349Y4237775D01*
X2552304Y4233530D01*
X2552303Y4233527D01*
X2439308Y3998891D01*
X2439304Y3998884D01*
X2437262Y3994641D01*
X2435876Y3990148D01*
X2435871Y3990135D01*
X2359108Y3741274D01*
X2359106Y3741266D01*
X2357720Y3736772D01*
X2357019Y3732122D01*
X2357018Y3732117D01*
X2318202Y3474591D01*
X2318201Y3474583D01*
X2317500Y3469929D01*
X2317500Y3200071D01*
X48500Y3200071D01*
X48500Y5185000D01*
X10591395Y5185000D01*
X10611769Y4965124D01*
X10672199Y4752736D01*
X10674793Y4747526D01*
X10674796Y4747519D01*
X10720810Y4655112D01*
X10770626Y4555069D01*
X10903698Y4378852D01*
X11066884Y4230089D01*
X11071833Y4227025D01*
X11238400Y4123890D01*
X11254627Y4113843D01*
X11260057Y4111740D01*
X11260060Y4111738D01*
X11319703Y4088633D01*
X11460533Y4034075D01*
X11677591Y3993500D01*
X11892581Y3993500D01*
X11898409Y3993500D01*
X12115467Y4034075D01*
X12321373Y4113843D01*
X12509116Y4230089D01*
X12594280Y4307726D01*
X19112500Y4307726D01*
X19113871Y4301273D01*
X19113872Y4301270D01*
X19151575Y4123890D01*
X19151576Y4123885D01*
X19152949Y4117429D01*
X19232078Y3939701D01*
X19235956Y3934364D01*
X19235958Y3934360D01*
X19342551Y3787648D01*
X19346431Y3782308D01*
X19491008Y3652130D01*
X19659492Y3554856D01*
X19844518Y3494738D01*
X19989496Y3479500D01*
X20083214Y3479500D01*
X20086504Y3479500D01*
X20231482Y3494738D01*
X20416508Y3554856D01*
X20584992Y3652130D01*
X20729569Y3782308D01*
X20843922Y3939701D01*
X20923051Y4117429D01*
X20963500Y4307726D01*
X20963500Y4502274D01*
X20923051Y4692571D01*
X20843922Y4870299D01*
X20729569Y5027692D01*
X20584992Y5157870D01*
X20538001Y5185000D01*
X27091395Y5185000D01*
X27111769Y4965124D01*
X27172199Y4752736D01*
X27174793Y4747526D01*
X27174796Y4747519D01*
X27220810Y4655112D01*
X27270626Y4555069D01*
X27403698Y4378852D01*
X27566884Y4230089D01*
X27571833Y4227025D01*
X27738400Y4123890D01*
X27754627Y4113843D01*
X27760057Y4111740D01*
X27760060Y4111738D01*
X27819703Y4088633D01*
X27960533Y4034075D01*
X28177591Y3993500D01*
X28392581Y3993500D01*
X28398409Y3993500D01*
X28615467Y4034075D01*
X28821373Y4113843D01*
X29009116Y4230089D01*
X29172302Y4378852D01*
X29305374Y4555069D01*
X29403801Y4752736D01*
X29464231Y4965124D01*
X29484605Y5185000D01*
X29484512Y5186000D01*
X34487395Y5186000D01*
X34507769Y4966124D01*
X34568199Y4753736D01*
X34570793Y4748526D01*
X34570796Y4748519D01*
X34617308Y4655112D01*
X34666626Y4556069D01*
X34799698Y4379852D01*
X34962884Y4231089D01*
X34967833Y4228025D01*
X35136015Y4123890D01*
X35150627Y4114843D01*
X35156057Y4112740D01*
X35156060Y4112738D01*
X35215703Y4089633D01*
X35356533Y4035075D01*
X35573591Y3994500D01*
X35788581Y3994500D01*
X35794409Y3994500D01*
X36011467Y4035075D01*
X36217373Y4114843D01*
X36405116Y4231089D01*
X36490280Y4308726D01*
X43008500Y4308726D01*
X43009871Y4302273D01*
X43009872Y4302270D01*
X43047575Y4124890D01*
X43047576Y4124885D01*
X43048949Y4118429D01*
X43128078Y3940701D01*
X43242431Y3783308D01*
X43387008Y3653130D01*
X43555492Y3555856D01*
X43740518Y3495738D01*
X43885496Y3480500D01*
X43979214Y3480500D01*
X43982504Y3480500D01*
X44127482Y3495738D01*
X44312508Y3555856D01*
X44480992Y3653130D01*
X44625569Y3783308D01*
X44739922Y3940701D01*
X44819051Y4118429D01*
X44859500Y4308726D01*
X44859500Y4503274D01*
X44819051Y4693571D01*
X44739922Y4871299D01*
X44733608Y4879989D01*
X44629448Y5023353D01*
X44625569Y5028692D01*
X44480992Y5158870D01*
X44434001Y5186000D01*
X50987395Y5186000D01*
X51007769Y4966124D01*
X51068199Y4753736D01*
X51070793Y4748526D01*
X51070796Y4748519D01*
X51117308Y4655112D01*
X51166626Y4556069D01*
X51299698Y4379852D01*
X51462884Y4231089D01*
X51467833Y4228025D01*
X51636015Y4123890D01*
X51650627Y4114843D01*
X51656057Y4112740D01*
X51656060Y4112738D01*
X51715703Y4089633D01*
X51856533Y4035075D01*
X52073591Y3994500D01*
X52288581Y3994500D01*
X52294409Y3994500D01*
X52511467Y4035075D01*
X52717373Y4114843D01*
X52905116Y4231089D01*
X53068302Y4379852D01*
X53201374Y4556069D01*
X53299801Y4753736D01*
X53360231Y4966124D01*
X53380512Y5185000D01*
X58387395Y5185000D01*
X58407769Y4965124D01*
X58468199Y4752736D01*
X58470793Y4747526D01*
X58470796Y4747519D01*
X58516810Y4655112D01*
X58566626Y4555069D01*
X58699698Y4378852D01*
X58862884Y4230089D01*
X58867833Y4227025D01*
X59034400Y4123890D01*
X59050627Y4113843D01*
X59056057Y4111740D01*
X59056060Y4111738D01*
X59115703Y4088633D01*
X59256533Y4034075D01*
X59473591Y3993500D01*
X59688581Y3993500D01*
X59694409Y3993500D01*
X59911467Y4034075D01*
X60117373Y4113843D01*
X60305116Y4230089D01*
X60390280Y4307726D01*
X66908500Y4307726D01*
X66909871Y4301273D01*
X66909872Y4301270D01*
X66947575Y4123890D01*
X66947576Y4123885D01*
X66948949Y4117429D01*
X67028078Y3939701D01*
X67031956Y3934364D01*
X67031958Y3934360D01*
X67138551Y3787648D01*
X67142431Y3782308D01*
X67287008Y3652130D01*
X67455492Y3554856D01*
X67640518Y3494738D01*
X67785496Y3479500D01*
X67879214Y3479500D01*
X67882504Y3479500D01*
X68027482Y3494738D01*
X68212508Y3554856D01*
X68380992Y3652130D01*
X68525569Y3782308D01*
X68639922Y3939701D01*
X68719051Y4117429D01*
X68759500Y4307726D01*
X68759500Y4502274D01*
X68719051Y4692571D01*
X68639922Y4870299D01*
X68525569Y5027692D01*
X68380992Y5157870D01*
X68359982Y5170000D01*
X72322479Y5170000D01*
X72324393Y5159145D01*
X72340497Y5067812D01*
X72340498Y5067809D01*
X72342412Y5056955D01*
X72347923Y5047410D01*
X72347924Y5047407D01*
X72394295Y4967090D01*
X72399806Y4957545D01*
X72487739Y4883760D01*
X72595606Y4844500D01*
X72699367Y4844500D01*
X72710394Y4844500D01*
X72818261Y4883760D01*
X72906194Y4957545D01*
X72963588Y5056955D01*
X72981382Y5157870D01*
X72981607Y5159145D01*
X72983521Y5170000D01*
X72980876Y5185000D01*
X74887395Y5185000D01*
X74907769Y4965124D01*
X74968199Y4752736D01*
X74970793Y4747526D01*
X74970796Y4747519D01*
X75016810Y4655112D01*
X75066626Y4555069D01*
X75199698Y4378852D01*
X75362884Y4230089D01*
X75367833Y4227025D01*
X75534400Y4123890D01*
X75550627Y4113843D01*
X75556057Y4111740D01*
X75556060Y4111738D01*
X75615703Y4088633D01*
X75756533Y4034075D01*
X75973591Y3993500D01*
X76188581Y3993500D01*
X76194409Y3993500D01*
X76411467Y4034075D01*
X76617373Y4113843D01*
X76805116Y4230089D01*
X76968302Y4378852D01*
X77101374Y4555069D01*
X77199801Y4752736D01*
X77260231Y4965124D01*
X77280605Y5185000D01*
X82285395Y5185000D01*
X82305769Y4965124D01*
X82366199Y4752736D01*
X82368793Y4747526D01*
X82368796Y4747519D01*
X82414810Y4655112D01*
X82464626Y4555069D01*
X82597698Y4378852D01*
X82760884Y4230089D01*
X82765833Y4227025D01*
X82932400Y4123890D01*
X82948627Y4113843D01*
X82954057Y4111740D01*
X82954060Y4111738D01*
X83013703Y4088633D01*
X83154533Y4034075D01*
X83371591Y3993500D01*
X83586581Y3993500D01*
X83592409Y3993500D01*
X83809467Y4034075D01*
X84015373Y4113843D01*
X84203116Y4230089D01*
X84288280Y4307726D01*
X90806500Y4307726D01*
X90807871Y4301273D01*
X90807872Y4301270D01*
X90845575Y4123890D01*
X90845576Y4123885D01*
X90846949Y4117429D01*
X90926078Y3939701D01*
X90929956Y3934364D01*
X90929958Y3934360D01*
X91036551Y3787648D01*
X91040431Y3782308D01*
X91185008Y3652130D01*
X91353492Y3554856D01*
X91538518Y3494738D01*
X91683496Y3479500D01*
X91777214Y3479500D01*
X91780504Y3479500D01*
X91925482Y3494738D01*
X92110508Y3554856D01*
X92278992Y3652130D01*
X92423569Y3782308D01*
X92537922Y3939701D01*
X92617051Y4117429D01*
X92657500Y4307726D01*
X92657500Y4502274D01*
X92617051Y4692571D01*
X92537922Y4870299D01*
X92423569Y5027692D01*
X92278992Y5157870D01*
X92232001Y5185000D01*
X98785395Y5185000D01*
X98805769Y4965124D01*
X98866199Y4752736D01*
X98868793Y4747526D01*
X98868796Y4747519D01*
X98914810Y4655112D01*
X98964626Y4555069D01*
X99097698Y4378852D01*
X99260884Y4230089D01*
X99265833Y4227025D01*
X99432400Y4123890D01*
X99448627Y4113843D01*
X99454057Y4111740D01*
X99454060Y4111738D01*
X99513703Y4088633D01*
X99654533Y4034075D01*
X99871591Y3993500D01*
X100086581Y3993500D01*
X100092409Y3993500D01*
X100309467Y4034075D01*
X100515373Y4113843D01*
X100703116Y4230089D01*
X100866302Y4378852D01*
X100999374Y4555069D01*
X101097801Y4752736D01*
X101158231Y4965124D01*
X101178605Y5185000D01*
X106183395Y5185000D01*
X106203769Y4965124D01*
X106264199Y4752736D01*
X106266793Y4747526D01*
X106266796Y4747519D01*
X106312810Y4655112D01*
X106362626Y4555069D01*
X106495698Y4378852D01*
X106658884Y4230089D01*
X106663833Y4227025D01*
X106830400Y4123890D01*
X106846627Y4113843D01*
X106852057Y4111740D01*
X106852060Y4111738D01*
X106911703Y4088633D01*
X107052533Y4034075D01*
X107269591Y3993500D01*
X107484581Y3993500D01*
X107490409Y3993500D01*
X107707467Y4034075D01*
X107913373Y4113843D01*
X108101116Y4230089D01*
X108186280Y4307726D01*
X114704500Y4307726D01*
X114705871Y4301273D01*
X114705872Y4301270D01*
X114743575Y4123890D01*
X114743576Y4123885D01*
X114744949Y4117429D01*
X114824078Y3939701D01*
X114827956Y3934364D01*
X114827958Y3934360D01*
X114934551Y3787648D01*
X114938431Y3782308D01*
X115083008Y3652130D01*
X115251492Y3554856D01*
X115436518Y3494738D01*
X115581496Y3479500D01*
X115675214Y3479500D01*
X115678504Y3479500D01*
X115823482Y3494738D01*
X116008508Y3554856D01*
X116176992Y3652130D01*
X116321569Y3782308D01*
X116435922Y3939701D01*
X116515051Y4117429D01*
X116555500Y4307726D01*
X116555500Y4502274D01*
X116515051Y4692571D01*
X116435922Y4870299D01*
X116321569Y5027692D01*
X116176992Y5157870D01*
X116130001Y5185000D01*
X122683395Y5185000D01*
X122703769Y4965124D01*
X122764199Y4752736D01*
X122766793Y4747526D01*
X122766796Y4747519D01*
X122812810Y4655112D01*
X122862626Y4555069D01*
X122995698Y4378852D01*
X123158884Y4230089D01*
X123163833Y4227025D01*
X123330400Y4123890D01*
X123346627Y4113843D01*
X123352057Y4111740D01*
X123352060Y4111738D01*
X123411703Y4088633D01*
X123552533Y4034075D01*
X123769591Y3993500D01*
X123984581Y3993500D01*
X123990409Y3993500D01*
X124207467Y4034075D01*
X124413373Y4113843D01*
X124601116Y4230089D01*
X124764302Y4378852D01*
X124897374Y4555069D01*
X124995801Y4752736D01*
X125056231Y4965124D01*
X125076605Y5185000D01*
X130081395Y5185000D01*
X130101769Y4965124D01*
X130162199Y4752736D01*
X130164793Y4747526D01*
X130164796Y4747519D01*
X130210810Y4655112D01*
X130260626Y4555069D01*
X130393698Y4378852D01*
X130556884Y4230089D01*
X130561833Y4227025D01*
X130728400Y4123890D01*
X130744627Y4113843D01*
X130750057Y4111740D01*
X130750060Y4111738D01*
X130809703Y4088633D01*
X130950533Y4034075D01*
X131167591Y3993500D01*
X131382581Y3993500D01*
X131388409Y3993500D01*
X131605467Y4034075D01*
X131811373Y4113843D01*
X131999116Y4230089D01*
X132084280Y4307726D01*
X138602500Y4307726D01*
X138603871Y4301273D01*
X138603872Y4301270D01*
X138641575Y4123890D01*
X138641576Y4123885D01*
X138642949Y4117429D01*
X138722078Y3939701D01*
X138725956Y3934364D01*
X138725958Y3934360D01*
X138832551Y3787648D01*
X138836431Y3782308D01*
X138981008Y3652130D01*
X139149492Y3554856D01*
X139334518Y3494738D01*
X139479496Y3479500D01*
X139573214Y3479500D01*
X139576504Y3479500D01*
X139721482Y3494738D01*
X139906508Y3554856D01*
X140074992Y3652130D01*
X140219569Y3782308D01*
X140333922Y3939701D01*
X140413051Y4117429D01*
X140453500Y4307726D01*
X140453500Y4502274D01*
X140413051Y4692571D01*
X140333922Y4870299D01*
X140219569Y5027692D01*
X140074992Y5157870D01*
X140028001Y5185000D01*
X146581395Y5185000D01*
X146601769Y4965124D01*
X146662199Y4752736D01*
X146664793Y4747526D01*
X146664796Y4747519D01*
X146710810Y4655112D01*
X146760626Y4555069D01*
X146893698Y4378852D01*
X147056884Y4230089D01*
X147061833Y4227025D01*
X147228400Y4123890D01*
X147244627Y4113843D01*
X147250057Y4111740D01*
X147250060Y4111738D01*
X147309703Y4088633D01*
X147450533Y4034075D01*
X147667591Y3993500D01*
X147882581Y3993500D01*
X147888409Y3993500D01*
X148105467Y4034075D01*
X148311373Y4113843D01*
X148499116Y4230089D01*
X148662302Y4378852D01*
X148795374Y4555069D01*
X148893801Y4752736D01*
X148954231Y4965124D01*
X148974605Y5185000D01*
X148954231Y5404876D01*
X148893801Y5617264D01*
X148882457Y5640045D01*
X148797971Y5809715D01*
X148795374Y5814931D01*
X148662302Y5991148D01*
X148499116Y6139911D01*
X148492551Y6143976D01*
X148316329Y6253089D01*
X148316323Y6253092D01*
X148311373Y6256157D01*
X148305946Y6258260D01*
X148305939Y6258263D01*
X148110893Y6333823D01*
X148110892Y6333824D01*
X148105467Y6335925D01*
X148099748Y6336994D01*
X148099745Y6336995D01*
X147894135Y6375430D01*
X147894131Y6375431D01*
X147888409Y6376500D01*
X147667591Y6376500D01*
X147661869Y6375431D01*
X147661864Y6375430D01*
X147456254Y6336995D01*
X147456248Y6336994D01*
X147450533Y6335925D01*
X147445110Y6333825D01*
X147445106Y6333823D01*
X147250060Y6258263D01*
X147250048Y6258258D01*
X147244627Y6256157D01*
X147239680Y6253095D01*
X147239670Y6253089D01*
X147061833Y6142976D01*
X147061827Y6142973D01*
X147056884Y6139911D01*
X147052583Y6135991D01*
X147052580Y6135988D01*
X146898006Y5995076D01*
X146898001Y5995072D01*
X146893698Y5991148D01*
X146890188Y5986502D01*
X146890186Y5986498D01*
X146764136Y5819580D01*
X146764132Y5819575D01*
X146760626Y5814931D01*
X146758031Y5809721D01*
X146758028Y5809715D01*
X146664796Y5622482D01*
X146664791Y5622471D01*
X146662199Y5617264D01*
X146660605Y5611663D01*
X146660605Y5611662D01*
X146614368Y5449155D01*
X146601769Y5404876D01*
X146601232Y5399084D01*
X146601232Y5399082D01*
X146588084Y5257186D01*
X146581395Y5185000D01*
X140028001Y5185000D01*
X139906508Y5255144D01*
X139791248Y5292594D01*
X139727761Y5313222D01*
X139727759Y5313223D01*
X139721482Y5315262D01*
X139714918Y5315952D01*
X139579773Y5330157D01*
X139579761Y5330158D01*
X139576504Y5330500D01*
X139479496Y5330500D01*
X139476239Y5330158D01*
X139476226Y5330157D01*
X139341081Y5315952D01*
X139341079Y5315952D01*
X139334518Y5315262D01*
X139328242Y5313223D01*
X139328238Y5313222D01*
X139155776Y5257186D01*
X139155774Y5257186D01*
X139149492Y5255144D01*
X139143770Y5251841D01*
X139143769Y5251840D01*
X138986728Y5161173D01*
X138986724Y5161171D01*
X138981008Y5157870D01*
X138976101Y5153452D01*
X138976100Y5153451D01*
X138858327Y5047407D01*
X138836431Y5027692D01*
X138832556Y5022359D01*
X138832551Y5022353D01*
X138725958Y4875641D01*
X138725953Y4875633D01*
X138722078Y4870299D01*
X138719393Y4864271D01*
X138719392Y4864267D01*
X138645636Y4698607D01*
X138642949Y4692571D01*
X138641577Y4686119D01*
X138641575Y4686111D01*
X138604085Y4509731D01*
X138602500Y4502274D01*
X138602500Y4307726D01*
X132084280Y4307726D01*
X132162302Y4378852D01*
X132295374Y4555069D01*
X132393801Y4752736D01*
X132454231Y4965124D01*
X132474605Y5185000D01*
X132454231Y5404876D01*
X132393801Y5617264D01*
X132382457Y5640045D01*
X132297971Y5809715D01*
X132295374Y5814931D01*
X132162302Y5991148D01*
X131999116Y6139911D01*
X131992551Y6143976D01*
X131816329Y6253089D01*
X131816323Y6253092D01*
X131811373Y6256157D01*
X131805946Y6258260D01*
X131805939Y6258263D01*
X131610893Y6333823D01*
X131610892Y6333824D01*
X131605467Y6335925D01*
X131599748Y6336994D01*
X131599745Y6336995D01*
X131394135Y6375430D01*
X131394131Y6375431D01*
X131388409Y6376500D01*
X131167591Y6376500D01*
X131161869Y6375431D01*
X131161864Y6375430D01*
X130956254Y6336995D01*
X130956248Y6336994D01*
X130950533Y6335925D01*
X130945110Y6333825D01*
X130945106Y6333823D01*
X130750060Y6258263D01*
X130750048Y6258258D01*
X130744627Y6256157D01*
X130739680Y6253095D01*
X130739670Y6253089D01*
X130561833Y6142976D01*
X130561827Y6142973D01*
X130556884Y6139911D01*
X130552583Y6135991D01*
X130552580Y6135988D01*
X130398006Y5995076D01*
X130398001Y5995072D01*
X130393698Y5991148D01*
X130390188Y5986502D01*
X130390186Y5986498D01*
X130264136Y5819580D01*
X130264132Y5819575D01*
X130260626Y5814931D01*
X130258031Y5809721D01*
X130258028Y5809715D01*
X130164796Y5622482D01*
X130164791Y5622471D01*
X130162199Y5617264D01*
X130160605Y5611663D01*
X130160605Y5611662D01*
X130114368Y5449155D01*
X130101769Y5404876D01*
X130101232Y5399084D01*
X130101232Y5399082D01*
X130088084Y5257186D01*
X130081395Y5185000D01*
X125076605Y5185000D01*
X125056231Y5404876D01*
X124995801Y5617264D01*
X124984457Y5640045D01*
X124899971Y5809715D01*
X124897374Y5814931D01*
X124764302Y5991148D01*
X124601116Y6139911D01*
X124594551Y6143976D01*
X124418329Y6253089D01*
X124418323Y6253092D01*
X124413373Y6256157D01*
X124407946Y6258260D01*
X124407939Y6258263D01*
X124212893Y6333823D01*
X124212892Y6333824D01*
X124207467Y6335925D01*
X124201748Y6336994D01*
X124201745Y6336995D01*
X123996135Y6375430D01*
X123996131Y6375431D01*
X123990409Y6376500D01*
X123769591Y6376500D01*
X123763869Y6375431D01*
X123763864Y6375430D01*
X123558254Y6336995D01*
X123558248Y6336994D01*
X123552533Y6335925D01*
X123547110Y6333825D01*
X123547106Y6333823D01*
X123352060Y6258263D01*
X123352048Y6258258D01*
X123346627Y6256157D01*
X123341680Y6253095D01*
X123341670Y6253089D01*
X123163833Y6142976D01*
X123163827Y6142973D01*
X123158884Y6139911D01*
X123154583Y6135991D01*
X123154580Y6135988D01*
X123000006Y5995076D01*
X123000001Y5995072D01*
X122995698Y5991148D01*
X122992188Y5986502D01*
X122992186Y5986498D01*
X122866136Y5819580D01*
X122866132Y5819575D01*
X122862626Y5814931D01*
X122860031Y5809721D01*
X122860028Y5809715D01*
X122766796Y5622482D01*
X122766791Y5622471D01*
X122764199Y5617264D01*
X122762605Y5611663D01*
X122762605Y5611662D01*
X122716368Y5449155D01*
X122703769Y5404876D01*
X122703232Y5399084D01*
X122703232Y5399082D01*
X122690084Y5257186D01*
X122683395Y5185000D01*
X116130001Y5185000D01*
X116008508Y5255144D01*
X115893248Y5292594D01*
X115829761Y5313222D01*
X115829759Y5313223D01*
X115823482Y5315262D01*
X115816918Y5315952D01*
X115681773Y5330157D01*
X115681761Y5330158D01*
X115678504Y5330500D01*
X115581496Y5330500D01*
X115578239Y5330158D01*
X115578226Y5330157D01*
X115443081Y5315952D01*
X115443079Y5315952D01*
X115436518Y5315262D01*
X115430242Y5313223D01*
X115430238Y5313222D01*
X115257776Y5257186D01*
X115257774Y5257186D01*
X115251492Y5255144D01*
X115245770Y5251841D01*
X115245769Y5251840D01*
X115088728Y5161173D01*
X115088724Y5161171D01*
X115083008Y5157870D01*
X115078101Y5153452D01*
X115078100Y5153451D01*
X114960327Y5047407D01*
X114938431Y5027692D01*
X114934556Y5022359D01*
X114934551Y5022353D01*
X114827958Y4875641D01*
X114827953Y4875633D01*
X114824078Y4870299D01*
X114821393Y4864271D01*
X114821392Y4864267D01*
X114747636Y4698607D01*
X114744949Y4692571D01*
X114743577Y4686119D01*
X114743575Y4686111D01*
X114706085Y4509731D01*
X114704500Y4502274D01*
X114704500Y4307726D01*
X108186280Y4307726D01*
X108264302Y4378852D01*
X108397374Y4555069D01*
X108495801Y4752736D01*
X108556231Y4965124D01*
X108576605Y5185000D01*
X108556231Y5404876D01*
X108521483Y5527000D01*
X116700479Y5527000D01*
X116702393Y5516145D01*
X116718497Y5424812D01*
X116718498Y5424809D01*
X116720412Y5413955D01*
X116725923Y5404410D01*
X116725924Y5404407D01*
X116744110Y5372908D01*
X116777806Y5314545D01*
X116865739Y5240760D01*
X116973606Y5201500D01*
X117077367Y5201500D01*
X117088394Y5201500D01*
X117196261Y5240760D01*
X117284194Y5314545D01*
X117341588Y5413955D01*
X117361521Y5527000D01*
X117341588Y5640045D01*
X117284194Y5739455D01*
X117196261Y5813240D01*
X117185901Y5817011D01*
X117185899Y5817012D01*
X117098756Y5848729D01*
X117098753Y5848730D01*
X117088394Y5852500D01*
X116973606Y5852500D01*
X116963246Y5848730D01*
X116963244Y5848729D01*
X116876099Y5817011D01*
X116876096Y5817010D01*
X116865740Y5813240D01*
X116857299Y5806158D01*
X116857295Y5806155D01*
X116786251Y5746542D01*
X116786248Y5746540D01*
X116777806Y5739455D01*
X116772296Y5729913D01*
X116772293Y5729908D01*
X116725924Y5649594D01*
X116725922Y5649589D01*
X116720412Y5640045D01*
X116718498Y5629194D01*
X116718497Y5629189D01*
X116715407Y5611662D01*
X116700479Y5527000D01*
X108521483Y5527000D01*
X108495801Y5617264D01*
X108484457Y5640045D01*
X108399971Y5809715D01*
X108397374Y5814931D01*
X108264302Y5991148D01*
X108101116Y6139911D01*
X108094551Y6143976D01*
X107918329Y6253089D01*
X107918323Y6253092D01*
X107913373Y6256157D01*
X107907946Y6258260D01*
X107907939Y6258263D01*
X107712893Y6333823D01*
X107712892Y6333824D01*
X107707467Y6335925D01*
X107701748Y6336994D01*
X107701745Y6336995D01*
X107496135Y6375430D01*
X107496131Y6375431D01*
X107490409Y6376500D01*
X107269591Y6376500D01*
X107263869Y6375431D01*
X107263864Y6375430D01*
X107058254Y6336995D01*
X107058248Y6336994D01*
X107052533Y6335925D01*
X107047110Y6333825D01*
X107047106Y6333823D01*
X106852060Y6258263D01*
X106852048Y6258258D01*
X106846627Y6256157D01*
X106841680Y6253095D01*
X106841670Y6253089D01*
X106663833Y6142976D01*
X106663827Y6142973D01*
X106658884Y6139911D01*
X106654583Y6135991D01*
X106654580Y6135988D01*
X106500006Y5995076D01*
X106500001Y5995072D01*
X106495698Y5991148D01*
X106492188Y5986502D01*
X106492186Y5986498D01*
X106366136Y5819580D01*
X106366132Y5819575D01*
X106362626Y5814931D01*
X106360031Y5809721D01*
X106360028Y5809715D01*
X106266796Y5622482D01*
X106266791Y5622471D01*
X106264199Y5617264D01*
X106262605Y5611663D01*
X106262605Y5611662D01*
X106216368Y5449155D01*
X106203769Y5404876D01*
X106203232Y5399084D01*
X106203232Y5399082D01*
X106190084Y5257186D01*
X106183395Y5185000D01*
X101178605Y5185000D01*
X101158231Y5404876D01*
X101097801Y5617264D01*
X101086457Y5640045D01*
X101001971Y5809715D01*
X100999374Y5814931D01*
X100866302Y5991148D01*
X100703116Y6139911D01*
X100696551Y6143976D01*
X100520329Y6253089D01*
X100520323Y6253092D01*
X100515373Y6256157D01*
X100509946Y6258260D01*
X100509939Y6258263D01*
X100314893Y6333823D01*
X100314892Y6333824D01*
X100309467Y6335925D01*
X100303748Y6336994D01*
X100303745Y6336995D01*
X100098135Y6375430D01*
X100098131Y6375431D01*
X100092409Y6376500D01*
X99871591Y6376500D01*
X99865869Y6375431D01*
X99865864Y6375430D01*
X99660254Y6336995D01*
X99660248Y6336994D01*
X99654533Y6335925D01*
X99649110Y6333825D01*
X99649106Y6333823D01*
X99454060Y6258263D01*
X99454048Y6258258D01*
X99448627Y6256157D01*
X99443680Y6253095D01*
X99443670Y6253089D01*
X99265833Y6142976D01*
X99265827Y6142973D01*
X99260884Y6139911D01*
X99256583Y6135991D01*
X99256580Y6135988D01*
X99102006Y5995076D01*
X99102001Y5995072D01*
X99097698Y5991148D01*
X99094188Y5986502D01*
X99094186Y5986498D01*
X98968136Y5819580D01*
X98968132Y5819575D01*
X98964626Y5814931D01*
X98962031Y5809721D01*
X98962028Y5809715D01*
X98868796Y5622482D01*
X98868791Y5622471D01*
X98866199Y5617264D01*
X98864605Y5611663D01*
X98864605Y5611662D01*
X98818368Y5449155D01*
X98805769Y5404876D01*
X98805232Y5399084D01*
X98805232Y5399082D01*
X98792084Y5257186D01*
X98785395Y5185000D01*
X92232001Y5185000D01*
X92110508Y5255144D01*
X91995248Y5292594D01*
X91931761Y5313222D01*
X91931759Y5313223D01*
X91925482Y5315262D01*
X91918918Y5315952D01*
X91783773Y5330157D01*
X91783761Y5330158D01*
X91780504Y5330500D01*
X91683496Y5330500D01*
X91680239Y5330158D01*
X91680226Y5330157D01*
X91545081Y5315952D01*
X91545079Y5315952D01*
X91538518Y5315262D01*
X91532242Y5313223D01*
X91532238Y5313222D01*
X91359776Y5257186D01*
X91359774Y5257186D01*
X91353492Y5255144D01*
X91347770Y5251841D01*
X91347769Y5251840D01*
X91190728Y5161173D01*
X91190724Y5161171D01*
X91185008Y5157870D01*
X91180101Y5153452D01*
X91180100Y5153451D01*
X91062327Y5047407D01*
X91040431Y5027692D01*
X91036556Y5022359D01*
X91036551Y5022353D01*
X90929958Y4875641D01*
X90929953Y4875633D01*
X90926078Y4870299D01*
X90923393Y4864271D01*
X90923392Y4864267D01*
X90849636Y4698607D01*
X90846949Y4692571D01*
X90845577Y4686119D01*
X90845575Y4686111D01*
X90808085Y4509731D01*
X90806500Y4502274D01*
X90806500Y4307726D01*
X84288280Y4307726D01*
X84366302Y4378852D01*
X84499374Y4555069D01*
X84597801Y4752736D01*
X84658231Y4965124D01*
X84678605Y5185000D01*
X84658231Y5404876D01*
X84597801Y5617264D01*
X84586457Y5640045D01*
X84501971Y5809715D01*
X84499374Y5814931D01*
X84366302Y5991148D01*
X84203116Y6139911D01*
X84196551Y6143976D01*
X84020329Y6253089D01*
X84020323Y6253092D01*
X84015373Y6256157D01*
X84009946Y6258260D01*
X84009939Y6258263D01*
X83814893Y6333823D01*
X83814892Y6333824D01*
X83809467Y6335925D01*
X83803748Y6336994D01*
X83803745Y6336995D01*
X83598135Y6375430D01*
X83598131Y6375431D01*
X83592409Y6376500D01*
X83371591Y6376500D01*
X83365869Y6375431D01*
X83365864Y6375430D01*
X83160254Y6336995D01*
X83160248Y6336994D01*
X83154533Y6335925D01*
X83149110Y6333825D01*
X83149106Y6333823D01*
X82954060Y6258263D01*
X82954048Y6258258D01*
X82948627Y6256157D01*
X82943680Y6253095D01*
X82943670Y6253089D01*
X82765833Y6142976D01*
X82765827Y6142973D01*
X82760884Y6139911D01*
X82756583Y6135991D01*
X82756580Y6135988D01*
X82602006Y5995076D01*
X82602001Y5995072D01*
X82597698Y5991148D01*
X82594188Y5986502D01*
X82594186Y5986498D01*
X82468136Y5819580D01*
X82468132Y5819575D01*
X82464626Y5814931D01*
X82462031Y5809721D01*
X82462028Y5809715D01*
X82368796Y5622482D01*
X82368791Y5622471D01*
X82366199Y5617264D01*
X82364605Y5611663D01*
X82364605Y5611662D01*
X82318368Y5449155D01*
X82305769Y5404876D01*
X82305232Y5399084D01*
X82305232Y5399082D01*
X82292084Y5257186D01*
X82285395Y5185000D01*
X77280605Y5185000D01*
X77260231Y5404876D01*
X77199801Y5617264D01*
X77188457Y5640045D01*
X77103971Y5809715D01*
X77101374Y5814931D01*
X76968302Y5991148D01*
X76805116Y6139911D01*
X76798551Y6143976D01*
X76622329Y6253089D01*
X76622323Y6253092D01*
X76617373Y6256157D01*
X76611946Y6258260D01*
X76611939Y6258263D01*
X76416893Y6333823D01*
X76416892Y6333824D01*
X76411467Y6335925D01*
X76405748Y6336994D01*
X76405745Y6336995D01*
X76200135Y6375430D01*
X76200131Y6375431D01*
X76194409Y6376500D01*
X75973591Y6376500D01*
X75967869Y6375431D01*
X75967864Y6375430D01*
X75762254Y6336995D01*
X75762248Y6336994D01*
X75756533Y6335925D01*
X75751110Y6333825D01*
X75751106Y6333823D01*
X75556060Y6258263D01*
X75556048Y6258258D01*
X75550627Y6256157D01*
X75545680Y6253095D01*
X75545670Y6253089D01*
X75367833Y6142976D01*
X75367827Y6142973D01*
X75362884Y6139911D01*
X75358583Y6135991D01*
X75358580Y6135988D01*
X75204006Y5995076D01*
X75204001Y5995072D01*
X75199698Y5991148D01*
X75196188Y5986502D01*
X75196186Y5986498D01*
X75070136Y5819580D01*
X75070132Y5819575D01*
X75066626Y5814931D01*
X75064031Y5809721D01*
X75064028Y5809715D01*
X74970796Y5622482D01*
X74970791Y5622471D01*
X74968199Y5617264D01*
X74966605Y5611663D01*
X74966605Y5611662D01*
X74920368Y5449155D01*
X74907769Y5404876D01*
X74907232Y5399084D01*
X74907232Y5399082D01*
X74894084Y5257186D01*
X74887395Y5185000D01*
X72980876Y5185000D01*
X72963588Y5283045D01*
X72906194Y5382455D01*
X72818261Y5456240D01*
X72807901Y5460011D01*
X72807899Y5460012D01*
X72720756Y5491729D01*
X72720753Y5491730D01*
X72710394Y5495500D01*
X72595606Y5495500D01*
X72585246Y5491730D01*
X72585244Y5491729D01*
X72498099Y5460011D01*
X72498096Y5460010D01*
X72487740Y5456240D01*
X72479299Y5449158D01*
X72479295Y5449155D01*
X72408251Y5389542D01*
X72408248Y5389540D01*
X72399806Y5382455D01*
X72394296Y5372913D01*
X72394293Y5372908D01*
X72347924Y5292594D01*
X72347922Y5292589D01*
X72342412Y5283045D01*
X72340498Y5272194D01*
X72340497Y5272189D01*
X72334291Y5236989D01*
X72322479Y5170000D01*
X68359982Y5170000D01*
X68212508Y5255144D01*
X68097248Y5292594D01*
X68033761Y5313222D01*
X68033759Y5313223D01*
X68027482Y5315262D01*
X68020918Y5315952D01*
X67885773Y5330157D01*
X67885761Y5330158D01*
X67882504Y5330500D01*
X67785496Y5330500D01*
X67782239Y5330158D01*
X67782226Y5330157D01*
X67647081Y5315952D01*
X67647079Y5315952D01*
X67640518Y5315262D01*
X67634242Y5313223D01*
X67634238Y5313222D01*
X67461776Y5257186D01*
X67461774Y5257186D01*
X67455492Y5255144D01*
X67449770Y5251841D01*
X67449769Y5251840D01*
X67292728Y5161173D01*
X67292724Y5161171D01*
X67287008Y5157870D01*
X67282101Y5153452D01*
X67282100Y5153451D01*
X67164327Y5047407D01*
X67142431Y5027692D01*
X67138556Y5022359D01*
X67138551Y5022353D01*
X67031958Y4875641D01*
X67031953Y4875633D01*
X67028078Y4870299D01*
X67025393Y4864271D01*
X67025392Y4864267D01*
X66951636Y4698607D01*
X66948949Y4692571D01*
X66947577Y4686119D01*
X66947575Y4686111D01*
X66910085Y4509731D01*
X66908500Y4502274D01*
X66908500Y4307726D01*
X60390280Y4307726D01*
X60468302Y4378852D01*
X60601374Y4555069D01*
X60699801Y4752736D01*
X60760231Y4965124D01*
X60780605Y5185000D01*
X60760231Y5404876D01*
X60699801Y5617264D01*
X60688457Y5640045D01*
X60603971Y5809715D01*
X60601374Y5814931D01*
X60468302Y5991148D01*
X60305116Y6139911D01*
X60298551Y6143976D01*
X60122329Y6253089D01*
X60122323Y6253092D01*
X60117373Y6256157D01*
X60111946Y6258260D01*
X60111939Y6258263D01*
X59916893Y6333823D01*
X59916892Y6333824D01*
X59911467Y6335925D01*
X59905748Y6336994D01*
X59905745Y6336995D01*
X59700135Y6375430D01*
X59700131Y6375431D01*
X59694409Y6376500D01*
X59473591Y6376500D01*
X59467869Y6375431D01*
X59467864Y6375430D01*
X59262254Y6336995D01*
X59262248Y6336994D01*
X59256533Y6335925D01*
X59251110Y6333825D01*
X59251106Y6333823D01*
X59056060Y6258263D01*
X59056048Y6258258D01*
X59050627Y6256157D01*
X59045680Y6253095D01*
X59045670Y6253089D01*
X58867833Y6142976D01*
X58867827Y6142973D01*
X58862884Y6139911D01*
X58858583Y6135991D01*
X58858580Y6135988D01*
X58704006Y5995076D01*
X58704001Y5995072D01*
X58699698Y5991148D01*
X58696188Y5986502D01*
X58696186Y5986498D01*
X58570136Y5819580D01*
X58570132Y5819575D01*
X58566626Y5814931D01*
X58564031Y5809721D01*
X58564028Y5809715D01*
X58470796Y5622482D01*
X58470791Y5622471D01*
X58468199Y5617264D01*
X58466605Y5611663D01*
X58466605Y5611662D01*
X58420368Y5449155D01*
X58407769Y5404876D01*
X58407232Y5399084D01*
X58407232Y5399082D01*
X58394084Y5257186D01*
X58387395Y5185000D01*
X53380512Y5185000D01*
X53380605Y5186000D01*
X53360231Y5405876D01*
X53299801Y5618264D01*
X53288955Y5640045D01*
X53203971Y5810715D01*
X53201374Y5815931D01*
X53068302Y5992148D01*
X52905116Y6140911D01*
X52900166Y6143976D01*
X52722329Y6254089D01*
X52722323Y6254092D01*
X52717373Y6257157D01*
X52711946Y6259260D01*
X52711939Y6259263D01*
X52516893Y6334823D01*
X52516892Y6334824D01*
X52511467Y6336925D01*
X52505748Y6337994D01*
X52505745Y6337995D01*
X52300135Y6376430D01*
X52300131Y6376431D01*
X52294409Y6377500D01*
X52073591Y6377500D01*
X52067869Y6376431D01*
X52067864Y6376430D01*
X51862254Y6337995D01*
X51862248Y6337994D01*
X51856533Y6336925D01*
X51851110Y6334825D01*
X51851106Y6334823D01*
X51656060Y6259263D01*
X51656048Y6259258D01*
X51650627Y6257157D01*
X51645680Y6254095D01*
X51645670Y6254089D01*
X51467833Y6143976D01*
X51467827Y6143973D01*
X51462884Y6140911D01*
X51458583Y6136991D01*
X51458580Y6136988D01*
X51304006Y5996076D01*
X51304001Y5996072D01*
X51299698Y5992148D01*
X51296188Y5987502D01*
X51296186Y5987498D01*
X51170136Y5820580D01*
X51170132Y5820575D01*
X51166626Y5815931D01*
X51164031Y5810721D01*
X51164028Y5810715D01*
X51070796Y5623482D01*
X51070791Y5623471D01*
X51068199Y5618264D01*
X51066605Y5612663D01*
X51066605Y5612662D01*
X51010068Y5413955D01*
X51007769Y5405876D01*
X51007232Y5400084D01*
X51007232Y5400082D01*
X50998650Y5307462D01*
X50987395Y5186000D01*
X44434001Y5186000D01*
X44312508Y5256144D01*
X44154566Y5307462D01*
X44133761Y5314222D01*
X44133759Y5314223D01*
X44127482Y5316262D01*
X44120918Y5316952D01*
X43985773Y5331157D01*
X43985761Y5331158D01*
X43982504Y5331500D01*
X43885496Y5331500D01*
X43882239Y5331158D01*
X43882226Y5331157D01*
X43747081Y5316952D01*
X43747079Y5316952D01*
X43740518Y5316262D01*
X43734242Y5314223D01*
X43734238Y5314222D01*
X43561776Y5258186D01*
X43561774Y5258186D01*
X43555492Y5256144D01*
X43549770Y5252841D01*
X43549769Y5252840D01*
X43392728Y5162173D01*
X43392724Y5162171D01*
X43387008Y5158870D01*
X43382101Y5154452D01*
X43382100Y5154451D01*
X43360859Y5135325D01*
X43242431Y5028692D01*
X43238556Y5023359D01*
X43238551Y5023353D01*
X43131958Y4876641D01*
X43131953Y4876633D01*
X43128078Y4871299D01*
X43125393Y4865271D01*
X43125392Y4865267D01*
X43073413Y4748519D01*
X43048949Y4693571D01*
X43047577Y4687119D01*
X43047575Y4687111D01*
X43018521Y4550421D01*
X43008500Y4503274D01*
X43008500Y4308726D01*
X36490280Y4308726D01*
X36568302Y4379852D01*
X36701374Y4556069D01*
X36799801Y4753736D01*
X36860231Y4966124D01*
X36880605Y5186000D01*
X36860231Y5405876D01*
X36799801Y5618264D01*
X36788955Y5640045D01*
X36703971Y5810715D01*
X36701374Y5815931D01*
X36568302Y5992148D01*
X36405116Y6140911D01*
X36400166Y6143976D01*
X36222329Y6254089D01*
X36222323Y6254092D01*
X36217373Y6257157D01*
X36211946Y6259260D01*
X36211939Y6259263D01*
X36016893Y6334823D01*
X36016892Y6334824D01*
X36011467Y6336925D01*
X36005748Y6337994D01*
X36005745Y6337995D01*
X35800135Y6376430D01*
X35800131Y6376431D01*
X35794409Y6377500D01*
X35573591Y6377500D01*
X35567869Y6376431D01*
X35567864Y6376430D01*
X35362254Y6337995D01*
X35362248Y6337994D01*
X35356533Y6336925D01*
X35351110Y6334825D01*
X35351106Y6334823D01*
X35156060Y6259263D01*
X35156048Y6259258D01*
X35150627Y6257157D01*
X35145680Y6254095D01*
X35145670Y6254089D01*
X34967833Y6143976D01*
X34967827Y6143973D01*
X34962884Y6140911D01*
X34958583Y6136991D01*
X34958580Y6136988D01*
X34804006Y5996076D01*
X34804001Y5996072D01*
X34799698Y5992148D01*
X34796188Y5987502D01*
X34796186Y5987498D01*
X34670136Y5820580D01*
X34670132Y5820575D01*
X34666626Y5815931D01*
X34664031Y5810721D01*
X34664028Y5810715D01*
X34570796Y5623482D01*
X34570791Y5623471D01*
X34568199Y5618264D01*
X34566605Y5612663D01*
X34566605Y5612662D01*
X34510068Y5413955D01*
X34507769Y5405876D01*
X34507232Y5400084D01*
X34507232Y5400082D01*
X34498650Y5307462D01*
X34487395Y5186000D01*
X29484512Y5186000D01*
X29464231Y5404876D01*
X29403801Y5617264D01*
X29392457Y5640045D01*
X29307971Y5809715D01*
X29305374Y5814931D01*
X29172302Y5991148D01*
X29009116Y6139911D01*
X29002551Y6143976D01*
X28826329Y6253089D01*
X28826323Y6253092D01*
X28821373Y6256157D01*
X28815946Y6258260D01*
X28815939Y6258263D01*
X28620893Y6333823D01*
X28620892Y6333824D01*
X28615467Y6335925D01*
X28609748Y6336994D01*
X28609745Y6336995D01*
X28404135Y6375430D01*
X28404131Y6375431D01*
X28398409Y6376500D01*
X28177591Y6376500D01*
X28171869Y6375431D01*
X28171864Y6375430D01*
X27966254Y6336995D01*
X27966248Y6336994D01*
X27960533Y6335925D01*
X27955110Y6333825D01*
X27955106Y6333823D01*
X27760060Y6258263D01*
X27760048Y6258258D01*
X27754627Y6256157D01*
X27749680Y6253095D01*
X27749670Y6253089D01*
X27571833Y6142976D01*
X27571827Y6142973D01*
X27566884Y6139911D01*
X27562583Y6135991D01*
X27562580Y6135988D01*
X27408006Y5995076D01*
X27408001Y5995072D01*
X27403698Y5991148D01*
X27400188Y5986502D01*
X27400186Y5986498D01*
X27274136Y5819580D01*
X27274132Y5819575D01*
X27270626Y5814931D01*
X27268031Y5809721D01*
X27268028Y5809715D01*
X27174796Y5622482D01*
X27174791Y5622471D01*
X27172199Y5617264D01*
X27170605Y5611663D01*
X27170605Y5611662D01*
X27124368Y5449155D01*
X27111769Y5404876D01*
X27111232Y5399084D01*
X27111232Y5399082D01*
X27098084Y5257186D01*
X27091395Y5185000D01*
X20538001Y5185000D01*
X20416508Y5255144D01*
X20301248Y5292594D01*
X20237761Y5313222D01*
X20237759Y5313223D01*
X20231482Y5315262D01*
X20224918Y5315952D01*
X20089773Y5330157D01*
X20089761Y5330158D01*
X20086504Y5330500D01*
X19989496Y5330500D01*
X19986239Y5330158D01*
X19986226Y5330157D01*
X19851081Y5315952D01*
X19851079Y5315952D01*
X19844518Y5315262D01*
X19838242Y5313223D01*
X19838238Y5313222D01*
X19665776Y5257186D01*
X19665774Y5257186D01*
X19659492Y5255144D01*
X19653770Y5251841D01*
X19653769Y5251840D01*
X19496728Y5161173D01*
X19496724Y5161171D01*
X19491008Y5157870D01*
X19486101Y5153452D01*
X19486100Y5153451D01*
X19368327Y5047407D01*
X19346431Y5027692D01*
X19342556Y5022359D01*
X19342551Y5022353D01*
X19235958Y4875641D01*
X19235953Y4875633D01*
X19232078Y4870299D01*
X19229393Y4864271D01*
X19229392Y4864267D01*
X19155636Y4698607D01*
X19152949Y4692571D01*
X19151577Y4686119D01*
X19151575Y4686111D01*
X19114085Y4509731D01*
X19112500Y4502274D01*
X19112500Y4307726D01*
X12594280Y4307726D01*
X12672302Y4378852D01*
X12805374Y4555069D01*
X12903801Y4752736D01*
X12964231Y4965124D01*
X12984605Y5185000D01*
X12964231Y5404876D01*
X12903801Y5617264D01*
X12892457Y5640045D01*
X12807971Y5809715D01*
X12805374Y5814931D01*
X12672302Y5991148D01*
X12509116Y6139911D01*
X12502551Y6143976D01*
X12326329Y6253089D01*
X12326323Y6253092D01*
X12321373Y6256157D01*
X12315946Y6258260D01*
X12315939Y6258263D01*
X12120893Y6333823D01*
X12120892Y6333824D01*
X12115467Y6335925D01*
X12109748Y6336994D01*
X12109745Y6336995D01*
X11904135Y6375430D01*
X11904131Y6375431D01*
X11898409Y6376500D01*
X11677591Y6376500D01*
X11671869Y6375431D01*
X11671864Y6375430D01*
X11466254Y6336995D01*
X11466248Y6336994D01*
X11460533Y6335925D01*
X11455110Y6333825D01*
X11455106Y6333823D01*
X11260060Y6258263D01*
X11260048Y6258258D01*
X11254627Y6256157D01*
X11249680Y6253095D01*
X11249670Y6253089D01*
X11071833Y6142976D01*
X11071827Y6142973D01*
X11066884Y6139911D01*
X11062583Y6135991D01*
X11062580Y6135988D01*
X10908006Y5995076D01*
X10908001Y5995072D01*
X10903698Y5991148D01*
X10900188Y5986502D01*
X10900186Y5986498D01*
X10774136Y5819580D01*
X10774132Y5819575D01*
X10770626Y5814931D01*
X10768031Y5809721D01*
X10768028Y5809715D01*
X10674796Y5622482D01*
X10674791Y5622471D01*
X10672199Y5617264D01*
X10670605Y5611663D01*
X10670605Y5611662D01*
X10624368Y5449155D01*
X10611769Y5404876D01*
X10611232Y5399084D01*
X10611232Y5399082D01*
X10598084Y5257186D01*
X10591395Y5185000D01*
X48500Y5185000D01*
X48500Y7275000D01*
X69757479Y7275000D01*
X69759393Y7264145D01*
X69775497Y7172812D01*
X69775498Y7172809D01*
X69777412Y7161955D01*
X69782923Y7152410D01*
X69782924Y7152407D01*
X69823657Y7081855D01*
X69834806Y7062545D01*
X69922739Y6988760D01*
X70030606Y6949500D01*
X70134367Y6949500D01*
X70145394Y6949500D01*
X70253261Y6988760D01*
X70341194Y7062545D01*
X70346075Y7071000D01*
X118585479Y7071000D01*
X118587393Y7060145D01*
X118603497Y6968812D01*
X118603498Y6968809D01*
X118605412Y6957955D01*
X118610923Y6948410D01*
X118610924Y6948407D01*
X118657295Y6868090D01*
X118662806Y6858545D01*
X118750739Y6784760D01*
X118858606Y6745500D01*
X118962367Y6745500D01*
X118973394Y6745500D01*
X119081261Y6784760D01*
X119169194Y6858545D01*
X119226588Y6957955D01*
X119246521Y7071000D01*
X119226588Y7184045D01*
X119169194Y7283455D01*
X119081261Y7357240D01*
X119070901Y7361011D01*
X119070899Y7361012D01*
X118983756Y7392729D01*
X118983753Y7392730D01*
X118973394Y7396500D01*
X118858606Y7396500D01*
X118848246Y7392730D01*
X118848244Y7392729D01*
X118761099Y7361011D01*
X118761096Y7361010D01*
X118750740Y7357240D01*
X118742299Y7350158D01*
X118742295Y7350155D01*
X118671251Y7290542D01*
X118671248Y7290540D01*
X118662806Y7283455D01*
X118657296Y7273913D01*
X118657293Y7273908D01*
X118610924Y7193594D01*
X118610922Y7193589D01*
X118605412Y7184045D01*
X118603498Y7173194D01*
X118603497Y7173189D01*
X118599833Y7152407D01*
X118585479Y7071000D01*
X70346075Y7071000D01*
X70398588Y7161955D01*
X70418521Y7275000D01*
X70398588Y7388045D01*
X70341194Y7487455D01*
X70253261Y7561240D01*
X70242901Y7565011D01*
X70242899Y7565012D01*
X70155756Y7596729D01*
X70155753Y7596730D01*
X70145394Y7600500D01*
X70030606Y7600500D01*
X70020246Y7596730D01*
X70020244Y7596729D01*
X69933099Y7565011D01*
X69933096Y7565010D01*
X69922740Y7561240D01*
X69914299Y7554158D01*
X69914295Y7554155D01*
X69843251Y7494542D01*
X69843248Y7494540D01*
X69834806Y7487455D01*
X69829296Y7477913D01*
X69829293Y7477908D01*
X69782924Y7397594D01*
X69782922Y7397589D01*
X69777412Y7388045D01*
X69775498Y7377194D01*
X69775497Y7377189D01*
X69760219Y7290542D01*
X69757479Y7275000D01*
X48500Y7275000D01*
X48500Y8224200D01*
X72127479Y8224200D01*
X72129393Y8213345D01*
X72145497Y8122012D01*
X72145498Y8122009D01*
X72147412Y8111155D01*
X72152923Y8101610D01*
X72152924Y8101607D01*
X72179339Y8055855D01*
X72204806Y8011745D01*
X72292739Y7937960D01*
X72400606Y7898700D01*
X72504367Y7898700D01*
X72515394Y7898700D01*
X72623261Y7937960D01*
X72711194Y8011745D01*
X72768588Y8111155D01*
X72784254Y8200000D01*
X86297479Y8200000D01*
X86299393Y8189145D01*
X86315497Y8097812D01*
X86315498Y8097809D01*
X86317412Y8086955D01*
X86322923Y8077410D01*
X86322924Y8077407D01*
X86369295Y7997090D01*
X86374806Y7987545D01*
X86462739Y7913760D01*
X86570606Y7874500D01*
X86674367Y7874500D01*
X86685394Y7874500D01*
X86793261Y7913760D01*
X86881194Y7987545D01*
X86914365Y8045000D01*
X89780479Y8045000D01*
X89782393Y8034145D01*
X89798497Y7942812D01*
X89798498Y7942809D01*
X89800412Y7931955D01*
X89805923Y7922410D01*
X89805924Y7922407D01*
X89846836Y7851545D01*
X89857806Y7832545D01*
X89945739Y7758760D01*
X90053606Y7719500D01*
X90157367Y7719500D01*
X90168394Y7719500D01*
X90276261Y7758760D01*
X90364194Y7832545D01*
X90421588Y7931955D01*
X90441521Y8045000D01*
X90438171Y8064000D01*
X91617479Y8064000D01*
X91619393Y8053145D01*
X91635497Y7961812D01*
X91635498Y7961809D01*
X91637412Y7950955D01*
X91642923Y7941410D01*
X91642924Y7941407D01*
X91665403Y7902472D01*
X91694806Y7851545D01*
X91782739Y7777760D01*
X91890606Y7738500D01*
X91994367Y7738500D01*
X92005394Y7738500D01*
X92113261Y7777760D01*
X92201194Y7851545D01*
X92258588Y7950955D01*
X92278521Y8064000D01*
X92258588Y8177045D01*
X92201194Y8276455D01*
X92113261Y8350240D01*
X92102901Y8354011D01*
X92102899Y8354012D01*
X92015756Y8385729D01*
X92015753Y8385730D01*
X92005394Y8389500D01*
X91890606Y8389500D01*
X91880246Y8385730D01*
X91880244Y8385729D01*
X91793099Y8354011D01*
X91793096Y8354010D01*
X91782740Y8350240D01*
X91774299Y8343158D01*
X91774295Y8343155D01*
X91703251Y8283542D01*
X91703248Y8283540D01*
X91694806Y8276455D01*
X91689296Y8266913D01*
X91689293Y8266908D01*
X91642924Y8186594D01*
X91642922Y8186589D01*
X91637412Y8177045D01*
X91635498Y8166194D01*
X91635497Y8166189D01*
X91619843Y8077407D01*
X91617479Y8064000D01*
X90438171Y8064000D01*
X90421588Y8158045D01*
X90364194Y8257455D01*
X90276261Y8331240D01*
X90265901Y8335011D01*
X90265899Y8335012D01*
X90178756Y8366729D01*
X90178753Y8366730D01*
X90168394Y8370500D01*
X90053606Y8370500D01*
X90043246Y8366730D01*
X90043244Y8366729D01*
X89956099Y8335011D01*
X89956096Y8335010D01*
X89945740Y8331240D01*
X89937299Y8324158D01*
X89937295Y8324155D01*
X89866251Y8264542D01*
X89866248Y8264540D01*
X89857806Y8257455D01*
X89852296Y8247913D01*
X89852293Y8247908D01*
X89805924Y8167594D01*
X89805922Y8167589D01*
X89800412Y8158045D01*
X89798498Y8147194D01*
X89798497Y8147189D01*
X89790460Y8101607D01*
X89780479Y8045000D01*
X86914365Y8045000D01*
X86938588Y8086955D01*
X86958521Y8200000D01*
X86938588Y8313045D01*
X86881194Y8412455D01*
X86872747Y8419543D01*
X86872524Y8419809D01*
X86846442Y8471742D01*
X86846442Y8529858D01*
X86872524Y8581791D01*
X86872747Y8582058D01*
X86881194Y8589145D01*
X86938588Y8688555D01*
X86958521Y8801600D01*
X86938588Y8914645D01*
X86881194Y9014055D01*
X86793261Y9087840D01*
X86782901Y9091611D01*
X86782899Y9091612D01*
X86695756Y9123329D01*
X86695753Y9123330D01*
X86685394Y9127100D01*
X86570606Y9127100D01*
X86560246Y9123330D01*
X86560244Y9123329D01*
X86473099Y9091611D01*
X86473096Y9091610D01*
X86462740Y9087840D01*
X86454299Y9080758D01*
X86454295Y9080755D01*
X86383251Y9021142D01*
X86383248Y9021140D01*
X86374806Y9014055D01*
X86369296Y9004513D01*
X86369293Y9004508D01*
X86322924Y8924194D01*
X86322922Y8924189D01*
X86317412Y8914645D01*
X86315498Y8903794D01*
X86315497Y8903789D01*
X86311527Y8881272D01*
X86297479Y8801600D01*
X86299393Y8790745D01*
X86315497Y8699412D01*
X86315498Y8699409D01*
X86317412Y8688555D01*
X86322923Y8679010D01*
X86322924Y8679007D01*
X86355323Y8622890D01*
X86374806Y8589145D01*
X86383246Y8582063D01*
X86383476Y8581789D01*
X86409557Y8529857D01*
X86409557Y8471743D01*
X86383476Y8419811D01*
X86383246Y8419538D01*
X86374806Y8412455D01*
X86369297Y8402915D01*
X86369295Y8402911D01*
X86322924Y8322594D01*
X86322922Y8322589D01*
X86317412Y8313045D01*
X86315498Y8302194D01*
X86315497Y8302189D01*
X86303660Y8235055D01*
X86297479Y8200000D01*
X72784254Y8200000D01*
X72788521Y8224200D01*
X72768588Y8337245D01*
X72711194Y8436655D01*
X72702753Y8443738D01*
X72702523Y8444012D01*
X72676442Y8495946D01*
X72676443Y8554061D01*
X72702526Y8605994D01*
X72702746Y8606257D01*
X72711194Y8613345D01*
X72768588Y8712755D01*
X72788521Y8825800D01*
X72768588Y8938845D01*
X72711194Y9038255D01*
X72623261Y9112040D01*
X72612901Y9115811D01*
X72612899Y9115812D01*
X72525756Y9147529D01*
X72525753Y9147530D01*
X72515394Y9151300D01*
X72400606Y9151300D01*
X72390246Y9147530D01*
X72390244Y9147529D01*
X72303099Y9115811D01*
X72303096Y9115810D01*
X72292740Y9112040D01*
X72284299Y9104958D01*
X72284295Y9104955D01*
X72213251Y9045342D01*
X72213248Y9045340D01*
X72204806Y9038255D01*
X72199296Y9028713D01*
X72199293Y9028708D01*
X72152924Y8948394D01*
X72152922Y8948389D01*
X72147412Y8938845D01*
X72145498Y8927994D01*
X72145497Y8927989D01*
X72137260Y8881272D01*
X72127479Y8825800D01*
X72129393Y8814945D01*
X72145497Y8723612D01*
X72145498Y8723609D01*
X72147412Y8712755D01*
X72152923Y8703210D01*
X72152924Y8703207D01*
X72166896Y8679007D01*
X72204806Y8613345D01*
X72213246Y8606263D01*
X72213476Y8605989D01*
X72239557Y8554057D01*
X72239557Y8495943D01*
X72213476Y8444011D01*
X72213246Y8443738D01*
X72204806Y8436655D01*
X72199297Y8427115D01*
X72199295Y8427111D01*
X72152924Y8346794D01*
X72152922Y8346789D01*
X72147412Y8337245D01*
X72145498Y8326394D01*
X72145497Y8326389D01*
X72134592Y8264542D01*
X72127479Y8224200D01*
X48500Y8224200D01*
X48500Y9203000D01*
X111441479Y9203000D01*
X111443393Y9192145D01*
X111459497Y9100812D01*
X111459498Y9100809D01*
X111461412Y9089955D01*
X111466923Y9080410D01*
X111466924Y9080407D01*
X111513295Y9000090D01*
X111518806Y8990545D01*
X111606739Y8916760D01*
X111714606Y8877500D01*
X111818367Y8877500D01*
X111829394Y8877500D01*
X111937261Y8916760D01*
X112025194Y8990545D01*
X112082588Y9089955D01*
X112102521Y9203000D01*
X112083654Y9310000D01*
X115667479Y9310000D01*
X115669393Y9299145D01*
X115685497Y9207812D01*
X115685498Y9207809D01*
X115687412Y9196955D01*
X115692923Y9187410D01*
X115692924Y9187407D01*
X115734260Y9115811D01*
X115744806Y9097545D01*
X115832739Y9023760D01*
X115940606Y8984500D01*
X116044367Y8984500D01*
X116055394Y8984500D01*
X116163261Y9023760D01*
X116251194Y9097545D01*
X116308588Y9196955D01*
X116328521Y9310000D01*
X116308588Y9423045D01*
X116251194Y9522455D01*
X116163261Y9596240D01*
X116152901Y9600011D01*
X116152899Y9600012D01*
X116065756Y9631729D01*
X116065753Y9631730D01*
X116055394Y9635500D01*
X115940606Y9635500D01*
X115930246Y9631730D01*
X115930244Y9631729D01*
X115843099Y9600011D01*
X115843096Y9600010D01*
X115832740Y9596240D01*
X115824299Y9589158D01*
X115824295Y9589155D01*
X115753251Y9529542D01*
X115753248Y9529540D01*
X115744806Y9522455D01*
X115739296Y9512913D01*
X115739293Y9512908D01*
X115692924Y9432594D01*
X115692922Y9432589D01*
X115687412Y9423045D01*
X115685498Y9412194D01*
X115685497Y9412189D01*
X115684390Y9405908D01*
X115667479Y9310000D01*
X112083654Y9310000D01*
X112082588Y9316045D01*
X112025194Y9415455D01*
X111937261Y9489240D01*
X111926901Y9493011D01*
X111926899Y9493012D01*
X111839756Y9524729D01*
X111839753Y9524730D01*
X111829394Y9528500D01*
X111714606Y9528500D01*
X111704246Y9524730D01*
X111704244Y9524729D01*
X111617099Y9493011D01*
X111617096Y9493010D01*
X111606740Y9489240D01*
X111598299Y9482158D01*
X111598295Y9482155D01*
X111527251Y9422542D01*
X111527248Y9422540D01*
X111518806Y9415455D01*
X111513296Y9405913D01*
X111513293Y9405908D01*
X111466924Y9325594D01*
X111466922Y9325589D01*
X111461412Y9316045D01*
X111459498Y9305194D01*
X111459497Y9305189D01*
X111443393Y9213855D01*
X111441479Y9203000D01*
X48500Y9203000D01*
X48500Y11965000D01*
X10252767Y11965000D01*
X10253155Y11960070D01*
X10271279Y11729771D01*
X10271280Y11729763D01*
X10271668Y11724837D01*
X10272822Y11720029D01*
X10272823Y11720025D01*
X10312552Y11554542D01*
X10327907Y11490587D01*
X10329800Y11486017D01*
X10329801Y11486014D01*
X10389265Y11342455D01*
X10420097Y11268019D01*
X10422682Y11263800D01*
X10422683Y11263799D01*
X10526410Y11094531D01*
X10545970Y11062613D01*
X10702426Y10879426D01*
X10885613Y10722970D01*
X11091019Y10597097D01*
X11313587Y10504907D01*
X11547837Y10448668D01*
X11788000Y10429767D01*
X12028163Y10448668D01*
X12262413Y10504907D01*
X12484981Y10597097D01*
X12690387Y10722970D01*
X12873574Y10879426D01*
X13030030Y11062613D01*
X13155903Y11268019D01*
X13183647Y11335000D01*
X21406679Y11335000D01*
X21408593Y11324145D01*
X21424697Y11232812D01*
X21424698Y11232809D01*
X21426612Y11221955D01*
X21432123Y11212410D01*
X21432124Y11212407D01*
X21473435Y11140855D01*
X21484006Y11122545D01*
X21571939Y11048760D01*
X21679806Y11009500D01*
X21783567Y11009500D01*
X21794594Y11009500D01*
X21902461Y11048760D01*
X21957009Y11094532D01*
X22008942Y11120614D01*
X22067058Y11120614D01*
X22118990Y11094532D01*
X22173539Y11048760D01*
X22281406Y11009500D01*
X22385167Y11009500D01*
X22396194Y11009500D01*
X22504061Y11048760D01*
X22591994Y11122545D01*
X22649388Y11221955D01*
X22669321Y11335000D01*
X24406679Y11335000D01*
X24408593Y11324145D01*
X24424697Y11232812D01*
X24424698Y11232809D01*
X24426612Y11221955D01*
X24432123Y11212410D01*
X24432124Y11212407D01*
X24473435Y11140855D01*
X24484006Y11122545D01*
X24571939Y11048760D01*
X24679806Y11009500D01*
X24783567Y11009500D01*
X24794594Y11009500D01*
X24902461Y11048760D01*
X24957009Y11094532D01*
X25008942Y11120614D01*
X25067058Y11120614D01*
X25118990Y11094532D01*
X25173539Y11048760D01*
X25281406Y11009500D01*
X25385167Y11009500D01*
X25396194Y11009500D01*
X25504061Y11048760D01*
X25591994Y11122545D01*
X25649388Y11221955D01*
X25669321Y11335000D01*
X25649388Y11448045D01*
X25591994Y11547455D01*
X25504061Y11621240D01*
X25493701Y11625011D01*
X25493699Y11625012D01*
X25406556Y11656729D01*
X25406553Y11656730D01*
X25396194Y11660500D01*
X25281406Y11660500D01*
X25271046Y11656730D01*
X25271044Y11656729D01*
X25183899Y11625011D01*
X25183896Y11625010D01*
X25173540Y11621240D01*
X25165099Y11614158D01*
X25165095Y11614155D01*
X25118990Y11575468D01*
X25067057Y11549387D01*
X25008942Y11549387D01*
X24957009Y11575469D01*
X24910907Y11614153D01*
X24910906Y11614154D01*
X24902461Y11621240D01*
X24892101Y11625011D01*
X24892099Y11625012D01*
X24804956Y11656729D01*
X24804953Y11656730D01*
X24794594Y11660500D01*
X24679806Y11660500D01*
X24669446Y11656730D01*
X24669444Y11656729D01*
X24582299Y11625011D01*
X24582296Y11625010D01*
X24571940Y11621240D01*
X24563499Y11614158D01*
X24563495Y11614155D01*
X24492451Y11554542D01*
X24492448Y11554540D01*
X24484006Y11547455D01*
X24478496Y11537913D01*
X24478493Y11537908D01*
X24432124Y11457594D01*
X24432122Y11457589D01*
X24426612Y11448045D01*
X24424698Y11437194D01*
X24424697Y11437189D01*
X24419754Y11409153D01*
X24406679Y11335000D01*
X22669321Y11335000D01*
X22649388Y11448045D01*
X22591994Y11547455D01*
X22504061Y11621240D01*
X22493701Y11625011D01*
X22493699Y11625012D01*
X22406556Y11656729D01*
X22406553Y11656730D01*
X22396194Y11660500D01*
X22281406Y11660500D01*
X22271046Y11656730D01*
X22271044Y11656729D01*
X22183899Y11625011D01*
X22183896Y11625010D01*
X22173540Y11621240D01*
X22165099Y11614158D01*
X22165095Y11614155D01*
X22118990Y11575468D01*
X22067057Y11549387D01*
X22008942Y11549387D01*
X21957009Y11575469D01*
X21910907Y11614153D01*
X21910906Y11614154D01*
X21902461Y11621240D01*
X21892101Y11625011D01*
X21892099Y11625012D01*
X21804956Y11656729D01*
X21804953Y11656730D01*
X21794594Y11660500D01*
X21679806Y11660500D01*
X21669446Y11656730D01*
X21669444Y11656729D01*
X21582299Y11625011D01*
X21582296Y11625010D01*
X21571940Y11621240D01*
X21563499Y11614158D01*
X21563495Y11614155D01*
X21492451Y11554542D01*
X21492448Y11554540D01*
X21484006Y11547455D01*
X21478496Y11537913D01*
X21478493Y11537908D01*
X21432124Y11457594D01*
X21432122Y11457589D01*
X21426612Y11448045D01*
X21424698Y11437194D01*
X21424697Y11437189D01*
X21419754Y11409153D01*
X21406679Y11335000D01*
X13183647Y11335000D01*
X13248093Y11490587D01*
X13304332Y11724837D01*
X13323233Y11965000D01*
X26752767Y11965000D01*
X26753155Y11960070D01*
X26771279Y11729771D01*
X26771280Y11729763D01*
X26771668Y11724837D01*
X26772822Y11720029D01*
X26772823Y11720025D01*
X26812552Y11554542D01*
X26827907Y11490587D01*
X26829800Y11486017D01*
X26829801Y11486014D01*
X26889265Y11342455D01*
X26920097Y11268019D01*
X26922682Y11263800D01*
X26922683Y11263799D01*
X27026410Y11094531D01*
X27045970Y11062613D01*
X27202426Y10879426D01*
X27385613Y10722970D01*
X27591019Y10597097D01*
X27813587Y10504907D01*
X28047837Y10448668D01*
X28288000Y10429767D01*
X28528163Y10448668D01*
X28762413Y10504907D01*
X28984981Y10597097D01*
X29190387Y10722970D01*
X29373574Y10879426D01*
X29530030Y11062613D01*
X29655903Y11268019D01*
X29748093Y11490587D01*
X29804332Y11724837D01*
X29823233Y11965000D01*
X29823154Y11966000D01*
X34148767Y11966000D01*
X34149155Y11961070D01*
X34167279Y11730771D01*
X34167280Y11730763D01*
X34167668Y11725837D01*
X34168822Y11721029D01*
X34168823Y11721025D01*
X34208792Y11554542D01*
X34223907Y11491587D01*
X34225800Y11487017D01*
X34225801Y11487014D01*
X34293263Y11324145D01*
X34316097Y11269019D01*
X34441970Y11063613D01*
X34598426Y10880426D01*
X34781613Y10723970D01*
X34987019Y10598097D01*
X35209587Y10505907D01*
X35443837Y10449668D01*
X35684000Y10430767D01*
X35924163Y10449668D01*
X36158413Y10505907D01*
X36380981Y10598097D01*
X36586387Y10723970D01*
X36769574Y10880426D01*
X36926030Y11063613D01*
X37051903Y11269019D01*
X37144093Y11491587D01*
X37200332Y11725837D01*
X37219233Y11966000D01*
X50648767Y11966000D01*
X50649155Y11961070D01*
X50667279Y11730771D01*
X50667280Y11730763D01*
X50667668Y11725837D01*
X50668822Y11721029D01*
X50668823Y11721025D01*
X50708792Y11554542D01*
X50723907Y11491587D01*
X50725800Y11487017D01*
X50725801Y11487014D01*
X50793263Y11324145D01*
X50816097Y11269019D01*
X50941970Y11063613D01*
X51098426Y10880426D01*
X51281613Y10723970D01*
X51487019Y10598097D01*
X51709587Y10505907D01*
X51943837Y10449668D01*
X52184000Y10430767D01*
X52424163Y10449668D01*
X52658413Y10505907D01*
X52880981Y10598097D01*
X53086387Y10723970D01*
X53269574Y10880426D01*
X53426030Y11063613D01*
X53551903Y11269019D01*
X53644093Y11491587D01*
X53700332Y11725837D01*
X53719154Y11965000D01*
X58048767Y11965000D01*
X58049155Y11960070D01*
X58067279Y11729771D01*
X58067280Y11729763D01*
X58067668Y11724837D01*
X58068822Y11720029D01*
X58068823Y11720025D01*
X58108552Y11554542D01*
X58123907Y11490587D01*
X58125800Y11486017D01*
X58125801Y11486014D01*
X58185265Y11342455D01*
X58216097Y11268019D01*
X58218682Y11263800D01*
X58218683Y11263799D01*
X58322410Y11094531D01*
X58341970Y11062613D01*
X58498426Y10879426D01*
X58681613Y10722970D01*
X58887019Y10597097D01*
X59109587Y10504907D01*
X59343837Y10448668D01*
X59584000Y10429767D01*
X59824163Y10448668D01*
X60058413Y10504907D01*
X60280981Y10597097D01*
X60486387Y10722970D01*
X60669574Y10879426D01*
X60826030Y11062613D01*
X60867325Y11130000D01*
X72955479Y11130000D01*
X72957393Y11119145D01*
X72973497Y11027812D01*
X72973498Y11027809D01*
X72975412Y11016955D01*
X72980923Y11007410D01*
X72980924Y11007407D01*
X73027295Y10927090D01*
X73032806Y10917545D01*
X73120739Y10843760D01*
X73228606Y10804500D01*
X73332367Y10804500D01*
X73343394Y10804500D01*
X73451261Y10843760D01*
X73539194Y10917545D01*
X73596588Y11016955D01*
X73616521Y11130000D01*
X73596588Y11243045D01*
X73539194Y11342455D01*
X73451261Y11416240D01*
X73440901Y11420011D01*
X73440899Y11420012D01*
X73353756Y11451729D01*
X73353753Y11451730D01*
X73343394Y11455500D01*
X73228606Y11455500D01*
X73218246Y11451730D01*
X73218244Y11451729D01*
X73131099Y11420011D01*
X73131096Y11420010D01*
X73120740Y11416240D01*
X73112299Y11409158D01*
X73112295Y11409155D01*
X73041251Y11349542D01*
X73041248Y11349540D01*
X73032806Y11342455D01*
X73027296Y11332913D01*
X73027293Y11332908D01*
X72980924Y11252594D01*
X72980922Y11252589D01*
X72975412Y11243045D01*
X72973498Y11232194D01*
X72973497Y11232189D01*
X72957393Y11140855D01*
X72955479Y11130000D01*
X60867325Y11130000D01*
X60951903Y11268019D01*
X61044093Y11490587D01*
X61100332Y11724837D01*
X61119233Y11965000D01*
X74548767Y11965000D01*
X74549155Y11960070D01*
X74567279Y11729771D01*
X74567280Y11729763D01*
X74567668Y11724837D01*
X74568822Y11720029D01*
X74568823Y11720025D01*
X74608552Y11554542D01*
X74623907Y11490587D01*
X74625800Y11486017D01*
X74625801Y11486014D01*
X74685265Y11342455D01*
X74716097Y11268019D01*
X74718682Y11263800D01*
X74718683Y11263799D01*
X74822410Y11094531D01*
X74841970Y11062613D01*
X74998426Y10879426D01*
X75181613Y10722970D01*
X75387019Y10597097D01*
X75609587Y10504907D01*
X75843837Y10448668D01*
X76084000Y10429767D01*
X76324163Y10448668D01*
X76558413Y10504907D01*
X76780981Y10597097D01*
X76986387Y10722970D01*
X77169574Y10879426D01*
X77326030Y11062613D01*
X77451903Y11268019D01*
X77544093Y11490587D01*
X77600332Y11724837D01*
X77619233Y11965000D01*
X81946767Y11965000D01*
X81947155Y11960070D01*
X81965279Y11729771D01*
X81965280Y11729763D01*
X81965668Y11724837D01*
X81966822Y11720029D01*
X81966823Y11720025D01*
X82006552Y11554542D01*
X82021907Y11490587D01*
X82023800Y11486017D01*
X82023801Y11486014D01*
X82083265Y11342455D01*
X82114097Y11268019D01*
X82116682Y11263800D01*
X82116683Y11263799D01*
X82220410Y11094531D01*
X82239970Y11062613D01*
X82396426Y10879426D01*
X82579613Y10722970D01*
X82785019Y10597097D01*
X83007587Y10504907D01*
X83241837Y10448668D01*
X83482000Y10429767D01*
X83722163Y10448668D01*
X83956413Y10504907D01*
X84178981Y10597097D01*
X84384387Y10722970D01*
X84567574Y10879426D01*
X84724030Y11062613D01*
X84849903Y11268019D01*
X84877647Y11335000D01*
X93106679Y11335000D01*
X93108593Y11324145D01*
X93124697Y11232812D01*
X93124698Y11232809D01*
X93126612Y11221955D01*
X93132123Y11212410D01*
X93132124Y11212407D01*
X93173435Y11140855D01*
X93184006Y11122545D01*
X93271939Y11048760D01*
X93379806Y11009500D01*
X93483567Y11009500D01*
X93494594Y11009500D01*
X93602461Y11048760D01*
X93657009Y11094532D01*
X93708940Y11120613D01*
X93767056Y11120614D01*
X93818990Y11094532D01*
X93831048Y11084414D01*
X93873539Y11048760D01*
X93981406Y11009500D01*
X94085167Y11009500D01*
X94096194Y11009500D01*
X94204061Y11048760D01*
X94291994Y11122545D01*
X94349388Y11221955D01*
X94369321Y11335000D01*
X96106679Y11335000D01*
X96108593Y11324145D01*
X96124697Y11232812D01*
X96124698Y11232809D01*
X96126612Y11221955D01*
X96132123Y11212410D01*
X96132124Y11212407D01*
X96173435Y11140855D01*
X96184006Y11122545D01*
X96271939Y11048760D01*
X96379806Y11009500D01*
X96483567Y11009500D01*
X96494594Y11009500D01*
X96602461Y11048760D01*
X96657009Y11094532D01*
X96708940Y11120613D01*
X96767056Y11120614D01*
X96818990Y11094532D01*
X96831048Y11084414D01*
X96873539Y11048760D01*
X96981406Y11009500D01*
X97085167Y11009500D01*
X97096194Y11009500D01*
X97204061Y11048760D01*
X97291994Y11122545D01*
X97349388Y11221955D01*
X97369321Y11335000D01*
X97349388Y11448045D01*
X97291994Y11547455D01*
X97204061Y11621240D01*
X97193701Y11625011D01*
X97193699Y11625012D01*
X97106556Y11656729D01*
X97106553Y11656730D01*
X97096194Y11660500D01*
X96981406Y11660500D01*
X96971046Y11656730D01*
X96971044Y11656729D01*
X96883899Y11625011D01*
X96883896Y11625010D01*
X96873540Y11621240D01*
X96865099Y11614158D01*
X96865095Y11614155D01*
X96818990Y11575468D01*
X96767057Y11549387D01*
X96708942Y11549387D01*
X96657009Y11575469D01*
X96610907Y11614153D01*
X96610906Y11614154D01*
X96602461Y11621240D01*
X96592101Y11625011D01*
X96592099Y11625012D01*
X96504956Y11656729D01*
X96504953Y11656730D01*
X96494594Y11660500D01*
X96379806Y11660500D01*
X96369446Y11656730D01*
X96369444Y11656729D01*
X96282299Y11625011D01*
X96282296Y11625010D01*
X96271940Y11621240D01*
X96263499Y11614158D01*
X96263495Y11614155D01*
X96192451Y11554542D01*
X96192448Y11554540D01*
X96184006Y11547455D01*
X96178496Y11537913D01*
X96178493Y11537908D01*
X96132124Y11457594D01*
X96132122Y11457589D01*
X96126612Y11448045D01*
X96124698Y11437194D01*
X96124697Y11437189D01*
X96119754Y11409153D01*
X96106679Y11335000D01*
X94369321Y11335000D01*
X94349388Y11448045D01*
X94291994Y11547455D01*
X94204061Y11621240D01*
X94193701Y11625011D01*
X94193699Y11625012D01*
X94106556Y11656729D01*
X94106553Y11656730D01*
X94096194Y11660500D01*
X93981406Y11660500D01*
X93971046Y11656730D01*
X93971044Y11656729D01*
X93883899Y11625011D01*
X93883896Y11625010D01*
X93873540Y11621240D01*
X93865099Y11614158D01*
X93865095Y11614155D01*
X93818990Y11575468D01*
X93767057Y11549387D01*
X93708942Y11549387D01*
X93657009Y11575469D01*
X93610907Y11614153D01*
X93610906Y11614154D01*
X93602461Y11621240D01*
X93592101Y11625011D01*
X93592099Y11625012D01*
X93504956Y11656729D01*
X93504953Y11656730D01*
X93494594Y11660500D01*
X93379806Y11660500D01*
X93369446Y11656730D01*
X93369444Y11656729D01*
X93282299Y11625011D01*
X93282296Y11625010D01*
X93271940Y11621240D01*
X93263499Y11614158D01*
X93263495Y11614155D01*
X93192451Y11554542D01*
X93192448Y11554540D01*
X93184006Y11547455D01*
X93178496Y11537913D01*
X93178493Y11537908D01*
X93132124Y11457594D01*
X93132122Y11457589D01*
X93126612Y11448045D01*
X93124698Y11437194D01*
X93124697Y11437189D01*
X93119754Y11409153D01*
X93106679Y11335000D01*
X84877647Y11335000D01*
X84942093Y11490587D01*
X84998332Y11724837D01*
X85017233Y11965000D01*
X98446767Y11965000D01*
X98447155Y11960070D01*
X98465279Y11729771D01*
X98465280Y11729763D01*
X98465668Y11724837D01*
X98466822Y11720029D01*
X98466823Y11720025D01*
X98506552Y11554542D01*
X98521907Y11490587D01*
X98523800Y11486017D01*
X98523801Y11486014D01*
X98583265Y11342455D01*
X98614097Y11268019D01*
X98616682Y11263800D01*
X98616683Y11263799D01*
X98720410Y11094531D01*
X98739970Y11062613D01*
X98896426Y10879426D01*
X99079613Y10722970D01*
X99285019Y10597097D01*
X99507587Y10504907D01*
X99741837Y10448668D01*
X99982000Y10429767D01*
X100222163Y10448668D01*
X100456413Y10504907D01*
X100678981Y10597097D01*
X100884387Y10722970D01*
X101067574Y10879426D01*
X101224030Y11062613D01*
X101349903Y11268019D01*
X101442093Y11490587D01*
X101498332Y11724837D01*
X101517233Y11965000D01*
X105844767Y11965000D01*
X105845155Y11960070D01*
X105863279Y11729771D01*
X105863280Y11729763D01*
X105863668Y11724837D01*
X105864822Y11720029D01*
X105864823Y11720025D01*
X105904552Y11554542D01*
X105919907Y11490587D01*
X105921800Y11486017D01*
X105921801Y11486014D01*
X105981265Y11342455D01*
X106012097Y11268019D01*
X106014682Y11263800D01*
X106014683Y11263799D01*
X106118410Y11094531D01*
X106137970Y11062613D01*
X106294426Y10879426D01*
X106477613Y10722970D01*
X106683019Y10597097D01*
X106905587Y10504907D01*
X107139837Y10448668D01*
X107380000Y10429767D01*
X107620163Y10448668D01*
X107854413Y10504907D01*
X108076981Y10597097D01*
X108282387Y10722970D01*
X108465574Y10879426D01*
X108622030Y11062613D01*
X108747903Y11268019D01*
X108775647Y11335000D01*
X117006679Y11335000D01*
X117008593Y11324145D01*
X117024697Y11232812D01*
X117024698Y11232809D01*
X117026612Y11221955D01*
X117032123Y11212410D01*
X117032124Y11212407D01*
X117073435Y11140855D01*
X117084006Y11122545D01*
X117171939Y11048760D01*
X117279806Y11009500D01*
X117383567Y11009500D01*
X117394594Y11009500D01*
X117502461Y11048760D01*
X117557009Y11094532D01*
X117608942Y11120614D01*
X117667058Y11120614D01*
X117718990Y11094532D01*
X117773539Y11048760D01*
X117881406Y11009500D01*
X117985167Y11009500D01*
X117996194Y11009500D01*
X118104061Y11048760D01*
X118191994Y11122545D01*
X118249388Y11221955D01*
X118269321Y11335000D01*
X120006679Y11335000D01*
X120008593Y11324145D01*
X120024697Y11232812D01*
X120024698Y11232809D01*
X120026612Y11221955D01*
X120032123Y11212410D01*
X120032124Y11212407D01*
X120073435Y11140855D01*
X120084006Y11122545D01*
X120171939Y11048760D01*
X120279806Y11009500D01*
X120383567Y11009500D01*
X120394594Y11009500D01*
X120502461Y11048760D01*
X120557009Y11094532D01*
X120608942Y11120614D01*
X120667058Y11120614D01*
X120718990Y11094532D01*
X120773539Y11048760D01*
X120881406Y11009500D01*
X120985167Y11009500D01*
X120996194Y11009500D01*
X121104061Y11048760D01*
X121191994Y11122545D01*
X121249388Y11221955D01*
X121269321Y11335000D01*
X121249388Y11448045D01*
X121191994Y11547455D01*
X121104061Y11621240D01*
X121093701Y11625011D01*
X121093699Y11625012D01*
X121006556Y11656729D01*
X121006553Y11656730D01*
X120996194Y11660500D01*
X120881406Y11660500D01*
X120871046Y11656730D01*
X120871044Y11656729D01*
X120783899Y11625011D01*
X120783896Y11625010D01*
X120773540Y11621240D01*
X120765099Y11614158D01*
X120765095Y11614155D01*
X120718990Y11575468D01*
X120667057Y11549387D01*
X120608942Y11549387D01*
X120557009Y11575469D01*
X120510907Y11614153D01*
X120510906Y11614154D01*
X120502461Y11621240D01*
X120492101Y11625011D01*
X120492099Y11625012D01*
X120404956Y11656729D01*
X120404953Y11656730D01*
X120394594Y11660500D01*
X120279806Y11660500D01*
X120269446Y11656730D01*
X120269444Y11656729D01*
X120182299Y11625011D01*
X120182296Y11625010D01*
X120171940Y11621240D01*
X120163499Y11614158D01*
X120163495Y11614155D01*
X120092451Y11554542D01*
X120092448Y11554540D01*
X120084006Y11547455D01*
X120078496Y11537913D01*
X120078493Y11537908D01*
X120032124Y11457594D01*
X120032122Y11457589D01*
X120026612Y11448045D01*
X120024698Y11437194D01*
X120024697Y11437189D01*
X120019754Y11409153D01*
X120006679Y11335000D01*
X118269321Y11335000D01*
X118249388Y11448045D01*
X118191994Y11547455D01*
X118104061Y11621240D01*
X118093701Y11625011D01*
X118093699Y11625012D01*
X118006556Y11656729D01*
X118006553Y11656730D01*
X117996194Y11660500D01*
X117881406Y11660500D01*
X117871046Y11656730D01*
X117871044Y11656729D01*
X117783899Y11625011D01*
X117783896Y11625010D01*
X117773540Y11621240D01*
X117765099Y11614158D01*
X117765095Y11614155D01*
X117718990Y11575468D01*
X117667057Y11549387D01*
X117608942Y11549387D01*
X117557009Y11575469D01*
X117510907Y11614153D01*
X117510906Y11614154D01*
X117502461Y11621240D01*
X117492101Y11625011D01*
X117492099Y11625012D01*
X117404956Y11656729D01*
X117404953Y11656730D01*
X117394594Y11660500D01*
X117279806Y11660500D01*
X117269446Y11656730D01*
X117269444Y11656729D01*
X117182299Y11625011D01*
X117182296Y11625010D01*
X117171940Y11621240D01*
X117163499Y11614158D01*
X117163495Y11614155D01*
X117092451Y11554542D01*
X117092448Y11554540D01*
X117084006Y11547455D01*
X117078496Y11537913D01*
X117078493Y11537908D01*
X117032124Y11457594D01*
X117032122Y11457589D01*
X117026612Y11448045D01*
X117024698Y11437194D01*
X117024697Y11437189D01*
X117019754Y11409153D01*
X117006679Y11335000D01*
X108775647Y11335000D01*
X108840093Y11490587D01*
X108896332Y11724837D01*
X108915233Y11965000D01*
X122344767Y11965000D01*
X122345155Y11960070D01*
X122363279Y11729771D01*
X122363280Y11729763D01*
X122363668Y11724837D01*
X122364822Y11720029D01*
X122364823Y11720025D01*
X122404552Y11554542D01*
X122419907Y11490587D01*
X122421800Y11486017D01*
X122421801Y11486014D01*
X122481265Y11342455D01*
X122512097Y11268019D01*
X122514682Y11263800D01*
X122514683Y11263799D01*
X122618410Y11094531D01*
X122637970Y11062613D01*
X122794426Y10879426D01*
X122977613Y10722970D01*
X123183019Y10597097D01*
X123405587Y10504907D01*
X123639837Y10448668D01*
X123880000Y10429767D01*
X124120163Y10448668D01*
X124354413Y10504907D01*
X124576981Y10597097D01*
X124782387Y10722970D01*
X124965574Y10879426D01*
X125122030Y11062613D01*
X125247903Y11268019D01*
X125340093Y11490587D01*
X125396332Y11724837D01*
X125415233Y11965000D01*
X129742767Y11965000D01*
X129743155Y11960070D01*
X129761279Y11729771D01*
X129761280Y11729763D01*
X129761668Y11724837D01*
X129762822Y11720029D01*
X129762823Y11720025D01*
X129802552Y11554542D01*
X129817907Y11490587D01*
X129819800Y11486017D01*
X129819801Y11486014D01*
X129879265Y11342455D01*
X129910097Y11268019D01*
X129912682Y11263800D01*
X129912683Y11263799D01*
X130016410Y11094531D01*
X130035970Y11062613D01*
X130192426Y10879426D01*
X130375613Y10722970D01*
X130581019Y10597097D01*
X130803587Y10504907D01*
X131037837Y10448668D01*
X131278000Y10429767D01*
X131518163Y10448668D01*
X131752413Y10504907D01*
X131974981Y10597097D01*
X132180387Y10722970D01*
X132363574Y10879426D01*
X132520030Y11062613D01*
X132645903Y11268019D01*
X132738093Y11490587D01*
X132794332Y11724837D01*
X132813233Y11965000D01*
X146242767Y11965000D01*
X146243155Y11960070D01*
X146261279Y11729771D01*
X146261280Y11729763D01*
X146261668Y11724837D01*
X146262822Y11720029D01*
X146262823Y11720025D01*
X146302552Y11554542D01*
X146317907Y11490587D01*
X146319800Y11486017D01*
X146319801Y11486014D01*
X146379265Y11342455D01*
X146410097Y11268019D01*
X146412682Y11263800D01*
X146412683Y11263799D01*
X146516410Y11094531D01*
X146535970Y11062613D01*
X146692426Y10879426D01*
X146875613Y10722970D01*
X147081019Y10597097D01*
X147303587Y10504907D01*
X147537837Y10448668D01*
X147778000Y10429767D01*
X148018163Y10448668D01*
X148252413Y10504907D01*
X148474981Y10597097D01*
X148680387Y10722970D01*
X148863574Y10879426D01*
X149020030Y11062613D01*
X149145903Y11268019D01*
X149238093Y11490587D01*
X149294332Y11724837D01*
X149313233Y11965000D01*
X149294332Y12205163D01*
X149238093Y12439413D01*
X149145903Y12661981D01*
X149020030Y12867387D01*
X148863574Y13050574D01*
X148680387Y13207030D01*
X148474981Y13332903D01*
X148252413Y13425093D01*
X148247605Y13426248D01*
X148247600Y13426249D01*
X148022975Y13480177D01*
X148022971Y13480178D01*
X148018163Y13481332D01*
X148013237Y13481720D01*
X148013229Y13481721D01*
X147782930Y13499845D01*
X147778000Y13500233D01*
X147773070Y13499845D01*
X147542770Y13481721D01*
X147542760Y13481720D01*
X147537837Y13481332D01*
X147533030Y13480178D01*
X147533024Y13480177D01*
X147308399Y13426249D01*
X147308390Y13426247D01*
X147303587Y13425093D01*
X147299019Y13423202D01*
X147299013Y13423199D01*
X147085593Y13334798D01*
X147085588Y13334796D01*
X147081019Y13332903D01*
X147076804Y13330321D01*
X147076798Y13330317D01*
X146879830Y13209615D01*
X146879822Y13209610D01*
X146875613Y13207030D01*
X146871852Y13203819D01*
X146871848Y13203815D01*
X146696188Y13053788D01*
X146696181Y13053782D01*
X146692426Y13050574D01*
X146689218Y13046819D01*
X146689212Y13046812D01*
X146539185Y12871152D01*
X146539181Y12871148D01*
X146535970Y12867387D01*
X146533390Y12863178D01*
X146533385Y12863170D01*
X146412683Y12666202D01*
X146412679Y12666196D01*
X146410097Y12661981D01*
X146408204Y12657412D01*
X146408202Y12657407D01*
X146319801Y12443987D01*
X146319798Y12443981D01*
X146317907Y12439413D01*
X146316753Y12434610D01*
X146316751Y12434601D01*
X146262823Y12209976D01*
X146262822Y12209970D01*
X146261668Y12205163D01*
X146261280Y12200240D01*
X146261279Y12200230D01*
X146250146Y12058760D01*
X146242767Y11965000D01*
X132813233Y11965000D01*
X132794332Y12205163D01*
X132738093Y12439413D01*
X132645903Y12661981D01*
X132520030Y12867387D01*
X132363574Y13050574D01*
X132180387Y13207030D01*
X131974981Y13332903D01*
X131752413Y13425093D01*
X131747605Y13426248D01*
X131747600Y13426249D01*
X131522975Y13480177D01*
X131522971Y13480178D01*
X131518163Y13481332D01*
X131513237Y13481720D01*
X131513229Y13481721D01*
X131282930Y13499845D01*
X131278000Y13500233D01*
X131273070Y13499845D01*
X131042770Y13481721D01*
X131042760Y13481720D01*
X131037837Y13481332D01*
X131033030Y13480178D01*
X131033024Y13480177D01*
X130808399Y13426249D01*
X130808390Y13426247D01*
X130803587Y13425093D01*
X130799019Y13423202D01*
X130799013Y13423199D01*
X130585593Y13334798D01*
X130585588Y13334796D01*
X130581019Y13332903D01*
X130576804Y13330321D01*
X130576798Y13330317D01*
X130379830Y13209615D01*
X130379822Y13209610D01*
X130375613Y13207030D01*
X130371852Y13203819D01*
X130371848Y13203815D01*
X130196188Y13053788D01*
X130196181Y13053782D01*
X130192426Y13050574D01*
X130189218Y13046819D01*
X130189212Y13046812D01*
X130039185Y12871152D01*
X130039181Y12871148D01*
X130035970Y12867387D01*
X130033390Y12863178D01*
X130033385Y12863170D01*
X129912683Y12666202D01*
X129912679Y12666196D01*
X129910097Y12661981D01*
X129908204Y12657412D01*
X129908202Y12657407D01*
X129819801Y12443987D01*
X129819798Y12443981D01*
X129817907Y12439413D01*
X129816753Y12434610D01*
X129816751Y12434601D01*
X129762823Y12209976D01*
X129762822Y12209970D01*
X129761668Y12205163D01*
X129761280Y12200240D01*
X129761279Y12200230D01*
X129750146Y12058760D01*
X129742767Y11965000D01*
X125415233Y11965000D01*
X125396332Y12205163D01*
X125340093Y12439413D01*
X125247903Y12661981D01*
X125122030Y12867387D01*
X124965574Y13050574D01*
X124782387Y13207030D01*
X124576981Y13332903D01*
X124354413Y13425093D01*
X124349605Y13426248D01*
X124349600Y13426249D01*
X124124975Y13480177D01*
X124124971Y13480178D01*
X124120163Y13481332D01*
X124115237Y13481720D01*
X124115229Y13481721D01*
X123884930Y13499845D01*
X123880000Y13500233D01*
X123875070Y13499845D01*
X123644770Y13481721D01*
X123644760Y13481720D01*
X123639837Y13481332D01*
X123635030Y13480178D01*
X123635024Y13480177D01*
X123410399Y13426249D01*
X123410390Y13426247D01*
X123405587Y13425093D01*
X123401019Y13423202D01*
X123401013Y13423199D01*
X123187593Y13334798D01*
X123187588Y13334796D01*
X123183019Y13332903D01*
X123178804Y13330321D01*
X123178798Y13330317D01*
X122981830Y13209615D01*
X122981822Y13209610D01*
X122977613Y13207030D01*
X122973852Y13203819D01*
X122973848Y13203815D01*
X122798188Y13053788D01*
X122798181Y13053782D01*
X122794426Y13050574D01*
X122791218Y13046819D01*
X122791212Y13046812D01*
X122641185Y12871152D01*
X122641181Y12871148D01*
X122637970Y12867387D01*
X122635390Y12863178D01*
X122635385Y12863170D01*
X122514683Y12666202D01*
X122514679Y12666196D01*
X122512097Y12661981D01*
X122510204Y12657412D01*
X122510202Y12657407D01*
X122421801Y12443987D01*
X122421798Y12443981D01*
X122419907Y12439413D01*
X122418753Y12434610D01*
X122418751Y12434601D01*
X122364823Y12209976D01*
X122364822Y12209970D01*
X122363668Y12205163D01*
X122363280Y12200240D01*
X122363279Y12200230D01*
X122352146Y12058760D01*
X122344767Y11965000D01*
X108915233Y11965000D01*
X108896332Y12205163D01*
X108865161Y12335000D01*
X113003379Y12335000D01*
X113005293Y12324145D01*
X113021397Y12232812D01*
X113021398Y12232809D01*
X113023312Y12221955D01*
X113028823Y12212410D01*
X113028824Y12212407D01*
X113075195Y12132090D01*
X113080706Y12122545D01*
X113168639Y12048760D01*
X113276506Y12009500D01*
X113380267Y12009500D01*
X113391294Y12009500D01*
X113499161Y12048760D01*
X113555360Y12095918D01*
X113607292Y12121999D01*
X113665408Y12121999D01*
X113717339Y12095918D01*
X113773539Y12048760D01*
X113881406Y12009500D01*
X113985167Y12009500D01*
X113996194Y12009500D01*
X114104061Y12048760D01*
X114191994Y12122545D01*
X114249388Y12221955D01*
X114269321Y12335000D01*
X115503379Y12335000D01*
X115505293Y12324145D01*
X115521397Y12232812D01*
X115521398Y12232809D01*
X115523312Y12221955D01*
X115528823Y12212410D01*
X115528824Y12212407D01*
X115575195Y12132090D01*
X115580706Y12122545D01*
X115668639Y12048760D01*
X115776506Y12009500D01*
X115880267Y12009500D01*
X115891294Y12009500D01*
X115999161Y12048760D01*
X116055360Y12095918D01*
X116107292Y12121999D01*
X116165408Y12121999D01*
X116217339Y12095918D01*
X116273539Y12048760D01*
X116381406Y12009500D01*
X116485167Y12009500D01*
X116496194Y12009500D01*
X116604061Y12048760D01*
X116691994Y12122545D01*
X116749388Y12221955D01*
X116769321Y12335000D01*
X118506679Y12335000D01*
X118508593Y12324145D01*
X118524697Y12232812D01*
X118524698Y12232809D01*
X118526612Y12221955D01*
X118532123Y12212410D01*
X118532124Y12212407D01*
X118578495Y12132090D01*
X118584006Y12122545D01*
X118671939Y12048760D01*
X118779806Y12009500D01*
X118883567Y12009500D01*
X118894594Y12009500D01*
X119002461Y12048760D01*
X119057009Y12094532D01*
X119108942Y12120614D01*
X119167058Y12120614D01*
X119218990Y12094532D01*
X119273539Y12048760D01*
X119381406Y12009500D01*
X119485167Y12009500D01*
X119496194Y12009500D01*
X119604061Y12048760D01*
X119691994Y12122545D01*
X119749388Y12221955D01*
X119769321Y12335000D01*
X119749388Y12448045D01*
X119738101Y12467594D01*
X119697504Y12537911D01*
X119691994Y12547455D01*
X119604061Y12621240D01*
X119593701Y12625011D01*
X119593699Y12625012D01*
X119506556Y12656729D01*
X119506553Y12656730D01*
X119496194Y12660500D01*
X119381406Y12660500D01*
X119371046Y12656730D01*
X119371044Y12656729D01*
X119283899Y12625011D01*
X119283896Y12625010D01*
X119273540Y12621240D01*
X119265099Y12614158D01*
X119265095Y12614155D01*
X119218990Y12575468D01*
X119167057Y12549387D01*
X119108942Y12549387D01*
X119057009Y12575469D01*
X119010907Y12614153D01*
X119010906Y12614154D01*
X119002461Y12621240D01*
X118992101Y12625011D01*
X118992099Y12625012D01*
X118904956Y12656729D01*
X118904953Y12656730D01*
X118894594Y12660500D01*
X118779806Y12660500D01*
X118769446Y12656730D01*
X118769444Y12656729D01*
X118682299Y12625011D01*
X118682296Y12625010D01*
X118671940Y12621240D01*
X118663499Y12614158D01*
X118663495Y12614155D01*
X118592451Y12554542D01*
X118592448Y12554540D01*
X118584006Y12547455D01*
X118578496Y12537913D01*
X118578493Y12537908D01*
X118532124Y12457594D01*
X118532122Y12457589D01*
X118526612Y12448045D01*
X118524698Y12437194D01*
X118524697Y12437189D01*
X118524241Y12434601D01*
X118506679Y12335000D01*
X116769321Y12335000D01*
X116749388Y12448045D01*
X116738101Y12467594D01*
X116697504Y12537911D01*
X116691994Y12547455D01*
X116604061Y12621240D01*
X116593701Y12625011D01*
X116593699Y12625012D01*
X116506556Y12656729D01*
X116506553Y12656730D01*
X116496194Y12660500D01*
X116381406Y12660500D01*
X116371046Y12656730D01*
X116371044Y12656729D01*
X116283899Y12625011D01*
X116283896Y12625010D01*
X116273540Y12621240D01*
X116265095Y12614155D01*
X116265095Y12614154D01*
X116217341Y12574084D01*
X116165407Y12548002D01*
X116107292Y12548002D01*
X116055359Y12574084D01*
X116007606Y12614154D01*
X116007605Y12614155D01*
X115999161Y12621240D01*
X115988801Y12625011D01*
X115988799Y12625012D01*
X115901656Y12656729D01*
X115901653Y12656730D01*
X115891294Y12660500D01*
X115776506Y12660500D01*
X115766146Y12656730D01*
X115766144Y12656729D01*
X115678999Y12625011D01*
X115678996Y12625010D01*
X115668640Y12621240D01*
X115660199Y12614158D01*
X115660195Y12614155D01*
X115589151Y12554542D01*
X115589148Y12554540D01*
X115580706Y12547455D01*
X115575196Y12537913D01*
X115575193Y12537908D01*
X115528824Y12457594D01*
X115528822Y12457589D01*
X115523312Y12448045D01*
X115521398Y12437194D01*
X115521397Y12437189D01*
X115520941Y12434601D01*
X115503379Y12335000D01*
X114269321Y12335000D01*
X114249388Y12448045D01*
X114238101Y12467594D01*
X114197504Y12537911D01*
X114191994Y12547455D01*
X114104061Y12621240D01*
X114093701Y12625011D01*
X114093699Y12625012D01*
X114006556Y12656729D01*
X114006553Y12656730D01*
X113996194Y12660500D01*
X113881406Y12660500D01*
X113871046Y12656730D01*
X113871044Y12656729D01*
X113783899Y12625011D01*
X113783896Y12625010D01*
X113773540Y12621240D01*
X113765095Y12614155D01*
X113765095Y12614154D01*
X113717341Y12574084D01*
X113665407Y12548002D01*
X113607292Y12548002D01*
X113555359Y12574084D01*
X113507606Y12614154D01*
X113507605Y12614155D01*
X113499161Y12621240D01*
X113488801Y12625011D01*
X113488799Y12625012D01*
X113401656Y12656729D01*
X113401653Y12656730D01*
X113391294Y12660500D01*
X113276506Y12660500D01*
X113266146Y12656730D01*
X113266144Y12656729D01*
X113178999Y12625011D01*
X113178996Y12625010D01*
X113168640Y12621240D01*
X113160199Y12614158D01*
X113160195Y12614155D01*
X113089151Y12554542D01*
X113089148Y12554540D01*
X113080706Y12547455D01*
X113075196Y12537913D01*
X113075193Y12537908D01*
X113028824Y12457594D01*
X113028822Y12457589D01*
X113023312Y12448045D01*
X113021398Y12437194D01*
X113021397Y12437189D01*
X113020941Y12434601D01*
X113003379Y12335000D01*
X108865161Y12335000D01*
X108840093Y12439413D01*
X108747903Y12661981D01*
X108622030Y12867387D01*
X108465574Y13050574D01*
X108282387Y13207030D01*
X108076981Y13332903D01*
X107854413Y13425093D01*
X107849605Y13426248D01*
X107849600Y13426249D01*
X107624975Y13480177D01*
X107624971Y13480178D01*
X107620163Y13481332D01*
X107615237Y13481720D01*
X107615229Y13481721D01*
X107384930Y13499845D01*
X107380000Y13500233D01*
X107375070Y13499845D01*
X107144770Y13481721D01*
X107144760Y13481720D01*
X107139837Y13481332D01*
X107135030Y13480178D01*
X107135024Y13480177D01*
X106910399Y13426249D01*
X106910390Y13426247D01*
X106905587Y13425093D01*
X106901019Y13423202D01*
X106901013Y13423199D01*
X106687593Y13334798D01*
X106687588Y13334796D01*
X106683019Y13332903D01*
X106678804Y13330321D01*
X106678798Y13330317D01*
X106481830Y13209615D01*
X106481822Y13209610D01*
X106477613Y13207030D01*
X106473852Y13203819D01*
X106473848Y13203815D01*
X106298188Y13053788D01*
X106298181Y13053782D01*
X106294426Y13050574D01*
X106291218Y13046819D01*
X106291212Y13046812D01*
X106141185Y12871152D01*
X106141181Y12871148D01*
X106137970Y12867387D01*
X106135390Y12863178D01*
X106135385Y12863170D01*
X106014683Y12666202D01*
X106014679Y12666196D01*
X106012097Y12661981D01*
X106010204Y12657412D01*
X106010202Y12657407D01*
X105921801Y12443987D01*
X105921798Y12443981D01*
X105919907Y12439413D01*
X105918753Y12434610D01*
X105918751Y12434601D01*
X105864823Y12209976D01*
X105864822Y12209970D01*
X105863668Y12205163D01*
X105863280Y12200240D01*
X105863279Y12200230D01*
X105852146Y12058760D01*
X105844767Y11965000D01*
X101517233Y11965000D01*
X101498332Y12205163D01*
X101442093Y12439413D01*
X101349903Y12661981D01*
X101224030Y12867387D01*
X101067574Y13050574D01*
X100884387Y13207030D01*
X100678981Y13332903D01*
X100456413Y13425093D01*
X100451605Y13426248D01*
X100451600Y13426249D01*
X100226975Y13480177D01*
X100226971Y13480178D01*
X100222163Y13481332D01*
X100217237Y13481720D01*
X100217229Y13481721D01*
X99986930Y13499845D01*
X99982000Y13500233D01*
X99977070Y13499845D01*
X99746770Y13481721D01*
X99746760Y13481720D01*
X99741837Y13481332D01*
X99737030Y13480178D01*
X99737024Y13480177D01*
X99512399Y13426249D01*
X99512390Y13426247D01*
X99507587Y13425093D01*
X99503019Y13423202D01*
X99503013Y13423199D01*
X99289593Y13334798D01*
X99289588Y13334796D01*
X99285019Y13332903D01*
X99280804Y13330321D01*
X99280798Y13330317D01*
X99083830Y13209615D01*
X99083822Y13209610D01*
X99079613Y13207030D01*
X99075852Y13203819D01*
X99075848Y13203815D01*
X98900188Y13053788D01*
X98900181Y13053782D01*
X98896426Y13050574D01*
X98893218Y13046819D01*
X98893212Y13046812D01*
X98743185Y12871152D01*
X98743181Y12871148D01*
X98739970Y12867387D01*
X98737390Y12863178D01*
X98737385Y12863170D01*
X98616683Y12666202D01*
X98616679Y12666196D01*
X98614097Y12661981D01*
X98612204Y12657412D01*
X98612202Y12657407D01*
X98523801Y12443987D01*
X98523798Y12443981D01*
X98521907Y12439413D01*
X98520753Y12434610D01*
X98520751Y12434601D01*
X98466823Y12209976D01*
X98466822Y12209970D01*
X98465668Y12205163D01*
X98465280Y12200240D01*
X98465279Y12200230D01*
X98454146Y12058760D01*
X98446767Y11965000D01*
X85017233Y11965000D01*
X84998332Y12205163D01*
X84967161Y12335000D01*
X91606679Y12335000D01*
X91608593Y12324145D01*
X91624697Y12232812D01*
X91624698Y12232809D01*
X91626612Y12221955D01*
X91632123Y12212410D01*
X91632124Y12212407D01*
X91678495Y12132090D01*
X91684006Y12122545D01*
X91771939Y12048760D01*
X91879806Y12009500D01*
X91983567Y12009500D01*
X91994594Y12009500D01*
X92102461Y12048760D01*
X92157009Y12094532D01*
X92208940Y12120613D01*
X92267056Y12120614D01*
X92318990Y12094532D01*
X92331048Y12084414D01*
X92373539Y12048760D01*
X92481406Y12009500D01*
X92585167Y12009500D01*
X92596194Y12009500D01*
X92704061Y12048760D01*
X92791994Y12122545D01*
X92849388Y12221955D01*
X92869321Y12335000D01*
X94606679Y12335000D01*
X94608593Y12324145D01*
X94624697Y12232812D01*
X94624698Y12232809D01*
X94626612Y12221955D01*
X94632123Y12212410D01*
X94632124Y12212407D01*
X94678495Y12132090D01*
X94684006Y12122545D01*
X94771939Y12048760D01*
X94879806Y12009500D01*
X94983567Y12009500D01*
X94994594Y12009500D01*
X95102461Y12048760D01*
X95157009Y12094532D01*
X95208940Y12120613D01*
X95267056Y12120614D01*
X95318990Y12094532D01*
X95331048Y12084414D01*
X95373539Y12048760D01*
X95481406Y12009500D01*
X95585167Y12009500D01*
X95596194Y12009500D01*
X95704061Y12048760D01*
X95791994Y12122545D01*
X95849388Y12221955D01*
X95869321Y12335000D01*
X95849388Y12448045D01*
X95838101Y12467594D01*
X95797504Y12537911D01*
X95791994Y12547455D01*
X95704061Y12621240D01*
X95693701Y12625011D01*
X95693699Y12625012D01*
X95606556Y12656729D01*
X95606553Y12656730D01*
X95596194Y12660500D01*
X95481406Y12660500D01*
X95471046Y12656730D01*
X95471044Y12656729D01*
X95383899Y12625011D01*
X95383896Y12625010D01*
X95373540Y12621240D01*
X95365099Y12614158D01*
X95365095Y12614155D01*
X95318990Y12575468D01*
X95267057Y12549387D01*
X95208942Y12549387D01*
X95157009Y12575469D01*
X95110907Y12614153D01*
X95110906Y12614154D01*
X95102461Y12621240D01*
X95092101Y12625011D01*
X95092099Y12625012D01*
X95004956Y12656729D01*
X95004953Y12656730D01*
X94994594Y12660500D01*
X94879806Y12660500D01*
X94869446Y12656730D01*
X94869444Y12656729D01*
X94782299Y12625011D01*
X94782296Y12625010D01*
X94771940Y12621240D01*
X94763499Y12614158D01*
X94763495Y12614155D01*
X94692451Y12554542D01*
X94692448Y12554540D01*
X94684006Y12547455D01*
X94678496Y12537913D01*
X94678493Y12537908D01*
X94632124Y12457594D01*
X94632122Y12457589D01*
X94626612Y12448045D01*
X94624698Y12437194D01*
X94624697Y12437189D01*
X94624241Y12434601D01*
X94606679Y12335000D01*
X92869321Y12335000D01*
X92849388Y12448045D01*
X92838101Y12467594D01*
X92797504Y12537911D01*
X92791994Y12547455D01*
X92704061Y12621240D01*
X92693701Y12625011D01*
X92693699Y12625012D01*
X92606556Y12656729D01*
X92606553Y12656730D01*
X92596194Y12660500D01*
X92481406Y12660500D01*
X92471046Y12656730D01*
X92471044Y12656729D01*
X92383899Y12625011D01*
X92383896Y12625010D01*
X92373540Y12621240D01*
X92365099Y12614158D01*
X92365095Y12614155D01*
X92318990Y12575468D01*
X92267057Y12549387D01*
X92208942Y12549387D01*
X92157009Y12575469D01*
X92110907Y12614153D01*
X92110906Y12614154D01*
X92102461Y12621240D01*
X92092101Y12625011D01*
X92092099Y12625012D01*
X92004956Y12656729D01*
X92004953Y12656730D01*
X91994594Y12660500D01*
X91879806Y12660500D01*
X91869446Y12656730D01*
X91869444Y12656729D01*
X91782299Y12625011D01*
X91782296Y12625010D01*
X91771940Y12621240D01*
X91763499Y12614158D01*
X91763495Y12614155D01*
X91692451Y12554542D01*
X91692448Y12554540D01*
X91684006Y12547455D01*
X91678496Y12537913D01*
X91678493Y12537908D01*
X91632124Y12457594D01*
X91632122Y12457589D01*
X91626612Y12448045D01*
X91624698Y12437194D01*
X91624697Y12437189D01*
X91624241Y12434601D01*
X91606679Y12335000D01*
X84967161Y12335000D01*
X84942093Y12439413D01*
X84849903Y12661981D01*
X84724030Y12867387D01*
X84567574Y13050574D01*
X84384387Y13207030D01*
X84178981Y13332903D01*
X83956413Y13425093D01*
X83951605Y13426248D01*
X83951600Y13426249D01*
X83726975Y13480177D01*
X83726971Y13480178D01*
X83722163Y13481332D01*
X83717237Y13481720D01*
X83717229Y13481721D01*
X83486930Y13499845D01*
X83482000Y13500233D01*
X83477070Y13499845D01*
X83246770Y13481721D01*
X83246760Y13481720D01*
X83241837Y13481332D01*
X83237030Y13480178D01*
X83237024Y13480177D01*
X83012399Y13426249D01*
X83012390Y13426247D01*
X83007587Y13425093D01*
X83003019Y13423202D01*
X83003013Y13423199D01*
X82789593Y13334798D01*
X82789588Y13334796D01*
X82785019Y13332903D01*
X82780804Y13330321D01*
X82780798Y13330317D01*
X82583830Y13209615D01*
X82583822Y13209610D01*
X82579613Y13207030D01*
X82575852Y13203819D01*
X82575848Y13203815D01*
X82400188Y13053788D01*
X82400181Y13053782D01*
X82396426Y13050574D01*
X82393218Y13046819D01*
X82393212Y13046812D01*
X82243185Y12871152D01*
X82243181Y12871148D01*
X82239970Y12867387D01*
X82237390Y12863178D01*
X82237385Y12863170D01*
X82116683Y12666202D01*
X82116679Y12666196D01*
X82114097Y12661981D01*
X82112204Y12657412D01*
X82112202Y12657407D01*
X82023801Y12443987D01*
X82023798Y12443981D01*
X82021907Y12439413D01*
X82020753Y12434610D01*
X82020751Y12434601D01*
X81966823Y12209976D01*
X81966822Y12209970D01*
X81965668Y12205163D01*
X81965280Y12200240D01*
X81965279Y12200230D01*
X81954146Y12058760D01*
X81946767Y11965000D01*
X77619233Y11965000D01*
X77600332Y12205163D01*
X77544093Y12439413D01*
X77451903Y12661981D01*
X77326030Y12867387D01*
X77169574Y13050574D01*
X76986387Y13207030D01*
X76780981Y13332903D01*
X76558413Y13425093D01*
X76553605Y13426248D01*
X76553600Y13426249D01*
X76328975Y13480177D01*
X76328971Y13480178D01*
X76324163Y13481332D01*
X76319237Y13481720D01*
X76319229Y13481721D01*
X76088930Y13499845D01*
X76084000Y13500233D01*
X76079070Y13499845D01*
X75848770Y13481721D01*
X75848760Y13481720D01*
X75843837Y13481332D01*
X75839030Y13480178D01*
X75839024Y13480177D01*
X75614399Y13426249D01*
X75614390Y13426247D01*
X75609587Y13425093D01*
X75605019Y13423202D01*
X75605013Y13423199D01*
X75391593Y13334798D01*
X75391588Y13334796D01*
X75387019Y13332903D01*
X75382804Y13330321D01*
X75382798Y13330317D01*
X75185830Y13209615D01*
X75185822Y13209610D01*
X75181613Y13207030D01*
X75177852Y13203819D01*
X75177848Y13203815D01*
X75002188Y13053788D01*
X75002181Y13053782D01*
X74998426Y13050574D01*
X74995218Y13046819D01*
X74995212Y13046812D01*
X74845185Y12871152D01*
X74845181Y12871148D01*
X74841970Y12867387D01*
X74839390Y12863178D01*
X74839385Y12863170D01*
X74718683Y12666202D01*
X74718679Y12666196D01*
X74716097Y12661981D01*
X74714204Y12657412D01*
X74714202Y12657407D01*
X74625801Y12443987D01*
X74625798Y12443981D01*
X74623907Y12439413D01*
X74622753Y12434610D01*
X74622751Y12434601D01*
X74568823Y12209976D01*
X74568822Y12209970D01*
X74567668Y12205163D01*
X74567280Y12200240D01*
X74567279Y12200230D01*
X74556146Y12058760D01*
X74548767Y11965000D01*
X61119233Y11965000D01*
X61100332Y12205163D01*
X61069161Y12335000D01*
X65206679Y12335000D01*
X65208593Y12324145D01*
X65224697Y12232812D01*
X65224698Y12232809D01*
X65226612Y12221955D01*
X65232123Y12212410D01*
X65232124Y12212407D01*
X65278495Y12132090D01*
X65284006Y12122545D01*
X65371939Y12048760D01*
X65479806Y12009500D01*
X65583567Y12009500D01*
X65594594Y12009500D01*
X65702461Y12048760D01*
X65757009Y12094532D01*
X65808940Y12120613D01*
X65867056Y12120614D01*
X65918990Y12094532D01*
X65931048Y12084414D01*
X65973539Y12048760D01*
X66081406Y12009500D01*
X66185167Y12009500D01*
X66196194Y12009500D01*
X66304061Y12048760D01*
X66391994Y12122545D01*
X66449388Y12221955D01*
X66469321Y12335000D01*
X66449388Y12448045D01*
X66438101Y12467594D01*
X66397504Y12537911D01*
X66391994Y12547455D01*
X66304061Y12621240D01*
X66293701Y12625011D01*
X66293699Y12625012D01*
X66206556Y12656729D01*
X66206553Y12656730D01*
X66196194Y12660500D01*
X66081406Y12660500D01*
X66071046Y12656730D01*
X66071044Y12656729D01*
X65983899Y12625011D01*
X65983896Y12625010D01*
X65973540Y12621240D01*
X65965099Y12614158D01*
X65965095Y12614155D01*
X65918990Y12575468D01*
X65867057Y12549387D01*
X65808942Y12549387D01*
X65757009Y12575469D01*
X65710907Y12614153D01*
X65710906Y12614154D01*
X65702461Y12621240D01*
X65692101Y12625011D01*
X65692099Y12625012D01*
X65604956Y12656729D01*
X65604953Y12656730D01*
X65594594Y12660500D01*
X65479806Y12660500D01*
X65469446Y12656730D01*
X65469444Y12656729D01*
X65382299Y12625011D01*
X65382296Y12625010D01*
X65371940Y12621240D01*
X65363499Y12614158D01*
X65363495Y12614155D01*
X65292451Y12554542D01*
X65292448Y12554540D01*
X65284006Y12547455D01*
X65278496Y12537913D01*
X65278493Y12537908D01*
X65232124Y12457594D01*
X65232122Y12457589D01*
X65226612Y12448045D01*
X65224698Y12437194D01*
X65224697Y12437189D01*
X65224241Y12434601D01*
X65206679Y12335000D01*
X61069161Y12335000D01*
X61044093Y12439413D01*
X60951903Y12661981D01*
X60826030Y12867387D01*
X60669574Y13050574D01*
X60486387Y13207030D01*
X60280981Y13332903D01*
X60058413Y13425093D01*
X60053605Y13426248D01*
X60053600Y13426249D01*
X59828975Y13480177D01*
X59828971Y13480178D01*
X59824163Y13481332D01*
X59819237Y13481720D01*
X59819229Y13481721D01*
X59588930Y13499845D01*
X59584000Y13500233D01*
X59579070Y13499845D01*
X59348770Y13481721D01*
X59348760Y13481720D01*
X59343837Y13481332D01*
X59339030Y13480178D01*
X59339024Y13480177D01*
X59114399Y13426249D01*
X59114390Y13426247D01*
X59109587Y13425093D01*
X59105019Y13423202D01*
X59105013Y13423199D01*
X58891593Y13334798D01*
X58891588Y13334796D01*
X58887019Y13332903D01*
X58882804Y13330321D01*
X58882798Y13330317D01*
X58685830Y13209615D01*
X58685822Y13209610D01*
X58681613Y13207030D01*
X58677852Y13203819D01*
X58677848Y13203815D01*
X58502188Y13053788D01*
X58502181Y13053782D01*
X58498426Y13050574D01*
X58495218Y13046819D01*
X58495212Y13046812D01*
X58345185Y12871152D01*
X58345181Y12871148D01*
X58341970Y12867387D01*
X58339390Y12863178D01*
X58339385Y12863170D01*
X58218683Y12666202D01*
X58218679Y12666196D01*
X58216097Y12661981D01*
X58214204Y12657412D01*
X58214202Y12657407D01*
X58125801Y12443987D01*
X58125798Y12443981D01*
X58123907Y12439413D01*
X58122753Y12434610D01*
X58122751Y12434601D01*
X58068823Y12209976D01*
X58068822Y12209970D01*
X58067668Y12205163D01*
X58067280Y12200240D01*
X58067279Y12200230D01*
X58056146Y12058760D01*
X58048767Y11965000D01*
X53719154Y11965000D01*
X53719233Y11966000D01*
X53700332Y12206163D01*
X53644093Y12440413D01*
X53551903Y12662981D01*
X53426030Y12868387D01*
X53269574Y13051574D01*
X53086387Y13208030D01*
X52880981Y13333903D01*
X52658413Y13426093D01*
X52653605Y13427248D01*
X52653600Y13427249D01*
X52428975Y13481177D01*
X52428971Y13481178D01*
X52424163Y13482332D01*
X52419237Y13482720D01*
X52419229Y13482721D01*
X52188930Y13500845D01*
X52184000Y13501233D01*
X52179070Y13500845D01*
X51948770Y13482721D01*
X51948760Y13482720D01*
X51943837Y13482332D01*
X51939030Y13481178D01*
X51939024Y13481177D01*
X51714399Y13427249D01*
X51714390Y13427247D01*
X51709587Y13426093D01*
X51705019Y13424202D01*
X51705013Y13424199D01*
X51491593Y13335798D01*
X51491588Y13335796D01*
X51487019Y13333903D01*
X51482804Y13331321D01*
X51482798Y13331317D01*
X51285830Y13210615D01*
X51285822Y13210610D01*
X51281613Y13208030D01*
X51277852Y13204819D01*
X51277848Y13204815D01*
X51102188Y13054788D01*
X51102181Y13054782D01*
X51098426Y13051574D01*
X51095218Y13047819D01*
X51095212Y13047812D01*
X50945185Y12872152D01*
X50945181Y12872148D01*
X50941970Y12868387D01*
X50939390Y12864178D01*
X50939385Y12864170D01*
X50818683Y12667202D01*
X50818679Y12667196D01*
X50816097Y12662981D01*
X50814204Y12658412D01*
X50814202Y12658407D01*
X50725801Y12444987D01*
X50725798Y12444981D01*
X50723907Y12440413D01*
X50722753Y12435610D01*
X50722751Y12435601D01*
X50668823Y12210976D01*
X50668822Y12210970D01*
X50667668Y12206163D01*
X50667280Y12201240D01*
X50667279Y12201230D01*
X50658882Y12094531D01*
X50648767Y11966000D01*
X37219233Y11966000D01*
X37200332Y12206163D01*
X37144093Y12440413D01*
X37051903Y12662981D01*
X36926030Y12868387D01*
X36769574Y13051574D01*
X36586387Y13208030D01*
X36380981Y13333903D01*
X36158413Y13426093D01*
X36153605Y13427248D01*
X36153600Y13427249D01*
X35928975Y13481177D01*
X35928971Y13481178D01*
X35924163Y13482332D01*
X35919237Y13482720D01*
X35919229Y13482721D01*
X35688930Y13500845D01*
X35684000Y13501233D01*
X35679070Y13500845D01*
X35448770Y13482721D01*
X35448760Y13482720D01*
X35443837Y13482332D01*
X35439030Y13481178D01*
X35439024Y13481177D01*
X35214399Y13427249D01*
X35214390Y13427247D01*
X35209587Y13426093D01*
X35205019Y13424202D01*
X35205013Y13424199D01*
X34991593Y13335798D01*
X34991588Y13335796D01*
X34987019Y13333903D01*
X34982804Y13331321D01*
X34982798Y13331317D01*
X34785830Y13210615D01*
X34785822Y13210610D01*
X34781613Y13208030D01*
X34777852Y13204819D01*
X34777848Y13204815D01*
X34602188Y13054788D01*
X34602181Y13054782D01*
X34598426Y13051574D01*
X34595218Y13047819D01*
X34595212Y13047812D01*
X34445185Y12872152D01*
X34445181Y12872148D01*
X34441970Y12868387D01*
X34439390Y12864178D01*
X34439385Y12864170D01*
X34318683Y12667202D01*
X34318679Y12667196D01*
X34316097Y12662981D01*
X34314204Y12658412D01*
X34314202Y12658407D01*
X34225801Y12444987D01*
X34225798Y12444981D01*
X34223907Y12440413D01*
X34222753Y12435610D01*
X34222751Y12435601D01*
X34168823Y12210976D01*
X34168822Y12210970D01*
X34167668Y12206163D01*
X34167280Y12201240D01*
X34167279Y12201230D01*
X34158882Y12094531D01*
X34148767Y11966000D01*
X29823154Y11966000D01*
X29804332Y12205163D01*
X29748093Y12439413D01*
X29655903Y12661981D01*
X29530030Y12867387D01*
X29373574Y13050574D01*
X29190387Y13207030D01*
X28984981Y13332903D01*
X28762413Y13425093D01*
X28757605Y13426248D01*
X28757600Y13426249D01*
X28532975Y13480177D01*
X28532971Y13480178D01*
X28528163Y13481332D01*
X28523237Y13481720D01*
X28523229Y13481721D01*
X28292930Y13499845D01*
X28288000Y13500233D01*
X28283070Y13499845D01*
X28052770Y13481721D01*
X28052760Y13481720D01*
X28047837Y13481332D01*
X28043030Y13480178D01*
X28043024Y13480177D01*
X27818399Y13426249D01*
X27818390Y13426247D01*
X27813587Y13425093D01*
X27809019Y13423202D01*
X27809013Y13423199D01*
X27595593Y13334798D01*
X27595588Y13334796D01*
X27591019Y13332903D01*
X27586804Y13330321D01*
X27586798Y13330317D01*
X27389830Y13209615D01*
X27389822Y13209610D01*
X27385613Y13207030D01*
X27381852Y13203819D01*
X27381848Y13203815D01*
X27206188Y13053788D01*
X27206181Y13053782D01*
X27202426Y13050574D01*
X27199218Y13046819D01*
X27199212Y13046812D01*
X27049185Y12871152D01*
X27049181Y12871148D01*
X27045970Y12867387D01*
X27043390Y12863178D01*
X27043385Y12863170D01*
X26922683Y12666202D01*
X26922679Y12666196D01*
X26920097Y12661981D01*
X26918204Y12657412D01*
X26918202Y12657407D01*
X26829801Y12443987D01*
X26829798Y12443981D01*
X26827907Y12439413D01*
X26826753Y12434610D01*
X26826751Y12434601D01*
X26772823Y12209976D01*
X26772822Y12209970D01*
X26771668Y12205163D01*
X26771280Y12200240D01*
X26771279Y12200230D01*
X26760146Y12058760D01*
X26752767Y11965000D01*
X13323233Y11965000D01*
X13304332Y12205163D01*
X13273161Y12335000D01*
X17406679Y12335000D01*
X17408593Y12324145D01*
X17424697Y12232812D01*
X17424698Y12232809D01*
X17426612Y12221955D01*
X17432123Y12212410D01*
X17432124Y12212407D01*
X17478495Y12132090D01*
X17484006Y12122545D01*
X17571939Y12048760D01*
X17679806Y12009500D01*
X17783567Y12009500D01*
X17794594Y12009500D01*
X17902461Y12048760D01*
X17957009Y12094532D01*
X18008942Y12120614D01*
X18067058Y12120614D01*
X18118990Y12094532D01*
X18173539Y12048760D01*
X18281406Y12009500D01*
X18385167Y12009500D01*
X18396194Y12009500D01*
X18504061Y12048760D01*
X18591994Y12122545D01*
X18649388Y12221955D01*
X18669321Y12335000D01*
X18667558Y12345000D01*
X19907479Y12345000D01*
X19909393Y12334145D01*
X19925497Y12242812D01*
X19925498Y12242809D01*
X19927412Y12231955D01*
X19932923Y12222410D01*
X19932924Y12222407D01*
X19942880Y12205163D01*
X19984806Y12132545D01*
X20072739Y12058760D01*
X20180606Y12019500D01*
X20284367Y12019500D01*
X20295394Y12019500D01*
X20403261Y12058760D01*
X20459059Y12105581D01*
X20510992Y12131663D01*
X20569108Y12131663D01*
X20621040Y12105581D01*
X20676839Y12058760D01*
X20784706Y12019500D01*
X20888467Y12019500D01*
X20899494Y12019500D01*
X21007361Y12058760D01*
X21095294Y12132545D01*
X21152688Y12231955D01*
X21170858Y12335000D01*
X22906679Y12335000D01*
X22908593Y12324145D01*
X22924697Y12232812D01*
X22924698Y12232809D01*
X22926612Y12221955D01*
X22932123Y12212410D01*
X22932124Y12212407D01*
X22978495Y12132090D01*
X22984006Y12122545D01*
X23071939Y12048760D01*
X23179806Y12009500D01*
X23283567Y12009500D01*
X23294594Y12009500D01*
X23402461Y12048760D01*
X23457009Y12094532D01*
X23508942Y12120614D01*
X23567058Y12120614D01*
X23618990Y12094532D01*
X23673539Y12048760D01*
X23781406Y12009500D01*
X23885167Y12009500D01*
X23896194Y12009500D01*
X24004061Y12048760D01*
X24091994Y12122545D01*
X24149388Y12221955D01*
X24169321Y12335000D01*
X24149388Y12448045D01*
X24138101Y12467594D01*
X24097504Y12537911D01*
X24091994Y12547455D01*
X24004061Y12621240D01*
X23993701Y12625011D01*
X23993699Y12625012D01*
X23906556Y12656729D01*
X23906553Y12656730D01*
X23896194Y12660500D01*
X23781406Y12660500D01*
X23771046Y12656730D01*
X23771044Y12656729D01*
X23683899Y12625011D01*
X23683896Y12625010D01*
X23673540Y12621240D01*
X23665099Y12614158D01*
X23665095Y12614155D01*
X23618990Y12575468D01*
X23567057Y12549387D01*
X23508942Y12549387D01*
X23457009Y12575469D01*
X23410907Y12614153D01*
X23410906Y12614154D01*
X23402461Y12621240D01*
X23392101Y12625011D01*
X23392099Y12625012D01*
X23304956Y12656729D01*
X23304953Y12656730D01*
X23294594Y12660500D01*
X23179806Y12660500D01*
X23169446Y12656730D01*
X23169444Y12656729D01*
X23082299Y12625011D01*
X23082296Y12625010D01*
X23071940Y12621240D01*
X23063499Y12614158D01*
X23063495Y12614155D01*
X22992451Y12554542D01*
X22992448Y12554540D01*
X22984006Y12547455D01*
X22978496Y12537913D01*
X22978493Y12537908D01*
X22932124Y12457594D01*
X22932122Y12457589D01*
X22926612Y12448045D01*
X22924698Y12437194D01*
X22924697Y12437189D01*
X22924241Y12434601D01*
X22906679Y12335000D01*
X21170858Y12335000D01*
X21172621Y12345000D01*
X21152688Y12458045D01*
X21095294Y12557455D01*
X21024559Y12616809D01*
X21015807Y12624153D01*
X21015806Y12624154D01*
X21007361Y12631240D01*
X20997001Y12635011D01*
X20996999Y12635012D01*
X20909856Y12666729D01*
X20909853Y12666730D01*
X20899494Y12670500D01*
X20784706Y12670500D01*
X20774346Y12666730D01*
X20774344Y12666729D01*
X20687199Y12635011D01*
X20687196Y12635010D01*
X20676840Y12631240D01*
X20668396Y12624156D01*
X20668391Y12624152D01*
X20621040Y12584420D01*
X20569107Y12558338D01*
X20510992Y12558338D01*
X20459059Y12584420D01*
X20423623Y12614154D01*
X20403261Y12631240D01*
X20392901Y12635011D01*
X20392899Y12635012D01*
X20305756Y12666729D01*
X20305753Y12666730D01*
X20295394Y12670500D01*
X20180606Y12670500D01*
X20170246Y12666730D01*
X20170244Y12666729D01*
X20083099Y12635011D01*
X20083096Y12635010D01*
X20072740Y12631240D01*
X20064299Y12624158D01*
X20064295Y12624155D01*
X19993251Y12564542D01*
X19993248Y12564540D01*
X19984806Y12557455D01*
X19979296Y12547913D01*
X19979293Y12547908D01*
X19932924Y12467594D01*
X19932922Y12467589D01*
X19927412Y12458045D01*
X19925498Y12447194D01*
X19925497Y12447189D01*
X19909393Y12355855D01*
X19907479Y12345000D01*
X18667558Y12345000D01*
X18649388Y12448045D01*
X18638101Y12467594D01*
X18597504Y12537911D01*
X18591994Y12547455D01*
X18504061Y12621240D01*
X18493701Y12625011D01*
X18493699Y12625012D01*
X18406556Y12656729D01*
X18406553Y12656730D01*
X18396194Y12660500D01*
X18281406Y12660500D01*
X18271046Y12656730D01*
X18271044Y12656729D01*
X18183899Y12625011D01*
X18183896Y12625010D01*
X18173540Y12621240D01*
X18165099Y12614158D01*
X18165095Y12614155D01*
X18118990Y12575468D01*
X18067057Y12549387D01*
X18008942Y12549387D01*
X17957009Y12575469D01*
X17910907Y12614153D01*
X17910906Y12614154D01*
X17902461Y12621240D01*
X17892101Y12625011D01*
X17892099Y12625012D01*
X17804956Y12656729D01*
X17804953Y12656730D01*
X17794594Y12660500D01*
X17679806Y12660500D01*
X17669446Y12656730D01*
X17669444Y12656729D01*
X17582299Y12625011D01*
X17582296Y12625010D01*
X17571940Y12621240D01*
X17563499Y12614158D01*
X17563495Y12614155D01*
X17492451Y12554542D01*
X17492448Y12554540D01*
X17484006Y12547455D01*
X17478496Y12537913D01*
X17478493Y12537908D01*
X17432124Y12457594D01*
X17432122Y12457589D01*
X17426612Y12448045D01*
X17424698Y12437194D01*
X17424697Y12437189D01*
X17424241Y12434601D01*
X17406679Y12335000D01*
X13273161Y12335000D01*
X13248093Y12439413D01*
X13155903Y12661981D01*
X13030030Y12867387D01*
X12873574Y13050574D01*
X12690387Y13207030D01*
X12484981Y13332903D01*
X12262413Y13425093D01*
X12257605Y13426248D01*
X12257600Y13426249D01*
X12032975Y13480177D01*
X12032971Y13480178D01*
X12028163Y13481332D01*
X12023237Y13481720D01*
X12023229Y13481721D01*
X11792930Y13499845D01*
X11788000Y13500233D01*
X11783070Y13499845D01*
X11552770Y13481721D01*
X11552760Y13481720D01*
X11547837Y13481332D01*
X11543030Y13480178D01*
X11543024Y13480177D01*
X11318399Y13426249D01*
X11318390Y13426247D01*
X11313587Y13425093D01*
X11309019Y13423202D01*
X11309013Y13423199D01*
X11095593Y13334798D01*
X11095588Y13334796D01*
X11091019Y13332903D01*
X11086804Y13330321D01*
X11086798Y13330317D01*
X10889830Y13209615D01*
X10889822Y13209610D01*
X10885613Y13207030D01*
X10881852Y13203819D01*
X10881848Y13203815D01*
X10706188Y13053788D01*
X10706181Y13053782D01*
X10702426Y13050574D01*
X10699218Y13046819D01*
X10699212Y13046812D01*
X10549185Y12871152D01*
X10549181Y12871148D01*
X10545970Y12867387D01*
X10543390Y12863178D01*
X10543385Y12863170D01*
X10422683Y12666202D01*
X10422679Y12666196D01*
X10420097Y12661981D01*
X10418204Y12657412D01*
X10418202Y12657407D01*
X10329801Y12443987D01*
X10329798Y12443981D01*
X10327907Y12439413D01*
X10326753Y12434610D01*
X10326751Y12434601D01*
X10272823Y12209976D01*
X10272822Y12209970D01*
X10271668Y12205163D01*
X10271280Y12200240D01*
X10271279Y12200230D01*
X10260146Y12058760D01*
X10252767Y11965000D01*
X48500Y11965000D01*
X48500Y27200071D01*
X2317500Y27200071D01*
X2318201Y27195417D01*
X2318202Y27195410D01*
X2346077Y27010475D01*
X2357720Y26933228D01*
X2359106Y26928732D01*
X2359108Y26928727D01*
X2435871Y26679866D01*
X2435874Y26679857D01*
X2437262Y26675359D01*
X2439307Y26671113D01*
X2439308Y26671110D01*
X2552302Y26436475D01*
X2552303Y26436474D01*
X2554349Y26432226D01*
X2706365Y26209259D01*
X2709565Y26205810D01*
X2709570Y26205804D01*
X2861133Y26042459D01*
X2889915Y26011439D01*
X3100898Y25843185D01*
X3104976Y25840831D01*
X3104977Y25840830D01*
X3330020Y25710902D01*
X3334602Y25708257D01*
X3338991Y25706535D01*
X3338994Y25706533D01*
X3423544Y25673350D01*
X3585805Y25609666D01*
X3848897Y25549617D01*
X4050624Y25534500D01*
X4183023Y25534500D01*
X4185376Y25534500D01*
X4387103Y25549617D01*
X4650195Y25609666D01*
X4901398Y25708257D01*
X5135102Y25843185D01*
X5346085Y26011439D01*
X5529635Y26209259D01*
X5681651Y26432225D01*
X5798738Y26675359D01*
X5878280Y26933228D01*
X5918500Y27200071D01*
X5918500Y27469929D01*
X5878280Y27736772D01*
X5798738Y27994641D01*
X5681651Y28237774D01*
X5529635Y28460741D01*
X5526433Y28464192D01*
X5526429Y28464197D01*
X5349285Y28655112D01*
X5346085Y28658561D01*
X5135102Y28826815D01*
X5131026Y28829169D01*
X5131022Y28829171D01*
X4905485Y28959384D01*
X4905478Y28959388D01*
X4901398Y28961743D01*
X4897014Y28963464D01*
X4897005Y28963468D01*
X4654588Y29058610D01*
X4654586Y29058611D01*
X4650195Y29060334D01*
X4645595Y29061384D01*
X4391704Y29119333D01*
X4391702Y29119334D01*
X4387103Y29120383D01*
X4382401Y29120736D01*
X4382397Y29120736D01*
X4187718Y29135325D01*
X4187704Y29135326D01*
X4185376Y29135500D01*
X4050624Y29135500D01*
X4048296Y29135326D01*
X4048281Y29135325D01*
X3853602Y29120736D01*
X3853596Y29120736D01*
X3848897Y29120383D01*
X3844299Y29119334D01*
X3844295Y29119333D01*
X3590404Y29061384D01*
X3590400Y29061383D01*
X3585805Y29060334D01*
X3581417Y29058612D01*
X3581411Y29058610D01*
X3338994Y28963468D01*
X3338979Y28963462D01*
X3334602Y28961743D01*
X3330526Y28959390D01*
X3330514Y28959384D01*
X3104977Y28829171D01*
X3104967Y28829165D01*
X3100898Y28826815D01*
X3097221Y28823884D01*
X3097217Y28823880D01*
X2893595Y28661496D01*
X2889915Y28658561D01*
X2886719Y28655118D01*
X2886714Y28655112D01*
X2709570Y28464197D01*
X2709559Y28464184D01*
X2706365Y28460741D01*
X2703715Y28456855D01*
X2703706Y28456843D01*
X2557005Y28241672D01*
X2556999Y28241664D01*
X2554349Y28237775D01*
X2552304Y28233530D01*
X2552303Y28233527D01*
X2439308Y27998891D01*
X2439304Y27998884D01*
X2437262Y27994641D01*
X2435876Y27990148D01*
X2435871Y27990135D01*
X2359108Y27741274D01*
X2359106Y27741266D01*
X2357720Y27736772D01*
X2357019Y27732122D01*
X2357018Y27732117D01*
X2318202Y27474591D01*
X2318201Y27474583D01*
X2317500Y27469929D01*
X2317500Y27200071D01*
X48500Y27200071D01*
X48500Y30828500D01*
X65381Y30891500D01*
X111500Y30937619D01*
X174500Y30954500D01*
X53987955Y30954500D01*
X54008045Y30954500D01*
X56601500Y30954500D01*
X56664500Y30937619D01*
G37*
%TD.AperFunction*%
%TD*%
D13*
X-2000Y31005000D02*
X-2000Y5000D01*
X159998000Y31005000D02*
X159998000Y5000D01*
X105998000Y31005000D02*
X159998000Y31005000D01*
X53998000Y31005000D02*
X-2000Y31005000D01*
X-2000Y5000D02*
X159998000Y5000D01*
%TO.C,J7*%
X56778000Y31005000D02*
X53998000Y31005000D01*
X56778000Y27005000D02*
X56778000Y31005000D01*
X58998000Y31005000D02*
X58998000Y27005000D01*
X105998000Y31005000D02*
X58998000Y31005000D01*
X56778000Y27005000D02*
G75*
G03*
X57888000Y25895000I1109998J-2D01*
G01*
X57888000Y25895000D02*
G75*
G03*
X58998000Y27005000I2J1109998D01*
G01*
%TD*%
M02*
